<svg xmlns="http://www.w3.org/2000/svg" width="1056" height="992" viewBox="0 0 1056 992" version="1.1">
	<path d="M 408 246.110 C 394.840 248.731, 391.881 249.457, 385 251.754 C 368.974 257.105, 351.810 267.223, 338.685 279.057 C 325.239 291.179, 315.410 304.033, 307.504 319.834 C 289.792 355.232, 289.608 401.467, 307.030 438.500 C 321.534 469.329, 351.932 496.399, 384 507.043 C 416.501 517.830, 447.869 517.256, 478.461 505.316 C 522.372 488.177, 551.439 453.562, 561.860 406 C 569.910 369.256, 559.949 326.600, 536.170 296 C 529.957 288.004, 514.767 273.973, 506.257 268.368 C 489.556 257.370, 470.662 249.707, 452.500 246.564 C 442.618 244.854, 415.688 244.579, 408 246.110 M 413.500 257.392 C 371.423 263.547, 336.932 288.209, 318.246 325.500 C 313.462 335.048, 309.720 346.516, 307.439 358.626 C 303.954 377.129, 306.787 405.182, 314.043 424 C 320.049 439.579, 330.065 455.075, 341.510 466.496 C 351.731 476.696, 369.401 488.518, 381.152 493.018 C 382.993 493.723, 386.075 494.909, 388 495.654 C 409.169 503.839, 438.438 505.147, 460.500 498.894 C 468.957 496.497, 484.893 490.160, 487.079 488.325 C 487.947 487.596, 489.008 487, 489.436 487 C 491.553 487, 510.405 472.675, 517.017 466.041 C 544.631 438.337, 557.922 396.587, 551.118 358.919 C 545.233 326.340, 528.137 299.155, 501.511 280.040 C 475.846 261.614, 442.788 253.107, 413.500 257.392 M 461.665 275.079 C 459.570 277.525, 459.770 282.905, 462 284.106 C 462.825 284.550, 467.100 286.589, 471.500 288.636 C 487.559 296.108, 501.077 306.676, 510.343 319.003 C 515.138 325.381, 522.097 339.032, 524.105 346 C 524.819 348.475, 525.875 350.831, 526.451 351.235 C 528.401 352.600, 533.270 352.013, 534.608 350.250 C 536.541 347.703, 536.307 345.053, 533.485 337.556 C 522.958 309.588, 503.258 289.233, 475 277.128 C 471.975 275.832, 468.719 274.373, 467.764 273.886 C 465.091 272.523, 463.604 272.813, 461.665 275.079 M 640.889 279.512 C 622.018 284.686, 607.394 298.982, 599.470 320 C 596.836 326.985, 596.313 344.265, 598.464 353.228 C 603.701 375.056, 620.039 391.660, 642.117 397.591 C 650.702 399.898, 666.520 399.885, 674.500 397.565 C 701.168 389.812, 718.977 366.356, 718.968 339 C 718.961 319.613, 710.847 302.779, 695.500 290.310 C 684.599 281.453, 673.570 277.949, 657.145 278.124 C 650.740 278.192, 643.425 278.817, 640.889 279.512 M 647.263 290.514 C 634.443 293.299, 620.947 303.332, 614.782 314.659 C 607.310 328.387, 607.117 347.319, 614.300 361.968 C 619.754 373.092, 634.606 384.144, 647.799 386.895 C 666.992 390.897, 687.302 382.754, 698.217 366.680 C 703.792 358.471, 706.219 351.135, 706.772 340.821 C 707.586 325.658, 701.850 312.344, 689.861 301.565 C 677.945 290.852, 663.253 287.040, 647.263 290.514 M 773.406 369.901 C 763.205 376.638, 724.023 401.989, 711.643 409.864 C 705.121 414.011, 699.441 418.326, 699.020 419.453 C 698.600 420.579, 698.679 422.625, 699.198 424 C 701.235 429.406, 720.555 460.317, 722.827 461.806 C 725.800 463.754, 723.945 464.749, 756.285 443.853 C 799.166 416.146, 808.475 409.679, 808.805 407.364 C 808.988 406.076, 806.520 401.115, 802.585 394.864 C 798.997 389.164, 793.767 380.787, 790.963 376.249 C 783.692 364.483, 782.347 363.996, 773.406 369.901 M 765.269 389.321 C 758.542 393.819, 744.034 403.350, 733.028 410.500 C 722.023 417.650, 713.127 424.001, 713.259 424.613 C 713.810 427.157, 726.597 446.946, 727.708 446.972 C 729.892 447.023, 794 405.697, 794 404.238 C 794 402.488, 780.145 381.484, 778.883 381.321 C 778.122 381.222, 771.996 384.822, 765.269 389.321 M 633.500 429.645 C 617.788 431.059, 601.337 442.196, 594.300 456.183 C 592.552 459.658, 585.188 474.650, 577.935 489.500 L 564.748 516.500 567.262 524 C 570.025 532.243, 576.145 549.179, 583.884 570 C 592.199 592.369, 604.607 626.894, 607.962 637 C 617.621 666.095, 619.664 667.190, 627.556 647.494 C 629.979 641.447, 632.405 635.600, 632.948 634.500 C 633.490 633.400, 636.243 627.100, 639.065 620.500 C 652.424 589.254, 656.370 580.107, 658.595 575.220 C 659.918 572.317, 661 569.741, 661 569.498 C 661 569.254, 662.099 566.680, 663.443 563.777 C 664.787 560.875, 667.890 553.775, 670.340 548 C 672.790 542.225, 678.610 528.699, 683.273 517.942 C 687.936 507.185, 692.258 496.026, 692.876 493.143 C 698.389 467.438, 681.899 439.259, 657.159 432.105 C 650.143 430.076, 640.200 429.043, 633.500 429.645 M 627.836 442.919 C 616.098 446.673, 608.467 453.951, 601.960 467.598 C 599.626 472.494, 593.280 485.660, 587.858 496.856 C 582.436 508.052, 578.007 517.727, 578.015 518.356 C 578.030 519.576, 580.479 527.179, 581.926 530.500 C 582.816 532.543, 604.934 592.614, 613.775 617 C 616.698 625.062, 619.255 630.614, 620.122 630.782 C 621.020 630.957, 622.092 629.620, 622.928 627.282 C 623.673 625.202, 625.608 620.575, 627.229 617 C 632.342 605.719, 632.709 604.875, 640.478 586.500 C 644.663 576.600, 648.938 566.700, 649.978 564.500 C 651.017 562.300, 654.195 555.100, 657.040 548.500 C 659.885 541.900, 663.705 533.125, 665.529 529 C 675.810 505.748, 681.197 491.224, 681.714 485.366 C 683.031 470.442, 674.987 454.978, 662.113 447.681 C 650.307 440.990, 638.847 439.398, 627.836 442.919 M 533 535.064 C 531.389 536.080, 508.544 546.869, 498.233 551.484 C 493.774 553.479, 491.799 554.953, 491.388 556.592 C 491.008 558.104, 493.297 565.531, 498.045 578.198 C 506.409 600.510, 517.577 631.070, 522.640 645.500 C 524.570 651, 527.275 658.425, 528.652 662 C 530.028 665.575, 532.063 670.975, 533.175 674 C 534.286 677.025, 535.548 680.400, 535.979 681.500 C 536.410 682.600, 537.907 686.650, 539.304 690.500 C 540.701 694.350, 544.307 704.025, 547.318 712 C 550.329 719.975, 555.364 733.475, 558.508 742 C 561.652 750.525, 564.590 758.400, 565.039 759.500 C 565.487 760.600, 567.304 765.458, 569.076 770.295 C 570.860 775.163, 573.096 779.516, 574.084 780.045 C 575.083 780.580, 587.048 781, 601.279 781 C 633.832 781, 632.255 782.048, 625.754 764.730 C 623.228 758.004, 619.526 748, 617.526 742.500 C 615.526 737, 613.506 731.600, 613.038 730.500 C 611.692 727.339, 609.446 721.156, 606.501 712.500 C 605.003 708.100, 603.192 703.150, 602.475 701.500 C 601.215 698.601, 595.210 682.694, 592.281 674.500 C 591.495 672.300, 585.301 655.650, 578.517 637.500 C 571.732 619.350, 564.941 600.900, 563.426 596.500 C 561.910 592.100, 560.354 588.050, 559.968 587.500 C 559.583 586.950, 558.077 582.900, 556.622 578.500 C 551.996 564.505, 541.465 538.023, 539.711 535.975 C 537.904 533.864, 535.433 533.529, 533 535.064 M 373.500 546.637 C 368.527 547.960, 362.559 550.184, 358.703 552.152 C 353.574 554.768, 344.216 564.251, 341.505 569.579 C 340.408 571.736, 336.311 579.125, 332.402 586 C 324.294 600.257, 321.127 605.926, 316.373 614.693 C 314.526 618.099, 311.662 623.182, 310.008 625.987 C 308.353 628.793, 307 631.288, 307 631.532 C 307 631.776, 304.126 636.818, 300.613 642.738 C 297.100 648.657, 289.622 661.825, 283.996 672 C 278.370 682.175, 273.434 690.950, 273.027 691.500 C 272.621 692.050, 270.810 695.200, 269.003 698.500 C 267.196 701.800, 264.180 707.200, 262.302 710.500 C 260.424 713.800, 257.306 719.724, 255.373 723.665 C 240.763 753.450, 266.117 787.215, 298.086 780.549 C 312.963 777.447, 318.586 771.841, 332.741 746 C 339.400 733.843, 346.654 720.831, 354.469 707.027 C 358.992 699.037, 364.167 689.800, 365.969 686.500 C 367.771 683.200, 370.034 679.150, 370.999 677.500 C 371.963 675.850, 373.870 672.475, 375.235 670 C 383.062 655.811, 395.211 634.987, 395.918 634.551 C 396.536 634.169, 402.160 635.589, 417.250 639.936 C 421.291 641.101, 440.056 646.248, 454 650.018 C 459.775 651.579, 465.625 653.163, 467 653.537 C 468.375 653.912, 473.914 655.546, 479.308 657.170 C 491.191 660.746, 494.368 660.651, 494.821 656.706 C 495.102 654.255, 492.451 645.836, 488.459 636.500 C 487.753 634.850, 486.225 630.800, 485.062 627.500 C 483.900 624.200, 482.554 620.600, 482.072 619.500 C 481.590 618.400, 480.276 615.025, 479.153 612 C 478.030 608.975, 474.439 599.292, 471.173 590.483 C 467.907 581.673, 464.395 572.688, 463.367 570.514 C 461.289 566.117, 464.585 567.366, 432 558.622 C 424.575 556.630, 411.975 553.187, 404 550.971 C 390.353 547.179, 378.041 545.429, 373.500 546.637 M 518.240 555.436 C 511.497 558.873, 505.729 561.938, 505.421 562.246 C 505.113 562.554, 509.143 574.212, 514.376 588.153 C 519.610 602.094, 526.663 621.150, 530.051 630.500 C 535.982 646.867, 540.665 659.627, 543.447 667 C 544.173 668.925, 546.630 675.675, 548.906 682 C 551.182 688.325, 553.441 694.400, 553.925 695.500 C 554.409 696.600, 555.706 699.975, 556.806 703 C 557.907 706.025, 560.019 711.650, 561.500 715.500 C 562.981 719.350, 564.869 724.525, 565.696 727 C 566.522 729.475, 567.778 732.850, 568.486 734.500 C 569.991 738.010, 572.461 744.567, 577.621 758.750 L 581.350 769 597.782 769 C 613.032 769, 614.164 768.874, 613.512 767.250 C 613.127 766.288, 612.227 763.700, 611.514 761.500 C 610.295 757.744, 598.037 724.263, 594.672 715.500 C 593.827 713.300, 589.914 702.725, 585.975 692 C 582.037 681.275, 577.099 668, 575.003 662.500 C 572.906 657, 568.640 645.525, 565.523 637 C 562.405 628.475, 559.477 620.600, 559.015 619.500 C 558.553 618.400, 555.818 610.975, 552.937 603 C 546.674 585.665, 543.166 576.213, 541.987 573.500 C 541.509 572.400, 539.371 566.550, 537.235 560.500 C 534.885 553.844, 532.789 549.438, 531.926 549.343 C 531.142 549.256, 524.983 551.998, 518.240 555.436 M 373.500 558.900 C 368.405 560.211, 362.095 563.905, 358.065 567.935 C 354.391 571.609, 350.580 577.604, 342.767 592 C 338.309 600.214, 335.804 604.714, 324.671 624.500 C 319.720 633.300, 313.779 643.875, 311.470 648 C 309.161 652.125, 303.084 662.925, 297.966 672 C 287.501 690.556, 286.219 692.855, 279.271 705.500 C 276.551 710.450, 272.307 718.100, 269.839 722.500 C 263.387 734.006, 262.708 736.124, 263.188 743.240 C 263.694 750.742, 265.955 755.786, 271.172 761.055 C 279.239 769.203, 291.282 771.410, 301.560 766.624 C 308.297 763.487, 311.646 758.997, 324.028 736.500 C 325.845 733.200, 333.041 720.375, 340.020 708 C 352.172 686.453, 354.735 681.884, 360.636 671.250 C 362.085 668.638, 364.785 663.888, 366.636 660.696 C 368.486 657.504, 370 654.754, 370 654.585 C 370 653.548, 387.418 624.158, 388.941 622.627 C 390.626 620.931, 391.309 620.867, 396.151 621.960 C 399.093 622.623, 403.525 623.763, 406 624.493 C 408.475 625.223, 416.575 627.473, 424 629.493 C 431.425 631.513, 438.850 633.592, 440.500 634.113 C 452.276 637.829, 476.535 643.865, 477.165 643.235 C 477.588 642.812, 472.436 627.733, 465.717 609.726 C 455.980 583.632, 453.094 576.879, 451.500 576.458 C 448.709 575.721, 444.217 574.474, 431.500 570.904 C 385.301 557.936, 380.834 557.012, 373.500 558.900" stroke="none" fill="black" fill-rule="evenodd"/>
</svg>