<svg xmlns="http://www.w3.org/2000/svg" width="1280" height="800" viewBox="0 0 1280 800" version="1.1">
	<path d="M 197.620 225.250 C 196.680 228.688, 194.403 236.225, 192.559 242 C 190.715 247.775, 187.336 258.575, 185.049 266 C 182.763 273.425, 180.054 281.975, 179.028 285 C 178.003 288.025, 175.072 297.250, 172.516 305.500 C 169.960 313.750, 166.323 325.076, 164.434 330.668 C 162.545 336.261, 161 341.264, 161 341.786 C 161 342.309, 163.813 343.525, 167.250 344.488 C 170.688 345.452, 178.675 347.947, 185 350.034 C 191.325 352.122, 205.950 356.827, 217.500 360.491 C 229.050 364.155, 253.575 372.151, 272 378.258 C 290.425 384.366, 307.525 390.026, 310 390.837 C 312.475 391.647, 315.063 392.745, 315.750 393.277 C 316.735 394.040, 317 415.303, 317 493.622 L 317 593 540.250 592.985 C 663.038 592.976, 763.969 592.639, 764.542 592.235 C 765.115 591.831, 770.052 586.325, 775.513 580 C 780.974 573.675, 789.955 563.305, 795.471 556.955 C 800.987 550.605, 807.750 542.779, 810.500 539.563 C 813.250 536.347, 816.803 532.317, 818.396 530.608 C 819.989 528.899, 826.495 521.425, 832.855 514 C 839.215 506.575, 846.944 497.757, 850.030 494.405 C 853.116 491.053, 858.981 484.303, 863.063 479.405 C 867.145 474.507, 875.438 464.834, 881.493 457.909 C 887.547 450.984, 902.175 434.148, 914 420.497 C 925.825 406.846, 940.802 389.562, 947.282 382.088 L 959.063 368.500 977.282 363.892 C 987.302 361.358, 1005.243 356.746, 1017.150 353.642 C 1029.058 350.539, 1039.442 348, 1040.227 348 C 1041.011 348, 1046.569 353.489, 1052.577 360.198 C 1058.584 366.906, 1065.135 374.197, 1067.133 376.399 L 1070.766 380.403 1078.698 373.452 C 1101.321 353.626, 1104.528 350.732, 1104.853 349.846 C 1105.047 349.317, 1102.569 346.097, 1099.348 342.692 C 1096.126 339.286, 1086.742 328.650, 1078.495 319.055 C 1070.248 309.461, 1062.075 300.014, 1060.333 298.062 L 1057.166 294.513 1039.833 298.881 C 1024.789 302.673, 997.846 309.578, 901 334.460 C 889.725 337.357, 868.125 342.893, 853 346.763 C 837.875 350.633, 817.625 355.850, 808 358.358 C 798.375 360.866, 783.300 364.703, 774.500 366.886 C 765.700 369.069, 745.794 374.088, 730.264 378.040 C 714.734 381.991, 701.404 384.985, 700.641 384.692 C 699.878 384.400, 686.709 371.056, 671.377 355.040 L 643.500 325.919 582.500 325.710 L 521.500 325.500 521.233 300.250 L 520.966 275 540.983 275 L 561 275 561 250 L 561 225 497.500 225 L 434 225 434 249.979 L 434 274.959 454.250 275.229 L 474.500 275.500 474.500 299.842 C 474.500 313.230, 474.246 324.596, 473.936 325.100 C 473.601 325.643, 450.967 325.912, 418.436 325.759 L 363.500 325.500 363.234 297.795 L 362.969 270.090 352.734 266.958 C 347.105 265.236, 336.425 261.882, 329 259.505 C 321.575 257.128, 308.750 253.075, 300.500 250.499 C 292.250 247.923, 279.425 243.862, 272 241.475 C 239.833 231.136, 200.831 219, 199.768 219 C 199.526 219, 198.559 221.813, 197.620 225.250 M 224.584 294.455 C 221.673 304.296, 220.042 311.407, 220.584 311.898 C 221.088 312.355, 226.900 314.392, 233.500 316.425 C 240.100 318.458, 250 321.633, 255.500 323.480 C 279.495 331.541, 314.998 343, 315.976 343 C 316.705 343, 316.957 336.916, 316.772 323.824 L 316.500 304.647 298 298.810 C 287.825 295.600, 269.600 289.791, 257.500 285.902 C 245.400 282.013, 234.150 278.609, 232.500 278.337 L 229.500 277.842 224.584 294.455 M 363.667 372.667 C 363.300 373.033, 363 411.958, 363 459.167 L 363 545 553.806 545 L 744.612 545 752.556 535.777 C 756.925 530.704, 764.325 522.238, 769 516.964 C 776.660 508.322, 815.259 463.937, 835.383 440.630 C 869.094 401.585, 878.780 390.113, 878.375 389.708 C 878.119 389.452, 867.692 391.878, 855.205 395.098 C 818.596 404.539, 765.322 418.163, 724.543 428.512 L 686.585 438.146 675.043 426.317 C 668.694 419.811, 654.112 404.928, 642.637 393.244 L 621.774 372 493.054 372 C 422.258 372, 364.033 372.300, 363.667 372.667 M 1095 450.050 C 1091.425 456.085, 1088.056 461.918, 1087.513 463.012 C 1086.970 464.105, 1086.182 465, 1085.763 465 C 1085.343 465, 1085 465.388, 1085 465.861 C 1085 466.335, 1082.818 470.048, 1080.151 474.111 C 1070.100 489.426, 1065.254 500.400, 1064.384 509.813 C 1062.967 525.152, 1071.431 539.063, 1086.767 546.599 C 1091.832 549.088, 1093.607 549.417, 1102 549.419 C 1110.168 549.421, 1112.304 549.049, 1117.236 546.772 C 1124.539 543.400, 1132.365 535.590, 1135.812 528.236 C 1138.171 523.203, 1138.499 521.275, 1138.491 512.500 C 1138.483 503.395, 1138.184 501.807, 1135.153 494.762 C 1133.321 490.506, 1129.468 483.306, 1126.590 478.762 C 1123.711 474.218, 1118.066 465.325, 1114.045 459 C 1110.024 452.675, 1105.804 445.587, 1104.668 443.250 C 1103.531 440.913, 1102.354 439.018, 1102.051 439.039 C 1101.748 439.060, 1098.575 444.015, 1095 450.050" stroke="none" fill="black" fill-rule="evenodd"/>
</svg>