<svg xmlns="http://www.w3.org/2000/svg" width="1088" height="960" viewBox="0 0 1088 960" version="1.1">
	<path d="M 519.500 187.633 C 494.685 191.461, 472.218 210.662, 464.661 234.500 C 460.128 248.801, 460.479 267.257, 465.541 280.706 C 470.878 294.884, 474.786 300.364, 488.573 313 C 492.839 316.910, 494.924 319.690, 495.787 322.616 C 497.640 328.905, 497.276 335.029, 494.750 340.038 C 492.541 344.418, 492.288 344.575, 480.942 348.586 C 446.538 360.747, 419.323 377.092, 405.321 394.001 C 380.980 423.395, 372.364 458.847, 368.810 544.216 L 367.615 572.932 361.630 577.216 C 330.688 599.362, 272.484 654.109, 266.972 666.253 C 265.704 669.046, 265.036 672.758, 265.022 677.095 C 264.982 689.147, 273.287 701.041, 283.775 703.954 C 289.741 705.611, 299.978 705.196, 304.500 703.114 C 306.700 702.101, 316.375 694.672, 326 686.606 C 341.051 673.992, 369.335 652.960, 373.287 651.443 C 374.176 651.102, 375.118 653.453, 376.405 659.227 C 380.549 677.825, 391.870 713.873, 400.516 736 C 414.682 772.256, 429.659 799.815, 440.905 810.321 C 450.333 819.128, 451.718 819.454, 481.189 819.811 C 506.013 820.112, 506.947 820.053, 508.939 818.061 C 510.073 816.927, 511 815.189, 511 814.198 C 511 813.207, 507.571 805.444, 503.380 796.948 C 482.913 755.458, 461.804 702.211, 460.290 688.257 C 459.725 683.049, 459.744 683.005, 463.111 681.609 C 464.975 680.837, 471 679.278, 476.500 678.146 C 512.574 670.719, 554.342 671.062, 589.764 679.075 C 599.252 681.221, 602 682.768, 602 685.960 C 602 689.160, 597.040 705.045, 591.058 721 C 583.526 741.090, 575.325 760.049, 561.873 788.473 C 555.893 801.108, 551 812.626, 551 814.068 C 551 815.510, 551.854 817.463, 552.899 818.408 C 554.609 819.956, 557.315 820.095, 580.149 819.813 L 605.500 819.500 611.734 816.620 C 618.888 813.316, 624.741 807.545, 631.265 797.364 C 649.018 769.658, 668.574 721.926, 681.090 675.750 C 683.439 667.087, 685.748 660, 686.223 660 C 688.300 660, 704.773 673.355, 729.500 695.087 C 738.526 703.020, 743.612 705.349, 752 705.389 C 772.795 705.489, 787.379 683.187, 778.165 665.378 C 772.482 654.394, 730.063 620.745, 698.144 601.902 L 691.788 598.150 691.554 555.325 C 691.277 504.715, 689.869 487.392, 683.399 455 C 678.871 432.333, 671.148 413.944, 659.885 399.019 C 654.315 391.637, 643.931 381.085, 639 377.796 L 636.500 376.129 653.500 359.299 C 662.850 350.042, 682.087 331.093, 696.250 317.189 C 716.553 297.258, 722 291.372, 722 289.365 C 722 287.445, 718.509 283.214, 707.802 272.160 C 691.115 254.930, 689.081 253.351, 685.816 255.099 C 684.555 255.773, 666.643 272.785, 646.012 292.903 C 625.380 313.021, 603.325 334.500, 597 340.634 L 585.500 351.786 582.500 350.435 C 568.707 344.225, 568.179 343.898, 566.602 340.575 C 564.469 336.079, 564.478 324.933, 566.618 320.700 C 567.509 318.940, 572.346 313.409, 577.368 308.408 C 587.419 298.402, 591.918 291.688, 595.527 281.311 C 602.404 261.537, 600.922 241.392, 591.201 222.500 C 585.977 212.348, 572.960 199.501, 563 194.669 C 558.875 192.668, 552.800 190.315, 549.500 189.442 C 543.519 187.859, 525.197 186.754, 519.500 187.633 M 516.124 201.578 C 481.351 210.930, 464.301 249.755, 480.506 282.680 C 483.959 289.695, 488.606 295.118, 499.726 305.111 C 505.499 310.298, 507.541 314.366, 509.020 323.623 C 510.220 331.135, 508.925 341.284, 506.054 346.863 C 502.667 353.447, 499.068 355.806, 483.899 361.384 C 435.563 379.160, 410.087 399.883, 397.952 431.294 C 389.662 452.752, 383.800 490.634, 382.367 532 L 381.761 549.500 389.130 542.448 C 393.184 538.569, 414.950 517.441, 437.500 495.496 C 492.435 442.036, 508.391 426.524, 528.522 407 C 563.972 372.620, 575.049 361.717, 574.779 361.471 C 574.626 361.331, 571.539 359.881, 567.920 358.248 C 555.719 352.744, 551.541 344.964, 552.212 329 C 552.775 315.634, 554.598 312.072, 567.268 299.586 C 578.690 288.330, 582.065 282.975, 585.022 271.415 C 593.025 240.124, 575.304 209.566, 544.505 201.543 C 537.175 199.634, 523.287 199.651, 516.124 201.578 M 663.549 293.802 C 641.096 316.015, 602.420 353.615, 543.509 410.504 C 527.564 425.902, 495.831 456.725, 472.991 479 C 404.923 545.385, 392.914 556.971, 380.222 568.500 C 368.467 579.178, 368.111 579.623, 368.056 583.707 C 368.003 587.713, 367.652 588.190, 360.750 593.661 C 343.075 607.670, 323.792 625.111, 301.827 646.956 C 279.944 668.720, 278.104 670.821, 277.489 674.752 C 276.974 678.040, 277.313 680.015, 278.983 683.464 C 281.846 689.379, 286.190 692.001, 293.118 691.996 C 299.549 691.992, 301.748 690.771, 312 681.516 C 330.545 664.775, 368.193 637.438, 372.280 637.746 C 373.280 637.821, 379.813 635.032, 386.799 631.547 C 415.948 617.007, 449.525 607.183, 486.500 602.378 C 504.630 600.021, 547.523 600.011, 565.500 602.359 C 591.072 605.698, 603.201 608.428, 626.920 616.184 C 665.669 628.854, 690.213 643.644, 729.638 678.081 C 744.314 690.900, 745.254 691.557, 750.159 692.416 C 760.553 694.235, 769.608 684.386, 767.563 673.485 C 766.713 668.955, 764.128 666.441, 742.483 649.099 C 723.236 633.678, 700.079 617.842, 682.516 608.091 C 653.607 592.040, 617.730 580.842, 574.264 574.303 C 557.419 571.769, 501.090 571.760, 483 574.288 C 463.793 576.972, 440.810 581.618, 427 585.607 C 411.053 590.215, 408.720 590.572, 407.126 588.652 C 403.698 584.521, 405.122 582.847, 446.386 542.500 C 468.323 521.050, 493.748 496.336, 502.886 487.580 C 512.024 478.823, 527.825 463.514, 538 453.560 C 548.175 443.605, 581.475 411.186, 612 381.517 C 642.525 351.849, 676.275 318.905, 687 308.308 L 706.500 289.042 697.521 280.021 C 692.582 275.059, 688.104 271, 687.570 271 C 687.035 271, 676.226 281.261, 663.549 293.802 M 604.500 406.764 C 592.950 418.178, 569.550 440.990, 552.500 457.459 C 505.909 502.461, 438.897 568.231, 439.263 568.597 C 439.441 568.774, 442.267 568.300, 445.543 567.544 C 455.606 565.220, 475.795 562.058, 490.500 560.502 C 506.697 558.789, 544.033 558.537, 561 560.027 C 598.699 563.336, 641.095 573.967, 670.735 587.542 C 675.102 589.542, 678.216 590.460, 678.589 589.856 C 679.637 588.161, 679.192 529.095, 678.017 513.872 C 673.610 456.793, 666.199 428.659, 649.857 406.971 C 643.485 398.515, 629.893 385.995, 627.097 386.006 C 626.219 386.010, 616.050 395.351, 604.500 406.764 M 495 614.494 C 463.609 617.658, 428.708 626.650, 401.717 638.528 C 387.675 644.708, 386.729 645.426, 387.505 649.316 C 395.803 690.910, 418.386 751.805, 437.269 783.500 C 450.619 805.908, 452.366 806.947, 476.760 806.978 L 494.020 807 489.497 797.993 C 477.247 773.602, 459.475 730.576, 451.504 706.009 C 447.439 693.480, 446.852 690.632, 447.171 684.986 C 447.829 673.329, 452.107 670.002, 472.131 665.570 C 492.917 660.969, 508.515 659.703, 537 660.307 C 570.722 661.022, 598.396 665.383, 607.183 671.366 C 613.076 675.379, 614.514 678.373, 614.372 686.331 C 614.148 698.781, 599.902 737.409, 578.595 783.340 C 572.768 795.902, 568 806.364, 568 806.590 C 568 806.815, 575.439 807, 584.532 807 C 607.428 807, 609.724 805.843, 621.235 788.500 C 638.136 763.036, 657.402 714.939, 670.463 665.603 C 673.421 654.428, 673.883 651.534, 672.821 650.829 C 672.094 650.347, 666.924 647.473, 661.330 644.442 C 616.883 620.356, 552.274 608.723, 495 614.494" stroke="none" fill="black" fill-rule="evenodd"/>
</svg>