<svg xmlns="http://www.w3.org/2000/svg" width="1248" height="832" viewBox="0 0 1248 832" version="1.1">
	<path d="M 353.270 164.469 C 351.493 165.249, 349.132 167.375, 348.023 169.193 C 346.143 172.278, 346.007 174.197, 346.004 197.750 L 346 223 302.750 223.022 C 262.840 223.042, 259.191 223.187, 255.500 224.890 C 250.930 226.999, 247.845 230.169, 246.149 234.500 C 244.384 239.005, 244.978 658.160, 246.750 658.750 C 247.438 658.979, 248 659.726, 248 660.409 C 248 662.449, 252.264 665.829, 256.904 667.466 C 260.780 668.834, 300.712 669, 625.500 669 C 1021.086 669, 994.793 669.361, 1000.665 663.845 C 1006.356 658.498, 1005.982 673.798, 1006.009 445.554 C 1006.038 210.551, 1006.739 231.504, 998.668 226.161 L 994.649 223.500 950.324 223.220 L 906 222.940 905.952 198.720 C 905.898 171.639, 905.475 169.572, 899.102 165.286 L 895.704 163 845.820 163 C 792.566 163, 791.879 163.058, 787.500 167.965 C 785.638 170.051, 785.465 172.011, 785 196.353 L 784.500 222.500 625.797 222.753 L 467.095 223.006 466.797 197.018 L 466.500 171.030 462.734 167.265 L 458.968 163.500 407.734 163.275 C 365.325 163.089, 355.944 163.295, 353.270 164.469 M 284 446.001 L 284 629.003 625.750 628.751 L 967.500 628.500 967.753 445.750 L 968.005 263 626.003 263 L 284 263 284 446.001 M 834.304 323.956 C 827.878 327.874, 827.501 329.339, 827.490 350.456 L 827.479 369.500 808.441 370 C 787.435 370.552, 785.798 371.003, 781.956 377.304 C 779.523 381.295, 779.191 396.129, 781.416 401.454 C 784.083 407.835, 786.175 408.442, 807.452 409 L 826.500 409.500 827.125 428.069 C 827.802 448.173, 828.184 450.454, 831.385 453.536 C 834.916 456.936, 838.712 458, 847.297 457.998 C 856.973 457.997, 861.453 456.195, 864.379 451.129 C 866.132 448.093, 866.308 445.959, 866.153 429.629 C 866.059 419.658, 866.332 410.966, 866.761 410.313 C 867.305 409.484, 873.326 409.031, 886.707 408.813 L 905.874 408.500 908.793 405.701 C 912.854 401.807, 914.308 396.661, 913.828 387.883 C 913.374 379.568, 911.794 375.639, 907.680 372.590 C 905.116 370.689, 903.124 370.455, 885.680 370 L 866.500 369.500 866.224 350.500 C 866.072 340.050, 865.484 330.331, 864.915 328.901 C 863.020 324.133, 857.436 322, 846.864 322.004 C 839.347 322.007, 836.870 322.392, 834.304 323.956 M 346.500 371.403 C 340.292 374.143, 337.989 379.003, 338.048 389.236 C 338.104 398.942, 339.820 403.299, 344.944 406.745 L 348.388 409.062 405.444 408.781 C 459.551 408.515, 462.645 408.402, 465.298 406.604 C 469.510 403.748, 471.001 399.048, 470.996 388.628 C 470.992 378.037, 469.421 374.377, 463.717 371.670 C 460.558 370.171, 454.532 370.004, 404.849 370.039 C 361.160 370.070, 348.868 370.357, 346.500 371.403" stroke="none" fill="black" fill-rule="evenodd"/>
</svg>