<svg xmlns="http://www.w3.org/2000/svg" width="1280" height="800" viewBox="0 0 1280 800" version="1.1">
	<path d="M 637.500 158.608 C 612.115 159.970, 566.684 168.663, 556.764 174.056 C 555.809 174.575, 554.459 175.015, 553.764 175.034 C 553.069 175.053, 550.700 175.937, 548.500 177 C 546.300 178.063, 543.712 178.947, 542.750 178.966 C 541.788 178.985, 541 179.450, 541 180 C 541 180.550, 540.337 181, 539.527 181 C 538.170 181, 529.145 184.749, 524.538 187.226 C 517.361 191.087, 513.698 193.189, 507.642 196.924 C 501.356 200.800, 500.543 201.053, 497.892 199.955 C 496.301 199.296, 495 198.414, 495 197.995 C 495 197.576, 494.212 196.962, 493.250 196.631 C 492.288 196.299, 490.150 195.186, 488.500 194.157 C 478.158 187.705, 461.031 179, 458.681 179 C 457.976 179, 456.972 178.623, 456.450 178.162 C 455.927 177.701, 451.900 176.087, 447.500 174.576 C 443.100 173.065, 438.600 171.454, 437.500 170.998 C 436.400 170.541, 434.375 169.874, 433 169.516 C 431.625 169.158, 428.925 168.411, 427 167.857 C 422.967 166.696, 416.661 165.310, 409.500 164.012 C 406.750 163.514, 400.225 162.330, 395 161.382 C 383.614 159.315, 334.598 158.229, 326.500 159.864 C 323.750 160.420, 316.550 161.832, 310.500 163.004 C 304.450 164.175, 298.375 165.368, 297 165.656 C 292.440 166.608, 280.528 170.154, 278.764 171.085 C 277.809 171.588, 276.340 172, 275.500 172 C 274.660 172, 273.191 172.395, 272.236 172.878 C 268.035 175.002, 262.815 177, 261.466 177 C 260.660 177, 260 177.450, 260 178 C 260 178.550, 259.319 179, 258.486 179 C 257.654 179, 256.191 179.411, 255.236 179.913 C 254.281 180.415, 250.817 182.070, 247.538 183.590 C 240.833 186.699, 236.997 190.271, 237.007 193.396 C 237.012 195.170, 246.198 214.254, 255.106 231 C 260.061 240.314, 263.235 240.971, 274.801 235.076 C 289.347 227.661, 298.030 224.643, 317.290 220.309 C 328.970 217.681, 330.695 217.561, 357 217.531 C 385.178 217.499, 386.748 217.651, 404.804 222.160 C 414.824 224.662, 440.539 233.539, 442 235 C 442.275 235.275, 444.637 236.616, 447.250 237.979 C 449.863 239.343, 452 241.078, 452 241.835 C 452 242.952, 447.185 249.963, 445.020 252 C 444.728 252.275, 443.157 254.300, 441.531 256.500 C 439.904 258.700, 437.994 261.095, 437.286 261.821 C 436.579 262.548, 435.999 263.448, 435.999 263.821 C 435.998 264.195, 434.835 265.850, 433.413 267.500 C 428.935 272.698, 422.373 283.156, 417.414 293 C 414.782 298.225, 412.343 302.725, 411.995 303 C 411.402 303.468, 410.089 306.168, 404.457 318.500 C 403.201 321.250, 401.626 325.300, 400.956 327.500 C 400.287 329.700, 399.409 331.950, 399.005 332.500 C 397.851 334.072, 392.232 349.873, 390.471 356.500 C 389.594 359.800, 388.474 363.400, 387.982 364.500 C 387.490 365.600, 386.373 369.650, 385.500 373.500 C 384.627 377.350, 383.454 382.525, 382.893 385 C 382.332 387.475, 381.485 391.075, 381.010 393 C 378.747 402.163, 375.947 422.069, 373.273 448 C 372.082 459.552, 372.403 499.152, 373.792 512 C 377.577 547.009, 383.366 573.465, 390.968 590.500 C 392.195 593.250, 393.560 596.400, 394.002 597.500 C 408.115 632.678, 435.908 661.207, 465.500 670.889 C 486.966 677.912, 510.947 677.718, 534.352 670.331 C 541.654 668.027, 556.125 660.650, 559.288 657.620 C 559.955 656.981, 562.750 654.824, 565.500 652.826 C 570.889 648.909, 576.807 642.885, 581.537 636.500 C 583.167 634.300, 585.144 631.825, 585.931 631 C 592.360 624.258, 607.795 594.364, 610.972 582.500 C 611.708 579.750, 612.649 577.050, 613.063 576.500 C 614.215 574.969, 618.159 560.416, 620.108 550.500 C 625.811 521.495, 628.525 471.275, 625.837 444.500 C 624.700 433.180, 620.153 400.821, 618.951 395.500 C 612.131 365.314, 606.584 345.884, 600.965 332.500 C 600.504 331.400, 599.808 329.379, 599.419 328.009 C 598.306 324.087, 586.272 298.126, 585.045 297 C 584.745 296.725, 582.990 293.575, 581.145 290 C 577.589 283.110, 561.347 258.505, 557.453 254.109 C 551.950 247.896, 550.687 246.377, 549.298 244.294 C 547.456 241.530, 547.863 240.892, 553.194 238.188 C 557.996 235.753, 575.009 229, 576.342 229 C 576.813 229, 578.616 228.394, 580.349 227.654 C 585.774 225.336, 593.037 223.415, 605.500 221 C 608.800 220.361, 613.300 219.380, 615.500 218.821 C 617.700 218.262, 632.775 217.573, 649 217.289 C 677.569 216.789, 679.022 216.858, 695 219.468 C 704.075 220.950, 712.400 222.526, 713.500 222.969 C 714.600 223.412, 721.575 225.727, 729 228.112 C 736.425 230.497, 745.095 233.698, 748.266 235.224 C 751.437 236.751, 754.405 238, 754.861 238 C 755.317 238, 756.479 238.872, 757.443 239.937 C 759.455 242.160, 759.287 242.555, 753.321 249.608 C 750.944 252.417, 749 255.024, 749 255.401 C 749 255.779, 747.845 257.305, 746.434 258.794 C 739.937 265.645, 730.314 280.246, 730.209 283.410 C 730.193 283.911, 729.464 284.721, 728.590 285.210 C 727.715 285.699, 727 286.752, 727 287.550 C 727 288.347, 726.663 289.004, 726.250 289.008 C 725.837 289.012, 725.025 290.025, 724.444 291.258 C 723.863 292.491, 721.771 296.650, 719.794 300.500 C 717.818 304.350, 715.090 309.975, 713.733 313 C 712.376 316.025, 710.353 320.525, 709.237 323 C 708.120 325.475, 706.881 328.625, 706.481 330 C 706.082 331.375, 705.445 332.950, 705.066 333.500 C 704.686 334.050, 702.419 340.575, 700.026 348 C 697.634 355.425, 695.350 362.400, 694.952 363.500 C 693.299 368.066, 691.222 376.641, 687.018 396.250 C 683.290 413.642, 682.359 420.968, 680.376 448.500 C 678.958 468.181, 678.889 474.603, 679.900 493 C 681.369 519.753, 684.378 543.913, 687.061 550.500 C 687.509 551.600, 688.081 554.075, 688.332 556 C 689.119 562.034, 694.931 581.810, 697.884 588.500 C 698.369 589.600, 700.018 593.650, 701.547 597.500 C 703.076 601.350, 704.659 604.950, 705.064 605.500 C 706.619 607.610, 712.137 617.583, 712.672 619.250 C 712.981 620.212, 713.631 621, 714.117 621 C 714.602 621, 715 621.505, 715 622.123 C 715 626.472, 737.398 650.985, 747.500 657.692 C 764.675 669.094, 777.204 673.462, 800 675.996 C 820.741 678.301, 849.324 670.572, 865.911 658.173 C 877.415 649.574, 888.225 638.406, 896.413 626.661 C 900.036 621.465, 903 616.932, 903 616.587 C 903 616.242, 904.083 614.244, 905.407 612.147 C 908.458 607.315, 915.145 591.628, 918.045 582.500 C 919.269 578.650, 920.603 575.050, 921.009 574.500 C 921.416 573.950, 921.999 572.150, 922.304 570.500 C 922.609 568.850, 923.607 564.800, 924.521 561.500 C 925.436 558.200, 926.525 553.475, 926.941 551 C 927.358 548.525, 928.626 541.100, 929.760 534.500 C 934.720 505.615, 935.229 458.279, 930.900 428.500 C 929.388 418.102, 925.051 393.495, 923.321 385.500 C 920.064 370.448, 910.074 337.715, 906.920 331.764 C 906.414 330.809, 906 329.346, 906 328.514 C 906 327.681, 905.550 327, 905 327 C 904.450 327, 904 326.319, 904 325.486 C 904 324.654, 903.603 323.191, 903.117 322.236 C 902.631 321.281, 901.776 319.375, 901.217 318 C 892.756 297.184, 877.626 271.730, 863.224 254.081 C 858.547 248.351, 854.672 243.029, 854.611 242.256 C 854.285 238.120, 890.306 223.983, 909.500 220.714 C 911.150 220.433, 916.550 219.490, 921.500 218.619 C 932.096 216.754, 960.999 216.451, 975.789 218.050 C 984.672 219.010, 1001.632 222.780, 1006.500 224.876 C 1007.600 225.350, 1011.596 226.735, 1015.380 227.954 C 1019.164 229.173, 1026.426 232.157, 1031.519 234.585 C 1036.611 237.013, 1041.800 239, 1043.050 239 C 1046.591 239, 1050.609 233.659, 1057.718 219.500 C 1061.308 212.350, 1064.556 206.275, 1064.935 206 C 1065.314 205.725, 1066.628 202.993, 1067.856 199.929 C 1069.571 195.646, 1069.863 193.770, 1069.118 191.811 C 1067.947 188.729, 1064.009 185.494, 1059.403 183.829 C 1057.531 183.152, 1056 182.239, 1056 181.799 C 1056 181.360, 1055.368 181, 1054.595 181 C 1053.821 181, 1051.234 180.044, 1048.845 178.875 C 1046.455 177.706, 1043.825 176.432, 1043 176.043 C 1041.270 175.228, 1013.224 166.366, 1008 164.984 C 1006.075 164.475, 1000.450 163.357, 995.500 162.501 C 990.550 161.645, 984.154 160.479, 981.288 159.909 C 976.034 158.865, 923.733 158.429, 922.136 159.416 C 921.664 159.708, 917.052 160.672, 911.889 161.559 C 887.781 165.698, 878.747 167.780, 869 171.445 C 866.525 172.375, 863.025 173.512, 861.222 173.970 C 859.419 174.427, 857.394 175.238, 856.722 175.771 C 856.050 176.303, 853.700 177.279, 851.500 177.939 C 849.300 178.599, 846.600 179.520, 845.500 179.986 C 844.400 180.451, 842.038 181.430, 840.250 182.160 C 838.462 182.891, 837 183.828, 837 184.244 C 837 184.660, 836.319 185, 835.486 185 C 834.097 185, 830.190 186.808, 829 188.002 C 828.725 188.277, 827.263 189.141, 825.750 189.921 C 824.237 190.700, 823 191.712, 823 192.169 C 823 192.626, 822.100 193, 821 193 C 819.900 193, 819 193.344, 819 193.764 C 819 194.184, 817.087 195.351, 814.750 196.356 C 812.413 197.361, 809.734 198.868, 808.798 199.703 C 807.264 201.073, 806.722 200.991, 803.298 198.869 C 792.991 192.481, 766.120 179, 763.696 179 C 762.828 179, 761.873 178.604, 761.574 178.119 C 761.274 177.635, 760.010 177.004, 758.765 176.718 C 757.519 176.432, 752 174.582, 746.500 172.609 C 741 170.635, 735.514 169.016, 734.309 169.010 C 733.104 169.005, 731.840 168.550, 731.500 168 C 731.160 167.450, 729.703 167, 728.262 167 C 726.821 167, 724.260 166.567, 722.571 166.038 C 718.712 164.830, 700.059 161.484, 689.500 160.106 C 681.130 159.013, 647.828 158.054, 637.500 158.608 M 336.693 162.006 C 308.433 164.183, 278.011 172.072, 255 183.189 C 239.279 190.784, 237.995 192.501, 242.108 200.434 C 243.267 202.670, 247.697 211.250, 251.952 219.500 C 261.295 237.615, 261.624 237.844, 271.695 233.228 C 280.690 229.104, 284.288 227.626, 285.500 227.557 C 286.050 227.526, 287.130 226.903, 287.899 226.172 C 288.669 225.442, 290.131 225.063, 291.149 225.329 C 292.167 225.595, 293 225.442, 293 224.989 C 293 223.374, 308.733 218.974, 323.329 216.507 C 335.638 214.426, 341.417 214.003, 357.329 214.018 C 376.076 214.036, 381.001 214.547, 400.500 218.492 C 413.639 221.151, 422.307 223.821, 432.680 228.404 C 456.863 239.089, 459.447 240.683, 456.849 243.308 C 454.148 246.038, 442.913 258.842, 440.770 261.634 C 439.559 263.210, 438.267 264.725, 437.899 265 C 437.530 265.275, 435.898 267.750, 434.272 270.500 C 432.646 273.250, 428.177 280.450, 424.340 286.500 C 418.054 296.411, 414.198 303.677, 409.747 314 C 405.974 322.749, 405.072 324.810, 402.963 329.500 C 400.643 334.661, 391.816 360.666, 389.385 369.500 C 380.201 402.876, 375.908 438.041, 375.956 479.500 C 375.989 508.217, 376.271 512.659, 379.486 535 C 382.001 552.479, 386.785 572.369, 390.912 582.500 C 391.360 583.600, 392.542 586.975, 393.539 590 C 394.535 593.025, 396.172 596.976, 397.175 598.780 C 398.179 600.585, 399 602.439, 399 602.902 C 399 604.004, 411.054 623.868, 414.670 628.724 C 420.819 636.981, 432.614 648.743, 441.082 655.061 C 449.723 661.508, 469.221 670.015, 479.867 671.983 C 493.099 674.429, 520.512 672.733, 530.500 668.850 C 535.442 666.929, 542.202 663.935, 547.325 661.397 C 569.874 650.228, 592.084 623.057, 604.460 591.500 C 605.970 587.650, 607.776 583.150, 608.473 581.500 C 609.170 579.850, 610.247 576.700, 610.865 574.500 C 621.205 537.719, 623.439 520.003, 623.415 475 C 623.402 450.698, 622.994 440.415, 621.628 430 C 618.863 408.906, 616.396 394.317, 614.019 385 C 613.528 383.075, 612.594 379.250, 611.944 376.500 C 610.610 370.857, 601.363 340.570, 600.037 337.500 C 599.562 336.400, 597.728 331.900, 595.962 327.500 C 591.039 315.232, 580.124 293.158, 575.840 286.805 C 573.728 283.673, 572 280.892, 572 280.626 C 572 278.728, 554.199 254.443, 546.819 246.272 C 544.718 243.947, 543 241.620, 543 241.100 C 543 239.712, 564.081 229.786, 574.500 226.269 C 582.330 223.625, 590.772 221.260, 604 218.002 C 609.954 216.535, 621.050 214.928, 631.500 214.019 C 644.119 212.920, 677.575 213.514, 685.500 214.977 C 688.800 215.586, 695.325 216.790, 700 217.652 C 709.793 219.457, 724.997 223.297, 733.055 225.999 C 741.992 228.997, 764.002 239.836, 763.973 241.226 C 763.959 241.927, 762.271 244.331, 760.223 246.569 C 750.415 257.286, 741.591 268.809, 735.500 278.851 C 734.950 279.758, 734.248 280.725, 733.939 281 C 731.684 283.010, 720.122 305.389, 711.701 324.044 C 704.099 340.886, 691.009 385.423, 688.643 402.500 C 688.338 404.700, 687.608 409.425, 687.020 413 C 680.656 451.742, 681.096 505.094, 688.093 543 C 689.596 551.148, 694.975 572.237, 696.059 574.236 C 696.576 575.191, 697 576.824, 697 577.864 C 697 582.938, 709.990 609.986, 718.345 622.310 C 725.784 633.281, 725.702 633.178, 732.576 640.266 C 747.447 655.599, 759.233 663.054, 778.500 669.314 C 790.886 673.338, 801.326 674.375, 815.496 672.988 C 835.409 671.038, 846.245 667.251, 863.208 656.312 C 875.188 648.585, 892.637 629.430, 900.137 615.772 C 912.821 592.674, 919.355 574.481, 925.018 546.500 C 933.129 506.415, 932.666 446.224, 923.904 402 C 918.902 376.750, 914.536 360.764, 906.834 339.500 C 901.587 325.012, 902.523 327.151, 891.948 305.500 C 880.484 282.028, 866.959 261.484, 853.770 247.512 C 851.168 244.755, 849.030 241.982, 849.020 241.348 C 849.003 240.382, 868.735 230, 870.588 230 C 870.924 230, 872.841 229.272, 874.849 228.381 C 882.988 224.773, 884.804 224.105, 892 222.075 C 904.120 218.655, 906.116 218.197, 914 217.022 C 918.125 216.407, 923.672 215.475, 926.326 214.952 C 933.873 213.464, 968.247 213.812, 977.500 215.471 C 1002.255 219.909, 1012.353 222.924, 1033.295 232.133 C 1038.132 234.260, 1042.705 236, 1043.456 236 C 1045.102 236, 1050 230.391, 1050 228.507 C 1050 227.770, 1050.338 227.017, 1050.750 226.833 C 1051.546 226.479, 1052.929 224.005, 1059.038 212 C 1066.375 197.583, 1067.265 195.054, 1066.041 192.098 C 1064.979 189.535, 1062.737 188.035, 1055 184.714 C 1053.075 183.887, 1049.475 182.309, 1047 181.206 C 1027.021 172.303, 1002.560 165.453, 981.500 162.865 C 967.177 161.105, 931.259 161.362, 916 163.334 C 901.812 165.168, 899.887 165.557, 884 169.802 C 865.446 174.760, 859.325 176.702, 853.239 179.563 C 834.478 188.382, 819.065 196.069, 817.873 197.200 C 815.711 199.253, 808.148 204, 807.041 204 C 806.490 204, 803.535 202.398, 800.474 200.440 C 792.092 195.078, 762.116 180.412, 754 177.702 C 751.525 176.875, 744.550 174.805, 738.500 173.101 C 732.450 171.398, 726.150 169.575, 724.500 169.051 C 718.476 167.137, 700.122 164.047, 685 162.401 C 672.801 161.072, 664.708 160.846, 647 161.338 C 634.625 161.682, 621.350 162.433, 617.500 163.007 C 592.587 166.725, 581.033 168.902, 577.349 170.572 C 575.616 171.357, 573.637 172, 572.952 172 C 572.266 172, 569.184 172.845, 566.103 173.877 C 563.021 174.910, 558.025 176.549, 555 177.520 C 543.392 181.245, 513.073 195.211, 512.167 197.250 C 511.983 197.662, 511.389 198, 510.847 198 C 510.304 198, 507.898 199.350, 505.500 201 C 503.102 202.650, 500.868 204, 500.536 204 C 500.204 204, 495.529 201.340, 490.147 198.089 C 484.765 194.838, 478.818 191.512, 476.931 190.698 C 475.044 189.884, 468.325 186.748, 462 183.730 C 451.073 178.516, 444.055 175.987, 427 171.114 C 413.787 167.340, 398.765 164.175, 389 163.107 C 375.160 161.594, 349.142 161.047, 336.693 162.006 M 801.413 277.258 C 789.049 290.711, 779.467 304.326, 770.978 320.500 C 768.092 326, 765.398 330.950, 764.992 331.500 C 763.376 333.689, 754.999 354.105, 751.656 364 C 746.057 380.574, 740.384 404.388, 738.078 421 C 737.505 425.125, 736.550 431.650, 735.956 435.500 C 734.228 446.699, 733.600 487.749, 734.915 503.500 C 738.229 543.191, 745.214 567.918, 759.774 591.500 C 766.237 601.967, 772.112 608.060, 780.624 613.122 C 790.259 618.853, 796.148 620.499, 807 620.494 C 819.930 620.489, 830.910 616.569, 840.543 608.518 C 845.319 604.527, 857.441 587.347, 861.019 579.500 C 866.173 568.194, 871.359 550.571, 874.996 532 C 878.912 512.003, 880.136 469.043, 877.474 445 C 874.627 419.287, 874.058 415.806, 868.886 392.500 C 865.655 377.938, 862.214 367.081, 853.989 345.500 C 853.570 344.400, 851.601 339.989, 849.613 335.697 C 847.626 331.405, 846 327.505, 846 327.030 C 846 326.555, 845.663 326.017, 845.250 325.833 C 844.837 325.650, 843.395 323.250, 842.045 320.500 C 840.695 317.750, 838.183 313.250, 836.463 310.500 C 834.743 307.750, 831.899 303.194, 830.144 300.376 C 828.389 297.558, 826.043 294.183, 824.931 292.876 C 823.819 291.569, 821.017 288.266, 818.704 285.536 C 812.407 278.101, 807.352 273, 806.280 273 C 805.755 273, 803.565 274.916, 801.413 277.258 M 494.372 278.250 C 491.016 281.777, 484.957 289.100, 481.765 293.490 C 481.361 294.045, 479.965 295.850, 478.663 297.500 C 473.712 303.776, 471.413 307.686, 460.713 328.020 C 452.704 343.242, 452.464 343.812, 445.412 364.289 C 425.938 420.835, 421.590 490.288, 434.028 546.126 C 436.175 555.765, 443.855 577.901, 446.986 583.476 C 452.918 594.037, 455.588 597.570, 464 605.992 C 474.999 617.004, 485.422 620.666, 503 619.694 C 513.430 619.117, 522.123 616.501, 528 612.170 C 532.712 608.698, 543.870 596.985, 544.571 594.775 C 544.881 593.799, 545.486 593, 545.915 593 C 548.502 593, 560.098 565.114, 564.100 549.270 C 572.361 516.558, 574.755 469.346, 569.893 435 C 569.309 430.875, 568.422 424.575, 567.921 421 C 564.830 398.935, 556.317 364.681, 551.956 356.764 C 551.430 355.809, 551 354.546, 551 353.959 C 551 353.371, 550.053 350.777, 548.894 348.195 C 547.736 345.613, 546.119 341.925, 545.301 340 C 544.482 338.075, 542.899 334.700, 541.783 332.500 C 540.666 330.300, 537.922 324.900, 535.684 320.500 C 525.936 301.331, 504.943 274, 499.968 274 C 499.115 274, 496.596 275.913, 494.372 278.250 M 494.439 282.308 C 485.905 291.640, 472.538 310.951, 465.233 324.500 C 462.998 328.645, 456 343.840, 456 344.548 C 456 344.769, 454.710 347.774, 453.134 351.225 C 450.133 357.797, 444 376.510, 444 379.097 C 444 379.924, 443.610 381.027, 443.132 381.550 C 441.269 383.590, 435.778 409.582, 432.369 432.500 C 430.271 446.604, 429.427 492.375, 430.939 510.106 C 433.371 538.640, 440.994 566.323, 451.569 585.025 C 460.919 601.562, 470.693 610.499, 485.074 615.663 C 491.161 617.848, 493.391 618.137, 501.799 617.826 C 512.508 617.430, 515.131 616.519, 526.009 609.416 C 533.747 604.365, 539.196 598.674, 544.124 590.500 C 554.818 572.760, 559.199 560.682, 564.071 535.500 C 567.836 516.046, 568.412 507.964, 568.424 474.500 C 568.438 437.454, 567.989 432.823, 561.009 398 C 558.308 384.523, 550.087 357.338, 546.040 348.500 C 538.150 331.269, 533.186 321.503, 527.948 312.904 C 517.401 295.589, 503.330 278, 500.026 278 C 499.120 278, 496.606 279.938, 494.439 282.308 M 798.470 284.750 C 789.017 296.196, 774.599 318.830, 767.636 333.151 C 763.986 340.660, 761 347.303, 761 347.915 C 761 348.527, 760.572 349.809, 760.048 350.764 C 754.684 360.553, 745.082 393.951, 741.868 414 C 736.338 448.498, 735.525 497.607, 740.039 524.500 C 740.592 527.800, 741.528 533.425, 742.118 537 C 743.333 544.371, 743.606 545.360, 748.600 560.500 C 752.752 573.084, 759.224 586.905, 764 593.384 C 764.825 594.504, 768.559 598.643, 772.297 602.584 C 779.446 610.119, 787.372 614.939, 796.078 617.044 C 803.323 618.796, 825 617.179, 825 614.887 C 825 614.399, 825.694 614, 826.543 614 C 830.155 614, 844.223 601.766, 849.786 593.787 C 853.033 589.128, 863 568.903, 863 566.972 C 863 566.422, 863.424 565.191, 863.941 564.236 C 864.459 563.281, 865.609 559.800, 866.496 556.500 C 867.384 553.200, 868.506 549.150, 868.990 547.500 C 869.474 545.850, 871.102 537.300, 872.608 528.500 C 875.215 513.273, 875.347 510.905, 875.347 479.500 C 875.347 453.977, 874.957 443.555, 873.625 433.500 C 870.469 409.676, 866.997 392.808, 861.983 376.948 C 860.343 371.757, 859 367.150, 859 366.711 C 859 364.992, 848.580 339.907, 843.500 329.394 C 835.987 313.850, 819.547 289.701, 809.361 279.250 C 806.778 276.600, 804.072 277.966, 798.470 284.750" stroke="none" fill="black" fill-rule="evenodd"/>
</svg>