<svg xmlns="http://www.w3.org/2000/svg" width="1120" height="928" viewBox="0 0 1120 928" version="1.1">
	<path d="M 546.195 175.001 C 534.348 177.515, 522.065 188.358, 518.988 199.019 C 518.333 201.290, 517.983 261.626, 517.983 372.550 L 517.982 542.601 513.386 547.050 C 501.364 558.688, 495.227 571.202, 493.481 587.639 C 491.574 605.598, 500.328 627.172, 514.751 640.058 C 519.605 644.395, 529.254 650.047, 531.750 650.016 C 532.438 650.007, 533 650.399, 533 650.887 C 533 651.374, 534.237 652.021, 535.750 652.325 C 537.263 652.629, 540.525 653.335, 543 653.895 C 549.080 655.270, 563.045 655.257, 568.807 653.871 C 573.502 652.741, 589.949 645.569, 590.962 644.210 C 591.258 643.813, 593.166 642.247, 595.203 640.729 C 602.925 634.975, 612.511 619.621, 615.416 608.356 C 618.186 597.612, 616.887 580.918, 612.393 569.500 C 610.088 563.644, 602.805 553.121, 597.715 548.294 L 593.281 544.087 592.676 527.294 C 591.790 502.712, 592.397 483.996, 594.115 482.908 C 594.877 482.425, 621.938 482.024, 654.250 482.015 L 713 482 713 466.008 L 713 450.016 653.250 449.758 L 593.500 449.500 593 418.500 C 592.725 401.450, 592.893 386.938, 593.372 386.250 C 594.054 385.274, 607.252 385, 653.622 385 L 713 385 713 369 L 713 353 653.700 353 C 617.645 353, 594.028 352.628, 593.450 352.051 C 592.869 351.471, 592.694 338.950, 593 319.801 L 593.500 288.500 653.250 288.242 L 713 287.984 713 271.992 L 713 256 653.107 256 C 597.050 256, 593.171 255.888, 592.544 254.255 C 592.176 253.295, 592.144 248.232, 592.472 243.005 C 592.801 237.777, 592.690 225.348, 592.226 215.384 L 591.381 197.269 588.076 192.119 C 584.046 185.838, 577.481 179.916, 571.357 177.038 C 566.111 174.572, 553.158 173.523, 546.195 175.001 M 547.500 195.489 C 544.485 196.821, 541.768 199.572, 539.019 204.075 C 537.731 206.186, 537.491 229.045, 537.173 380.474 L 536.807 554.447 534.653 555.932 C 524.543 562.907, 516.388 575.035, 513.943 586.737 C 511.412 598.846, 516.046 612.818, 525.804 622.498 C 535.096 631.717, 545.891 635.690, 558.916 634.686 C 575.327 633.420, 588.667 622.598, 595.874 604.703 C 597.662 600.262, 597.227 588.972, 594.999 581.996 C 591.581 571.297, 586.311 563.939, 577.756 557.921 L 572.012 553.880 572.009 379.502 L 572.006 205.124 569.923 201.594 C 566.859 196.401, 562.340 193.984, 555.882 194.082 C 552.922 194.126, 549.150 194.760, 547.500 195.489 M 545.985 480.750 C 545.976 528.462, 545.639 568, 545.235 568.610 C 544.831 569.221, 542.925 570.523, 541 571.504 C 531.119 576.537, 526.483 589.401, 529.995 602.041 C 534.362 617.760, 555.713 624.707, 570.053 615.076 C 580.954 607.755, 584.615 590.573, 577.550 579.896 C 575.267 576.447, 568.649 570.716, 565.883 569.794 C 564.332 569.277, 564.079 555.898, 564.038 472.250 L 564 394 555 394 L 546 394 545.985 480.750 M 284.500 576.753 C 280.935 577.089, 274.225 578.692, 268 580.696 C 263.620 582.106, 261.037 583.176, 252.250 587.222 L 248 589.178 248 613.589 C 248 632.453, 248.284 637.999, 249.250 637.996 C 249.938 637.994, 253.200 636.592, 256.500 634.879 C 276.709 624.394, 281.658 622.422, 290.877 621.180 C 301.523 619.745, 307.912 621.626, 329.500 632.550 C 348.087 641.955, 354.388 644.367, 365.860 646.469 C 381.392 649.314, 400.806 647.622, 412.651 642.391 C 414.384 641.626, 416.103 641, 416.470 641 C 416.837 641, 423.061 638.075, 430.303 634.500 C 437.544 630.925, 444.011 628, 444.675 628 C 445.339 628, 446.138 627.586, 446.451 627.080 C 447.063 626.090, 448.153 579, 447.564 579 C 444.223 579, 422.281 587.869, 413 592.972 C 411.075 594.030, 407.475 595.862, 405 597.044 C 402.525 598.225, 399.193 599.824, 397.596 600.596 C 395.999 601.368, 393.663 602, 392.405 602 C 391.147 602, 389.840 602.450, 389.500 603 C 389.160 603.550, 385.335 604, 381 604 C 376.665 604, 372.840 603.550, 372.500 603 C 372.160 602.450, 370.896 601.994, 369.691 601.986 C 368.486 601.979, 361.650 599.012, 354.500 595.393 C 328.317 582.141, 325.901 581, 324.027 581 C 322.977 581, 321.840 580.550, 321.500 580 C 321.160 579.450, 319.304 579, 317.375 579 C 315.447 579, 312.945 578.506, 311.817 577.902 C 309.917 576.885, 291.372 576.105, 284.500 576.753 M 806 576.951 C 789.450 578.184, 784.855 579.734, 755.500 593.983 C 736.811 603.054, 735.926 603.378, 728.607 603.823 C 720.919 604.290, 711.216 601.699, 703 596.985 C 698.730 594.535, 685.585 588.064, 678 584.678 C 673.567 582.699, 661.770 578.897, 661.354 579.313 C 660.821 579.846, 660.208 624.079, 660.707 625.988 C 660.966 626.977, 662.451 628.040, 664.009 628.352 C 665.566 628.663, 672.423 631.600, 679.246 634.878 C 699.136 644.434, 712.551 647.945, 729.307 647.983 C 736.576 647.999, 739.049 647.637, 751 644.813 C 753.475 644.228, 765.400 638.904, 777.500 632.982 C 802.272 620.859, 808.124 619.164, 818.583 621.088 C 821.837 621.687, 825.625 622.647, 827 623.222 C 828.375 623.797, 830.400 624.601, 831.500 625.010 C 832.600 625.418, 838.675 628.249, 845 631.301 C 851.325 634.353, 857.513 637.139, 858.750 637.492 L 861 638.135 861 613.618 L 861 589.102 854.750 586.165 C 851.313 584.549, 846.700 582.634, 844.500 581.909 C 842.300 581.185, 840.072 580.234, 839.550 579.796 C 839.027 579.358, 837.369 579, 835.865 579 C 834.361 579, 832.066 578.595, 830.766 578.101 C 827.022 576.678, 816.325 576.181, 806 576.951 M 464 676.128 C 448.736 677.137, 443.962 678.661, 422.339 689.434 C 401.982 699.576, 397.886 701.004, 389.215 700.985 C 382.350 700.971, 377.634 699.721, 368.254 695.430 C 365.332 694.094, 362.772 693, 362.566 693 C 362.361 693, 359.336 691.372, 355.846 689.382 C 338.380 679.426, 326.030 676, 307.602 676 C 292.922 676, 282.590 677.825, 271.783 682.327 L 269.065 683.459 268.783 708.230 C 268.627 721.855, 268.818 733.001, 269.206 733.001 C 269.594 733, 272.168 731.670, 274.925 730.044 C 279.272 727.481, 283.602 725.604, 296.199 720.824 C 300.351 719.248, 312.899 719.620, 318.328 721.479 C 322.616 722.947, 330.326 726.749, 341 732.657 C 347.738 736.386, 360.365 741.354, 368.799 743.593 C 376.052 745.519, 402.067 745.498, 409.201 743.561 C 419.432 740.783, 421.140 740.066, 440.386 730.468 C 459.397 720.987, 459.959 720.781, 468.275 720.262 C 477.501 719.687, 487.223 721.867, 494.795 726.210 C 502.712 730.750, 517.410 738.011, 522.822 740.056 C 533.886 744.236, 538.678 745, 553.819 745 C 575.009 745, 579.168 743.734, 610.512 727.737 C 622.563 721.587, 627.661 720.049, 636 720.049 C 644.849 720.049, 649.179 721.535, 669.379 731.506 C 694.383 743.849, 696.836 744.483, 719.500 744.464 C 736.529 744.450, 737.931 744.301, 745.500 741.691 C 749.900 740.174, 760.233 735.519, 768.462 731.347 C 785.301 722.810, 789.209 721.244, 796.861 719.965 C 803.368 718.877, 809.990 719.995, 820.500 723.955 C 821.600 724.370, 826.153 726.574, 830.619 728.855 C 835.084 731.135, 839.021 733, 839.369 733 C 839.716 733, 840 721.860, 840 708.244 L 840 683.488 837.250 682.375 C 824.213 677.100, 818.364 675.992, 803.222 675.933 C 791.242 675.886, 777.607 677.677, 772.500 679.967 C 771.400 680.461, 768.700 681.625, 766.500 682.554 C 764.300 683.483, 755.750 687.530, 747.500 691.548 C 730.381 699.885, 726.962 700.987, 718.188 700.994 C 709.757 701.002, 704.499 699.144, 685.115 689.310 C 665.505 679.361, 659.218 677.291, 644.749 676.021 C 631.474 674.857, 624.370 675.443, 612.500 678.685 C 603.913 681.031, 600.648 682.466, 582.652 691.801 C 578.336 694.040, 573.386 696.419, 571.652 697.086 C 569.919 697.754, 566.925 698.901, 565 699.635 C 560.683 701.281, 548.882 701.401, 544.071 699.846 C 537.309 697.661, 530.376 694.442, 514.911 686.302 C 498.285 677.551, 484.412 674.779, 464 676.128" stroke="none" fill="black" fill-rule="evenodd"/>
</svg>