<svg xmlns="http://www.w3.org/2000/svg" width="1088" height="960" viewBox="0 0 1088 960" version="1.1">
	<path d="M 535.346 201.509 C 532.532 203.196, 530.152 205.855, 527.970 209.750 C 526.199 212.912, 523.202 217.975, 521.311 221 C 518.157 226.045, 508.157 243.547, 500.743 257 C 499.076 260.025, 497.375 262.950, 496.963 263.500 C 496.110 264.638, 494.088 268.148, 485.754 282.960 C 482.517 288.714, 477.315 297.714, 474.193 302.960 C 471.071 308.207, 467.959 313.625, 467.277 315 C 466.595 316.375, 465.581 318.175, 465.022 319 C 464.463 319.825, 459.005 329.275, 452.891 340 C 446.778 350.725, 439.576 363.226, 436.888 367.781 C 434.200 372.335, 432 376.265, 432 376.513 C 432 376.762, 430.136 380.010, 427.857 383.732 C 423.686 390.545, 400.184 431.339, 393.999 442.500 C 392.171 445.800, 387.891 453.225, 384.488 459 C 381.085 464.775, 376.575 472.650, 374.464 476.500 C 372.354 480.350, 367.336 489.024, 363.313 495.776 C 359.291 502.528, 356 508.263, 356 508.520 C 356 508.907, 350.616 518.319, 335.991 543.500 C 335.032 545.150, 330.986 552.125, 327 559 C 323.014 565.875, 318.961 572.850, 317.995 574.500 C 313.636 581.942, 276.512 646.464, 272.541 653.500 C 266.984 663.345, 265.968 665.091, 263.710 668.685 C 261.695 671.891, 257.232 679.656, 245.998 699.500 C 245.064 701.150, 242.512 705.425, 240.325 709 C 233.533 720.108, 232.558 725.254, 235.977 731.956 C 237.065 734.087, 239.427 736.882, 241.227 738.166 L 244.500 740.500 542.835 740.757 C 818.132 740.993, 841.438 740.886, 844.641 739.366 C 851.991 735.878, 855.913 726.143, 852.940 718.767 C 852.216 716.970, 848.558 710.378, 844.812 704.118 C 841.065 697.858, 838 692.584, 838 692.399 C 838 692.214, 834.625 686.394, 830.500 679.467 C 826.375 672.540, 823 666.684, 823 666.454 C 823 666.224, 821.200 663.094, 819 659.500 C 816.800 655.906, 815 652.784, 815 652.564 C 815 652.343, 812.241 647.514, 808.868 641.831 C 802.188 630.575, 789.313 608.415, 785.914 602.321 C 784.742 600.219, 782.291 596.025, 780.468 593 C 775.597 584.918, 751.912 543.769, 742.391 526.846 C 737.857 518.787, 733.059 510.462, 731.730 508.346 C 730.400 506.231, 726.260 499.100, 722.529 492.500 C 718.797 485.900, 713.777 477.245, 711.372 473.267 C 708.967 469.289, 707 465.840, 707 465.604 C 707 465.367, 703.115 458.497, 698.366 450.337 C 688.919 434.105, 652.874 371.331, 624.940 322.465 C 615.183 305.396, 606.367 290, 605.350 288.251 C 603.878 285.721, 592.671 266.245, 579.975 244.154 C 579.136 242.694, 576.664 238.350, 574.482 234.500 C 557.553 204.630, 556.080 202.556, 550.428 200.630 C 543.838 198.385, 540.205 198.597, 535.346 201.509 M 542.236 262.750 C 540.361 265.463, 532.851 278.265, 511.292 315.500 C 505.242 325.950, 496.900 340.350, 492.755 347.500 C 488.610 354.650, 483.219 364.100, 480.774 368.500 C 478.330 372.900, 466.735 393.150, 455.008 413.500 C 443.281 433.850, 426.062 463.775, 416.743 480 C 407.424 496.225, 398.987 510.901, 397.994 512.613 C 397.001 514.325, 395.714 516.575, 395.134 517.613 C 394.554 518.651, 389.562 527.274, 384.040 536.776 C 378.518 546.278, 374 554.235, 374 554.458 C 374 554.681, 370.462 560.857, 366.139 568.182 C 361.815 575.507, 354.994 587.350, 350.981 594.500 C 346.968 601.650, 342.924 608.625, 341.995 610 C 341.065 611.375, 338.946 614.975, 337.284 618 C 332.985 625.824, 319.972 648.309, 319.052 649.500 C 318.627 650.050, 316.339 654.100, 313.966 658.500 C 311.593 662.900, 306.455 671.900, 302.548 678.500 C 298.641 685.100, 294.191 692.862, 292.660 695.750 L 289.875 701 295.688 701.080 C 317.382 701.381, 797.407 700.926, 797.728 700.605 C 798.142 700.191, 792.969 690.465, 789.960 686 C 789.034 684.625, 782.208 672.925, 774.791 660 C 767.374 647.075, 758.698 632, 755.511 626.500 C 752.324 621, 748.585 614.475, 747.202 612 C 745.819 609.525, 741.007 601.200, 736.508 593.500 C 732.010 585.800, 727.188 577.475, 725.794 575 C 724.400 572.525, 712.796 552.275, 700.007 530 C 687.218 507.725, 675.859 487.925, 674.764 486 C 673.669 484.075, 669.500 476.875, 665.500 470 C 661.500 463.125, 657.333 455.925, 656.240 454 C 655.148 452.075, 647.755 439.250, 639.812 425.500 C 618.174 388.044, 617.811 387.411, 594.429 346.500 C 582.484 325.600, 571.602 306.475, 570.247 304 C 568.892 301.525, 566.766 297.925, 565.524 296 C 564.281 294.075, 559.122 285.188, 554.058 276.250 C 548.994 267.313, 544.690 260, 544.494 260 C 544.297 260, 543.281 261.238, 542.236 262.750 M 535.880 385.260 C 531.689 392.542, 524.969 404.350, 520.945 411.500 C 516.922 418.650, 509.950 430.800, 505.452 438.500 C 500.954 446.200, 496.008 454.750, 494.461 457.500 C 492.914 460.250, 487.741 469.250, 482.965 477.500 C 465.612 507.479, 455.178 525.584, 453 529.500 C 449.713 535.408, 439.460 553.127, 433.036 564 C 432.549 564.825, 428.426 572.025, 423.874 580 C 419.322 587.975, 410.214 603.725, 403.634 615 C 387.216 643.133, 386.711 644.044, 387.222 644.555 C 387.470 644.803, 458.424 644.892, 544.898 644.753 L 702.123 644.500 698.061 638.216 C 695.828 634.760, 694 631.746, 694 631.518 C 694 631.290, 690.195 624.791, 685.545 617.075 C 680.895 609.360, 675.780 600.558, 674.178 597.515 C 672.575 594.473, 666.451 583.775, 660.567 573.742 C 645.653 548.310, 635.326 530.464, 631.783 524 C 630.124 520.975, 625.726 513.325, 622.009 507 C 618.291 500.675, 608.880 484.306, 601.095 470.624 C 593.311 456.942, 584.479 441.529, 581.471 436.374 C 569.032 415.061, 565.071 408.153, 561.476 401.500 C 559.395 397.650, 556.862 393.306, 555.846 391.846 C 554.831 390.386, 554 388.972, 554 388.703 C 554 387.608, 544.829 372.001, 544.190 372.010 C 543.811 372.016, 540.071 377.978, 535.880 385.260 M 535.498 463.209 C 531.233 470.519, 526.605 478.525, 525.214 481 C 517.539 494.659, 506.075 514.650, 496.664 530.787 C 490.799 540.845, 486 549.215, 486 549.387 C 486 549.559, 483.590 553.705, 480.645 558.600 C 477.700 563.495, 473.583 570.614, 471.497 574.421 C 469.411 578.227, 464.620 586.539, 460.852 592.891 C 457.083 599.243, 454 604.792, 454 605.220 C 454 605.649, 494.500 606, 544 606 C 593.500 606, 634 605.759, 634 605.465 C 634 605.171, 632.030 601.459, 629.623 597.215 C 627.215 592.972, 624.314 587.842, 623.176 585.815 C 622.038 583.789, 620.035 580.414, 618.725 578.315 C 617.415 576.217, 614.760 571.575, 612.826 568 C 607.591 558.325, 592.709 532.390, 574.956 502 C 571.261 495.675, 567.088 488.440, 565.683 485.922 C 556.076 468.709, 545.201 450.567, 544.310 450.270 C 543.729 450.076, 539.763 455.899, 535.498 463.209" stroke="none" fill="black" fill-rule="evenodd"/>
</svg>