<?xml version="1.0" encoding="UTF-8"?>
<!DOCTYPE svg PUBLIC "-//W3C//DTD SVG 1.1//EN" "http://www.w3.org/Graphics/SVG/1.1/DTD/svg11.dtd">
<svg xmlns="http://www.w3.org/2000/svg" version="1.1" width="549px" height="455px" style="shape-rendering:geometricPrecision; text-rendering:geometricPrecision; image-rendering:optimizeQuality; fill-rule:evenodd; clip-rule:evenodd" xmlns:xlink="http://www.w3.org/1999/xlink">
<g><path style="opacity:0.418" fill="#ecd68d" d="M 281.5,85.5 C 267.936,86.3998 254.27,87.7331 240.5,89.5C 253.836,86.2953 267.502,84.962 281.5,85.5 Z"/></g>
<g><path style="opacity:1" fill="#e7c969" d="M 281.5,85.5 C 288.419,86.8267 295.419,87.8267 302.5,88.5C 302.209,89.6491 301.376,90.3158 300,90.5C 294.919,87.8484 289.919,87.8484 285,90.5C 283.941,90.3699 283.108,89.8699 282.5,89C 275.167,88.3333 267.833,88.3333 260.5,89C 261.833,89.6667 261.833,90.3333 260.5,91C 257.87,91.8446 255.536,91.3446 253.5,89.5C 249.925,91.7307 246.091,92.0641 242,90.5C 236.036,92.9069 229.869,94.2402 223.5,94.5C 228.779,91.8549 234.446,90.1882 240.5,89.5C 254.27,87.7331 267.936,86.3998 281.5,85.5 Z"/></g>
<g><path style="opacity:0.196" fill="#f0e0aa" d="M 303.5,89.5 C 306.495,89.2938 309.162,89.9605 311.5,91.5C 309.139,91.3259 306.806,90.9926 304.5,90.5C 303.833,90.5 303.5,90.1667 303.5,89.5 Z"/></g>
<g><path style="opacity:0.996" fill="#e8ce7b" d="M 304.5,90.5 C 306.806,90.9926 309.139,91.3259 311.5,91.5C 317.319,92.4181 322.653,94.4181 327.5,97.5C 319.571,95.2792 311.905,92.9459 304.5,90.5 Z"/></g>
<g><path style="opacity:0.851" fill="#e6d185" d="M 223.5,94.5 C 219.742,96.9349 215.742,99.1016 211.5,101C 210.207,101.49 208.873,101.657 207.5,101.5C 212.403,98.4126 217.736,96.0792 223.5,94.5 Z"/></g>
<g><path style="opacity:0.974" fill="#e8d286" d="M 149.5,100.5 C 146.053,98.4459 142.386,98.1126 138.5,99.5C 136.493,101.533 134.493,103.533 132.5,105.5C 133.713,102.281 135.713,99.6146 138.5,97.5C 142.884,95.1618 146.551,96.1618 149.5,100.5 Z"/></g>
<g><path style="opacity:0.525" fill="#e9d283" d="M 407.5,100.5 C 405.608,99.149 403.442,98.4823 401,98.5C 398.195,98.8209 395.695,99.8209 393.5,101.5C 397.764,94.0133 402.431,93.6799 407.5,100.5 Z"/></g>
<g><path style="opacity:1" fill="#e7cb6e" d="M 328.5,97.5 C 335.249,100.041 341.582,103.374 347.5,107.5C 347.771,109.43 348.771,110.764 350.5,111.5C 349.448,111.649 348.448,111.483 347.5,111C 346.667,109.5 345.5,108.333 344,107.5C 340.793,110.15 340.293,109.984 342.5,107C 341.24,105.887 340.073,105.72 339,106.5C 338.383,105.551 338.549,104.718 339.5,104C 336.464,101.994 333.131,101.16 329.5,101.5C 329.567,100.041 329.234,98.7079 328.5,97.5 Z"/></g>
<g><path style="opacity:0.973" fill="#ebd186" d="M 132.5,105.5 C 132.787,109.215 131.12,111.548 127.5,112.5C 128.433,109.63 130.1,107.296 132.5,105.5 Z"/></g>
<g><path style="opacity:0.973" fill="#ecd286" d="M 197.5,107.5 C 195.611,110.939 192.611,112.939 188.5,113.5C 190.951,110.723 193.951,108.723 197.5,107.5 Z"/></g>
<g><path style="opacity:0.2" fill="#efdd99" d="M 347.5,107.5 C 350.563,109.025 353.23,111.025 355.5,113.5C 353.833,112.833 352.167,112.167 350.5,111.5C 348.771,110.764 347.771,109.43 347.5,107.5 Z"/></g>
<g><path style="opacity:1" fill="#ebd085" d="M 410.5,104.5 C 414.812,108.454 418.145,113.12 420.5,118.5C 419.18,117.058 417.514,116.392 415.5,116.5C 415.66,114.801 415.494,113.134 415,111.5C 412.98,109.449 411.48,107.116 410.5,104.5 Z"/></g>
<g><path style="opacity:0.286" fill="#e9d491" d="M 393.5,101.5 C 390.269,106.239 386.436,110.572 382,114.5C 381.288,117.438 381.788,120.104 383.5,122.5C 382.542,122.047 381.708,121.381 381,120.5C 380.333,118.167 380.333,115.833 381,113.5C 385.036,109.296 389.202,105.296 393.5,101.5 Z"/></g>
<g><path style="opacity:0.314" fill="#eedc96" d="M 183.5,117.5 C 181.431,120.573 178.764,122.906 175.5,124.5C 177.569,121.427 180.236,119.094 183.5,117.5 Z"/></g>
<g><path style="opacity:0.976" fill="#e9d388" d="M 159.5,123.5 C 156.514,127.817 153.18,131.817 149.5,135.5C 151.042,131.614 153.042,127.948 155.5,124.5C 156.689,123.571 158.022,123.238 159.5,123.5 Z"/></g>
<g><path style="opacity:0.702" fill="#efdca6" d="M 383.5,123.5 C 386.833,124.167 388.833,126.167 389.5,129.5C 387.5,127.5 385.5,125.5 383.5,123.5 Z"/></g>
<g><path style="opacity:0.984" fill="#e9cf7e" d="M 127.5,112.5 C 126.609,114.609 125.442,116.609 124,118.5C 123.667,120.833 123.333,123.167 123,125.5C 122.333,126.833 121.667,126.833 121,125.5C 118.35,129.975 115.183,133.975 111.5,137.5C 114.136,131.565 117.302,125.898 121,120.5C 122.946,117.58 125.113,114.913 127.5,112.5 Z"/></g>
<g><path style="opacity:0.424" fill="#f0de9f" d="M 171.5,127.5 C 170.306,131.363 167.973,134.363 164.5,136.5C 166.458,133.208 168.791,130.208 171.5,127.5 Z"/></g>
<g><path style="opacity:0.267" fill="#f6ecc4" d="M 376.5,132.5 C 377.833,133.167 378.833,134.167 379.5,135.5C 377.5,135.5 376.5,134.5 376.5,132.5 Z"/></g>
<g><path style="opacity:1" fill="#eac964" d="M 355.5,113.5 C 363.448,118.781 370.448,125.115 376.5,132.5C 376.5,134.5 377.5,135.5 379.5,135.5C 382.323,138.475 384.656,141.808 386.5,145.5C 384.9,144.748 383.4,143.748 382,142.5C 381.667,142.833 381.333,143.167 381,143.5C 380.902,141.381 380.069,139.714 378.5,138.5C 377.455,140.401 376.122,142.067 374.5,143.5C 373.791,140.871 372.791,138.371 371.5,136C 374.281,134.084 374.114,132.584 371,131.5C 370.05,132.022 369.216,132.689 368.5,133.5C 368.466,130.513 368.132,127.513 367.5,124.5C 366.5,124.5 365.5,124.5 364.5,124.5C 364.167,121.5 362.5,119.833 359.5,119.5C 359.5,121.5 359.5,123.5 359.5,125.5C 352.766,124.497 352.099,122.164 357.5,118.5C 356.544,116.925 355.877,115.258 355.5,113.5 Z"/></g>
<g><path style="opacity:1" fill="#eacc71" d="M 426.5,127.5 C 431.193,133.548 434.859,140.215 437.5,147.5C 436.504,147.586 435.671,147.252 435,146.5C 434.316,144.641 433.316,142.974 432,141.5C 430.913,143.932 430.413,143.598 430.5,140.5C 429.5,140.5 428.5,140.5 427.5,140.5C 427.178,138.278 427.845,136.444 429.5,135C 427.35,132.959 426.35,130.459 426.5,127.5 Z"/></g>
<g><path style="opacity:0.549" fill="#e9dc8e" d="M 397.5,140.5 C 400.729,142.61 402.729,145.61 403.5,149.5C 401.265,146.709 399.265,143.709 397.5,140.5 Z"/></g>
<g><path style="opacity:1" fill="#ebc859" d="M 407.5,100.5 C 408.488,101.795 409.488,103.128 410.5,104.5C 411.48,107.116 412.98,109.449 415,111.5C 415.494,113.134 415.66,114.801 415.5,116.5C 417.514,116.392 419.18,117.058 420.5,118.5C 423.277,120.951 425.277,123.951 426.5,127.5C 426.35,130.459 427.35,132.959 429.5,135C 427.845,136.444 427.178,138.278 427.5,140.5C 428.5,140.5 429.5,140.5 430.5,140.5C 430.413,143.598 430.913,143.932 432,141.5C 433.316,142.974 434.316,144.641 435,146.5C 435.671,147.252 436.504,147.586 437.5,147.5C 437.89,150.839 438.39,154.173 439,157.5C 442.131,163.354 444.965,169.354 447.5,175.5C 448.291,178.115 448.957,180.782 449.5,183.5C 449.28,188.1 449.946,192.433 451.5,196.5C 451.5,196.833 451.5,197.167 451.5,197.5C 452.589,213.479 452.755,229.479 452,245.5C 451.027,247.392 450.36,249.392 450,251.5C 449.576,257.515 449.076,263.515 448.5,269.5C 448.5,270.167 448.5,270.833 448.5,271.5C 447.833,272.5 447.167,273.5 446.5,274.5C 445.504,274.414 444.671,274.748 444,275.5C 443.255,281.374 441.921,287.04 440,292.5C 439.581,291.328 438.915,290.328 438,289.5C 437.825,292.157 437.992,294.824 438.5,297.5C 437.85,299.435 437.517,301.435 437.5,303.5C 437.5,304.167 437.167,304.5 436.5,304.5C 432.476,311.182 428.476,317.849 424.5,324.5C 422.563,322.909 420.563,321.242 418.5,319.5C 418.167,319.833 417.833,320.167 417.5,320.5C 418.415,321.328 419.081,322.328 419.5,323.5C 418.094,326.337 417.261,329.337 417,332.5C 415.89,330.963 414.39,330.297 412.5,330.5C 412.5,329.5 412.5,328.5 412.5,327.5C 410.833,327.5 409.167,327.5 407.5,327.5C 407.5,329.167 407.5,330.833 407.5,332.5C 408.5,332.5 409.5,332.5 410.5,332.5C 411.298,336.703 409.631,339.37 405.5,340.5C 404.269,339.349 404.269,338.183 405.5,337C 402.317,336.617 399.651,337.617 397.5,340C 398.384,341.098 399.384,341.598 400.5,341.5C 399.877,343.711 398.877,345.711 397.5,347.5C 393.157,345.376 389.824,342.376 387.5,338.5C 386.167,338.5 384.833,338.5 383.5,338.5C 381.862,332.596 383.695,327.93 389,324.5C 389.791,323.255 390.291,321.922 390.5,320.5C 394.174,315.161 397.841,309.828 401.5,304.5C 405.692,302.676 407.859,299.342 408,294.5C 408.741,293.359 409.575,293.359 410.5,294.5C 413.47,285.643 415.804,276.643 417.5,267.5C 417.565,264.572 418.232,261.905 419.5,259.5C 420.496,259.586 421.329,259.252 422,258.5C 424.401,240.956 425.068,223.289 424,205.5C 422.697,198.823 421.197,192.157 419.5,185.5C 418.818,184.757 418.151,184.091 417.5,183.5C 416.833,183.5 416.5,183.167 416.5,182.5C 417.097,182.265 417.43,181.765 417.5,181C 416.873,178.865 416.373,176.698 416,174.5C 413.645,168.526 411.478,162.526 409.5,156.5C 408.5,156.5 407.5,156.5 406.5,156.5C 405.227,154.287 404.227,151.954 403.5,149.5C 402.729,145.61 400.729,142.61 397.5,140.5C 394.833,136.833 392.167,133.167 389.5,129.5C 388.833,126.167 386.833,124.167 383.5,123.5C 383.5,123.167 383.5,122.833 383.5,122.5C 381.788,120.104 381.288,117.438 382,114.5C 386.436,110.572 390.269,106.239 393.5,101.5C 395.695,99.8209 398.195,98.8209 401,98.5C 403.442,98.4823 405.608,99.149 407.5,100.5 Z"/></g>
<g><path style="opacity:1" fill="#ebc85a" d="M 149.5,100.5 C 154.469,104.637 158.969,109.304 163,114.5C 164.041,118.41 162.875,121.41 159.5,123.5C 158.022,123.238 156.689,123.571 155.5,124.5C 153.042,127.948 151.042,131.614 149.5,135.5C 144.913,142.34 140.58,149.34 136.5,156.5C 133.087,160.678 130.253,165.345 128,170.5C 127.503,172.81 127.337,175.143 127.5,177.5C 127.59,180.152 126.924,182.485 125.5,184.5C 123.738,185.262 122.738,186.596 122.5,188.5C 120.698,187.685 119.698,186.185 119.5,184C 120.994,181.361 121.661,178.528 121.5,175.5C 120.5,175.5 119.5,175.5 118.5,175.5C 118.167,179.5 117.833,179.5 117.5,175.5C 114.365,175.548 112.698,177.215 112.5,180.5C 111.749,179.624 111.249,178.624 111,177.5C 109.62,180.058 108.12,180.058 106.5,177.5C 105.252,178.04 104.085,178.707 103,179.5C 102.667,179.167 102.333,178.833 102,178.5C 100.954,181.459 99.1209,182.126 96.5,180.5C 97.9228,179.988 98.9228,178.654 99.5,176.5C 100.668,172.837 100.668,169.17 99.5,165.5C 100.36,160.793 102.027,156.459 104.5,152.5C 107.357,149.543 109.024,145.876 109.5,141.5C 109.66,139.847 110.326,138.514 111.5,137.5C 115.183,133.975 118.35,129.975 121,125.5C 121.667,126.833 122.333,126.833 123,125.5C 123.333,123.167 123.667,120.833 124,118.5C 125.442,116.609 126.609,114.609 127.5,112.5C 131.12,111.548 132.787,109.215 132.5,105.5C 134.493,103.533 136.493,101.533 138.5,99.5C 142.386,98.1126 146.053,98.4459 149.5,100.5 Z"/></g>
<g><path style="opacity:1" fill="#e9ce74" d="M 164.5,136.5 C 162.906,140.114 161.406,143.78 160,147.5C 158.989,148.337 157.822,148.67 156.5,148.5C 156.814,153.088 154.981,156.421 151,158.5C 150.163,160.844 148.829,162.844 147,164.5C 147.22,168.248 145.887,171.248 143,173.5C 143.333,177.167 143.667,180.833 144,184.5C 143.641,181.456 142.974,181.122 142,183.5C 141.667,182.167 141.333,180.833 141,179.5C 140.722,180.416 140.222,181.082 139.5,181.5C 141.49,173.851 144.324,166.518 148,159.5C 152.25,153.335 156.25,147.002 160,140.5C 161.371,138.959 162.871,137.625 164.5,136.5 Z"/></g>
<g><path style="opacity:0.996" fill="#ebd994" d="M 109.5,141.5 C 109.024,145.876 107.357,149.543 104.5,152.5C 104.343,151.127 104.51,149.793 105,148.5C 106.049,145.813 107.549,143.48 109.5,141.5 Z"/></g>
<g><path style="opacity:0.979" fill="#ead17d" d="M 352.5,143.5 C 354.288,143.215 355.955,143.548 357.5,144.5C 357.291,145.086 356.957,145.586 356.5,146C 358.032,146.7 359.032,147.866 359.5,149.5C 360.325,150.386 361.325,150.719 362.5,150.5C 362.343,151.873 362.51,153.207 363,154.5C 364,155.833 365,155.833 366,154.5C 366.249,157.177 367.249,159.51 369,161.5C 369.333,161.167 369.667,160.833 370,160.5C 372.179,166.329 375.012,171.662 378.5,176.5C 381.169,183.595 383.336,190.928 385,198.5C 385.498,201.482 385.665,204.482 385.5,207.5C 380.598,182.956 369.598,161.622 352.5,143.5 Z"/></g>
<g><path style="opacity:0.729" fill="#e9d384" d="M 437.5,147.5 C 441.799,156.39 445.132,165.724 447.5,175.5C 444.965,169.354 442.131,163.354 439,157.5C 438.39,154.173 437.89,150.839 437.5,147.5 Z"/></g>
<g><path style="opacity:1" fill="#ebc859" d="M 302.5,88.5 C 303.167,88.5 303.5,88.8333 303.5,89.5C 303.5,90.1667 303.833,90.5 304.5,90.5C 311.905,92.9459 319.571,95.2792 327.5,97.5C 327.833,97.5 328.167,97.5 328.5,97.5C 329.234,98.7079 329.567,100.041 329.5,101.5C 333.131,101.16 336.464,101.994 339.5,104C 338.549,104.718 338.383,105.551 339,106.5C 340.073,105.72 341.24,105.887 342.5,107C 340.293,109.984 340.793,110.15 344,107.5C 345.5,108.333 346.667,109.5 347.5,111C 348.448,111.483 349.448,111.649 350.5,111.5C 352.167,112.167 353.833,112.833 355.5,113.5C 355.877,115.258 356.544,116.925 357.5,118.5C 352.099,122.164 352.766,124.497 359.5,125.5C 359.5,123.5 359.5,121.5 359.5,119.5C 362.5,119.833 364.167,121.5 364.5,124.5C 365.5,124.5 366.5,124.5 367.5,124.5C 368.132,127.513 368.466,130.513 368.5,133.5C 369.216,132.689 370.05,132.022 371,131.5C 374.114,132.584 374.281,134.084 371.5,136C 372.791,138.371 373.791,140.871 374.5,143.5C 376.122,142.067 377.455,140.401 378.5,138.5C 380.069,139.714 380.902,141.381 381,143.5C 381.333,143.167 381.667,142.833 382,142.5C 383.4,143.748 384.9,144.748 386.5,145.5C 387.167,145.5 387.5,145.833 387.5,146.5C 386.376,148.731 385.876,151.064 386,153.5C 388.167,159.494 391,165.16 394.5,170.5C 393.758,171.287 392.925,171.953 392,172.5C 390.438,170.043 389.438,167.376 389,164.5C 388.167,165.5 387.333,166.5 386.5,167.5C 385.772,164.788 384.939,162.121 384,159.5C 383.667,161.167 383.333,162.833 383,164.5C 381.898,162.619 380.565,160.952 379,159.5C 378.5,159.833 378,160.167 377.5,160.5C 379.633,163.338 380.966,166.505 381.5,170C 379.093,171.908 379.093,173.908 381.5,176C 380.824,177.683 379.824,177.85 378.5,176.5C 375.012,171.662 372.179,166.329 370,160.5C 369.667,160.833 369.333,161.167 369,161.5C 367.249,159.51 366.249,157.177 366,154.5C 365,155.833 364,155.833 363,154.5C 362.51,153.207 362.343,151.873 362.5,150.5C 361.325,150.719 360.325,150.386 359.5,149.5C 359.032,147.866 358.032,146.7 356.5,146C 356.957,145.586 357.291,145.086 357.5,144.5C 355.955,143.548 354.288,143.215 352.5,143.5C 350.629,140.939 348.629,138.439 346.5,136C 347.167,135.667 347.833,135.333 348.5,135C 345.018,131.644 341.518,129.478 338,128.5C 335.145,129.427 332.645,128.593 330.5,126C 330.833,125.667 331.167,125.333 331.5,125C 328.793,124.605 326.127,124.105 323.5,123.5C 320.314,122.403 317.314,121.07 314.5,119.5C 308.842,115.827 302.509,113.827 295.5,113.5C 293.833,113.5 292.167,113.5 290.5,113.5C 290.119,112.069 289.119,111.236 287.5,111C 270.706,109.904 254.039,110.57 237.5,113C 239.935,113.075 240.602,113.908 239.5,115.5C 234.024,116.236 228.691,117.57 223.5,119.5C 220.557,122.111 217.557,124.444 214.5,126.5C 211.348,127.957 208.015,128.957 204.5,129.5C 204.5,130.5 204.5,131.5 204.5,132.5C 203.127,132.343 201.793,132.51 200.5,133C 200.833,133.333 201.167,133.667 201.5,134C 198.795,134.478 196.795,135.311 195.5,136.5C 195.5,137.5 195.5,138.5 195.5,139.5C 195.167,140.5 194.5,141.167 193.5,141.5C 190.873,142.105 188.207,142.605 185.5,143C 186.308,143.308 186.975,143.808 187.5,144.5C 186.754,145.736 186.421,147.07 186.5,148.5C 182.071,147.917 180.737,149.584 182.5,153.5C 181.262,152.588 179.928,152.421 178.5,153C 177.887,155.147 177.221,157.314 176.5,159.5C 175.107,160.863 173.441,161.696 171.5,162C 172.406,163.699 172.739,165.533 172.5,167.5C 172.573,169.027 171.906,170.027 170.5,170.5C 169.624,170.369 168.957,170.702 168.5,171.5C 164.385,179.39 161.719,187.723 160.5,196.5C 158.803,198.305 157.97,200.639 158,203.5C 157.667,203.167 157.333,202.833 157,202.5C 156.175,213.008 156.341,223.342 157.5,233.5C 157.5,234.833 157.5,236.167 157.5,237.5C 157.573,243.895 158.239,250.228 159.5,256.5C 162.861,263.404 165.861,270.571 168.5,278C 168.472,279.07 168.139,279.903 167.5,280.5C 166.011,278.195 164.511,275.862 163,273.5C 160.173,275.086 160.007,276.752 162.5,278.5C 161.941,281.285 160.608,283.618 158.5,285.5C 157.555,282.212 156.888,278.879 156.5,275.5C 155.5,275.5 154.5,275.5 153.5,275.5C 153.824,279.555 153.491,283.555 152.5,287.5C 151.139,285.972 149.972,284.305 149,282.5C 148.506,284.134 148.34,285.801 148.5,287.5C 148.167,287.5 147.833,287.5 147.5,287.5C 147.517,283.22 145.851,279.887 142.5,277.5C 139.902,271.804 137.902,265.804 136.5,259.5C 136.23,254.55 135.23,249.883 133.5,245.5C 133.5,244.833 133.5,244.167 133.5,243.5C 133.334,233.494 133.5,223.494 134,213.5C 135.507,202.716 137.341,192.049 139.5,181.5C 140.222,181.082 140.722,180.416 141,179.5C 141.333,180.833 141.667,182.167 142,183.5C 142.974,181.122 143.641,181.456 144,184.5C 143.667,180.833 143.333,177.167 143,173.5C 145.887,171.248 147.22,168.248 147,164.5C 148.829,162.844 150.163,160.844 151,158.5C 154.981,156.421 156.814,153.088 156.5,148.5C 157.822,148.67 158.989,148.337 160,147.5C 161.406,143.78 162.906,140.114 164.5,136.5C 167.973,134.363 170.306,131.363 171.5,127.5C 172.526,126.147 173.859,125.147 175.5,124.5C 178.764,122.906 181.431,120.573 183.5,117.5C 184.579,115.457 186.246,114.124 188.5,113.5C 192.611,112.939 195.611,110.939 197.5,107.5C 200.494,105 203.827,103 207.5,101.5C 208.873,101.657 210.207,101.49 211.5,101C 215.742,99.1016 219.742,96.9349 223.5,94.5C 229.869,94.2402 236.036,92.9069 242,90.5C 246.091,92.0641 249.925,91.7307 253.5,89.5C 255.536,91.3446 257.87,91.8446 260.5,91C 261.833,90.3333 261.833,89.6667 260.5,89C 267.833,88.3333 275.167,88.3333 282.5,89C 283.108,89.8699 283.941,90.3699 285,90.5C 289.919,87.8484 294.919,87.8484 300,90.5C 301.376,90.3158 302.209,89.6491 302.5,88.5 Z"/></g>
<g><path style="opacity:1" fill="#ead17a" d="M 182.5,153.5 C 179.655,158.527 176.321,163.194 172.5,167.5C 172.739,165.533 172.406,163.699 171.5,162C 173.441,161.696 175.107,160.863 176.5,159.5C 177.221,157.314 177.887,155.147 178.5,153C 179.928,152.421 181.262,152.588 182.5,153.5 Z"/></g>
<g><path style="opacity:0.998" fill="#ead27b" d="M 193.5,141.5 C 189.824,145.541 186.157,149.541 182.5,153.5C 180.737,149.584 182.071,147.917 186.5,148.5C 186.421,147.07 186.754,145.736 187.5,144.5C 186.975,143.808 186.308,143.308 185.5,143C 188.207,142.605 190.873,142.105 193.5,141.5 Z"/></g>
<g><path style="opacity:0.949" fill="#e8d582" d="M 214.5,126.5 C 208.349,131.078 202.015,135.411 195.5,139.5C 195.5,138.5 195.5,137.5 195.5,136.5C 196.795,135.311 198.795,134.478 201.5,134C 201.167,133.667 200.833,133.333 200.5,133C 201.793,132.51 203.127,132.343 204.5,132.5C 204.5,131.5 204.5,130.5 204.5,129.5C 208.015,128.957 211.348,127.957 214.5,126.5 Z"/></g>
<g><path style="opacity:1" fill="#eace72" d="M 323.5,123.5 C 326.127,124.105 328.793,124.605 331.5,125C 331.167,125.333 330.833,125.667 330.5,126C 332.645,128.593 335.145,129.427 338,128.5C 341.518,129.478 345.018,131.644 348.5,135C 347.833,135.333 347.167,135.667 346.5,136C 348.629,138.439 350.629,140.939 352.5,143.5C 343.313,136.078 333.646,129.412 323.5,123.5 Z"/></g>
<g><path style="opacity:0.996" fill="#e9d386" d="M 239.5,115.5 C 230.926,118.582 222.593,122.248 214.5,126.5C 217.557,124.444 220.557,122.111 223.5,119.5C 228.691,117.57 234.024,116.236 239.5,115.5 Z"/></g>
<g><path style="opacity:0.698" fill="#ead58c" d="M 295.5,113.5 C 302.509,113.827 308.842,115.827 314.5,119.5C 308.066,117.465 301.733,115.465 295.5,113.5 Z"/></g>
<g><path style="opacity:1" fill="#eacf7e" d="M 290.5,113.5 C 285.484,112.048 280.317,111.381 275,111.5C 263.015,111.762 251.182,113.095 239.5,115.5C 240.602,113.908 239.935,113.075 237.5,113C 254.039,110.57 270.706,109.904 287.5,111C 289.119,111.236 290.119,112.069 290.5,113.5 Z"/></g>
<g><path style="opacity:0.925" fill="#ebd58f" d="M 406.5,156.5 C 407.5,156.5 408.5,156.5 409.5,156.5C 411.478,162.526 413.645,168.526 416,174.5C 416.373,176.698 416.873,178.865 417.5,181C 417.43,181.765 417.097,182.265 416.5,182.5C 414.15,173.448 410.816,164.781 406.5,156.5 Z"/></g>
<g><path style="opacity:0.875" fill="#e1ce78" d="M 390.5,151.5 C 393.194,155.557 395.527,159.89 397.5,164.5C 396.504,164.586 395.671,164.252 395,163.5C 393.198,159.572 391.698,155.572 390.5,151.5 Z"/></g>
<g><path style="opacity:0.973" fill="#e7cd7c" d="M 136.5,156.5 C 133.676,163.659 130.676,170.659 127.5,177.5C 127.337,175.143 127.503,172.81 128,170.5C 130.253,165.345 133.087,160.678 136.5,156.5 Z"/></g>
<g><path style="opacity:0.894" fill="#e9d284" d="M 170.5,170.5 C 167.161,179.21 163.828,187.877 160.5,196.5C 161.719,187.723 164.385,179.39 168.5,171.5C 168.957,170.702 169.624,170.369 170.5,170.5 Z"/></g>
<g><path style="opacity:0.996" fill="#e7d07d" d="M 222.5,211.5 C 221.15,210.517 220.15,209.184 219.5,207.5C 217.724,200.11 215.558,192.777 213,185.5C 208.976,183.395 204.809,183.062 200.5,184.5C 200.279,186.664 199.279,188.33 197.5,189.5C 197.756,187.063 198.423,184.729 199.5,182.5C 204.5,181.167 209.5,181.167 214.5,182.5C 217.423,192.125 220.09,201.792 222.5,211.5 Z"/></g>
<g><path style="opacity:0.957" fill="#ead48a" d="M 351.5,184.5 C 343.623,182.742 335.623,182.242 327.5,183C 322.442,185.254 317.776,188.088 313.5,191.5C 320.555,182.226 329.888,178.726 341.5,181C 345.109,181.701 348.442,182.868 351.5,184.5 Z"/></g>
<g><path style="opacity:0.998" fill="#e7ca6d" d="M 397.5,164.5 C 402.381,172.796 405.714,181.796 407.5,191.5C 407.5,194.167 407.5,196.833 407.5,199.5C 407.268,195.091 405.768,191.091 403,187.5C 403.459,181.355 401.959,175.855 398.5,171C 397.923,168.863 397.59,166.696 397.5,164.5 Z"/></g>
<g><path style="opacity:0.612" fill="#ecd797" d="M 288.5,185.5 C 291.855,186.855 294.189,189.189 295.5,192.5C 292.758,190.425 290.424,188.091 288.5,185.5 Z"/></g>
<g><path style="opacity:1" fill="#ebc85b" d="M 351.5,184.5 C 355.017,185.348 357.684,187.348 359.5,190.5C 359.143,194.536 357.143,197.536 353.5,199.5C 349.468,198.475 345.468,197.475 341.5,196.5C 341.167,196.5 340.833,196.5 340.5,196.5C 339.486,195.235 337.986,194.569 336,194.5C 334.5,194.667 333,194.833 331.5,195C 330.244,195.417 329.577,196.25 329.5,197.5C 324.573,201.757 324.24,206.423 328.5,211.5C 329.525,213.201 331.025,214.535 333,215.5C 341.233,216.988 348.4,220.322 354.5,225.5C 356.446,227.628 358.279,229.961 360,232.5C 360.667,238.167 360.667,243.833 360,249.5C 359.64,251.421 358.806,253.088 357.5,254.5C 356.803,252.615 355.803,252.282 354.5,253.5C 352.78,252.066 350.78,251.233 348.5,251C 349.122,249.431 349.456,247.764 349.5,246C 348.614,242.417 347.448,238.917 346,235.5C 344.103,233.984 341.936,233.317 339.5,233.5C 332.205,230.188 324.871,226.854 317.5,223.5C 315.856,223.19 314.856,222.19 314.5,220.5C 313.305,215.323 311.972,210.156 310.5,205C 312.198,200.645 313.198,196.145 313.5,191.5C 317.776,188.088 322.442,185.254 327.5,183C 335.623,182.242 343.623,182.742 351.5,184.5 Z"/></g>
<g><path style="opacity:0.729" fill="#e9d18d" d="M 449.5,183.5 C 451.054,187.567 451.72,191.9 451.5,196.5C 449.946,192.433 449.28,188.1 449.5,183.5 Z"/></g>
<g><path style="opacity:1" fill="#ebc85b" d="M 287.5,185.5 C 287.833,185.5 288.167,185.5 288.5,185.5C 290.424,188.091 292.758,190.425 295.5,192.5C 295.5,192.833 295.5,193.167 295.5,193.5C 296.833,200.833 296.833,208.167 295.5,215.5C 294.262,218.738 292.262,221.404 289.5,223.5C 291.367,225.909 293.534,228.242 296,230.5C 296.524,234.571 297.358,238.571 298.5,242.5C 297.702,246.489 297.035,250.489 296.5,254.5C 295.5,254.5 294.5,254.5 293.5,254.5C 292.833,256.5 292.167,258.5 291.5,260.5C 286.887,260.469 283.553,262.469 281.5,266.5C 280.833,266.5 280.167,266.5 279.5,266.5C 268.833,266.5 258.167,266.5 247.5,266.5C 247.5,258.5 247.5,250.5 247.5,242.5C 247.333,223.164 247.5,203.83 248,184.5C 259.424,183.346 270.924,183.18 282.5,184C 284.154,184.608 285.821,185.108 287.5,185.5 Z M 262.5,196.5 C 267.179,196.334 271.845,196.501 276.5,197C 280.046,198.256 282.046,200.756 282.5,204.5C 283.029,208.192 282.029,211.358 279.5,214C 273.956,215.404 268.29,215.904 262.5,215.5C 262.5,209.167 262.5,202.833 262.5,196.5 Z M 283.5,236.5 C 283.967,241.4 283.301,246.067 281.5,250.5C 275.319,252.252 268.986,252.919 262.5,252.5C 261.893,246.897 261.893,241.23 262.5,235.5C 262.34,233.801 262.506,232.134 263,230.5C 264.794,230.991 266.794,230.991 269,230.5C 272.207,230.741 275.374,231.241 278.5,232C 280.687,233.025 282.354,234.525 283.5,236.5 Z"/></g>
<g><path style="opacity:0.455" fill="#ead48c" d="M 139.5,181.5 C 137.341,192.049 135.507,202.716 134,213.5C 133.5,223.494 133.334,233.494 133.5,243.5C 129.951,222.325 131.951,201.659 139.5,181.5 Z"/></g>
<g><path style="opacity:0.882" fill="#e2ce77" d="M 283.5,209.5 C 283.784,207.585 283.451,205.919 282.5,204.5C 282.046,200.756 280.046,198.256 276.5,197C 271.845,196.501 267.179,196.334 262.5,196.5C 261.957,196.44 261.624,196.107 261.5,195.5C 268.272,194.063 274.938,194.396 281.5,196.5C 284.505,200.58 285.172,204.914 283.5,209.5 Z"/></g>
<g><path style="opacity:0.529" fill="#e7d58b" d="M 340.5,196.5 C 336.844,195.619 333.177,195.952 329.5,197.5C 329.577,196.25 330.244,195.417 331.5,195C 333,194.833 334.5,194.667 336,194.5C 337.986,194.569 339.486,195.235 340.5,196.5 Z"/></g>
<g><path style="opacity:1" fill="#e6d182" d="M 359.5,190.5 C 361.344,191.204 361.844,192.537 361,194.5C 358.833,197.333 356.667,200.167 354.5,203C 353.5,203.667 352.5,203.667 351.5,203C 348.509,200.152 345.176,197.985 341.5,196.5C 345.468,197.475 349.468,198.475 353.5,199.5C 357.143,197.536 359.143,194.536 359.5,190.5 Z"/></g>
<g><path style="opacity:0.994" fill="#e4cb72" d="M 160.5,196.5 C 160.122,201.894 159.288,207.227 158,212.5C 157.5,219.492 157.334,226.492 157.5,233.5C 156.341,223.342 156.175,213.008 157,202.5C 157.333,202.833 157.667,203.167 158,203.5C 157.97,200.639 158.803,198.305 160.5,196.5 Z"/></g>
<g><path style="opacity:0.522" fill="#ebd996" d="M 197.5,191.5 C 196.742,197.225 195.075,202.559 192.5,207.5C 193.257,201.781 194.924,196.448 197.5,191.5 Z"/></g>
<g><path style="opacity:0.596" fill="#e8d17e" d="M 287.5,185.5 C 285.821,185.108 284.154,184.608 282.5,184C 270.924,183.18 259.424,183.346 248,184.5C 247.5,203.83 247.333,223.164 247.5,242.5C 246.833,227.833 246.167,213.167 245.5,198.5C 245.193,192.907 245.527,187.407 246.5,182C 259.215,181.103 271.882,181.436 284.5,183C 285.942,183.377 286.942,184.21 287.5,185.5 Z"/></g>
<g><path style="opacity:0.565" fill="#e9d387" d="M 295.5,193.5 C 297.566,196.755 298.566,200.421 298.5,204.5C 298.566,208.579 297.566,212.245 295.5,215.5C 296.833,208.167 296.833,200.833 295.5,193.5 Z"/></g>
<g><path style="opacity:1" fill="#e8d383" d="M 313.5,191.5 C 313.198,196.145 312.198,200.645 310.5,205C 311.972,210.156 313.305,215.323 314.5,220.5C 310.798,216.568 309.131,211.735 309.5,206C 309.344,200.652 310.677,195.818 313.5,191.5 Z"/></g>
<g><path style="opacity:0.604" fill="#ecd795" d="M 328.5,211.5 C 336.367,214.215 344.033,217.381 351.5,221C 354.378,222.716 356.712,224.883 358.5,227.5C 357.167,226.833 355.833,226.167 354.5,225.5C 348.4,220.322 341.233,216.988 333,215.5C 331.025,214.535 329.525,213.201 328.5,211.5 Z"/></g>
<g><path style="opacity:1" fill="#e8cb73" d="M 125.5,184.5 C 121.067,208.033 120.4,231.699 123.5,255.5C 121.836,254.051 121.002,252.051 121,249.5C 119.919,240.521 119.086,231.521 118.5,222.5C 119.481,211.024 120.815,199.691 122.5,188.5C 122.738,186.596 123.738,185.262 125.5,184.5 Z"/></g>
<g><path style="opacity:1" fill="#e9d081" d="M 191.5,208.5 C 193.211,214.465 191.878,219.798 187.5,224.5C 188.704,219.15 190.037,213.817 191.5,208.5 Z"/></g>
<g><path style="opacity:0.094" fill="#f2e099" d="M 282.5,204.5 C 283.451,205.919 283.784,207.585 283.5,209.5C 283.067,212.195 281.734,214.362 279.5,216C 273.651,216.818 267.985,216.652 262.5,215.5C 268.29,215.904 273.956,215.404 279.5,214C 282.029,211.358 283.029,208.192 282.5,204.5 Z"/></g>
<g><path style="opacity:1" fill="#ebc859" d="M 387.5,146.5 C 388.89,147.899 389.89,149.566 390.5,151.5C 391.698,155.572 393.198,159.572 395,163.5C 395.671,164.252 396.504,164.586 397.5,164.5C 397.59,166.696 397.923,168.863 398.5,171C 401.959,175.855 403.459,181.355 403,187.5C 405.768,191.091 407.268,195.091 407.5,199.5C 408.29,200.609 408.79,201.942 409,203.5C 409.721,210.818 410.221,218.152 410.5,225.5C 409.67,233.82 409.003,242.153 408.5,250.5C 404.282,260.653 400.948,271.32 398.5,282.5C 397.414,282.62 396.747,283.287 396.5,284.5C 396.543,285.416 396.876,286.083 397.5,286.5C 397.5,287.167 397.167,287.5 396.5,287.5C 393.539,289.758 391.372,292.758 390,296.5C 389.586,296.043 389.086,295.709 388.5,295.5C 387.646,296.948 386.646,298.281 385.5,299.5C 384.7,303.746 383.367,307.746 381.5,311.5C 381.167,311.5 380.833,311.5 380.5,311.5C 378.413,312.585 377.08,314.251 376.5,316.5C 373.167,321.833 368.833,326.167 363.5,329.5C 362.06,330.363 360.726,330.363 359.5,329.5C 358.614,330.325 358.281,331.325 358.5,332.5C 357.178,332.67 356.011,332.337 355,331.5C 354.51,332.793 354.343,334.127 354.5,335.5C 353.022,335.238 351.689,335.571 350.5,336.5C 350.709,337.086 351.043,337.586 351.5,338C 350.207,338.49 348.873,338.657 347.5,338.5C 347.5,339.5 347.5,340.5 347.5,341.5C 343.836,344.335 339.836,346.668 335.5,348.5C 336.028,347.153 336.195,345.819 336,344.5C 331.767,345.452 327.6,346.452 323.5,347.5C 323.5,346.5 323.5,345.5 323.5,344.5C 325.144,344.286 326.644,344.62 328,345.5C 330.424,343.038 333.257,341.204 336.5,340C 332.861,340.278 329.194,340.278 325.5,340C 325.167,339.667 324.833,339.333 324.5,339C 326.167,338 327.833,337 329.5,336C 327,335.115 324.667,333.948 322.5,332.5C 327.847,328.481 332.847,324.147 337.5,319.5C 339.882,317.785 341.882,315.785 343.5,313.5C 344.262,311.738 345.596,310.738 347.5,310.5C 349.372,309.489 351.372,308.655 353.5,308C 354.38,306.644 354.714,305.144 354.5,303.5C 358.833,298.167 363.167,292.833 367.5,287.5C 371,284.682 373,281.015 373.5,276.5C 373.5,275.833 373.833,275.5 374.5,275.5C 375.496,275.586 376.329,275.252 377,274.5C 378.31,270.93 379.143,267.263 379.5,263.5C 379.5,262.833 379.833,262.5 380.5,262.5C 381.482,261.859 382.482,261.193 383.5,260.5C 385.226,252.579 386.726,244.579 388,236.5C 388.667,227.833 388.667,219.167 388,210.5C 387.764,208.881 386.931,207.881 385.5,207.5C 385.665,204.482 385.498,201.482 385,198.5C 383.336,190.928 381.169,183.595 378.5,176.5C 379.824,177.85 380.824,177.683 381.5,176C 379.093,173.908 379.093,171.908 381.5,170C 380.966,166.505 379.633,163.338 377.5,160.5C 378,160.167 378.5,159.833 379,159.5C 380.565,160.952 381.898,162.619 383,164.5C 383.333,162.833 383.667,161.167 384,159.5C 384.939,162.121 385.772,164.788 386.5,167.5C 387.333,166.5 388.167,165.5 389,164.5C 389.438,167.376 390.438,170.043 392,172.5C 392.925,171.953 393.758,171.287 394.5,170.5C 391,165.16 388.167,159.494 386,153.5C 385.876,151.064 386.376,148.731 387.5,146.5 Z"/></g>
<g><path style="opacity:0.981" fill="#e6c964" d="M 99.5,165.5 C 100.668,169.17 100.668,172.837 99.5,176.5C 98.9228,178.654 97.9228,179.988 96.5,180.5C 93.7436,192.439 93.0769,204.273 94.5,216C 93.6179,226.427 92.9513,236.927 92.5,247.5C 93.877,258.049 95.877,268.382 98.5,278.5C 97.8333,277.5 97.1667,276.5 96.5,275.5C 95.1679,271.576 93.8345,267.576 92.5,263.5C 93.1471,262.726 93.4805,261.726 93.5,260.5C 93.3601,258.97 92.6935,257.97 91.5,257.5C 91.7359,254.391 91.4025,251.391 90.5,248.5C 90.5552,234.681 90.7218,220.681 91,206.5C 92.8038,199.952 93.6371,193.286 93.5,186.5C 94.7275,179.166 96.7275,172.166 99.5,165.5 Z"/></g>
<g><path style="opacity:0.082" fill="#e5ce8f" d="M 421.5,206.5 C 423.045,212.419 423.711,218.586 423.5,225C 423.499,229.68 423.166,234.18 422.5,238.5C 422.679,227.81 422.345,217.143 421.5,206.5 Z"/></g>
<g><path style="opacity:0.815" fill="#e8cd7e" d="M 451.5,197.5 C 452.268,198.263 452.768,199.263 453,200.5C 454.889,217.497 454.889,234.497 453,251.5C 452.145,257.797 450.645,263.797 448.5,269.5C 449.076,263.515 449.576,257.515 450,251.5C 450.36,249.392 451.027,247.392 452,245.5C 452.755,229.479 452.589,213.479 451.5,197.5 Z"/></g>
<g><path style="opacity:0.18" fill="#ebd48d" d="M 93.5,186.5 C 93.6371,193.286 92.8038,199.952 91,206.5C 90.7218,220.681 90.5552,234.681 90.5,248.5C 89.3844,234.199 89.2178,219.866 90,205.5C 90.8558,198.971 92.0224,192.637 93.5,186.5 Z"/></g>
<g><path style="opacity:0.58" fill="#e8d38d" d="M 317.5,223.5 C 324.871,226.854 332.205,230.188 339.5,233.5C 333.958,232.374 328.624,230.541 323.5,228C 320.986,227.119 318.986,225.619 317.5,223.5 Z"/></g>
<g><path style="opacity:0.938" fill="#e7cd72" d="M 385.5,207.5 C 386.931,207.881 387.764,208.881 388,210.5C 388.667,219.167 388.667,227.833 388,236.5C 386.726,244.579 385.226,252.579 383.5,260.5C 382.482,261.193 381.482,261.859 380.5,262.5C 382.959,252.752 384.959,242.919 386.5,233C 386.37,224.704 386.037,216.204 385.5,207.5 Z"/></g>
<g><path style="opacity:1" fill="#ebc85b" d="M 222.5,211.5 C 221.961,216.651 223.128,221.317 226,225.5C 226.378,230.301 227.378,234.968 229,239.5C 229.949,241.093 231.115,242.426 232.5,243.5C 233.309,245.028 233.976,246.694 234.5,248.5C 233.402,249.601 233.235,250.934 234,252.5C 234.522,255.281 235.689,257.615 237.5,259.5C 237.5,259.833 237.5,260.167 237.5,260.5C 237.5,262.5 237.5,264.5 237.5,266.5C 233.167,266.5 228.833,266.5 224.5,266.5C 224.598,264.447 223.931,262.78 222.5,261.5C 220.425,258.173 219.091,254.506 218.5,250.5C 211.249,249.348 203.249,249.182 194.5,250C 193.594,251.699 193.261,253.533 193.5,255.5C 193.118,259.446 192.118,263.112 190.5,266.5C 185.833,266.5 181.167,266.5 176.5,266.5C 177.083,262.414 178.083,258.414 179.5,254.5C 179.457,253.584 179.124,252.917 178.5,252.5C 178.833,251.833 179.167,251.167 179.5,250.5C 181.584,248.224 183.084,245.557 184,242.5C 186.005,236.416 187.172,230.416 187.5,224.5C 191.878,219.798 193.211,214.465 191.5,208.5C 191.5,207.833 191.833,207.5 192.5,207.5C 195.075,202.559 196.742,197.225 197.5,191.5C 197.5,190.833 197.5,190.167 197.5,189.5C 199.279,188.33 200.279,186.664 200.5,184.5C 204.809,183.062 208.976,183.395 213,185.5C 215.558,192.777 217.724,200.11 219.5,207.5C 220.15,209.184 221.15,210.517 222.5,211.5 Z M 206.5,206.5 C 207.338,206.842 207.672,207.508 207.5,208.5C 208.465,213.359 209.798,218.025 211.5,222.5C 212.184,226.571 213.184,230.571 214.5,234.5C 212,234.833 209.5,235.167 207,235.5C 204.071,235.475 201.571,234.809 199.5,233.5C 201.964,224.646 204.298,215.646 206.5,206.5 Z"/></g>
<g><path style="opacity:1" fill="#e9ce76" d="M 206.5,206.5 C 204.298,215.646 201.964,224.646 199.5,233.5C 200.576,227.657 200.576,221.823 199.5,216C 199.935,212.937 200.768,212.77 202,215.5C 203.587,211.578 205.087,207.578 206.5,203.5C 207.562,204.425 207.562,205.425 206.5,206.5 Z"/></g>
<g><path style="opacity:1" fill="#ebce78" d="M 207.5,208.5 C 208.496,208.414 209.329,208.748 210,209.5C 210.745,211.203 211.579,212.87 212.5,214.5C 212.263,217.063 211.763,217.063 211,214.5C 211.083,217.119 211.25,219.786 211.5,222.5C 209.798,218.025 208.465,213.359 207.5,208.5 Z"/></g>
<g><path style="opacity:0.996" fill="#e7d07f" d="M 222.5,211.5 C 226.434,221.88 229.767,232.547 232.5,243.5C 231.115,242.426 229.949,241.093 229,239.5C 227.378,234.968 226.378,230.301 226,225.5C 223.128,221.317 221.961,216.651 222.5,211.5 Z"/></g>
<g><path style="opacity:0.984" fill="#e9cf82" d="M 283.5,236.5 C 282.354,234.525 280.687,233.025 278.5,232C 275.374,231.241 272.207,230.741 269,230.5C 266.794,230.991 264.794,230.991 263,230.5C 262.506,232.134 262.34,233.801 262.5,235.5C 260.148,234.048 259.815,232.048 261.5,229.5C 268.357,228.098 275.023,228.765 281.5,231.5C 282.95,232.85 283.617,234.516 283.5,236.5 Z"/></g>
<g><path style="opacity:0.596" fill="#edd890" d="M 407.5,191.5 C 410.539,202.151 411.873,213.151 411.5,224.5C 411.924,233.476 410.924,242.142 408.5,250.5C 409.003,242.153 409.67,233.82 410.5,225.5C 410.221,218.152 409.721,210.818 409,203.5C 408.79,201.942 408.29,200.609 407.5,199.5C 407.5,196.833 407.5,194.167 407.5,191.5 Z"/></g>
<g><path style="opacity:1" fill="#e8cc78" d="M 417.5,183.5 C 418.151,184.091 418.818,184.757 419.5,185.5C 421.197,192.157 422.697,198.823 424,205.5C 425.068,223.289 424.401,240.956 422,258.5C 421.329,259.252 420.496,259.586 419.5,259.5C 420.146,252.316 421.146,245.316 422.5,238.5C 423.166,234.18 423.499,229.68 423.5,225C 423.711,218.586 423.045,212.419 421.5,206.5C 420.892,198.682 419.559,191.015 417.5,183.5 Z"/></g>
<g><path style="opacity:0.986" fill="#e7d07d" d="M 187.5,224.5 C 187.172,230.416 186.005,236.416 184,242.5C 183.084,245.557 181.584,248.224 179.5,250.5C 181.599,241.545 184.265,232.879 187.5,224.5 Z"/></g>
<g><path style="opacity:0.489" fill="#e9da99" d="M 361.5,233.5 C 363.047,235.807 363.713,238.473 363.5,241.5C 363.726,245.931 362.726,249.931 360.5,253.5C 361.38,246.877 361.713,240.211 361.5,233.5 Z"/></g>
<g><path style="opacity:0.149" fill="#f0dc97" d="M 283.5,236.5 C 284.647,240.646 284.814,244.98 284,249.5C 283.329,250.252 282.496,250.586 281.5,250.5C 283.301,246.067 283.967,241.4 283.5,236.5 Z"/></g>
<g><path style="opacity:0.616" fill="#ead691" d="M 325.5,250.5 C 322.343,250.921 320.01,249.755 318.5,247C 316.866,246.506 315.199,246.34 313.5,246.5C 314.145,245.188 315.145,244.188 316.5,243.5C 319.543,245.888 322.543,248.221 325.5,250.5 Z"/></g>
<g><path style="opacity:1" fill="#ebc759" d="M 122.5,188.5 C 120.815,199.691 119.481,211.024 118.5,222.5C 119.086,231.521 119.919,240.521 121,249.5C 121.002,252.051 121.836,254.051 123.5,255.5C 124.657,258.273 125.324,261.273 125.5,264.5C 126.23,272.283 128.396,279.616 132,286.5C 132.333,288.833 132.667,291.167 133,293.5C 133.667,292.167 134.333,292.167 135,293.5C 135.813,295.436 136.313,297.436 136.5,299.5C 137.5,299.5 138.5,299.5 139.5,299.5C 138.772,303.219 139.772,306.219 142.5,308.5C 143.035,310.661 143.868,312.661 145,314.5C 145.671,313.748 146.504,313.414 147.5,313.5C 151.084,317.683 154.418,322.016 157.5,326.5C 157.423,327.75 156.756,328.583 155.5,329C 161.493,329.817 163.159,332.983 160.5,338.5C 158.833,338.5 157.167,338.5 155.5,338.5C 155.5,340.167 155.5,341.833 155.5,343.5C 153.712,343.215 152.045,343.548 150.5,344.5C 151.694,347.795 150.361,349.295 146.5,349C 147.337,350.011 147.67,351.178 147.5,352.5C 144.167,353.833 140.833,353.833 137.5,352.5C 135.453,350.45 133.786,348.117 132.5,345.5C 132.08,343.906 131.414,342.406 130.5,341C 130.645,340.228 130.978,339.561 131.5,339C 126.726,336.616 124.06,332.782 123.5,327.5C 122.167,327.5 120.833,327.5 119.5,327.5C 119.5,327.167 119.5,326.833 119.5,326.5C 116.857,319.881 113.69,313.547 110,307.5C 109.329,306.748 108.496,306.414 107.5,306.5C 107.5,306.167 107.5,305.833 107.5,305.5C 104.696,296.422 101.696,287.422 98.5,278.5C 95.877,268.382 93.877,258.049 92.5,247.5C 92.9513,236.927 93.6179,226.427 94.5,216C 93.0769,204.273 93.7436,192.439 96.5,180.5C 99.1209,182.126 100.954,181.459 102,178.5C 102.333,178.833 102.667,179.167 103,179.5C 104.085,178.707 105.252,178.04 106.5,177.5C 108.12,180.058 109.62,180.058 111,177.5C 111.249,178.624 111.749,179.624 112.5,180.5C 112.698,177.215 114.365,175.548 117.5,175.5C 117.833,179.5 118.167,179.5 118.5,175.5C 119.5,175.5 120.5,175.5 121.5,175.5C 121.661,178.528 120.994,181.361 119.5,184C 119.698,186.185 120.698,187.685 122.5,188.5 Z"/></g>
<g><path style="opacity:0.102" fill="#f5e2b1" d="M 218.5,250.5 C 210.826,250.334 203.159,250.5 195.5,251C 194.901,252.622 194.234,254.122 193.5,255.5C 193.261,253.533 193.594,251.699 194.5,250C 203.249,249.182 211.249,249.348 218.5,250.5 Z"/></g>
<g><path style="opacity:0.678" fill="#e9d997" d="M 234.5,248.5 C 235.344,252.211 236.344,255.877 237.5,259.5C 235.689,257.615 234.522,255.281 234,252.5C 233.235,250.934 233.402,249.601 234.5,248.5 Z"/></g>
<g><path style="opacity:1" fill="#e9cb68" d="M 354.5,225.5 C 355.833,226.167 357.167,226.833 358.5,227.5C 360.539,228.911 361.539,230.911 361.5,233.5C 361.713,240.211 361.38,246.877 360.5,253.5C 360.443,254.609 360.11,255.609 359.5,256.5C 357.97,257.211 356.637,258.211 355.5,259.5C 353.178,257.588 350.512,256.255 347.5,255.5C 347.5,254.167 347.5,252.833 347.5,251.5C 342.767,252.188 338.434,253.854 334.5,256.5C 332.425,254.936 330.092,253.936 327.5,253.5C 326.575,252.643 325.908,251.643 325.5,250.5C 328.816,251.494 332.149,252.494 335.5,253.5C 344.554,252.95 348.054,248.284 346,239.5C 344.128,237.153 341.961,235.153 339.5,233.5C 341.936,233.317 344.103,233.984 346,235.5C 347.448,238.917 348.614,242.417 349.5,246C 349.456,247.764 349.122,249.431 348.5,251C 350.78,251.233 352.78,252.066 354.5,253.5C 355.803,252.282 356.803,252.615 357.5,254.5C 358.806,253.088 359.64,251.421 360,249.5C 360.667,243.833 360.667,238.167 360,232.5C 358.279,229.961 356.446,227.628 354.5,225.5 Z"/></g>
<g><path style="opacity:0.82" fill="#e7cd76" d="M 281.5,250.5 C 280.263,252.097 278.596,253.263 276.5,254C 271.467,254.829 266.467,254.662 261.5,253.5C 261.624,252.893 261.957,252.56 262.5,252.5C 268.986,252.919 275.319,252.252 281.5,250.5 Z"/></g>
<g><path style="opacity:0.212" fill="#eed99c" d="M 133.5,245.5 C 135.23,249.883 136.23,254.55 136.5,259.5C 134.77,255.117 133.77,250.45 133.5,245.5 Z"/></g>
<g><path style="opacity:0.529" fill="#ead891" d="M 309.5,252.5 C 309.343,253.873 309.51,255.207 310,256.5C 311.707,258.037 313.207,259.704 314.5,261.5C 310.576,260.093 308.409,257.426 308,253.5C 308.383,252.944 308.883,252.611 309.5,252.5 Z"/></g>
<g><path style="opacity:1" fill="#ebc85c" d="M 313.5,246.5 C 315.199,246.34 316.866,246.506 318.5,247C 320.01,249.755 322.343,250.921 325.5,250.5C 325.908,251.643 326.575,252.643 327.5,253.5C 330.092,253.936 332.425,254.936 334.5,256.5C 338.434,253.854 342.767,252.188 347.5,251.5C 347.5,252.833 347.5,254.167 347.5,255.5C 350.512,256.255 353.178,257.588 355.5,259.5C 354.264,261.828 352.264,262.994 349.5,263C 349.833,263.333 350.167,263.667 350.5,264C 347.124,264.096 344.791,265.596 343.5,268.5C 338.156,268.666 332.823,268.499 327.5,268C 326.263,267.768 325.263,267.268 324.5,266.5C 323.653,265.034 322.32,264.2 320.5,264C 321.5,263.667 322.5,263.333 323.5,263C 320.722,261.608 317.722,261.108 314.5,261.5C 313.207,259.704 311.707,258.037 310,256.5C 309.51,255.207 309.343,253.873 309.5,252.5C 310.449,250.223 311.782,248.223 313.5,246.5 Z"/></g>
<g><path style="opacity:0.094" fill="#f1d7b0" d="M 91.5,257.5 C 92.6935,257.97 93.3601,258.97 93.5,260.5C 93.4805,261.726 93.1471,262.726 92.5,263.5C 92.6747,261.379 92.3414,259.379 91.5,257.5 Z"/></g>
<g><path style="opacity:0.706" fill="#e8d48c" d="M 178.5,252.5 C 179.124,252.917 179.457,253.584 179.5,254.5C 178.083,258.414 177.083,262.414 176.5,266.5C 181.167,266.5 185.833,266.5 190.5,266.5C 185.36,267.488 180.026,267.821 174.5,267.5C 175.554,262.402 176.887,257.402 178.5,252.5 Z"/></g>
<g><path style="opacity:0.998" fill="#ebd081" d="M 289.5,223.5 C 296.698,227.212 300.365,233.212 300.5,241.5C 300.446,251.78 296.113,259.614 287.5,265C 285.655,266.128 283.655,266.628 281.5,266.5C 283.553,262.469 286.887,260.469 291.5,260.5C 292.167,258.5 292.833,256.5 293.5,254.5C 294.5,254.5 295.5,254.5 296.5,254.5C 297.035,250.489 297.702,246.489 298.5,242.5C 297.358,238.571 296.524,234.571 296,230.5C 293.534,228.242 291.367,225.909 289.5,223.5 Z"/></g>
<g><path style="opacity:1" fill="#e9cc77" d="M 314.5,261.5 C 317.722,261.108 320.722,261.608 323.5,263C 322.5,263.333 321.5,263.667 320.5,264C 322.32,264.2 323.653,265.034 324.5,266.5C 320.628,265.898 317.295,264.231 314.5,261.5 Z"/></g>
<g><path style="opacity:0.478" fill="#eedb8f" d="M 359.5,256.5 C 355.679,262.421 350.346,266.421 343.5,268.5C 344.791,265.596 347.124,264.096 350.5,264C 350.167,263.667 349.833,263.333 349.5,263C 352.264,262.994 354.264,261.828 355.5,259.5C 356.637,258.211 357.97,257.211 359.5,256.5 Z"/></g>
<g><path style="opacity:0.996" fill="#ead084" d="M 408.5,250.5 C 407.34,261.975 404.006,272.641 398.5,282.5C 400.948,271.32 404.282,260.653 408.5,250.5 Z"/></g>
<g><path style="opacity:0.296" fill="#f0dc9a" d="M 237.5,260.5 C 238.612,262.599 239.279,264.933 239.5,267.5C 234.241,268.513 228.908,268.346 223.5,267C 222.594,265.301 222.261,263.467 222.5,261.5C 223.931,262.78 224.598,264.447 224.5,266.5C 228.833,266.5 233.167,266.5 237.5,266.5C 237.5,264.5 237.5,262.5 237.5,260.5 Z"/></g>
<g><path style="opacity:0.325" fill="#f3dd99" d="M 245.5,198.5 C 246.167,213.167 246.833,227.833 247.5,242.5C 247.5,250.5 247.5,258.5 247.5,266.5C 258.167,266.5 268.833,266.5 279.5,266.5C 270.475,267.204 261.308,267.871 252,268.5C 249.923,267.983 247.923,267.316 246,266.5C 245.5,243.836 245.333,221.169 245.5,198.5 Z"/></g>
<g><path style="opacity:0.91" fill="#e6d283" d="M 379.5,263.5 C 379.143,267.263 378.31,270.93 377,274.5C 376.329,275.252 375.496,275.586 374.5,275.5C 376.186,271.424 377.853,267.424 379.5,263.5 Z"/></g>
<g><path style="opacity:0.216" fill="#efe1a5" d="M 448.5,271.5 C 448.59,274.152 447.924,276.485 446.5,278.5C 446.5,277.167 446.5,275.833 446.5,274.5C 447.167,273.5 447.833,272.5 448.5,271.5 Z"/></g>
<g><path style="opacity:1" fill="#e9cb6c" d="M 446.5,274.5 C 446.5,275.833 446.5,277.167 446.5,278.5C 445.405,283.784 443.739,288.784 441.5,293.5C 440.143,294.59 439.143,295.924 438.5,297.5C 437.992,294.824 437.825,292.157 438,289.5C 438.915,290.328 439.581,291.328 440,292.5C 441.921,287.04 443.255,281.374 444,275.5C 444.671,274.748 445.504,274.414 446.5,274.5 Z"/></g>
<g><path style="opacity:0.769" fill="#ead593" d="M 96.5,275.5 C 97.1667,276.5 97.8333,277.5 98.5,278.5C 101.696,287.422 104.696,296.422 107.5,305.5C 102.203,296.213 98.5365,286.213 96.5,275.5 Z"/></g>
<g><path style="opacity:1" fill="#e8cd7e" d="M 125.5,264.5 C 129.356,276.382 134.023,288.049 139.5,299.5C 138.5,299.5 137.5,299.5 136.5,299.5C 136.313,297.436 135.813,295.436 135,293.5C 134.333,292.167 133.667,292.167 133,293.5C 132.667,291.167 132.333,288.833 132,286.5C 128.396,279.616 126.23,272.283 125.5,264.5 Z"/></g>
<g><path style="opacity:0.576" fill="#e6d48d" d="M 142.5,277.5 C 145.851,279.887 147.517,283.22 147.5,287.5C 145.078,284.584 143.412,281.251 142.5,277.5 Z"/></g>
<g><path style="opacity:0.995" fill="#eacc73" d="M 157.5,237.5 C 160.731,255.634 167.065,272.634 176.5,288.5C 172.018,287.436 169.018,284.77 167.5,280.5C 168.139,279.903 168.472,279.07 168.5,278C 165.861,270.571 162.861,263.404 159.5,256.5C 158.239,250.228 157.573,243.895 157.5,237.5 Z"/></g>
<g><path style="opacity:0.718" fill="#e5d48f" d="M 398.5,282.5 C 398.567,283.959 398.234,285.292 397.5,286.5C 396.876,286.083 396.543,285.416 396.5,284.5C 396.747,283.287 397.414,282.62 398.5,282.5 Z"/></g>
<g><path style="opacity:0.325" fill="#ead692" d="M 373.5,276.5 C 373,281.015 371,284.682 367.5,287.5C 369.507,283.789 371.507,280.122 373.5,276.5 Z"/></g>
<g><path style="opacity:0.996" fill="#e7d081" d="M 176.5,288.5 C 178.878,290.878 180.878,293.545 182.5,296.5C 179.27,294.623 177.27,291.956 176.5,288.5 Z"/></g>
<g><path style="opacity:1" fill="#e8cd76" d="M 417.5,267.5 C 415.804,276.643 413.47,285.643 410.5,294.5C 409.575,293.359 408.741,293.359 408,294.5C 407.859,299.342 405.692,302.676 401.5,304.5C 407.683,292.474 413.016,280.141 417.5,267.5 Z"/></g>
<g><path style="opacity:1" fill="#e8d07b" d="M 147.5,287.5 C 147.833,287.5 148.167,287.5 148.5,287.5C 150.563,290.62 152.397,293.953 154,297.5C 155.011,298.337 156.178,298.67 157.5,298.5C 158.461,301.426 159.127,304.426 159.5,307.5C 154.479,301.46 150.479,294.794 147.5,287.5 Z"/></g>
<g><path style="opacity:1" fill="#ead37c" d="M 396.5,287.5 C 392.284,296.037 387.284,304.037 381.5,311.5C 383.367,307.746 384.7,303.746 385.5,299.5C 386.646,298.281 387.646,296.948 388.5,295.5C 389.086,295.709 389.586,296.043 390,296.5C 391.372,292.758 393.539,289.758 396.5,287.5 Z"/></g>
<g><path style="opacity:0.275" fill="#eed9a0" d="M 441.5,293.5 C 440.686,297.116 439.352,300.449 437.5,303.5C 437.517,301.435 437.85,299.435 438.5,297.5C 439.143,295.924 440.143,294.59 441.5,293.5 Z"/></g>
<g><path style="opacity:0.988" fill="#e7ca74" d="M 139.5,299.5 C 142.559,303.904 145.225,308.571 147.5,313.5C 146.504,313.414 145.671,313.748 145,314.5C 143.868,312.661 143.035,310.661 142.5,308.5C 139.772,306.219 138.772,303.219 139.5,299.5 Z"/></g>
<g><path style="opacity:0.827" fill="#edd38f" d="M 188.5,302.5 C 190.833,304.167 192.833,306.167 194.5,308.5C 191.184,307.851 189.184,305.851 188.5,302.5 Z"/></g>
<g><path style="opacity:0.569" fill="#e8d28a" d="M 354.5,303.5 C 354.714,305.144 354.38,306.644 353.5,308C 351.372,308.655 349.372,309.489 347.5,310.5C 349.5,307.833 351.833,305.5 354.5,303.5 Z"/></g>
<g><path style="opacity:0.498" fill="#ebd786" d="M 159.5,307.5 C 160.833,307.5 162.167,307.5 163.5,307.5C 163.491,309.308 163.991,310.975 165,312.5C 168.414,316.34 171.58,320.34 174.5,324.5C 168.39,319.729 163.39,314.062 159.5,307.5 Z"/></g>
<g><path style="opacity:0.769" fill="#ebd789" d="M 198.5,311.5 C 202.39,314.271 206.057,317.271 209.5,320.5C 203.972,319.781 200.306,316.781 198.5,311.5 Z"/></g>
<g><path style="opacity:0.149" fill="#f0dda4" d="M 380.5,311.5 C 379.864,313.795 378.531,315.461 376.5,316.5C 377.08,314.251 378.413,312.585 380.5,311.5 Z"/></g>
<g><path style="opacity:0.349" fill="#e7d489" d="M 436.5,304.5 C 433.532,312.439 429.532,319.772 424.5,326.5C 424.5,325.833 424.5,325.167 424.5,324.5C 428.476,317.849 432.476,311.182 436.5,304.5 Z"/></g>
<g><path style="opacity:0.588" fill="#e4d188" d="M 343.5,313.5 C 341.882,315.785 339.882,317.785 337.5,319.5C 336.833,319.5 336.167,319.5 335.5,319.5C 337.86,317.147 340.527,315.147 343.5,313.5 Z"/></g>
<g><path style="opacity:0.584" fill="#ebd88b" d="M 107.5,306.5 C 108.496,306.414 109.329,306.748 110,307.5C 113.69,313.547 116.857,319.881 119.5,326.5C 114.535,320.596 110.535,313.93 107.5,306.5 Z"/></g>
<g><path style="opacity:0.506" fill="#efdd9d" d="M 174.5,324.5 C 177.089,325.419 179.089,327.086 180.5,329.5C 177.911,328.581 175.911,326.914 174.5,324.5 Z"/></g>
<g><path style="opacity:0.984" fill="#ead17b" d="M 157.5,326.5 C 161.676,328.517 163.509,331.85 163,336.5C 158.33,342.337 153.163,347.67 147.5,352.5C 147.67,351.178 147.337,350.011 146.5,349C 150.361,349.295 151.694,347.795 150.5,344.5C 152.045,343.548 153.712,343.215 155.5,343.5C 155.5,341.833 155.5,340.167 155.5,338.5C 157.167,338.5 158.833,338.5 160.5,338.5C 163.159,332.983 161.493,329.817 155.5,329C 156.756,328.583 157.423,327.75 157.5,326.5 Z"/></g>
<g><path style="opacity:0.506" fill="#eddd93" d="M 180.5,330.5 C 183.956,331.27 186.623,333.27 188.5,336.5C 185.545,334.878 182.878,332.878 180.5,330.5 Z"/></g>
<g><path style="opacity:1" fill="#e9d279" d="M 363.5,329.5 C 358.891,334.471 353.557,338.471 347.5,341.5C 347.5,340.5 347.5,339.5 347.5,338.5C 348.873,338.657 350.207,338.49 351.5,338C 351.043,337.586 350.709,337.086 350.5,336.5C 351.689,335.571 353.022,335.238 354.5,335.5C 354.343,334.127 354.51,332.793 355,331.5C 356.011,332.337 357.178,332.67 358.5,332.5C 358.281,331.325 358.614,330.325 359.5,329.5C 360.726,330.363 362.06,330.363 363.5,329.5 Z"/></g>
<g><path style="opacity:0.931" fill="#e6d38b" d="M 390.5,320.5 C 390.291,321.922 389.791,323.255 389,324.5C 383.695,327.93 381.862,332.596 383.5,338.5C 383.833,339.167 384.167,339.833 384.5,340.5C 380.832,338.644 379.666,335.644 381,331.5C 384.032,327.641 387.198,323.974 390.5,320.5 Z"/></g>
<g><path style="opacity:1" fill="#ebc858" d="M 167.5,280.5 C 169.018,284.77 172.018,287.436 176.5,288.5C 177.27,291.956 179.27,294.623 182.5,296.5C 184.861,298.194 186.861,300.194 188.5,302.5C 189.184,305.851 191.184,307.851 194.5,308.5C 195.833,309.5 197.167,310.5 198.5,311.5C 200.306,316.781 203.972,319.781 209.5,320.5C 209.833,320.5 210.167,320.5 210.5,320.5C 210.539,321.583 210.873,322.583 211.5,323.5C 218.769,327.203 226.269,330.536 234,333.5C 234.765,333.43 235.265,333.097 235.5,332.5C 236.167,332.5 236.5,332.833 236.5,333.5C 241.782,336.991 247.448,337.991 253.5,336.5C 254.167,336.5 254.5,336.833 254.5,337.5C 259.213,338.577 264.046,339.577 269,340.5C 272.76,340.514 276.26,339.847 279.5,338.5C 279.5,337.833 279.833,337.5 280.5,337.5C 285.65,338.651 290.984,338.817 296.5,338C 305.113,335.036 313.78,332.036 322.5,329C 323.71,327.961 324.71,326.794 325.5,325.5C 329.653,324.644 332.986,322.644 335.5,319.5C 336.167,319.5 336.833,319.5 337.5,319.5C 332.847,324.147 327.847,328.481 322.5,332.5C 324.667,333.948 327,335.115 329.5,336C 327.833,337 326.167,338 324.5,339C 324.833,339.333 325.167,339.667 325.5,340C 329.194,340.278 332.861,340.278 336.5,340C 333.257,341.204 330.424,343.038 328,345.5C 326.644,344.62 325.144,344.286 323.5,344.5C 323.5,345.5 323.5,346.5 323.5,347.5C 327.6,346.452 331.767,345.452 336,344.5C 336.195,345.819 336.028,347.153 335.5,348.5C 333.396,348.201 331.396,348.534 329.5,349.5C 324.484,351.556 319.817,353.889 315.5,356.5C 315.158,357.338 314.492,357.672 313.5,357.5C 304.95,359.458 296.283,360.791 287.5,361.5C 274.307,362.407 261.307,362.74 248.5,362.5C 247.292,361.766 245.959,361.433 244.5,361.5C 244.389,360.883 244.056,360.383 243.5,360C 237.216,358.201 230.883,356.701 224.5,355.5C 223.508,355.672 222.842,355.338 222.5,354.5C 219.808,351.819 216.475,350.486 212.5,350.5C 212.196,349.85 211.863,349.183 211.5,348.5C 208.647,347.809 206.147,346.476 204,344.5C 203.383,343.551 203.549,342.718 204.5,342C 201.843,342.81 199.177,342.644 196.5,341.5C 195.969,339.376 194.635,337.876 192.5,337C 191.207,336.51 189.873,336.343 188.5,336.5C 186.623,333.27 183.956,331.27 180.5,330.5C 180.5,330.167 180.5,329.833 180.5,329.5C 179.089,327.086 177.089,325.419 174.5,324.5C 171.58,320.34 168.414,316.34 165,312.5C 163.991,310.975 163.491,309.308 163.5,307.5C 162.167,307.5 160.833,307.5 159.5,307.5C 159.127,304.426 158.461,301.426 157.5,298.5C 156.178,298.67 155.011,298.337 154,297.5C 152.397,293.953 150.563,290.62 148.5,287.5C 148.34,285.801 148.506,284.134 149,282.5C 149.972,284.305 151.139,285.972 152.5,287.5C 153.491,283.555 153.824,279.555 153.5,275.5C 154.5,275.5 155.5,275.5 156.5,275.5C 156.888,278.879 157.555,282.212 158.5,285.5C 160.608,283.618 161.941,281.285 162.5,278.5C 160.007,276.752 160.173,275.086 163,273.5C 164.511,275.862 166.011,278.195 167.5,280.5 Z"/></g>
<g><path style="opacity:0.853" fill="#e7d280" d="M 210.5,320.5 C 218.406,325.286 226.74,329.286 235.5,332.5C 235.265,333.097 234.765,333.43 234,333.5C 226.269,330.536 218.769,327.203 211.5,323.5C 210.873,322.583 210.539,321.583 210.5,320.5 Z"/></g>
<g><path style="opacity:0.298" fill="#e7d68b" d="M 335.5,319.5 C 332.986,322.644 329.653,324.644 325.5,325.5C 328.546,323.142 331.879,321.142 335.5,319.5 Z"/></g>
<g><path style="opacity:0.902" fill="#e7cd7e" d="M 236.5,333.5 C 242.146,334.608 247.812,335.608 253.5,336.5C 247.448,337.991 241.782,336.991 236.5,333.5 Z"/></g>
<g><path style="opacity:0.753" fill="#e6d07f" d="M 325.5,325.5 C 324.71,326.794 323.71,327.961 322.5,329C 313.78,332.036 305.113,335.036 296.5,338C 290.984,338.817 285.65,338.651 280.5,337.5C 296.424,336.744 311.424,332.744 325.5,325.5 Z"/></g>
<g><path style="opacity:1" fill="#eac95f" d="M 424.5,324.5 C 424.5,325.167 424.5,325.833 424.5,326.5C 421.607,332.388 417.94,337.722 413.5,342.5C 409.65,345.851 405.983,349.351 402.5,353C 400.866,353.494 399.199,353.66 397.5,353.5C 392.548,349.882 388.215,345.548 384.5,340.5C 384.167,339.833 383.833,339.167 383.5,338.5C 384.833,338.5 386.167,338.5 387.5,338.5C 389.824,342.376 393.157,345.376 397.5,347.5C 398.877,345.711 399.877,343.711 400.5,341.5C 399.384,341.598 398.384,341.098 397.5,340C 399.651,337.617 402.317,336.617 405.5,337C 404.269,338.183 404.269,339.349 405.5,340.5C 409.631,339.37 411.298,336.703 410.5,332.5C 409.5,332.5 408.5,332.5 407.5,332.5C 407.5,330.833 407.5,329.167 407.5,327.5C 409.167,327.5 410.833,327.5 412.5,327.5C 412.5,328.5 412.5,329.5 412.5,330.5C 414.39,330.297 415.89,330.963 417,332.5C 417.261,329.337 418.094,326.337 419.5,323.5C 419.081,322.328 418.415,321.328 417.5,320.5C 417.833,320.167 418.167,319.833 418.5,319.5C 420.563,321.242 422.563,322.909 424.5,324.5 Z"/></g>
<g><path style="opacity:1" fill="#e9d07c" d="M 119.5,327.5 C 120.833,327.5 122.167,327.5 123.5,327.5C 124.06,332.782 126.726,336.616 131.5,339C 130.978,339.561 130.645,340.228 130.5,341C 131.414,342.406 132.08,343.906 132.5,345.5C 127.424,340.082 123.091,334.082 119.5,327.5 Z"/></g>
<g><path style="opacity:0.957" fill="#e7d383" d="M 188.5,336.5 C 189.873,336.343 191.207,336.51 192.5,337C 194.635,337.876 195.969,339.376 196.5,341.5C 193.296,340.617 190.629,338.95 188.5,336.5 Z"/></g>
<g><path style="opacity:0.971" fill="#e8cc7c" d="M 254.5,337.5 C 262.819,338.124 271.152,338.457 279.5,338.5C 276.26,339.847 272.76,340.514 269,340.5C 264.046,339.577 259.213,338.577 254.5,337.5 Z"/></g>
<g><path style="opacity:0.549" fill="#e8d07f" d="M 196.5,341.5 C 199.177,342.644 201.843,342.81 204.5,342C 203.549,342.718 203.383,343.551 204,344.5C 206.147,346.476 208.647,347.809 211.5,348.5C 211.863,349.183 212.196,349.85 212.5,350.5C 207.766,348.635 203.099,346.468 198.5,344C 197.619,343.292 196.953,342.458 196.5,341.5 Z"/></g>
<g><path style="opacity:0.137" fill="#e7d488" d="M 212.5,350.5 C 216.475,350.486 219.808,351.819 222.5,354.5C 218.642,354.23 215.309,352.897 212.5,350.5 Z"/></g>
<g><path style="opacity:0.686" fill="#ebd994" d="M 413.5,342.5 C 410.883,346.13 408.216,349.797 405.5,353.5C 402.691,354.8 400.024,354.8 397.5,353.5C 399.199,353.66 400.866,353.494 402.5,353C 405.983,349.351 409.65,345.851 413.5,342.5 Z"/></g>
<g><path style="opacity:0.633" fill="#edd398" d="M 137.5,352.5 C 140.833,353.833 144.167,353.833 147.5,352.5C 144.167,356.5 140.833,356.5 137.5,352.5 Z"/></g>
<g><path style="opacity:0.925" fill="#e7d07f" d="M 335.5,348.5 C 329.595,352.776 322.928,355.443 315.5,356.5C 319.817,353.889 324.484,351.556 329.5,349.5C 331.396,348.534 333.396,348.201 335.5,348.5 Z"/></g>
<g><path style="opacity:0.867" fill="#e8d289" d="M 224.5,355.5 C 230.883,356.701 237.216,358.201 243.5,360C 244.056,360.383 244.389,360.883 244.5,361.5C 237.362,360.72 230.695,358.72 224.5,355.5 Z"/></g>
<g><path style="opacity:0.996" fill="#e9d387" d="M 313.5,357.5 C 292.392,364.669 270.725,366.336 248.5,362.5C 261.307,362.74 274.307,362.407 287.5,361.5C 296.283,360.791 304.95,359.458 313.5,357.5 Z"/></g>
</svg>
