<?xml version="1.0" encoding="UTF-8"?>
<!DOCTYPE svg PUBLIC "-//W3C//DTD SVG 1.1//EN" "http://www.w3.org/Graphics/SVG/1.1/DTD/svg11.dtd">
<svg xmlns="http://www.w3.org/2000/svg" version="1.1" width="500px" height="500px" style="shape-rendering:geometricPrecision; text-rendering:geometricPrecision; image-rendering:optimizeQuality; fill-rule:evenodd; clip-rule:evenodd" xmlns:xlink="http://www.w3.org/1999/xlink">
<g><path style="opacity:0.945" fill="#d1564b" d="M 268.5,91.5 C 270.95,93.6291 272.617,96.2957 273.5,99.5C 271.952,99.1788 271.285,98.1788 271.5,96.5C 270.5,96.5 269.5,96.5 268.5,96.5C 268.5,94.8333 268.5,93.1667 268.5,91.5 Z"/></g>
<g><path style="opacity:1" fill="#d8362b" d="M 268.5,91.5 C 268.5,93.1667 268.5,94.8333 268.5,96.5C 269.5,96.5 270.5,96.5 271.5,96.5C 271.285,98.1788 271.952,99.1788 273.5,99.5C 276.335,103.164 278.668,107.164 280.5,111.5C 281.069,119.547 283.569,127.214 288,134.5C 288.981,131.345 290.315,131.012 292,133.5C 292.27,136.362 293.104,139.028 294.5,141.5C 295.524,142.853 296.857,143.52 298.5,143.5C 299.061,145.908 299.561,148.241 300,150.5C 298.383,151.851 297.216,153.518 296.5,155.5C 295.575,154.359 294.741,154.359 294,155.5C 293.42,147.403 290.253,140.736 284.5,135.5C 283.859,136.993 282.859,137.993 281.5,138.5C 273.435,125.38 265.602,112.047 258,98.5C 253.844,93.2481 249.011,92.4148 243.5,96C 225.077,125.657 207.244,155.824 190,186.5C 188.303,189.02 186.47,191.353 184.5,193.5C 185.357,191.138 185.691,188.804 185.5,186.5C 183.752,186.436 182.086,185.436 180.5,183.5C 175.605,186.622 173.438,190.956 174,196.5C 172.644,195.62 171.144,195.286 169.5,195.5C 189.69,160.106 210.19,124.773 231,89.5C 239.742,80.2919 249.909,78.4586 261.5,84C 264.739,85.7364 267.073,88.2364 268.5,91.5 Z"/></g>
<g><path style="opacity:0.125" fill="#eea49c" d="M 286.5,121.5 C 287.906,121.973 288.573,122.973 288.5,124.5C 287.094,124.027 286.427,123.027 286.5,121.5 Z"/></g>
<g><path style="opacity:1" fill="#d0382f" d="M 266.5,175.5 C 261.631,173.414 259.964,174.748 261.5,179.5C 260.167,179.5 258.833,179.5 257.5,179.5C 257.703,177.61 257.037,176.11 255.5,175C 256.623,173.956 257.956,173.29 259.5,173C 258.892,172.13 258.059,171.63 257,171.5C 255.349,172.742 253.515,173.576 251.5,174C 252.34,175.666 251.84,175.833 250,174.5C 248.509,176.004 246.676,176.837 244.5,177C 248.024,178.096 251.69,178.929 255.5,179.5C 256.655,180.95 258.155,181.95 260,182.5C 262.46,188.245 263.127,194.245 262,200.5C 261.583,199.244 260.75,198.577 259.5,198.5C 261.999,186.839 257.333,181.006 245.5,181C 240.718,183.726 238.384,187.893 238.5,193.5C 239.366,203.269 240.033,213.269 240.5,223.5C 239.883,223.389 239.383,223.056 239,222.5C 238.813,212.772 237.979,203.105 236.5,193.5C 236.481,190.761 237.148,188.261 238.5,186C 237.875,184.159 237.708,182.326 238,180.5C 240.493,181.946 242.327,181.279 243.5,178.5C 241.577,177.692 239.577,177.192 237.5,177C 238.833,176.333 239.833,175.333 240.5,174C 236.68,173.658 235.014,175.491 235.5,179.5C 233.302,180.014 231.302,181.014 229.5,182.5C 228.5,185.5 227.5,188.5 226.5,191.5C 226.437,193.481 227.104,195.148 228.5,196.5C 228.035,205.446 228.035,214.446 228.5,223.5C 229.437,231.445 229.77,239.445 229.5,247.5C 227.12,227.38 225.953,207.046 226,186.5C 231.279,170.608 242.112,164.774 258.5,169C 261.981,170.328 264.648,172.495 266.5,175.5 Z"/></g>
<g><path style="opacity:1" fill="#da3125" d="M 308.5,184.5 C 308.5,184.167 308.5,183.833 308.5,183.5C 308.071,179.976 306.571,176.976 304,174.5C 303.505,172.527 303.338,170.527 303.5,168.5C 302.5,168.5 301.5,168.5 300.5,168.5C 301.114,164.865 301.448,161.198 301.5,157.5C 297.828,156.955 298.162,156.622 302.5,156.5C 302.238,157.978 302.571,159.311 303.5,160.5C 304.736,159.754 306.07,159.421 307.5,159.5C 307.34,161.199 307.506,162.866 308,164.5C 312.101,167.035 314.435,170.701 315,175.5C 315.333,175.167 315.667,174.833 316,174.5C 316.74,177.176 317.073,179.842 317,182.5C 316.167,181.5 315.333,180.5 314.5,179.5C 314.167,179.833 313.833,180.167 313.5,180.5C 316.131,183.633 318.131,187.133 319.5,191C 318.423,192.543 317.089,192.543 315.5,191C 315.833,190.667 316.167,190.333 316.5,190C 314.959,187.96 313.626,185.793 312.5,183.5C 311.808,184.025 311.308,184.692 311,185.5C 310.329,184.748 309.496,184.414 308.5,184.5 Z"/></g>
<g><path style="opacity:1" fill="#d33c2f" d="M 280.5,111.5 C 283,114.494 285,117.827 286.5,121.5C 286.427,123.027 287.094,124.027 288.5,124.5C 303.974,150.101 318.974,176.101 333.5,202.5C 332.5,202.5 331.5,202.5 330.5,202.5C 329.956,200.42 329.122,198.42 328,196.5C 327.586,196.957 327.086,197.291 326.5,197.5C 325.52,194.914 325.187,192.247 325.5,189.5C 324.167,189.5 322.833,189.5 321.5,189.5C 320.431,194.178 320.431,198.844 321.5,203.5C 323.501,206.728 325.501,210.062 327.5,213.5C 328.452,215.045 328.785,216.712 328.5,218.5C 321.433,207.426 314.767,196.093 308.5,184.5C 309.496,184.414 310.329,184.748 311,185.5C 311.308,184.692 311.808,184.025 312.5,183.5C 313.626,185.793 314.959,187.96 316.5,190C 316.167,190.333 315.833,190.667 315.5,191C 317.089,192.543 318.423,192.543 319.5,191C 318.131,187.133 316.131,183.633 313.5,180.5C 313.833,180.167 314.167,179.833 314.5,179.5C 315.333,180.5 316.167,181.5 317,182.5C 317.073,179.842 316.74,177.176 316,174.5C 315.667,174.833 315.333,175.167 315,175.5C 314.435,170.701 312.101,167.035 308,164.5C 307.506,162.866 307.34,161.199 307.5,159.5C 306.07,159.421 304.736,159.754 303.5,160.5C 302.571,159.311 302.238,157.978 302.5,156.5C 298.162,156.622 297.828,156.955 301.5,157.5C 301.448,161.198 301.114,164.865 300.5,168.5C 301.5,168.5 302.5,168.5 303.5,168.5C 303.338,170.527 303.505,172.527 304,174.5C 306.571,176.976 308.071,179.976 308.5,183.5C 299.096,168.758 290.096,153.758 281.5,138.5C 282.859,137.993 283.859,136.993 284.5,135.5C 290.253,140.736 293.42,147.403 294,155.5C 294.741,154.359 295.575,154.359 296.5,155.5C 297.216,153.518 298.383,151.851 300,150.5C 299.561,148.241 299.061,145.908 298.5,143.5C 296.857,143.52 295.524,142.853 294.5,141.5C 293.104,139.028 292.27,136.362 292,133.5C 290.315,131.012 288.981,131.345 288,134.5C 283.569,127.214 281.069,119.547 280.5,111.5 Z"/></g>
<g><path style="opacity:1" fill="#da3127" d="M 266.5,175.5 C 267.794,176.29 268.961,177.29 270,178.5C 271.747,181.21 272.747,184.21 273,187.5C 273.389,194.175 273.222,200.841 272.5,207.5C 271.188,209.743 270.522,212.41 270.5,215.5C 270.195,227.382 269.195,239.049 267.5,250.5C 265.908,249.398 265.075,250.065 265,252.5C 264.667,251.833 264.333,251.167 264,250.5C 262.054,253.139 261.054,256.139 261,259.5C 260,258.833 259,258.167 258,257.5C 257.932,249.824 258.432,242.158 259.5,234.5C 260.086,234.709 260.586,235.043 261,235.5C 261.333,233.167 261.667,230.833 262,228.5C 266.886,225.674 266.386,224.341 260.5,224.5C 260.825,216.648 260.492,208.982 259.5,201.5C 260.833,200.5 260.833,199.5 259.5,198.5C 260.75,198.577 261.583,199.244 262,200.5C 263.127,194.245 262.46,188.245 260,182.5C 258.155,181.95 256.655,180.95 255.5,179.5C 251.69,178.929 248.024,178.096 244.5,177C 246.676,176.837 248.509,176.004 250,174.5C 251.84,175.833 252.34,175.666 251.5,174C 253.515,173.576 255.349,172.742 257,171.5C 258.059,171.63 258.892,172.13 259.5,173C 257.956,173.29 256.623,173.956 255.5,175C 257.037,176.11 257.703,177.61 257.5,179.5C 258.833,179.5 260.167,179.5 261.5,179.5C 259.964,174.748 261.631,173.414 266.5,175.5 Z"/></g>
<g><path style="opacity:0.996" fill="#d05349" d="M 169.5,195.5 C 168.394,200.378 166.228,204.711 163,208.5C 162.51,209.793 162.343,211.127 162.5,212.5C 161.5,212.5 160.5,212.5 159.5,212.5C 162.095,206.361 165.428,200.694 169.5,195.5 Z"/></g>
<g><path style="opacity:0.99" fill="#d15648" d="M 184.5,193.5 C 181.547,201.407 177.547,208.74 172.5,215.5C 173.018,212.113 173.851,208.779 175,205.5C 175.333,205.833 175.667,206.167 176,206.5C 176.745,204.797 177.579,203.13 178.5,201.5C 176.748,198.809 177.248,198.142 180,199.5C 180.889,196.905 182.389,194.905 184.5,193.5 Z"/></g>
<g><path style="opacity:0.982" fill="#c14037" d="M 272.5,207.5 C 271.165,231.53 269.499,255.53 267.5,279.5C 266.687,270.002 266.687,260.335 267.5,250.5C 269.195,239.049 270.195,227.382 270.5,215.5C 270.522,212.41 271.188,209.743 272.5,207.5 Z"/></g>
<g><path style="opacity:0.071" fill="#e4908d" d="M 341.5,215.5 C 342.906,215.973 343.573,216.973 343.5,218.5C 342.094,218.027 341.427,217.027 341.5,215.5 Z"/></g>
<g><path style="opacity:0.999" fill="#db2f25" d="M 240.5,223.5 C 240.5,224.5 240.5,225.5 240.5,226.5C 240.666,233.841 240.5,241.174 240,248.5C 239.83,246.285 239.163,244.285 238,242.5C 237.833,230.819 237.333,219.152 236.5,207.5C 235.662,212.21 234.662,216.877 233.5,221.5C 235.76,223.407 235.927,225.407 234,227.5C 232.838,225.162 231.004,223.828 228.5,223.5C 228.035,214.446 228.035,205.446 228.5,196.5C 227.104,195.148 226.437,193.481 226.5,191.5C 227.5,188.5 228.5,185.5 229.5,182.5C 231.302,181.014 233.302,180.014 235.5,179.5C 235.014,175.491 236.68,173.658 240.5,174C 239.833,175.333 238.833,176.333 237.5,177C 239.577,177.192 241.577,177.692 243.5,178.5C 242.327,181.279 240.493,181.946 238,180.5C 237.708,182.326 237.875,184.159 238.5,186C 237.148,188.261 236.481,190.761 236.5,193.5C 237.979,203.105 238.813,212.772 239,222.5C 239.383,223.056 239.883,223.389 240.5,223.5 Z"/></g>
<g><path style="opacity:0.999" fill="#d2493d" d="M 170.5,218.5 C 168.654,222.869 166.321,226.869 163.5,230.5C 163.187,227.753 163.52,225.086 164.5,222.5C 165.086,222.709 165.586,223.043 166,223.5C 166.145,220.509 167.645,218.842 170.5,218.5 Z"/></g>
<g><path style="opacity:1" fill="#db3126" d="M 184.5,193.5 C 182.389,194.905 180.889,196.905 180,199.5C 177.248,198.142 176.748,198.809 178.5,201.5C 177.579,203.13 176.745,204.797 176,206.5C 175.667,206.167 175.333,205.833 175,205.5C 173.851,208.779 173.018,212.113 172.5,215.5C 172.068,216.71 171.401,217.71 170.5,218.5C 167.645,218.842 166.145,220.509 166,223.5C 165.586,223.043 165.086,222.709 164.5,222.5C 163.52,225.086 163.187,227.753 163.5,230.5C 162.022,230.762 160.689,230.429 159.5,229.5C 162.167,228.5 162.167,227.5 159.5,226.5C 158.188,228.736 158.521,230.736 160.5,232.5C 159.726,233.711 158.893,233.711 158,232.5C 158.195,234.126 158.195,235.793 158,237.5C 157.333,236.833 156.667,236.167 156,235.5C 154.477,237.83 153.977,240.164 154.5,242.5C 153.624,243.251 152.624,243.751 151.5,244C 152.059,244.725 152.392,245.558 152.5,246.5C 150.086,249.441 148.753,252.774 148.5,256.5C 148.068,257.71 147.401,258.71 146.5,259.5C 142.852,261.414 140.685,264.414 140,268.5C 138.494,265.526 136.828,265.193 135,267.5C 134.441,270.259 132.941,272.259 130.5,273.5C 129.297,281.082 127.964,281.249 126.5,274C 126.943,272.175 127.277,270.342 127.5,268.5C 128.5,268.5 129.5,268.5 130.5,268.5C 130.011,264.513 131.678,262.18 135.5,261.5C 135.351,260.448 135.517,259.448 136,258.5C 137.183,259.731 138.349,259.731 139.5,258.5C 138.675,257.614 137.675,257.281 136.5,257.5C 138.09,254.053 139.09,250.387 139.5,246.5C 141.017,246.489 142.184,245.823 143,244.5C 143.419,245.672 144.085,246.672 145,247.5C 145.155,245.144 145.155,242.811 145,240.5C 146.145,238.074 147.478,235.741 149,233.5C 149.743,235.645 150.576,235.811 151.5,234C 151.167,233 150.833,232 150.5,231C 151.885,229.403 152.551,227.57 152.5,225.5C 152.491,223.692 152.991,222.025 154,220.5C 156.114,217.907 157.947,215.24 159.5,212.5C 160.5,212.5 161.5,212.5 162.5,212.5C 162.343,211.127 162.51,209.793 163,208.5C 166.228,204.711 168.394,200.378 169.5,195.5C 171.144,195.286 172.644,195.62 174,196.5C 173.438,190.956 175.605,186.622 180.5,183.5C 182.086,185.436 183.752,186.436 185.5,186.5C 185.691,188.804 185.357,191.138 184.5,193.5 Z"/></g>
<g><path style="opacity:1" fill="#d44c3e" d="M 163.5,230.5 C 159.002,239.501 154.002,248.168 148.5,256.5C 148.753,252.774 150.086,249.441 152.5,246.5C 152.392,245.558 152.059,244.725 151.5,244C 152.624,243.751 153.624,243.251 154.5,242.5C 153.977,240.164 154.477,237.83 156,235.5C 156.667,236.167 157.333,236.833 158,237.5C 158.195,235.793 158.195,234.126 158,232.5C 158.893,233.711 159.726,233.711 160.5,232.5C 158.521,230.736 158.188,228.736 159.5,226.5C 162.167,227.5 162.167,228.5 159.5,229.5C 160.689,230.429 162.022,230.762 163.5,230.5 Z"/></g>
<g><path style="opacity:0.998" fill="#d7352a" d="M 333.5,202.5 C 336.916,206.323 339.582,210.657 341.5,215.5C 341.427,217.027 342.094,218.027 343.5,218.5C 349.675,228.181 355.342,238.181 360.5,248.5C 357.148,245.305 354.315,241.638 352,237.5C 351.057,242.047 349.557,246.38 347.5,250.5C 340.664,240.167 334.331,229.5 328.5,218.5C 328.785,216.712 328.452,215.045 327.5,213.5C 325.501,210.062 323.501,206.728 321.5,203.5C 320.431,198.844 320.431,194.178 321.5,189.5C 322.833,189.5 324.167,189.5 325.5,189.5C 325.187,192.247 325.52,194.914 326.5,197.5C 327.086,197.291 327.586,196.957 328,196.5C 329.122,198.42 329.956,200.42 330.5,202.5C 331.5,202.5 332.5,202.5 333.5,202.5 Z"/></g>
<g><path style="opacity:1" fill="#cf3f33" d="M 152.5,225.5 C 152.551,227.57 151.885,229.403 150.5,231C 150.833,232 151.167,233 151.5,234C 150.576,235.811 149.743,235.645 149,233.5C 147.478,235.741 146.145,238.074 145,240.5C 145.155,242.811 145.155,245.144 145,247.5C 144.085,246.672 143.419,245.672 143,244.5C 142.184,245.823 141.017,246.489 139.5,246.5C 143.49,239.201 147.823,232.201 152.5,225.5 Z"/></g>
<g><path style="opacity:0.984" fill="#cf4b3e" d="M 347.5,250.5 C 349.604,250.201 351.604,250.534 353.5,251.5C 352.5,252.167 351.5,252.833 350.5,253.5C 351.806,254.912 352.64,256.579 353,258.5C 353.333,258.167 353.667,257.833 354,257.5C 355.183,260.526 356.349,263.526 357.5,266.5C 353.194,261.913 349.861,256.579 347.5,250.5 Z"/></g>
<g><path style="opacity:1" fill="#cf463c" d="M 360.5,248.5 C 365.334,255.496 369.667,262.829 373.5,270.5C 372.504,270.414 371.671,270.748 371,271.5C 369.227,267.618 367.727,263.618 366.5,259.5C 365.5,259.5 364.5,259.5 363.5,259.5C 363.769,257.571 363.269,255.905 362,254.5C 361.195,256.901 360.362,256.734 359.5,254C 360.406,252.301 360.739,250.467 360.5,248.5 Z"/></g>
<g><path style="opacity:0.988" fill="#c0372d" d="M 229.5,247.5 C 230.268,248.263 230.768,249.263 231,250.5C 232.061,264.49 232.894,278.49 233.5,292.5C 231.206,277.73 229.873,262.73 229.5,247.5 Z"/></g>
<g><path style="opacity:0.516" fill="#c34337" d="M 256.5,252.5 C 256.666,261.839 256.5,271.173 256,280.5C 255.663,285.465 254.497,290.131 252.5,294.5C 251.17,293.168 249.503,292.335 247.5,292C 246.418,290.67 245.751,289.17 245.5,287.5C 248.871,291.765 251.705,291.432 254,286.5C 254.433,274.983 255.267,263.65 256.5,252.5 Z"/></g>
<g><path style="opacity:1" fill="#d93327" d="M 240.5,226.5 C 242.646,246.65 244.312,266.983 245.5,287.5C 245.751,289.17 246.418,290.67 247.5,292C 249.503,292.335 251.17,293.168 252.5,294.5C 252.756,296.776 254.09,297.943 256.5,298C 255.748,298.671 255.414,299.504 255.5,300.5C 254.5,301.167 253.5,301.833 252.5,302.5C 243.376,304.108 237.043,300.775 233.5,292.5C 232.894,278.49 232.061,264.49 231,250.5C 230.768,249.263 230.268,248.263 229.5,247.5C 229.77,239.445 229.437,231.445 228.5,223.5C 231.004,223.828 232.838,225.162 234,227.5C 235.927,225.407 235.76,223.407 233.5,221.5C 234.662,216.877 235.662,212.21 236.5,207.5C 237.333,219.152 237.833,230.819 238,242.5C 239.163,244.285 239.83,246.285 240,248.5C 240.5,241.174 240.666,233.841 240.5,226.5 Z"/></g>
<g><path style="opacity:1" fill="#d93428" d="M 259.5,201.5 C 260.492,208.982 260.825,216.648 260.5,224.5C 266.386,224.341 266.886,225.674 262,228.5C 261.667,230.833 261.333,233.167 261,235.5C 260.586,235.043 260.086,234.709 259.5,234.5C 258.432,242.158 257.932,249.824 258,257.5C 259,258.167 260,258.833 261,259.5C 261.054,256.139 262.054,253.139 264,250.5C 264.333,251.167 264.667,251.833 265,252.5C 265.075,250.065 265.908,249.398 267.5,250.5C 266.687,260.335 266.687,270.002 267.5,279.5C 268.699,288.179 266.032,295.179 259.5,300.5C 258.167,300.5 256.833,300.5 255.5,300.5C 255.414,299.504 255.748,298.671 256.5,298C 254.09,297.943 252.756,296.776 252.5,294.5C 254.497,290.131 255.663,285.465 256,280.5C 256.5,271.173 256.666,261.839 256.5,252.5C 257.653,235.509 258.653,218.509 259.5,201.5 Z"/></g>
<g><path style="opacity:1" fill="#d93327" d="M 360.5,248.5 C 360.739,250.467 360.406,252.301 359.5,254C 360.362,256.734 361.195,256.901 362,254.5C 363.269,255.905 363.769,257.571 363.5,259.5C 364.5,259.5 365.5,259.5 366.5,259.5C 367.727,263.618 369.227,267.618 371,271.5C 371.671,270.748 372.504,270.414 373.5,270.5C 375.588,272.336 376.921,274.669 377.5,277.5C 378.193,280.639 379.36,283.639 381,286.5C 381.497,289.146 381.664,291.813 381.5,294.5C 383.942,294.119 384.609,294.786 383.5,296.5C 384.506,300.481 385.506,300.481 386.5,296.5C 389.36,298.9 390.527,301.9 390,305.5C 387.2,301.313 385.7,301.646 385.5,306.5C 382.744,306.284 380.41,305.284 378.5,303.5C 375.888,296.943 372.722,290.61 369,284.5C 368.329,283.748 367.496,283.414 366.5,283.5C 362.734,278.305 359.734,272.638 357.5,266.5C 356.349,263.526 355.183,260.526 354,257.5C 353.667,257.833 353.333,258.167 353,258.5C 352.64,256.579 351.806,254.912 350.5,253.5C 351.5,252.833 352.5,252.167 353.5,251.5C 351.604,250.534 349.604,250.201 347.5,250.5C 349.557,246.38 351.057,242.047 352,237.5C 354.315,241.638 357.148,245.305 360.5,248.5 Z"/></g>
<g><path style="opacity:1" fill="#d53f31" d="M 139.5,246.5 C 139.09,250.387 138.09,254.053 136.5,257.5C 137.675,257.281 138.675,257.614 139.5,258.5C 138.349,259.731 137.183,259.731 136,258.5C 135.517,259.448 135.351,260.448 135.5,261.5C 131.678,262.18 130.011,264.513 130.5,268.5C 129.5,268.5 128.5,268.5 127.5,268.5C 127.277,270.342 126.943,272.175 126.5,274C 127.964,281.249 129.297,281.082 130.5,273.5C 132.941,272.259 134.441,270.259 135,267.5C 136.828,265.193 138.494,265.526 140,268.5C 140.685,264.414 142.852,261.414 146.5,259.5C 138.582,275.012 129.915,290.012 120.5,304.5C 115.39,313.733 110.057,322.733 104.5,331.5C 104.739,329.533 104.406,327.699 103.5,326C 104.449,325.383 105.282,325.549 106,326.5C 106.483,325.552 106.649,324.552 106.5,323.5C 102.724,323.531 102.557,322.864 106,321.5C 108.366,322.938 108.866,322.438 107.5,320C 108.448,319.517 109.448,319.351 110.5,319.5C 110.227,317.549 110.893,316.049 112.5,315C 111.692,314.692 111.025,314.192 110.5,313.5C 111.391,312.41 112.391,312.41 113.5,313.5C 114.429,312.311 114.762,310.978 114.5,309.5C 113.5,309.5 112.5,309.5 111.5,309.5C 111.033,307.289 110.033,305.289 108.5,303.5C 106.822,306.173 104.822,308.506 102.5,310.5C 114.332,288.832 126.665,267.498 139.5,246.5 Z"/></g>
<g><path style="opacity:0.69" fill="#c75043" d="M 366.5,283.5 C 367.496,283.414 368.329,283.748 369,284.5C 372.722,290.61 375.888,296.943 378.5,303.5C 374,297.173 370,290.506 366.5,283.5 Z"/></g>
<g><path style="opacity:1" fill="#dc3026" d="M 120.5,304.5 C 117.523,305.678 114.523,305.678 111.5,304.5C 111.481,302.94 111.148,301.44 110.5,300C 111.96,297.041 113.627,294.208 115.5,291.5C 116.935,293.401 118.602,293.734 120.5,292.5C 119.96,291.252 119.293,290.085 118.5,289C 119.634,287.984 119.301,287.317 117.5,287C 118,286.5 118.5,286 119,285.5C 122.237,288.03 124.07,291.363 124.5,295.5C 123.5,295.5 122.5,295.5 121.5,295.5C 121.657,296.873 121.49,298.207 121,299.5C 120.346,298.304 119.846,298.304 119.5,299.5C 120.309,301.071 120.643,302.738 120.5,304.5 Z"/></g>
<g><path style="opacity:0.18" fill="#d47d73" d="M 255.5,300.5 C 256.833,300.5 258.167,300.5 259.5,300.5C 257.562,302.163 255.228,302.829 252.5,302.5C 253.5,301.833 254.5,301.167 255.5,300.5 Z"/></g>
<g><path style="opacity:0.992" fill="#bc4038" d="M 265.5,320.5 C 256.898,316.431 247.898,315.431 238.5,317.5C 248.139,312.831 257.139,313.831 265.5,320.5 Z"/></g>
<g><path style="opacity:0.867" fill="#c64d46" d="M 238.5,317.5 C 236.146,320.851 233.146,323.518 229.5,325.5C 231.557,321.777 234.557,319.11 238.5,317.5 Z"/></g>
<g><path style="opacity:1" fill="#db3127" d="M 265.5,320.5 C 267.262,321.262 268.262,322.596 268.5,324.5C 269.355,327.906 270.521,331.239 272,334.5C 272.499,338.152 272.665,341.818 272.5,345.5C 271.844,346.278 271.011,346.944 270,347.5C 267.703,347.3 265.703,345.967 264,343.5C 262.633,339.3 262.133,334.967 262.5,330.5C 259.376,330.868 257.043,329.702 255.5,327C 251.113,326.774 246.779,326.274 242.5,325.5C 241.41,326.391 241.41,327.391 242.5,328.5C 239.534,329.11 237.201,330.61 235.5,333C 236.288,336.076 236.788,339.242 237,342.5C 237.74,344.319 238.907,345.652 240.5,346.5C 240.5,348.167 240.5,349.833 240.5,351.5C 242.429,351.231 244.095,351.731 245.5,353C 244.5,353.333 243.5,353.667 242.5,354C 246.864,355.082 251.197,355.249 255.5,354.5C 254.624,353.749 253.624,353.249 252.5,353C 254.026,351.113 256.026,350.113 258.5,350C 260.037,348.89 260.703,347.39 260.5,345.5C 262.39,345.297 263.89,345.963 265,347.5C 265.856,349.868 266.69,352.202 267.5,354.5C 263.5,353.833 261.833,355.5 262.5,359.5C 260.473,359.338 258.473,359.505 256.5,360C 255.114,361.603 253.281,362.437 251,362.5C 245.835,361.33 240.668,359.997 235.5,358.5C 234.761,358.631 234.094,358.464 233.5,358C 224.576,347.972 223.243,337.138 229.5,325.5C 233.146,323.518 236.146,320.851 238.5,317.5C 247.898,315.431 256.898,316.431 265.5,320.5 Z M 240.5,346.5 C 236.169,336.496 239.335,330.163 250,327.5C 258.41,329.653 261.744,334.986 260,343.5C 254.603,351.483 248.103,352.483 240.5,346.5 Z"/></g>
<g><path style="opacity:1" fill="#d83529" d="M 104.5,331.5 C 102.05,336.881 99.0496,341.881 95.5,346.5C 94.4168,346.461 93.4168,346.127 92.5,345.5C 91.8333,347.833 91.1667,350.167 90.5,352.5C 89.914,352.291 89.414,351.957 89,351.5C 89.1349,353.425 89.3016,355.425 89.5,357.5C 87.2239,357.244 86.0572,355.91 86,353.5C 83.0049,355.834 81.1716,354.834 80.5,350.5C 80.8457,349.151 81.179,347.817 81.5,346.5C 87.9889,334.187 94.9889,322.187 102.5,310.5C 104.822,308.506 106.822,306.173 108.5,303.5C 110.033,305.289 111.033,307.289 111.5,309.5C 112.5,309.5 113.5,309.5 114.5,309.5C 114.762,310.978 114.429,312.311 113.5,313.5C 112.391,312.41 111.391,312.41 110.5,313.5C 111.025,314.192 111.692,314.692 112.5,315C 110.893,316.049 110.227,317.549 110.5,319.5C 109.448,319.351 108.448,319.517 107.5,320C 108.866,322.438 108.366,322.938 106,321.5C 102.557,322.864 102.724,323.531 106.5,323.5C 106.649,324.552 106.483,325.552 106,326.5C 105.282,325.549 104.449,325.383 103.5,326C 104.406,327.699 104.739,329.533 104.5,331.5 Z"/></g>
<g><path style="opacity:0.988" fill="#d25c4f" d="M 268.5,324.5 C 269.885,325.574 271.051,326.907 272,328.5C 272.676,332.202 273.509,335.869 274.5,339.5C 274.122,341.717 273.455,343.717 272.5,345.5C 272.665,341.818 272.499,338.152 272,334.5C 270.521,331.239 269.355,327.906 268.5,324.5 Z"/></g>
<g><path style="opacity:1" fill="#cf4b40" d="M 405.5,325.5 C 408.669,329.833 411.336,334.5 413.5,339.5C 412.761,339.631 412.094,339.464 411.5,339C 411.011,336.51 409.677,334.676 407.5,333.5C 406.205,330.988 405.539,328.321 405.5,325.5 Z"/></g>
<g><path style="opacity:0.998" fill="#d65346" d="M 95.5,346.5 C 94.2781,350.612 92.2781,354.279 89.5,357.5C 89.3016,355.425 89.1349,353.425 89,351.5C 89.414,351.957 89.914,352.291 90.5,352.5C 91.1667,350.167 91.8333,347.833 92.5,345.5C 93.4168,346.127 94.4168,346.461 95.5,346.5 Z"/></g>
<g><path style="opacity:1" fill="#d14238" d="M 272.5,345.5 C 268.324,359.938 258.657,365.772 243.5,363C 240.145,362.512 237.478,361.012 235.5,358.5C 240.668,359.997 245.835,361.33 251,362.5C 253.281,362.437 255.114,361.603 256.5,360C 258.473,359.505 260.473,359.338 262.5,359.5C 261.833,355.5 263.5,353.833 267.5,354.5C 266.69,352.202 265.856,349.868 265,347.5C 263.89,345.963 262.39,345.297 260.5,345.5C 260.703,347.39 260.037,348.89 258.5,350C 256.026,350.113 254.026,351.113 252.5,353C 253.624,353.249 254.624,353.749 255.5,354.5C 251.197,355.249 246.864,355.082 242.5,354C 243.5,353.667 244.5,353.333 245.5,353C 244.095,351.731 242.429,351.231 240.5,351.5C 240.5,349.833 240.5,348.167 240.5,346.5C 238.907,345.652 237.74,344.319 237,342.5C 236.788,339.242 236.288,336.076 235.5,333C 237.201,330.61 239.534,329.11 242.5,328.5C 241.41,327.391 241.41,326.391 242.5,325.5C 246.779,326.274 251.113,326.774 255.5,327C 257.043,329.702 259.376,330.868 262.5,330.5C 262.133,334.967 262.633,339.3 264,343.5C 265.703,345.967 267.703,347.3 270,347.5C 271.011,346.944 271.844,346.278 272.5,345.5 Z M 240.5,346.5 C 248.103,352.483 254.603,351.483 260,343.5C 261.744,334.986 258.41,329.653 250,327.5C 239.335,330.163 236.169,336.496 240.5,346.5 Z"/></g>
<g><path style="opacity:1" fill="#d7372b" d="M 377.5,277.5 C 387.011,293.325 396.344,309.325 405.5,325.5C 405.539,328.321 406.205,330.988 407.5,333.5C 409.677,334.676 411.011,336.51 411.5,339C 412.094,339.464 412.761,339.631 413.5,339.5C 418.879,347.906 424.046,356.572 429,365.5C 429.495,367.473 429.662,369.473 429.5,371.5C 426.758,370.062 424.424,368.062 422.5,365.5C 420.742,362.066 419.075,358.566 417.5,355C 418.99,352.8 418.657,350.966 416.5,349.5C 414.728,350.27 413.728,351.603 413.5,353.5C 414.723,356.392 416.057,359.226 417.5,362C 416.28,364.17 416.28,366.337 417.5,368.5C 416.833,368.167 416.167,367.833 415.5,367.5C 402.425,346.625 390.092,325.292 378.5,303.5C 380.41,305.284 382.744,306.284 385.5,306.5C 385.7,301.646 387.2,301.313 390,305.5C 390.527,301.9 389.36,298.9 386.5,296.5C 385.506,300.481 384.506,300.481 383.5,296.5C 384.609,294.786 383.942,294.119 381.5,294.5C 381.664,291.813 381.497,289.146 381,286.5C 379.36,283.639 378.193,280.639 377.5,277.5 Z"/></g>
<g><path style="opacity:1" fill="#d33f33" d="M 81.5,346.5 C 81.179,347.817 80.8457,349.151 80.5,350.5C 81.1716,354.834 83.0049,355.834 86,353.5C 86.0572,355.91 87.2239,357.244 89.5,357.5C 88.329,361.162 86.4957,364.496 84,367.5C 82.8512,370.393 82.3512,373.393 82.5,376.5C 81.2749,375.848 80.6083,374.681 80.5,373C 81.965,369.719 82.6317,366.219 82.5,362.5C 83.8333,362.5 85.1667,362.5 86.5,362.5C 86.5,360.833 86.5,359.167 86.5,357.5C 84.8333,357.5 83.1667,357.5 81.5,357.5C 81.6882,359.103 81.1882,360.437 80,361.5C 78.8831,361.335 77.7164,361.002 76.5,360.5C 75.5197,361.981 74.353,363.315 73,364.5C 71.1064,368.568 70.2731,372.902 70.5,377.5C 74.0681,377.759 75.4015,379.759 74.5,383.5C 80.2611,383.709 80.5945,384.542 75.5,386C 77.2703,389.491 79.937,391.658 83.5,392.5C 84.1667,393.5 84.8333,394.5 85.5,395.5C 71.9399,390.058 66.7732,380.058 70,365.5C 73.5678,358.9 77.4012,352.566 81.5,346.5 Z"/></g>
<g><path style="opacity:0.502" fill="#d1635e" d="M 415.5,367.5 C 416.167,367.833 416.833,368.167 417.5,368.5C 418.069,372.329 417.402,375.663 415.5,378.5C 416.728,374.85 416.728,371.184 415.5,367.5 Z"/></g>
<g><path style="opacity:0.678" fill="#cf6d5d" d="M 411.5,382.5 C 397.028,384.161 382.362,385.161 367.5,385.5C 275.665,385.833 183.998,385.499 92.5,384.5C 173.615,383.909 253.782,383.909 333,384.5C 359.137,383.82 385.303,383.154 411.5,382.5 Z"/></g>
<g><path style="opacity:0.969" fill="#d6635a" d="M 429.5,375.5 C 429.264,381.57 426.93,386.57 422.5,390.5C 422.338,388.473 422.505,386.473 423,384.5C 424.011,383.663 425.178,383.33 426.5,383.5C 426.733,380.458 427.733,377.792 429.5,375.5 Z"/></g>
<g><path style="opacity:0.998" fill="#d0362e" d="M 82.5,376.5 C 84.9342,380.265 88.2676,382.932 92.5,384.5C 183.998,385.499 275.665,385.833 367.5,385.5C 367.5,386.167 367.167,386.5 366.5,386.5C 274.499,386.667 182.499,386.5 90.5,386C 88.8516,384.323 87.1849,384.156 85.5,385.5C 84.325,385.719 83.325,385.386 82.5,384.5C 82.7824,382.013 82.7824,379.347 82.5,376.5 Z"/></g>
<g><path style="opacity:1" fill="#dc3028" d="M 366.5,386.5 C 366.611,387.117 366.944,387.617 367.5,388C 365.153,388.436 362.819,388.936 360.5,389.5C 358.24,389.397 355.906,389.064 353.5,388.5C 336.515,389.139 319.515,389.806 302.5,390.5C 303.242,391.287 304.075,391.953 305,392.5C 309.333,392.167 313.667,391.833 318,391.5C 318.5,392 319,392.5 319.5,393C 314.5,393.333 309.5,393.667 304.5,394C 303.263,394.232 302.263,394.732 301.5,395.5C 280.828,394.916 260.161,394.083 239.5,393C 242.426,392.782 245.26,392.282 248,391.5C 255.457,392.215 262.457,392.548 269,392.5C 270.509,391.91 272.009,391.244 273.5,390.5C 219.171,389.5 164.837,389.167 110.5,389.5C 105.238,389.195 100.072,389.529 95,390.5C 91.3626,389.817 87.8626,388.65 84.5,387C 85.056,386.617 85.3893,386.117 85.5,385.5C 87.1849,384.156 88.8516,384.323 90.5,386C 182.499,386.5 274.499,386.667 366.5,386.5 Z"/></g>
<g><path style="opacity:1" fill="#da3126" d="M 429.5,371.5 C 429.5,372.833 429.5,374.167 429.5,375.5C 427.733,377.792 426.733,380.458 426.5,383.5C 425.178,383.33 424.011,383.663 423,384.5C 422.505,386.473 422.338,388.473 422.5,390.5C 421.305,390.322 420.138,389.989 419,389.5C 417.174,390.01 417.007,390.844 418.5,392C 415.19,393.582 411.857,394.748 408.5,395.5C 372.833,395.5 337.167,395.5 301.5,395.5C 302.263,394.732 303.263,394.232 304.5,394C 309.5,393.667 314.5,393.333 319.5,393C 319,392.5 318.5,392 318,391.5C 313.667,391.833 309.333,392.167 305,392.5C 304.075,391.953 303.242,391.287 302.5,390.5C 319.515,389.806 336.515,389.139 353.5,388.5C 355.906,389.064 358.24,389.397 360.5,389.5C 362.819,388.936 365.153,388.436 367.5,388C 366.944,387.617 366.611,387.117 366.5,386.5C 367.167,386.5 367.5,386.167 367.5,385.5C 382.362,385.161 397.028,384.161 411.5,382.5C 412.833,381.167 414.167,379.833 415.5,378.5C 417.402,375.663 418.069,372.329 417.5,368.5C 416.28,366.337 416.28,364.17 417.5,362C 416.057,359.226 414.723,356.392 413.5,353.5C 413.728,351.603 414.728,350.27 416.5,349.5C 418.657,350.966 418.99,352.8 417.5,355C 419.075,358.566 420.742,362.066 422.5,365.5C 424.424,368.062 426.758,370.062 429.5,371.5 Z"/></g>
<g><path style="opacity:1" fill="#da3026" d="M 82.5,376.5 C 82.7824,379.347 82.7824,382.013 82.5,384.5C 83.325,385.386 84.325,385.719 85.5,385.5C 85.3893,386.117 85.056,386.617 84.5,387C 87.8626,388.65 91.3626,389.817 95,390.5C 100.072,389.529 105.238,389.195 110.5,389.5C 144.39,391.17 178.557,392.17 213,392.5C 216,392.167 219,391.833 222,391.5C 222.5,392 223,392.5 223.5,393C 178.478,393.213 133.644,393.713 89,394.5C 87.0614,394.046 85.228,393.379 83.5,392.5C 79.937,391.658 77.2703,389.491 75.5,386C 80.5945,384.542 80.2611,383.709 74.5,383.5C 75.4015,379.759 74.0681,377.759 70.5,377.5C 70.2731,372.902 71.1064,368.568 73,364.5C 74.353,363.315 75.5197,361.981 76.5,360.5C 77.7164,361.002 78.8831,361.335 80,361.5C 81.1882,360.437 81.6882,359.103 81.5,357.5C 83.1667,357.5 84.8333,357.5 86.5,357.5C 86.5,359.167 86.5,360.833 86.5,362.5C 85.1667,362.5 83.8333,362.5 82.5,362.5C 82.6317,366.219 81.965,369.719 80.5,373C 80.6083,374.681 81.2749,375.848 82.5,376.5 Z"/></g>
<g><path style="opacity:1" fill="#d73024" d="M 110.5,389.5 C 164.837,389.167 219.171,389.5 273.5,390.5C 272.009,391.244 270.509,391.91 269,392.5C 262.457,392.548 255.457,392.215 248,391.5C 245.26,392.282 242.426,392.782 239.5,393C 260.161,394.083 280.828,394.916 301.5,395.5C 337.167,395.5 372.833,395.5 408.5,395.5C 301.313,396.826 193.979,396.826 86.5,395.5C 86.1667,395.5 85.8333,395.5 85.5,395.5C 84.8333,394.5 84.1667,393.5 83.5,392.5C 85.228,393.379 87.0614,394.046 89,394.5C 133.644,393.713 178.478,393.213 223.5,393C 223,392.5 222.5,392 222,391.5C 219,391.833 216,392.167 213,392.5C 178.557,392.17 144.39,391.17 110.5,389.5 Z"/></g>
<g><path style="opacity:0.301" fill="#cf534d" d="M 422.5,390.5 C 419.124,393.684 415.124,395.85 410.5,397C 303.5,397.667 196.5,397.667 89.5,397C 88.2625,396.768 87.2625,396.268 86.5,395.5C 193.979,396.826 301.313,396.826 408.5,395.5C 411.857,394.748 415.19,393.582 418.5,392C 417.007,390.844 417.174,390.01 419,389.5C 420.138,389.989 421.305,390.322 422.5,390.5 Z"/></g>
</svg>
