<?xml version="1.0" encoding="UTF-8"?>
<!DOCTYPE svg PUBLIC "-//W3C//DTD SVG 1.1//EN" "http://www.w3.org/Graphics/SVG/1.1/DTD/svg11.dtd">
<svg xmlns="http://www.w3.org/2000/svg" version="1.1" width="500px" height="500px" style="shape-rendering:geometricPrecision; text-rendering:geometricPrecision; image-rendering:optimizeQuality; fill-rule:evenodd; clip-rule:evenodd" xmlns:xlink="http://www.w3.org/1999/xlink">
<g><path style="opacity:0.742" fill="#8b1b1a" d="M 311.5,113.5 C 309.601,111.537 307.267,110.037 304.5,109C 267.833,108.333 231.167,108.333 194.5,109C 190.43,109.899 188.43,112.399 188.5,116.5C 187.5,116.5 186.5,116.5 185.5,116.5C 188.027,108.503 193.527,105.17 202,106.5C 235.417,106.82 268.917,106.986 302.5,107C 305.177,107.249 307.51,108.249 309.5,110C 310.823,110.816 311.489,111.983 311.5,113.5 Z"/></g>
<g><path style="opacity:1" fill="#e1151c" d="M 311.5,113.5 C 311.658,116.361 310.992,119.028 309.5,121.5C 309.833,122.167 310.167,122.833 310.5,123.5C 311.719,122.737 312.719,121.737 313.5,120.5C 314.522,120.855 315.189,121.522 315.5,122.5C 315.52,124.143 314.853,125.476 313.5,126.5C 314.025,127.192 314.692,127.692 315.5,128C 314.483,129.049 314.316,130.216 315,131.5C 317.406,128.848 319.239,129.348 320.5,133C 318.559,133.743 316.726,133.576 315,132.5C 314.781,133.938 314.281,135.271 313.5,136.5C 312.817,136.137 312.15,135.804 311.5,135.5C 310.917,129.661 307.917,125.661 302.5,123.5C 302.5,123.167 302.5,122.833 302.5,122.5C 302.586,121.504 302.252,120.671 301.5,120C 266.664,119.169 231.998,119.336 197.5,120.5C 196.5,120.5 195.5,120.5 194.5,120.5C 194.66,122.199 194.494,123.866 194,125.5C 188.921,129.388 185.755,134.388 184.5,140.5C 183.25,140.577 182.417,141.244 182,142.5C 181.586,142.043 181.086,141.709 180.5,141.5C 179.966,144.692 178.299,147.026 175.5,148.5C 173.261,148.426 172.261,147.259 172.5,145C 172.354,142.812 173.354,141.479 175.5,141C 174.748,140.329 174.414,139.496 174.5,138.5C 177.069,134.913 178.736,130.913 179.5,126.5C 183.397,124.483 185.397,121.149 185.5,116.5C 186.5,116.5 187.5,116.5 188.5,116.5C 188.43,112.399 190.43,109.899 194.5,109C 231.167,108.333 267.833,108.333 304.5,109C 307.267,110.037 309.601,111.537 311.5,113.5 Z"/></g>
<g><path style="opacity:0.237" fill="#5f080f" d="M 302.5,122.5 C 301.711,122.217 301.044,121.717 300.5,121C 266.095,120.174 231.762,120.341 197.5,121.5C 197.5,121.167 197.5,120.833 197.5,120.5C 231.998,119.336 266.664,119.169 301.5,120C 302.252,120.671 302.586,121.504 302.5,122.5 Z"/></g>
<g><path style="opacity:1" fill="#bb191d" d="M 311.5,113.5 C 316.234,119.286 320.234,125.619 323.5,132.5C 320.045,129.721 317.379,126.388 315.5,122.5C 315.189,121.522 314.522,120.855 313.5,120.5C 312.719,121.737 311.719,122.737 310.5,123.5C 310.167,122.833 309.833,122.167 309.5,121.5C 310.992,119.028 311.658,116.361 311.5,113.5 Z"/></g>
<g><path style="opacity:0.996" fill="#a2171d" d="M 185.5,116.5 C 185.397,121.149 183.397,124.483 179.5,126.5C 180.498,122.495 182.498,119.161 185.5,116.5 Z"/></g>
<g><path style="opacity:1" fill="#bc1f21" d="M 302.5,123.5 C 307.917,125.661 310.917,129.661 311.5,135.5C 311.5,136.167 311.5,136.833 311.5,137.5C 308.015,133.21 305.015,128.543 302.5,123.5 Z"/></g>
<g><path style="opacity:0.175" fill="#600f11" d="M 383.5,131.5 C 373.828,131.334 364.161,131.5 354.5,132C 353.627,133.045 352.627,133.878 351.5,134.5C 351.511,132.983 352.177,131.816 353.5,131C 363.675,130.175 373.675,130.342 383.5,131.5 Z"/></g>
<g><path style="opacity:0.897" fill="#b71f23" d="M 383.5,131.5 C 384.947,132.622 385.947,134.122 386.5,136C 385.522,142.41 385.189,148.91 385.5,155.5C 384.672,149.013 384.172,142.346 384,135.5C 383.308,134.975 382.808,134.308 382.5,133.5C 373.518,132.335 364.518,132.168 355.5,133C 355,133.5 354.5,134 354,134.5C 352.906,141.574 352.073,148.574 351.5,155.5C 351.5,148.5 351.5,141.5 351.5,134.5C 352.627,133.878 353.627,133.045 354.5,132C 364.161,131.5 373.828,131.334 383.5,131.5 Z"/></g>
<g><path style="opacity:1" fill="#b41a24" d="M 197.5,120.5 C 197.5,120.833 197.5,121.167 197.5,121.5C 193.07,129.369 188.403,137.036 183.5,144.5C 183.433,143.041 183.766,141.708 184.5,140.5C 185.755,134.388 188.921,129.388 194,125.5C 194.494,123.866 194.66,122.199 194.5,120.5C 195.5,120.5 196.5,120.5 197.5,120.5 Z"/></g>
<g><path style="opacity:0.929" fill="#af1a21" d="M 179.5,126.5 C 178.736,130.913 177.069,134.913 174.5,138.5C 173.24,140.367 171.573,141.7 169.5,142.5C 172.336,136.822 175.669,131.489 179.5,126.5 Z"/></g>
<g><path style="opacity:0.039" fill="#290400" d="M 113.5,134.5 C 113.5,141.833 113.5,149.167 113.5,156.5C 109.833,156.5 106.167,156.5 102.5,156.5C 105.625,155.521 108.958,155.187 112.5,155.5C 112.175,148.313 112.509,141.313 113.5,134.5 Z"/></g>
<g><path style="opacity:0.608" fill="#7d1a1b" d="M 385.5,155.5 C 389.182,155.335 392.848,155.501 396.5,156C 398.063,156.759 399.063,157.926 399.5,159.5C 394.618,158.358 389.951,157.025 385.5,155.5 Z"/></g>
<g><path style="opacity:1" fill="#a71c20" d="M 147.5,155.5 C 146.508,148.352 146.175,141.019 146.5,133.5C 136.868,132.412 127.201,132.245 117.5,133C 116.667,133.833 115.833,134.667 115,135.5C 114.5,143.159 114.334,150.826 114.5,158.5C 110.098,158.228 105.765,158.561 101.5,159.5C 100.833,163.313 100.166,166.979 99.5,170.5C 99.7399,167.421 99.4066,164.421 98.5,161.5C 98.9943,159.083 100.328,157.416 102.5,156.5C 106.167,156.5 109.833,156.5 113.5,156.5C 113.5,149.167 113.5,141.833 113.5,134.5C 113.574,132.589 114.574,131.422 116.5,131C 126.167,130.333 135.833,130.333 145.5,131C 146,131.5 146.5,132 147,132.5C 147.5,140.159 147.666,147.826 147.5,155.5 Z"/></g>
<g><path style="opacity:0.999" fill="#de151d" d="M 315.5,122.5 C 317.379,126.388 320.045,129.721 323.5,132.5C 323.592,136.684 325.259,140.017 328.5,142.5C 329.01,152.925 328.676,159.258 327.5,161.5C 326.167,161.5 324.833,161.5 323.5,161.5C 324.577,158.474 324.577,155.474 323.5,152.5C 318.474,149.99 313.141,148.323 307.5,147.5C 307.5,148.833 307.5,150.167 307.5,151.5C 308.873,151.343 310.207,151.51 311.5,152C 309.516,153.81 307.349,153.976 305,152.5C 303.527,152.903 302.194,153.57 301,154.5C 300,154.167 299,153.833 298,153.5C 296.846,155.957 295.512,155.957 294,153.5C 275.132,153.188 256.132,153.521 237,154.5C 234.371,154.072 232.038,153.072 230,151.5C 229.195,153.901 228.362,153.734 227.5,151C 218.483,148.668 209.65,149.168 201,152.5C 198.258,151.155 195.591,150.155 193,149.5C 190.274,153.465 186.607,154.465 182,152.5C 179.681,153.871 177.181,154.538 174.5,154.5C 174.604,158.78 174.937,163.114 175.5,167.5C 177.644,169.21 179.978,170.543 182.5,171.5C 188.037,169.622 193.704,169.122 199.5,170C 200.362,172.734 201.195,172.901 202,170.5C 202.667,173.167 203.333,173.167 204,170.5C 208.162,171.984 212.496,172.651 217,172.5C 224.837,172.526 231.837,172.193 238,171.5C 240.465,173.425 243.132,173.425 246,171.5C 256.003,172.835 265.337,172.835 274,171.5C 275.667,172.167 277.333,172.833 279,173.5C 282.333,172.167 285.667,172.167 289,173.5C 290,172.833 291,172.167 292,171.5C 298.944,172.062 307.278,172.062 317,171.5C 321.043,174.471 324.71,174.138 328,170.5C 328.383,171.056 328.883,171.389 329.5,171.5C 330.167,171.5 330.833,171.5 331.5,171.5C 351.329,172.662 371.329,172.829 391.5,172C 392.108,170.769 392.441,169.436 392.5,168C 392.392,166.319 391.725,165.152 390.5,164.5C 373.675,163.503 356.675,163.17 339.5,163.5C 339.5,161.5 339.5,159.5 339.5,157.5C 343.971,158.089 347.971,157.423 351.5,155.5C 352.073,148.574 352.906,141.574 354,134.5C 354.5,134 355,133.5 355.5,133C 364.518,132.168 373.518,132.335 382.5,133.5C 382.808,134.308 383.308,134.975 384,135.5C 384.172,142.346 384.672,149.013 385.5,155.5C 389.951,157.025 394.618,158.358 399.5,159.5C 400.657,163.117 400.657,166.784 399.5,170.5C 404.681,171.315 410.014,171.982 415.5,172.5C 415.5,173.833 415.5,175.167 415.5,176.5C 416.5,176.5 417.5,176.5 418.5,176.5C 418.5,182.167 418.5,187.833 418.5,193.5C 415.36,196.112 411.693,197.778 407.5,198.5C 407.5,197.5 407.5,196.5 407.5,195.5C 405.571,195.231 403.905,195.731 402.5,197C 403.167,197.333 403.833,197.667 404.5,198C 403.897,199.825 403.23,201.659 402.5,203.5C 401.818,202.757 401.151,202.091 400.5,201.5C 400.912,199.027 399.912,197.694 397.5,197.5C 298.5,197.5 199.5,197.5 100.5,197.5C 199.999,196.667 299.666,196.167 399.5,196C 398.672,195.085 397.672,194.419 396.5,194C 397.056,193.617 397.389,193.117 397.5,192.5C 401.846,192.666 406.179,192.499 410.5,192C 411,191.5 411.5,191 412,190.5C 412.499,186.848 412.665,183.182 412.5,179.5C 411.5,179.5 410.5,179.5 409.5,179.5C 302.264,178.168 194.931,178.168 87.5,179.5C 86.8386,180.718 86.1719,182.051 85.5,183.5C 80.5874,181.182 80.2541,178.349 84.5,175C 89.2389,173.949 93.9056,173.115 98.5,172.5C 99.3382,172.158 99.6716,171.492 99.5,170.5C 100.166,166.979 100.833,163.313 101.5,159.5C 105.765,158.561 110.098,158.228 114.5,158.5C 114.334,150.826 114.5,143.159 115,135.5C 115.833,134.667 116.667,133.833 117.5,133C 127.201,132.245 136.868,132.412 146.5,133.5C 146.175,141.019 146.508,148.352 147.5,155.5C 151.846,155.334 156.179,155.501 160.5,156C 161.435,158.381 161.768,160.881 161.5,163.5C 143.91,164.486 126.243,164.819 108.5,164.5C 107.532,166.607 107.198,168.941 107.5,171.5C 127.674,171.83 147.674,171.497 167.5,170.5C 168.217,161.297 168.884,151.963 169.5,142.5C 171.573,141.7 173.24,140.367 174.5,138.5C 174.414,139.496 174.748,140.329 175.5,141C 173.354,141.479 172.354,142.812 172.5,145C 172.261,147.259 173.261,148.426 175.5,148.5C 178.299,147.026 179.966,144.692 180.5,141.5C 181.086,141.709 181.586,142.043 182,142.5C 182.417,141.244 183.25,140.577 184.5,140.5C 183.766,141.708 183.433,143.041 183.5,144.5C 182.957,144.56 182.624,144.893 182.5,145.5C 226.665,146.831 270.665,146.831 314.5,145.5C 315.338,145.158 315.672,144.492 315.5,143.5C 315.316,140.663 313.982,138.663 311.5,137.5C 311.5,136.833 311.5,136.167 311.5,135.5C 312.15,135.804 312.817,136.137 313.5,136.5C 314.281,135.271 314.781,133.938 315,132.5C 316.726,133.576 318.559,133.743 320.5,133C 319.239,129.348 317.406,128.848 315,131.5C 314.316,130.216 314.483,129.049 315.5,128C 314.692,127.692 314.025,127.192 313.5,126.5C 314.853,125.476 315.52,124.143 315.5,122.5 Z"/></g>
<g><path style="opacity:0.124" fill="#620008" d="M 338.5,156.5 C 338.5,159.167 338.5,161.833 338.5,164.5C 355.833,164.5 373.167,164.5 390.5,164.5C 390.5,164.833 390.5,165.167 390.5,165.5C 372.833,165.5 355.167,165.5 337.5,165.5C 337.19,162.287 337.523,159.287 338.5,156.5 Z"/></g>
<g><path style="opacity:0.103" fill="#600007" d="M 161.5,163.5 C 144.198,165.486 126.532,166.153 108.5,165.5C 108.5,165.167 108.5,164.833 108.5,164.5C 126.243,164.819 143.91,164.486 161.5,163.5 Z"/></g>
<g><path style="opacity:0.808" fill="#aa1c29" d="M 351.5,155.5 C 347.971,157.423 343.971,158.089 339.5,157.5C 339.5,159.5 339.5,161.5 339.5,163.5C 356.675,163.17 373.675,163.503 390.5,164.5C 373.167,164.5 355.833,164.5 338.5,164.5C 338.5,161.833 338.5,159.167 338.5,156.5C 342.634,155.515 346.968,155.182 351.5,155.5 Z"/></g>
<g><path style="opacity:1" fill="#d6151b" d="M 328.5,142.5 C 328.833,142.5 329.167,142.5 329.5,142.5C 329.5,152.167 329.5,161.833 329.5,171.5C 328.883,171.389 328.383,171.056 328,170.5C 324.71,174.138 321.043,174.471 317,171.5C 307.278,172.062 298.944,172.062 292,171.5C 291,172.167 290,172.833 289,173.5C 285.667,172.167 282.333,172.167 279,173.5C 277.333,172.833 275.667,172.167 274,171.5C 265.337,172.835 256.003,172.835 246,171.5C 243.132,173.425 240.465,173.425 238,171.5C 231.837,172.193 224.837,172.526 217,172.5C 212.496,172.651 208.162,171.984 204,170.5C 203.333,173.167 202.667,173.167 202,170.5C 201.195,172.901 200.362,172.734 199.5,170C 193.704,169.122 188.037,169.622 182.5,171.5C 179.978,170.543 177.644,169.21 175.5,167.5C 174.937,163.114 174.604,158.78 174.5,154.5C 177.181,154.538 179.681,153.871 182,152.5C 186.607,154.465 190.274,153.465 193,149.5C 195.591,150.155 198.258,151.155 201,152.5C 209.65,149.168 218.483,148.668 227.5,151C 228.362,153.734 229.195,153.901 230,151.5C 232.038,153.072 234.371,154.072 237,154.5C 256.132,153.521 275.132,153.188 294,153.5C 295.512,155.957 296.846,155.957 298,153.5C 299,153.833 300,154.167 301,154.5C 302.194,153.57 303.527,152.903 305,152.5C 307.349,153.976 309.516,153.81 311.5,152C 310.207,151.51 308.873,151.343 307.5,151.5C 307.5,150.167 307.5,148.833 307.5,147.5C 313.141,148.323 318.474,149.99 323.5,152.5C 324.577,155.474 324.577,158.474 323.5,161.5C 324.833,161.5 326.167,161.5 327.5,161.5C 328.676,159.258 329.01,152.925 328.5,142.5 Z"/></g>
<g><path style="opacity:0.863" fill="#96181e" d="M 329.5,142.5 C 330.222,142.918 330.722,143.584 331,144.5C 331.5,153.16 331.666,161.827 331.5,170.5C 351.167,170.5 370.833,170.5 390.5,170.5C 371.007,171.497 351.34,171.83 331.5,171.5C 330.833,171.5 330.167,171.5 329.5,171.5C 329.5,161.833 329.5,152.167 329.5,142.5 Z"/></g>
<g><path style="opacity:0.411" fill="#751c1b" d="M 183.5,144.5 C 227.013,144.249 270.68,144.583 314.5,145.5C 270.665,146.831 226.665,146.831 182.5,145.5C 182.624,144.893 182.957,144.56 183.5,144.5 Z"/></g>
<g><path style="opacity:0.216" fill="#660204" d="M 169.5,142.5 C 168.884,151.963 168.217,161.297 167.5,170.5C 167.334,161.494 167.5,152.494 168,143.5C 168.383,142.944 168.883,142.611 169.5,142.5 Z"/></g>
<g><path style="opacity:0.482" fill="#8d171a" d="M 311.5,137.5 C 313.982,138.663 315.316,140.663 315.5,143.5C 313.571,141.94 312.238,139.94 311.5,137.5 Z"/></g>
<g><path style="opacity:0.914" fill="#a41b20" d="M 323.5,132.5 C 326,135.494 328,138.827 329.5,142.5C 329.167,142.5 328.833,142.5 328.5,142.5C 325.259,140.017 323.592,136.684 323.5,132.5 Z"/></g>
<g><path style="opacity:0.188" fill="#891d23" d="M 108.5,164.5 C 108.5,164.833 108.5,165.167 108.5,165.5C 108.5,167.167 108.5,168.833 108.5,170.5C 128.167,170.5 147.833,170.5 167.5,170.5C 147.674,171.497 127.674,171.83 107.5,171.5C 107.198,168.941 107.532,166.607 108.5,164.5 Z"/></g>
<g><path style="opacity:0.251" fill="#781317" d="M 415.5,172.5 C 410.014,171.982 404.681,171.315 399.5,170.5C 400.817,170.179 402.151,169.846 403.5,169.5C 407.809,169.855 411.809,170.855 415.5,172.5 Z"/></g>
<g><path style="opacity:0.98" fill="#a31921" d="M 99.5,170.5 C 99.6716,171.492 99.3382,172.158 98.5,172.5C 94.1539,172.334 89.8206,172.501 85.5,173C 83.6769,173.997 82.0103,175.164 80.5,176.5C 81.3589,173.548 83.3589,171.715 86.5,171C 90.8206,170.501 95.1539,170.334 99.5,170.5 Z"/></g>
<g><path style="opacity:0.919" fill="#ce252e" d="M 390.5,164.5 C 391.725,165.152 392.392,166.319 392.5,168C 392.441,169.436 392.108,170.769 391.5,172C 371.329,172.829 351.329,172.662 331.5,171.5C 351.34,171.83 371.007,171.497 390.5,170.5C 390.5,168.833 390.5,167.167 390.5,165.5C 390.5,165.167 390.5,164.833 390.5,164.5 Z"/></g>
<g><path style="opacity:0.674" fill="#9c1a23" d="M 409.5,179.5 C 409.5,179.833 409.5,180.167 409.5,180.5C 302.833,180.5 196.167,180.5 89.5,180.5C 88.5233,183.287 88.19,186.287 88.5,189.5C 87.5206,186.375 87.1872,183.042 87.5,179.5C 194.931,178.168 302.264,178.168 409.5,179.5 Z"/></g>
<g><path style="opacity:0.62" fill="#a81f20" d="M 415.5,172.5 C 416.794,173.29 417.961,174.29 419,175.5C 419.819,181.681 419.653,187.681 418.5,193.5C 418.5,187.833 418.5,182.167 418.5,176.5C 417.5,176.5 416.5,176.5 415.5,176.5C 415.5,175.167 415.5,173.833 415.5,172.5 Z"/></g>
<g><path style="opacity:1" fill="#cf1d22" d="M 98.5,172.5 C 93.9056,173.115 89.2389,173.949 84.5,175C 80.2541,178.349 80.5874,181.182 85.5,183.5C 86.1719,182.051 86.8386,180.718 87.5,179.5C 87.1872,183.042 87.5206,186.375 88.5,189.5C 103.991,190.496 119.658,190.83 135.5,190.5C 139.371,190.185 143.038,190.518 146.5,191.5C 130.502,192.773 114.502,192.773 98.5,191.5C 94.0703,191.627 89.737,192.294 85.5,193.5C 85.3241,191.328 85.1575,188.995 85,186.5C 83.9887,185.663 82.8221,185.33 81.5,185.5C 80.6462,191.895 83.3129,195.561 89.5,196.5C 91.6934,196.674 93.5267,196.007 95,194.5C 96.6084,196.767 95.775,197.767 92.5,197.5C 92.5,253.167 92.5,308.833 92.5,364.5C 92.815,368.371 92.4816,372.038 91.5,375.5C 91.5,374.5 91.5,373.5 91.5,372.5C 91.5,314.5 91.5,256.5 91.5,198.5C 90.1667,198.5 88.8333,198.5 87.5,198.5C 86.209,198.737 85.209,198.404 84.5,197.5C 84.0269,196.094 83.0269,195.427 81.5,195.5C 81.5,195.167 81.5,194.833 81.5,194.5C 80.5872,188.559 80.2539,182.559 80.5,176.5C 82.0103,175.164 83.6769,173.997 85.5,173C 89.8206,172.501 94.1539,172.334 98.5,172.5 Z"/></g>
<g><path style="opacity:0.655" fill="#a21a1c" d="M 80.5,176.5 C 80.2539,182.559 80.5872,188.559 81.5,194.5C 80.8826,194.389 80.3826,194.056 80,193.5C 79.1816,187.651 79.3483,181.985 80.5,176.5 Z"/></g>
<g><path style="opacity:0.216" fill="#7f1015" d="M 89.5,180.5 C 89.5,183.5 89.5,186.5 89.5,189.5C 104.833,189.5 120.167,189.5 135.5,189.5C 135.5,189.833 135.5,190.167 135.5,190.5C 119.658,190.83 103.991,190.496 88.5,189.5C 88.19,186.287 88.5233,183.287 89.5,180.5 Z"/></g>
<g><path style="opacity:0.906" fill="#851115" d="M 135.5,190.5 C 135.5,190.167 135.5,189.833 135.5,189.5C 226.5,189.5 317.5,189.5 408.5,189.5C 328.002,190.499 247.335,190.833 166.5,190.5C 159.826,190.713 153.159,191.046 146.5,191.5C 143.038,190.518 139.371,190.185 135.5,190.5 Z"/></g>
<g><path style="opacity:0.92" fill="#bd2c2f" d="M 409.5,180.5 C 410.82,183.899 410.82,187.399 409.5,191C 328.501,191.5 247.501,191.667 166.5,191.5C 166.5,191.167 166.5,190.833 166.5,190.5C 247.335,190.833 328.002,190.499 408.5,189.5C 409.477,186.713 409.81,183.713 409.5,180.5 Z"/></g>
<g><path style="opacity:1" fill="#d81f24" d="M 409.5,180.5 C 409.5,180.167 409.5,179.833 409.5,179.5C 410.5,179.5 411.5,179.5 412.5,179.5C 412.665,183.182 412.499,186.848 412,190.5C 411.5,191 411,191.5 410.5,192C 406.179,192.499 401.846,192.666 397.5,192.5C 320.332,192.833 243.332,192.499 166.5,191.5C 247.501,191.667 328.501,191.5 409.5,191C 410.82,187.399 410.82,183.899 409.5,180.5 Z"/></g>
<g><path style="opacity:0.275" fill="#671415" d="M 81.5,195.5 C 83.0269,195.427 84.0269,196.094 84.5,197.5C 82.9731,197.573 81.9731,196.906 81.5,195.5 Z"/></g>
<g><path style="opacity:0.459" fill="#5b0c12" d="M 418.5,193.5 C 416.485,197.514 413.152,199.514 408.5,199.5C 408.5,257.833 408.5,316.167 408.5,374.5C 407.501,316.336 407.168,258.002 407.5,199.5C 407.5,199.167 407.5,198.833 407.5,198.5C 411.693,197.778 415.36,196.112 418.5,193.5 Z"/></g>
<g><path style="opacity:0.024" fill="#300100" d="M 87.5,198.5 C 88.8333,198.5 90.1667,198.5 91.5,198.5C 91.5,256.5 91.5,314.5 91.5,372.5C 91.1667,372.5 90.8333,372.5 90.5,372.5C 90.5,314.833 90.5,257.167 90.5,199.5C 89.209,199.737 88.209,199.404 87.5,198.5 Z"/></g>
<g><path style="opacity:0.998" fill="#e71921" d="M 146.5,191.5 C 153.159,191.046 159.826,190.713 166.5,190.5C 166.5,190.833 166.5,191.167 166.5,191.5C 243.332,192.499 320.332,192.833 397.5,192.5C 397.389,193.117 397.056,193.617 396.5,194C 397.672,194.419 398.672,195.085 399.5,196C 299.666,196.167 199.999,196.667 100.5,197.5C 99.5012,243.33 99.1679,289.33 99.5,335.5C 199.5,336.833 299.5,336.833 399.5,335.5C 400.499,291.003 400.832,246.336 400.5,201.5C 401.151,202.091 401.818,202.757 402.5,203.5C 403.23,201.659 403.897,199.825 404.5,198C 403.833,197.667 403.167,197.333 402.5,197C 403.905,195.731 405.571,195.231 407.5,195.5C 407.5,196.5 407.5,197.5 407.5,198.5C 407.5,198.833 407.5,199.167 407.5,199.5C 406.521,202.625 406.187,205.958 406.5,209.5C 405.031,221.801 404.364,234.301 404.5,247C 404.274,284.115 404.608,321.449 405.5,359C 406.041,362.918 405.041,366.251 402.5,369C 406.083,370.697 406.416,372.863 403.5,375.5C 402.416,374.335 401.583,373.002 401,371.5C 400.83,361.991 400.33,352.658 399.5,343.5C 398.833,343.5 398.167,343.5 397.5,343.5C 298.334,342.334 199.001,342.168 99.5,343C 98.171,353.931 98.171,364.765 99.5,375.5C 98.1211,378.047 96.4544,378.047 94.5,375.5C 93.8329,371.687 93.1663,368.021 92.5,364.5C 92.5,308.833 92.5,253.167 92.5,197.5C 95.775,197.767 96.6084,196.767 95,194.5C 93.5267,196.007 91.6934,196.674 89.5,196.5C 83.3129,195.561 80.6462,191.895 81.5,185.5C 82.8221,185.33 83.9887,185.663 85,186.5C 85.1575,188.995 85.3241,191.328 85.5,193.5C 89.737,192.294 94.0703,191.627 98.5,191.5C 114.502,192.773 130.502,192.773 146.5,191.5 Z M 398.5,199.5 C 398.5,244.833 398.5,290.167 398.5,335.5C 299.301,335.357 199.968,335.357 100.5,335.5C 100.5,290.167 100.5,244.833 100.5,199.5C 199.833,199.5 299.167,199.5 398.5,199.5 Z"/></g>
<g><path style="opacity:0.394" fill="#ac2a2a" d="M 398.5,199.5 C 399.499,244.664 399.832,289.997 399.5,335.5C 299.5,336.833 199.5,336.833 99.5,335.5C 99.8333,335.5 100.167,335.5 100.5,335.5C 199.968,335.357 299.301,335.357 398.5,335.5C 398.5,290.167 398.5,244.833 398.5,199.5 Z"/></g>
<g><path style="opacity:1" fill="#d11f26" d="M 397.5,197.5 C 399.912,197.694 400.912,199.027 400.5,201.5C 400.832,246.336 400.499,291.003 399.5,335.5C 399.832,289.997 399.499,244.664 398.5,199.5C 398.167,198.833 397.833,198.167 397.5,197.5 Z"/></g>
<g><path style="opacity:0.525" fill="#7e1922" d="M 323.5,249.5 C 324.663,270.996 324.829,292.663 324,314.5C 323.535,315.931 322.701,317.097 321.5,318C 273.5,318.667 225.5,318.667 177.5,318C 176.107,316.829 175.273,315.329 175,313.5C 174.5,294.503 174.333,275.503 174.5,256.5C 175.167,274.833 175.833,293.167 176.5,311.5C 176.178,313.722 176.845,315.556 178.5,317C 202,317.167 225.5,317.333 249,317.5C 273.314,317.481 297.48,316.814 321.5,315.5C 322.461,313.735 322.795,311.735 322.5,309.5C 323.497,289.674 323.83,269.674 323.5,249.5 Z"/></g>
<g><path style="opacity:1" fill="#dc121a" d="M 189.5,246.5 C 189.007,248.806 188.674,251.139 188.5,253.5C 186.801,253.34 185.134,253.506 183.5,254C 187.087,256.694 187.421,259.861 184.5,263.5C 186.818,266.416 186.984,269.416 185,272.5C 184.565,283.812 184.399,294.979 184.5,306C 185.563,307.188 186.897,307.688 188.5,307.5C 188.5,308.833 188.5,310.167 188.5,311.5C 204.365,311.365 220.198,312.031 236,313.5C 264.255,313.717 292.422,313.384 320.5,312.5C 321.386,313.325 321.719,314.325 321.5,315.5C 297.48,316.814 273.314,317.481 249,317.5C 225.5,317.333 202,317.167 178.5,317C 176.845,315.556 176.178,313.722 176.5,311.5C 176.333,290.497 176.5,269.497 177,248.5C 177.5,248 178,247.5 178.5,247C 182.152,246.501 185.818,246.335 189.5,246.5 Z"/></g>
<g><path style="opacity:1" fill="#d6151b" d="M 189.5,246.5 C 232.835,246.333 276.168,246.5 319.5,247C 320.056,247.383 320.389,247.883 320.5,248.5C 277.851,247.536 235.185,247.37 192.5,248C 191.167,248.667 191.167,249.333 192.5,250C 195.426,250.218 198.26,250.718 201,251.5C 207.564,250.729 214.064,250.396 220.5,250.5C 223.294,250.821 225.794,251.821 228,253.5C 231.333,252.167 234.667,252.167 238,253.5C 238.5,253 239,252.5 239.5,252C 247.139,251.113 254.639,251.613 262,253.5C 267.916,252.556 273.582,251.889 279,251.5C 285.743,253.449 292.076,253.449 298,251.5C 300.513,252.73 303.013,252.73 305.5,251.5C 307.819,252.064 310.153,252.564 312.5,253C 309.447,253.179 306.447,253.679 303.5,254.5C 303.624,255.107 303.957,255.44 304.5,255.5C 303.766,256.708 303.433,258.041 303.5,259.5C 298.026,259.303 292.692,259.969 287.5,261.5C 287.799,263.604 287.466,265.604 286.5,267.5C 285.328,264.964 284.328,262.464 283.5,260C 278.987,259.303 274.653,258.136 270.5,256.5C 268.086,258.747 265.42,259.08 262.5,257.5C 261.41,258.391 261.41,259.391 262.5,260.5C 261.312,261.84 259.812,262.507 258,262.5C 253.148,261.412 248.315,260.245 243.5,259C 242.354,258.355 241.354,257.522 240.5,256.5C 237.239,258.047 234.072,259.713 231,261.5C 228.067,260.409 225.234,260.743 222.5,262.5C 221.185,260.231 220.018,257.898 219,255.5C 216.158,256.326 213.158,256.66 210,256.5C 207.837,255.332 205.837,254.665 204,254.5C 202.667,255.167 201.333,255.833 200,256.5C 198.2,259.977 196.867,263.644 196,267.5C 194.657,268.214 193.324,267.88 192,266.5C 191.044,270.925 192.877,272.592 197.5,271.5C 197.337,273.857 197.503,276.19 198,278.5C 198.654,277.304 199.154,277.304 199.5,278.5C 197.305,282.965 196.972,287.632 198.5,292.5C 200.123,291.509 201.123,292.176 201.5,294.5C 198.833,295.167 196.167,295.833 193.5,296.5C 192.319,300.072 191.652,303.738 191.5,307.5C 223.493,308.334 255.493,308.168 287.5,307C 288.167,306.667 288.833,306.333 289.5,306C 287.899,305.727 286.399,305.227 285,304.5C 283.984,305.634 283.317,305.301 283,303.5C 282.182,300.773 282.348,298.106 283.5,295.5C 284.48,298.086 284.813,300.753 284.5,303.5C 285.5,303.5 286.5,303.5 287.5,303.5C 287.338,301.473 287.505,299.473 288,297.5C 288.815,299.623 289.815,301.623 291,303.5C 292.787,292.972 293.62,292.972 293.5,303.5C 296.833,303.5 300.167,303.5 303.5,303.5C 303.5,300.833 303.5,298.167 303.5,295.5C 305.124,295.64 306.29,294.973 307,293.5C 308.049,295.107 309.549,295.773 311.5,295.5C 311.5,292.833 311.5,290.167 311.5,287.5C 308.753,287.813 306.086,287.48 303.5,286.5C 305.995,284.836 307.995,282.67 309.5,280C 308.207,279.51 306.873,279.343 305.5,279.5C 305.813,276.753 305.48,274.086 304.5,271.5C 303.158,273.005 301.492,273.672 299.5,273.5C 298.599,269.759 299.932,267.759 303.5,267.5C 303.5,266.167 303.5,264.833 303.5,263.5C 304.5,263.5 305.5,263.5 306.5,263.5C 306.721,260.721 306.388,258.054 305.5,255.5C 308.85,255.335 312.183,255.502 315.5,256C 316.939,256.991 317.939,258.324 318.5,260C 317.769,266.177 316.769,272.344 315.5,278.5C 317.284,282.526 317.284,286.36 315.5,290C 316.526,294.3 317.526,298.633 318.5,303C 317.898,305.036 316.898,306.87 315.5,308.5C 317.743,309.474 320.076,309.808 322.5,309.5C 322.795,311.735 322.461,313.735 321.5,315.5C 321.719,314.325 321.386,313.325 320.5,312.5C 292.422,313.384 264.255,313.717 236,313.5C 220.198,312.031 204.365,311.365 188.5,311.5C 188.5,310.167 188.5,308.833 188.5,307.5C 186.897,307.688 185.563,307.188 184.5,306C 184.399,294.979 184.565,283.812 185,272.5C 186.984,269.416 186.818,266.416 184.5,263.5C 187.421,259.861 187.087,256.694 183.5,254C 185.134,253.506 186.801,253.34 188.5,253.5C 188.674,251.139 189.007,248.806 189.5,246.5 Z"/></g>
<g><path style="opacity:0.359" fill="#b12325" d="M 323.5,249.5 C 323.83,269.674 323.497,289.674 322.5,309.5C 322.667,289.831 322.5,270.164 322,250.5C 321.283,249.956 320.783,249.289 320.5,248.5C 320.389,247.883 320.056,247.383 319.5,247C 276.168,246.5 232.835,246.333 189.5,246.5C 185.818,246.335 182.152,246.501 178.5,247C 178,247.5 177.5,248 177,248.5C 176.5,269.497 176.333,290.497 176.5,311.5C 175.833,293.167 175.167,274.833 174.5,256.5C 174.071,252.541 175.071,249.041 177.5,246C 225.5,245.333 273.5,245.333 321.5,246C 322.823,246.816 323.489,247.983 323.5,249.5 Z"/></g>
<g><path style="opacity:1" fill="#d2141b" d="M 304.5,255.5 C 304.833,255.5 305.167,255.5 305.5,255.5C 306.388,258.054 306.721,260.721 306.5,263.5C 305.5,263.5 304.5,263.5 303.5,263.5C 303.5,264.833 303.5,266.167 303.5,267.5C 299.932,267.759 298.599,269.759 299.5,273.5C 301.492,273.672 303.158,273.005 304.5,271.5C 305.48,274.086 305.813,276.753 305.5,279.5C 306.873,279.343 308.207,279.51 309.5,280C 307.995,282.67 305.995,284.836 303.5,286.5C 306.086,287.48 308.753,287.813 311.5,287.5C 311.5,290.167 311.5,292.833 311.5,295.5C 309.549,295.773 308.049,295.107 307,293.5C 306.29,294.973 305.124,295.64 303.5,295.5C 303.5,298.167 303.5,300.833 303.5,303.5C 300.167,303.5 296.833,303.5 293.5,303.5C 293.62,292.972 292.787,292.972 291,303.5C 289.815,301.623 288.815,299.623 288,297.5C 287.505,299.473 287.338,301.473 287.5,303.5C 286.5,303.5 285.5,303.5 284.5,303.5C 284.813,300.753 284.48,298.086 283.5,295.5C 282.348,298.106 282.182,300.773 283,303.5C 283.317,305.301 283.984,305.634 285,304.5C 286.399,305.227 287.899,305.727 289.5,306C 288.833,306.333 288.167,306.667 287.5,307C 255.493,308.168 223.493,308.334 191.5,307.5C 191.652,303.738 192.319,300.072 193.5,296.5C 196.167,295.833 198.833,295.167 201.5,294.5C 201.123,292.176 200.123,291.509 198.5,292.5C 196.972,287.632 197.305,282.965 199.5,278.5C 199.154,277.304 198.654,277.304 198,278.5C 197.503,276.19 197.337,273.857 197.5,271.5C 192.877,272.592 191.044,270.925 192,266.5C 193.324,267.88 194.657,268.214 196,267.5C 196.867,263.644 198.2,259.977 200,256.5C 201.333,255.833 202.667,255.167 204,254.5C 205.837,254.665 207.837,255.332 210,256.5C 213.158,256.66 216.158,256.326 219,255.5C 220.018,257.898 221.185,260.231 222.5,262.5C 225.234,260.743 228.067,260.409 231,261.5C 234.072,259.713 237.239,258.047 240.5,256.5C 241.354,257.522 242.354,258.355 243.5,259C 248.315,260.245 253.148,261.412 258,262.5C 259.812,262.507 261.312,261.84 262.5,260.5C 261.41,259.391 261.41,258.391 262.5,257.5C 265.42,259.08 268.086,258.747 270.5,256.5C 274.653,258.136 278.987,259.303 283.5,260C 284.328,262.464 285.328,264.964 286.5,267.5C 287.466,265.604 287.799,263.604 287.5,261.5C 292.692,259.969 298.026,259.303 303.5,259.5C 303.433,258.041 303.766,256.708 304.5,255.5 Z"/></g>
<g><path style="opacity:1" fill="#df171c" d="M 320.5,248.5 C 320.783,249.289 321.283,249.956 322,250.5C 322.5,270.164 322.667,289.831 322.5,309.5C 320.076,309.808 317.743,309.474 315.5,308.5C 316.898,306.87 317.898,305.036 318.5,303C 317.526,298.633 316.526,294.3 315.5,290C 317.284,286.36 317.284,282.526 315.5,278.5C 316.769,272.344 317.769,266.177 318.5,260C 317.939,258.324 316.939,256.991 315.5,256C 312.183,255.502 308.85,255.335 305.5,255.5C 305.167,255.5 304.833,255.5 304.5,255.5C 303.957,255.44 303.624,255.107 303.5,254.5C 306.447,253.679 309.447,253.179 312.5,253C 310.153,252.564 307.819,252.064 305.5,251.5C 303.013,252.73 300.513,252.73 298,251.5C 292.076,253.449 285.743,253.449 279,251.5C 273.582,251.889 267.916,252.556 262,253.5C 254.639,251.613 247.139,251.113 239.5,252C 239,252.5 238.5,253 238,253.5C 234.667,252.167 231.333,252.167 228,253.5C 225.794,251.821 223.294,250.821 220.5,250.5C 214.064,250.396 207.564,250.729 201,251.5C 198.26,250.718 195.426,250.218 192.5,250C 191.167,249.333 191.167,248.667 192.5,248C 235.185,247.37 277.851,247.536 320.5,248.5 Z"/></g>
<g><path style="opacity:0.157" fill="#922629" d="M 373.5,233.5 C 374.477,236.287 374.81,239.287 374.5,242.5C 361.989,242.829 349.655,242.495 337.5,241.5C 349.5,241.5 361.5,241.5 373.5,241.5C 373.5,238.833 373.5,236.167 373.5,233.5 Z"/></g>
<g><path style="opacity:0.169" fill="#942428" d="M 125.5,233.5 C 125.5,234.5 125.5,235.5 125.5,236.5C 125.232,238.099 125.566,239.432 126.5,240.5C 137.988,241.495 149.655,241.828 161.5,241.5C 149.674,242.66 137.674,242.826 125.5,242C 124.183,239.063 124.183,236.23 125.5,233.5 Z"/></g>
<g><path style="opacity:0.903" fill="#991f21" d="M 373.5,233.5 C 373.5,236.167 373.5,238.833 373.5,241.5C 361.5,241.5 349.5,241.5 337.5,241.5C 336.527,239.052 336.194,236.385 336.5,233.5C 348.808,232.614 361.141,232.614 373.5,233.5 Z"/></g>
<g><path style="opacity:0.885" fill="#b01f23" d="M 161.5,241.5 C 149.655,241.828 137.988,241.495 126.5,240.5C 137.833,240.5 149.167,240.5 160.5,240.5C 160.5,238.5 160.5,236.5 160.5,234.5C 148.581,233.888 136.914,234.554 125.5,236.5C 125.5,235.5 125.5,234.5 125.5,233.5C 137.097,233.133 148.764,232.966 160.5,233C 161.684,234.18 162.351,235.68 162.5,237.5C 162.489,239.045 162.156,240.378 161.5,241.5 Z"/></g>
<g><path style="opacity:1" fill="#e5151c" d="M 338.5,234.5 C 349.833,234.5 361.167,234.5 372.5,234.5C 372.5,236.5 372.5,238.5 372.5,240.5C 361.167,240.5 349.833,240.5 338.5,240.5C 338.5,238.5 338.5,236.5 338.5,234.5 Z"/></g>
<g><path style="opacity:0.998" fill="#e5171e" d="M 126.5,240.5 C 125.566,239.432 125.232,238.099 125.5,236.5C 136.914,234.554 148.581,233.888 160.5,234.5C 160.5,236.5 160.5,238.5 160.5,240.5C 149.167,240.5 137.833,240.5 126.5,240.5 Z"/></g>
<g><path style="opacity:0.184" fill="#821c1f" d="M 338.5,218.5 C 337.244,220.941 337.244,223.274 338.5,225.5C 339.919,226.451 341.585,226.784 343.5,226.5C 353.5,226.5 363.5,226.5 373.5,226.5C 373.5,224.167 373.5,221.833 373.5,219.5C 364.983,219.826 356.65,219.493 348.5,218.5C 357.167,218.5 365.833,218.5 374.5,218.5C 374.5,221.5 374.5,224.5 374.5,227.5C 361.816,227.832 349.149,227.499 336.5,226.5C 336.167,225.833 335.833,225.167 335.5,224.5C 335.771,221.953 336.771,219.953 338.5,218.5 Z"/></g>
<g><path style="opacity:0.196" fill="#81171a" d="M 125.5,218.5 C 125.5,221.167 125.5,223.833 125.5,226.5C 133.167,226.5 140.833,226.5 148.5,226.5C 152.833,226.5 157.167,226.5 161.5,226.5C 161.5,224.167 161.5,221.833 161.5,219.5C 160.5,219.5 159.5,219.5 158.5,219.5C 158.5,219.167 158.5,218.833 158.5,218.5C 159.528,218.074 160.861,218.074 162.5,218.5C 162.5,221.5 162.5,224.5 162.5,227.5C 149.833,227.5 137.167,227.5 124.5,227.5C 124.19,224.287 124.523,221.287 125.5,218.5 Z"/></g>
<g><path style="opacity:0.925" fill="#d0262d" d="M 338.5,218.5 C 341.833,218.5 345.167,218.5 348.5,218.5C 356.65,219.493 364.983,219.826 373.5,219.5C 373.5,221.833 373.5,224.167 373.5,226.5C 363.5,226.5 353.5,226.5 343.5,226.5C 352.986,225.506 362.652,225.173 372.5,225.5C 372.5,223.833 372.5,222.167 372.5,220.5C 361.167,220.5 349.833,220.5 338.5,220.5C 338.5,222.167 338.5,223.833 338.5,225.5C 337.244,223.274 337.244,220.941 338.5,218.5 Z"/></g>
<g><path style="opacity:0.894" fill="#bd252b" d="M 158.5,218.5 C 158.5,218.833 158.5,219.167 158.5,219.5C 147.833,219.5 137.167,219.5 126.5,219.5C 126.5,221.5 126.5,223.5 126.5,225.5C 134.019,225.175 141.352,225.508 148.5,226.5C 140.833,226.5 133.167,226.5 125.5,226.5C 125.5,223.833 125.5,221.167 125.5,218.5C 136.35,218.423 147.35,218.423 158.5,218.5 Z"/></g>
<g><path style="opacity:1" fill="#e61720" d="M 343.5,226.5 C 341.585,226.784 339.919,226.451 338.5,225.5C 338.5,223.833 338.5,222.167 338.5,220.5C 349.833,220.5 361.167,220.5 372.5,220.5C 372.5,222.167 372.5,223.833 372.5,225.5C 362.652,225.173 352.986,225.506 343.5,226.5 Z"/></g>
<g><path style="opacity:1" fill="#e21a20" d="M 158.5,219.5 C 159.5,219.5 160.5,219.5 161.5,219.5C 161.5,221.833 161.5,224.167 161.5,226.5C 157.167,226.5 152.833,226.5 148.5,226.5C 141.352,225.508 134.019,225.175 126.5,225.5C 126.5,223.5 126.5,221.5 126.5,219.5C 137.167,219.5 147.833,219.5 158.5,219.5 Z"/></g>
<g><path style="opacity:0.736" fill="#971b21" d="M 100.5,197.5 C 199.5,197.5 298.5,197.5 397.5,197.5C 397.833,198.167 398.167,198.833 398.5,199.5C 299.167,199.5 199.833,199.5 100.5,199.5C 100.5,244.833 100.5,290.167 100.5,335.5C 100.167,335.5 99.8333,335.5 99.5,335.5C 99.1679,289.33 99.5012,243.33 100.5,197.5 Z"/></g>
<g><path style="opacity:0.97" fill="#c3292f" d="M 397.5,343.5 C 387.319,343.173 377.319,343.506 367.5,344.5C 278.5,344.5 189.5,344.5 100.5,344.5C 100.5,354.5 100.5,364.5 100.5,374.5C 100.5,374.833 100.5,375.167 100.5,375.5C 100.167,375.5 99.8333,375.5 99.5,375.5C 98.171,364.765 98.171,353.931 99.5,343C 199.001,342.168 298.334,342.334 397.5,343.5 Z"/></g>
<g><path style="opacity:0.533" fill="#86181e" d="M 367.5,344.5 C 377.319,343.506 387.319,343.173 397.5,343.5C 398.167,343.5 398.833,343.5 399.5,343.5C 400.143,354.552 399.476,365.219 397.5,375.5C 386.167,375.5 374.833,375.5 363.5,375.5C 374.988,374.505 386.655,374.172 398.5,374.5C 398.5,364.5 398.5,354.5 398.5,344.5C 388.167,344.5 377.833,344.5 367.5,344.5 Z"/></g>
<g><path style="opacity:0.031" fill="#7d0d15" d="M 90.5,372.5 C 90.8333,372.5 91.1667,372.5 91.5,372.5C 91.5,373.5 91.5,374.5 91.5,375.5C 89.9826,375.511 88.8159,376.177 88,377.5C 87.5012,381.486 87.3345,385.486 87.5,389.5C 86.7784,389.082 86.2784,388.416 86,387.5C 84.2507,381.281 85.7507,376.281 90.5,372.5 Z"/></g>
<g><path style="opacity:1" fill="#de141c" d="M 406.5,209.5 C 406.333,264.834 406.5,320.168 407,375.5C 408.011,376.337 409.178,376.67 410.5,376.5C 410.5,381.167 410.5,385.833 410.5,390.5C 393.833,390.5 377.167,390.5 360.5,390.5C 269.459,390.828 178.459,390.495 87.5,389.5C 87.3345,385.486 87.5012,381.486 88,377.5C 88.8159,376.177 89.9826,375.511 91.5,375.5C 92.4816,372.038 92.815,368.371 92.5,364.5C 93.1663,368.021 93.8329,371.687 94.5,375.5C 96.4544,378.047 98.1211,378.047 99.5,375.5C 99.8333,375.5 100.167,375.5 100.5,375.5C 111.752,376.477 123.086,376.811 134.5,376.5C 134.575,379.206 134.908,381.873 135.5,384.5C 138.85,384.665 142.183,384.498 145.5,384C 146.252,383.329 146.586,382.496 146.5,381.5C 146.357,379.738 146.691,378.071 147.5,376.5C 161.187,375.22 174.853,375.22 188.5,376.5C 189.833,376.5 191.167,376.5 192.5,376.5C 192.575,379.206 192.908,381.873 193.5,384.5C 196.385,384.806 199.052,384.473 201.5,383.5C 202.338,383.158 202.672,382.492 202.5,381.5C 202.5,380.833 202.5,380.167 202.5,379.5C 204.048,379.179 204.715,378.179 204.5,376.5C 217.5,376.5 230.5,376.5 243.5,376.5C 243.244,378.792 243.577,380.959 244.5,383C 246,383.167 247.5,383.333 249,383.5C 250.986,383.431 252.486,382.765 253.5,381.5C 255.256,380.448 255.923,378.781 255.5,376.5C 268.5,376.5 281.5,376.5 294.5,376.5C 294.337,378.857 294.503,381.19 295,383.5C 298.667,384.833 302.333,384.833 306,383.5C 306.497,381.19 306.663,378.857 306.5,376.5C 321.167,376.5 335.833,376.5 350.5,376.5C 350.162,379.157 350.829,381.49 352.5,383.5C 355.645,384.803 358.645,384.803 361.5,383.5C 361.5,383.167 361.5,382.833 361.5,382.5C 361.5,382.167 361.5,381.833 361.5,381.5C 363.256,380.448 363.923,378.781 363.5,376.5C 375.012,376.828 386.346,376.495 397.5,375.5C 399.476,365.219 400.143,354.552 399.5,343.5C 400.33,352.658 400.83,361.991 401,371.5C 401.583,373.002 402.416,374.335 403.5,375.5C 406.416,372.863 406.083,370.697 402.5,369C 405.041,366.251 406.041,362.918 405.5,359C 404.608,321.449 404.274,284.115 404.5,247C 404.364,234.301 405.031,221.801 406.5,209.5 Z"/></g>
<g><path style="opacity:0.998" fill="#b31e24" d="M 188.5,376.5 C 189.568,375.566 190.901,375.232 192.5,375.5C 194.083,377.508 195.083,379.841 195.5,382.5C 197.265,383.461 199.265,383.795 201.5,383.5C 199.052,384.473 196.385,384.806 193.5,384.5C 192.908,381.873 192.575,379.206 192.5,376.5C 191.167,376.5 189.833,376.5 188.5,376.5 Z"/></g>
<g><path style="opacity:0.655" fill="#b72129" d="M 363.5,375.5 C 374.833,375.5 386.167,375.5 397.5,375.5C 386.346,376.495 375.012,376.828 363.5,376.5C 363.923,378.781 363.256,380.448 361.5,381.5C 361.054,378.99 361.72,376.99 363.5,375.5 Z"/></g>
<g><path style="opacity:0.626" fill="#9c161c" d="M 295.5,375.5 C 295.232,378.119 295.565,380.619 296.5,383C 297.833,383.167 299.167,383.333 300.5,383.5C 302.333,383.415 303.666,382.748 304.5,381.5C 304.244,379.208 304.577,377.041 305.5,375C 320.833,374.333 336.167,374.333 351.5,375C 352.23,377.154 352.897,379.321 353.5,381.5C 355.635,383.369 358.302,384.036 361.5,383.5C 358.645,384.803 355.645,384.803 352.5,383.5C 350.829,381.49 350.162,379.157 350.5,376.5C 335.833,376.5 321.167,376.5 306.5,376.5C 306.663,378.857 306.497,381.19 306,383.5C 302.333,384.833 298.667,384.833 295,383.5C 294.503,381.19 294.337,378.857 294.5,376.5C 281.5,376.5 268.5,376.5 255.5,376.5C 255.923,378.781 255.256,380.448 253.5,381.5C 253.244,379.208 253.577,377.041 254.5,375C 268.212,374.202 281.878,374.369 295.5,375.5 Z"/></g>
<g><path style="opacity:0.584" fill="#b21d25" d="M 205.5,375.5 C 218.344,375.171 231.011,375.505 243.5,376.5C 230.5,376.5 217.5,376.5 204.5,376.5C 204.715,378.179 204.048,379.179 202.5,379.5C 202.5,378.167 202.5,376.833 202.5,375.5C 203.5,375.5 204.5,375.5 205.5,375.5 Z"/></g>
<g><path style="opacity:0.624" fill="#9b1620" d="M 100.5,375.5 C 100.5,375.167 100.5,374.833 100.5,374.5C 112.171,374.333 123.838,374.5 135.5,375C 136.423,377.041 136.756,379.208 136.5,381.5C 137.334,382.748 138.667,383.415 140.5,383.5C 142.045,383.489 143.378,383.156 144.5,382.5C 145.167,382.167 145.833,381.833 146.5,381.5C 146.586,382.496 146.252,383.329 145.5,384C 142.183,384.498 138.85,384.665 135.5,384.5C 134.908,381.873 134.575,379.206 134.5,376.5C 123.086,376.811 111.752,376.477 100.5,375.5 Z"/></g>
<g><path style="opacity:0.008" fill="#6e060a" d="M 205.5,375.5 C 218.327,374.34 231.327,374.173 244.5,375C 245.435,377.381 245.768,379.881 245.5,382.5C 248.279,382.721 250.946,382.388 253.5,381.5C 252.486,382.765 250.986,383.431 249,383.5C 247.5,383.333 246,383.167 244.5,383C 243.577,380.959 243.244,378.792 243.5,376.5C 231.011,375.505 218.344,375.171 205.5,375.5 Z"/></g>
<g><path style="opacity:0.008" fill="#730409" d="M 192.5,375.5 C 190.901,375.232 189.568,375.566 188.5,376.5C 174.853,375.22 161.187,375.22 147.5,376.5C 146.691,378.071 146.357,379.738 146.5,381.5C 145.833,381.833 145.167,382.167 144.5,382.5C 145.008,380.135 145.675,377.801 146.5,375.5C 161.995,374.174 177.328,374.174 192.5,375.5 Z"/></g>
<g><path style="opacity:0.212" fill="#611012" d="M 295.5,375.5 C 295.214,382.198 298.214,384.198 304.5,381.5C 303.666,382.748 302.333,383.415 300.5,383.5C 299.167,383.333 297.833,383.167 296.5,383C 295.565,380.619 295.232,378.119 295.5,375.5 Z"/></g>
<g><path style="opacity:0.157" fill="#6f0910" d="M 136.5,381.5 C 139.054,382.388 141.721,382.721 144.5,382.5C 143.378,383.156 142.045,383.489 140.5,383.5C 138.667,383.415 137.334,382.748 136.5,381.5 Z"/></g>
<g><path style="opacity:0.129" fill="#6d0d12" d="M 202.5,381.5 C 202.672,382.492 202.338,383.158 201.5,383.5C 199.265,383.795 197.265,383.461 195.5,382.5C 197.95,382.702 200.283,382.369 202.5,381.5 Z"/></g>
<g><path style="opacity:0.161" fill="#640d12" d="M 353.5,381.5 C 356.054,382.388 358.721,382.721 361.5,382.5C 361.5,382.833 361.5,383.167 361.5,383.5C 358.302,384.036 355.635,383.369 353.5,381.5 Z"/></g>
<g><path style="opacity:0.75" fill="#941c1e" d="M 87.5,389.5 C 178.459,390.495 269.459,390.828 360.5,390.5C 357.038,391.482 353.371,391.815 349.5,391.5C 266.132,392.254 182.799,392.587 99.5,392.5C 96.5,392.333 93.5,392.167 90.5,392C 89.0577,391.623 88.0577,390.79 87.5,389.5 Z"/></g>
<g><path style="opacity:0.716" fill="#af2227" d="M 407.5,199.5 C 407.168,258.002 407.501,316.336 408.5,374.5C 412.192,375.034 413.859,377.201 413.5,381C 412.888,383.141 412.888,385.141 413.5,387C 412.716,389.582 411.049,391.249 408.5,392C 388.696,391.933 369.029,391.766 349.5,391.5C 353.371,391.815 357.038,391.482 360.5,390.5C 377.167,390.5 393.833,390.5 410.5,390.5C 410.5,385.833 410.5,381.167 410.5,376.5C 409.178,376.67 408.011,376.337 407,375.5C 406.5,320.168 406.333,264.834 406.5,209.5C 406.187,205.958 406.521,202.625 407.5,199.5 Z"/></g>
</svg>
