<?xml version="1.0" encoding="UTF-8"?>
<!DOCTYPE svg PUBLIC "-//W3C//DTD SVG 1.1//EN" "http://www.w3.org/Graphics/SVG/1.1/DTD/svg11.dtd">
<svg xmlns="http://www.w3.org/2000/svg" version="1.1" width="691px" height="361px" style="shape-rendering:geometricPrecision; text-rendering:geometricPrecision; image-rendering:optimizeQuality; fill-rule:evenodd; clip-rule:evenodd" xmlns:xlink="http://www.w3.org/1999/xlink">
<g><path style="opacity:0.133" fill="#f16d6d" d="M 351.5,103.5 C 351.5,103.833 351.5,104.167 351.5,104.5C 344.492,104.334 337.492,104.5 330.5,105C 328.091,106.707 325.425,107.54 322.5,107.5C 324.273,106.108 326.273,104.941 328.5,104C 336.159,103.5 343.826,103.334 351.5,103.5 Z"/></g>
<g><path style="opacity:0.996" fill="#f31b1c" d="M 351.5,104.5 C 378.498,105.018 405.498,105.518 432.5,106C 433.5,107.667 434.5,109.333 435.5,111C 436.449,111.617 437.282,111.451 438,110.5C 440.403,112.082 442.903,113.416 445.5,114.5C 445.833,114.5 446.167,114.5 446.5,114.5C 446.833,117.5 448.5,119.167 451.5,119.5C 451.833,119.5 452.167,119.5 452.5,119.5C 453.906,122.208 454.573,124.874 454.5,127.5C 455.293,127.069 456.127,126.735 457,126.5C 461.006,129.901 465.172,132.901 469.5,135.5C 469.833,135.5 470.167,135.5 470.5,135.5C 471.167,138.167 472.833,139.833 475.5,140.5C 477.167,141.833 478.833,143.167 480.5,144.5C 480.5,146.5 481.5,147.5 483.5,147.5C 492.841,150.892 502.507,152.892 512.5,153.5C 514.515,154.924 516.848,155.59 519.5,155.5C 525.023,158.346 529.69,162.346 533.5,167.5C 533.831,188.34 533.497,209.007 532.5,229.5C 532.5,221.5 532.5,213.5 532.5,205.5C 531.07,205.579 529.736,205.246 528.5,204.5C 527.808,205.025 527.308,205.692 527,206.5C 526.333,201.833 526.333,197.167 527,192.5C 527.333,195.167 527.667,197.833 528,200.5C 528.333,199.167 528.667,197.833 529,196.5C 529.471,198.246 530.138,199.913 531,201.5C 531.333,201.167 531.667,200.833 532,200.5C 532.667,191.167 532.667,181.833 532,172.5C 529.536,173.651 527.036,174.651 524.5,175.5C 524.5,176.833 524.5,178.167 524.5,179.5C 527.05,179.439 528.55,178.106 529,175.5C 529.857,179.426 528.357,182.093 524.5,183.5C 523.686,185.766 523.186,188.1 523,190.5C 522.107,191.711 521.274,191.711 520.5,190.5C 521.374,188.253 521.708,185.92 521.5,183.5C 520.178,183.33 519.011,183.663 518,184.5C 515.819,192.368 515.152,200.368 516,208.5C 518.328,211.794 518.661,215.461 517,219.5C 516.23,220.598 515.397,220.598 514.5,219.5C 514.829,204.657 514.496,189.99 513.5,175.5C 506.038,173.927 498.371,172.927 490.5,172.5C 484.017,170.627 477.684,168.294 471.5,165.5C 466.801,160.8 461.801,156.466 456.5,152.5C 456.065,148.898 454.065,146.732 450.5,146C 448.036,142.347 444.702,140.18 440.5,139.5C 438.64,138.061 436.973,136.395 435.5,134.5C 432.815,130.817 429.482,127.817 425.5,125.5C 394.336,124.336 363.003,124.169 331.5,125C 330.748,125.671 330.414,126.504 330.5,127.5C 329.833,128.833 328.833,129.833 327.5,130.5C 327.44,129.957 327.107,129.624 326.5,129.5C 325.205,130.098 323.872,130.598 322.5,131C 319.977,133.668 316.977,135.501 313.5,136.5C 313.5,137.5 313.5,138.5 313.5,139.5C 306.114,144.877 298.448,149.877 290.5,154.5C 285.89,155.928 281.89,158.428 278.5,162C 276.559,162.743 274.726,162.576 273,161.5C 272.5,162 272,162.5 271.5,163C 272.973,163.71 273.64,164.876 273.5,166.5C 273.167,167.5 272.5,168.167 271.5,168.5C 269.282,168.614 267.282,169.28 265.5,170.5C 268.631,165.743 270.631,160.743 271.5,155.5C 271.023,154.522 270.357,153.689 269.5,153C 273.571,151.287 274.571,148.454 272.5,144.5C 269.64,145.018 267.64,146.684 266.5,149.5C 265.817,149.137 265.15,148.804 264.5,148.5C 265.167,147.167 265.833,145.833 266.5,144.5C 266.842,143.662 267.508,143.328 268.5,143.5C 271.721,142.495 275.054,141.661 278.5,141C 282.117,135.22 287.117,131.053 293.5,128.5C 294.425,127.643 295.092,126.643 295.5,125.5C 296.873,125.657 298.207,125.49 299.5,125C 301.301,121.343 304.301,119.51 308.5,119.5C 311.141,115.362 314.807,112.528 319.5,111C 320.823,110.184 321.489,109.017 321.5,107.5C 321.833,107.5 322.167,107.5 322.5,107.5C 325.425,107.54 328.091,106.707 330.5,105C 337.492,104.5 344.492,104.334 351.5,104.5 Z"/></g>
<g><path style="opacity:0.713" fill="#e45149" d="M 445.5,114.5 C 442.903,113.416 440.403,112.082 438,110.5C 437.282,111.451 436.449,111.617 435.5,111C 434.5,109.333 433.5,107.667 432.5,106C 405.498,105.518 378.498,105.018 351.5,104.5C 351.5,104.167 351.5,103.833 351.5,103.5C 360.081,102.612 368.748,102.279 377.5,102.5C 395.123,103.32 412.79,103.82 430.5,104C 436.583,106.034 441.583,109.534 445.5,114.5 Z"/></g>
<g><path style="opacity:0.447" fill="#e16b5f" d="M 446.5,114.5 C 448.167,116.167 449.833,117.833 451.5,119.5C 448.5,119.167 446.833,117.5 446.5,114.5 Z"/></g>
<g><path style="opacity:1" fill="#f12422" d="M 217.5,117.5 C 217.539,118.583 217.873,119.583 218.5,120.5C 221.044,121.426 223.544,122.426 226,123.5C 226.188,125.061 225.355,125.728 223.5,125.5C 223.5,126.833 223.5,128.167 223.5,129.5C 222.761,129.369 222.094,129.536 221.5,130C 222.973,130.71 223.64,131.876 223.5,133.5C 220.13,131.662 216.463,130.662 212.5,130.5C 212.746,133.47 214.412,134.803 217.5,134.5C 217.5,136.167 217.5,137.833 217.5,139.5C 218.833,139.5 220.167,139.5 221.5,139.5C 221.042,134.971 222.042,134.471 224.5,138C 224.002,140.248 223.002,142.248 221.5,144C 222.01,145.826 222.844,145.993 224,144.5C 224.423,145.956 225.256,146.456 226.5,146C 225.62,144.644 225.286,143.144 225.5,141.5C 228.644,141.956 231.644,142.956 234.5,144.5C 233.349,147.291 231.515,148.291 229,147.5C 228.51,148.793 228.343,150.127 228.5,151.5C 230.675,151.318 232.675,150.651 234.5,149.5C 236.915,149.719 237.915,151.052 237.5,153.5C 235.833,153.5 234.167,153.5 232.5,153.5C 232.756,155.792 232.423,157.959 231.5,160C 221.791,161.408 212.125,163.075 202.5,165C 201.241,165.923 199.908,166.757 198.5,167.5C 199.605,168.892 200.939,170.059 202.5,171C 199.821,171.434 197.154,171.268 194.5,170.5C 191.322,170.673 189.322,172.34 188.5,175.5C 189.313,176.814 190.313,177.981 191.5,179C 187.082,179.208 182.749,179.874 178.5,181C 177.289,182.113 177.289,183.28 178.5,184.5C 177.52,185.981 176.353,187.315 175,188.5C 175.077,187.262 174.911,186.262 174.5,185.5C 173.482,186.193 172.482,186.859 171.5,187.5C 172.754,184.907 174.42,182.573 176.5,180.5C 181.579,175.453 187.246,171.12 193.5,167.5C 198.926,164.765 204.593,162.765 210.5,161.5C 217.128,160.241 223.794,159.241 230.5,158.5C 230.5,157.5 230.5,156.5 230.5,155.5C 229.294,153.517 227.961,151.517 226.5,149.5C 225.311,148.571 223.978,148.238 222.5,148.5C 218.712,145.101 214.712,141.934 210.5,139C 204.833,138.667 199.167,138.333 193.5,138C 191.934,137.392 190.6,136.558 189.5,135.5C 187.624,132.079 186.624,128.412 186.5,124.5C 186.898,119.6 189.565,116.767 194.5,116C 202.229,115.962 209.896,116.462 217.5,117.5 Z"/></g>
<g><path style="opacity:1" fill="#e43f3d" d="M 321.5,107.5 C 321.489,109.017 320.823,110.184 319.5,111C 314.807,112.528 311.141,115.362 308.5,119.5C 304.301,119.51 301.301,121.343 299.5,125C 298.207,125.49 296.873,125.657 295.5,125.5C 297.237,123.45 299.237,121.617 301.5,120C 308.335,115.978 315.001,111.811 321.5,107.5 Z"/></g>
<g><path style="opacity:0.49" fill="#be2224" d="M 425.5,125.5 C 394.995,125.169 364.662,125.502 334.5,126.5C 333.041,126.433 331.708,126.766 330.5,127.5C 330.414,126.504 330.748,125.671 331.5,125C 363.003,124.169 394.336,124.336 425.5,125.5 Z"/></g>
<g><path style="opacity:0.012" fill="#a4504e" d="M 334.5,126.5 C 364.662,125.502 394.995,125.169 425.5,125.5C 429.482,127.817 432.815,130.817 435.5,134.5C 432.101,132.612 429.101,130.112 426.5,127C 395.835,126.5 365.168,126.333 334.5,126.5 Z"/></g>
<g><path style="opacity:1" fill="#e3463f" d="M 452.5,119.5 C 458.358,124.602 464.024,129.935 469.5,135.5C 465.172,132.901 461.006,129.901 457,126.5C 456.127,126.735 455.293,127.069 454.5,127.5C 454.573,124.874 453.906,122.208 452.5,119.5 Z"/></g>
<g><path style="opacity:0.059" fill="#d96463" d="M 186.5,124.5 C 186.624,128.412 187.624,132.079 189.5,135.5C 185.833,132.452 184.833,128.785 186.5,124.5 Z"/></g>
<g><path style="opacity:0.235" fill="#b72f2f" d="M 327.5,130.5 C 322.833,133.5 318.167,136.5 313.5,139.5C 313.5,138.5 313.5,137.5 313.5,136.5C 316.977,135.501 319.977,133.668 322.5,131C 323.872,130.598 325.205,130.098 326.5,129.5C 327.107,129.624 327.44,129.957 327.5,130.5 Z"/></g>
<g><path style="opacity:1" fill="#eb382e" d="M 217.5,117.5 C 219.924,118.03 222.257,118.864 224.5,120C 235.977,129.975 247.31,140.142 258.5,150.5C 256.412,150.865 254.079,150.865 251.5,150.5C 250.771,147.685 249.771,145.685 248.5,144.5C 247.07,144.421 245.736,144.754 244.5,145.5C 243.167,143.167 241.833,140.833 240.5,138.5C 238.929,139.309 237.262,139.643 235.5,139.5C 237.143,134.132 235.143,130.799 229.5,129.5C 227.584,130.248 225.584,130.248 223.5,129.5C 223.5,128.167 223.5,126.833 223.5,125.5C 225.355,125.728 226.188,125.061 226,123.5C 223.544,122.426 221.044,121.426 218.5,120.5C 217.873,119.583 217.539,118.583 217.5,117.5 Z"/></g>
<g><path style="opacity:0.129" fill="#fda7a4" d="M 470.5,135.5 C 472.5,136.833 474.167,138.5 475.5,140.5C 472.833,139.833 471.167,138.167 470.5,135.5 Z"/></g>
<g><path style="opacity:1" fill="#e63e38" d="M 295.5,125.5 C 295.092,126.643 294.425,127.643 293.5,128.5C 287.117,131.053 282.117,135.22 278.5,141C 275.054,141.661 271.721,142.495 268.5,143.5C 277.219,137.14 286.219,131.14 295.5,125.5 Z"/></g>
<g><path style="opacity:1" fill="#f41b1c" d="M 223.5,129.5 C 225.584,130.248 227.584,130.248 229.5,129.5C 235.143,130.799 237.143,134.132 235.5,139.5C 237.262,139.643 238.929,139.309 240.5,138.5C 241.833,140.833 243.167,143.167 244.5,145.5C 245.736,144.754 247.07,144.421 248.5,144.5C 249.771,145.685 250.771,147.685 251.5,150.5C 254.079,150.865 256.412,150.865 258.5,150.5C 260.858,150.747 262.858,150.081 264.5,148.5C 265.15,148.804 265.817,149.137 266.5,149.5C 267.64,146.684 269.64,145.018 272.5,144.5C 274.571,148.454 273.571,151.287 269.5,153C 270.357,153.689 271.023,154.522 271.5,155.5C 270.631,160.743 268.631,165.743 265.5,170.5C 263.747,172.223 261.747,173.723 259.5,175C 246.604,177.46 233.604,179.127 220.5,180C 218.256,180.05 216.589,180.883 215.5,182.5C 213.095,183.768 210.428,184.435 207.5,184.5C 205.167,184.5 202.833,184.5 200.5,184.5C 200.5,185.833 200.5,187.167 200.5,188.5C 195.665,190.09 191.665,192.923 188.5,197C 188.728,197.399 189.062,197.565 189.5,197.5C 188.833,198.167 188.167,198.833 187.5,199.5C 185.396,199.201 183.396,199.534 181.5,200.5C 180.644,204.638 180.644,208.972 181.5,213.5C 182.364,215.197 183.697,216.363 185.5,217C 189.027,217.808 192.36,217.641 195.5,216.5C 196.167,216.5 196.5,216.833 196.5,217.5C 196.918,218.222 197.584,218.722 198.5,219C 204.874,219.311 211.207,219.977 217.5,221C 218.471,222.481 219.804,223.315 221.5,223.5C 221.5,223.833 221.5,224.167 221.5,224.5C 220.945,231.704 221.778,238.704 224,245.5C 224.949,247.093 226.115,248.426 227.5,249.5C 227.833,249.5 228.167,249.5 228.5,249.5C 228.5,250.833 228.5,252.167 228.5,253.5C 229.791,253.263 230.791,253.596 231.5,254.5C 230.183,254.821 228.849,255.154 227.5,255.5C 225.575,253.027 223.742,253.027 222,255.5C 221.503,258.146 221.336,260.813 221.5,263.5C 220.167,263.5 218.833,263.5 217.5,263.5C 217.859,261.234 217.192,259.401 215.5,258C 217.405,257.174 217.739,256.007 216.5,254.5C 214.922,253.36 213.256,252.86 211.5,253C 211.107,255.042 211.107,256.875 211.5,258.5C 210.5,258.5 209.5,258.5 208.5,258.5C 206.364,252.739 205.03,246.739 204.5,240.5C 203.5,240.5 202.5,240.5 201.5,240.5C 199.052,239.527 196.385,239.194 193.5,239.5C 185.583,239.379 178.25,237.212 171.5,233C 168.577,230.584 166.243,227.75 164.5,224.5C 163.047,219.537 162.38,214.37 162.5,209C 162.667,205.833 162.833,202.667 163,199.5C 164.707,197.091 165.54,194.425 165.5,191.5C 165.5,190.833 165.833,190.5 166.5,190.5C 168.332,189.752 169.999,188.752 171.5,187.5C 172.482,186.859 173.482,186.193 174.5,185.5C 174.911,186.262 175.077,187.262 175,188.5C 176.353,187.315 177.52,185.981 178.5,184.5C 177.289,183.28 177.289,182.113 178.5,181C 182.749,179.874 187.082,179.208 191.5,179C 190.313,177.981 189.313,176.814 188.5,175.5C 189.322,172.34 191.322,170.673 194.5,170.5C 197.154,171.268 199.821,171.434 202.5,171C 200.939,170.059 199.605,168.892 198.5,167.5C 199.908,166.757 201.241,165.923 202.5,165C 212.125,163.075 221.791,161.408 231.5,160C 232.423,157.959 232.756,155.792 232.5,153.5C 234.167,153.5 235.833,153.5 237.5,153.5C 237.915,151.052 236.915,149.719 234.5,149.5C 232.675,150.651 230.675,151.318 228.5,151.5C 228.343,150.127 228.51,148.793 229,147.5C 231.515,148.291 233.349,147.291 234.5,144.5C 231.644,142.956 228.644,141.956 225.5,141.5C 225.286,143.144 225.62,144.644 226.5,146C 225.256,146.456 224.423,145.956 224,144.5C 222.844,145.993 222.01,145.826 221.5,144C 223.002,142.248 224.002,140.248 224.5,138C 222.042,134.471 221.042,134.971 221.5,139.5C 220.167,139.5 218.833,139.5 217.5,139.5C 217.5,137.833 217.5,136.167 217.5,134.5C 214.412,134.803 212.746,133.47 212.5,130.5C 216.463,130.662 220.13,131.662 223.5,133.5C 223.64,131.876 222.973,130.71 221.5,130C 222.094,129.536 222.761,129.369 223.5,129.5 Z"/></g>
<g><path style="opacity:0.549" fill="#c92a2a" d="M 440.5,139.5 C 444.702,140.18 448.036,142.347 450.5,146C 454.065,146.732 456.065,148.898 456.5,152.5C 450.557,148.887 445.223,144.554 440.5,139.5 Z"/></g>
<g><path style="opacity:0.024" fill="#ffaba9" d="M 480.5,144.5 C 481.833,145.167 482.833,146.167 483.5,147.5C 481.5,147.5 480.5,146.5 480.5,144.5 Z"/></g>
<g><path style="opacity:0.882" fill="#e75551" d="M 222.5,148.5 C 223.978,148.238 225.311,148.571 226.5,149.5C 227.961,151.517 229.294,153.517 230.5,155.5C 227.216,153.883 224.549,151.55 222.5,148.5 Z"/></g>
<g><path style="opacity:0.682" fill="#ed6e62" d="M 266.5,144.5 C 265.833,145.833 265.167,147.167 264.5,148.5C 262.858,150.081 260.858,150.747 258.5,150.5C 260.77,148.025 263.437,146.025 266.5,144.5 Z"/></g>
<g><path style="opacity:0.059" fill="#fcb1af" d="M 512.5,153.5 C 515.152,153.41 517.485,154.076 519.5,155.5C 516.848,155.59 514.515,154.924 512.5,153.5 Z"/></g>
<g><path style="opacity:0.322" fill="#b43837" d="M 456.5,152.5 C 461.801,156.466 466.801,160.8 471.5,165.5C 465.609,162.281 460.609,157.948 456.5,152.5 Z"/></g>
<g><path style="opacity:0.392" fill="#e46f68" d="M 519.5,155.5 C 526.356,157.028 531.023,161.028 533.5,167.5C 529.69,162.346 525.023,158.346 519.5,155.5 Z"/></g>
<g><path style="opacity:1" fill="#c92e29" d="M 290.5,154.5 C 285.368,159.235 279.701,163.235 273.5,166.5C 273.64,164.876 272.973,163.71 271.5,163C 272,162.5 272.5,162 273,161.5C 274.726,162.576 276.559,162.743 278.5,162C 281.89,158.428 285.89,155.928 290.5,154.5 Z"/></g>
<g><path style="opacity:0.125" fill="#e27170" d="M 210.5,161.5 C 204.593,162.765 198.926,164.765 193.5,167.5C 198.224,163.269 203.89,161.269 210.5,161.5 Z"/></g>
<g><path style="opacity:0.165" fill="#bc3332" d="M 471.5,165.5 C 477.684,168.294 484.017,170.627 490.5,172.5C 485.759,172.085 481.093,171.251 476.5,170C 474.34,169.004 472.673,167.504 471.5,165.5 Z"/></g>
<g><path style="opacity:0.827" fill="#c1282a" d="M 490.5,172.5 C 498.371,172.927 506.038,173.927 513.5,175.5C 511.167,175.5 508.833,175.5 506.5,175.5C 500.905,175.246 495.572,174.246 490.5,172.5 Z"/></g>
<g><path style="opacity:0.91" fill="#c12c28" d="M 271.5,168.5 C 267.511,172.296 262.845,175.129 257.5,177C 243.587,179.522 229.587,181.356 215.5,182.5C 216.589,180.883 218.256,180.05 220.5,180C 233.604,179.127 246.604,177.46 259.5,175C 261.747,173.723 263.747,172.223 265.5,170.5C 267.282,169.28 269.282,168.614 271.5,168.5 Z"/></g>
<g><path style="opacity:0.495" fill="#e25650" d="M 533.5,167.5 C 534.29,168.609 534.79,169.942 535,171.5C 535.667,191.833 535.667,212.167 535,232.5C 533.334,235.331 531.168,237.664 528.5,239.5C 528.579,238.07 528.246,236.736 527.5,235.5C 529.045,234.548 530.712,234.215 532.5,234.5C 532.5,232.833 532.5,231.167 532.5,229.5C 533.497,209.007 533.831,188.34 533.5,167.5 Z"/></g>
<g><path style="opacity:0.992" fill="#c32c2a" d="M 207.5,184.5 C 201.523,188.801 195.523,193.135 189.5,197.5C 189.062,197.565 188.728,197.399 188.5,197C 191.665,192.923 195.665,190.09 200.5,188.5C 200.5,187.167 200.5,185.833 200.5,184.5C 202.833,184.5 205.167,184.5 207.5,184.5 Z"/></g>
<g><path style="opacity:0.6" fill="#eb6f6c" d="M 176.5,180.5 C 174.42,182.573 172.754,184.907 171.5,187.5C 169.999,188.752 168.332,189.752 166.5,190.5C 168.806,186.194 172.139,182.861 176.5,180.5 Z"/></g>
<g><path style="opacity:0.043" fill="#8f4545" d="M 506.5,175.5 C 508.833,175.5 511.167,175.5 513.5,175.5C 513.829,190.01 513.496,204.343 512.5,218.5C 512.5,204.5 512.5,190.5 512.5,176.5C 510.265,176.795 508.265,176.461 506.5,175.5 Z"/></g>
<g><path style="opacity:0.757" fill="#da4b45" d="M 165.5,191.5 C 165.54,194.425 164.707,197.091 163,199.5C 162.833,202.667 162.667,205.833 162.5,209C 162.38,214.37 163.047,219.537 164.5,224.5C 162.59,223.025 161.424,221.025 161,218.5C 160.333,212.167 160.333,205.833 161,199.5C 162.26,196.641 163.76,193.974 165.5,191.5 Z"/></g>
<g><path style="opacity:0.965" fill="#c52e2b" d="M 187.5,199.5 C 179.089,210.346 181.756,216.013 195.5,216.5C 192.36,217.641 189.027,217.808 185.5,217C 183.697,216.363 182.364,215.197 181.5,213.5C 180.644,208.972 180.644,204.638 181.5,200.5C 183.396,199.534 185.396,199.201 187.5,199.5 Z"/></g>
<g><path style="opacity:0.356" fill="#bb3433" d="M 196.5,217.5 C 204.035,216.927 211.368,217.761 218.5,220C 219.71,221.039 220.71,222.206 221.5,223.5C 219.804,223.315 218.471,222.481 217.5,221C 211.207,219.977 204.874,219.311 198.5,219C 197.584,218.722 196.918,218.222 196.5,217.5 Z"/></g>
<g><path style="opacity:0.681" fill="#c2322f" d="M 439.5,248.5 C 436.406,246.201 434.406,243.201 433.5,239.5C 432.938,233.432 431.938,227.432 430.5,221.5C 377.859,220.18 325.192,220.18 272.5,221.5C 271.139,223.028 269.972,224.695 269,226.5C 268.667,231.5 268.333,236.5 268,241.5C 264.199,246.766 260.366,251.766 256.5,256.5C 247.989,259.006 239.656,258.34 231.5,254.5C 230.791,253.596 229.791,253.263 228.5,253.5C 228.5,252.167 228.5,250.833 228.5,249.5C 238.036,257.424 248.036,258.091 258.5,251.5C 265.613,244.327 268.446,235.66 267,225.5C 267.786,222.417 269.619,220.251 272.5,219C 324.5,218.333 376.5,218.333 428.5,219C 431,220.167 432.833,222 434,224.5C 435.161,229.416 435.827,234.416 436,239.5C 437.18,242.521 438.346,245.521 439.5,248.5 Z"/></g>
<g><path style="opacity:0.669" fill="#bf2d2b" d="M 513.5,175.5 C 514.496,189.99 514.829,204.657 514.5,219.5C 504.577,220.309 494.577,220.809 484.5,221C 483.529,222.481 482.196,223.315 480.5,223.5C 481.259,221.569 482.593,220.069 484.5,219C 493.827,218.5 503.161,218.334 512.5,218.5C 513.496,204.343 513.829,190.01 513.5,175.5 Z"/></g>
<g><path style="opacity:1" fill="#f31a1b" d="M 433.5,239.5 C 433.187,242.572 433.854,245.405 435.5,248C 434.728,249.221 433.728,250.221 432.5,251C 433.448,251.483 434.448,251.649 435.5,251.5C 435.357,254.671 435.857,257.671 437,260.5C 434.455,259.203 431.955,259.369 429.5,261C 434.299,260.792 436.132,262.959 435,267.5C 433.601,266.773 432.101,266.273 430.5,266C 429.705,262.263 427.372,260.43 423.5,260.5C 423.36,258.876 424.027,257.71 425.5,257C 424.207,256.51 422.873,256.343 421.5,256.5C 421.625,253.392 420.292,251.392 417.5,250.5C 416.597,247.609 416.264,244.609 416.5,241.5C 415.5,241.5 414.5,241.5 413.5,241.5C 371.337,240.501 329.003,240.168 286.5,240.5C 285.419,245.573 284.086,250.573 282.5,255.5C 280.774,255.185 279.107,255.019 277.5,255C 278.406,256.699 278.739,258.533 278.5,260.5C 276.876,260.36 275.71,261.027 275,262.5C 273.984,261.366 273.317,261.699 273,263.5C 272.667,262.833 272.333,262.167 272,261.5C 271.667,262.833 271.333,264.167 271,265.5C 269.164,263.396 266.998,263.062 264.5,264.5C 263.5,266.167 262.167,267.5 260.5,268.5C 261.04,269.748 261.707,270.915 262.5,272C 260.323,273.202 257.989,273.702 255.5,273.5C 255.5,274.5 255.5,275.5 255.5,276.5C 247.021,276.95 238.688,276.283 230.5,274.5C 227.994,273.25 225.327,272.584 222.5,272.5C 219.63,271.567 217.296,269.9 215.5,267.5C 213.92,264.668 212.587,261.668 211.5,258.5C 211.107,256.875 211.107,255.042 211.5,253C 213.256,252.86 214.922,253.36 216.5,254.5C 217.739,256.007 217.405,257.174 215.5,258C 217.192,259.401 217.859,261.234 217.5,263.5C 218.833,263.5 220.167,263.5 221.5,263.5C 221.336,260.813 221.503,258.146 222,255.5C 223.742,253.027 225.575,253.027 227.5,255.5C 228.849,255.154 230.183,254.821 231.5,254.5C 239.656,258.34 247.989,259.006 256.5,256.5C 260.366,251.766 264.199,246.766 268,241.5C 268.333,236.5 268.667,231.5 269,226.5C 269.972,224.695 271.139,223.028 272.5,221.5C 325.192,220.18 377.859,220.18 430.5,221.5C 431.938,227.432 432.938,233.432 433.5,239.5 Z"/></g>
<g><path style="opacity:0.149" fill="#b42d2e" d="M 221.5,224.5 C 221.709,233.199 223.709,241.532 227.5,249.5C 226.115,248.426 224.949,247.093 224,245.5C 221.778,238.704 220.945,231.704 221.5,224.5 Z"/></g>
<g><path style="opacity:0.012" fill="#f99f9e" d="M 193.5,239.5 C 196.385,239.194 199.052,239.527 201.5,240.5C 201.5,241.167 201.5,241.833 201.5,242.5C 198.972,241.065 196.305,240.065 193.5,239.5 Z"/></g>
<g><path style="opacity:0.741" fill="#ba3b3a" d="M 478.5,226.5 C 479.816,232.013 479.816,237.68 478.5,243.5C 477.817,243.863 477.15,244.196 476.5,244.5C 478.233,238.654 478.9,232.654 478.5,226.5 Z"/></g>
<g><path style="opacity:0.812" fill="#df443f" d="M 413.5,241.5 C 414.5,241.5 415.5,241.5 416.5,241.5C 416.264,244.609 416.597,247.609 417.5,250.5C 419.035,252.968 420.035,255.635 420.5,258.5C 415.726,253.938 413.392,248.271 413.5,241.5 Z"/></g>
<g><path style="opacity:0.69" fill="#e3524b" d="M 500.5,241.5 C 499.704,248.744 497.037,255.077 492.5,260.5C 494.318,255.226 495.818,249.893 497,244.5C 497.333,244.833 497.667,245.167 498,245.5C 498.122,243.563 498.955,242.23 500.5,241.5 Z"/></g>
<g><path style="opacity:1" fill="#f41d1d" d="M 532.5,229.5 C 532.5,231.167 532.5,232.833 532.5,234.5C 530.712,234.215 529.045,234.548 527.5,235.5C 528.246,236.736 528.579,238.07 528.5,239.5C 527.737,240.268 526.737,240.768 525.5,241C 517.173,241.5 508.84,241.666 500.5,241.5C 498.955,242.23 498.122,243.563 498,245.5C 497.667,245.167 497.333,244.833 497,244.5C 495.818,249.893 494.318,255.226 492.5,260.5C 492.5,261.167 492.167,261.5 491.5,261.5C 491.657,260.127 491.49,258.793 491,257.5C 488.506,258.991 486.006,260.491 483.5,262C 484.253,263.487 485.086,263.654 486,262.5C 486.483,263.448 486.649,264.448 486.5,265.5C 484.738,265.643 483.071,265.309 481.5,264.5C 481.255,266.317 481.255,267.984 481.5,269.5C 477.327,271.73 472.327,273.73 466.5,275.5C 461.208,276.495 455.875,276.828 450.5,276.5C 447.14,276.384 443.807,276.051 440.5,275.5C 439.833,275.5 439.5,275.167 439.5,274.5C 438.365,273.526 437.365,272.359 436.5,271C 431.344,270.089 427.678,267.256 425.5,262.5C 424.583,261.873 423.583,261.539 422.5,261.5C 421.094,261.027 420.427,260.027 420.5,258.5C 420.035,255.635 419.035,252.968 417.5,250.5C 420.292,251.392 421.625,253.392 421.5,256.5C 422.873,256.343 424.207,256.51 425.5,257C 424.027,257.71 423.36,258.876 423.5,260.5C 427.372,260.43 429.705,262.263 430.5,266C 432.101,266.273 433.601,266.773 435,267.5C 436.132,262.959 434.299,260.792 429.5,261C 431.955,259.369 434.455,259.203 437,260.5C 435.857,257.671 435.357,254.671 435.5,251.5C 434.448,251.649 433.448,251.483 432.5,251C 433.728,250.221 434.728,249.221 435.5,248C 433.854,245.405 433.187,242.572 433.5,239.5C 434.406,243.201 436.406,246.201 439.5,248.5C 441.021,252.115 443.687,254.615 447.5,256C 450.039,256.796 452.372,256.629 454.5,255.5C 464.017,256.339 471.351,252.673 476.5,244.5C 477.15,244.196 477.817,243.863 478.5,243.5C 479.816,237.68 479.816,232.013 478.5,226.5C 478.932,225.29 479.599,224.29 480.5,223.5C 482.196,223.315 483.529,222.481 484.5,221C 494.577,220.809 504.577,220.309 514.5,219.5C 515.397,220.598 516.23,220.598 517,219.5C 518.661,215.461 518.328,211.794 516,208.5C 515.152,200.368 515.819,192.368 518,184.5C 519.011,183.663 520.178,183.33 521.5,183.5C 521.708,185.92 521.374,188.253 520.5,190.5C 521.274,191.711 522.107,191.711 523,190.5C 523.186,188.1 523.686,185.766 524.5,183.5C 528.357,182.093 529.857,179.426 529,175.5C 528.55,178.106 527.05,179.439 524.5,179.5C 524.5,178.167 524.5,176.833 524.5,175.5C 527.036,174.651 529.536,173.651 532,172.5C 532.667,181.833 532.667,191.167 532,200.5C 531.667,200.833 531.333,201.167 531,201.5C 530.138,199.913 529.471,198.246 529,196.5C 528.667,197.833 528.333,199.167 528,200.5C 527.667,197.833 527.333,195.167 527,192.5C 526.333,197.167 526.333,201.833 527,206.5C 527.308,205.692 527.808,205.025 528.5,204.5C 529.736,205.246 531.07,205.579 532.5,205.5C 532.5,213.5 532.5,221.5 532.5,229.5 Z"/></g>
<g><path style="opacity:0.337" fill="#b7312f" d="M 439.5,248.5 C 443.606,252.719 448.606,255.052 454.5,255.5C 452.372,256.629 450.039,256.796 447.5,256C 443.687,254.615 441.021,252.115 439.5,248.5 Z"/></g>
<g><path style="opacity:0.969" fill="#e4403a" d="M 201.5,240.5 C 202.5,240.5 203.5,240.5 204.5,240.5C 205.03,246.739 206.364,252.739 208.5,258.5C 209.5,258.5 210.5,258.5 211.5,258.5C 212.587,261.668 213.92,264.668 215.5,267.5C 207.466,261.103 202.799,252.769 201.5,242.5C 201.5,241.833 201.5,241.167 201.5,240.5 Z"/></g>
<g><path style="opacity:0.999" fill="#eb3b33" d="M 491.5,261.5 C 490.118,264.394 488.118,266.894 485.5,269C 481.925,271.954 477.925,274.121 473.5,275.5C 471.219,275.077 469.552,275.744 468.5,277.5C 462.31,277.823 456.31,277.49 450.5,276.5C 455.875,276.828 461.208,276.495 466.5,275.5C 472.327,273.73 477.327,271.73 481.5,269.5C 481.255,267.984 481.255,266.317 481.5,264.5C 483.071,265.309 484.738,265.643 486.5,265.5C 486.649,264.448 486.483,263.448 486,262.5C 485.086,263.654 484.253,263.487 483.5,262C 486.006,260.491 488.506,258.991 491,257.5C 491.49,258.793 491.657,260.127 491.5,261.5 Z"/></g>
<g><path style="opacity:1" fill="#f25b4e" d="M 413.5,241.5 C 371.5,241.5 329.5,241.5 287.5,241.5C 287.074,251.017 283.407,259.017 276.5,265.5C 274.596,265.738 273.262,266.738 272.5,268.5C 261.372,278.322 248.705,281.322 234.5,277.5C 233.167,276.5 231.833,275.5 230.5,274.5C 238.688,276.283 247.021,276.95 255.5,276.5C 255.5,275.5 255.5,274.5 255.5,273.5C 257.989,273.702 260.323,273.202 262.5,272C 261.707,270.915 261.04,269.748 260.5,268.5C 262.167,267.5 263.5,266.167 264.5,264.5C 266.998,263.062 269.164,263.396 271,265.5C 271.333,264.167 271.667,262.833 272,261.5C 272.333,262.167 272.667,262.833 273,263.5C 273.317,261.699 273.984,261.366 275,262.5C 275.71,261.027 276.876,260.36 278.5,260.5C 278.739,258.533 278.406,256.699 277.5,255C 279.107,255.019 280.774,255.185 282.5,255.5C 284.086,250.573 285.419,245.573 286.5,240.5C 329.003,240.168 371.337,240.501 413.5,241.5 Z"/></g>
<g><path style="opacity:0.318" fill="#e2534d" d="M 422.5,261.5 C 423.583,261.539 424.583,261.873 425.5,262.5C 427.678,267.256 431.344,270.089 436.5,271C 437.365,272.359 438.365,273.526 439.5,274.5C 432.175,272.337 426.508,268.004 422.5,261.5 Z"/></g>
<g><path style="opacity:0.008" fill="#faa8a5" d="M 276.5,265.5 C 275.738,267.262 274.404,268.262 272.5,268.5C 273.262,266.738 274.596,265.738 276.5,265.5 Z"/></g>
<g><path style="opacity:0.678" fill="#e0615c" d="M 222.5,272.5 C 225.327,272.584 227.994,273.25 230.5,274.5C 231.833,275.5 233.167,276.5 234.5,277.5C 229.999,276.913 225.999,275.246 222.5,272.5 Z"/></g>
<g><path style="opacity:0.275" fill="#ef8b85" d="M 473.5,275.5 C 472.22,276.931 470.553,277.598 468.5,277.5C 469.552,275.744 471.219,275.077 473.5,275.5 Z"/></g>
<g><path style="opacity:0.249" fill="#e06c68" d="M 440.5,275.5 C 443.807,276.051 447.14,276.384 450.5,276.5C 456.31,277.49 462.31,277.823 468.5,277.5C 458.942,280.412 449.609,279.745 440.5,275.5 Z"/></g>
</svg>
