<?xml version="1.0" encoding="UTF-8"?>
<!DOCTYPE svg PUBLIC "-//W3C//DTD SVG 1.1//EN" "http://www.w3.org/Graphics/SVG/1.1/DTD/svg11.dtd">
<svg xmlns="http://www.w3.org/2000/svg" version="1.1" width="532px" height="469px" style="shape-rendering:geometricPrecision; text-rendering:geometricPrecision; image-rendering:optimizeQuality; fill-rule:evenodd; clip-rule:evenodd" xmlns:xlink="http://www.w3.org/1999/xlink">
<g><path style="opacity:0.659" fill="#c2473a" d="M 252.5,90.5 C 249.995,92.0114 247.328,93.3447 244.5,94.5C 242.453,96.0745 240.119,97.0745 237.5,97.5C 241.597,93.4568 246.597,91.1234 252.5,90.5 Z"/></g>
<g><path style="opacity:1" fill="#d91e12" d="M 264.5,90.5 C 266.86,92.5013 269.527,94.1679 272.5,95.5C 271.359,96.4255 271.359,97.2588 272.5,98C 269.185,97.3412 265.685,96.8412 262,96.5C 257.867,96.2857 254.034,96.9524 250.5,98.5C 249.833,98.5 249.167,98.5 248.5,98.5C 244.509,99.128 243.176,97.7947 244.5,94.5C 247.328,93.3447 249.995,92.0114 252.5,90.5C 256.399,89.2092 260.399,89.2092 264.5,90.5 Z"/></g>
<g><path style="opacity:1" fill="#ca3224" d="M 264.5,90.5 C 272.493,90.9931 278.826,94.3265 283.5,100.5C 282.022,100.762 280.689,100.429 279.5,99.5C 276.792,95.5195 274.792,95.8528 273.5,100.5C 270.692,99.0712 267.692,98.4045 264.5,98.5C 260.833,98.5 257.167,98.5 253.5,98.5C 252.5,98.5 251.5,98.5 250.5,98.5C 254.034,96.9524 257.867,96.2857 262,96.5C 265.685,96.8412 269.185,97.3412 272.5,98C 271.359,97.2588 271.359,96.4255 272.5,95.5C 269.527,94.1679 266.86,92.5013 264.5,90.5 Z"/></g>
<g><path style="opacity:1" fill="#cd2017" d="M 244.5,94.5 C 243.176,97.7947 244.509,99.128 248.5,98.5C 246.123,99.8873 243.457,100.721 240.5,101C 240.833,101.333 241.167,101.667 241.5,102C 235.569,104.911 232.902,109.744 233.5,116.5C 232.778,116.918 232.278,117.584 232,118.5C 231.333,122.833 231.333,127.167 232,131.5C 232.383,132.056 232.883,132.389 233.5,132.5C 233.5,132.833 233.5,133.167 233.5,133.5C 233.366,135.292 233.699,136.958 234.5,138.5C 233.044,136.63 231.711,134.63 230.5,132.5C 230.334,126.824 230.501,121.157 231,115.5C 232.731,113.138 233.565,110.471 233.5,107.5C 230.287,108.164 228.121,110.164 227,113.5C 226.269,121.202 226.436,128.869 227.5,136.5C 226.833,135.833 226.167,135.167 225.5,134.5C 224.347,128.347 224.18,122.014 225,115.5C 225.663,111.965 227.163,108.965 229.5,106.5C 232.392,103.729 235.058,100.729 237.5,97.5C 240.119,97.0745 242.453,96.0745 244.5,94.5 Z"/></g>
<g><path style="opacity:0.98" fill="#d35b4c" d="M 264.5,98.5 C 267.692,98.4045 270.692,99.0712 273.5,100.5C 276.747,101.412 279.08,103.412 280.5,106.5C 280.5,107.167 280.5,107.833 280.5,108.5C 276.099,103.635 270.765,100.302 264.5,98.5 Z"/></g>
<g><path style="opacity:0.471" fill="#ce5e55" d="M 237.5,97.5 C 235.058,100.729 232.392,103.729 229.5,106.5C 231.022,102.436 233.689,99.436 237.5,97.5 Z"/></g>
<g><path style="opacity:1" fill="#da0607" d="M 283.5,100.5 C 283.833,100.5 284.167,100.5 284.5,100.5C 284.394,103.079 285.061,105.412 286.5,107.5C 284.5,107.167 282.5,106.833 280.5,106.5C 279.08,103.412 276.747,101.412 273.5,100.5C 274.792,95.8528 276.792,95.5195 279.5,99.5C 280.689,100.429 282.022,100.762 283.5,100.5 Z"/></g>
<g><path style="opacity:1" fill="#da5345" d="M 248.5,98.5 C 249.167,98.5 249.833,98.5 250.5,98.5C 251.5,98.5 252.5,98.5 253.5,98.5C 243.869,101.299 237.202,107.299 233.5,116.5C 232.902,109.744 235.569,104.911 241.5,102C 241.167,101.667 240.833,101.333 240.5,101C 243.457,100.721 246.123,99.8873 248.5,98.5 Z"/></g>
<g><path style="opacity:0.988" fill="#ce453c" d="M 284.5,100.5 C 292.8,109.699 295.467,120.366 292.5,132.5C 292.666,127.489 292.499,122.489 292,117.5C 291.617,116.944 291.117,116.611 290.5,116.5C 290.518,112.871 289.184,109.871 286.5,107.5C 285.061,105.412 284.394,103.079 284.5,100.5 Z"/></g>
<g><path style="opacity:1" fill="#d80609" d="M 280.5,106.5 C 282.5,106.833 284.5,107.167 286.5,107.5C 289.184,109.871 290.518,112.871 290.5,116.5C 289.5,116.5 288.5,116.5 287.5,116.5C 287.464,120.45 288.131,124.283 289.5,128C 289.389,129.722 288.889,129.888 288,128.5C 287.79,126.942 287.29,125.609 286.5,124.5C 286.665,120.818 286.499,117.152 286,113.5C 284.982,111.072 283.148,109.738 280.5,109.5C 280.5,109.167 280.5,108.833 280.5,108.5C 280.5,107.833 280.5,107.167 280.5,106.5 Z"/></g>
<g><path style="opacity:1" fill="#d60605" d="M 290.5,116.5 C 291.117,116.611 291.617,116.944 292,117.5C 292.499,122.489 292.666,127.489 292.5,132.5C 290.914,134.081 289.914,136.081 289.5,138.5C 288.675,139.386 287.675,139.719 286.5,139.5C 286.5,134.5 286.5,129.5 286.5,124.5C 287.29,125.609 287.79,126.942 288,128.5C 288.889,129.888 289.389,129.722 289.5,128C 288.131,124.283 287.464,120.45 287.5,116.5C 288.5,116.5 289.5,116.5 290.5,116.5 Z"/></g>
<g><path style="opacity:1" fill="#d90303" d="M 230.5,132.5 C 229.974,134.23 228.974,135.564 227.5,136.5C 226.436,128.869 226.269,121.202 227,113.5C 228.121,110.164 230.287,108.164 233.5,107.5C 233.565,110.471 232.731,113.138 231,115.5C 230.501,121.157 230.334,126.824 230.5,132.5 Z"/></g>
<g><path style="opacity:0.149" fill="#cd5a54" d="M 233.5,116.5 C 232.225,121.847 232.225,127.18 233.5,132.5C 232.883,132.389 232.383,132.056 232,131.5C 231.333,127.167 231.333,122.833 232,118.5C 232.278,117.584 232.778,116.918 233.5,116.5 Z"/></g>
<g><path style="opacity:1" fill="#d0291d" d="M 349.5,134.5 C 349.833,135.833 350.167,137.167 350.5,138.5C 347.293,139.791 346.126,138.791 347,135.5C 346,135.167 345,134.833 344,134.5C 343.5,135 343,135.5 342.5,136C 344.628,137.743 345.461,139.909 345,142.5C 343.164,145.17 340.664,146.837 337.5,147.5C 338.932,144.898 340.932,142.731 343.5,141C 340.882,138.894 338.882,136.394 337.5,133.5C 336.833,132.833 336.167,132.167 335.5,131.5C 339.457,129.37 339.457,127.37 335.5,125.5C 332.945,125.722 331.278,127.055 330.5,129.5C 329.311,130.429 327.978,130.762 326.5,130.5C 328.957,127.017 332.124,124.35 336,122.5C 337.067,123.191 338.234,123.691 339.5,124C 342.335,128.001 345.668,131.501 349.5,134.5 Z"/></g>
<g><path style="opacity:1" fill="#d5150c" d="M 230.5,132.5 C 231.711,134.63 233.044,136.63 234.5,138.5C 236.602,141.861 238.602,145.361 240.5,149C 239.095,150.269 237.429,150.769 235.5,150.5C 231.779,148.102 229.112,144.768 227.5,140.5C 227.5,139.167 227.5,137.833 227.5,136.5C 228.974,135.564 229.974,134.23 230.5,132.5 Z"/></g>
<g><path style="opacity:0.31" fill="#d5837c" d="M 285.5,129.5 C 285.741,131.898 285.074,133.898 283.5,135.5C 283.595,133.214 284.262,131.214 285.5,129.5 Z"/></g>
<g><path style="opacity:1" fill="#d80505" d="M 335.5,131.5 C 332.694,132.712 330.194,134.379 328,136.5C 327.667,136.167 327.333,135.833 327,135.5C 326.506,137.134 326.34,138.801 326.5,140.5C 325.5,140.5 324.5,140.5 323.5,140.5C 323.077,139.735 322.743,138.902 322.5,138C 324.498,135.836 325.832,133.336 326.5,130.5C 327.978,130.762 329.311,130.429 330.5,129.5C 331.278,127.055 332.945,125.722 335.5,125.5C 339.457,127.37 339.457,129.37 335.5,131.5 Z"/></g>
<g><path style="opacity:1" fill="#d44735" d="M 335.5,131.5 C 336.167,132.167 336.833,132.833 337.5,133.5C 336.417,133.539 335.417,133.873 334.5,134.5C 330.48,138.189 326.48,141.855 322.5,145.5C 322.216,143.585 322.549,141.919 323.5,140.5C 324.5,140.5 325.5,140.5 326.5,140.5C 326.34,138.801 326.506,137.134 327,135.5C 327.333,135.833 327.667,136.167 328,136.5C 330.194,134.379 332.694,132.712 335.5,131.5 Z"/></g>
<g><path style="opacity:0.165" fill="#e68687" d="M 225.5,134.5 C 226.167,135.167 226.833,135.833 227.5,136.5C 227.5,137.833 227.5,139.167 227.5,140.5C 226.262,138.786 225.595,136.786 225.5,134.5 Z"/></g>
<g><path style="opacity:1" fill="#cf2e22" d="M 280.5,109.5 C 283.148,109.738 284.982,111.072 286,113.5C 286.499,117.152 286.665,120.818 286.5,124.5C 286.5,129.5 286.5,134.5 286.5,139.5C 287.675,139.719 288.675,139.386 289.5,138.5C 289.914,136.081 290.914,134.081 292.5,132.5C 291.945,138.943 289.278,144.277 284.5,148.5C 284.5,146.167 284.5,143.833 284.5,141.5C 283.167,141.5 281.833,141.5 280.5,141.5C 281.471,139.517 282.471,137.517 283.5,135.5C 285.074,133.898 285.741,131.898 285.5,129.5C 286.27,122.159 284.604,115.492 280.5,109.5 Z"/></g>
<g><path style="opacity:1" fill="#d60606" d="M 350.5,138.5 C 351.461,140.265 351.795,142.265 351.5,144.5C 348.54,143.151 346.873,144.151 346.5,147.5C 344.278,147.178 342.444,147.845 341,149.5C 339.175,151.48 338.341,153.813 338.5,156.5C 336.712,156.215 335.045,156.548 333.5,157.5C 332.717,159.288 331.384,160.288 329.5,160.5C 329.5,159.5 329.5,158.5 329.5,157.5C 333.304,155.034 335.971,151.701 337.5,147.5C 340.664,146.837 343.164,145.17 345,142.5C 345.461,139.909 344.628,137.743 342.5,136C 343,135.5 343.5,135 344,134.5C 345,134.833 346,135.167 347,135.5C 346.126,138.791 347.293,139.791 350.5,138.5 Z"/></g>
<g><path style="opacity:0.827" fill="#d16a63" d="M 349.5,134.5 C 352.79,136.639 353.957,139.639 353,143.5C 352.617,144.056 352.117,144.389 351.5,144.5C 351.795,142.265 351.461,140.265 350.5,138.5C 350.167,137.167 349.833,135.833 349.5,134.5 Z"/></g>
<g><path style="opacity:1" fill="#d50e0a" d="M 312.5,155.5 C 312.5,156.167 312.167,156.5 311.5,156.5C 310.508,156.672 309.842,156.338 309.5,155.5C 309.189,154.522 308.522,153.855 307.5,153.5C 305.925,154.456 304.258,155.123 302.5,155.5C 306.869,152.131 310.536,148.131 313.5,143.5C 316.285,143.067 318.619,141.734 320.5,139.5C 321.466,141.396 321.799,143.396 321.5,145.5C 319.774,145.185 318.107,145.019 316.5,145C 317.196,146.488 316.862,147.988 315.5,149.5C 315.167,148.833 314.833,148.167 314.5,147.5C 313.618,148.76 312.618,149.926 311.5,151C 312.38,152.356 312.714,153.856 312.5,155.5 Z"/></g>
<g><path style="opacity:1" fill="#d51910" d="M 280.5,141.5 C 281.833,141.5 283.167,141.5 284.5,141.5C 284.5,143.833 284.5,146.167 284.5,148.5C 281.52,148.241 279.687,149.574 279,152.5C 276.853,151.887 274.686,151.221 272.5,150.5C 273.193,149.482 273.859,148.482 274.5,147.5C 275.833,144.833 277.833,142.833 280.5,141.5 Z"/></g>
<g><path style="opacity:1" fill="#d23c2d" d="M 326.5,130.5 C 325.832,133.336 324.498,135.836 322.5,138C 322.743,138.902 323.077,139.735 323.5,140.5C 322.549,141.919 322.216,143.585 322.5,145.5C 319.5,149.167 316.167,152.5 312.5,155.5C 312.714,153.856 312.38,152.356 311.5,151C 312.618,149.926 313.618,148.76 314.5,147.5C 314.833,148.167 315.167,148.833 315.5,149.5C 316.862,147.988 317.196,146.488 316.5,145C 318.107,145.019 319.774,145.185 321.5,145.5C 321.799,143.396 321.466,141.396 320.5,139.5C 318.619,141.734 316.285,143.067 313.5,143.5C 317.5,138.833 321.833,134.5 326.5,130.5 Z"/></g>
<g><path style="opacity:1" fill="#d84d3b" d="M 351.5,144.5 C 344.473,152.194 337.14,159.527 329.5,166.5C 329.5,164.5 329.5,162.5 329.5,160.5C 331.384,160.288 332.717,159.288 333.5,157.5C 335.045,156.548 336.712,156.215 338.5,156.5C 338.341,153.813 339.175,151.48 341,149.5C 342.444,147.845 344.278,147.178 346.5,147.5C 346.873,144.151 348.54,143.151 351.5,144.5 Z"/></g>
<g><path style="opacity:0.576" fill="#cd5550" d="M 313.5,143.5 C 310.536,148.131 306.869,152.131 302.5,155.5C 302.167,155.5 301.833,155.5 301.5,155.5C 305.091,151.242 309.091,147.242 313.5,143.5 Z"/></g>
<g><path style="opacity:1" fill="#d35142" d="M 274.5,147.5 C 273.859,148.482 273.193,149.482 272.5,150.5C 274.686,151.221 276.853,151.887 279,152.5C 279.687,149.574 281.52,148.241 284.5,148.5C 282.539,150.963 280.372,153.297 278,155.5C 277.175,159.211 277.341,162.878 278.5,166.5C 280.145,167.696 281.811,168.696 283.5,169.5C 280.579,169.854 278.246,168.854 276.5,166.5C 275.583,163.242 275.249,159.909 275.5,156.5C 276.234,155.292 276.567,153.959 276.5,152.5C 274.234,152.141 272.401,152.808 271,154.5C 270.333,158.833 270.333,163.167 271,167.5C 271.383,168.056 271.883,168.389 272.5,168.5C 272.629,170.216 272.962,171.883 273.5,173.5C 272.206,172.71 271.039,171.71 270,170.5C 267.08,164.117 267.08,157.784 270,151.5C 270.876,149.365 272.376,148.031 274.5,147.5 Z"/></g>
<g><path style="opacity:1" fill="#d0261c" d="M 233.5,133.5 C 236.26,140.11 240.76,145.444 247,149.5C 247.608,151.154 248.108,152.821 248.5,154.5C 248.5,156.167 248.5,157.833 248.5,159.5C 246.955,158.77 246.122,157.437 246,155.5C 245.259,156.641 244.425,156.641 243.5,155.5C 242.832,157.969 242.165,160.302 241.5,162.5C 241.477,160.073 240.977,157.74 240,155.5C 238.293,153.963 236.793,152.296 235.5,150.5C 237.429,150.769 239.095,150.269 240.5,149C 238.602,145.361 236.602,141.861 234.5,138.5C 233.699,136.958 233.366,135.292 233.5,133.5 Z"/></g>
<g><path style="opacity:1" fill="#d70607" d="M 309.5,155.5 C 308.5,155.5 307.5,155.5 306.5,155.5C 306.5,157.167 306.5,158.833 306.5,160.5C 304.071,160.884 301.737,161.551 299.5,162.5C 299.5,164.5 299.5,166.5 299.5,168.5C 297.71,166.111 295.71,165.945 293.5,168C 295.932,169.087 295.598,169.587 292.5,169.5C 292.5,170.5 292.5,171.5 292.5,172.5C 291.5,172.5 290.5,172.5 289.5,172.5C 289.5,171.167 288.833,170.5 287.5,170.5C 287.5,169.833 287.5,169.167 287.5,168.5C 290.86,166.787 294.193,165.12 297.5,163.5C 298.382,160.615 299.716,157.948 301.5,155.5C 301.833,155.5 302.167,155.5 302.5,155.5C 304.258,155.123 305.925,154.456 307.5,153.5C 308.522,153.855 309.189,154.522 309.5,155.5 Z"/></g>
<g><path style="opacity:1" fill="#d64434" d="M 309.5,155.5 C 309.842,156.338 310.508,156.672 311.5,156.5C 307.833,160.833 303.833,164.833 299.5,168.5C 299.5,166.5 299.5,164.5 299.5,162.5C 301.737,161.551 304.071,160.884 306.5,160.5C 306.5,158.833 306.5,157.167 306.5,155.5C 307.5,155.5 308.5,155.5 309.5,155.5 Z"/></g>
<g><path style="opacity:1" fill="#d90303" d="M 275.5,156.5 C 274.204,160.369 274.204,164.369 275.5,168.5C 274.575,169.562 273.575,169.562 272.5,168.5C 271.883,168.389 271.383,168.056 271,167.5C 270.333,163.167 270.333,158.833 271,154.5C 272.401,152.808 274.234,152.141 276.5,152.5C 276.567,153.959 276.234,155.292 275.5,156.5 Z"/></g>
<g><path style="opacity:1" fill="#d4150c" d="M 329.5,157.5 C 329.5,158.5 329.5,159.5 329.5,160.5C 329.5,162.5 329.5,164.5 329.5,166.5C 327.833,167.833 326.167,169.167 324.5,170.5C 323.167,169.833 321.833,169.167 320.5,168.5C 322.768,164.336 325.768,160.67 329.5,157.5 Z"/></g>
<g><path style="opacity:1" fill="#d40706" d="M 248.5,159.5 C 248.59,162.152 247.924,164.485 246.5,166.5C 244.714,164.078 243.048,164.078 241.5,166.5C 241.5,165.5 241.5,164.5 241.5,163.5C 241.5,163.167 241.5,162.833 241.5,162.5C 242.165,160.302 242.832,157.969 243.5,155.5C 244.425,156.641 245.259,156.641 246,155.5C 246.122,157.437 246.955,158.77 248.5,159.5 Z"/></g>
<g><path style="opacity:1" fill="#ca3a31" d="M 337.5,147.5 C 335.971,151.701 333.304,155.034 329.5,157.5C 325.768,160.67 322.768,164.336 320.5,168.5C 317.892,168.4 315.558,169.067 313.5,170.5C 320.914,162.083 328.914,154.416 337.5,147.5 Z"/></g>
<g><path style="opacity:0.855" fill="#c9483b" d="M 301.5,155.5 C 299.716,157.948 298.382,160.615 297.5,163.5C 294.193,165.12 290.86,166.787 287.5,168.5C 291.559,163.438 296.226,159.105 301.5,155.5 Z"/></g>
<g><path style="opacity:0.922" fill="#cb4236" d="M 248.5,154.5 C 251.033,160.957 250.033,167.123 245.5,173C 233.401,177.641 221.734,183.141 210.5,189.5C 211.167,188.5 211.833,187.5 212.5,186.5C 214.292,184.431 216.626,183.097 219.5,182.5C 223.987,180.423 228.321,178.09 232.5,175.5C 236.539,174.873 240.539,173.706 244.5,172C 244.167,171.667 243.833,171.333 243.5,171C 245.439,170.092 246.439,168.592 246.5,166.5C 247.924,164.485 248.59,162.152 248.5,159.5C 248.5,157.833 248.5,156.167 248.5,154.5 Z"/></g>
<g><path style="opacity:0.984" fill="#c73c30" d="M 241.5,163.5 C 241.5,164.5 241.5,165.5 241.5,166.5C 238.844,169.289 235.511,170.956 231.5,171.5C 230.167,171.5 228.833,171.5 227.5,171.5C 231.4,169.859 235.4,168.192 239.5,166.5C 240.176,165.398 240.842,164.398 241.5,163.5 Z"/></g>
<g><path style="opacity:1" fill="#ce1712" d="M 275.5,156.5 C 275.249,159.909 275.583,163.242 276.5,166.5C 278.246,168.854 280.579,169.854 283.5,169.5C 284.959,169.567 286.292,169.234 287.5,168.5C 287.5,169.167 287.5,169.833 287.5,170.5C 283.576,170.281 279.576,170.781 275.5,172C 276.9,173.438 278.567,174.271 280.5,174.5C 280.715,176.179 280.048,177.179 278.5,177.5C 278.5,176.167 277.833,175.5 276.5,175.5C 276.027,174.094 275.027,173.427 273.5,173.5C 272.962,171.883 272.629,170.216 272.5,168.5C 273.575,169.562 274.575,169.562 275.5,168.5C 274.204,164.369 274.204,160.369 275.5,156.5 Z"/></g>
<g><path style="opacity:1" fill="#d23c2d" d="M 299.5,168.5 C 290.193,177.472 280.86,186.472 271.5,195.5C 271.201,193.396 271.534,191.396 272.5,189.5C 274.895,190.523 275.895,189.523 275.5,186.5C 278.248,186.598 278.914,185.598 277.5,183.5C 278.496,183.414 279.329,183.748 280,184.5C 280.402,183.128 280.902,181.795 281.5,180.5C 283.958,178.351 286.625,176.684 289.5,175.5C 289.5,174.5 289.5,173.5 289.5,172.5C 290.5,172.5 291.5,172.5 292.5,172.5C 292.5,171.5 292.5,170.5 292.5,169.5C 295.598,169.587 295.932,169.087 293.5,168C 295.71,165.945 297.71,166.111 299.5,168.5 Z"/></g>
<g><path style="opacity:1" fill="#d80505" d="M 246.5,166.5 C 246.439,168.592 245.439,170.092 243.5,171C 243.833,171.333 244.167,171.667 244.5,172C 240.539,173.706 236.539,174.873 232.5,175.5C 231.009,175.099 229.342,174.932 227.5,175C 228.731,173.595 230.064,172.429 231.5,171.5C 235.511,170.956 238.844,169.289 241.5,166.5C 243.048,164.078 244.714,164.078 246.5,166.5 Z"/></g>
<g><path style="opacity:0.247" fill="#efa7a1" d="M 273.5,173.5 C 275.027,173.427 276.027,174.094 276.5,175.5C 274.973,175.573 273.973,174.906 273.5,173.5 Z"/></g>
<g><path style="opacity:0.999" fill="#d90204" d="M 287.5,170.5 C 288.833,170.5 289.5,171.167 289.5,172.5C 289.5,173.5 289.5,174.5 289.5,175.5C 286.625,176.684 283.958,178.351 281.5,180.5C 280.902,181.795 280.402,183.128 280,184.5C 279.329,183.748 278.496,183.414 277.5,183.5C 277.833,181.5 278.167,179.5 278.5,177.5C 280.048,177.179 280.715,176.179 280.5,174.5C 278.567,174.271 276.9,173.438 275.5,172C 279.576,170.781 283.576,170.281 287.5,170.5 Z"/></g>
<g><path style="opacity:1" fill="#d40606" d="M 227.5,171.5 C 228.833,171.5 230.167,171.5 231.5,171.5C 230.064,172.429 228.731,173.595 227.5,175C 229.342,174.932 231.009,175.099 232.5,175.5C 228.321,178.09 223.987,180.423 219.5,182.5C 219.5,181.5 219.5,180.5 219.5,179.5C 217.435,179.517 215.435,179.85 213.5,180.5C 213.5,179.833 213.5,179.167 213.5,178.5C 218.145,178.027 222.478,176.527 226.5,174C 227.252,173.329 227.586,172.496 227.5,171.5 Z"/></g>
<g><path style="opacity:1" fill="#bf2922" d="M 227.5,171.5 C 227.586,172.496 227.252,173.329 226.5,174C 222.478,176.527 218.145,178.027 213.5,178.5C 217.702,175.421 222.368,173.087 227.5,171.5 Z"/></g>
<g><path style="opacity:1" fill="#d03528" d="M 320.5,168.5 C 321.833,169.167 323.167,169.833 324.5,170.5C 320.704,174.798 316.704,178.964 312.5,183C 316.011,186.012 319.344,189.178 322.5,192.5C 324.11,194.725 325.443,197.059 326.5,199.5C 323.54,196.355 320.207,193.688 316.5,191.5C 313.25,187.501 310.917,183.001 309.5,178C 310,177.5 310.5,177 311,176.5C 315.474,177.765 315.641,177.099 311.5,174.5C 309.427,176.58 307.093,178.246 304.5,179.5C 307.118,176.215 310.118,173.215 313.5,170.5C 315.558,169.067 317.892,168.4 320.5,168.5 Z"/></g>
<g><path style="opacity:0.941" fill="#c13c2d" d="M 213.5,178.5 C 213.5,179.167 213.5,179.833 213.5,180.5C 210.495,182.507 207.495,184.507 204.5,186.5C 203.833,186.833 203.167,187.167 202.5,187.5C 202.5,186.833 202.5,186.167 202.5,185.5C 205.65,182.421 209.317,180.087 213.5,178.5 Z"/></g>
<g><path style="opacity:0.2" fill="#e8988e" d="M 274.5,181.5 C 273.833,182.833 272.833,183.833 271.5,184.5C 271.5,182.5 272.5,181.5 274.5,181.5 Z"/></g>
<g><path style="opacity:1" fill="#da0305" d="M 219.5,182.5 C 216.626,183.097 214.292,184.431 212.5,186.5C 210.43,186.449 208.597,187.115 207,188.5C 205.699,188.361 204.866,187.695 204.5,186.5C 207.495,184.507 210.495,182.507 213.5,180.5C 215.435,179.85 217.435,179.517 219.5,179.5C 219.5,180.5 219.5,181.5 219.5,182.5 Z"/></g>
<g><path style="opacity:1" fill="#d21e14" d="M 204.5,186.5 C 204.866,187.695 205.699,188.361 207,188.5C 208.597,187.115 210.43,186.449 212.5,186.5C 211.833,187.5 211.167,188.5 210.5,189.5C 209.415,191.587 207.749,192.92 205.5,193.5C 203.833,192.167 202.167,192.167 200.5,193.5C 199.609,192.89 198.609,192.557 197.5,192.5C 198.833,190.5 200.5,188.833 202.5,187.5C 203.167,187.167 203.833,186.833 204.5,186.5 Z"/></g>
<g><path style="opacity:0.216" fill="#d26a64" d="M 303.5,179.5 C 302.956,182.7 301.29,185.033 298.5,186.5C 295.833,188.5 293.5,190.833 291.5,193.5C 290.833,193.5 290.167,193.5 289.5,193.5C 293.887,188.446 298.554,183.779 303.5,179.5 Z"/></g>
<g><path style="opacity:1" fill="#d60d09" d="M 316.5,191.5 C 315.713,193.104 314.38,193.771 312.5,193.5C 310.251,192.92 308.585,191.587 307.5,189.5C 305.821,187.825 303.821,186.992 301.5,187C 302.554,188.388 302.72,189.888 302,191.5C 301.692,190.692 301.192,190.025 300.5,189.5C 299.833,191.167 299.167,192.833 298.5,194.5C 297.447,193.562 296.78,192.395 296.5,191C 297.414,189.594 298.08,188.094 298.5,186.5C 301.29,185.033 302.956,182.7 303.5,179.5C 303.833,179.5 304.167,179.5 304.5,179.5C 307.093,178.246 309.427,176.58 311.5,174.5C 315.641,177.099 315.474,177.765 311,176.5C 310.5,177 310,177.5 309.5,178C 310.917,183.001 313.25,187.501 316.5,191.5 Z"/></g>
<g><path style="opacity:0.231" fill="#e1817f" d="M 202.5,185.5 C 202.5,186.167 202.5,186.833 202.5,187.5C 200.5,188.833 198.833,190.5 197.5,192.5C 196.833,192.833 196.167,193.167 195.5,193.5C 197.094,190.236 199.427,187.569 202.5,185.5 Z"/></g>
<g><path style="opacity:1" fill="#d12116" d="M 278.5,177.5 C 278.167,179.5 277.833,181.5 277.5,183.5C 278.914,185.598 278.248,186.598 275.5,186.5C 275.895,189.523 274.895,190.523 272.5,189.5C 271.534,191.396 271.201,193.396 271.5,195.5C 269.781,198.219 267.447,200.219 264.5,201.5C 264.741,199.102 264.074,197.102 262.5,195.5C 263.234,194.292 263.567,192.959 263.5,191.5C 265.549,188.45 268.216,186.117 271.5,184.5C 272.833,183.833 273.833,182.833 274.5,181.5C 275.167,179.5 276.5,178.167 278.5,177.5 Z"/></g>
<g><path style="opacity:1" fill="#d74230" d="M 298.5,186.5 C 298.08,188.094 297.414,189.594 296.5,191C 296.78,192.395 297.447,193.562 298.5,194.5C 299.167,192.833 299.833,191.167 300.5,189.5C 301.192,190.025 301.692,190.692 302,191.5C 302.72,189.888 302.554,188.388 301.5,187C 303.821,186.992 305.821,187.825 307.5,189.5C 302.833,193.167 298.167,196.833 293.5,200.5C 293.5,199.5 293.5,198.5 293.5,197.5C 294.5,197.5 295.5,197.5 296.5,197.5C 296.054,194.007 294.388,192.673 291.5,193.5C 293.5,190.833 295.833,188.5 298.5,186.5 Z"/></g>
<g><path style="opacity:0.998" fill="#d5150c" d="M 197.5,192.5 C 198.609,192.557 199.609,192.89 200.5,193.5C 200.5,194.833 200.5,196.167 200.5,197.5C 198.058,197.354 197.391,198.187 198.5,200C 195.307,203.486 193.64,207.653 193.5,212.5C 193.795,214.735 193.461,216.735 192.5,218.5C 191.292,219.234 189.959,219.567 188.5,219.5C 187.411,215.989 187.411,212.489 188.5,209C 190.175,203.45 192.508,198.283 195.5,193.5C 196.167,193.167 196.833,192.833 197.5,192.5 Z"/></g>
<g><path style="opacity:1" fill="#d30f0b" d="M 293.5,200.5 C 293.167,201.167 292.833,201.833 292.5,202.5C 287.546,200.619 286.546,197.619 289.5,193.5C 290.167,193.5 290.833,193.5 291.5,193.5C 294.388,192.673 296.054,194.007 296.5,197.5C 295.5,197.5 294.5,197.5 293.5,197.5C 293.5,198.5 293.5,199.5 293.5,200.5 Z"/></g>
<g><path style="opacity:0.459" fill="#cc534b" d="M 263.5,191.5 C 263.567,192.959 263.234,194.292 262.5,195.5C 259.167,197.833 255.833,200.167 252.5,202.5C 255.833,198.5 259.5,194.833 263.5,191.5 Z"/></g>
<g><path style="opacity:1" fill="#cd3a2c" d="M 289.5,193.5 C 286.546,197.619 287.546,200.619 292.5,202.5C 287.526,207.139 282.526,211.805 277.5,216.5C 277.5,215.833 277.5,215.167 277.5,214.5C 277.5,213.167 277.5,211.833 277.5,210.5C 278.873,210.657 280.207,210.49 281.5,210C 281.167,209.667 280.833,209.333 280.5,209C 283.544,208.641 283.878,207.974 281.5,207C 282.667,206.5 283.5,205.667 284,204.5C 284.333,205.167 284.667,205.833 285,206.5C 285.772,205.151 286.939,204.318 288.5,204C 287.663,202.989 287.33,201.822 287.5,200.5C 281.168,202.833 276.168,206.833 272.5,212.5C 271.391,212.557 270.391,212.89 269.5,213.5C 275.758,206.575 282.425,199.908 289.5,193.5 Z"/></g>
<g><path style="opacity:1" fill="#d2140f" d="M 262.5,195.5 C 264.074,197.102 264.741,199.102 264.5,201.5C 264.5,202.167 264.167,202.5 263.5,202.5C 261.459,202.854 259.626,202.854 258,202.5C 257.517,203.448 257.351,204.448 257.5,205.5C 256.305,205.322 255.138,204.989 254,204.5C 252.877,206.1 251.377,207.1 249.5,207.5C 249.5,206.833 249.5,206.167 249.5,205.5C 250.167,204.167 251.167,203.167 252.5,202.5C 255.833,200.167 259.167,197.833 262.5,195.5 Z"/></g>
<g><path style="opacity:1" fill="#d31a11" d="M 316.5,191.5 C 320.207,193.688 323.54,196.355 326.5,199.5C 326.664,202.187 326.497,204.854 326,207.5C 325.23,208.598 324.397,208.598 323.5,207.5C 322.833,207.5 322.167,207.5 321.5,207.5C 318.988,202.465 315.988,197.799 312.5,193.5C 314.38,193.771 315.713,193.104 316.5,191.5 Z"/></g>
<g><path style="opacity:1" fill="#ce392d" d="M 205.5,193.5 C 200.748,199.332 196.748,205.665 193.5,212.5C 193.64,207.653 195.307,203.486 198.5,200C 197.391,198.187 198.058,197.354 200.5,197.5C 200.5,196.167 200.5,194.833 200.5,193.5C 202.167,192.167 203.833,192.167 205.5,193.5 Z"/></g>
<g><path style="opacity:1" fill="#d23f31" d="M 263.5,202.5 C 256.881,209.785 249.881,216.785 242.5,223.5C 242.92,221.906 243.586,220.406 244.5,219C 244.257,218.098 243.923,217.265 243.5,216.5C 245.167,216.5 246.833,216.5 248.5,216.5C 248.337,213.06 250.004,211.06 253.5,210.5C 254.429,209.311 254.762,207.978 254.5,206.5C 255.791,206.737 256.791,206.404 257.5,205.5C 257.351,204.448 257.517,203.448 258,202.5C 259.626,202.854 261.459,202.854 263.5,202.5 Z"/></g>
<g><path style="opacity:1" fill="#cc2b20" d="M 326.5,199.5 C 330.683,206.2 333.35,213.533 334.5,221.5C 333.833,220.833 333.167,220.167 332.5,219.5C 331.31,215.777 329.81,212.11 328,208.5C 327.25,209.126 326.416,209.626 325.5,210C 326.337,211.011 326.67,212.178 326.5,213.5C 324.386,212.216 323.386,210.216 323.5,207.5C 324.397,208.598 325.23,208.598 326,207.5C 326.497,204.854 326.664,202.187 326.5,199.5 Z"/></g>
<g><path style="opacity:1" fill="#d40605" d="M 257.5,205.5 C 256.791,206.404 255.791,206.737 254.5,206.5C 254.762,207.978 254.429,209.311 253.5,210.5C 250.004,211.06 248.337,213.06 248.5,216.5C 246.833,216.5 245.167,216.5 243.5,216.5C 242.761,216.631 242.094,216.464 241.5,216C 242.381,215.292 243.047,214.458 243.5,213.5C 245.167,211.167 247.167,209.167 249.5,207.5C 251.377,207.1 252.877,206.1 254,204.5C 255.138,204.989 256.305,205.322 257.5,205.5 Z"/></g>
<g><path style="opacity:0.592" fill="#c94f45" d="M 249.5,205.5 C 249.5,206.167 249.5,206.833 249.5,207.5C 247.167,209.167 245.167,211.167 243.5,213.5C 242.833,213.5 242.167,213.5 241.5,213.5C 243.168,211.66 244.668,209.66 246,207.5C 246.816,206.177 247.983,205.511 249.5,205.5 Z"/></g>
<g><path style="opacity:0.998" fill="#d50705" d="M 277.5,214.5 C 275.597,214.204 273.93,213.537 272.5,212.5C 276.168,206.833 281.168,202.833 287.5,200.5C 287.33,201.822 287.663,202.989 288.5,204C 286.939,204.318 285.772,205.151 285,206.5C 284.667,205.833 284.333,205.167 284,204.5C 283.5,205.667 282.667,206.5 281.5,207C 283.878,207.974 283.544,208.641 280.5,209C 280.833,209.333 281.167,209.667 281.5,210C 280.207,210.49 278.873,210.657 277.5,210.5C 277.5,211.833 277.5,213.167 277.5,214.5 Z"/></g>
<g><path style="opacity:0.922" fill="#d35e55" d="M 321.5,207.5 C 322.167,207.5 322.833,207.5 323.5,207.5C 323.386,210.216 324.386,212.216 326.5,213.5C 327.5,220.165 328.5,226.832 329.5,233.5C 329.5,236.167 329.5,238.833 329.5,241.5C 327.996,229.998 325.329,218.664 321.5,207.5 Z"/></g>
<g><path style="opacity:1" fill="#da0304" d="M 332.5,219.5 C 332.666,223.846 332.499,228.179 332,232.5C 331.617,233.056 331.117,233.389 330.5,233.5C 330.167,233.5 329.833,233.5 329.5,233.5C 328.5,226.832 327.5,220.165 326.5,213.5C 326.67,212.178 326.337,211.011 325.5,210C 326.416,209.626 327.25,209.126 328,208.5C 329.81,212.11 331.31,215.777 332.5,219.5 Z"/></g>
<g><path style="opacity:1" fill="#cc3627" d="M 195.5,193.5 C 192.508,198.283 190.175,203.45 188.5,209C 187.411,212.489 187.411,215.989 188.5,219.5C 189.959,219.567 191.292,219.234 192.5,218.5C 192.044,221.906 191.378,225.239 190.5,228.5C 189.833,229.167 189.167,229.833 188.5,230.5C 188.26,227.421 188.593,224.421 189.5,221.5C 188.758,220.713 187.925,220.047 187,219.5C 185.268,222.969 184.102,226.636 183.5,230.5C 182.515,234.634 182.182,238.968 182.5,243.5C 181.326,244.514 180.66,245.847 180.5,247.5C 180.167,247.5 179.833,247.5 179.5,247.5C 180.433,232 183.6,217 189,202.5C 190.614,199.06 192.78,196.06 195.5,193.5 Z"/></g>
<g><path style="opacity:1" fill="#cf1c12" d="M 241.5,213.5 C 242.167,213.5 242.833,213.5 243.5,213.5C 243.047,214.458 242.381,215.292 241.5,216C 242.094,216.464 242.761,216.631 243.5,216.5C 243.923,217.265 244.257,218.098 244.5,219C 243.586,220.406 242.92,221.906 242.5,223.5C 240.909,225.633 238.909,227.299 236.5,228.5C 236.67,227.178 236.337,226.011 235.5,225C 238.136,223.59 238.803,221.757 237.5,219.5C 239.226,217.772 240.559,215.772 241.5,213.5 Z"/></g>
<g><path style="opacity:1" fill="#d4150d" d="M 272.5,212.5 C 273.93,213.537 275.597,214.204 277.5,214.5C 277.5,215.167 277.5,215.833 277.5,216.5C 276.415,218.587 274.749,219.92 272.5,220.5C 271.167,220.5 269.833,220.5 268.5,220.5C 268.5,221.5 268.5,222.5 268.5,223.5C 264.932,223.759 263.599,225.759 264.5,229.5C 264.167,229.5 263.833,229.5 263.5,229.5C 260.995,227.814 260.162,225.481 261,222.5C 265.431,220.906 268.264,217.906 269.5,213.5C 270.391,212.89 271.391,212.557 272.5,212.5 Z"/></g>
<g><path style="opacity:1" fill="#d64d43" d="M 272.5,220.5 C 270.541,224.126 267.874,227.126 264.5,229.5C 263.599,225.759 264.932,223.759 268.5,223.5C 268.5,222.5 268.5,221.5 268.5,220.5C 269.833,220.5 271.167,220.5 272.5,220.5 Z"/></g>
<g><path style="opacity:1" fill="#d30605" d="M 237.5,219.5 C 238.803,221.757 238.136,223.59 235.5,225C 236.337,226.011 236.67,227.178 236.5,228.5C 236.5,229.167 236.167,229.5 235.5,229.5C 234.469,228.751 233.302,228.085 232,227.5C 231.047,229.455 229.713,231.122 228,232.5C 226.733,231.09 226.733,229.424 228,227.5C 231.516,225.172 234.682,222.505 237.5,219.5 Z"/></g>
<g><path style="opacity:1" fill="#cf3d2f" d="M 269.5,213.5 C 268.264,217.906 265.431,220.906 261,222.5C 260.162,225.481 260.995,227.814 263.5,229.5C 261.5,233.5 258.5,236.5 254.5,238.5C 254.737,237.209 254.404,236.209 253.5,235.5C 254.263,234.732 255.263,234.232 256.5,234C 256.167,233.667 255.833,233.333 255.5,233C 256.448,232.517 257.448,232.351 258.5,232.5C 258.48,230.857 259.147,229.524 260.5,228.5C 259.833,228.167 259.167,227.833 258.5,227.5C 256.675,228.651 254.675,229.318 252.5,229.5C 257.585,223.474 263.251,218.141 269.5,213.5 Z"/></g>
<g><path style="opacity:1" fill="#d50606" d="M 253.5,235.5 C 252.064,237.319 250.397,237.652 248.5,236.5C 250.947,234.847 252.28,232.513 252.5,229.5C 254.675,229.318 256.675,228.651 258.5,227.5C 259.167,227.833 259.833,228.167 260.5,228.5C 259.147,229.524 258.48,230.857 258.5,232.5C 257.448,232.351 256.448,232.517 255.5,233C 255.833,233.333 256.167,233.667 256.5,234C 255.263,234.232 254.263,234.732 253.5,235.5 Z"/></g>
<g><path style="opacity:0.998" fill="#d60505" d="M 188.5,230.5 C 188.5,232.167 188.5,233.833 188.5,235.5C 187.833,237.167 187.167,238.833 186.5,240.5C 186.218,237.653 186.218,234.987 186.5,232.5C 185.995,231.081 184.995,230.415 183.5,230.5C 184.102,226.636 185.268,222.969 187,219.5C 187.925,220.047 188.758,220.713 189.5,221.5C 188.593,224.421 188.26,227.421 188.5,230.5 Z"/></g>
<g><path style="opacity:0.357" fill="#e27169" d="M 190.5,228.5 C 190.008,233.324 189.341,237.99 188.5,242.5C 188.5,240.167 188.5,237.833 188.5,235.5C 188.5,233.833 188.5,232.167 188.5,230.5C 189.167,229.833 189.833,229.167 190.5,228.5 Z"/></g>
<g><path style="opacity:1" fill="#cd3628" d="M 241.5,213.5 C 240.559,215.772 239.226,217.772 237.5,219.5C 234.682,222.505 231.516,225.172 228,227.5C 226.733,229.424 226.733,231.09 228,232.5C 229.713,231.122 231.047,229.455 232,227.5C 233.302,228.085 234.469,228.751 235.5,229.5C 230.527,235.14 225.194,240.473 219.5,245.5C 219.5,244.167 219.5,242.833 219.5,241.5C 222.076,239.934 224.41,237.934 226.5,235.5C 226.081,234.328 225.415,233.328 224.5,232.5C 220.797,235.216 217.13,237.883 213.5,240.5C 222.22,230.778 231.553,221.778 241.5,213.5 Z"/></g>
<g><path style="opacity:0.259" fill="#cc5754" d="M 334.5,221.5 C 335.725,226.29 336.392,231.29 336.5,236.5C 334.969,231.75 334.302,226.75 334.5,221.5 Z"/></g>
<g><path style="opacity:1" fill="#cf3529" d="M 252.5,229.5 C 252.28,232.513 250.947,234.847 248.5,236.5C 250.397,237.652 252.064,237.319 253.5,235.5C 254.404,236.209 254.737,237.209 254.5,238.5C 248.167,245.5 241.5,252.167 234.5,258.5C 234.52,256.857 233.853,255.524 232.5,254.5C 234.003,253.948 235.669,253.948 237.5,254.5C 237.5,253.167 237.5,251.833 237.5,250.5C 237.369,249.761 237.536,249.094 238,248.5C 239.011,249.337 240.178,249.67 241.5,249.5C 241.67,248.178 241.337,247.011 240.5,246C 241.549,245.508 242.549,245.674 243.5,246.5C 244.711,245.726 244.711,244.893 243.5,244C 245.376,242.625 247.376,241.458 249.5,240.5C 248.273,239.41 247.44,238.076 247,236.5C 245.247,238.758 243.081,240.425 240.5,241.5C 244.167,237.167 248.167,233.167 252.5,229.5 Z"/></g>
<g><path style="opacity:1" fill="#d80202" d="M 183.5,230.5 C 184.995,230.415 185.995,231.081 186.5,232.5C 186.218,234.987 186.218,237.653 186.5,240.5C 186.167,243.167 185.833,245.833 185.5,248.5C 183.241,247.656 182.241,245.989 182.5,243.5C 182.182,238.968 182.515,234.634 183.5,230.5 Z"/></g>
<g><path style="opacity:1" fill="#d60405" d="M 332.5,219.5 C 333.167,220.167 333.833,220.833 334.5,221.5C 334.302,226.75 334.969,231.75 336.5,236.5C 336.5,241.167 336.5,245.833 336.5,250.5C 335.167,250.5 333.833,250.5 332.5,250.5C 332.5,249.833 332.167,249.5 331.5,249.5C 330.806,244.195 330.472,238.862 330.5,233.5C 331.117,233.389 331.617,233.056 332,232.5C 332.499,228.179 332.666,223.846 332.5,219.5 Z"/></g>
<g><path style="opacity:0.999" fill="#d3100b" d="M 219.5,241.5 C 217.491,243.058 215.824,245.058 214.5,247.5C 212.067,248.897 209.734,250.397 207.5,252C 208.337,253.011 208.67,254.178 208.5,255.5C 207.178,255.67 206.011,255.337 205,254.5C 204.369,255.872 203.702,257.205 203,258.5C 201.605,258.22 200.438,257.553 199.5,256.5C 201.605,254.408 203.272,252.075 204.5,249.5C 206.826,245.867 209.826,242.867 213.5,240.5C 217.13,237.883 220.797,235.216 224.5,232.5C 225.415,233.328 226.081,234.328 226.5,235.5C 224.41,237.934 222.076,239.934 219.5,241.5 Z"/></g>
<g><path style="opacity:1" fill="#d40505" d="M 237.5,250.5 C 236.391,250.443 235.391,250.11 234.5,249.5C 236.885,247.116 238.885,244.45 240.5,241.5C 243.081,240.425 245.247,238.758 247,236.5C 247.44,238.076 248.273,239.41 249.5,240.5C 247.376,241.458 245.376,242.625 243.5,244C 244.711,244.893 244.711,245.726 243.5,246.5C 242.549,245.674 241.549,245.508 240.5,246C 241.337,247.011 241.67,248.178 241.5,249.5C 240.178,249.67 239.011,249.337 238,248.5C 237.536,249.094 237.369,249.761 237.5,250.5 Z"/></g>
<g><path style="opacity:1" fill="#cf3426" d="M 219.5,241.5 C 219.5,242.833 219.5,244.167 219.5,245.5C 216.14,249.527 212.473,253.194 208.5,256.5C 208.5,256.167 208.5,255.833 208.5,255.5C 208.67,254.178 208.337,253.011 207.5,252C 209.734,250.397 212.067,248.897 214.5,247.5C 215.824,245.058 217.491,243.058 219.5,241.5 Z"/></g>
<g><path style="opacity:1" fill="#da0203" d="M 332.5,250.5 C 333.833,250.5 335.167,250.5 336.5,250.5C 336.5,254.167 336.5,257.833 336.5,261.5C 333.402,261.413 333.068,261.913 335.5,263C 334.922,264.417 333.922,265.25 332.5,265.5C 332.5,260.5 332.5,255.5 332.5,250.5 Z"/></g>
<g><path style="opacity:1" fill="#d70607" d="M 182.5,243.5 C 182.241,245.989 183.241,247.656 185.5,248.5C 185.708,250.92 185.374,253.253 184.5,255.5C 183.311,256.429 181.978,256.762 180.5,256.5C 180.5,253.5 180.5,250.5 180.5,247.5C 180.66,245.847 181.326,244.514 182.5,243.5 Z"/></g>
<g><path style="opacity:1" fill="#d00909" d="M 234.5,249.5 C 235.391,250.11 236.391,250.443 237.5,250.5C 237.5,251.833 237.5,253.167 237.5,254.5C 235.669,253.948 234.003,253.948 232.5,254.5C 233.853,255.524 234.52,256.857 234.5,258.5C 232.61,258.703 231.11,258.037 230,256.5C 229.617,257.056 229.117,257.389 228.5,257.5C 228.565,257.062 228.399,256.728 228,256.5C 226.223,258.79 224.056,260.457 221.5,261.5C 225.233,256.764 229.566,252.764 234.5,249.5 Z"/></g>
<g><path style="opacity:1" fill="#ce4435" d="M 204.5,249.5 C 203.272,252.075 201.605,254.408 199.5,256.5C 200.438,257.553 201.605,258.22 203,258.5C 203.702,257.205 204.369,255.872 205,254.5C 206.011,255.337 207.178,255.67 208.5,255.5C 208.5,255.833 208.5,256.167 208.5,256.5C 204.214,261.298 199.547,265.631 194.5,269.5C 194.5,268.167 194.5,266.833 194.5,265.5C 195.5,265.5 196.5,265.5 197.5,265.5C 197.5,264.5 197.5,263.5 197.5,262.5C 198.833,262.5 200.167,262.5 201.5,262.5C 201.439,260.408 200.439,258.908 198.5,258C 197.423,257.53 196.423,257.697 195.5,258.5C 197.842,254.79 200.842,251.79 204.5,249.5 Z"/></g>
<g><path style="opacity:0.016" fill="#ffb7b7" d="M 187.5,259.5 C 187.216,261.415 187.549,263.081 188.5,264.5C 188.44,265.043 188.107,265.376 187.5,265.5C 186.207,263.364 186.207,261.364 187.5,259.5 Z"/></g>
<g><path style="opacity:1" fill="#d50b0a" d="M 194.5,269.5 C 194.167,270.167 193.833,270.833 193.5,271.5C 191.805,270.174 190.472,270.507 189.5,272.5C 189.586,271.504 189.252,270.671 188.5,270C 190.381,268.898 192.048,267.565 193.5,266C 193.164,264.97 192.497,264.47 191.5,264.5C 191.5,264.167 191.5,263.833 191.5,263.5C 192.6,262.395 193.267,261.062 193.5,259.5C 193.842,258.662 194.508,258.328 195.5,258.5C 196.423,257.697 197.423,257.53 198.5,258C 200.439,258.908 201.439,260.408 201.5,262.5C 200.167,262.5 198.833,262.5 197.5,262.5C 197.5,263.5 197.5,264.5 197.5,265.5C 196.5,265.5 195.5,265.5 194.5,265.5C 194.5,266.833 194.5,268.167 194.5,269.5 Z"/></g>
<g><path style="opacity:1" fill="#cc271c" d="M 188.5,235.5 C 188.5,237.833 188.5,240.167 188.5,242.5C 187.968,248.152 187.635,253.819 187.5,259.5C 186.207,261.364 186.207,263.364 187.5,265.5C 188.107,265.376 188.44,265.043 188.5,264.5C 188.5,263.833 188.833,263.5 189.5,263.5C 190.167,263.5 190.833,263.5 191.5,263.5C 191.5,263.833 191.5,264.167 191.5,264.5C 189.127,268.347 186.794,268.347 184.5,264.5C 184.338,262.176 183.172,260.509 181,259.5C 180.802,261.382 180.302,263.048 179.5,264.5C 179.5,258.833 179.5,253.167 179.5,247.5C 179.833,247.5 180.167,247.5 180.5,247.5C 180.5,250.5 180.5,253.5 180.5,256.5C 181.978,256.762 183.311,256.429 184.5,255.5C 185.374,253.253 185.708,250.92 185.5,248.5C 185.833,245.833 186.167,243.167 186.5,240.5C 187.167,238.833 187.833,237.167 188.5,235.5 Z"/></g>
<g><path style="opacity:0.349" fill="#cf5f57" d="M 240.5,241.5 C 238.885,244.45 236.885,247.116 234.5,249.5C 229.566,252.764 225.233,256.764 221.5,261.5C 220.833,261.5 220.5,261.833 220.5,262.5C 219.33,264.279 217.664,265.279 215.5,265.5C 223.3,256.695 231.634,248.695 240.5,241.5 Z"/></g>
<g><path style="opacity:0.21" fill="#bb3732" d="M 329.5,233.5 C 329.833,233.5 330.167,233.5 330.5,233.5C 330.472,238.862 330.806,244.195 331.5,249.5C 331.828,261.678 331.495,273.678 330.5,285.5C 330.707,270.814 330.373,256.147 329.5,241.5C 329.5,238.833 329.5,236.167 329.5,233.5 Z"/></g>
<g><path style="opacity:0.231" fill="#df8381" d="M 193.5,259.5 C 193.267,261.062 192.6,262.395 191.5,263.5C 190.833,263.5 190.167,263.5 189.5,263.5C 190.5,261.833 191.833,260.5 193.5,259.5 Z"/></g>
<g><path style="opacity:1" fill="#d03e2e" d="M 234.5,258.5 C 229.14,263.528 223.807,268.528 218.5,273.5C 218.371,271.784 218.038,270.117 217.5,268.5C 218.708,269.234 220.041,269.567 221.5,269.5C 221.215,267.712 221.548,266.045 222.5,264.5C 223.167,264.833 223.833,265.167 224.5,265.5C 225.298,263.922 225.798,262.256 226,260.5C 227.356,261.38 228.856,261.714 230.5,261.5C 230.473,259.801 229.806,258.467 228.5,257.5C 229.117,257.389 229.617,257.056 230,256.5C 231.11,258.037 232.61,258.703 234.5,258.5 Z"/></g>
<g><path style="opacity:0.84" fill="#c91a15" d="M 331.5,249.5 C 332.167,249.5 332.5,249.833 332.5,250.5C 332.5,255.5 332.5,260.5 332.5,265.5C 332.5,270.167 332.5,274.833 332.5,279.5C 332.5,280.167 332.5,280.833 332.5,281.5C 332.5,283.167 332.5,284.833 332.5,286.5C 328.157,287.764 324.157,287.097 320.5,284.5C 320.5,284.167 320.5,283.833 320.5,283.5C 320.833,283.5 321.167,283.5 321.5,283.5C 324.354,283.924 327.021,284.924 329.5,286.5C 330.107,286.376 330.44,286.043 330.5,285.5C 331.495,273.678 331.828,261.678 331.5,249.5 Z"/></g>
<g><path style="opacity:1" fill="#dd0203" d="M 336.5,261.5 C 336.829,267.206 336.495,272.872 335.5,278.5C 334.583,279.127 333.583,279.461 332.5,279.5C 332.5,274.833 332.5,270.167 332.5,265.5C 333.922,265.25 334.922,264.417 335.5,263C 333.068,261.913 333.402,261.413 336.5,261.5 Z"/></g>
<g><path style="opacity:1" fill="#d10805" d="M 184.5,264.5 C 183.442,265.6 182.608,266.934 182,268.5C 181.667,268.167 181.333,267.833 181,267.5C 179.893,271.625 180.56,275.291 183,278.5C 183.333,276.833 183.667,275.167 184,273.5C 184.483,274.448 184.649,275.448 184.5,276.5C 184.5,277.5 184.5,278.5 184.5,279.5C 182.856,279.714 181.356,279.38 180,278.5C 179.825,273.981 179.325,269.647 178.5,265.5C 178.5,264.833 178.833,264.5 179.5,264.5C 180.302,263.048 180.802,261.382 181,259.5C 183.172,260.509 184.338,262.176 184.5,264.5 Z"/></g>
<g><path style="opacity:1" fill="#da0404" d="M 228.5,257.5 C 229.806,258.467 230.473,259.801 230.5,261.5C 228.856,261.714 227.356,261.38 226,260.5C 225.798,262.256 225.298,263.922 224.5,265.5C 223.833,265.167 223.167,264.833 222.5,264.5C 221.548,266.045 221.215,267.712 221.5,269.5C 220.041,269.567 218.708,269.234 217.5,268.5C 219.385,266.947 220.385,264.947 220.5,262.5C 220.5,261.833 220.833,261.5 221.5,261.5C 224.056,260.457 226.223,258.79 228,256.5C 228.399,256.728 228.565,257.062 228.5,257.5 Z"/></g>
<g><path style="opacity:1" fill="#d90303" d="M 184.5,264.5 C 186.794,268.347 189.127,268.347 191.5,264.5C 192.497,264.47 193.164,264.97 193.5,266C 192.048,267.565 190.381,268.898 188.5,270C 189.252,270.671 189.586,271.504 189.5,272.5C 188.791,273.404 187.791,273.737 186.5,273.5C 186.715,275.179 186.048,276.179 184.5,276.5C 184.649,275.448 184.483,274.448 184,273.5C 183.667,275.167 183.333,276.833 183,278.5C 180.56,275.291 179.893,271.625 181,267.5C 181.333,267.833 181.667,268.167 182,268.5C 182.608,266.934 183.442,265.6 184.5,264.5 Z"/></g>
<g><path style="opacity:1" fill="#cb1c16" d="M 220.5,262.5 C 220.385,264.947 219.385,266.947 217.5,268.5C 218.038,270.117 218.371,271.784 218.5,273.5C 217.537,274.363 217.537,275.03 218.5,275.5C 221.421,274.593 224.421,274.26 227.5,274.5C 224.124,276.082 220.458,276.749 216.5,276.5C 216.662,274.473 216.495,272.473 216,270.5C 215.014,269.829 213.847,269.829 212.5,270.5C 213.925,269.078 214.925,267.411 215.5,265.5C 217.664,265.279 219.33,264.279 220.5,262.5 Z"/></g>
<g><path style="opacity:0.486" fill="#c1483d" d="M 215.5,265.5 C 214.925,267.411 213.925,269.078 212.5,270.5C 211.5,270.833 210.833,271.5 210.5,272.5C 209.395,273.6 208.062,274.267 206.5,274.5C 209.167,271.167 212.167,268.167 215.5,265.5 Z"/></g>
<g><path style="opacity:0.559" fill="#d14a3d" d="M 336.5,236.5 C 338.412,248.1 339.412,259.933 339.5,272C 339.406,277.352 339.073,282.685 338.5,288C 338.833,289.167 339.167,290.333 339.5,291.5C 341.813,292.5 343.813,293.834 345.5,295.5C 344.167,295.5 342.833,295.5 341.5,295.5C 340.432,294.566 339.099,294.232 337.5,294.5C 337.5,293.5 337.5,292.5 337.5,291.5C 337.827,281.319 337.494,271.319 336.5,261.5C 336.5,257.833 336.5,254.167 336.5,250.5C 336.5,245.833 336.5,241.167 336.5,236.5 Z"/></g>
<g><path style="opacity:0.937" fill="#d15749" d="M 193.5,271.5 C 190.526,274.138 187.526,276.805 184.5,279.5C 184.5,278.5 184.5,277.5 184.5,276.5C 186.048,276.179 186.715,275.179 186.5,273.5C 187.791,273.737 188.791,273.404 189.5,272.5C 190.472,270.507 191.805,270.174 193.5,271.5 Z"/></g>
<g><path style="opacity:1" fill="#cc0a0b" d="M 273.5,274.5 C 273.5,274.833 273.5,275.167 273.5,275.5C 270.085,275.739 266.919,275.072 264,273.5C 262.744,273.648 261.577,273.982 260.5,274.5C 254.64,274.101 248.974,274.101 243.5,274.5C 239.833,274.5 236.167,274.5 232.5,274.5C 239.782,273.056 247.282,272.389 255,272.5C 261.373,272.29 267.539,272.957 273.5,274.5 Z"/></g>
<g><path style="opacity:0.949" fill="#ca4135" d="M 305.5,278.5 C 294.975,276.763 284.309,275.429 273.5,274.5C 267.539,272.957 261.373,272.29 255,272.5C 247.282,272.389 239.782,273.056 232.5,274.5C 230.833,274.5 229.167,274.5 227.5,274.5C 231.233,273.023 235.233,272.189 239.5,272C 261.13,270.16 282.463,271.827 303.5,277C 304.416,277.278 305.082,277.778 305.5,278.5 Z"/></g>
<g><path style="opacity:1" fill="#d80204" d="M 273.5,275.5 C 276.426,276.404 279.759,276.571 283.5,276C 283.957,276.414 284.291,276.914 284.5,277.5C 282.257,278.474 279.924,278.808 277.5,278.5C 271.268,279.061 265.268,278.228 259.5,276C 260.056,275.617 260.389,275.117 260.5,274.5C 261.577,273.982 262.744,273.648 264,273.5C 266.919,275.072 270.085,275.739 273.5,275.5 Z"/></g>
<g><path style="opacity:1" fill="#d11a11" d="M 243.5,274.5 C 248.974,274.101 254.64,274.101 260.5,274.5C 260.389,275.117 260.056,275.617 259.5,276C 265.268,278.228 271.268,279.061 277.5,278.5C 279.833,279.167 282.167,279.833 284.5,280.5C 281.833,280.5 279.167,280.5 276.5,280.5C 272.069,280.769 267.735,280.436 263.5,279.5C 257.021,278.509 250.354,278.176 243.5,278.5C 243.721,277.265 244.388,276.265 245.5,275.5C 245.043,274.702 244.376,274.369 243.5,274.5 Z"/></g>
<g><path style="opacity:1" fill="#dc0503" d="M 232.5,274.5 C 236.167,274.5 239.833,274.5 243.5,274.5C 244.376,274.369 245.043,274.702 245.5,275.5C 244.388,276.265 243.721,277.265 243.5,278.5C 241.833,278.5 240.167,278.5 238.5,278.5C 234.988,279.055 231.988,278.388 229.5,276.5C 231.027,276.573 232.027,275.906 232.5,274.5 Z"/></g>
<g><path style="opacity:1" fill="#d00607" d="M 227.5,274.5 C 229.167,274.5 230.833,274.5 232.5,274.5C 232.027,275.906 231.027,276.573 229.5,276.5C 225.593,276.513 221.926,277.347 218.5,279C 219.244,280.039 220.244,280.539 221.5,280.5C 220.448,282.256 218.781,282.923 216.5,282.5C 215.275,279.475 214.775,276.475 215,273.5C 213.644,272.62 212.144,272.286 210.5,272.5C 210.833,271.5 211.5,270.833 212.5,270.5C 213.847,269.829 215.014,269.829 216,270.5C 216.495,272.473 216.662,274.473 216.5,276.5C 220.458,276.749 224.124,276.082 227.5,274.5 Z"/></g>
<g><path style="opacity:1" fill="#d50505" d="M 229.5,276.5 C 231.988,278.388 234.988,279.055 238.5,278.5C 233.071,280.012 227.404,280.679 221.5,280.5C 220.244,280.539 219.244,280.039 218.5,279C 221.926,277.347 225.593,276.513 229.5,276.5 Z"/></g>
<g><path style="opacity:1" fill="#d40405" d="M 273.5,274.5 C 284.309,275.429 294.975,276.763 305.5,278.5C 305.833,278.5 306.167,278.5 306.5,278.5C 308.793,280.422 311.459,281.755 314.5,282.5C 312.325,282.605 310.158,282.605 308,282.5C 307.7,284.066 308.2,285.399 309.5,286.5C 308.833,286.5 308.167,286.5 307.5,286.5C 305.485,285.076 303.152,284.41 300.5,284.5C 300.167,284.5 299.833,284.5 299.5,284.5C 295.232,281.005 290.232,279.671 284.5,280.5C 282.167,279.833 279.833,279.167 277.5,278.5C 279.924,278.808 282.257,278.474 284.5,277.5C 284.291,276.914 283.957,276.414 283.5,276C 279.759,276.571 276.426,276.404 273.5,275.5C 273.5,275.167 273.5,274.833 273.5,274.5 Z"/></g>
<g><path style="opacity:0.969" fill="#d15a4c" d="M 178.5,265.5 C 179.325,269.647 179.825,273.981 180,278.5C 181.356,279.38 182.856,279.714 184.5,279.5C 183.564,280.974 182.23,281.974 180.5,282.5C 180.5,280.5 179.5,279.5 177.5,279.5C 178.441,274.93 178.774,270.263 178.5,265.5 Z"/></g>
<g><path style="opacity:0.545" fill="#c44d46" d="M 206.5,274.5 C 205.167,277.833 202.833,280.167 199.5,281.5C 201.167,278.5 203.5,276.167 206.5,274.5 Z"/></g>
<g><path style="opacity:1" fill="#da0302" d="M 210.5,272.5 C 212.144,272.286 213.644,272.62 215,273.5C 214.775,276.475 215.275,279.475 216.5,282.5C 214.958,283.301 213.292,283.634 211.5,283.5C 209.669,282.948 208.003,282.948 206.5,283.5C 205.646,282.478 204.646,281.645 203.5,281C 205.665,278.405 207.832,276.572 210,275.5C 210.483,274.552 210.649,273.552 210.5,272.5 Z"/></g>
<g><path style="opacity:0.71" fill="#c54035" d="M 238.5,278.5 C 240.167,278.5 241.833,278.5 243.5,278.5C 250.354,278.176 257.021,278.509 263.5,279.5C 245.952,279.788 228.619,281.788 211.5,285.5C 211.5,284.833 211.5,284.167 211.5,283.5C 213.292,283.634 214.958,283.301 216.5,282.5C 218.781,282.923 220.448,282.256 221.5,280.5C 227.404,280.679 233.071,280.012 238.5,278.5 Z"/></g>
<g><path style="opacity:0.973" fill="#c94036" d="M 276.5,280.5 C 279.167,280.5 281.833,280.5 284.5,280.5C 290.232,279.671 295.232,281.005 299.5,284.5C 291.75,282.88 284.083,281.547 276.5,280.5 Z"/></g>
<g><path style="opacity:0.831" fill="#cd4f43" d="M 306.5,278.5 C 312.044,278.792 317.044,280.459 321.5,283.5C 321.167,283.5 320.833,283.5 320.5,283.5C 318.435,283.483 316.435,283.15 314.5,282.5C 311.459,281.755 308.793,280.422 306.5,278.5 Z"/></g>
<g><path style="opacity:1" fill="#d20306" d="M 336.5,261.5 C 337.494,271.319 337.827,281.319 337.5,291.5C 336.19,289.565 334.857,287.565 333.5,285.5C 333.919,284.328 334.585,283.328 335.5,282.5C 334.675,281.614 333.675,281.281 332.5,281.5C 332.5,280.833 332.5,280.167 332.5,279.5C 333.583,279.461 334.583,279.127 335.5,278.5C 336.495,272.872 336.829,267.206 336.5,261.5 Z"/></g>
<g><path style="opacity:0.29" fill="#d5646b" d="M 177.5,279.5 C 176.461,281.531 174.795,282.864 172.5,283.5C 173.579,281.457 175.246,280.124 177.5,279.5 Z"/></g>
<g><path style="opacity:1" fill="#ce160e" d="M 210.5,272.5 C 210.649,273.552 210.483,274.552 210,275.5C 207.832,276.572 205.665,278.405 203.5,281C 204.646,281.645 205.646,282.478 206.5,283.5C 208.003,282.948 209.669,282.948 211.5,283.5C 211.5,284.167 211.5,284.833 211.5,285.5C 209.401,286.612 207.067,287.279 204.5,287.5C 202.5,287.5 200.5,287.5 198.5,287.5C 198.325,285.379 198.659,283.379 199.5,281.5C 202.833,280.167 205.167,277.833 206.5,274.5C 208.062,274.267 209.395,273.6 210.5,272.5 Z"/></g>
<g><path style="opacity:1" fill="#da0504" d="M 314.5,282.5 C 316.435,283.15 318.435,283.483 320.5,283.5C 320.5,283.833 320.5,284.167 320.5,284.5C 320.5,285.833 320.5,287.167 320.5,288.5C 316.952,287.298 313.285,286.631 309.5,286.5C 308.2,285.399 307.7,284.066 308,282.5C 310.158,282.605 312.325,282.605 314.5,282.5 Z"/></g>
<g><path style="opacity:0.259" fill="#d0645f" d="M 300.5,284.5 C 303.152,284.41 305.485,285.076 307.5,286.5C 304.848,286.59 302.515,285.924 300.5,284.5 Z"/></g>
<g><path style="opacity:1" fill="#d22d20" d="M 177.5,279.5 C 179.5,279.5 180.5,280.5 180.5,282.5C 180.799,284.604 180.466,286.604 179.5,288.5C 176.961,289.931 174.628,291.597 172.5,293.5C 173.072,288.171 171.072,286.504 166.5,288.5C 167.911,286.086 169.911,284.419 172.5,283.5C 174.795,282.864 176.461,281.531 177.5,279.5 Z"/></g>
<g><path style="opacity:0.29" fill="#cb605e" d="M 199.5,281.5 C 198.659,283.379 198.325,285.379 198.5,287.5C 200.5,287.5 202.5,287.5 204.5,287.5C 200.721,290.188 198.055,289.521 196.5,285.5C 196.815,283.517 197.815,282.184 199.5,281.5 Z"/></g>
<g><path style="opacity:1" fill="#d80302" d="M 320.5,284.5 C 324.157,287.097 328.157,287.764 332.5,286.5C 332.586,287.496 332.252,288.329 331.5,289C 332.167,289.333 332.833,289.667 333.5,290C 332.418,291.33 331.751,292.83 331.5,294.5C 327.991,292.245 324.325,290.245 320.5,288.5C 320.5,287.167 320.5,285.833 320.5,284.5 Z"/></g>
<g><path style="opacity:1" fill="#cd3328" d="M 307.5,286.5 C 308.167,286.5 308.833,286.5 309.5,286.5C 313.285,286.631 316.952,287.298 320.5,288.5C 324.325,290.245 327.991,292.245 331.5,294.5C 331.5,295.167 331.5,295.833 331.5,296.5C 323.682,292.587 315.682,289.253 307.5,286.5 Z"/></g>
<g><path style="opacity:0.782" fill="#c13b34" d="M 262.5,291.5 C 259.947,292.255 257.28,292.922 254.5,293.5C 247.5,293.5 240.5,293.5 233.5,293.5C 242.988,292.434 252.655,291.767 262.5,291.5 Z"/></g>
<g><path style="opacity:1" fill="#d60806" d="M 172.5,293.5 C 170.926,293.063 169.759,292.063 169,290.5C 168.075,291.047 167.242,291.713 166.5,292.5C 167.823,297.088 167.323,297.422 165,293.5C 164.506,295.134 164.34,296.801 164.5,298.5C 162.41,298.55 161.077,297.55 160.5,295.5C 161.325,294.614 162.325,294.281 163.5,294.5C 163.615,292.053 164.615,290.053 166.5,288.5C 171.072,286.504 173.072,288.171 172.5,293.5 Z"/></g>
<g><path style="opacity:0.561" fill="#cf5953" d="M 232.5,293.5 C 229.332,295.182 225.832,296.182 222,296.5C 220.93,296.472 220.097,296.139 219.5,295.5C 223.833,294.833 228.167,294.167 232.5,293.5 Z"/></g>
<g><path style="opacity:1" fill="#d60504" d="M 271.5,294.5 C 275.721,293.808 279.387,294.808 282.5,297.5C 283.736,296.754 285.07,296.421 286.5,296.5C 287.038,298.117 287.371,299.784 287.5,301.5C 285.5,301.5 283.5,301.5 281.5,301.5C 280.833,301.5 280.167,301.5 279.5,301.5C 279.047,300.542 278.381,299.708 277.5,299C 269.841,298.5 262.174,298.334 254.5,298.5C 255.039,294.633 256.539,293.967 259,296.5C 263.182,296.568 267.348,295.901 271.5,294.5 Z"/></g>
<g><path style="opacity:1" fill="#da0403" d="M 332.5,281.5 C 333.675,281.281 334.675,281.614 335.5,282.5C 334.585,283.328 333.919,284.328 333.5,285.5C 334.857,287.565 336.19,289.565 337.5,291.5C 337.5,292.5 337.5,293.5 337.5,294.5C 339.099,294.232 340.432,294.566 341.5,295.5C 343.034,297.342 342.7,298.675 340.5,299.5C 337.881,297.427 334.881,296.427 331.5,296.5C 331.5,295.833 331.5,295.167 331.5,294.5C 331.751,292.83 332.418,291.33 333.5,290C 332.833,289.667 332.167,289.333 331.5,289C 332.252,288.329 332.586,287.496 332.5,286.5C 332.5,284.833 332.5,283.167 332.5,281.5 Z"/></g>
<g><path style="opacity:1" fill="#d23426" d="M 166.5,288.5 C 164.615,290.053 163.615,292.053 163.5,294.5C 162.325,294.281 161.325,294.614 160.5,295.5C 161.077,297.55 162.41,298.55 164.5,298.5C 164.34,296.801 164.506,295.134 165,293.5C 167.323,297.422 167.823,297.088 166.5,292.5C 167.242,291.713 168.075,291.047 169,290.5C 169.759,292.063 170.926,293.063 172.5,293.5C 168.817,297.18 164.817,300.514 160.5,303.5C 160.5,302.167 160.5,300.833 160.5,299.5C 159.5,299.5 158.5,299.5 157.5,299.5C 157.392,297.486 158.058,295.82 159.5,294.5C 161.193,291.81 163.527,289.81 166.5,288.5 Z"/></g>
<g><path style="opacity:1" fill="#cd0707" d="M 232.5,293.5 C 232.833,293.5 233.167,293.5 233.5,293.5C 240.5,293.5 247.5,293.5 254.5,293.5C 250.702,294.483 246.702,294.817 242.5,294.5C 240.801,294.34 239.134,294.506 237.5,295C 240.028,295.669 240.028,296.502 237.5,297.5C 233.574,296.234 229.74,296.568 226,298.5C 223.157,297.237 220.324,297.237 217.5,298.5C 217.833,297.833 218.167,297.167 218.5,296.5C 218.5,295.833 218.833,295.5 219.5,295.5C 220.097,296.139 220.93,296.472 222,296.5C 225.832,296.182 229.332,295.182 232.5,293.5 Z"/></g>
<g><path style="opacity:1" fill="#d50608" d="M 262.5,291.5 C 263.167,291.5 263.5,291.833 263.5,292.5C 265.78,294.223 268.447,294.889 271.5,294.5C 267.348,295.901 263.182,296.568 259,296.5C 256.539,293.967 255.039,294.633 254.5,298.5C 253.167,298.5 251.833,298.5 250.5,298.5C 250.918,297.778 251.584,297.278 252.5,297C 249.048,296.115 245.714,295.282 242.5,294.5C 246.702,294.817 250.702,294.483 254.5,293.5C 257.28,292.922 259.947,292.255 262.5,291.5 Z"/></g>
<g><path style="opacity:1" fill="#cc392b" d="M 263.5,292.5 C 274.577,291.769 285.243,293.103 295.5,296.5C 292.5,296.5 289.5,296.5 286.5,296.5C 285.07,296.421 283.736,296.754 282.5,297.5C 279.387,294.808 275.721,293.808 271.5,294.5C 268.447,294.889 265.78,294.223 263.5,292.5 Z"/></g>
<g><path style="opacity:1" fill="#d70403" d="M 242.5,294.5 C 245.714,295.282 249.048,296.115 252.5,297C 251.584,297.278 250.918,297.778 250.5,298.5C 244.886,298.073 239.553,298.74 234.5,300.5C 230.154,300.334 225.821,300.501 221.5,301C 221.833,301.333 222.167,301.667 222.5,302C 219.793,302.395 217.127,302.895 214.5,303.5C 215.405,302.298 215.405,300.964 214.5,299.5C 215.209,298.596 216.209,298.263 217.5,298.5C 220.324,297.237 223.157,297.237 226,298.5C 229.74,296.568 233.574,296.234 237.5,297.5C 240.028,296.502 240.028,295.669 237.5,295C 239.134,294.506 240.801,294.34 242.5,294.5 Z"/></g>
<g><path style="opacity:1" fill="#d80403" d="M 286.5,296.5 C 289.5,296.5 292.5,296.5 295.5,296.5C 297.64,299.613 300.64,300.946 304.5,300.5C 303.316,301.688 303.316,302.855 304.5,304C 303.207,304.49 301.873,304.657 300.5,304.5C 300.082,303.778 299.416,303.278 298.5,303C 294.83,302.452 291.163,301.952 287.5,301.5C 287.371,299.784 287.038,298.117 286.5,296.5 Z"/></g>
<g><path style="opacity:1" fill="#d0392d" d="M 159.5,294.5 C 158.058,295.82 157.392,297.486 157.5,299.5C 158.5,299.5 159.5,299.5 160.5,299.5C 160.5,300.833 160.5,302.167 160.5,303.5C 153.194,310.806 145.86,318.14 138.5,325.5C 138.229,323.179 138.896,321.179 140.5,319.5C 138.282,318.943 135.949,318.943 133.5,319.5C 136.123,315.209 139.456,311.543 143.5,308.5C 148.45,303.364 153.783,298.698 159.5,294.5 Z"/></g>
<g><path style="opacity:0.745" fill="#c1433b" d="M 218.5,296.5 C 218.167,297.167 217.833,297.833 217.5,298.5C 216.209,298.263 215.209,298.596 214.5,299.5C 212.5,299.5 210.5,299.5 208.5,299.5C 211.381,297.32 214.714,296.32 218.5,296.5 Z"/></g>
<g><path style="opacity:0.878" fill="#c7362b" d="M 250.5,298.5 C 251.833,298.5 253.167,298.5 254.5,298.5C 262.174,298.334 269.841,298.5 277.5,299C 278.381,299.708 279.047,300.542 279.5,301.5C 266.544,299.405 253.544,299.071 240.5,300.5C 238.5,300.5 236.5,300.5 234.5,300.5C 239.553,298.74 244.886,298.073 250.5,298.5 Z"/></g>
<g><path style="opacity:1" fill="#cc3a2c" d="M 295.5,296.5 C 310.073,299.458 323.406,305.125 335.5,313.5C 331.22,313.301 327.553,311.968 324.5,309.5C 320.693,306.793 316.36,305.46 311.5,305.5C 311.719,304.325 311.386,303.325 310.5,302.5C 308.47,301.828 306.47,301.162 304.5,300.5C 300.64,300.946 297.64,299.613 295.5,296.5 Z"/></g>
<g><path style="opacity:1" fill="#cd4739" d="M 234.5,300.5 C 236.5,300.5 238.5,300.5 240.5,300.5C 225.812,302.508 211.479,306.175 197.5,311.5C 197.703,309.956 198.37,308.622 199.5,307.5C 202.086,306.52 204.753,306.187 207.5,306.5C 210.018,305.736 212.351,304.736 214.5,303.5C 217.127,302.895 219.793,302.395 222.5,302C 222.167,301.667 221.833,301.333 221.5,301C 225.821,300.501 230.154,300.334 234.5,300.5 Z"/></g>
<g><path style="opacity:1" fill="#ce0906" d="M 206.5,299.5 C 207.167,299.5 207.833,299.5 208.5,299.5C 210.5,299.5 212.5,299.5 214.5,299.5C 215.405,300.964 215.405,302.298 214.5,303.5C 212.351,304.736 210.018,305.736 207.5,306.5C 208.574,305.115 209.907,303.949 211.5,303C 206.733,302.533 202.067,303.033 197.5,304.5C 199.78,303.233 202.28,302.233 205,301.5C 206.03,301.164 206.53,300.497 206.5,299.5 Z"/></g>
<g><path style="opacity:1" fill="#ce4137" d="M 281.5,301.5 C 283.5,301.5 285.5,301.5 287.5,301.5C 291.163,301.952 294.83,302.452 298.5,303C 299.416,303.278 300.082,303.778 300.5,304.5C 301.167,305.167 301.833,305.833 302.5,306.5C 295.334,305.145 288.334,303.479 281.5,301.5 Z"/></g>
<g><path style="opacity:1" fill="#d22419" d="M 341.5,295.5 C 342.833,295.5 344.167,295.5 345.5,295.5C 349.881,297.684 353.881,300.35 357.5,303.5C 354.728,302.629 352.062,302.629 349.5,303.5C 349.5,304.5 349.5,305.5 349.5,306.5C 349.167,306.5 348.833,306.5 348.5,306.5C 342.661,303.415 336.994,300.082 331.5,296.5C 334.881,296.427 337.881,297.427 340.5,299.5C 342.7,298.675 343.034,297.342 341.5,295.5 Z"/></g>
<g><path style="opacity:1" fill="#d60704" d="M 304.5,300.5 C 306.47,301.162 308.47,301.828 310.5,302.5C 311.386,303.325 311.719,304.325 311.5,305.5C 316.36,305.46 320.693,306.793 324.5,309.5C 322.5,309.5 321.5,310.5 321.5,312.5C 317.668,311.285 314.001,309.619 310.5,307.5C 307.914,306.52 305.247,306.187 302.5,306.5C 301.833,305.833 301.167,305.167 300.5,304.5C 301.873,304.657 303.207,304.49 304.5,304C 303.316,302.855 303.316,301.688 304.5,300.5 Z"/></g>
<g><path style="opacity:0.945" fill="#c23d31" d="M 206.5,299.5 C 206.53,300.497 206.03,301.164 205,301.5C 202.28,302.233 199.78,303.233 197.5,304.5C 196.395,305.6 195.062,306.267 193.5,306.5C 191.958,307.301 190.292,307.634 188.5,307.5C 193.937,303.896 199.937,301.23 206.5,299.5 Z"/></g>
<g><path style="opacity:0.486" fill="#d3524a" d="M 348.5,306.5 C 348.833,306.5 349.167,306.5 349.5,306.5C 350.882,307.801 352.548,308.634 354.5,309C 355.252,309.671 355.586,310.504 355.5,311.5C 352.326,310.99 349.992,309.323 348.5,306.5 Z"/></g>
<g><path style="opacity:1" fill="#d30706" d="M 143.5,308.5 C 146.557,306.125 149.89,304.125 153.5,302.5C 153.463,304.322 153.796,306.322 154.5,308.5C 150.5,307.833 148.833,309.5 149.5,313.5C 147.833,313.5 146.167,313.5 144.5,313.5C 144.5,314.5 144.5,315.5 144.5,316.5C 142.401,317.231 140.401,317.231 138.5,316.5C 140.616,314.064 142.283,311.397 143.5,308.5 Z"/></g>
<g><path style="opacity:1" fill="#d40a07" d="M 357.5,303.5 C 357.628,305.09 358.295,306.423 359.5,307.5C 363.713,310.328 367.713,313.328 371.5,316.5C 369.608,316.389 367.608,317.056 365.5,318.5C 364.583,317.873 363.583,317.539 362.5,317.5C 361.415,315.413 359.749,314.08 357.5,313.5C 356.5,313.167 355.833,312.5 355.5,311.5C 355.586,310.504 355.252,309.671 354.5,309C 352.548,308.634 350.882,307.801 349.5,306.5C 349.5,305.5 349.5,304.5 349.5,303.5C 352.062,302.629 354.728,302.629 357.5,303.5 Z"/></g>
<g><path style="opacity:1" fill="#d60909" d="M 207.5,306.5 C 204.753,306.187 202.086,306.52 199.5,307.5C 198.37,308.622 197.703,309.956 197.5,311.5C 194.659,311.56 191.993,312.226 189.5,313.5C 191.053,311.687 192.72,309.853 194.5,308C 193.944,307.617 193.611,307.117 193.5,306.5C 195.062,306.267 196.395,305.6 197.5,304.5C 202.067,303.033 206.733,302.533 211.5,303C 209.907,303.949 208.574,305.115 207.5,306.5 Z"/></g>
<g><path style="opacity:0.741" fill="#ca4b45" d="M 188.5,307.5 C 187.225,309.73 185.225,311.063 182.5,311.5C 180.071,311.884 177.737,312.551 175.5,313.5C 176.962,311.745 178.795,310.412 181,309.5C 181.333,309.833 181.667,310.167 182,310.5C 183.993,309.086 186.16,308.086 188.5,307.5 Z"/></g>
<g><path style="opacity:1" fill="#d90403" d="M 193.5,306.5 C 193.611,307.117 193.944,307.617 194.5,308C 192.72,309.853 191.053,311.687 189.5,313.5C 188.539,315.265 188.205,317.265 188.5,319.5C 188.92,321.674 188.92,323.674 188.5,325.5C 187.808,324.975 187.308,324.308 187,323.5C 186.667,323.833 186.333,324.167 186,324.5C 184.872,322.655 184.372,320.655 184.5,318.5C 182.901,318.232 181.568,318.566 180.5,319.5C 179.609,318.89 178.609,318.557 177.5,318.5C 177.5,317.167 177.5,315.833 177.5,314.5C 179.664,314.279 181.33,313.279 182.5,311.5C 185.225,311.063 187.225,309.73 188.5,307.5C 190.292,307.634 191.958,307.301 193.5,306.5 Z"/></g>
<g><path style="opacity:0.996" fill="#c93d31" d="M 302.5,306.5 C 305.247,306.187 307.914,306.52 310.5,307.5C 314.001,309.619 317.668,311.285 321.5,312.5C 323.048,312.821 323.715,313.821 323.5,315.5C 316.341,312.676 309.341,309.676 302.5,306.5 Z"/></g>
<g><path style="opacity:0.384" fill="#e58884" d="M 357.5,313.5 C 359.749,314.08 361.415,315.413 362.5,317.5C 360.251,316.92 358.585,315.587 357.5,313.5 Z"/></g>
<g><path style="opacity:0.506" fill="#d55145" d="M 197.5,311.5 C 195.058,313.226 192.391,314.726 189.5,316C 190.38,317.356 190.714,318.856 190.5,320.5C 189.833,320.167 189.167,319.833 188.5,319.5C 188.205,317.265 188.539,315.265 189.5,313.5C 191.993,312.226 194.659,311.56 197.5,311.5 Z"/></g>
<g><path style="opacity:0.106" fill="#eba29a" d="M 323.5,315.5 C 325.027,315.427 326.027,316.094 326.5,317.5C 324.973,317.573 323.973,316.906 323.5,315.5 Z"/></g>
<g><path style="opacity:1" fill="#d30606" d="M 324.5,309.5 C 327.553,311.968 331.22,313.301 335.5,313.5C 335.369,314.239 335.536,314.906 336,315.5C 337.652,316.399 339.152,317.399 340.5,318.5C 338.533,318.261 336.699,318.594 335,319.5C 334.667,318.833 334.333,318.167 334,317.5C 332.743,319.746 330.91,321.079 328.5,321.5C 328.768,319.901 328.434,318.568 327.5,317.5C 327.167,317.5 326.833,317.5 326.5,317.5C 326.027,316.094 325.027,315.427 323.5,315.5C 323.715,313.821 323.048,312.821 321.5,312.5C 321.5,310.5 322.5,309.5 324.5,309.5 Z"/></g>
<g><path style="opacity:0.502" fill="#c84d44" d="M 335.5,313.5 C 338.563,315.025 341.23,317.025 343.5,319.5C 342.391,319.443 341.391,319.11 340.5,318.5C 339.152,317.399 337.652,316.399 336,315.5C 335.536,314.906 335.369,314.239 335.5,313.5 Z"/></g>
<g><path style="opacity:1" fill="#cf3d2f" d="M 357.5,303.5 C 365.356,308.6 372.356,314.6 378.5,321.5C 376.302,320.986 374.302,319.986 372.5,318.5C 369.517,319.592 369.184,321.592 371.5,324.5C 367.922,322.924 364.922,320.591 362.5,317.5C 363.583,317.539 364.583,317.873 365.5,318.5C 367.608,317.056 369.608,316.389 371.5,316.5C 367.713,313.328 363.713,310.328 359.5,307.5C 358.295,306.423 357.628,305.09 357.5,303.5 Z"/></g>
<g><path style="opacity:0.953" fill="#c84235" d="M 175.5,313.5 C 175.141,315.371 174.141,316.871 172.5,318C 169.89,319.481 167.223,320.648 164.5,321.5C 167.583,318.092 171.249,315.425 175.5,313.5 Z"/></g>
<g><path style="opacity:0.612" fill="#c24238" d="M 257.5,321.5 C 257.158,322.338 256.492,322.672 255.5,322.5C 247.83,322.778 240.164,323.111 232.5,323.5C 233.952,322.698 235.618,322.198 237.5,322C 244.158,321.5 250.825,321.334 257.5,321.5 Z"/></g>
<g><path style="opacity:1" fill="#d60604" d="M 264.5,321.5 C 267.865,323.327 271.532,324.66 275.5,325.5C 274.995,326.919 273.995,327.585 272.5,327.5C 267.213,326.658 261.88,326.324 256.5,326.5C 258.129,324.804 257.796,323.804 255.5,323.5C 255.5,323.167 255.5,322.833 255.5,322.5C 256.492,322.672 257.158,322.338 257.5,321.5C 259.756,320.562 262.09,320.562 264.5,321.5 Z"/></g>
<g><path style="opacity:1" fill="#d70605" d="M 138.5,325.5 C 137.167,325.5 135.833,325.5 134.5,325.5C 134.665,328.518 134.498,331.518 134,334.5C 131.639,332.434 130.472,329.767 130.5,326.5C 131.526,324.153 132.526,321.82 133.5,319.5C 135.949,318.943 138.282,318.943 140.5,319.5C 138.896,321.179 138.229,323.179 138.5,325.5 Z"/></g>
<g><path style="opacity:1" fill="#d70805" d="M 182.5,311.5 C 181.33,313.279 179.664,314.279 177.5,314.5C 177.5,315.833 177.5,317.167 177.5,318.5C 176.17,319.832 174.503,320.665 172.5,321C 173.641,321.741 173.641,322.575 172.5,323.5C 169.5,324.833 166.5,324.833 163.5,323.5C 163.863,322.817 164.196,322.15 164.5,321.5C 167.223,320.648 169.89,319.481 172.5,318C 174.141,316.871 175.141,315.371 175.5,313.5C 177.737,312.551 180.071,311.884 182.5,311.5 Z"/></g>
<g><path style="opacity:1" fill="#d24030" d="M 177.5,318.5 C 178.609,318.557 179.609,318.89 180.5,319.5C 174.862,324.321 168.862,328.654 162.5,332.5C 162.5,331.167 162.5,329.833 162.5,328.5C 164.831,328.502 166.831,327.669 168.5,326C 163.42,325.603 158.754,326.77 154.5,329.5C 157.251,326.08 160.584,323.413 164.5,321.5C 164.196,322.15 163.863,322.817 163.5,323.5C 166.5,324.833 169.5,324.833 172.5,323.5C 173.641,322.575 173.641,321.741 172.5,321C 174.503,320.665 176.17,319.832 177.5,318.5 Z"/></g>
<g><path style="opacity:1" fill="#d80304" d="M 255.5,323.5 C 257.796,323.804 258.129,324.804 256.5,326.5C 252.143,326.586 247.81,326.92 243.5,327.5C 243.611,326.883 243.944,326.383 244.5,326C 242.765,325.349 241.098,325.515 239.5,326.5C 238.5,326 237.5,325.5 236.5,325C 242.835,324.444 249.168,323.944 255.5,323.5 Z"/></g>
<g><path style="opacity:1" fill="#d10406" d="M 255.5,322.5 C 255.5,322.833 255.5,323.167 255.5,323.5C 249.168,323.944 242.835,324.444 236.5,325C 237.5,325.5 238.5,326 239.5,326.5C 241.098,325.515 242.765,325.349 244.5,326C 243.944,326.383 243.611,326.883 243.5,327.5C 240.413,329.017 237.079,329.684 233.5,329.5C 234.806,328.533 235.473,327.199 235.5,325.5C 234.167,325.5 232.833,325.5 231.5,325.5C 231.833,324.833 232.167,324.167 232.5,323.5C 240.164,323.111 247.83,322.778 255.5,322.5 Z"/></g>
<g><path style="opacity:0.875" fill="#c7433c" d="M 280.5,322.5 C 284.913,322.853 289.246,323.686 293.5,325C 295.881,325.223 297.547,326.39 298.5,328.5C 292.944,326.656 287.277,325.322 281.5,324.5C 281.167,323.833 280.833,323.167 280.5,322.5 Z"/></g>
<g><path style="opacity:1" fill="#d90504" d="M 340.5,318.5 C 340.5,319.5 340.5,320.5 340.5,321.5C 337.833,321.5 335.167,321.5 332.5,321.5C 332.5,323.833 332.5,326.167 332.5,328.5C 329.902,335.429 327.569,342.429 325.5,349.5C 324.778,349.918 324.278,350.584 324,351.5C 323.047,348.568 322.547,345.568 322.5,342.5C 322.993,340.194 323.326,337.861 323.5,335.5C 324.5,335.5 325.5,335.5 326.5,335.5C 326.352,330.681 327.018,326.015 328.5,321.5C 330.91,321.079 332.743,319.746 334,317.5C 334.333,318.167 334.667,318.833 335,319.5C 336.699,318.594 338.533,318.261 340.5,318.5 Z"/></g>
<g><path style="opacity:1" fill="#d40706" d="M 340.5,318.5 C 341.391,319.11 342.391,319.443 343.5,319.5C 343.833,319.5 344.167,319.5 344.5,319.5C 345.15,321.435 345.483,323.435 345.5,325.5C 346.552,325.351 347.552,325.517 348.5,326C 349.833,328 351.167,330 352.5,332C 350.811,331.866 349.144,331.366 347.5,330.5C 345.5,329.5 343.5,328.5 341.5,327.5C 340.495,325.144 338.828,323.478 336.5,322.5C 334.025,323.677 333.025,325.677 333.5,328.5C 333.167,328.5 332.833,328.5 332.5,328.5C 332.5,326.167 332.5,323.833 332.5,321.5C 335.167,321.5 337.833,321.5 340.5,321.5C 340.5,320.5 340.5,319.5 340.5,318.5 Z"/></g>
<g><path style="opacity:0.922" fill="#d85d57" d="M 341.5,327.5 C 339.695,326.763 338.029,325.763 336.5,324.5C 335.141,325.624 334.141,326.958 333.5,328.5C 333.025,325.677 334.025,323.677 336.5,322.5C 338.828,323.478 340.495,325.144 341.5,327.5 Z"/></g>
<g><path style="opacity:0.999" fill="#d32519" d="M 378.5,321.5 C 378.833,321.5 379.167,321.5 379.5,321.5C 380.397,326.14 380.564,330.806 380,335.5C 379.31,336.738 378.81,336.738 378.5,335.5C 379.741,332.537 379.741,329.537 378.5,326.5C 377.575,327.641 376.741,327.641 376,326.5C 375.46,328.135 375.96,329.468 377.5,330.5C 376.408,333.094 374.741,335.261 372.5,337C 372.833,337.333 373.167,337.667 373.5,338C 370.183,338.498 366.85,338.665 363.5,338.5C 362.89,337.609 362.557,336.609 362.5,335.5C 366.334,337.889 369.834,337.223 373,333.5C 373.712,330.256 373.212,327.256 371.5,324.5C 369.184,321.592 369.517,319.592 372.5,318.5C 374.302,319.986 376.302,320.986 378.5,321.5 Z"/></g>
<g><path style="opacity:1" fill="#d50b09" d="M 162.5,332.5 C 159.02,331.283 157.02,332.616 156.5,336.5C 155.167,336.5 153.833,336.5 152.5,336.5C 152.483,338.565 152.15,340.565 151.5,342.5C 151.167,342.5 150.833,342.5 150.5,342.5C 149.833,342.5 149.167,342.5 148.5,342.5C 148.719,341.325 148.386,340.325 147.5,339.5C 144.689,338.92 142.023,338.254 139.5,337.5C 141.735,337.795 143.735,337.461 145.5,336.5C 145.842,335.662 146.508,335.328 147.5,335.5C 150.427,334.243 152.761,332.243 154.5,329.5C 158.754,326.77 163.42,325.603 168.5,326C 166.831,327.669 164.831,328.502 162.5,328.5C 162.5,329.833 162.5,331.167 162.5,332.5 Z"/></g>
<g><path style="opacity:1" fill="#cd493b" d="M 256.5,326.5 C 261.88,326.324 267.213,326.658 272.5,327.5C 277.008,328.701 281.675,329.701 286.5,330.5C 288.199,330.34 289.866,330.506 291.5,331C 292.252,331.671 292.586,332.504 292.5,333.5C 270.167,328.167 247.833,328.167 225.5,333.5C 226.448,332.022 227.781,331.022 229.5,330.5C 231.099,330.768 232.432,330.434 233.5,329.5C 237.079,329.684 240.413,329.017 243.5,327.5C 247.81,326.92 252.143,326.586 256.5,326.5 Z"/></g>
<g><path style="opacity:1" fill="#ce1e14" d="M 264.5,321.5 C 269.927,321.218 275.26,321.551 280.5,322.5C 280.833,323.167 281.167,323.833 281.5,324.5C 280.078,324.709 278.745,325.209 277.5,326C 278.865,327.682 280.365,327.849 282,326.5C 283.698,327.741 285.198,329.074 286.5,330.5C 281.675,329.701 277.008,328.701 272.5,327.5C 273.995,327.585 274.995,326.919 275.5,325.5C 271.532,324.66 267.865,323.327 264.5,321.5 Z"/></g>
<g><path style="opacity:1" fill="#d70505" d="M 281.5,324.5 C 287.277,325.322 292.944,326.656 298.5,328.5C 298.998,331.681 298.165,334.347 296,336.5C 295.517,335.552 295.351,334.552 295.5,333.5C 294.5,333.5 293.5,333.5 292.5,333.5C 292.586,332.504 292.252,331.671 291.5,331C 289.866,330.506 288.199,330.34 286.5,330.5C 285.198,329.074 283.698,327.741 282,326.5C 280.365,327.849 278.865,327.682 277.5,326C 278.745,325.209 280.078,324.709 281.5,324.5 Z"/></g>
<g><path style="opacity:1" fill="#d80307" d="M 231.5,325.5 C 232.833,325.5 234.167,325.5 235.5,325.5C 235.473,327.199 234.806,328.533 233.5,329.5C 232.432,330.434 231.099,330.768 229.5,330.5C 227.708,330.634 226.042,330.301 224.5,329.5C 224.539,328.417 224.873,327.417 225.5,326.5C 227.396,325.534 229.396,325.201 231.5,325.5 Z"/></g>
<g><path style="opacity:1" fill="#cb392c" d="M 232.5,323.5 C 232.167,324.167 231.833,324.833 231.5,325.5C 229.396,325.201 227.396,325.534 225.5,326.5C 224.873,327.417 224.539,328.417 224.5,329.5C 222.5,329.5 220.5,329.5 218.5,329.5C 218.574,327.589 219.574,326.422 221.5,326C 225.07,324.69 228.737,323.857 232.5,323.5 Z"/></g>
<g><path style="opacity:0.208" fill="#d66761" d="M 341.5,327.5 C 343.5,328.5 345.5,329.5 347.5,330.5C 348.11,331.391 348.443,332.391 348.5,333.5C 345.568,332.2 343.234,330.2 341.5,327.5 Z"/></g>
<g><path style="opacity:0.999" fill="#cc1d15" d="M 180.5,319.5 C 181.568,318.566 182.901,318.232 184.5,318.5C 184.372,320.655 184.872,322.655 186,324.5C 186.333,324.167 186.667,323.833 187,323.5C 187.308,324.308 187.808,324.975 188.5,325.5C 188.92,323.674 188.92,321.674 188.5,319.5C 189.167,319.833 189.833,320.167 190.5,320.5C 191.434,321.568 191.768,322.901 191.5,324.5C 191.5,326.167 191.5,327.833 191.5,329.5C 190.25,329.423 189.417,328.756 189,327.5C 188.5,328 188,328.5 187.5,329C 188.605,331.12 188.605,333.287 187.5,335.5C 187.167,335.5 186.833,335.5 186.5,335.5C 184.778,329.852 182.778,324.518 180.5,319.5 Z"/></g>
<g><path style="opacity:0.322" fill="#d9716a" d="M 154.5,329.5 C 152.761,332.243 150.427,334.243 147.5,335.5C 149.239,332.757 151.573,330.757 154.5,329.5 Z"/></g>
<g><path style="opacity:0.561" fill="#ce5046" d="M 218.5,329.5 C 218.5,333.5 218.5,337.5 218.5,341.5C 216.146,337.456 216.146,333.456 218.5,329.5 Z"/></g>
<g><path style="opacity:1" fill="#cd2b20" d="M 344.5,319.5 C 350.917,324.373 356.917,329.707 362.5,335.5C 360.201,334.862 358.034,333.862 356,332.5C 355.333,334.167 355.333,335.833 356,337.5C 357.14,339.279 358.307,340.946 359.5,342.5C 355.273,340.215 351.607,337.215 348.5,333.5C 348.443,332.391 348.11,331.391 347.5,330.5C 349.144,331.366 350.811,331.866 352.5,332C 351.167,330 349.833,328 348.5,326C 347.552,325.517 346.552,325.351 345.5,325.5C 345.483,323.435 345.15,321.435 344.5,319.5 Z"/></g>
<g><path style="opacity:1" fill="#cc2015" d="M 133.5,319.5 C 132.526,321.82 131.526,324.153 130.5,326.5C 130.472,329.767 131.639,332.434 134,334.5C 134.498,331.518 134.665,328.518 134.5,325.5C 135.833,325.5 137.167,325.5 138.5,325.5C 136.774,327.82 136.107,330.487 136.5,333.5C 136.557,334.609 136.89,335.609 137.5,336.5C 135.856,336.714 134.356,336.38 133,335.5C 132.53,336.577 132.697,337.577 133.5,338.5C 132.25,338.423 131.417,337.756 131,336.5C 130.172,332.534 129.672,328.534 129.5,324.5C 130.08,322.251 131.413,320.585 133.5,319.5 Z"/></g>
<g><path style="opacity:1" fill="#cc3d2f" d="M 327.5,317.5 C 328.434,318.568 328.768,319.901 328.5,321.5C 327.018,326.015 326.352,330.681 326.5,335.5C 325.5,335.5 324.5,335.5 323.5,335.5C 324.957,329.551 326.29,323.551 327.5,317.5 Z"/></g>
<g><path style="opacity:1" fill="#d70903" d="M 362.5,335.5 C 362.557,336.609 362.89,337.609 363.5,338.5C 366.125,339.441 366.125,340.607 363.5,342C 362.207,342.49 360.873,342.657 359.5,342.5C 358.307,340.946 357.14,339.279 356,337.5C 355.333,335.833 355.333,334.167 356,332.5C 358.034,333.862 360.201,334.862 362.5,335.5 Z"/></g>
<g><path style="opacity:1" fill="#d30706" d="M 218.5,329.5 C 220.5,329.5 222.5,329.5 224.5,329.5C 226.042,330.301 227.708,330.634 229.5,330.5C 227.781,331.022 226.448,332.022 225.5,333.5C 225.5,335.167 225.5,336.833 225.5,338.5C 225.867,343.003 226.867,347.336 228.5,351.5C 227.167,350.167 225.833,348.833 224.5,347.5C 223.596,346.791 223.263,345.791 223.5,344.5C 221.678,344.169 220.011,343.502 218.5,342.5C 218.5,342.167 218.5,341.833 218.5,341.5C 218.5,337.5 218.5,333.5 218.5,329.5 Z"/></g>
<g><path style="opacity:0.035" fill="#fb9190" d="M 299.5,329.5 C 301.026,330.492 301.693,331.992 301.5,334C 301.486,335.385 301.152,336.551 300.5,337.5C 300.599,334.763 300.265,332.096 299.5,329.5 Z"/></g>
<g><path style="opacity:0.094" fill="#d15953" d="M 136.5,333.5 C 138.997,335.871 141.997,336.871 145.5,336.5C 143.735,337.461 141.735,337.795 139.5,337.5C 138.508,337.672 137.842,337.338 137.5,336.5C 136.89,335.609 136.557,334.609 136.5,333.5 Z"/></g>
<g><path style="opacity:1" fill="#cc3024" d="M 298.5,328.5 C 299.167,328.5 299.5,328.833 299.5,329.5C 300.265,332.096 300.599,334.763 300.5,337.5C 299.074,345.685 296.408,353.352 292.5,360.5C 292.151,356.049 293.317,352.049 296,348.5C 296.903,344.967 296.57,341.633 295,338.5C 293.694,341.621 291.86,344.287 289.5,346.5C 291.394,342.376 292.394,338.043 292.5,333.5C 293.5,333.5 294.5,333.5 295.5,333.5C 295.351,334.552 295.517,335.552 296,336.5C 298.165,334.347 298.998,331.681 298.5,328.5 Z"/></g>
<g><path style="opacity:1" fill="#d44739" d="M 162.5,332.5 C 159.064,336.057 155.397,339.391 151.5,342.5C 152.15,340.565 152.483,338.565 152.5,336.5C 153.833,336.5 155.167,336.5 156.5,336.5C 157.02,332.616 159.02,331.283 162.5,332.5 Z"/></g>
<g><path style="opacity:0.459" fill="#d55c53" d="M 186.5,335.5 C 186.833,335.5 187.167,335.5 187.5,335.5C 188.785,338.589 189.451,341.922 189.5,345.5C 188.13,342.381 187.13,339.048 186.5,335.5 Z"/></g>
<g><path style="opacity:1" fill="#d42316" d="M 191.5,329.5 C 192.54,334.614 194.206,339.614 196.5,344.5C 194.896,343.713 194.229,342.38 194.5,340.5C 193.178,340.67 192.011,340.337 191,339.5C 190.833,340.5 190.667,341.5 190.5,342.5C 191.589,346.097 192.255,349.763 192.5,353.5C 190.903,351.152 189.903,348.486 189.5,345.5C 189.451,341.922 188.785,338.589 187.5,335.5C 188.605,333.287 188.605,331.12 187.5,329C 188,328.5 188.5,328 189,327.5C 189.417,328.756 190.25,329.423 191.5,329.5 Z"/></g>
<g><path style="opacity:0.451" fill="#d16b64" d="M 323.5,335.5 C 323.326,337.861 322.993,340.194 322.5,342.5C 322.167,342.5 321.833,342.5 321.5,342.5C 321.41,339.848 322.076,337.515 323.5,335.5 Z"/></g>
<g><path style="opacity:1" fill="#cb4338" d="M 379.5,321.5 C 383.297,327.245 383.464,333.245 380,339.5C 374.197,345.083 367.697,346.416 360.5,343.5C 365.203,343.563 369.87,343.229 374.5,342.5C 374.5,341.167 374.5,339.833 374.5,338.5C 375.5,338.5 376.5,338.5 377.5,338.5C 377.263,337.209 377.596,336.209 378.5,335.5C 378.81,336.738 379.31,336.738 380,335.5C 380.564,330.806 380.397,326.14 379.5,321.5 Z"/></g>
<g><path style="opacity:1" fill="#d80302" d="M 137.5,336.5 C 137.842,337.338 138.508,337.672 139.5,337.5C 142.023,338.254 144.689,338.92 147.5,339.5C 148.386,340.325 148.719,341.325 148.5,342.5C 144.486,342.666 140.486,342.499 136.5,342C 135.186,341.015 134.186,339.848 133.5,338.5C 132.697,337.577 132.53,336.577 133,335.5C 134.356,336.38 135.856,336.714 137.5,336.5 Z"/></g>
<g><path style="opacity:1" fill="#d30505" d="M 378.5,335.5 C 377.596,336.209 377.263,337.209 377.5,338.5C 376.5,338.5 375.5,338.5 374.5,338.5C 374.5,339.833 374.5,341.167 374.5,342.5C 369.87,343.229 365.203,343.563 360.5,343.5C 359.833,343.5 359.5,343.167 359.5,342.5C 360.873,342.657 362.207,342.49 363.5,342C 366.125,340.607 366.125,339.441 363.5,338.5C 366.85,338.665 370.183,338.498 373.5,338C 373.167,337.667 372.833,337.333 372.5,337C 374.741,335.261 376.408,333.094 377.5,330.5C 375.96,329.468 375.46,328.135 376,326.5C 376.741,327.641 377.575,327.641 378.5,326.5C 379.741,329.537 379.741,332.537 378.5,335.5 Z"/></g>
<g><path style="opacity:0.984" fill="#c03127" d="M 129.5,324.5 C 129.672,328.534 130.172,332.534 131,336.5C 131.417,337.756 132.25,338.423 133.5,338.5C 134.186,339.848 135.186,341.015 136.5,342C 140.486,342.499 144.486,342.666 148.5,342.5C 149.167,342.5 149.833,342.5 150.5,342.5C 150.389,343.117 150.056,343.617 149.5,344C 134.683,347.164 127.517,341.331 128,326.5C 128.278,325.584 128.778,324.918 129.5,324.5 Z"/></g>
<g><path style="opacity:1" fill="#d60806" d="M 292.5,360.5 C 292.5,360.833 292.5,361.167 292.5,361.5C 291.732,360.737 291.232,359.737 291,358.5C 290.796,361.797 289.963,364.797 288.5,367.5C 288.833,364.5 287.5,363.167 284.5,363.5C 284.975,366.082 284.308,368.082 282.5,369.5C 283.15,367.565 283.483,365.565 283.5,363.5C 283.5,363.167 283.5,362.833 283.5,362.5C 287.601,358.099 289.601,352.766 289.5,346.5C 291.86,344.287 293.694,341.621 295,338.5C 296.57,341.633 296.903,344.967 296,348.5C 293.317,352.049 292.151,356.049 292.5,360.5 Z"/></g>
<g><path style="opacity:0.941" fill="#cf504c" d="M 225.5,338.5 C 228.142,345.414 230.809,352.414 233.5,359.5C 232.1,358.9 231.1,357.9 230.5,356.5C 230.204,354.597 229.537,352.93 228.5,351.5C 226.867,347.336 225.867,343.003 225.5,338.5 Z"/></g>
<g><path style="opacity:1" fill="#cc3c32" d="M 191.5,324.5 C 194.796,334.726 198.13,345.059 201.5,355.5C 200.139,353.164 198.139,351.498 195.5,350.5C 196.348,348.591 196.682,346.591 196.5,344.5C 194.206,339.614 192.54,334.614 191.5,329.5C 191.5,327.833 191.5,326.167 191.5,324.5 Z"/></g>
<g><path style="opacity:1" fill="#ce2419" d="M 321.5,342.5 C 321.833,342.5 322.167,342.5 322.5,342.5C 322.547,345.568 323.047,348.568 324,351.5C 324.278,350.584 324.778,349.918 325.5,349.5C 325.741,352.034 324.741,353.7 322.5,354.5C 322.836,352.525 322.336,350.525 321,348.5C 320.731,351.352 319.897,354.018 318.5,356.5C 317.675,357.386 316.675,357.719 315.5,357.5C 317.264,352.32 319.264,347.32 321.5,342.5 Z"/></g>
<g><path style="opacity:1" fill="#d90304" d="M 224.5,347.5 C 225.833,348.833 227.167,350.167 228.5,351.5C 229.537,352.93 230.204,354.597 230.5,356.5C 230.657,357.873 230.49,359.207 230,360.5C 228.989,359.663 227.822,359.33 226.5,359.5C 225.31,356.259 224.31,352.926 223.5,349.5C 223.863,348.817 224.196,348.15 224.5,347.5 Z"/></g>
<g><path style="opacity:0.902" fill="#cb483c" d="M 289.5,346.5 C 289.601,352.766 287.601,358.099 283.5,362.5C 285.151,356.915 287.151,351.582 289.5,346.5 Z"/></g>
<g><path style="opacity:1" fill="#d4110a" d="M 196.5,344.5 C 196.682,346.591 196.348,348.591 195.5,350.5C 198.139,351.498 200.139,353.164 201.5,355.5C 202.434,356.568 202.768,357.901 202.5,359.5C 203.401,363.241 202.068,365.241 198.5,365.5C 198.532,363.381 197.532,362.048 195.5,361.5C 193.722,359.171 192.722,356.504 192.5,353.5C 192.255,349.763 191.589,346.097 190.5,342.5C 190.667,341.5 190.833,340.5 191,339.5C 192.011,340.337 193.178,340.67 194.5,340.5C 194.229,342.38 194.896,343.713 196.5,344.5 Z"/></g>
<g><path style="opacity:0.992" fill="#ca3f32" d="M 332.5,328.5 C 332.833,328.5 333.167,328.5 333.5,328.5C 331.338,339.315 328.005,349.649 323.5,359.5C 323.167,359.5 322.833,359.5 322.5,359.5C 322.5,357.833 322.5,356.167 322.5,354.5C 324.741,353.7 325.741,352.034 325.5,349.5C 327.569,342.429 329.902,335.429 332.5,328.5 Z"/></g>
<g><path style="opacity:1" fill="#d60605" d="M 322.5,354.5 C 322.5,356.167 322.5,357.833 322.5,359.5C 319.175,365.886 316.175,372.553 313.5,379.5C 312.18,381.27 310.68,381.603 309,380.5C 308.51,381.793 308.343,383.127 308.5,384.5C 307.71,385.609 307.21,386.942 307,388.5C 306.08,388.07 305.247,387.736 304.5,387.5C 305.769,384.298 306.769,380.631 307.5,376.5C 307.5,376.167 307.5,375.833 307.5,375.5C 312.699,371.224 315.366,365.557 315.5,358.5C 315.5,358.167 315.5,357.833 315.5,357.5C 316.675,357.719 317.675,357.386 318.5,356.5C 319.897,354.018 320.731,351.352 321,348.5C 322.336,350.525 322.836,352.525 322.5,354.5 Z"/></g>
<g><path style="opacity:1" fill="#d40b07" d="M 230.5,356.5 C 231.1,357.9 232.1,358.9 233.5,359.5C 233.5,362.5 233.5,365.5 233.5,368.5C 232.5,368.5 231.5,368.5 230.5,368.5C 228.73,365.747 227.397,362.747 226.5,359.5C 227.822,359.33 228.989,359.663 230,360.5C 230.49,359.207 230.657,357.873 230.5,356.5 Z"/></g>
<g><path style="opacity:1" fill="#d33d2c" d="M 202.5,359.5 C 206.675,366.516 210.341,373.849 213.5,381.5C 209.352,378.664 207.019,374.664 206.5,369.5C 205.5,369.5 204.5,369.5 203.5,369.5C 203.881,367.058 203.214,366.391 201.5,367.5C 200.534,369.396 200.201,371.396 200.5,373.5C 198.078,369.924 196.411,365.924 195.5,361.5C 197.532,362.048 198.532,363.381 198.5,365.5C 202.068,365.241 203.401,363.241 202.5,359.5 Z"/></g>
<g><path style="opacity:0.424" fill="#ce4236" d="M 218.5,342.5 C 220.011,343.502 221.678,344.169 223.5,344.5C 223.263,345.791 223.596,346.791 224.5,347.5C 224.196,348.15 223.863,348.817 223.5,349.5C 224.31,352.926 225.31,356.259 226.5,359.5C 227.397,362.747 228.73,365.747 230.5,368.5C 229.662,368.842 229.328,369.508 229.5,370.5C 224.987,361.601 221.32,352.267 218.5,342.5 Z"/></g>
<g><path style="opacity:0.992" fill="#ca453a" d="M 315.5,358.5 C 315.366,365.557 312.699,371.224 307.5,375.5C 309.914,369.674 312.581,364.008 315.5,358.5 Z"/></g>
<g><path style="opacity:0.835" fill="#d25145" d="M 292.5,361.5 C 290.113,369.354 286.78,376.688 282.5,383.5C 282.884,381.071 283.551,378.737 284.5,376.5C 285.589,373.328 286.922,370.328 288.5,367.5C 289.963,364.797 290.796,361.797 291,358.5C 291.232,359.737 291.732,360.737 292.5,361.5 Z"/></g>
<g><path style="opacity:1" fill="#ce3b2e" d="M 233.5,359.5 C 235.646,364.391 237.646,369.391 239.5,374.5C 237.661,373.492 236.328,371.992 235.5,370C 234.551,369.383 233.718,369.549 233,370.5C 233.777,374.767 234.61,379.1 235.5,383.5C 232.727,379.615 230.727,375.282 229.5,370.5C 229.328,369.508 229.662,368.842 230.5,368.5C 231.5,368.5 232.5,368.5 233.5,368.5C 233.5,365.5 233.5,362.5 233.5,359.5 Z"/></g>
<g><path style="opacity:1" fill="#c93c2c" d="M 283.5,363.5 C 283.483,365.565 283.15,367.565 282.5,369.5C 282.267,371.062 281.6,372.395 280.5,373.5C 279.208,375.255 278.208,377.255 277.5,379.5C 276.817,379.863 276.15,380.196 275.5,380.5C 277.4,374.371 280.067,368.704 283.5,363.5 Z"/></g>
<g><path style="opacity:0.976" fill="#d2493b" d="M 322.5,359.5 C 322.833,359.5 323.167,359.5 323.5,359.5C 320.047,370.407 315.047,380.407 308.5,389.5C 308.5,387.833 308.5,386.167 308.5,384.5C 308.343,383.127 308.51,381.793 309,380.5C 310.68,381.603 312.18,381.27 313.5,379.5C 316.175,372.553 319.175,365.886 322.5,359.5 Z"/></g>
<g><path style="opacity:1" fill="#d80403" d="M 288.5,367.5 C 286.922,370.328 285.589,373.328 284.5,376.5C 282.244,377.292 280.91,376.292 280.5,373.5C 281.6,372.395 282.267,371.062 282.5,369.5C 284.308,368.082 284.975,366.082 284.5,363.5C 287.5,363.167 288.833,364.5 288.5,367.5 Z"/></g>
<g><path style="opacity:1" fill="#d60605" d="M 213.5,381.5 C 213.315,385.066 213.981,388.399 215.5,391.5C 215.167,392.5 214.833,393.5 214.5,394.5C 213.583,393.873 212.583,393.539 211.5,393.5C 211.5,393.167 211.5,392.833 211.5,392.5C 210.895,389.873 210.395,387.207 210,384.5C 209.667,384.833 209.333,385.167 209,385.5C 206.425,381.354 204.092,377.02 202,372.5C 201.617,373.056 201.117,373.389 200.5,373.5C 200.201,371.396 200.534,369.396 201.5,367.5C 203.214,366.391 203.881,367.058 203.5,369.5C 204.5,369.5 205.5,369.5 206.5,369.5C 207.019,374.664 209.352,378.664 213.5,381.5 Z"/></g>
<g><path style="opacity:1" fill="#cd3c30" d="M 211.5,392.5 C 206.574,386.993 202.908,380.66 200.5,373.5C 201.117,373.389 201.617,373.056 202,372.5C 204.092,377.02 206.425,381.354 209,385.5C 209.333,385.167 209.667,384.833 210,384.5C 210.395,387.207 210.895,389.873 211.5,392.5 Z"/></g>
<g><path style="opacity:1" fill="#d10f0c" d="M 239.5,374.5 C 239.517,376.565 239.85,378.565 240.5,380.5C 239.078,380.75 238.078,381.583 237.5,383C 238.74,386.099 239.74,389.266 240.5,392.5C 240.5,393.167 240.167,393.5 239.5,393.5C 239.737,392.209 239.404,391.209 238.5,390.5C 237.088,388.396 236.088,386.063 235.5,383.5C 234.61,379.1 233.777,374.767 233,370.5C 233.718,369.549 234.551,369.383 235.5,370C 236.328,371.992 237.661,373.492 239.5,374.5 Z"/></g>
<g><path style="opacity:0.996" fill="#cc4337" d="M 239.5,374.5 C 242.357,379.737 245.024,385.07 247.5,390.5C 243.748,388.148 241.415,384.815 240.5,380.5C 239.85,378.565 239.517,376.565 239.5,374.5 Z"/></g>
<g><path style="opacity:1" fill="#d50503" d="M 280.5,373.5 C 280.91,376.292 282.244,377.292 284.5,376.5C 283.551,378.737 282.884,381.071 282.5,383.5C 280.697,385.081 279.364,387.081 278.5,389.5C 277.542,389.953 276.708,390.619 276,391.5C 274.404,387.937 274.237,384.271 275.5,380.5C 276.15,380.196 276.817,379.863 277.5,379.5C 278.208,377.255 279.208,375.255 280.5,373.5 Z"/></g>
<g><path style="opacity:1" fill="#cd4637" d="M 213.5,381.5 C 216.123,385.791 219.456,389.457 223.5,392.5C 228.64,393.488 233.974,393.821 239.5,393.5C 236.038,394.482 232.371,394.815 228.5,394.5C 224.484,395.1 220.984,394.1 218,391.5C 216.256,392.649 216.089,393.983 217.5,395.5C 218.988,397.577 220.988,398.577 223.5,398.5C 231.65,399.493 239.983,399.826 248.5,399.5C 248.167,396.833 247.833,394.167 247.5,391.5C 251.343,394.801 251.343,397.967 247.5,401C 239.167,401.667 230.833,401.667 222.5,401C 217.852,399.839 214.186,397.339 211.5,393.5C 212.583,393.539 213.583,393.873 214.5,394.5C 214.833,393.5 215.167,392.5 215.5,391.5C 213.981,388.399 213.315,385.066 213.5,381.5 Z"/></g>
<g><path style="opacity:0.997" fill="#d00607" d="M 240.5,380.5 C 241.415,384.815 243.748,388.148 247.5,390.5C 247.5,390.833 247.5,391.167 247.5,391.5C 247.833,394.167 248.167,396.833 248.5,399.5C 239.983,399.826 231.65,399.493 223.5,398.5C 225.167,398.5 226.833,398.5 228.5,398.5C 234.545,398.697 240.545,398.363 246.5,397.5C 246.756,395.208 246.423,393.041 245.5,391C 243.956,391.487 242.29,391.987 240.5,392.5C 239.74,389.266 238.74,386.099 237.5,383C 238.078,381.583 239.078,380.75 240.5,380.5 Z"/></g>
<g><path style="opacity:1" fill="#d01d14" d="M 307.5,376.5 C 306.769,380.631 305.769,384.298 304.5,387.5C 305.247,387.736 306.08,388.07 307,388.5C 307.21,386.942 307.71,385.609 308.5,384.5C 308.5,386.167 308.5,387.833 308.5,389.5C 308.5,389.833 308.5,390.167 308.5,390.5C 307.167,390.5 305.833,390.5 304.5,390.5C 302.228,391.319 299.894,391.985 297.5,392.5C 298.925,391.078 299.925,389.411 300.5,387.5C 302.446,383.561 304.779,379.894 307.5,376.5 Z"/></g>
<g><path style="opacity:0.937" fill="#c91f18" d="M 275.5,380.5 C 274.237,384.271 274.404,387.937 276,391.5C 276.708,390.619 277.542,389.953 278.5,389.5C 278.5,390.833 278.5,392.167 278.5,393.5C 284.026,393.821 289.36,393.488 294.5,392.5C 296.475,390.863 298.475,389.196 300.5,387.5C 299.925,389.411 298.925,391.078 297.5,392.5C 294.495,394.299 291.162,394.966 287.5,394.5C 285.508,394.328 283.842,394.995 282.5,396.5C 280.941,395.926 279.441,395.26 278,394.5C 277.667,395.167 277.333,395.833 277,396.5C 276.29,395.027 275.124,394.36 273.5,394.5C 273.741,391.001 272.908,390.668 271,393.5C 270.506,395.134 270.34,396.801 270.5,398.5C 269.539,396.735 269.205,394.735 269.5,392.5C 270.992,388.182 272.992,384.182 275.5,380.5 Z"/></g>
<g><path style="opacity:0.031" fill="#da7373" d="M 238.5,390.5 C 239.404,391.209 239.737,392.209 239.5,393.5C 233.974,393.821 228.64,393.488 223.5,392.5C 228.944,393.108 233.944,392.442 238.5,390.5 Z"/></g>
<g><path style="opacity:0.043" fill="#d5706b" d="M 282.5,383.5 C 281.9,386.298 280.9,388.965 279.5,391.5C 284.456,392.494 289.456,392.827 294.5,392.5C 289.36,393.488 284.026,393.821 278.5,393.5C 278.5,392.167 278.5,390.833 278.5,389.5C 279.364,387.081 280.697,385.081 282.5,383.5 Z"/></g>
<g><path style="opacity:1" fill="#db0503" d="M 228.5,394.5 C 228.5,395.833 228.5,397.167 228.5,398.5C 226.833,398.5 225.167,398.5 223.5,398.5C 220.988,398.577 218.988,397.577 217.5,395.5C 216.089,393.983 216.256,392.649 218,391.5C 220.984,394.1 224.484,395.1 228.5,394.5 Z"/></g>
<g><path style="opacity:1" fill="#d80203" d="M 228.5,398.5 C 228.5,397.167 228.5,395.833 228.5,394.5C 232.371,394.815 236.038,394.482 239.5,393.5C 240.167,393.5 240.5,393.167 240.5,392.5C 242.29,391.987 243.956,391.487 245.5,391C 246.423,393.041 246.756,395.208 246.5,397.5C 240.545,398.363 234.545,398.697 228.5,398.5 Z"/></g>
<g><path style="opacity:1" fill="#da0504" d="M 304.5,390.5 C 304.5,391.833 304.5,393.167 304.5,394.5C 301.626,395.097 299.292,396.431 297.5,398.5C 294.126,398.326 290.793,397.826 287.5,397C 288.598,396.23 288.598,395.397 287.5,394.5C 291.162,394.966 294.495,394.299 297.5,392.5C 299.894,391.985 302.228,391.319 304.5,390.5 Z"/></g>
<g><path style="opacity:1" fill="#d30405" d="M 287.5,394.5 C 288.598,395.397 288.598,396.23 287.5,397C 290.793,397.826 294.126,398.326 297.5,398.5C 288.598,399.815 279.598,399.815 270.5,398.5C 270.34,396.801 270.506,395.134 271,393.5C 272.908,390.668 273.741,391.001 273.5,394.5C 275.124,394.36 276.29,395.027 277,396.5C 277.333,395.833 277.667,395.167 278,394.5C 279.441,395.26 280.941,395.926 282.5,396.5C 283.842,394.995 285.508,394.328 287.5,394.5 Z"/></g>
<g><path style="opacity:0.608" fill="#cb5549" d="M 304.5,390.5 C 305.833,390.5 307.167,390.5 308.5,390.5C 305.379,395.407 301.046,398.907 295.5,401C 286.833,401.667 278.167,401.667 269.5,401C 266.914,398.126 266.914,395.293 269.5,392.5C 269.205,394.735 269.539,396.735 270.5,398.5C 279.598,399.815 288.598,399.815 297.5,398.5C 299.292,396.431 301.626,395.097 304.5,394.5C 304.5,393.167 304.5,391.833 304.5,390.5 Z"/></g>
</svg>
