<?xml version="1.0" encoding="UTF-8"?>
<!DOCTYPE svg PUBLIC "-//W3C//DTD SVG 1.1//EN" "http://www.w3.org/Graphics/SVG/1.1/DTD/svg11.dtd">
<svg xmlns="http://www.w3.org/2000/svg" version="1.1" width="612px" height="408px" style="shape-rendering:geometricPrecision; text-rendering:geometricPrecision; image-rendering:optimizeQuality; fill-rule:evenodd; clip-rule:evenodd" xmlns:xlink="http://www.w3.org/1999/xlink">
<g><path style="opacity:0.849" fill="#f3d366" d="M 346.5,65.5 C 348.167,66.1667 349.833,66.8333 351.5,67.5C 331.179,66.6635 310.845,66.3302 290.5,66.5C 290.5,66.1667 290.5,65.8333 290.5,65.5C 309.008,64.2876 327.675,64.2876 346.5,65.5 Z"/></g>
<g><path style="opacity:0.18" fill="#f7e896" d="M 346.5,65.5 C 352.373,65.596 358.04,66.2627 363.5,67.5C 359.5,67.5 355.5,67.5 351.5,67.5C 349.833,66.8333 348.167,66.1667 346.5,65.5 Z"/></g>
<g><path style="opacity:0.125" fill="#fbe498" d="M 364.5,67.5 C 368.04,67.7526 371.373,68.4192 374.5,69.5C 370.84,69.8412 367.507,69.1745 364.5,67.5 Z"/></g>
<g><path style="opacity:0.239" fill="#f8dc7f" d="M 290.5,65.5 C 290.5,65.8333 290.5,66.1667 290.5,66.5C 278.768,66.4697 267.435,67.8031 256.5,70.5C 253.941,70.1984 251.607,70.5318 249.5,71.5C 246.833,71.5 244.167,71.5 241.5,71.5C 257.447,67.4673 273.78,65.4673 290.5,65.5 Z"/></g>
<g><path style="opacity:1" fill="#f5c92a" d="M 342.5,88.5 C 336.5,88.5 330.5,88.5 324.5,88.5C 309.478,87.2784 294.478,87.6118 279.5,89.5C 275.232,90.3726 270.898,90.7059 266.5,90.5C 260.798,89.5621 255.131,88.3954 249.5,87C 250.893,84.8219 252.56,83.8219 254.5,84C 251.21,83.7468 248.21,82.7468 245.5,81C 247.618,80.7398 249.284,79.7398 250.5,78C 257.47,77.1771 264.47,75.5104 271.5,73C 265.172,72.9432 258.839,73.2765 252.5,74C 246.78,77.1002 240.78,77.9335 234.5,76.5C 239.821,75.2664 244.821,73.5998 249.5,71.5C 251.607,70.5318 253.941,70.1984 256.5,70.5C 260.707,70.6626 264.874,70.3293 269,69.5C 276.817,72.1792 284.15,71.5125 291,67.5C 293.145,67.396 294.979,68.0627 296.5,69.5C 294.838,70.3267 293.505,71.4933 292.5,73C 297.381,74.6805 300.714,73.1805 302.5,68.5C 303.244,69.9905 303.91,71.4905 304.5,73C 316.833,73.6667 329.167,73.6667 341.5,73C 342.634,71.984 342.301,71.3173 340.5,71C 342.017,69.4916 343.851,68.6583 346,68.5C 351.323,69.9826 356.823,70.9826 362.5,71.5C 366.443,74.6201 370.943,76.6201 376,77.5C 379.503,76.0564 383.003,74.7231 386.5,73.5C 388.867,73.8417 391.2,74.3417 393.5,75C 388.656,75.0328 384.156,76.1994 380,78.5C 379.517,79.448 379.351,80.448 379.5,81.5C 380.978,81.238 382.311,81.5713 383.5,82.5C 382.529,83.9621 382.862,85.2954 384.5,86.5C 377.349,87.3422 370.183,88.0088 363,88.5C 356.094,86.4362 349.261,86.4362 342.5,88.5 Z"/></g>
<g><path style="opacity:0.137" fill="#fbe297" d="M 374.5,69.5 C 380.479,69.4925 386.146,70.4925 391.5,72.5C 385.606,72.0614 379.94,71.0614 374.5,69.5 Z"/></g>
<g><path style="opacity:0.133" fill="#f9e28c" d="M 391.5,72.5 C 397.456,73.0873 403.122,74.4207 408.5,76.5C 402.54,75.9252 396.874,74.5919 391.5,72.5 Z"/></g>
<g><path style="opacity:1" fill="#f5c92f" d="M 290.5,66.5 C 310.845,66.3302 331.179,66.6635 351.5,67.5C 355.5,67.5 359.5,67.5 363.5,67.5C 363.833,67.5 364.167,67.5 364.5,67.5C 367.507,69.1745 370.84,69.8412 374.5,69.5C 379.94,71.0614 385.606,72.0614 391.5,72.5C 396.874,74.5919 402.54,75.9252 408.5,76.5C 411.06,77.5879 413.394,78.9212 415.5,80.5C 411.229,79.3599 406.895,78.8599 402.5,79C 400.137,79.5885 399.137,81.0885 399.5,83.5C 404.449,85.2616 408.449,88.4283 411.5,93C 411.241,94.2613 410.574,95.2613 409.5,96C 412.5,97 415.5,98 418.5,99C 417.167,99.6667 417.167,100.333 418.5,101C 416.19,101.497 413.857,101.663 411.5,101.5C 405.352,99.3408 399.018,98.0074 392.5,97.5C 392.167,97.5 391.833,97.5 391.5,97.5C 388.96,95.5873 386.293,95.254 383.5,96.5C 383.167,96.5 382.833,96.5 382.5,96.5C 381.426,94.716 379.76,93.5494 377.5,93C 365.946,90.6113 354.279,89.1113 342.5,88.5C 349.261,86.4362 356.094,86.4362 363,88.5C 370.183,88.0088 377.349,87.3422 384.5,86.5C 382.862,85.2954 382.529,83.9621 383.5,82.5C 382.311,81.5713 380.978,81.238 379.5,81.5C 379.351,80.448 379.517,79.448 380,78.5C 384.156,76.1994 388.656,75.0328 393.5,75C 391.2,74.3417 388.867,73.8417 386.5,73.5C 383.003,74.7231 379.503,76.0564 376,77.5C 370.943,76.6201 366.443,74.6201 362.5,71.5C 356.823,70.9826 351.323,69.9826 346,68.5C 343.851,68.6583 342.017,69.4916 340.5,71C 342.301,71.3173 342.634,71.984 341.5,73C 329.167,73.6667 316.833,73.6667 304.5,73C 303.91,71.4905 303.244,69.9905 302.5,68.5C 300.714,73.1805 297.381,74.6805 292.5,73C 293.505,71.4933 294.838,70.3267 296.5,69.5C 294.979,68.0627 293.145,67.396 291,67.5C 284.15,71.5125 276.817,72.1792 269,69.5C 264.874,70.3293 260.707,70.6626 256.5,70.5C 267.435,67.8031 278.768,66.4697 290.5,66.5 Z"/></g>
<g><path style="opacity:1" fill="#f5ca2f" d="M 241.5,71.5 C 244.167,71.5 246.833,71.5 249.5,71.5C 244.821,73.5998 239.821,75.2664 234.5,76.5C 240.78,77.9335 246.78,77.1002 252.5,74C 258.839,73.2765 265.172,72.9432 271.5,73C 264.47,75.5104 257.47,77.1771 250.5,78C 249.284,79.7398 247.618,80.7398 245.5,81C 248.21,82.7468 251.21,83.7468 254.5,84C 252.56,83.8219 250.893,84.8219 249.5,87C 255.131,88.3954 260.798,89.5621 266.5,90.5C 265.5,91.1667 264.5,91.8333 263.5,92.5C 260.612,91.9898 258.279,92.6565 256.5,94.5C 256.167,94.5 255.833,94.5 255.5,94.5C 252.07,93.2903 248.737,93.6236 245.5,95.5C 239.468,95.8361 233.468,96.5028 227.5,97.5C 225.089,99.4104 222.423,100.744 219.5,101.5C 218.5,101.5 217.5,101.5 216.5,101.5C 218.872,99.5884 218.205,98.4217 214.5,98C 218.129,97.0426 217.796,96.2092 213.5,95.5C 211.637,97.0619 210.304,96.7285 209.5,94.5C 212.55,92.4827 215.883,91.4827 219.5,91.5C 219.248,88.7562 219.915,86.2562 221.5,84C 220.681,82.6812 219.681,81.5145 218.5,80.5C 216.439,83.2704 213.939,85.6037 211,87.5C 205.775,87.826 200.609,87.1594 195.5,85.5C 198.719,83.2817 202.386,82.115 206.5,82C 207.381,81.2917 208.047,80.4584 208.5,79.5C 219.2,75.8245 230.2,73.1578 241.5,71.5 Z"/></g>
<g><path style="opacity:1" fill="#f6ca2c" d="M 415.5,80.5 C 417.592,80.5614 419.092,81.5614 420,83.5C 422.459,82.3511 424.959,82.3511 427.5,83.5C 431.167,84.1667 434.833,84.8333 438.5,85.5C 438.833,85.5 439.167,85.5 439.5,85.5C 439.5,86.5 439.5,87.5 439.5,88.5C 444.337,88.945 449.004,90.1117 453.5,92C 463.73,96.6169 473.73,101.45 483.5,106.5C 481.881,108.119 480.215,109.785 478.5,111.5C 476.162,109.989 475.496,110.323 476.5,112.5C 471.442,116.146 465.776,118.146 459.5,118.5C 458.167,118.5 456.833,118.5 455.5,118.5C 454.426,117.115 453.093,115.949 451.5,115C 447.416,113.062 443.083,111.895 438.5,111.5C 436.383,109.937 434.05,108.604 431.5,107.5C 433.484,106.294 435.484,106.294 437.5,107.5C 437.109,106.282 437.776,105.448 439.5,105C 438.234,104.691 437.067,104.191 436,103.5C 434.951,105.107 433.451,105.773 431.5,105.5C 431.5,104.5 431.5,103.5 431.5,102.5C 429.174,103.151 426.841,103.818 424.5,104.5C 420.734,102.86 416.734,102.193 412.5,102.5C 412.167,102.5 411.833,102.5 411.5,102.5C 411.5,102.167 411.5,101.833 411.5,101.5C 413.857,101.663 416.19,101.497 418.5,101C 417.167,100.333 417.167,99.6667 418.5,99C 415.5,98 412.5,97 409.5,96C 410.574,95.2613 411.241,94.2613 411.5,93C 408.449,88.4283 404.449,85.2616 399.5,83.5C 399.137,81.0885 400.137,79.5885 402.5,79C 406.895,78.8599 411.229,79.3599 415.5,80.5 Z"/></g>
<g><path style="opacity:0.995" fill="#f5d760" d="M 408.5,76.5 C 415.008,77.5594 421.342,79.226 427.5,81.5C 427.5,82.1667 427.5,82.8333 427.5,83.5C 424.959,82.3511 422.459,82.3511 420,83.5C 419.092,81.5614 417.592,80.5614 415.5,80.5C 413.394,78.9212 411.06,77.5879 408.5,76.5 Z"/></g>
<g><path style="opacity:0.4" fill="#f4d877" d="M 208.5,79.5 C 208.047,80.4584 207.381,81.2917 206.5,82C 202.386,82.115 198.719,83.2817 195.5,85.5C 194.167,85.5 192.833,85.5 191.5,85.5C 196.72,82.5096 202.386,80.5096 208.5,79.5 Z"/></g>
<g><path style="opacity:0.012" fill="#fdeb99" d="M 427.5,81.5 C 431.395,82.4624 435.061,83.7957 438.5,85.5C 434.833,84.8333 431.167,84.1667 427.5,83.5C 427.5,82.8333 427.5,82.1667 427.5,81.5 Z"/></g>
<g><path style="opacity:0.31" fill="#f7dd7a" d="M 191.5,85.5 C 184.858,88.9388 177.858,91.6054 170.5,93.5C 177.128,90.0262 184.128,87.3595 191.5,85.5 Z"/></g>
<g><path style="opacity:0.327" fill="#edca56" d="M 324.5,88.5 C 315.651,88.1736 306.984,88.507 298.5,89.5C 296.167,89.5 293.833,89.5 291.5,89.5C 287.5,89.5 283.5,89.5 279.5,89.5C 294.478,87.6118 309.478,87.2784 324.5,88.5 Z"/></g>
<g><path style="opacity:0.075" fill="#fae28e" d="M 279.5,89.5 C 283.5,89.5 287.5,89.5 291.5,89.5C 282.327,90.6626 272.994,91.6626 263.5,92.5C 264.5,91.8333 265.5,91.1667 266.5,90.5C 270.898,90.7059 275.232,90.3726 279.5,89.5 Z"/></g>
<g><path style="opacity:0.731" fill="#f6d775" d="M 298.5,89.5 C 306.984,88.507 315.651,88.1736 324.5,88.5C 330.5,88.5 336.5,88.5 342.5,88.5C 354.279,89.1113 365.946,90.6113 377.5,93C 379.76,93.5494 381.426,94.716 382.5,96.5C 372.664,94.0689 362.664,92.2356 352.5,91C 334.523,89.7339 316.523,89.2339 298.5,89.5 Z"/></g>
<g><path style="opacity:0.035" fill="#fce599" d="M 263.5,92.5 C 261.285,93.2679 258.952,93.9346 256.5,94.5C 258.279,92.6565 260.612,91.9898 263.5,92.5 Z"/></g>
<g><path style="opacity:0.239" fill="#fcde84" d="M 255.5,94.5 C 252.193,95.0508 248.86,95.3841 245.5,95.5C 248.737,93.6236 252.07,93.2903 255.5,94.5 Z"/></g>
<g><path style="opacity:1" fill="#f6ca2b" d="M 216.5,101.5 C 213.09,102.343 210.09,103.676 207.5,105.5C 206.833,105.5 206.167,105.5 205.5,105.5C 204.5,105.5 203.5,105.5 202.5,105.5C 199.126,105.674 195.793,106.174 192.5,107C 191.663,108.011 191.33,109.178 191.5,110.5C 185.17,110.667 179.837,113 175.5,117.5C 168.626,119.349 161.959,121.849 155.5,125C 154.304,126.364 153.304,127.864 152.5,129.5C 153.547,131.056 154.214,132.723 154.5,134.5C 153.279,135.028 152.113,135.695 151,136.5C 150.667,135.833 150.333,135.167 150,134.5C 149.259,135.641 148.425,135.641 147.5,134.5C 146.408,138.448 144.742,142.115 142.5,145.5C 141.47,143.483 140.47,141.483 139.5,139.5C 140.845,137.677 141.345,135.677 141,133.5C 139.853,132.542 138.853,132.875 138,134.5C 136.812,133.437 136.312,132.103 136.5,130.5C 135.5,130.5 134.5,130.5 133.5,130.5C 133.367,127.104 132.367,126.771 130.5,129.5C 129.5,128.5 128.5,127.5 127.5,126.5C 129.5,125.833 131.5,125.167 133.5,124.5C 131.14,123.135 129.473,121.135 128.5,118.5C 131.658,116.571 134.991,114.904 138.5,113.5C 138.833,113.833 139.167,114.167 139.5,114.5C 137.381,115.521 135.714,117.021 134.5,119C 135,119.5 135.5,120 136,120.5C 140.31,120.022 142.81,117.688 143.5,113.5C 146.921,113.762 147.921,112.428 146.5,109.5C 147.518,108.148 148.851,107.148 150.5,106.5C 150.291,105.914 149.957,105.414 149.5,105C 151.433,104.749 153.266,104.249 155,103.5C 155.308,104.308 155.808,104.975 156.5,105.5C 158.998,102.667 161.998,100.501 165.5,99C 166.252,98.3292 166.586,97.4959 166.5,96.5C 167.833,95.5 169.167,94.5 170.5,93.5C 177.858,91.6054 184.858,88.9388 191.5,85.5C 192.833,85.5 194.167,85.5 195.5,85.5C 200.609,87.1594 205.775,87.826 211,87.5C 213.939,85.6037 216.439,83.2704 218.5,80.5C 219.681,81.5145 220.681,82.6812 221.5,84C 219.915,86.2562 219.248,88.7562 219.5,91.5C 215.883,91.4827 212.55,92.4827 209.5,94.5C 210.304,96.7285 211.637,97.0619 213.5,95.5C 217.796,96.2092 218.129,97.0426 214.5,98C 218.205,98.4217 218.872,99.5884 216.5,101.5 Z"/></g>
<g><path style="opacity:0.251" fill="#f5dd80" d="M 383.5,96.5 C 386.293,95.254 388.96,95.5873 391.5,97.5C 388.833,97.1667 386.167,96.8333 383.5,96.5 Z"/></g>
<g><path style="opacity:0.604" fill="#f8dc7d" d="M 439.5,85.5 C 456.524,91.5164 472.858,98.8498 488.5,107.5C 486.784,107.371 485.117,107.038 483.5,106.5C 473.73,101.45 463.73,96.6169 453.5,92C 449.004,90.1117 444.337,88.945 439.5,88.5C 439.5,87.5 439.5,86.5 439.5,85.5 Z"/></g>
<g><path style="opacity:0.998" fill="#f5d66a" d="M 245.5,95.5 C 236.964,97.6103 228.297,99.6103 219.5,101.5C 222.423,100.744 225.089,99.4104 227.5,97.5C 233.468,96.5028 239.468,95.8361 245.5,95.5 Z"/></g>
<g><path style="opacity:0.459" fill="#f7df86" d="M 170.5,93.5 C 169.167,94.5 167.833,95.5 166.5,96.5C 162.568,97.7995 158.901,99.6329 155.5,102C 153.187,102.662 150.854,103.162 148.5,103.5C 155.312,99.2201 162.646,95.8868 170.5,93.5 Z"/></g>
<g><path style="opacity:0.345" fill="#f9de85" d="M 392.5,97.5 C 399.018,98.0074 405.352,99.3408 411.5,101.5C 411.5,101.833 411.5,102.167 411.5,102.5C 404.886,101.398 398.553,99.7312 392.5,97.5 Z"/></g>
<g><path style="opacity:0.043" fill="#fae290" d="M 216.5,101.5 C 217.5,101.5 218.5,101.5 219.5,101.5C 215.784,103.405 211.784,104.739 207.5,105.5C 210.09,103.676 213.09,102.343 216.5,101.5 Z"/></g>
<g><path style="opacity:1" fill="#f4d04a" d="M 412.5,102.5 C 416.734,102.193 420.734,102.86 424.5,104.5C 426.841,103.818 429.174,103.151 431.5,102.5C 431.5,103.5 431.5,104.5 431.5,105.5C 433.451,105.773 434.951,105.107 436,103.5C 437.067,104.191 438.234,104.691 439.5,105C 437.776,105.448 437.109,106.282 437.5,107.5C 435.484,106.294 433.484,106.294 431.5,107.5C 434.05,108.604 436.383,109.937 438.5,111.5C 429.76,108.476 421.093,105.476 412.5,102.5 Z"/></g>
<g><path style="opacity:0.965" fill="#f6d14d" d="M 202.5,105.5 C 199.782,106.104 197.449,107.437 195.5,109.5C 188.906,112.364 182.239,115.031 175.5,117.5C 179.837,113 185.17,110.667 191.5,110.5C 191.33,109.178 191.663,108.011 192.5,107C 195.793,106.174 199.126,105.674 202.5,105.5 Z"/></g>
<g><path style="opacity:0.408" fill="#f9e081" d="M 202.5,105.5 C 203.5,105.5 204.5,105.5 205.5,105.5C 202.63,107.794 199.297,109.128 195.5,109.5C 197.449,107.437 199.782,106.104 202.5,105.5 Z"/></g>
<g><path style="opacity:0.518" fill="#fae285" d="M 488.5,107.5 C 491.032,108.596 493.365,109.929 495.5,111.5C 492.318,111.416 489.985,110.083 488.5,107.5 Z"/></g>
<g><path style="opacity:0.914" fill="#f3d766" d="M 141.5,107.5 C 139.555,110.77 136.555,112.437 132.5,112.5C 135.008,110.076 138.008,108.41 141.5,107.5 Z"/></g>
<g><path style="opacity:0.698" fill="#f4d970" d="M 438.5,111.5 C 443.083,111.895 447.416,113.062 451.5,115C 453.093,115.949 454.426,117.115 455.5,118.5C 449.515,116.733 443.848,114.4 438.5,111.5 Z"/></g>
<g><path style="opacity:0.165" fill="#eeda78" d="M 376.5,120.5 C 375.842,119.602 375.176,118.602 374.5,117.5C 373.817,117.863 373.15,118.196 372.5,118.5C 373.183,116.824 374.517,116.157 376.5,116.5C 376.5,117.833 376.5,119.167 376.5,120.5 Z"/></g>
<g><path style="opacity:0.22" fill="#f4da76" d="M 317.5,122.5 C 316.521,121.235 315.521,119.901 314.5,118.5C 313.291,120.941 311.624,122.941 309.5,124.5C 310.229,121.374 311.729,118.707 314,116.5C 316.431,117.686 317.597,119.686 317.5,122.5 Z"/></g>
<g><path style="opacity:0.588" fill="#f4d765" d="M 372.5,118.5 C 372.373,123.232 370.707,127.232 367.5,130.5C 368.655,126.203 370.321,122.203 372.5,118.5 Z"/></g>
<g><path style="opacity:0.655" fill="#f6da75" d="M 175.5,117.5 C 168.316,121.411 160.983,125.244 153.5,129C 155.16,130.488 156.16,132.321 156.5,134.5C 155.833,134.5 155.167,134.5 154.5,134.5C 154.214,132.723 153.547,131.056 152.5,129.5C 153.304,127.864 154.304,126.364 155.5,125C 161.959,121.849 168.626,119.349 175.5,117.5 Z"/></g>
<g><path style="opacity:0.451" fill="#f4d978" d="M 256.5,120.5 C 258.074,122.102 258.741,124.102 258.5,126.5C 256.926,124.898 256.259,122.898 256.5,120.5 Z"/></g>
<g><path style="opacity:0.357" fill="#f3d971" d="M 132.5,112.5 C 130.77,114.079 128.936,115.746 127,117.5C 126.333,121.5 126.333,125.5 127,129.5C 129.839,132.182 131.339,135.515 131.5,139.5C 127.569,134.963 125.236,129.629 124.5,123.5C 124.112,117.561 126.779,113.895 132.5,112.5 Z"/></g>
<g><path style="opacity:0.906" fill="#f6d666" d="M 317.5,122.5 C 320.236,125.982 321.903,129.982 322.5,134.5C 319.036,131.375 317.369,127.375 317.5,122.5 Z"/></g>
<g><path style="opacity:0.537" fill="#f7db7c" d="M 376.5,120.5 C 378.935,124.258 381.102,128.258 383,132.5C 383.813,134.436 384.313,136.436 384.5,138.5C 380.469,133.127 377.802,127.127 376.5,120.5 Z"/></g>
<g><path style="opacity:0.631" fill="#f7df81" d="M 500.5,114.5 C 504.641,117.415 506.141,121.415 505,126.5C 501.232,135.048 496.732,143.048 491.5,150.5C 491.913,148.11 492.579,145.777 493.5,143.5C 497.14,138.801 500.14,133.634 502.5,128C 503.426,124.861 503.592,121.694 503,118.5C 501.519,117.529 500.685,116.196 500.5,114.5 Z"/></g>
<g><path style="opacity:0.933" fill="#f6d667" d="M 455.5,118.5 C 456.833,118.5 458.167,118.5 459.5,118.5C 463.855,121.905 468.855,124.072 474.5,125C 477.948,127.356 478.281,130.189 475.5,133.5C 473.418,135.904 471.418,138.237 469.5,140.5C 471.362,136.61 473.362,132.777 475.5,129C 468.614,125.726 461.947,122.226 455.5,118.5 Z"/></g>
<g><path style="opacity:1" fill="#f6ca2d" d="M 483.5,106.5 C 485.117,107.038 486.784,107.371 488.5,107.5C 489.985,110.083 492.318,111.416 495.5,111.5C 497.434,112.11 499.101,113.11 500.5,114.5C 500.685,116.196 501.519,117.529 503,118.5C 503.592,121.694 503.426,124.861 502.5,128C 500.14,133.634 497.14,138.801 493.5,143.5C 492.579,145.777 491.913,148.11 491.5,150.5C 490.33,152.279 488.664,153.279 486.5,153.5C 486.5,155.5 486.5,157.5 486.5,159.5C 486.5,160.167 486.167,160.5 485.5,160.5C 483.057,163.052 481.39,166.052 480.5,169.5C 480.167,169.5 479.833,169.5 479.5,169.5C 479.657,168.127 479.49,166.793 479,165.5C 475.962,168.247 473.962,171.58 473,175.5C 472,174.833 471,174.167 470,173.5C 469.67,170.511 468.836,167.678 467.5,165C 468.167,163.667 468.833,162.333 469.5,161C 467.448,158.266 465.781,155.433 464.5,152.5C 465.005,149.811 466.338,147.644 468.5,146C 469.233,144.234 469.567,142.401 469.5,140.5C 471.418,138.237 473.418,135.904 475.5,133.5C 478.281,130.189 477.948,127.356 474.5,125C 468.855,124.072 463.855,121.905 459.5,118.5C 465.776,118.146 471.442,116.146 476.5,112.5C 475.496,110.323 476.162,109.989 478.5,111.5C 480.215,109.785 481.881,108.119 483.5,106.5 Z"/></g>
<g><path style="opacity:1" fill="#f5ca2c" d="M 376.5,120.5 C 377.802,127.127 380.469,133.127 384.5,138.5C 385.641,145.983 388.641,152.65 393.5,158.5C 393.59,160.696 393.923,162.863 394.5,165C 396.419,167.112 397.752,169.612 398.5,172.5C 394.018,173.167 389.684,173.834 385.5,174.5C 384.566,175.568 384.232,176.901 384.5,178.5C 382.432,180.979 381.099,183.979 380.5,187.5C 380.026,183.889 379.026,181.055 377.5,179C 377.585,177.893 377.919,176.893 378.5,176C 377.175,176.148 376.008,175.982 375,175.5C 373.377,179.945 371.543,184.279 369.5,188.5C 369.719,190.915 371.052,191.915 373.5,191.5C 372.096,197.043 371.263,202.71 371,208.5C 370.667,208.167 370.333,207.833 370,207.5C 369.667,203.167 369.333,198.833 369,194.5C 365.957,189.242 364.957,183.575 366,177.5C 366.308,178.308 366.808,178.975 367.5,179.5C 368.95,178.15 369.617,176.484 369.5,174.5C 366.106,173.598 362.773,173.265 359.5,173.5C 356.5,173.5 353.5,173.5 350.5,173.5C 350.405,170.308 351.071,167.308 352.5,164.5C 352.5,163.833 352.5,163.167 352.5,162.5C 356.938,158.958 359.271,154.291 359.5,148.5C 362.469,146.38 363.802,143.38 363.5,139.5C 364.075,136.088 365.408,133.088 367.5,130.5C 370.707,127.232 372.373,123.232 372.5,118.5C 373.15,118.196 373.817,117.863 374.5,117.5C 375.176,118.602 375.842,119.602 376.5,120.5 Z"/></g>
<g><path style="opacity:1" fill="#f6ca2d" d="M 317.5,122.5 C 317.369,127.375 319.036,131.375 322.5,134.5C 323.725,139.276 325.225,143.943 327,148.5C 327.949,150.093 329.115,151.426 330.5,152.5C 332.506,159.174 334.506,165.841 336.5,172.5C 332.78,172.704 329.447,171.704 326.5,169.5C 325.451,172.08 324.784,174.746 324.5,177.5C 322.395,180.408 321.395,183.742 321.5,187.5C 318.664,195.971 318.998,204.305 322.5,212.5C 323.537,213.93 324.204,215.597 324.5,217.5C 324.5,219.167 324.5,220.833 324.5,222.5C 324.662,224.527 324.495,226.527 324,228.5C 322.249,230.49 321.249,232.823 321,235.5C 318.45,235.323 316.117,235.657 314,236.5C 313.463,239.187 313.963,241.687 315.5,244C 313.19,245.637 311.69,247.804 311,250.5C 309.951,251.517 308.784,251.684 307.5,251C 306.365,247.425 304.365,246.425 301.5,248C 301.833,248.333 302.167,248.667 302.5,249C 300.423,249.192 298.423,249.692 296.5,250.5C 299.428,251.484 302.428,251.817 305.5,251.5C 305.893,254.93 305.227,258.096 303.5,261C 302.056,261.781 300.723,261.614 299.5,260.5C 302.272,258.915 302.106,257.915 299,257.5C 295.404,258.367 291.57,258.367 287.5,257.5C 287.094,258.557 287.094,259.891 287.5,261.5C 276.85,262.357 276.85,263.524 287.5,265C 283.514,265.499 279.514,265.666 275.5,265.5C 275.66,263.801 275.494,262.134 275,260.5C 273.243,259.881 272.076,258.714 271.5,257C 273.182,255.105 273.682,252.938 273,250.5C 270.967,251.016 270.967,250.35 273,248.5C 273.498,245.518 273.665,242.518 273.5,239.5C 274.612,241.599 275.279,243.933 275.5,246.5C 276.622,247.156 277.955,247.489 279.5,247.5C 286.996,246.32 294.33,244.987 301.5,243.5C 302.5,243.5 303.5,243.5 304.5,243.5C 306.167,243.5 307.833,243.5 309.5,243.5C 309.802,239.62 308.469,236.62 305.5,234.5C 303.417,226.755 300.75,219.421 297.5,212.5C 297.634,210.708 297.301,209.042 296.5,207.5C 297.279,197.249 298.946,187.082 301.5,177C 301.415,175.893 301.081,174.893 300.5,174C 297.274,172.801 293.941,172.301 290.5,172.5C 290.993,170.194 291.326,167.861 291.5,165.5C 292.5,165.5 293.5,165.5 294.5,165.5C 293.872,160.962 295.372,157.295 299,154.5C 300.156,155.993 300.99,155.826 301.5,154C 300.541,151.88 300.374,149.713 301,147.5C 304.339,140.31 307.172,132.976 309.5,125.5C 309.5,125.167 309.5,124.833 309.5,124.5C 311.624,122.941 313.291,120.941 314.5,118.5C 315.521,119.901 316.521,121.235 317.5,122.5 Z"/></g>
<g><path style="opacity:1" fill="#f6ca2f" d="M 166.5,96.5 C 166.586,97.4959 166.252,98.3292 165.5,99C 161.998,100.501 158.998,102.667 156.5,105.5C 155.808,104.975 155.308,104.308 155,103.5C 153.266,104.249 151.433,104.749 149.5,105C 149.957,105.414 150.291,105.914 150.5,106.5C 148.851,107.148 147.518,108.148 146.5,109.5C 147.921,112.428 146.921,113.762 143.5,113.5C 142.81,117.688 140.31,120.022 136,120.5C 135.5,120 135,119.5 134.5,119C 135.714,117.021 137.381,115.521 139.5,114.5C 139.167,114.167 138.833,113.833 138.5,113.5C 134.991,114.904 131.658,116.571 128.5,118.5C 129.473,121.135 131.14,123.135 133.5,124.5C 131.5,125.167 129.5,125.833 127.5,126.5C 128.5,127.5 129.5,128.5 130.5,129.5C 132.367,126.771 133.367,127.104 133.5,130.5C 134.5,130.5 135.5,130.5 136.5,130.5C 136.312,132.103 136.812,133.437 138,134.5C 138.853,132.875 139.853,132.542 141,133.5C 141.345,135.677 140.845,137.677 139.5,139.5C 140.47,141.483 141.47,143.483 142.5,145.5C 144.742,142.115 146.408,138.448 147.5,134.5C 148.425,135.641 149.259,135.641 150,134.5C 150.333,135.167 150.667,135.833 151,136.5C 152.113,135.695 153.279,135.028 154.5,134.5C 155.167,134.5 155.833,134.5 156.5,134.5C 159.669,138.833 162.336,143.5 164.5,148.5C 164.824,153.833 167.157,157.833 171.5,160.5C 176.255,167.004 180.255,174.004 183.5,181.5C 182.312,180.316 181.145,180.316 180,181.5C 178.324,180.939 176.991,179.939 176,178.5C 175.667,179.167 175.333,179.833 175,180.5C 174.261,178.779 173.427,177.113 172.5,175.5C 170.997,176.052 169.331,176.052 167.5,175.5C 167.67,176.822 167.337,177.989 166.5,179C 164.421,179.808 162.421,179.641 160.5,178.5C 160.808,177.692 161.308,177.025 162,176.5C 166.887,177.953 167.72,176.619 164.5,172.5C 161.987,173.848 160.153,175.848 159,178.5C 157.708,177.209 156.542,177.209 155.5,178.5C 154.732,177.737 154.232,176.737 154,175.5C 153.329,174.748 152.496,174.414 151.5,174.5C 149.642,172.117 148.308,169.45 147.5,166.5C 147.13,163.733 145.796,161.733 143.5,160.5C 143.087,156.662 141.42,153.662 138.5,151.5C 138.799,149.396 138.466,147.396 137.5,145.5C 135.063,143.73 133.063,141.73 131.5,139.5C 131.339,135.515 129.839,132.182 127,129.5C 126.333,125.5 126.333,121.5 127,117.5C 128.936,115.746 130.77,114.079 132.5,112.5C 136.555,112.437 139.555,110.77 141.5,107.5C 143.336,105.412 145.669,104.079 148.5,103.5C 150.854,103.162 153.187,102.662 155.5,102C 158.901,99.6329 162.568,97.7995 166.5,96.5 Z"/></g>
<g><path style="opacity:0.996" fill="#f4d96d" d="M 131.5,139.5 C 133.063,141.73 135.063,143.73 137.5,145.5C 138.466,147.396 138.799,149.396 138.5,151.5C 135.663,147.831 133.33,143.831 131.5,139.5 Z"/></g>
<g><path style="opacity:1" fill="#f4d253" d="M 256.5,120.5 C 253.512,118.941 251.679,119.941 251,123.5C 249.104,127.86 249.271,132.026 251.5,136C 251.167,136.5 250.833,137 250.5,137.5C 248.608,134.956 246.775,134.956 245,137.5C 244.174,140.793 243.674,144.126 243.5,147.5C 241.784,147.629 240.117,147.962 238.5,148.5C 243.226,138.271 247.726,127.938 252,117.5C 254.774,116.236 256.274,117.236 256.5,120.5 Z"/></g>
<g><path style="opacity:1" fill="#f6ce4a" d="M 258.5,126.5 C 262.774,134.714 266.774,143.048 270.5,151.5C 268.164,149.996 266.331,147.996 265,145.5C 263.511,148.478 262.011,151.478 260.5,154.5C 260.167,153.667 259.833,152.833 259.5,152C 261.301,148.029 262.301,143.863 262.5,139.5C 260.417,135.382 259.083,131.049 258.5,126.5 Z"/></g>
<g><path style="opacity:0.969" fill="#f1d262" d="M 363.5,139.5 C 363.802,143.38 362.469,146.38 359.5,148.5C 360.075,145.088 361.408,142.088 363.5,139.5 Z"/></g>
<g><path style="opacity:0.784" fill="#f7d671" d="M 322.5,134.5 C 326.112,139.971 328.778,145.971 330.5,152.5C 329.115,151.426 327.949,150.093 327,148.5C 325.225,143.943 323.725,139.276 322.5,134.5 Z"/></g>
<g><path style="opacity:0.973" fill="#f6da69" d="M 384.5,138.5 C 388.011,144.861 391.011,151.528 393.5,158.5C 388.641,152.65 385.641,145.983 384.5,138.5 Z"/></g>
<g><path style="opacity:0.765" fill="#f4db73" d="M 469.5,140.5 C 469.567,142.401 469.233,144.234 468.5,146C 466.338,147.644 465.005,149.811 464.5,152.5C 462.013,154.809 460.013,157.476 458.5,160.5C 461.135,153.226 464.802,146.559 469.5,140.5 Z"/></g>
<g><path style="opacity:0.749" fill="#f3d363" d="M 164.5,148.5 C 167.335,152.164 169.668,156.164 171.5,160.5C 167.157,157.833 164.824,153.833 164.5,148.5 Z"/></g>
<g><path style="opacity:1" fill="#f6ca2b" d="M 256.5,120.5 C 256.259,122.898 256.926,124.898 258.5,126.5C 259.083,131.049 260.417,135.382 262.5,139.5C 262.301,143.863 261.301,148.029 259.5,152C 259.833,152.833 260.167,153.667 260.5,154.5C 262.011,151.478 263.511,148.478 265,145.5C 266.331,147.996 268.164,149.996 270.5,151.5C 270.893,153.284 271.559,154.95 272.5,156.5C 272.259,158.898 272.926,160.898 274.5,162.5C 276.539,163.911 277.539,165.911 277.5,168.5C 278.035,171.238 277.035,173.072 274.5,174C 271.183,174.498 267.85,174.665 264.5,174.5C 264.007,176.806 263.674,179.139 263.5,181.5C 262.542,181.953 261.708,182.619 261,183.5C 260.503,186.146 260.336,188.813 260.5,191.5C 257.797,193.55 255.797,196.216 254.5,199.5C 254.608,200.442 254.941,201.275 255.5,202C 256.825,201.852 257.992,202.018 259,202.5C 259.667,206.167 259.667,209.833 259,213.5C 257.103,216.127 255.603,218.961 254.5,222C 257.583,227.385 259.25,233.219 259.5,239.5C 258.448,239.649 257.448,239.483 256.5,239C 257.731,237.817 257.731,236.651 256.5,235.5C 255.646,236.522 254.646,237.355 253.5,238C 255.515,239.555 255.848,241.389 254.5,243.5C 251.362,242.129 249.696,239.796 249.5,236.5C 250.5,236.5 251.5,236.5 252.5,236.5C 252.703,234.61 252.037,233.11 250.5,232C 250.784,230.044 250.784,227.877 250.5,225.5C 249.127,225.343 247.793,225.51 246.5,226C 247.604,227.131 247.271,227.965 245.5,228.5C 244.808,227.975 244.308,227.308 244,226.5C 243.176,223.118 243.343,219.784 244.5,216.5C 246.624,217.571 247.624,216.737 247.5,214C 245.076,209.242 242.242,204.742 239,200.5C 238.5,194.175 238.334,187.842 238.5,181.5C 238.5,181.167 238.5,180.833 238.5,180.5C 240.509,178.622 240.842,176.456 239.5,174C 236.518,173.502 233.518,173.335 230.5,173.5C 232.125,166.569 234.625,159.903 238,153.5C 238.49,152.207 238.657,150.873 238.5,149.5C 238.5,149.167 238.5,148.833 238.5,148.5C 240.117,147.962 241.784,147.629 243.5,147.5C 243.674,144.126 244.174,140.793 245,137.5C 246.775,134.956 248.608,134.956 250.5,137.5C 250.833,137 251.167,136.5 251.5,136C 249.271,132.026 249.104,127.86 251,123.5C 251.679,119.941 253.512,118.941 256.5,120.5 Z"/></g>
<g><path style="opacity:0.999" fill="#f4d35b" d="M 309.5,125.5 C 307.172,132.976 304.339,140.31 301,147.5C 300.374,149.713 300.541,151.88 301.5,154C 300.99,155.826 300.156,155.993 299,154.5C 295.372,157.295 293.872,160.962 294.5,165.5C 293.5,165.5 292.5,165.5 291.5,165.5C 296.972,151.892 302.972,138.558 309.5,125.5 Z"/></g>
<g><path style="opacity:0.769" fill="#fbd97b" d="M 491.5,150.5 C 490.226,153.76 488.56,156.76 486.5,159.5C 486.5,157.5 486.5,155.5 486.5,153.5C 488.664,153.279 490.33,152.279 491.5,150.5 Z"/></g>
<g><path style="opacity:0.984" fill="#f3d367" d="M 359.5,148.5 C 359.271,154.291 356.938,158.958 352.5,162.5C 354.842,157.789 357.175,153.123 359.5,148.5 Z"/></g>
<g><path style="opacity:0.157" fill="#f8e085" d="M 138.5,151.5 C 141.42,153.662 143.087,156.662 143.5,160.5C 141.61,157.728 139.943,154.728 138.5,151.5 Z"/></g>
<g><path style="opacity:0.416" fill="#fae48c" d="M 272.5,156.5 C 274.074,158.102 274.741,160.102 274.5,162.5C 272.926,160.898 272.259,158.898 272.5,156.5 Z"/></g>
<g><path style="opacity:0.384" fill="#fbe88e" d="M 143.5,160.5 C 145.796,161.733 147.13,163.733 147.5,166.5C 145.684,164.882 144.351,162.882 143.5,160.5 Z"/></g>
<g><path style="opacity:0.176" fill="#fae184" d="M 485.5,160.5 C 484.59,163.992 482.924,166.992 480.5,169.5C 481.39,166.052 483.057,163.052 485.5,160.5 Z"/></g>
<g><path style="opacity:1" fill="#f3d04f" d="M 330.5,152.5 C 333.07,157.311 335.403,162.311 337.5,167.5C 337.674,169.861 338.007,172.194 338.5,174.5C 334.298,174.183 330.298,174.517 326.5,175.5C 325.662,175.842 325.328,176.508 325.5,177.5C 325.167,177.5 324.833,177.5 324.5,177.5C 324.784,174.746 325.451,172.08 326.5,169.5C 329.447,171.704 332.78,172.704 336.5,172.5C 334.506,165.841 332.506,159.174 330.5,152.5 Z"/></g>
<g><path style="opacity:0.588" fill="#f3d669" d="M 393.5,158.5 C 396.127,162.51 398.294,166.844 400,171.5C 400.74,172.749 400.573,173.749 399.5,174.5C 394.833,174.5 390.167,174.5 385.5,174.5C 389.684,173.834 394.018,173.167 398.5,172.5C 397.752,169.612 396.419,167.112 394.5,165C 393.923,162.863 393.59,160.696 393.5,158.5 Z"/></g>
<g><path style="opacity:0.184" fill="#fae492" d="M 479.5,169.5 C 479.833,169.5 480.167,169.5 480.5,169.5C 479.492,171.544 478.492,173.544 477.5,175.5C 477.253,173.142 477.919,171.142 479.5,169.5 Z"/></g>
<g><path style="opacity:0.322" fill="#f3da6f" d="M 238.5,149.5 C 238.657,150.873 238.49,152.207 238,153.5C 234.625,159.903 232.125,166.569 230.5,173.5C 233.518,173.335 236.518,173.502 239.5,174C 240.842,176.456 240.509,178.622 238.5,180.5C 238.286,178.856 238.62,177.356 239.5,176C 235.833,175.667 232.167,175.333 228.5,175C 227.978,174.439 227.645,173.772 227.5,173C 230.789,164.926 234.455,157.093 238.5,149.5 Z"/></g>
<g><path style="opacity:0.008" fill="#fcf68f" d="M 337.5,167.5 C 338.394,169.308 339.394,171.142 340.5,173C 340.355,173.772 340.022,174.439 339.5,175C 335.179,175.499 330.846,175.666 326.5,175.5C 330.298,174.517 334.298,174.183 338.5,174.5C 338.007,172.194 337.674,169.861 337.5,167.5 Z"/></g>
<g><path style="opacity:0.02" fill="#fefa9e" d="M 385.5,174.5 C 390.167,174.5 394.833,174.5 399.5,174.5C 395.03,175.486 390.363,175.819 385.5,175.5C 385.737,176.791 385.404,177.791 384.5,178.5C 384.232,176.901 384.566,175.568 385.5,174.5 Z"/></g>
<g><path style="opacity:0.2" fill="#fbe38f" d="M 277.5,168.5 C 279.399,170.253 280.065,172.253 279.5,174.5C 275.204,175.328 270.871,175.828 266.5,176C 265.391,177.876 264.391,179.709 263.5,181.5C 263.674,179.139 264.007,176.806 264.5,174.5C 267.85,174.665 271.183,174.498 274.5,174C 277.035,173.072 278.035,171.238 277.5,168.5 Z"/></g>
<g><path style="opacity:1" fill="#f4d15a" d="M 458.5,160.5 C 455.505,166.166 453.338,172.166 452,178.5C 449.694,179.73 447.527,181.063 445.5,182.5C 448.829,174.499 453.162,167.166 458.5,160.5 Z"/></g>
<g><path style="opacity:0.608" fill="#f7db73" d="M 352.5,164.5 C 351.071,167.308 350.405,170.308 350.5,173.5C 353.5,173.5 356.5,173.5 359.5,173.5C 360.725,177.822 360.058,181.822 357.5,185.5C 357.692,182.399 358.358,179.399 359.5,176.5C 355.893,175.511 352.226,175.177 348.5,175.5C 348.278,171.158 349.611,167.491 352.5,164.5 Z"/></g>
<g><path style="opacity:0.949" fill="#f6dd74" d="M 477.5,175.5 C 475.485,178.869 473.485,182.202 471.5,185.5C 471.182,180.563 473.182,177.23 477.5,175.5 Z"/></g>
<g><path style="opacity:0.529" fill="#f7dd78" d="M 384.5,178.5 C 383.453,184.02 382.12,189.354 380.5,194.5C 380.5,192.167 380.5,189.833 380.5,187.5C 381.099,183.979 382.432,180.979 384.5,178.5 Z"/></g>
<g><path style="opacity:0.165" fill="#fbdd84" d="M 324.5,177.5 C 324.833,177.5 325.167,177.5 325.5,177.5C 324.342,180.989 323.009,184.322 321.5,187.5C 321.395,183.742 322.395,180.408 324.5,177.5 Z"/></g>
<g><path style="opacity:1" fill="#f6ca2e" d="M 359.5,173.5 C 362.773,173.265 366.106,173.598 369.5,174.5C 369.617,176.484 368.95,178.15 367.5,179.5C 366.808,178.975 366.308,178.308 366,177.5C 364.957,183.575 365.957,189.242 369,194.5C 369.333,198.833 369.667,203.167 370,207.5C 370.333,207.833 370.667,208.167 371,208.5C 371.263,202.71 372.096,197.043 373.5,191.5C 371.052,191.915 369.719,190.915 369.5,188.5C 371.543,184.279 373.377,179.945 375,175.5C 376.008,175.982 377.175,176.148 378.5,176C 377.919,176.893 377.585,177.893 377.5,179C 379.026,181.055 380.026,183.889 380.5,187.5C 380.5,189.833 380.5,192.167 380.5,194.5C 378.956,202.363 379.623,210.197 382.5,218C 382.836,219.03 383.503,219.53 384.5,219.5C 387.258,223.421 389.258,227.755 390.5,232.5C 391.009,237.703 392.676,242.37 395.5,246.5C 396.434,247.568 396.768,248.901 396.5,250.5C 397.653,264.404 400.986,265.071 406.5,252.5C 407.5,252.5 408.5,252.5 409.5,252.5C 409.242,248.633 409.908,244.966 411.5,241.5C 413.074,241.063 414.241,240.063 415,238.5C 416.803,234.918 418.303,231.251 419.5,227.5C 421.912,227.306 422.912,225.973 422.5,223.5C 423.675,223.719 424.675,223.386 425.5,222.5C 424.752,220.584 424.752,218.584 425.5,216.5C 425.5,215.833 425.833,215.5 426.5,215.5C 426.639,220.39 428.139,220.723 431,216.5C 432.951,218.137 432.784,219.637 430.5,221C 431.617,222.892 433.284,223.725 435.5,223.5C 435.682,225.675 436.349,227.675 437.5,229.5C 434.971,233.352 436.305,235.018 441.5,234.5C 439.195,237.407 437.862,240.741 437.5,244.5C 436.167,246.833 434.833,249.167 433.5,251.5C 432.5,251.5 431.5,251.5 430.5,251.5C 429.336,254.759 428.336,258.093 427.5,261.5C 426.18,262.942 424.514,263.608 422.5,263.5C 422.5,264.5 422.5,265.5 422.5,266.5C 421.5,266.5 420.5,266.5 419.5,266.5C 420.172,273.369 417.672,279.036 412,283.5C 411.51,284.793 411.343,286.127 411.5,287.5C 407.063,287.804 403.396,288.47 400.5,289.5C 400.5,289.833 400.5,290.167 400.5,290.5C 399.883,290.611 399.383,290.944 399,291.5C 397.844,296.122 397.01,300.789 396.5,305.5C 395.883,305.611 395.383,305.944 395,306.5C 394.148,310.189 393.315,313.856 392.5,317.5C 392.737,318.791 392.404,319.791 391.5,320.5C 390.171,322.059 388.838,323.725 387.5,325.5C 386.754,326.736 386.421,328.07 386.5,329.5C 378.833,329.5 371.167,329.5 363.5,329.5C 363.5,328.167 363.5,326.833 363.5,325.5C 363.328,324.508 363.662,323.842 364.5,323.5C 367.478,319.557 369.978,315.223 372,310.5C 372.678,305.46 373.511,300.46 374.5,295.5C 375.051,292.193 375.384,288.86 375.5,285.5C 377.203,283.149 377.703,280.482 377,277.5C 373.133,276.267 369.3,274.933 365.5,273.5C 364.602,272.842 363.602,272.176 362.5,271.5C 358.217,270.508 353.884,270.174 349.5,270.5C 349.167,270.5 348.833,270.5 348.5,270.5C 345.713,269.523 342.713,269.19 339.5,269.5C 340.749,267.864 342.416,266.697 344.5,266C 343.577,263.959 343.244,261.792 343.5,259.5C 346.329,259.325 347.996,260.658 348.5,263.5C 349.524,262.147 350.857,261.48 352.5,261.5C 353.382,265.143 355.716,266.31 359.5,265C 358.167,264.667 356.833,264.333 355.5,264C 356.308,263.692 356.975,263.192 357.5,262.5C 356.248,260.999 355.248,259.332 354.5,257.5C 350.094,257.854 345.76,257.354 341.5,256C 342.308,255.692 342.975,255.192 343.5,254.5C 342.335,253.416 341.002,252.583 339.5,252C 340.337,250.989 340.67,249.822 340.5,248.5C 342.2,248.626 343.7,249.293 345,250.5C 345.5,250.167 346,249.833 346.5,249.5C 345.807,248.482 345.141,247.482 344.5,246.5C 346.167,246.5 347.833,246.5 349.5,246.5C 350.5,246.5 351.5,246.5 352.5,246.5C 355.171,248.118 358.171,248.785 361.5,248.5C 364.238,248.851 366.904,249.518 369.5,250.5C 370.107,250.376 370.44,250.043 370.5,249.5C 371.698,245.645 370.698,242.312 367.5,239.5C 367.294,236.762 366.294,234.428 364.5,232.5C 364.834,229.509 363.834,227.176 361.5,225.5C 361.862,221.919 360.862,218.919 358.5,216.5C 357.743,206.518 357.41,196.518 357.5,186.5C 357.5,186.167 357.5,185.833 357.5,185.5C 360.058,181.822 360.725,177.822 359.5,173.5 Z"/></g>
<g><path style="opacity:0.918" fill="#f5da6e" d="M 151.5,174.5 C 152.496,174.414 153.329,174.748 154,175.5C 154.232,176.737 154.732,177.737 155.5,178.5C 156.68,182.185 158.847,185.185 162,187.5C 163.977,193.091 166.144,198.425 168.5,203.5C 162.596,194.033 156.929,184.367 151.5,174.5 Z"/></g>
<g><path style="opacity:0.195" fill="#f6db74" d="M 321.5,187.5 C 321.26,195.875 321.593,204.208 322.5,212.5C 318.998,204.305 318.664,195.971 321.5,187.5 Z"/></g>
<g><path style="opacity:0.161" fill="#f9e19f" d="M 237.5,184.5 C 238.08,188.649 237.414,192.316 235.5,195.5C 236.103,191.727 236.77,188.061 237.5,184.5 Z"/></g>
<g><path style="opacity:0.455" fill="#f6db74" d="M 445.5,182.5 C 443.67,188.159 441.17,193.492 438,198.5C 436.951,200.618 435.451,202.284 433.5,203.5C 436.39,195.79 440.39,188.79 445.5,182.5 Z"/></g>
<g><path style="opacity:1" fill="#f7d55d" d="M 466.5,193.5 C 464.016,198.304 461.349,202.971 458.5,207.5C 459.151,205.174 459.818,202.841 460.5,200.5C 459.732,197.846 459.566,195.179 460,192.5C 460.98,194.059 461.813,195.726 462.5,197.5C 463.84,196.133 465.173,194.8 466.5,193.5 Z"/></g>
<g><path style="opacity:0.996" fill="#f4d15b" d="M 183.5,181.5 C 189.002,189.832 194.002,198.499 198.5,207.5C 194.378,205.486 191.878,202.153 191,197.5C 190,196.833 189,196.167 188,195.5C 186.787,190.695 185.287,186.028 183.5,181.5 Z"/></g>
<g><path style="opacity:0.771" fill="#f6da72" d="M 291.5,165.5 C 291.326,167.861 290.993,170.194 290.5,172.5C 293.941,172.301 297.274,172.801 300.5,174C 301.081,174.893 301.415,175.893 301.5,177C 298.946,187.082 297.279,197.249 296.5,207.5C 295.947,196.796 296.947,186.296 299.5,176C 295.579,175.797 291.745,175.297 288,174.5C 287.333,173.5 287.333,172.5 288,171.5C 288.876,169.242 290.043,167.242 291.5,165.5 Z"/></g>
<g><path style="opacity:1" fill="#f6ca2a" d="M 183.5,181.5 C 185.287,186.028 186.787,190.695 188,195.5C 189,196.167 190,196.833 191,197.5C 191.878,202.153 194.378,205.486 198.5,207.5C 198.336,210.187 198.503,212.854 199,215.5C 200.768,214.869 201.935,215.702 202.5,218C 202.389,219.722 201.889,219.888 201,218.5C 200.333,219.167 200.333,219.833 201,220.5C 202.299,220.966 203.799,220.966 205.5,220.5C 206.076,225.118 205.076,229.285 202.5,233C 197.816,233.435 193.149,233.935 188.5,234.5C 184.587,227.675 180.92,220.675 177.5,213.5C 172.963,211.094 171.13,207.427 172,202.5C 170.989,203.337 169.822,203.67 168.5,203.5C 166.144,198.425 163.977,193.091 162,187.5C 158.847,185.185 156.68,182.185 155.5,178.5C 156.542,177.209 157.708,177.209 159,178.5C 160.153,175.848 161.987,173.848 164.5,172.5C 167.72,176.619 166.887,177.953 162,176.5C 161.308,177.025 160.808,177.692 160.5,178.5C 162.421,179.641 164.421,179.808 166.5,179C 167.337,177.989 167.67,176.822 167.5,175.5C 169.331,176.052 170.997,176.052 172.5,175.5C 173.427,177.113 174.261,178.779 175,180.5C 175.333,179.833 175.667,179.167 176,178.5C 176.991,179.939 178.324,180.939 180,181.5C 181.145,180.316 182.312,180.316 183.5,181.5 Z"/></g>
<g><path style="opacity:0.137" fill="#f4dd87" d="M 357.5,186.5 C 357.41,196.518 357.743,206.518 358.5,216.5C 357,210.74 356.333,204.74 356.5,198.5C 356.501,194.319 356.834,190.319 357.5,186.5 Z"/></g>
<g><path style="opacity:1" fill="#f6ca2d" d="M 464.5,152.5 C 465.781,155.433 467.448,158.266 469.5,161C 468.833,162.333 468.167,163.667 467.5,165C 468.836,167.678 469.67,170.511 470,173.5C 471,174.167 472,174.833 473,175.5C 473.962,171.58 475.962,168.247 479,165.5C 479.49,166.793 479.657,168.127 479.5,169.5C 477.919,171.142 477.253,173.142 477.5,175.5C 473.182,177.23 471.182,180.563 471.5,185.5C 470.32,188.54 468.653,191.206 466.5,193.5C 465.173,194.8 463.84,196.133 462.5,197.5C 461.813,195.726 460.98,194.059 460,192.5C 459.566,195.179 459.732,197.846 460.5,200.5C 459.818,202.841 459.151,205.174 458.5,207.5C 457.85,207.196 457.183,206.863 456.5,206.5C 454.752,210.076 453.252,213.742 452,217.5C 450.601,218.227 449.101,218.727 447.5,219C 448.059,219.725 448.392,220.558 448.5,221.5C 447.157,224.85 445.823,228.183 444.5,231.5C 443.167,232.167 442.167,233.167 441.5,234.5C 436.305,235.018 434.971,233.352 437.5,229.5C 436.349,227.675 435.682,225.675 435.5,223.5C 433.284,223.725 431.617,222.892 430.5,221C 432.784,219.637 432.951,218.137 431,216.5C 428.139,220.723 426.639,220.39 426.5,215.5C 430.303,212.497 432.637,208.497 433.5,203.5C 435.451,202.284 436.951,200.618 438,198.5C 441.17,193.492 443.67,188.159 445.5,182.5C 447.527,181.063 449.694,179.73 452,178.5C 453.338,172.166 455.505,166.166 458.5,160.5C 460.013,157.476 462.013,154.809 464.5,152.5 Z"/></g>
<g><path style="opacity:0.043" fill="#fee9a6" d="M 235.5,201.5 C 237.388,203.988 238.055,206.988 237.5,210.5C 236.755,207.61 236.088,204.61 235.5,201.5 Z"/></g>
<g><path style="opacity:0.243" fill="#f7e285" d="M 263.5,181.5 C 260.388,194.706 261.055,207.706 265.5,220.5C 263.737,218.115 262.237,215.448 261,212.5C 260.5,205.508 260.334,198.508 260.5,191.5C 260.336,188.813 260.503,186.146 261,183.5C 261.708,182.619 262.542,181.953 263.5,181.5 Z"/></g>
<g><path style="opacity:0.722" fill="#f4d565" d="M 380.5,194.5 C 381.077,202.961 382.41,211.294 384.5,219.5C 383.503,219.53 382.836,219.03 382.5,218C 379.623,210.197 378.956,202.363 380.5,194.5 Z"/></g>
<g><path style="opacity:0.902" fill="#f6d667" d="M 433.5,203.5 C 432.637,208.497 430.303,212.497 426.5,215.5C 428.043,210.976 430.377,206.976 433.5,203.5 Z"/></g>
<g><path style="opacity:0.943" fill="#f7da6b" d="M 458.5,207.5 C 454.335,215.836 449.668,223.836 444.5,231.5C 445.823,228.183 447.157,224.85 448.5,221.5C 448.392,220.558 448.059,219.725 447.5,219C 449.101,218.727 450.601,218.227 452,217.5C 453.252,213.742 454.752,210.076 456.5,206.5C 457.183,206.863 457.85,207.196 458.5,207.5 Z"/></g>
<g><path style="opacity:1" fill="#f5d85e" d="M 188.5,234.5 C 189.552,237.193 190.552,239.86 191.5,242.5C 183.094,230.034 175.427,217.034 168.5,203.5C 169.822,203.67 170.989,203.337 172,202.5C 171.13,207.427 172.963,211.094 177.5,213.5C 180.92,220.675 184.587,227.675 188.5,234.5 Z"/></g>
<g><path style="opacity:0.255" fill="#fbdf81" d="M 238.5,216.5 C 240.99,219.626 242.323,223.292 242.5,227.5C 240.399,224.203 239.065,220.537 238.5,216.5 Z"/></g>
<g><path style="opacity:0.345" fill="#fadd86" d="M 358.5,216.5 C 360.862,218.919 361.862,221.919 361.5,225.5C 360.054,222.746 359.054,219.746 358.5,216.5 Z"/></g>
<g><path style="opacity:0.278" fill="#f7e190" d="M 297.5,212.5 C 300.75,219.421 303.417,226.755 305.5,234.5C 301.865,227.602 299.198,220.268 297.5,212.5 Z"/></g>
<g><path style="opacity:0.69" fill="#f5d76a" d="M 425.5,216.5 C 424.752,218.584 424.752,220.584 425.5,222.5C 424.675,223.386 423.675,223.719 422.5,223.5C 422.912,225.973 421.912,227.306 419.5,227.5C 421.25,223.665 423.25,219.999 425.5,216.5 Z"/></g>
<g><path style="opacity:0.29" fill="#f6e17e" d="M 361.5,225.5 C 363.834,227.176 364.834,229.509 364.5,232.5C 362.707,230.574 361.707,228.241 361.5,225.5 Z"/></g>
<g><path style="opacity:0.999" fill="#f6ca2f" d="M 238.5,181.5 C 238.334,187.842 238.5,194.175 239,200.5C 242.242,204.742 245.076,209.242 247.5,214C 247.624,216.737 246.624,217.571 244.5,216.5C 243.343,219.784 243.176,223.118 244,226.5C 244.308,227.308 244.808,227.975 245.5,228.5C 247.271,227.965 247.604,227.131 246.5,226C 247.793,225.51 249.127,225.343 250.5,225.5C 250.784,227.877 250.784,230.044 250.5,232C 252.037,233.11 252.703,234.61 252.5,236.5C 251.5,236.5 250.5,236.5 249.5,236.5C 249.696,239.796 251.362,242.129 254.5,243.5C 255.848,241.389 255.515,239.555 253.5,238C 254.646,237.355 255.646,236.522 256.5,235.5C 257.731,236.651 257.731,237.817 256.5,239C 257.448,239.483 258.448,239.649 259.5,239.5C 259.25,233.219 257.583,227.385 254.5,222C 255.603,218.961 257.103,216.127 259,213.5C 259.667,209.833 259.667,206.167 259,202.5C 257.992,202.018 256.825,201.852 255.5,202C 254.941,201.275 254.608,200.442 254.5,199.5C 255.797,196.216 257.797,193.55 260.5,191.5C 260.334,198.508 260.5,205.508 261,212.5C 262.237,215.448 263.737,218.115 265.5,220.5C 265.903,224.642 266.903,228.642 268.5,232.5C 267.667,234.5 267.834,236.166 269,237.5C 269.333,237.167 269.667,236.833 270,236.5C 270.232,237.737 270.732,238.737 271.5,239.5C 270.452,241.534 268.786,242.867 266.5,243.5C 263.203,257.5 262.869,271.5 265.5,285.5C 264.108,288.703 263.441,292.036 263.5,295.5C 264.552,295.351 265.552,295.517 266.5,296C 265.87,297.892 264.87,299.559 263.5,301C 260.854,301.497 258.187,301.664 255.5,301.5C 254.593,307.036 256.093,311.703 260,315.5C 263.127,317.813 266.627,319.147 270.5,319.5C 270.5,320.167 270.5,320.833 270.5,321.5C 270.741,323.898 270.074,325.898 268.5,327.5C 260.436,329.422 252.103,330.088 243.5,329.5C 244.975,326 245.975,322.333 246.5,318.5C 248.858,315.757 250.191,312.423 250.5,308.5C 250.366,306.708 250.699,305.042 251.5,303.5C 254.823,299.174 256.156,294.174 255.5,288.5C 255.5,288.167 255.5,287.833 255.5,287.5C 256.777,286.306 257.444,284.64 257.5,282.5C 257.333,280.833 257.167,279.167 257,277.5C 256.586,277.043 256.086,276.709 255.5,276.5C 248.469,278.79 241.469,280.956 234.5,283C 234.026,284.729 233.026,285.895 231.5,286.5C 232.231,284.401 232.231,282.401 231.5,280.5C 227.317,279.246 223.651,277.246 220.5,274.5C 217.026,276.664 216.692,275.831 219.5,272C 217.81,268.941 216.477,265.774 215.5,262.5C 217.924,262.808 220.257,262.474 222.5,261.5C 223.077,259.45 224.41,258.45 226.5,258.5C 227.262,260.262 228.596,261.262 230.5,261.5C 233.406,260.213 236.406,259.213 239.5,258.5C 243.533,257.975 247.2,256.642 250.5,254.5C 251.496,254.586 252.329,254.252 253,253.5C 254.551,248.383 253.217,244.383 249,241.5C 248.27,236.131 246.103,231.464 242.5,227.5C 242.323,223.292 240.99,219.626 238.5,216.5C 237.85,214.565 237.517,212.565 237.5,210.5C 238.055,206.988 237.388,203.988 235.5,201.5C 235.5,199.5 235.5,197.5 235.5,195.5C 237.414,192.316 238.08,188.649 237.5,184.5C 237.263,183.209 237.596,182.209 238.5,181.5 Z"/></g>
<g><path style="opacity:0.989" fill="#f6d258" d="M 265.5,220.5 C 268.917,226.484 271.584,232.817 273.5,239.5C 272.604,238.494 271.938,238.494 271.5,239.5C 270.732,238.737 270.232,237.737 270,236.5C 269.667,236.833 269.333,237.167 269,237.5C 267.834,236.166 267.667,234.5 268.5,232.5C 266.903,228.642 265.903,224.642 265.5,220.5 Z"/></g>
<g><path style="opacity:0.322" fill="#f6db7a" d="M 324.5,217.5 C 328.179,226.387 332.179,235.221 336.5,244C 341.015,244.614 345.348,245.448 349.5,246.5C 347.833,246.5 346.167,246.5 344.5,246.5C 338.587,247.685 334.587,245.685 332.5,240.5C 330.314,234.14 327.647,228.14 324.5,222.5C 324.5,220.833 324.5,219.167 324.5,217.5 Z"/></g>
<g><path style="opacity:0.435" fill="#f4d76f" d="M 419.5,227.5 C 418.303,231.251 416.803,234.918 415,238.5C 414.241,240.063 413.074,241.063 411.5,241.5C 413.617,236.438 416.284,231.771 419.5,227.5 Z"/></g>
<g><path style="opacity:0.851" fill="#f7dd73" d="M 305.5,234.5 C 308.469,236.62 309.802,239.62 309.5,243.5C 307.833,243.5 306.167,243.5 304.5,243.5C 305.209,242.596 306.209,242.263 307.5,242.5C 306.833,239.833 306.167,237.167 305.5,234.5 Z"/></g>
<g><path style="opacity:0.388" fill="#f6d881" d="M 364.5,232.5 C 366.294,234.428 367.294,236.762 367.5,239.5C 365.182,237.815 364.182,235.481 364.5,232.5 Z"/></g>
<g><path style="opacity:0.212" fill="#f7e082" d="M 444.5,231.5 C 442.561,236.09 440.227,240.423 437.5,244.5C 437.862,240.741 439.195,237.407 441.5,234.5C 442.167,233.167 443.167,232.167 444.5,231.5 Z"/></g>
<g><path style="opacity:0.412" fill="#f8dd7d" d="M 390.5,232.5 C 392.697,236.911 394.364,241.578 395.5,246.5C 392.676,242.37 391.009,237.703 390.5,232.5 Z"/></g>
<g><path style="opacity:1" fill="#f5ca2b" d="M 324.5,222.5 C 327.647,228.14 330.314,234.14 332.5,240.5C 332.663,242.857 332.497,245.19 332,247.5C 331.586,247.043 331.086,246.709 330.5,246.5C 326.02,248.026 325.02,250.526 327.5,254C 324.813,257.066 323.48,256.233 323.5,251.5C 318.36,251.701 313.36,252.701 308.5,254.5C 308.931,255.293 309.265,256.127 309.5,257C 307.987,258.879 307.321,261.046 307.5,263.5C 302.396,263.663 297.396,262.997 292.5,261.5C 287.423,262.224 287.423,263.391 292.5,265C 296.086,266.108 299.753,266.608 303.5,266.5C 299.005,267.422 294.338,268.089 289.5,268.5C 285.743,268.071 282.243,268.737 279,270.5C 278.667,278.833 278.333,287.167 278,295.5C 274.966,301.402 273.299,307.735 273,314.5C 272.243,316.315 271.41,317.981 270.5,319.5C 266.627,319.147 263.127,317.813 260,315.5C 256.093,311.703 254.593,307.036 255.5,301.5C 258.187,301.664 260.854,301.497 263.5,301C 264.87,299.559 265.87,297.892 266.5,296C 265.552,295.517 264.552,295.351 263.5,295.5C 263.441,292.036 264.108,288.703 265.5,285.5C 262.869,271.5 263.203,257.5 266.5,243.5C 268.786,242.867 270.452,241.534 271.5,239.5C 271.938,238.494 272.604,238.494 273.5,239.5C 273.665,242.518 273.498,245.518 273,248.5C 270.967,250.35 270.967,251.016 273,250.5C 273.682,252.938 273.182,255.105 271.5,257C 272.076,258.714 273.243,259.881 275,260.5C 275.494,262.134 275.66,263.801 275.5,265.5C 279.514,265.666 283.514,265.499 287.5,265C 276.85,263.524 276.85,262.357 287.5,261.5C 287.094,259.891 287.094,258.557 287.5,257.5C 291.57,258.367 295.404,258.367 299,257.5C 302.106,257.915 302.272,258.915 299.5,260.5C 300.723,261.614 302.056,261.781 303.5,261C 305.227,258.096 305.893,254.93 305.5,251.5C 302.428,251.817 299.428,251.484 296.5,250.5C 298.423,249.692 300.423,249.192 302.5,249C 302.167,248.667 301.833,248.333 301.5,248C 304.365,246.425 306.365,247.425 307.5,251C 308.784,251.684 309.951,251.517 311,250.5C 311.69,247.804 313.19,245.637 315.5,244C 313.963,241.687 313.463,239.187 314,236.5C 316.117,235.657 318.45,235.323 321,235.5C 321.249,232.823 322.249,230.49 324,228.5C 324.495,226.527 324.662,224.527 324.5,222.5 Z"/></g>
<g><path style="opacity:0.596" fill="#f6e07f" d="M 216.5,238.5 C 218.771,240.612 220.104,243.279 220.5,246.5C 217.593,244.685 216.259,242.019 216.5,238.5 Z"/></g>
<g><path style="opacity:0.741" fill="#f3d666" d="M 367.5,239.5 C 370.698,242.312 371.698,245.645 370.5,249.5C 369.099,246.296 368.099,242.963 367.5,239.5 Z"/></g>
<g><path style="opacity:1" fill="#f2d65e" d="M 242.5,227.5 C 246.103,231.464 248.27,236.131 249,241.5C 253.217,244.383 254.551,248.383 253,253.5C 252.329,254.252 251.496,254.586 250.5,254.5C 251.379,251.883 251.212,249.216 250,246.5C 247.345,240.199 244.845,233.866 242.5,227.5 Z"/></g>
<g><path style="opacity:0.443" fill="#f5e085" d="M 301.5,243.5 C 294.33,244.987 286.996,246.32 279.5,247.5C 277.955,247.489 276.622,247.156 275.5,246.5C 284.108,245.066 292.774,244.066 301.5,243.5 Z"/></g>
<g><path style="opacity:1" fill="#f6ca2d" d="M 332.5,240.5 C 334.587,245.685 338.587,247.685 344.5,246.5C 345.141,247.482 345.807,248.482 346.5,249.5C 346,249.833 345.5,250.167 345,250.5C 343.7,249.293 342.2,248.626 340.5,248.5C 340.67,249.822 340.337,250.989 339.5,252C 341.002,252.583 342.335,253.416 343.5,254.5C 342.975,255.192 342.308,255.692 341.5,256C 345.76,257.354 350.094,257.854 354.5,257.5C 355.248,259.332 356.248,260.999 357.5,262.5C 356.975,263.192 356.308,263.692 355.5,264C 356.833,264.333 358.167,264.667 359.5,265C 355.716,266.31 353.382,265.143 352.5,261.5C 350.857,261.48 349.524,262.147 348.5,263.5C 347.996,260.658 346.329,259.325 343.5,259.5C 343.244,261.792 343.577,263.959 344.5,266C 342.416,266.697 340.749,267.864 339.5,269.5C 338.982,281.182 337.815,292.848 336,304.5C 333.566,307.659 332.233,311.326 332,315.5C 331.667,315.167 331.333,314.833 331,314.5C 329.886,319.528 328.719,324.528 327.5,329.5C 324.14,329.616 320.807,329.949 317.5,330.5C 316.833,330.5 316.167,330.5 315.5,330.5C 311.167,330.5 306.833,330.5 302.5,330.5C 303.514,327.493 304.514,324.493 305.5,321.5C 305.415,318.351 306.415,315.684 308.5,313.5C 310.011,312.498 311.678,311.831 313.5,311.5C 313.671,306.804 314.171,302.137 315,297.5C 315.895,300.375 316.728,300.708 317.5,298.5C 316.985,296.364 316.651,294.197 316.5,292C 318.191,283.921 318.858,275.754 318.5,267.5C 317.5,267.5 316.5,267.5 315.5,267.5C 311.702,266.517 307.702,266.183 303.5,266.5C 299.753,266.608 296.086,266.108 292.5,265C 287.423,263.391 287.423,262.224 292.5,261.5C 297.396,262.997 302.396,263.663 307.5,263.5C 307.321,261.046 307.987,258.879 309.5,257C 309.265,256.127 308.931,255.293 308.5,254.5C 313.36,252.701 318.36,251.701 323.5,251.5C 323.48,256.233 324.813,257.066 327.5,254C 325.02,250.526 326.02,248.026 330.5,246.5C 331.086,246.709 331.586,247.043 332,247.5C 332.497,245.19 332.663,242.857 332.5,240.5 Z"/></g>
<g><path style="opacity:0.212" fill="#fae79c" d="M 352.5,246.5 C 355.727,246.676 358.727,247.343 361.5,248.5C 358.171,248.785 355.171,248.118 352.5,246.5 Z"/></g>
<g><path style="opacity:1" fill="#f6d666" d="M 411.5,241.5 C 409.908,244.966 409.242,248.633 409.5,252.5C 408.5,252.5 407.5,252.5 406.5,252.5C 400.986,265.071 397.653,264.404 396.5,250.5C 397.727,253.416 398.893,256.416 400,259.5C 404.091,253.594 407.924,247.594 411.5,241.5 Z"/></g>
<g><path style="opacity:0.98" fill="#f5db6e" d="M 195.5,250.5 C 196.583,250.539 197.583,250.873 198.5,251.5C 199.843,254.85 201.177,258.183 202.5,261.5C 199.931,258.039 197.597,254.372 195.5,250.5 Z"/></g>
<g><path style="opacity:0.627" fill="#f8de78" d="M 433.5,251.5 C 431.863,255.118 429.863,258.451 427.5,261.5C 428.336,258.093 429.336,254.759 430.5,251.5C 431.5,251.5 432.5,251.5 433.5,251.5 Z"/></g>
<g><path style="opacity:0.278" fill="#f4d970" d="M 250.5,254.5 C 247.2,256.642 243.533,257.975 239.5,258.5C 242.66,256 246.327,254.667 250.5,254.5 Z"/></g>
<g><path style="opacity:0.6" fill="#f7dc84" d="M 226.5,255.5 C 227.377,257.728 228.71,259.728 230.5,261.5C 228.596,261.262 227.262,260.262 226.5,258.5C 226.5,257.5 226.5,256.5 226.5,255.5 Z"/></g>
<g><path style="opacity:1" fill="#f6ca32" d="M 198.5,207.5 C 204.737,217.634 210.737,227.967 216.5,238.5C 216.259,242.019 217.593,244.685 220.5,246.5C 222.857,249.186 224.857,252.186 226.5,255.5C 226.5,256.5 226.5,257.5 226.5,258.5C 224.41,258.45 223.077,259.45 222.5,261.5C 220.257,262.474 217.924,262.808 215.5,262.5C 216.477,265.774 217.81,268.941 219.5,272C 216.692,275.831 217.026,276.664 220.5,274.5C 223.651,277.246 227.317,279.246 231.5,280.5C 232.231,282.401 232.231,284.401 231.5,286.5C 229.412,287.939 227.079,288.606 224.5,288.5C 222.097,288.552 219.764,288.219 217.5,287.5C 215.036,283.279 213.369,278.612 212.5,273.5C 211.158,271.995 209.492,271.328 207.5,271.5C 207.5,271.167 207.5,270.833 207.5,270.5C 206.805,267.085 205.138,264.418 202.5,262.5C 202.5,262.167 202.5,261.833 202.5,261.5C 201.177,258.183 199.843,254.85 198.5,251.5C 197.583,250.873 196.583,250.539 195.5,250.5C 193.62,248.074 192.287,245.408 191.5,242.5C 190.552,239.86 189.552,237.193 188.5,234.5C 193.149,233.935 197.816,233.435 202.5,233C 205.076,229.285 206.076,225.118 205.5,220.5C 203.799,220.966 202.299,220.966 201,220.5C 200.333,219.833 200.333,219.167 201,218.5C 201.889,219.888 202.389,219.722 202.5,218C 201.935,215.702 200.768,214.869 199,215.5C 198.503,212.854 198.336,210.187 198.5,207.5 Z"/></g>
<g><path style="opacity:0.49" fill="#f8e38f" d="M 202.5,262.5 C 205.138,264.418 206.805,267.085 207.5,270.5C 205.347,268.206 203.68,265.54 202.5,262.5 Z"/></g>
<g><path style="opacity:1" fill="#f7da68" d="M 427.5,261.5 C 424.766,266.853 421.933,272.186 419,277.5C 416.723,281.08 414.223,284.414 411.5,287.5C 411.343,286.127 411.51,284.793 412,283.5C 417.672,279.036 420.172,273.369 419.5,266.5C 420.5,266.5 421.5,266.5 422.5,266.5C 422.5,265.5 422.5,264.5 422.5,263.5C 424.514,263.608 426.18,262.942 427.5,261.5 Z"/></g>
<g><path style="opacity:0.141" fill="#f8e083" d="M 303.5,266.5 C 307.702,266.183 311.702,266.517 315.5,267.5C 304.814,268.296 294.147,269.296 283.5,270.5C 285.5,269.833 287.5,269.167 289.5,268.5C 294.338,268.089 299.005,267.422 303.5,266.5 Z"/></g>
<g><path style="opacity:0.994" fill="#f4d254" d="M 349.5,270.5 C 353.884,270.174 358.217,270.508 362.5,271.5C 363.602,272.176 364.602,272.842 365.5,273.5C 363.833,273.5 362.167,273.5 360.5,273.5C 356.603,272.945 352.937,271.945 349.5,270.5 Z"/></g>
<g><path style="opacity:0.286" fill="#f5e08b" d="M 339.5,269.5 C 342.713,269.19 345.713,269.523 348.5,270.5C 346.167,270.5 343.833,270.5 341.5,270.5C 341.422,277.7 340.755,284.7 339.5,291.5C 339.5,284.167 339.5,276.833 339.5,269.5 Z"/></g>
<g><path style="opacity:0.337" fill="#f8e68f" d="M 360.5,273.5 C 362.167,273.5 363.833,273.5 365.5,273.5C 369.3,274.933 373.133,276.267 377,277.5C 377.703,280.482 377.203,283.149 375.5,285.5C 375.5,282.833 375.5,280.167 375.5,277.5C 370.324,276.387 365.324,275.054 360.5,273.5 Z"/></g>
<g><path style="opacity:0.969" fill="#f5d86a" d="M 207.5,271.5 C 209.492,271.328 211.158,271.995 212.5,273.5C 213.369,278.612 215.036,283.279 217.5,287.5C 213.254,282.798 209.92,277.465 207.5,271.5 Z"/></g>
<g><path style="opacity:0.988" fill="#f4d55d" d="M 255.5,287.5 C 255.5,284.5 255.5,281.5 255.5,278.5C 250.096,280.301 244.763,282.301 239.5,284.5C 237.821,284.285 236.821,284.952 236.5,286.5C 233.807,287.552 231.14,288.552 228.5,289.5C 226.901,289.768 225.568,289.434 224.5,288.5C 227.079,288.606 229.412,287.939 231.5,286.5C 233.026,285.895 234.026,284.729 234.5,283C 241.469,280.956 248.469,278.79 255.5,276.5C 256.086,276.709 256.586,277.043 257,277.5C 257.167,279.167 257.333,280.833 257.5,282.5C 257.444,284.64 256.777,286.306 255.5,287.5 Z"/></g>
<g><path style="opacity:0.055" fill="#fef0b8" d="M 239.5,284.5 C 238.71,285.401 237.71,286.068 236.5,286.5C 236.821,284.952 237.821,284.285 239.5,284.5 Z"/></g>
<g><path style="opacity:0.475" fill="#f8e495" d="M 217.5,287.5 C 219.764,288.219 222.097,288.552 224.5,288.5C 225.568,289.434 226.901,289.768 228.5,289.5C 226.372,290.629 224.039,290.796 221.5,290C 219.68,289.8 218.347,288.966 217.5,287.5 Z"/></g>
<g><path style="opacity:0.533" fill="#f6d868" d="M 411.5,287.5 C 408.366,290.57 404.7,291.237 400.5,289.5C 403.396,288.47 407.063,287.804 411.5,287.5 Z"/></g>
<g><path style="opacity:0.306" fill="#f8e784" d="M 400.5,290.5 C 399.912,295.808 398.579,300.808 396.5,305.5C 397.01,300.789 397.844,296.122 399,291.5C 399.383,290.944 399.883,290.611 400.5,290.5 Z"/></g>
<g><path style="opacity:0.918" fill="#f6d86c" d="M 339.5,269.5 C 339.5,276.833 339.5,284.167 339.5,291.5C 337.043,304.535 333.377,317.201 328.5,329.5C 326.636,330.993 324.47,331.66 322,331.5C 320.293,331.492 318.793,331.158 317.5,330.5C 320.807,329.949 324.14,329.616 327.5,329.5C 328.719,324.528 329.886,319.528 331,314.5C 331.333,314.833 331.667,315.167 332,315.5C 332.233,311.326 333.566,307.659 336,304.5C 337.815,292.848 338.982,281.182 339.5,269.5 Z"/></g>
<g><path style="opacity:0.631" fill="#f4db79" d="M 255.5,288.5 C 256.156,294.174 254.823,299.174 251.5,303.5C 253.286,298.498 254.619,293.498 255.5,288.5 Z"/></g>
<g><path style="opacity:1" fill="#f4d14d" d="M 315.5,267.5 C 316.5,267.5 317.5,267.5 318.5,267.5C 318.858,275.754 318.191,283.921 316.5,292C 316.651,294.197 316.985,296.364 317.5,298.5C 316.728,300.708 315.895,300.375 315,297.5C 314.171,302.137 313.671,306.804 313.5,311.5C 311.678,311.831 310.011,312.498 308.5,313.5C 314.057,298.619 316.39,283.286 315.5,267.5 Z"/></g>
<g><path style="opacity:1" fill="#f8da6c" d="M 289.5,268.5 C 287.5,269.167 285.5,269.833 283.5,270.5C 281.654,286.586 278.154,302.586 273,318.5C 272.623,319.942 271.79,320.942 270.5,321.5C 270.5,320.833 270.5,320.167 270.5,319.5C 271.41,317.981 272.243,316.315 273,314.5C 273.299,307.735 274.966,301.402 278,295.5C 278.333,287.167 278.667,278.833 279,270.5C 282.243,268.737 285.743,268.071 289.5,268.5 Z"/></g>
<g><path style="opacity:0.927" fill="#f7d974" d="M 374.5,295.5 C 373.511,300.46 372.678,305.46 372,310.5C 369.978,315.223 367.478,319.557 364.5,323.5C 368.322,314.344 371.655,305.01 374.5,295.5 Z"/></g>
<g><path style="opacity:0.251" fill="#f7dc7b" d="M 396.5,305.5 C 396.283,309.978 394.95,313.978 392.5,317.5C 393.315,313.856 394.148,310.189 395,306.5C 395.383,305.944 395.883,305.611 396.5,305.5 Z"/></g>
<g><path style="opacity:0.784" fill="#f9d769" d="M 250.5,308.5 C 250.191,312.423 248.858,315.757 246.5,318.5C 246.752,314.673 248.085,311.34 250.5,308.5 Z"/></g>
<g><path style="opacity:0.098" fill="#fae792" d="M 305.5,321.5 C 304.514,324.493 303.514,327.493 302.5,330.5C 306.833,330.5 311.167,330.5 315.5,330.5C 311.03,331.486 306.363,331.819 301.5,331.5C 301.206,327.433 302.54,324.1 305.5,321.5 Z"/></g>
<g><path style="opacity:0.133" fill="#fceca8" d="M 242.5,326.5 C 242.365,328.554 243.032,330.221 244.5,331.5C 240.161,331.163 239.494,329.497 242.5,326.5 Z"/></g>
<g><path style="opacity:0.275" fill="#f8da6f" d="M 246.5,318.5 C 245.975,322.333 244.975,326 243.5,329.5C 252.103,330.088 260.436,329.422 268.5,327.5C 268.67,328.822 268.337,329.989 267.5,331C 259.822,330.416 252.155,330.583 244.5,331.5C 243.032,330.221 242.365,328.554 242.5,326.5C 242.896,323.279 244.229,320.612 246.5,318.5 Z"/></g>
<g><path style="opacity:0.3" fill="#f6df6d" d="M 391.5,320.5 C 390.781,324.438 389.115,327.938 386.5,331C 378.173,331.5 369.84,331.666 361.5,331.5C 361.054,328.99 361.72,326.99 363.5,325.5C 363.5,326.833 363.5,328.167 363.5,329.5C 371.167,329.5 378.833,329.5 386.5,329.5C 386.421,328.07 386.754,326.736 387.5,325.5C 388.838,323.725 390.171,322.059 391.5,320.5 Z"/></g>
</svg>
