<?xml version="1.0" encoding="UTF-8"?>
<!DOCTYPE svg PUBLIC "-//W3C//DTD SVG 1.1//EN" "http://www.w3.org/Graphics/SVG/1.1/DTD/svg11.dtd">
<svg xmlns="http://www.w3.org/2000/svg" version="1.1" width="585px" height="427px" style="shape-rendering:geometricPrecision; text-rendering:geometricPrecision; image-rendering:optimizeQuality; fill-rule:evenodd; clip-rule:evenodd" xmlns:xlink="http://www.w3.org/1999/xlink">
<g><path style="opacity:0.231" fill="#f8e1a2" d="M 250.5,86.5 C 249.737,87.2679 248.737,87.7679 247.5,88C 241.851,88.7575 236.184,89.2575 230.5,89.5C 236.97,88.0723 243.637,87.0723 250.5,86.5 Z"/></g>
<g><path style="opacity:1" fill="#f5d463" d="M 250.5,86.5 C 254.135,87.1143 257.802,87.4476 261.5,87.5C 262.5,88.1667 263.5,88.8333 264.5,89.5C 261.507,88.8654 258.507,88.6987 255.5,89C 252.869,90.6909 253.203,91.8576 256.5,92.5C 256.333,92.8333 256.167,93.1667 256,93.5C 253.308,91.4838 250.308,90.1504 247,89.5C 236.263,90.3893 225.763,92.0559 215.5,94.5C 217.531,94.0276 219.198,93.0276 220.5,91.5C 223.63,89.9774 226.963,89.3107 230.5,89.5C 236.184,89.2575 241.851,88.7575 247.5,88C 248.737,87.7679 249.737,87.2679 250.5,86.5 Z"/></g>
<g><path style="opacity:0.961" fill="#f6db80" d="M 261.5,87.5 C 282.612,88.739 301.945,95.0723 319.5,106.5C 311.415,103.293 303.415,99.7932 295.5,96C 285.454,92.7408 275.121,90.5741 264.5,89.5C 263.5,88.8333 262.5,88.1667 261.5,87.5 Z"/></g>
<g><path style="opacity:0.314" fill="#f7e097" d="M 220.5,91.5 C 219.198,93.0276 217.531,94.0276 215.5,94.5C 213.194,94.9926 210.861,95.3259 208.5,95.5C 212.215,93.5949 216.215,92.2616 220.5,91.5 Z"/></g>
<g><path style="opacity:1" fill="#f7db7d" d="M 207.5,95.5 C 207.196,96.1499 206.863,96.8165 206.5,97.5C 202.323,98.7517 198.656,100.752 195.5,103.5C 192.87,104.381 190.203,105.048 187.5,105.5C 193.57,101.132 200.236,97.7984 207.5,95.5 Z"/></g>
<g><path style="opacity:0.408" fill="#f7dc81" d="M 187.5,105.5 C 182.629,110.508 176.962,114.674 170.5,118C 167.112,120.531 164.779,123.698 163.5,127.5C 162.167,127.5 160.833,127.5 159.5,127.5C 167.393,118.267 176.726,110.933 187.5,105.5 Z"/></g>
<g><path style="opacity:0.188" fill="#f7df8e" d="M 325.5,110.5 C 330.224,112.529 334.224,115.529 337.5,119.5C 332.886,117.206 328.886,114.206 325.5,110.5 Z"/></g>
<g><path style="opacity:0.012" fill="#f8eca0" d="M 342.5,123.5 C 345.243,125.239 347.243,127.573 348.5,130.5C 345.757,128.761 343.757,126.427 342.5,123.5 Z"/></g>
<g><path style="opacity:0.353" fill="#f6de8c" d="M 450.5,134.5 C 446.513,133.169 442.513,131.836 438.5,130.5C 430.359,131.029 424.359,134.696 420.5,141.5C 420.167,141.5 419.833,141.5 419.5,141.5C 424.077,131.878 431.744,128.044 442.5,130C 445.801,130.487 448.467,131.987 450.5,134.5 Z"/></g>
<g><path style="opacity:0.302" fill="#f8e293" d="M 156.5,130.5 C 155.581,133.089 153.914,135.089 151.5,136.5C 152.419,133.911 154.086,131.911 156.5,130.5 Z"/></g>
<g><path style="opacity:1" fill="#f7d14f" d="M 450.5,134.5 C 452.55,137.234 454.216,140.234 455.5,143.5C 456.667,178.495 456.833,213.495 456,248.5C 455.333,249.833 454.333,250.833 453,251.5C 452.667,253.167 452.333,254.833 452,256.5C 450.583,257.078 449.75,258.078 449.5,259.5C 449.5,260.167 449.167,260.5 448.5,260.5C 445.038,260.566 441.705,261.233 438.5,262.5C 430.853,262.685 425.52,259.352 422.5,252.5C 420.527,215.653 419.861,178.653 420.5,141.5C 424.359,134.696 430.359,131.029 438.5,130.5C 442.513,131.836 446.513,133.169 450.5,134.5 Z"/></g>
<g><path style="opacity:1" fill="#f4d976" d="M 151.5,136.5 C 149.309,139.866 147.809,143.533 147,147.5C 145.53,148.267 144.03,148.933 142.5,149.5C 144.763,144.635 147.763,140.302 151.5,136.5 Z"/></g>
<g><path style="opacity:1" fill="#f7d466" d="M 354.5,137.5 C 360.324,143.135 364.657,149.802 367.5,157.5C 367.5,158.833 367.5,160.167 367.5,161.5C 366.71,160.391 366.21,159.058 366,157.5C 365.692,158.308 365.192,158.975 364.5,159.5C 363.63,157.593 362.63,155.76 361.5,154C 362.187,152.838 362.353,151.672 362,150.5C 359.537,148.334 357.037,146.168 354.5,144C 355.605,141.88 355.605,139.713 354.5,137.5 Z"/></g>
<g><path style="opacity:0.998" fill="#f5d464" d="M 142.5,149.5 C 142.613,152.049 141.946,154.382 140.5,156.5C 146.194,158.899 146.86,161.399 142.5,164C 143.205,165.422 143.539,166.755 143.5,168C 143.167,168.167 142.833,168.333 142.5,168.5C 141.723,165.466 140.389,162.8 138.5,160.5C 137.534,162.396 137.201,164.396 137.5,166.5C 136.041,166.433 134.708,166.766 133.5,167.5C 133.5,167.167 133.5,166.833 133.5,166.5C 135.21,160.076 138.21,154.409 142.5,149.5 Z"/></g>
<g><path style="opacity:1" fill="#f7d150" d="M 264.5,89.5 C 275.121,90.5741 285.454,92.7408 295.5,96C 303.415,99.7932 311.415,103.293 319.5,106.5C 321.853,107.34 323.853,108.674 325.5,110.5C 328.886,114.206 332.886,117.206 337.5,119.5C 339.389,120.604 341.055,121.937 342.5,123.5C 343.757,126.427 345.757,128.761 348.5,130.5C 351.243,132.239 353.243,134.573 354.5,137.5C 355.605,139.713 355.605,141.88 354.5,144C 357.037,146.168 359.537,148.334 362,150.5C 362.353,151.672 362.187,152.838 361.5,154C 362.63,155.76 363.63,157.593 364.5,159.5C 365.192,158.975 365.692,158.308 366,157.5C 366.21,159.058 366.71,160.391 367.5,161.5C 370.229,164.032 372.229,167.032 373.5,170.5C 373.999,174.49 374.499,178.49 375,182.5C 375.333,182.167 375.667,181.833 376,181.5C 376.333,183.5 376.667,185.5 377,187.5C 377.671,188.252 378.504,188.586 379.5,188.5C 380.167,188.5 380.5,188.833 380.5,189.5C 379.842,190.793 379.508,192.293 379.5,194C 383.672,213.388 383.338,232.721 378.5,252C 378.528,253.07 378.861,253.903 379.5,254.5C 378.486,256.574 377.486,258.574 376.5,260.5C 375.199,261.64 374.032,262.973 373,264.5C 371.781,269.266 370.615,273.933 369.5,278.5C 368.094,278.973 367.427,279.973 367.5,281.5C 365.025,282.687 364.025,284.687 364.5,287.5C 362.747,288.925 361.08,290.591 359.5,292.5C 358.571,293.689 358.238,295.022 358.5,296.5C 355.695,297.979 354.028,300.312 353.5,303.5C 350.888,304.371 348.221,305.037 345.5,305.5C 344.551,307.737 343.884,310.071 343.5,312.5C 342.5,312.5 341.5,312.5 340.5,312.5C 340.762,313.978 340.429,315.311 339.5,316.5C 337.625,317.409 336.292,318.743 335.5,320.5C 331.742,324.592 327.409,327.926 322.5,330.5C 320.146,330.838 317.813,331.338 315.5,332C 312.242,334.774 308.909,337.274 305.5,339.5C 301.027,338.914 297.36,340.248 294.5,343.5C 293.22,344.931 291.553,345.598 289.5,345.5C 286.171,345.215 283.171,345.882 280.5,347.5C 277.447,347.111 274.78,347.777 272.5,349.5C 271.5,349.5 270.5,349.5 269.5,349.5C 262.833,349.833 256.167,350.167 249.5,350.5C 235.236,348.569 221.236,345.569 207.5,341.5C 206.584,341.543 205.917,341.876 205.5,342.5C 204.833,342.5 204.5,342.167 204.5,341.5C 197.105,337.293 189.772,332.793 182.5,328C 181.207,327.51 179.873,327.343 178.5,327.5C 172.917,324.253 167.917,320.253 163.5,315.5C 161.5,310.833 158.167,307.5 153.5,305.5C 150.06,302.393 147.393,298.727 145.5,294.5C 144.781,292.236 144.448,289.903 144.5,287.5C 143.448,287.649 142.448,287.483 141.5,287C 139.989,283.682 137.989,280.849 135.5,278.5C 135.663,276.143 135.497,273.81 135,271.5C 132.726,266.613 130.226,261.946 127.5,257.5C 124.621,237.611 123.788,217.611 125,197.5C 126.889,192.746 127.722,187.746 127.5,182.5C 129.074,180.898 129.741,178.898 129.5,176.5C 131.277,173.77 132.611,170.77 133.5,167.5C 134.708,166.766 136.041,166.433 137.5,166.5C 137.201,164.396 137.534,162.396 138.5,160.5C 140.389,162.8 141.723,165.466 142.5,168.5C 142.833,168.333 143.167,168.167 143.5,168C 143.539,166.755 143.205,165.422 142.5,164C 146.86,161.399 146.194,158.899 140.5,156.5C 141.946,154.382 142.613,152.049 142.5,149.5C 144.03,148.933 145.53,148.267 147,147.5C 147.809,143.533 149.309,139.866 151.5,136.5C 153.914,135.089 155.581,133.089 156.5,130.5C 157.167,129.167 158.167,128.167 159.5,127.5C 160.833,127.5 162.167,127.5 163.5,127.5C 164.779,123.698 167.112,120.531 170.5,118C 176.962,114.674 182.629,110.508 187.5,105.5C 190.203,105.048 192.87,104.381 195.5,103.5C 198.656,100.752 202.323,98.7517 206.5,97.5C 206.863,96.8165 207.196,96.1499 207.5,95.5C 207.833,95.5 208.167,95.5 208.5,95.5C 210.861,95.3259 213.194,94.9926 215.5,94.5C 225.763,92.0559 236.263,90.3893 247,89.5C 250.308,90.1504 253.308,91.4838 256,93.5C 256.167,93.1667 256.333,92.8333 256.5,92.5C 253.203,91.8576 252.869,90.6909 255.5,89C 258.507,88.6987 261.507,88.8654 264.5,89.5 Z M 246.5,108.5 C 253.508,108.334 260.508,108.5 267.5,109C 276.259,110.856 284.926,113.023 293.5,115.5C 298.605,118.601 303.938,121.267 309.5,123.5C 313.883,127.214 318.55,130.547 323.5,133.5C 326.167,136.167 328.833,138.833 331.5,141.5C 337.244,147.903 342.577,154.569 347.5,161.5C 347.66,163.153 348.326,164.486 349.5,165.5C 351.978,169.122 353.311,173.122 353.5,177.5C 351.99,178.836 350.323,180.003 348.5,181C 310.835,181.5 273.168,181.667 235.5,181.5C 235.167,181.5 234.833,181.5 234.5,181.5C 208.498,181.667 182.498,181.5 156.5,181C 152.542,178.393 151.542,174.893 153.5,170.5C 155.579,166.007 157.912,161.674 160.5,157.5C 163.156,154.206 165.822,150.873 168.5,147.5C 173.806,141.527 179.473,135.86 185.5,130.5C 188.117,129.214 190.45,127.547 192.5,125.5C 192.833,125.5 193.167,125.5 193.5,125.5C 194.71,125.068 195.71,124.401 196.5,123.5C 197.71,123.068 198.71,122.401 199.5,121.5C 211.028,115.197 223.362,111.197 236.5,109.5C 239.728,108.586 243.061,108.253 246.5,108.5 Z M 243.5,195.5 C 244.5,195.5 245.5,195.5 246.5,195.5C 251.167,195.5 255.833,195.5 260.5,195.5C 261.391,196.11 262.391,196.443 263.5,196.5C 272.575,199.908 279.908,205.574 285.5,213.5C 285.66,215.153 286.326,216.486 287.5,217.5C 290.13,224.9 291.13,232.567 290.5,240.5C 289.148,244.211 287.481,247.878 285.5,251.5C 285.5,251.833 285.5,252.167 285.5,252.5C 282.698,255.476 280.031,258.642 277.5,262C 274.907,264.114 272.24,265.947 269.5,267.5C 266.833,268.167 264.167,268.833 261.5,269.5C 258.72,270.078 256.053,270.745 253.5,271.5C 243.679,270.89 235.012,267.557 227.5,261.5C 223.37,257.713 220.036,253.379 217.5,248.5C 217.737,247.209 217.404,246.209 216.5,245.5C 214.827,239.263 214.327,232.93 215,226.5C 216.499,220.823 218.666,215.49 221.5,210.5C 223.5,209.167 225.167,207.5 226.5,205.5C 227.5,205.167 228.167,204.5 228.5,203.5C 233.144,200.071 238.144,197.404 243.5,195.5 Z M 175.5,215.5 C 175.833,215.5 176.167,215.5 176.5,215.5C 175.914,229.404 178.581,242.571 184.5,255C 178.5,262.333 171.833,269 164.5,275C 161.697,275.755 159.03,275.422 156.5,274C 154.933,271.021 153.266,268.188 151.5,265.5C 149.438,259.41 147.438,253.41 145.5,247.5C 145.5,247.167 145.5,246.833 145.5,246.5C 144.209,241.779 143.209,237.112 142.5,232.5C 142.5,231.167 142.5,229.833 142.5,228.5C 142.335,225.482 142.502,222.482 143,219.5C 144.102,218.051 145.269,216.718 146.5,215.5C 147.167,215.5 147.833,215.5 148.5,215.5C 157.35,215.404 166.35,215.404 175.5,215.5 Z M 363.5,230.5 C 363.5,230.833 363.5,231.167 363.5,231.5C 361.77,235.883 360.77,240.55 360.5,245.5C 359.962,247.117 359.629,248.784 359.5,250.5C 357.926,252.102 357.259,254.102 357.5,256.5C 354.93,263.187 351.597,269.521 347.5,275.5C 343.334,276.056 339.668,275.056 336.5,272.5C 334.167,269.5 331.5,266.833 328.5,264.5C 327.167,262.5 325.5,260.833 323.5,259.5C 323.167,259.5 322.833,259.5 322.5,259.5C 321.293,256.186 321.293,252.852 322.5,249.5C 323.338,249.158 323.672,248.492 323.5,247.5C 325.606,243.509 326.939,239.176 327.5,234.5C 328.879,228.383 329.546,222.05 329.5,215.5C 339.172,215.334 348.839,215.5 358.5,216C 360.286,216.785 361.786,217.951 363,219.5C 363.499,223.152 363.665,226.818 363.5,230.5 Z M 210.5,282.5 C 213.623,284.544 216.956,286.211 220.5,287.5C 224.695,290.254 229.362,291.921 234.5,292.5C 246.633,296.318 258.966,296.484 271.5,293C 275.229,292.156 278.563,290.656 281.5,288.5C 281.833,288.5 282.167,288.5 282.5,288.5C 286.186,286.767 289.852,284.934 293.5,283C 295.885,282.444 298.218,282.61 300.5,283.5C 303.694,286.272 306.694,289.272 309.5,292.5C 311.808,294.471 314.142,296.471 316.5,298.5C 318.293,301.259 318.793,304.259 318,307.5C 315.937,309.734 313.771,311.734 311.5,313.5C 309.326,313.75 307.659,314.75 306.5,316.5C 301.542,319.036 296.542,321.369 291.5,323.5C 287.078,324.865 282.745,326.198 278.5,327.5C 275.219,327.42 272.219,328.087 269.5,329.5C 243.97,332.448 219.97,327.782 197.5,315.5C 196.71,314.599 195.71,313.932 194.5,313.5C 192.947,311.615 190.947,310.615 188.5,310.5C 187.257,306.484 187.257,302.484 188.5,298.5C 188.833,298.5 189.167,298.5 189.5,298.5C 192.532,295.803 195.198,292.803 197.5,289.5C 200.132,288.101 202.465,286.268 204.5,284C 206.345,282.872 208.345,282.372 210.5,282.5 Z"/></g>
<g><path style="opacity:0.988" fill="#fae08c" d="M 168.5,147.5 C 165.822,150.873 163.156,154.206 160.5,157.5C 161.772,154.652 162.605,151.652 163,148.5C 163.414,148.957 163.914,149.291 164.5,149.5C 165.622,148.37 166.956,147.703 168.5,147.5 Z"/></g>
<g><path style="opacity:0.996" fill="#f6d66b" d="M 331.5,141.5 C 333.846,142.523 336.179,143.523 338.5,144.5C 338.383,146.484 339.05,148.15 340.5,149.5C 344.357,144.071 347.024,144.738 348.5,151.5C 347.5,151.5 346.5,151.5 345.5,151.5C 345.31,155.032 345.977,158.365 347.5,161.5C 342.577,154.569 337.244,147.903 331.5,141.5 Z"/></g>
<g><path style="opacity:0.341" fill="#f7dd81" d="M 192.5,125.5 C 190.45,127.547 188.117,129.214 185.5,130.5C 186.456,126.933 188.79,125.266 192.5,125.5 Z"/></g>
<g><path style="opacity:0.976" fill="#f7de81" d="M 309.5,123.5 C 311.89,123.913 314.223,124.579 316.5,125.5C 318.579,128.377 320.912,131.043 323.5,133.5C 318.55,130.547 313.883,127.214 309.5,123.5 Z"/></g>
<g><path style="opacity:0.035" fill="#feebb6" d="M 196.5,123.5 C 195.71,124.401 194.71,125.068 193.5,125.5C 193.821,123.952 194.821,123.285 196.5,123.5 Z"/></g>
<g><path style="opacity:0.745" fill="#f6dc7c" d="M 293.5,115.5 C 284.926,113.023 276.259,110.856 267.5,109C 260.508,108.5 253.508,108.334 246.5,108.5C 245.036,107.84 243.369,107.507 241.5,107.5C 239.36,107.556 237.694,108.223 236.5,109.5C 223.362,111.197 211.028,115.197 199.5,121.5C 201.558,118.787 204.224,116.787 207.5,115.5C 217.076,112.947 226.409,110.114 235.5,107C 247.847,106.167 260.18,106.334 272.5,107.5C 277.182,109.893 282.182,111.393 287.5,112C 289.618,113.082 291.618,114.249 293.5,115.5 Z"/></g>
<g><path style="opacity:0.094" fill="#f3e4a1" d="M 246.5,108.5 C 243.061,108.253 239.728,108.586 236.5,109.5C 237.694,108.223 239.36,107.556 241.5,107.5C 243.369,107.507 245.036,107.84 246.5,108.5 Z"/></g>
<g><path style="opacity:0.435" fill="#f7dd8b" d="M 367.5,157.5 C 369.601,160.248 371.434,163.248 373,166.5C 373.49,167.793 373.657,169.127 373.5,170.5C 372.229,167.032 370.229,164.032 367.5,161.5C 367.5,160.167 367.5,158.833 367.5,157.5 Z"/></g>
<g><path style="opacity:0.502" fill="#f2e385" d="M 349.5,165.5 C 353.727,168.604 355.06,172.604 353.5,177.5C 353.311,173.122 351.978,169.122 349.5,165.5 Z"/></g>
<g><path style="opacity:0.286" fill="#f7dd8b" d="M 133.5,166.5 C 133.5,166.833 133.5,167.167 133.5,167.5C 132.611,170.77 131.277,173.77 129.5,176.5C 129.938,172.687 131.271,169.354 133.5,166.5 Z"/></g>
<g><path style="opacity:0.443" fill="#f7e196" d="M 129.5,176.5 C 129.741,178.898 129.074,180.898 127.5,182.5C 127.259,180.102 127.926,178.102 129.5,176.5 Z"/></g>
<g><path style="opacity:0.043" fill="#f7e186" d="M 153.5,170.5 C 151.542,174.893 152.542,178.393 156.5,181C 182.498,181.5 208.498,181.667 234.5,181.5C 208.339,182.498 182.005,182.831 155.5,182.5C 152.252,181.071 150.919,178.571 151.5,175C 151.569,173.014 152.235,171.514 153.5,170.5 Z"/></g>
<g><path style="opacity:0.035" fill="#f8df89" d="M 353.5,177.5 C 352.793,181.328 350.46,182.995 346.5,182.5C 309.33,182.832 272.33,182.498 235.5,181.5C 273.168,181.667 310.835,181.5 348.5,181C 350.323,180.003 351.99,178.836 353.5,177.5 Z"/></g>
<g><path style="opacity:0.98" fill="#f5d256" d="M 234.5,181.5 C 234.833,181.5 235.167,181.5 235.5,181.5C 272.33,182.498 309.33,182.832 346.5,182.5C 343.242,183.171 339.909,184.004 336.5,185C 332.955,185.717 329.455,185.55 326,184.5C 323.273,185.063 320.607,185.73 318,186.5C 314,186.5 310,186.5 306,186.5C 305,185.833 304,185.167 303,184.5C 285.416,185.067 267.583,185.067 249.5,184.5C 245.605,185.06 241.772,185.726 238,186.5C 218.684,184.73 198.35,184.064 177,184.5C 176,185.167 175,185.833 174,186.5C 170,186.5 166,186.5 162,186.5C 160.208,184.372 158.042,183.039 155.5,182.5C 182.005,182.831 208.339,182.498 234.5,181.5 Z"/></g>
<g><path style="opacity:0.675" fill="#f4d973" d="M 373.5,170.5 C 376.473,176.085 378.473,182.085 379.5,188.5C 378.504,188.586 377.671,188.252 377,187.5C 376.667,185.5 376.333,183.5 376,181.5C 375.667,181.833 375.333,182.167 375,182.5C 374.499,178.49 373.999,174.49 373.5,170.5 Z"/></g>
<g><path style="opacity:0.051" fill="#f8de8f" d="M 260.5,195.5 C 255.833,195.5 251.167,195.5 246.5,195.5C 251.151,192.961 255.818,192.961 260.5,195.5 Z"/></g>
<g><path style="opacity:0.937" fill="#f5d97a" d="M 243.5,195.5 C 238.144,197.404 233.144,200.071 228.5,203.5C 228.5,202.167 228.5,200.833 228.5,199.5C 233.215,197.403 238.215,196.07 243.5,195.5 Z"/></g>
<g><path style="opacity:0.384" fill="#f3dc81" d="M 263.5,196.5 C 268.644,197.622 273.644,199.289 278.5,201.5C 280.888,205.534 283.222,209.534 285.5,213.5C 279.908,205.574 272.575,199.908 263.5,196.5 Z"/></g>
<g><path style="opacity:0.158" fill="#edd589" d="M 419.5,141.5 C 419.832,177.671 419.498,213.671 418.5,249.5C 418.772,216.689 418.439,184.023 417.5,151.5C 418.011,147.998 418.678,144.665 419.5,141.5 Z"/></g>
<g><path style="opacity:0.255" fill="#efe192" d="M 226.5,205.5 C 225.167,207.5 223.5,209.167 221.5,210.5C 221.5,207.167 223.167,205.5 226.5,205.5 Z"/></g>
<g><path style="opacity:0.687" fill="#f2d05f" d="M 419.5,141.5 C 419.833,141.5 420.167,141.5 420.5,141.5C 419.861,178.653 420.527,215.653 422.5,252.5C 421.609,251.89 420.609,251.557 419.5,251.5C 419.167,250.833 418.833,250.167 418.5,249.5C 419.498,213.671 419.832,177.671 419.5,141.5 Z"/></g>
<g><path style="opacity:0.957" fill="#f3d677" d="M 127.5,182.5 C 127.722,187.746 126.889,192.746 125,197.5C 123.788,217.611 124.621,237.611 127.5,257.5C 125.293,251.814 123.96,245.814 123.5,239.5C 123.145,228.994 122.478,218.661 121.5,208.5C 122.438,199.507 124.438,190.841 127.5,182.5 Z"/></g>
<g><path style="opacity:0.944" fill="#f8da71" d="M 363.5,230.5 C 363.665,226.818 363.499,223.152 363,219.5C 361.786,217.951 360.286,216.785 358.5,216C 348.839,215.5 339.172,215.334 329.5,215.5C 329.546,222.05 328.879,228.383 327.5,234.5C 327.167,234.5 326.833,234.5 326.5,234.5C 326.731,226.791 326.398,219.124 325.5,211.5C 335.341,212.764 345.174,212.764 355,211.5C 364.205,214.998 367.038,221.331 363.5,230.5 Z"/></g>
<g><path style="opacity:0.3" fill="#f5e3ac" d="M 175.5,215.5 C 166.35,215.404 157.35,215.404 148.5,215.5C 148.389,214.883 148.056,214.383 147.5,214C 152.167,213.833 156.833,213.667 161.5,213.5C 166.551,213.507 171.217,214.173 175.5,215.5 Z"/></g>
<g><path style="opacity:0.067" fill="#f5e6ad" d="M 121.5,208.5 C 122.478,218.661 123.145,228.994 123.5,239.5C 121.738,229.391 121.072,219.058 121.5,208.5 Z"/></g>
<g><path style="opacity:0.155" fill="#f5db86" d="M 380.5,189.5 C 384.787,211.249 384.454,232.916 379.5,254.5C 378.861,253.903 378.528,253.07 378.5,252C 383.338,232.721 383.672,213.388 379.5,194C 379.508,192.293 379.842,190.793 380.5,189.5 Z"/></g>
<g><path style="opacity:0.416" fill="#f3da89" d="M 287.5,217.5 C 288.5,217.5 289.5,217.5 290.5,217.5C 291.709,225.315 291.709,232.982 290.5,240.5C 291.13,232.567 290.13,224.9 287.5,217.5 Z"/></g>
<g><path style="opacity:0.071" fill="#f5e2a0" d="M 146.5,215.5 C 145.269,216.718 144.102,218.051 143,219.5C 142.502,222.482 142.335,225.482 142.5,228.5C 141.357,225.024 141.19,221.358 142,217.5C 143.11,215.963 144.61,215.297 146.5,215.5 Z"/></g>
<g><path style="opacity:0.598" fill="#f5db7b" d="M 221.5,210.5 C 218.666,215.49 216.499,220.823 215,226.5C 214.327,232.93 214.827,239.263 216.5,245.5C 214.753,244.019 213.586,242.019 213,239.5C 211.719,232.399 212.719,225.733 216,219.5C 216.333,217.167 216.667,214.833 217,212.5C 217.333,212.833 217.667,213.167 218,213.5C 218.759,211.937 219.926,210.937 221.5,210.5 Z"/></g>
<g><path style="opacity:0.161" fill="#f6df91" d="M 450.5,134.5 C 453.559,136.397 455.726,139.064 457,142.5C 458.228,178.27 458.228,214.27 457,250.5C 456.099,253.071 454.766,255.404 453,257.5C 452.184,258.823 451.017,259.489 449.5,259.5C 449.75,258.078 450.583,257.078 452,256.5C 452.333,254.833 452.667,253.167 453,251.5C 454.333,250.833 455.333,249.833 456,248.5C 456.833,213.495 456.667,178.495 455.5,143.5C 454.216,140.234 452.55,137.234 450.5,134.5 Z"/></g>
<g><path style="opacity:0.282" fill="#f2e395" d="M 363.5,231.5 C 363.956,236.607 362.956,241.274 360.5,245.5C 360.77,240.55 361.77,235.883 363.5,231.5 Z"/></g>
<g><path style="opacity:0.255" fill="#f7dd8e" d="M 326.5,234.5 C 326.833,234.5 327.167,234.5 327.5,234.5C 326.939,239.176 325.606,243.509 323.5,247.5C 324.057,242.948 325.057,238.615 326.5,234.5 Z"/></g>
<g><path style="opacity:0.392" fill="#f5e28e" d="M 142.5,232.5 C 143.209,237.112 144.209,241.779 145.5,246.5C 144.034,245.653 143.2,244.32 143,242.5C 142.502,239.183 142.335,235.85 142.5,232.5 Z"/></g>
<g><path style="opacity:0.51" fill="#f4e192" d="M 290.5,240.5 C 290.84,244.131 290.006,247.464 288,250.5C 287.329,251.252 286.496,251.586 285.5,251.5C 287.481,247.878 289.148,244.211 290.5,240.5 Z"/></g>
<g><path style="opacity:0.404" fill="#f8e59f" d="M 359.5,250.5 C 359.741,252.898 359.074,254.898 357.5,256.5C 357.259,254.102 357.926,252.102 359.5,250.5 Z"/></g>
<g><path style="opacity:0.353" fill="#f3d985" d="M 322.5,249.5 C 321.293,252.852 321.293,256.186 322.5,259.5C 319.372,257.382 318.706,254.549 320.5,251C 320.836,249.97 321.503,249.47 322.5,249.5 Z"/></g>
<g><path style="opacity:0.996" fill="#f5d975" d="M 217.5,248.5 C 220.036,253.379 223.37,257.713 227.5,261.5C 224.472,261.035 221.638,260.035 219,258.5C 218.39,255.173 217.89,251.839 217.5,248.5 Z"/></g>
<g><path style="opacity:0.2" fill="#f8de95" d="M 323.5,259.5 C 325.5,260.833 327.167,262.5 328.5,264.5C 325.833,263.833 324.167,262.167 323.5,259.5 Z"/></g>
<g><path style="opacity:0.706" fill="#f6da7e" d="M 145.5,247.5 C 147.438,253.41 149.438,259.41 151.5,265.5C 146.638,260.608 144.638,254.608 145.5,247.5 Z"/></g>
<g><path style="opacity:0.047" fill="#f5df8c" d="M 419.5,251.5 C 420.609,251.557 421.609,251.89 422.5,252.5C 425.52,259.352 430.853,262.685 438.5,262.5C 441.705,261.233 445.038,260.566 448.5,260.5C 436.093,266.588 426.426,263.588 419.5,251.5 Z"/></g>
<g><path style="opacity:0.263" fill="#f4dd91" d="M 285.5,252.5 C 282.725,260.276 277.392,265.276 269.5,267.5C 272.24,265.947 274.907,264.114 277.5,262C 280.031,258.642 282.698,255.476 285.5,252.5 Z"/></g>
<g><path style="opacity:0.161" fill="#f6df80" d="M 328.5,264.5 C 331.5,266.833 334.167,269.5 336.5,272.5C 332.861,270.861 330.195,268.195 328.5,264.5 Z"/></g>
<g><path style="opacity:0.933" fill="#f4da7b" d="M 376.5,260.5 C 375.321,267.053 372.987,273.053 369.5,278.5C 370.615,273.933 371.781,269.266 373,264.5C 374.032,262.973 375.199,261.64 376.5,260.5 Z"/></g>
<g><path style="opacity:0.961" fill="#f5db7e" d="M 227.5,261.5 C 235.012,267.557 243.679,270.89 253.5,271.5C 256.167,271.5 258.833,271.5 261.5,271.5C 256.684,272.65 251.684,272.816 246.5,272C 240.718,270.913 235.052,269.413 229.5,267.5C 229.296,265.315 228.63,263.315 227.5,261.5 Z"/></g>
<g><path style="opacity:0.455" fill="#f5db8e" d="M 357.5,256.5 C 356.495,259.721 355.661,263.054 355,266.5C 353.111,268.483 351.778,270.816 351,273.5C 350.184,274.823 349.017,275.489 347.5,275.5C 351.597,269.521 354.93,263.187 357.5,256.5 Z"/></g>
<g><path style="opacity:0.239" fill="#fae6b1" d="M 261.5,269.5 C 261.5,270.167 261.5,270.833 261.5,271.5C 258.833,271.5 256.167,271.5 253.5,271.5C 256.053,270.745 258.72,270.078 261.5,269.5 Z"/></g>
<g><path style="opacity:0.843" fill="#f3dd80" d="M 127.5,257.5 C 130.226,261.946 132.726,266.613 135,271.5C 135.497,273.81 135.663,276.143 135.5,278.5C 132.066,271.876 129.4,264.876 127.5,257.5 Z"/></g>
<g><path style="opacity:0.133" fill="#f5dc7f" d="M 176.5,215.5 C 178.058,219.898 179.225,224.564 180,229.5C 180.333,233.833 180.667,238.167 181,242.5C 181.689,243.357 182.522,244.023 183.5,244.5C 184.298,242.922 184.798,241.256 185,239.5C 185.318,241.061 186.151,242.228 187.5,243C 186.333,243.5 185.5,244.333 185,245.5C 184.674,249.53 184.674,253.53 185,257.5C 178.833,263.667 172.667,269.833 166.5,276C 157.259,278.389 152.259,274.889 151.5,265.5C 153.266,268.188 154.933,271.021 156.5,274C 159.03,275.422 161.697,275.755 164.5,275C 171.833,269 178.5,262.333 184.5,255C 178.581,242.571 175.914,229.404 176.5,215.5 Z"/></g>
<g><path style="opacity:0.067" fill="#f3df84" d="M 336.5,272.5 C 339.668,275.056 343.334,276.056 347.5,275.5C 344.696,276.638 341.696,276.805 338.5,276C 337.177,275.184 336.511,274.017 336.5,272.5 Z"/></g>
<g><path style="opacity:0.435" fill="#f6dc86" d="M 451.5,281.5 C 439.243,275.914 428.576,277.914 419.5,287.5C 426.905,275.979 436.905,273.146 449.5,279C 450.381,279.708 451.047,280.542 451.5,281.5 Z"/></g>
<g><path style="opacity:0.059" fill="#f9eba0" d="M 369.5,278.5 C 369.573,280.027 368.906,281.027 367.5,281.5C 367.427,279.973 368.094,278.973 369.5,278.5 Z"/></g>
<g><path style="opacity:0.161" fill="#f2dc86" d="M 210.5,282.5 C 208.345,282.372 206.345,282.872 204.5,284C 202.465,286.268 200.132,288.101 197.5,289.5C 198.043,285.954 200.043,283.621 203.5,282.5C 205.973,281.203 208.307,281.203 210.5,282.5 Z"/></g>
<g><path style="opacity:1" fill="#f7d14f" d="M 451.5,281.5 C 453.942,286.936 455.609,292.603 456.5,298.5C 457.07,302.358 455.737,305.358 452.5,307.5C 451.325,306.145 450.325,306.312 449.5,308C 450.357,308.689 451.023,309.522 451.5,310.5C 450.476,311.852 449.476,313.185 448.5,314.5C 448.5,315.167 448.167,315.5 447.5,315.5C 442.511,316.222 437.511,316.388 432.5,316C 430.295,314.294 427.962,312.794 425.5,311.5C 423.603,307.674 421.436,304.007 419,300.5C 418.466,296.141 418.632,291.808 419.5,287.5C 428.576,277.914 439.243,275.914 451.5,281.5 Z"/></g>
<g><path style="opacity:0.396" fill="#f3df88" d="M 367.5,281.5 C 367.346,283.97 366.346,285.97 364.5,287.5C 364.025,284.687 365.025,282.687 367.5,281.5 Z"/></g>
<g><path style="opacity:0.706" fill="#f5d877" d="M 300.5,283.5 C 298.218,282.61 295.885,282.444 293.5,283C 289.852,284.934 286.186,286.767 282.5,288.5C 282.84,286.321 283.84,284.488 285.5,283C 289,282.5 292.5,282 296,281.5C 298.008,281.307 299.508,281.974 300.5,283.5 Z"/></g>
<g><path style="opacity:0.941" fill="#f5dc80" d="M 135.5,278.5 C 137.989,280.849 139.989,283.682 141.5,287C 142.448,287.483 143.448,287.649 144.5,287.5C 144.448,289.903 144.781,292.236 145.5,294.5C 141.167,289.843 137.834,284.51 135.5,278.5 Z"/></g>
<g><path style="opacity:0.671" fill="#f5df8c" d="M 220.5,287.5 C 225.638,288.079 230.305,289.746 234.5,292.5C 229.362,291.921 224.695,290.254 220.5,287.5 Z"/></g>
<g><path style="opacity:0.247" fill="#f5de86" d="M 364.5,287.5 C 363.277,291.049 361.277,294.049 358.5,296.5C 358.238,295.022 358.571,293.689 359.5,292.5C 361.08,290.591 362.747,288.925 364.5,287.5 Z"/></g>
<g><path style="opacity:0.075" fill="#f5e39a" d="M 197.5,289.5 C 195.198,292.803 192.532,295.803 189.5,298.5C 190.731,294.266 193.398,291.266 197.5,289.5 Z"/></g>
<g><path style="opacity:0.29" fill="#f9e799" d="M 309.5,292.5 C 313.082,292.955 315.415,294.955 316.5,298.5C 314.142,296.471 311.808,294.471 309.5,292.5 Z"/></g>
<g><path style="opacity:0.031" fill="#f5e28f" d="M 281.5,288.5 C 278.563,290.656 275.229,292.156 271.5,293C 258.966,296.484 246.633,296.318 234.5,292.5C 240.746,292.408 246.912,293.075 253,294.5C 262.63,292.941 272.13,290.941 281.5,288.5 Z"/></g>
<g><path style="opacity:0.58" fill="#f6db84" d="M 188.5,298.5 C 187.257,302.484 187.257,306.484 188.5,310.5C 190.947,310.615 192.947,311.615 194.5,313.5C 194.265,314.097 193.765,314.43 193,314.5C 186.477,311.449 184.31,306.449 186.5,299.5C 187.183,299.137 187.85,298.804 188.5,298.5 Z"/></g>
<g><path style="opacity:0.102" fill="#f8e18f" d="M 358.5,296.5 C 357.189,299.135 355.522,301.469 353.5,303.5C 354.028,300.312 355.695,297.979 358.5,296.5 Z"/></g>
<g><path style="opacity:0.161" fill="#f3df86" d="M 316.5,298.5 C 317.75,298.577 318.583,299.244 319,300.5C 320.154,305.413 318.987,309.579 315.5,313C 314.207,313.49 312.873,313.657 311.5,313.5C 313.771,311.734 315.937,309.734 318,307.5C 318.793,304.259 318.293,301.259 316.5,298.5 Z"/></g>
<g><path style="opacity:1" fill="#f4d874" d="M 419.5,287.5 C 418.632,291.808 418.466,296.141 419,300.5C 421.436,304.007 423.603,307.674 425.5,311.5C 427.962,312.794 430.295,314.294 432.5,316C 437.511,316.388 442.511,316.222 447.5,315.5C 432.251,321.122 422.084,316.122 417,300.5C 416.427,295.811 417.26,291.477 419.5,287.5 Z"/></g>
<g><path style="opacity:1" fill="#f7d873" d="M 451.5,281.5 C 456.265,285.697 458.932,291.03 459.5,297.5C 459.049,305.438 455.382,311.104 448.5,314.5C 449.476,313.185 450.476,311.852 451.5,310.5C 451.023,309.522 450.357,308.689 449.5,308C 450.325,306.312 451.325,306.145 452.5,307.5C 455.737,305.358 457.07,302.358 456.5,298.5C 455.609,292.603 453.942,286.936 451.5,281.5 Z"/></g>
<g><path style="opacity:0.998" fill="#f7da75" d="M 353.5,303.5 C 348.74,310.597 342.74,316.263 335.5,320.5C 336.292,318.743 337.625,317.409 339.5,316.5C 340.429,315.311 340.762,313.978 340.5,312.5C 341.5,312.5 342.5,312.5 343.5,312.5C 343.884,310.071 344.551,307.737 345.5,305.5C 348.221,305.037 350.888,304.371 353.5,303.5 Z"/></g>
<g><path style="opacity:0.439" fill="#f4db87" d="M 153.5,305.5 C 158.167,307.5 161.5,310.833 163.5,315.5C 159.694,312.605 156.36,309.272 153.5,305.5 Z"/></g>
<g><path style="opacity:0.365" fill="#f5df8e" d="M 197.5,315.5 C 219.97,327.782 243.97,332.448 269.5,329.5C 247.448,333.577 226.115,330.91 205.5,321.5C 202.348,319.948 199.682,317.948 197.5,315.5 Z"/></g>
<g><path style="opacity:0.816" fill="#f5db85" d="M 306.5,316.5 C 302.378,320.728 297.378,323.061 291.5,323.5C 296.542,321.369 301.542,319.036 306.5,316.5 Z"/></g>
<g><path style="opacity:0.29" fill="#f2e286" d="M 291.5,323.5 C 287.745,326.416 283.412,327.75 278.5,327.5C 282.745,326.198 287.078,324.865 291.5,323.5 Z"/></g>
<g><path style="opacity:0.741" fill="#f3dd80" d="M 178.5,327.5 C 179.873,327.343 181.207,327.51 182.5,328C 189.772,332.793 197.105,337.293 204.5,341.5C 194.933,338.385 186.266,333.718 178.5,327.5 Z"/></g>
<g><path style="opacity:0.125" fill="#f9ea9f" d="M 278.5,327.5 C 275.829,329.118 272.829,329.785 269.5,329.5C 272.219,328.087 275.219,327.42 278.5,327.5 Z"/></g>
<g><path style="opacity:0.149" fill="#f3da8e" d="M 322.5,330.5 C 317.305,334.266 311.638,337.266 305.5,339.5C 308.909,337.274 312.242,334.774 315.5,332C 317.813,331.338 320.146,330.838 322.5,330.5 Z"/></g>
<g><path style="opacity:0.576" fill="#f7de8a" d="M 305.5,339.5 C 302.2,341.642 298.533,342.975 294.5,343.5C 297.36,340.248 301.027,338.914 305.5,339.5 Z"/></g>
<g><path style="opacity:0.894" fill="#f3da7a" d="M 205.5,342.5 C 205.917,341.876 206.584,341.543 207.5,341.5C 221.236,345.569 235.236,348.569 249.5,350.5C 249.5,350.833 249.5,351.167 249.5,351.5C 234.286,351.029 219.62,348.029 205.5,342.5 Z"/></g>
<g><path style="opacity:0.29" fill="#f8e7aa" d="M 289.5,345.5 C 286.727,346.657 283.727,347.324 280.5,347.5C 283.171,345.882 286.171,345.215 289.5,345.5 Z"/></g>
<g><path style="opacity:0.051" fill="#fce29a" d="M 280.5,347.5 C 278.095,348.768 275.428,349.435 272.5,349.5C 274.78,347.777 277.447,347.111 280.5,347.5 Z"/></g>
<g><path style="opacity:0.031" fill="#f9db9d" d="M 269.5,349.5 C 263.063,351.039 256.396,351.706 249.5,351.5C 249.5,351.167 249.5,350.833 249.5,350.5C 256.167,350.167 262.833,349.833 269.5,349.5 Z"/></g>
</svg>
