<?xml version="1.0" encoding="UTF-8"?>
<!DOCTYPE svg PUBLIC "-//W3C//DTD SVG 1.1//EN" "http://www.w3.org/Graphics/SVG/1.1/DTD/svg11.dtd">
<svg xmlns="http://www.w3.org/2000/svg" version="1.1" width="500px" height="500px" style="shape-rendering:geometricPrecision; text-rendering:geometricPrecision; image-rendering:optimizeQuality; fill-rule:evenodd; clip-rule:evenodd" xmlns:xlink="http://www.w3.org/1999/xlink">
<g><path style="opacity:1" fill="#fcee08" d="M 135.5,235.5 C 150.104,236.151 164.771,236.818 179.5,237.5C 180.596,243.138 180.596,248.805 179.5,254.5C 165.402,255.151 151.402,255.817 137.5,256.5C 136.25,256.577 135.417,257.244 135,258.5C 134.833,262 134.667,265.5 134.5,269C 134.512,272.902 135.179,276.402 136.5,279.5C 137.263,280.268 138.263,280.768 139.5,281C 155.83,281.5 172.163,281.667 188.5,281.5C 189.282,287.593 189.282,293.593 188.5,299.5C 163.167,299.5 137.833,299.5 112.5,299.5C 112.5,265.167 112.5,230.833 112.5,196.5C 136.5,196.5 160.5,196.5 184.5,196.5C 184.5,202.5 184.5,208.5 184.5,214.5C 168.163,214.333 151.83,214.5 135.5,215C 134.214,218.233 133.547,221.733 133.5,225.5C 133.514,229.239 134.18,232.572 135.5,235.5 Z"/></g>
<g><path style="opacity:1" fill="#fcee14" d="M 325.5,294.5 C 320.503,290.336 316.003,285.669 312,280.5C 309.801,274.592 307.134,269.592 304,265.5C 301.896,251.745 302.396,238.078 305.5,224.5C 306.308,221.55 307.642,218.883 309.5,216.5C 310.239,216.631 310.906,216.464 311.5,216C 314.002,212.667 316.668,209.501 319.5,206.5C 329.301,197.059 341.134,192.392 355,192.5C 368.847,192.669 381.013,197.169 391.5,206C 392.894,206.956 393.561,208.289 393.5,210C 390.018,215.646 385.685,220.479 380.5,224.5C 371.418,217.25 361.085,214.084 349.5,215C 333.001,220.188 325.001,231.522 325.5,249C 327.535,271.706 339.869,282.04 362.5,280C 369.316,278.344 375.316,275.178 380.5,270.5C 385.54,274.539 389.873,279.206 393.5,284.5C 387.273,294.3 378.273,300.133 366.5,302C 354.081,303.696 342.081,302.362 330.5,298C 328.569,297.098 326.903,295.931 325.5,294.5 Z"/></g>
<g><path style="opacity:1" fill="#fcee11" d="M 258.5,195.5 C 279.33,198.165 290.33,209.998 291.5,231C 291.542,246.603 284.542,257.603 270.5,264C 257.486,267.996 244.153,269.496 230.5,268.5C 230.806,271.385 230.473,274.052 229.5,276.5C 228.508,283.982 228.175,291.648 228.5,299.5C 221.245,299.813 214.079,299.48 207,298.5C 206.5,267.502 206.333,236.502 206.5,205.5C 206.216,202.223 206.549,199.057 207.5,196C 224.497,195.5 241.497,195.333 258.5,195.5 Z M 232.5,215.5 C 241.567,215.846 250.567,216.68 259.5,218C 264.432,220.859 266.765,225.193 266.5,231C 266.116,240.052 261.45,245.385 252.5,247C 245.174,247.5 237.841,247.666 230.5,247.5C 229.893,236.577 230.56,225.91 232.5,215.5 Z"/></g>
<g><path style="opacity:0.227" fill="#f9ec6a" d="M 258.5,195.5 C 241.497,195.333 224.497,195.5 207.5,196C 206.549,199.057 206.216,202.223 206.5,205.5C 205.833,205.5 205.167,205.5 204.5,205.5C 205.13,201.996 205.797,198.496 206.5,195C 224.005,194.171 241.338,194.338 258.5,195.5 Z"/></g>
<g><path style="opacity:0.306" fill="#fbf26d" d="M 319.5,206.5 C 316.668,209.501 314.002,212.667 311.5,216C 310.906,216.464 310.239,216.631 309.5,216.5C 311.855,212.145 315.188,208.812 319.5,206.5 Z"/></g>
<g><path style="opacity:0.043" fill="#feee70" d="M 112.5,194.5 C 112.013,195.473 111.513,196.473 111,197.5C 110.174,231.905 110.341,266.238 111.5,300.5C 110.167,283.346 109.5,265.846 109.5,248C 109.667,230.5 109.833,213 110,195.5C 110.671,194.748 111.504,194.414 112.5,194.5 Z"/></g>
<g><path style="opacity:1" fill="#f9ed44" d="M 112.5,194.5 C 137.075,194.172 161.575,194.506 186,195.5C 186.81,202.082 186.643,208.582 185.5,215C 169.172,216.482 152.839,216.815 136.5,216C 135.787,221.287 135.12,226.621 134.5,232C 134.989,233.138 135.322,234.305 135.5,235.5C 134.18,232.572 133.514,229.239 133.5,225.5C 133.547,221.733 134.214,218.233 135.5,215C 151.83,214.5 168.163,214.333 184.5,214.5C 184.5,208.5 184.5,202.5 184.5,196.5C 160.5,196.5 136.5,196.5 112.5,196.5C 112.5,230.833 112.5,265.167 112.5,299.5C 137.833,299.5 163.167,299.5 188.5,299.5C 188.189,300.478 187.522,301.145 186.5,301.5C 161.531,301.275 136.531,300.942 111.5,300.5C 110.341,266.238 110.174,231.905 111,197.5C 111.513,196.473 112.013,195.473 112.5,194.5 Z"/></g>
<g><path style="opacity:0.09" fill="#fbf270" d="M 179.5,254.5 C 165.873,256.482 151.873,257.149 137.5,256.5C 151.402,255.817 165.402,255.151 179.5,254.5 Z"/></g>
<g><path style="opacity:0.316" fill="#fbf15d" d="M 204.5,205.5 C 205.167,205.5 205.833,205.5 206.5,205.5C 206.333,236.502 206.5,267.502 207,298.5C 214.079,299.48 221.245,299.813 228.5,299.5C 228.175,291.648 228.508,283.982 229.5,276.5C 229.5,284.5 229.5,292.5 229.5,300.5C 221.248,300.816 213.081,300.482 205,299.5C 204.621,268.023 204.454,236.69 204.5,205.5 Z"/></g>
<g><path style="opacity:1" fill="#f9ef44" d="M 305.5,224.5 C 302.396,238.078 301.896,251.745 304,265.5C 307.134,269.592 309.801,274.592 312,280.5C 316.003,285.669 320.503,290.336 325.5,294.5C 314.462,288.133 306.962,278.799 303,266.5C 298.237,252.064 299.07,238.064 305.5,224.5 Z"/></g>
<g><path style="opacity:0.334" fill="#faec4f" d="M 136.5,279.5 C 153.431,279.603 170.265,279.603 187,279.5C 187.717,280.044 188.217,280.711 188.5,281.5C 172.163,281.667 155.83,281.5 139.5,281C 138.263,280.768 137.263,280.268 136.5,279.5 Z"/></g>
</svg>
