<?xml version="1.0" encoding="UTF-8"?>
<!DOCTYPE svg PUBLIC "-//W3C//DTD SVG 1.1//EN" "http://www.w3.org/Graphics/SVG/1.1/DTD/svg11.dtd">
<svg xmlns="http://www.w3.org/2000/svg" version="1.1" width="469px" height="532px" style="shape-rendering:geometricPrecision; text-rendering:geometricPrecision; image-rendering:optimizeQuality; fill-rule:evenodd; clip-rule:evenodd" xmlns:xlink="http://www.w3.org/1999/xlink">
<g><path style="opacity:0.964" fill="#b91c1c" d="M 224.5,148.5 C 276.117,147.396 315.284,168.729 342,212.5C 366.379,260.124 362.713,305.458 331,348.5C 290.457,394.522 241.29,406.689 183.5,385C 128.799,356.443 104.966,311.276 112,249.5C 123.122,203.711 150.622,172.211 194.5,155C 204.391,151.86 214.391,149.694 224.5,148.5 Z M 228.5,192.5 C 233.913,192.229 239.246,192.729 244.5,194C 246.32,194.979 247.487,196.479 248,198.5C 247.424,234.672 244.591,270.672 239.5,306.5C 235.412,308.1 231.578,307.766 228,305.5C 227.441,301.814 226.774,298.147 226,294.5C 223.435,264.619 220.935,234.786 218.5,205C 219.33,202.198 220.163,199.365 221,196.5C 223.255,194.501 225.755,193.168 228.5,192.5 Z M 231.5,322.5 C 247.806,323.763 252.973,332.097 247,347.5C 238.104,354.355 229.437,354.022 221,346.5C 216.109,334.641 219.609,326.641 231.5,322.5 Z"/></g>
<g><path style="opacity:0.921" fill="#b91c1c" d="M 98.5,152.5 C 103.673,153.498 108.006,155.998 111.5,160C 114.613,163.113 117.779,166.279 121,169.5C 124.138,174.211 124.138,178.878 121,183.5C 98.3531,211.387 88.0197,243.387 90,279.5C 90.709,310.647 101.042,337.98 121,361.5C 123,365.833 123,370.167 121,374.5C 117.446,378.054 113.946,381.554 110.5,385C 105.683,389.954 100.016,391.288 93.5,389C 73.426,366.861 60.2594,341.028 54,311.5C 43.3244,259.21 52.9911,211.21 83,167.5C 87.4012,161.597 92.5679,156.597 98.5,152.5 Z"/></g>
<g><path style="opacity:0.922" fill="#b91c1c" d="M 367.5,152.5 C 372.809,153.296 376.975,155.962 380,160.5C 420.988,216.126 429.322,276.459 405,341.5C 398.126,359.468 387.959,375.301 374.5,389C 367.575,391.726 361.575,390.393 356.5,385C 354.333,382.167 351.833,379.667 349,377.5C 347.121,374.539 345.621,371.373 344.5,368C 345.333,365.5 346.167,363 347,360.5C 368.763,333.98 379.263,303.48 378.5,269C 377.684,236.541 367.018,207.874 346.5,183C 344.002,178.455 344.168,173.955 347,169.5C 353.462,163.188 360.296,157.521 367.5,152.5 Z"/></g>
</svg>
