<?xml version="1.0" encoding="UTF-8"?>
<!DOCTYPE svg PUBLIC "-//W3C//DTD SVG 1.1//EN" "http://www.w3.org/Graphics/SVG/1.1/DTD/svg11.dtd">
<svg xmlns="http://www.w3.org/2000/svg" version="1.1" width="500px" height="500px" style="shape-rendering:geometricPrecision; text-rendering:geometricPrecision; image-rendering:optimizeQuality; fill-rule:evenodd; clip-rule:evenodd" xmlns:xlink="http://www.w3.org/1999/xlink">
<g><path style="opacity:0.876" fill="#dd8350" d="M 241.5,61.5 C 249.016,59.8944 256.349,60.5611 263.5,63.5C 256.266,62.2345 248.933,61.5678 241.5,61.5 Z"/></g>
<g><path style="opacity:1" fill="#eb6f23" d="M 241.5,61.5 C 248.933,61.5678 256.266,62.2345 263.5,63.5C 263.461,64.5832 263.127,65.5832 262.5,66.5C 263.325,67.3857 264.325,67.719 265.5,67.5C 264.587,69.8348 263.253,72.0015 261.5,74C 257.79,74.6307 254.29,74.1307 251,72.5C 247.274,74.4723 243.44,74.8056 239.5,73.5C 237.129,74.5696 234.795,75.7363 232.5,77C 233.337,78.0113 233.67,79.1779 233.5,80.5C 231.856,80.7135 230.356,80.3802 229,79.5C 229.135,81.4247 229.302,83.4247 229.5,85.5C 227.648,87.4687 224.648,88.4687 220.5,88.5C 219.199,86.3281 218.199,83.9948 217.5,81.5C 222.194,81.6368 224.361,79.3035 224,74.5C 225.035,69.7456 227.702,68.079 232,69.5C 232.983,67.5516 234.15,65.7183 235.5,64C 237.974,63.9633 239.974,63.13 241.5,61.5 Z"/></g>
<g><path style="opacity:1" fill="#e57737" d="M 263.5,63.5 C 268.186,65.1737 272.186,67.8404 275.5,71.5C 271.106,71.0314 267.106,72.0314 263.5,74.5C 265.882,77.9977 267.882,81.6643 269.5,85.5C 261.877,76.1292 252.21,73.2958 240.5,77C 236.343,79.3386 232.676,82.1719 229.5,85.5C 229.302,83.4247 229.135,81.4247 229,79.5C 230.356,80.3802 231.856,80.7135 233.5,80.5C 233.67,79.1779 233.337,78.0113 232.5,77C 234.795,75.7363 237.129,74.5696 239.5,73.5C 243.44,74.8056 247.274,74.4723 251,72.5C 254.29,74.1307 257.79,74.6307 261.5,74C 263.253,72.0015 264.587,69.8348 265.5,67.5C 264.325,67.719 263.325,67.3857 262.5,66.5C 263.127,65.5832 263.461,64.5832 263.5,63.5 Z"/></g>
<g><path style="opacity:1" fill="#e3793a" d="M 241.5,61.5 C 239.974,63.13 237.974,63.9633 235.5,64C 234.15,65.7183 232.983,67.5516 232,69.5C 227.702,68.079 225.035,69.7456 224,74.5C 224.361,79.3035 222.194,81.6368 217.5,81.5C 218.199,83.9948 219.199,86.3281 220.5,88.5C 224.648,88.4687 227.648,87.4687 229.5,85.5C 229.489,87.0174 228.823,88.1841 227.5,89C 218.995,91.1487 215.162,87.982 216,79.5C 221.903,69.7559 230.403,63.7559 241.5,61.5 Z"/></g>
<g><path style="opacity:1" fill="#eb7026" d="M 275.5,71.5 C 278.573,73.5691 280.906,76.2358 282.5,79.5C 281.432,88.6327 277.098,90.6327 269.5,85.5C 267.882,81.6643 265.882,77.9977 263.5,74.5C 267.106,72.0314 271.106,71.0314 275.5,71.5 Z"/></g>
<g><path style="opacity:0.325" fill="#dc9160" d="M 282.5,79.5 C 284.1,82.8678 283.434,85.8678 280.5,88.5C 277.5,89.8333 274.5,89.8333 271.5,88.5C 270.388,87.7348 269.721,86.7348 269.5,85.5C 277.098,90.6327 281.432,88.6327 282.5,79.5 Z"/></g>
<g><path style="opacity:0.74" fill="#dc8455" d="M 201.5,110.5 C 202.922,110.709 204.255,111.209 205.5,112C 234.833,112.667 264.167,112.667 293.5,112C 297.155,108.788 297.489,105.288 294.5,101.5C 266.907,100.509 239.241,100.176 211.5,100.5C 211.5,100.167 211.5,99.8333 211.5,99.5C 236.943,99.3519 262.443,99.0185 288,98.5C 296.53,98.2415 299.863,102.241 298,110.5C 297.097,111.701 295.931,112.535 294.5,113C 264.5,113.667 234.5,113.667 204.5,113C 203.058,112.623 202.058,111.79 201.5,110.5 Z"/></g>
<g><path style="opacity:1" fill="#ee6f23" d="M 211.5,100.5 C 239.241,100.176 266.907,100.509 294.5,101.5C 294.143,103.589 293.477,105.589 292.5,107.5C 291.692,107.192 291.025,106.692 290.5,106C 277.5,105.833 264.5,105.667 251.5,105.5C 237.385,105.552 223.385,106.219 209.5,107.5C 209.756,105.208 209.423,103.041 208.5,101C 209.448,100.517 210.448,100.351 211.5,100.5 Z"/></g>
<g><path style="opacity:0.369" fill="#d99972" d="M 204.5,99.5 C 201.944,102.668 200.944,106.334 201.5,110.5C 200.197,107.645 200.197,104.645 201.5,101.5C 202.265,100.388 203.265,99.7214 204.5,99.5 Z"/></g>
<g><path style="opacity:1" fill="#eb6f25" d="M 211.5,99.5 C 211.5,99.8333 211.5,100.167 211.5,100.5C 210.448,100.351 209.448,100.517 208.5,101C 209.423,103.041 209.756,105.208 209.5,107.5C 223.385,106.219 237.385,105.552 251.5,105.5C 264.5,105.667 277.5,105.833 290.5,106C 291.025,106.692 291.692,107.192 292.5,107.5C 293.477,105.589 294.143,103.589 294.5,101.5C 297.489,105.288 297.155,108.788 293.5,112C 264.167,112.667 234.833,112.667 205.5,112C 204.255,111.209 202.922,110.709 201.5,110.5C 200.944,106.334 201.944,102.668 204.5,99.5C 206.969,98.9329 209.302,98.9329 211.5,99.5 Z"/></g>
<g><path style="opacity:0.255" fill="#e5895b" d="M 296.5,126.5 C 294.821,126.108 293.154,125.608 291.5,125C 263.167,124.333 234.833,124.333 206.5,125C 204.919,125.707 203.419,126.54 202,127.5C 201.309,131.021 201.809,134.355 203.5,137.5C 199.98,134.422 199.147,130.755 201,126.5C 202.171,125.107 203.671,124.273 205.5,124C 234.833,123.333 264.167,123.333 293.5,124C 295.119,124.236 296.119,125.069 296.5,126.5 Z"/></g>
<g><path style="opacity:1" fill="#e8722b" d="M 296.5,126.5 C 297.765,127.514 298.431,129.014 298.5,131C 298.919,133.981 297.919,136.314 295.5,138C 264.664,138.831 233.997,138.664 203.5,137.5C 201.809,134.355 201.309,131.021 202,127.5C 203.419,126.54 204.919,125.707 206.5,125C 234.833,124.333 263.167,124.333 291.5,125C 293.154,125.608 294.821,126.108 296.5,126.5 Z"/></g>
<g><path style="opacity:0.495" fill="#c97c4f" d="M 298.5,152.5 C 296.394,151.217 294.06,150.384 291.5,150C 261.791,149.183 232.125,149.349 202.5,150.5C 202.611,149.883 202.944,149.383 203.5,149C 233.833,148.333 264.167,148.333 294.5,149C 296.544,149.498 297.878,150.665 298.5,152.5 Z"/></g>
<g><path style="opacity:1" fill="#ea7025" d="M 276.5,158.5 C 276.389,159.117 276.056,159.617 275.5,160C 279.025,160.179 282.359,160.679 285.5,161.5C 260.661,161.169 235.994,161.502 211.5,162.5C 211.245,169.609 210.745,176.942 210,184.5C 209.487,185.527 208.987,186.527 208.5,187.5C 207.833,188.167 207.167,188.833 206.5,189.5C 206.293,185.882 205.293,182.548 203.5,179.5C 204.552,179.649 205.552,179.483 206.5,179C 205.788,176.119 204.122,173.952 201.5,172.5C 202.083,170.998 202.916,169.665 204,168.5C 204.333,169.167 204.667,169.833 205,170.5C 205.499,166.179 205.666,161.846 205.5,157.5C 209.257,157.714 209.924,156.714 207.5,154.5C 210.833,154.167 214.167,153.833 217.5,153.5C 235.47,152.558 253.303,152.225 271,152.5C 276.073,151.58 277.239,152.914 274.5,156.5C 275.243,157.182 275.909,157.849 276.5,158.5 Z"/></g>
<g><path style="opacity:1" fill="#e9722a" d="M 298.5,152.5 C 300.446,153.035 301.446,154.368 301.5,156.5C 301.761,163.538 301.428,170.538 300.5,177.5C 301.079,180.931 302.413,183.931 304.5,186.5C 305.537,187.93 306.204,189.597 306.5,191.5C 306.5,192.833 306.5,194.167 306.5,195.5C 301.725,195.789 301.225,197.455 305,200.5C 305.333,199.167 305.667,197.833 306,196.5C 306.483,197.448 306.649,198.448 306.5,199.5C 307.833,199.5 309.167,199.5 310.5,199.5C 309.222,203.39 307.388,207.057 305,210.5C 303.812,209.437 303.312,208.103 303.5,206.5C 301.282,206.386 299.282,205.72 297.5,204.5C 293.425,199.621 291.091,193.955 290.5,187.5C 290.072,178.838 289.738,170.171 289.5,161.5C 288.167,161.5 286.833,161.5 285.5,161.5C 282.359,160.679 279.025,160.179 275.5,160C 276.056,159.617 276.389,159.117 276.5,158.5C 278.713,158.152 280.713,157.319 282.5,156C 281.167,155.667 279.833,155.333 278.5,155C 284.782,152.555 284.115,151.221 276.5,151C 252.833,150.333 229.167,150.333 205.5,151C 203.246,152.377 201.08,153.877 199,155.5C 198.976,163.409 198.143,171.075 196.5,178.5C 196.334,171.159 196.5,163.826 197,156.5C 198.014,153.656 199.848,151.656 202.5,150.5C 232.125,149.349 261.791,149.183 291.5,150C 294.06,150.384 296.394,151.217 298.5,152.5 Z"/></g>
<g><path style="opacity:1" fill="#ed6f24" d="M 276.5,158.5 C 275.909,157.849 275.243,157.182 274.5,156.5C 277.239,152.914 276.073,151.58 271,152.5C 253.303,152.225 235.47,152.558 217.5,153.5C 214.167,153.833 210.833,154.167 207.5,154.5C 209.924,156.714 209.257,157.714 205.5,157.5C 205.666,161.846 205.499,166.179 205,170.5C 204.667,169.833 204.333,169.167 204,168.5C 202.916,169.665 202.083,170.998 201.5,172.5C 204.122,173.952 205.788,176.119 206.5,179C 205.552,179.483 204.552,179.649 203.5,179.5C 205.293,182.548 206.293,185.882 206.5,189.5C 204.919,193.459 203.419,197.459 202,201.5C 201.751,200.376 201.251,199.376 200.5,198.5C 200.167,198.667 199.833,198.833 199.5,199C 200.517,200.049 200.684,201.216 200,202.5C 198.476,199.39 197.642,196.056 197.5,192.5C 196.5,192.5 195.5,192.5 194.5,192.5C 196.107,188.059 196.774,183.392 196.5,178.5C 198.143,171.075 198.976,163.409 199,155.5C 201.08,153.877 203.246,152.377 205.5,151C 229.167,150.333 252.833,150.333 276.5,151C 284.115,151.221 284.782,152.555 278.5,155C 279.833,155.333 281.167,155.667 282.5,156C 280.713,157.319 278.713,158.152 276.5,158.5 Z"/></g>
<g><path style="opacity:0.966" fill="#dd7f49" d="M 285.5,161.5 C 286.833,161.5 288.167,161.5 289.5,161.5C 289.738,170.171 290.072,178.838 290.5,187.5C 289.732,186.737 289.232,185.737 289,184.5C 287.964,177.201 287.464,169.868 287.5,162.5C 262.49,163.49 237.157,163.49 211.5,162.5C 235.994,161.502 260.661,161.169 285.5,161.5 Z"/></g>
<g><path style="opacity:0.961" fill="#da8757" d="M 301.5,156.5 C 302.004,166.455 303.004,176.455 304.5,186.5C 302.413,183.931 301.079,180.931 300.5,177.5C 301.428,170.538 301.761,163.538 301.5,156.5 Z"/></g>
<g><path style="opacity:1" fill="#e77b3c" d="M 196.5,178.5 C 196.774,183.392 196.107,188.059 194.5,192.5C 195.5,192.5 196.5,192.5 197.5,192.5C 197.642,196.056 198.476,199.39 200,202.5C 200.684,201.216 200.517,200.049 199.5,199C 199.833,198.833 200.167,198.667 200.5,198.5C 201.251,199.376 201.751,200.376 202,201.5C 203.419,197.459 204.919,193.459 206.5,189.5C 207.167,188.833 207.833,188.167 208.5,187.5C 207.568,192.793 205.735,197.793 203,202.5C 198.352,209.638 193.185,216.305 187.5,222.5C 185.93,219.41 184.097,216.41 182,213.5C 181.294,217.679 179.46,218.346 176.5,215.5C 175.479,217.188 174.145,218.521 172.5,219.5C 175.529,213.443 179.529,208.109 184.5,203.5C 187.111,199.049 189.944,194.716 193,190.5C 193.881,186.291 195.047,182.291 196.5,178.5 Z"/></g>
<g><path style="opacity:1" fill="#db8551" d="M 259.5,206.5 C 251.4,203.078 244.067,204.078 237.5,209.5C 238.684,206.151 241.017,203.985 244.5,203C 248.167,202.333 251.833,202.333 255.5,203C 257.319,203.74 258.652,204.907 259.5,206.5 Z"/></g>
<g><path style="opacity:1" fill="#ed7024" d="M 184.5,203.5 C 187.851,202.816 189.851,200.816 190.5,197.5C 192.143,197.52 193.476,196.853 194.5,195.5C 194.833,195.833 195.167,196.167 195.5,196.5C 193.914,198.173 193.247,200.173 193.5,202.5C 195.167,202.5 196.833,202.5 198.5,202.5C 198.5,203.833 198.5,205.167 198.5,206.5C 197.5,206.5 196.5,206.5 195.5,206.5C 195.5,208.167 195.5,209.833 195.5,211.5C 193.833,211.5 192.167,211.5 190.5,211.5C 190.66,213.199 190.494,214.866 190,216.5C 188.13,214.781 185.963,213.781 183.5,213.5C 183.567,211.599 183.233,209.766 182.5,208C 183.414,206.594 184.08,205.094 184.5,203.5 Z"/></g>
<g><path style="opacity:1" fill="#e67a3c" d="M 306.5,191.5 C 309.83,196.463 313.163,201.463 316.5,206.5C 315.115,205.386 313.615,204.386 312,203.5C 310.495,205.298 310.328,207.132 311.5,209C 309.866,209.494 308.199,209.66 306.5,209.5C 306.34,211.199 306.506,212.866 307,214.5C 308.926,216.469 310.092,218.802 310.5,221.5C 305.451,216.412 301.117,210.745 297.5,204.5C 299.282,205.72 301.282,206.386 303.5,206.5C 303.312,208.103 303.812,209.437 305,210.5C 307.388,207.057 309.222,203.39 310.5,199.5C 309.167,199.5 307.833,199.5 306.5,199.5C 306.649,198.448 306.483,197.448 306,196.5C 305.667,197.833 305.333,199.167 305,200.5C 301.225,197.455 301.725,195.789 306.5,195.5C 306.5,194.167 306.5,192.833 306.5,191.5 Z"/></g>
<g><path style="opacity:1" fill="#eb7024" d="M 259.5,206.5 C 259.833,206.5 260.167,206.5 260.5,206.5C 261.457,210.094 262.124,213.76 262.5,217.5C 262.087,222.431 259.754,226.265 255.5,229C 253.634,229.985 251.634,230.485 249.5,230.5C 245.864,229.227 242.198,227.894 238.5,226.5C 237.368,223.321 236.701,219.988 236.5,216.5C 236.637,214.117 236.971,211.783 237.5,209.5C 244.067,204.078 251.4,203.078 259.5,206.5 Z"/></g>
<g><path style="opacity:0.678" fill="#dd9061" d="M 237.5,209.5 C 236.971,211.783 236.637,214.117 236.5,216.5C 236.701,219.988 237.368,223.321 238.5,226.5C 233.834,220.938 233.5,215.271 237.5,209.5 Z"/></g>
<g><path style="opacity:1" fill="#ec7023" d="M 316.5,206.5 C 317.043,210.015 318.043,213.348 319.5,216.5C 320.675,216.281 321.675,216.614 322.5,217.5C 321.509,218.665 320.509,219.832 319.5,221C 319.95,222.285 320.617,223.452 321.5,224.5C 321.631,231.586 319.631,232.086 315.5,226C 316.973,225.29 317.64,224.124 317.5,222.5C 315.167,222.5 312.833,222.5 310.5,222.5C 310.5,222.167 310.5,221.833 310.5,221.5C 310.092,218.802 308.926,216.469 307,214.5C 306.506,212.866 306.34,211.199 306.5,209.5C 308.199,209.66 309.866,209.494 311.5,209C 310.328,207.132 310.495,205.298 312,203.5C 313.615,204.386 315.115,205.386 316.5,206.5 Z"/></g>
<g><path style="opacity:0.914" fill="#db824d" d="M 260.5,206.5 C 267.058,216.272 265.391,224.439 255.5,231C 251.833,231.667 248.167,231.667 244.5,231C 241.986,230.119 239.986,228.619 238.5,226.5C 242.198,227.894 245.864,229.227 249.5,230.5C 251.634,230.485 253.634,229.985 255.5,229C 259.754,226.265 262.087,222.431 262.5,217.5C 262.124,213.76 261.457,210.094 260.5,206.5 Z"/></g>
<g><path style="opacity:1" fill="#ec7023" d="M 187.5,222.5 C 185.459,222.854 183.626,222.854 182,222.5C 181.727,224.329 180.893,225.829 179.5,227C 180.308,227.308 180.975,227.808 181.5,228.5C 180.011,228.533 178.678,229.033 177.5,230C 178.517,231.049 178.684,232.216 178,233.5C 173.139,229.846 171.306,225.179 172.5,219.5C 174.145,218.521 175.479,217.188 176.5,215.5C 179.46,218.346 181.294,217.679 182,213.5C 184.097,216.41 185.93,219.41 187.5,222.5 Z"/></g>
<g><path style="opacity:1" fill="#e57938" d="M 316.5,206.5 C 322.809,213.116 328.143,220.45 332.5,228.5C 331.504,228.586 330.671,228.252 330,227.5C 328.949,224.039 326.949,221.373 324,219.5C 323.655,221.677 324.155,223.677 325.5,225.5C 324.326,228.525 324.993,231.192 327.5,233.5C 325.091,234.722 323.258,234.055 322,231.5C 321.308,232.025 320.808,232.692 320.5,233.5C 321.833,235.167 323.167,236.833 324.5,238.5C 325.325,239.386 326.325,239.719 327.5,239.5C 326.322,242.523 326.322,245.523 327.5,248.5C 322.672,239.329 317.006,230.662 310.5,222.5C 312.833,222.5 315.167,222.5 317.5,222.5C 317.64,224.124 316.973,225.29 315.5,226C 319.631,232.086 321.631,231.586 321.5,224.5C 320.617,223.452 319.95,222.285 319.5,221C 320.509,219.832 321.509,218.665 322.5,217.5C 321.675,216.614 320.675,216.281 319.5,216.5C 318.043,213.348 317.043,210.015 316.5,206.5 Z"/></g>
<g><path style="opacity:1" fill="#e67637" d="M 172.5,219.5 C 171.306,225.179 173.139,229.846 178,233.5C 178.684,232.216 178.517,231.049 177.5,230C 178.678,229.033 180.011,228.533 181.5,228.5C 180.975,227.808 180.308,227.308 179.5,227C 180.893,225.829 181.727,224.329 182,222.5C 183.626,222.854 185.459,222.854 187.5,222.5C 181.891,230.733 176.558,239.067 171.5,247.5C 171.357,245.738 171.691,244.071 172.5,242.5C 169.638,241.694 169.138,240.361 171,238.5C 171.71,239.973 172.876,240.64 174.5,240.5C 173.828,237.356 172.828,234.356 171.5,231.5C 168.671,231.325 167.004,232.658 166.5,235.5C 165.808,234.975 165.308,234.308 165,233.5C 163.938,236.341 162.604,239.008 161,241.5C 160.292,242.381 159.458,243.047 158.5,243.5C 161.217,236.997 164.383,230.664 168,224.5C 169.049,222.382 170.549,220.716 172.5,219.5 Z"/></g>
<g><path style="opacity:1" fill="#eb6f25" d="M 332.5,228.5 C 332.449,230.57 333.115,232.403 334.5,234C 333.756,236.155 332.756,238.155 331.5,240C 331.833,240.5 332.167,241 332.5,241.5C 334.367,238.771 335.367,239.104 335.5,242.5C 339.068,242.759 340.401,244.759 339.5,248.5C 338.776,250.218 338.109,252.052 337.5,254C 338.167,254.667 338.833,255.333 339.5,256C 339.264,260.354 337.764,264.188 335,267.5C 334.333,270.167 334.333,272.833 335,275.5C 335.249,274.376 335.749,273.376 336.5,272.5C 336.833,273 337.167,273.5 337.5,274C 335.509,277.751 336.509,280.085 340.5,281C 339.594,283.447 338.761,285.947 338,288.5C 337.667,295.5 337.333,302.5 337,309.5C 336.167,310.5 335.333,311.5 334.5,312.5C 332.872,311.465 331.205,311.465 329.5,312.5C 329.394,309.921 330.061,307.588 331.5,305.5C 332.776,303.438 333.61,301.104 334,298.5C 334.82,291.986 334.653,285.653 333.5,279.5C 333.5,276.833 333.5,274.167 333.5,271.5C 333.259,264.462 331.926,257.628 329.5,251C 329.164,249.97 328.497,249.47 327.5,249.5C 327.5,249.167 327.5,248.833 327.5,248.5C 326.322,245.523 326.322,242.523 327.5,239.5C 326.325,239.719 325.325,239.386 324.5,238.5C 323.167,236.833 321.833,235.167 320.5,233.5C 320.808,232.692 321.308,232.025 322,231.5C 323.258,234.055 325.091,234.722 327.5,233.5C 324.993,231.192 324.326,228.525 325.5,225.5C 324.155,223.677 323.655,221.677 324,219.5C 326.949,221.373 328.949,224.039 330,227.5C 330.671,228.252 331.504,228.586 332.5,228.5 Z"/></g>
<g><path style="opacity:0.875" fill="#df8350" d="M 257.5,246.5 C 253.193,243.514 248.527,242.847 243.5,244.5C 243.392,246.783 242.559,248.783 241,250.5C 240.825,255.019 240.325,259.353 239.5,263.5C 239.334,258.489 239.501,253.489 240,248.5C 242.511,242.343 247.011,240.176 253.5,242C 255.751,242.748 257.084,244.248 257.5,246.5 Z"/></g>
<g><path style="opacity:1" fill="#ec7024" d="M 171.5,247.5 C 171.5,247.833 171.5,248.167 171.5,248.5C 170.163,249.315 169.163,250.482 168.5,252C 167.552,252.483 166.552,252.649 165.5,252.5C 165.67,254.848 166.003,257.182 166.5,259.5C 162.631,275.528 162.631,291.528 166.5,307.5C 167.135,310.493 167.301,313.493 167,316.5C 166.333,315.833 165.667,315.167 165,314.5C 162.725,318.941 160.225,319.274 157.5,315.5C 156.548,313.955 156.215,312.288 156.5,310.5C 157.5,310.5 158.5,310.5 159.5,310.5C 159.162,308.146 158.662,305.813 158,303.5C 156.989,302.663 155.822,302.33 154.5,302.5C 154.784,304.415 154.451,306.081 153.5,307.5C 152.405,294.831 152.405,282.164 153.5,269.5C 155.386,260.848 157.053,252.182 158.5,243.5C 159.458,243.047 160.292,242.381 161,241.5C 162.604,239.008 163.938,236.341 165,233.5C 165.308,234.308 165.808,234.975 166.5,235.5C 167.004,232.658 168.671,231.325 171.5,231.5C 172.828,234.356 173.828,237.356 174.5,240.5C 172.876,240.64 171.71,239.973 171,238.5C 169.138,240.361 169.638,241.694 172.5,242.5C 171.691,244.071 171.357,245.738 171.5,247.5 Z"/></g>
<g><path style="opacity:0.806" fill="#dc804a" d="M 327.5,249.5 C 328.497,249.47 329.164,249.97 329.5,251C 331.926,257.628 333.259,264.462 333.5,271.5C 331.722,264.156 329.722,256.823 327.5,249.5 Z"/></g>
<g><path style="opacity:1" fill="#eb7025" d="M 257.5,246.5 C 257.292,262.455 258.626,278.122 261.5,293.5C 261.5,294.167 261.5,294.833 261.5,295.5C 261.334,301.509 261.501,307.509 262,313.5C 262.21,315.058 262.71,316.391 263.5,317.5C 264.59,320.985 264.59,324.319 263.5,327.5C 262.31,329.826 260.31,330.993 257.5,331C 260.028,331.998 260.028,332.831 257.5,333.5C 254.139,331.965 250.806,330.799 247.5,330C 246.289,330.893 246.289,331.726 247.5,332.5C 250.056,333.051 252.389,334.051 254.5,335.5C 253.833,335.833 253.167,336.167 252.5,336.5C 249.13,335.865 245.797,335.532 242.5,335.5C 240.522,332.57 238.689,329.57 237,326.5C 236.5,318.507 236.334,310.507 236.5,302.5C 236.76,296.828 237.093,291.161 237.5,285.5C 238.222,285.082 238.722,284.416 239,283.5C 239.499,277.509 239.666,271.509 239.5,265.5C 239.5,264.833 239.5,264.167 239.5,263.5C 240.325,259.353 240.825,255.019 241,250.5C 242.559,248.783 243.392,246.783 243.5,244.5C 248.527,242.847 253.193,243.514 257.5,246.5 Z"/></g>
<g><path style="opacity:1" fill="#df824c" d="M 257.5,246.5 C 258.222,246.918 258.722,247.584 259,248.5C 259.587,263.523 260.42,278.523 261.5,293.5C 258.626,278.122 257.292,262.455 257.5,246.5 Z"/></g>
<g><path style="opacity:0.447" fill="#d68251" d="M 239.5,265.5 C 239.666,271.509 239.499,277.509 239,283.5C 238.722,284.416 238.222,285.082 237.5,285.5C 237.397,278.614 238.064,271.947 239.5,265.5 Z"/></g>
<g><path style="opacity:0.502" fill="#d67a46" d="M 368.5,277.5 C 379.659,276.341 390.992,276.174 402.5,277C 407.779,280.291 408.445,284.124 404.5,288.5C 404.817,285.428 404.484,282.428 403.5,279.5C 402.205,278.902 400.872,278.402 399.5,278C 389.172,277.5 378.839,277.334 368.5,277.5 Z"/></g>
<g><path style="opacity:0.998" fill="#da763b" d="M 158.5,243.5 C 157.053,252.182 155.386,260.848 153.5,269.5C 152.405,282.164 152.405,294.831 153.5,307.5C 149.534,289.961 149.7,272.295 154,254.5C 155.057,250.551 156.557,246.884 158.5,243.5 Z"/></g>
<g><path style="opacity:0.333" fill="#da7941" d="M 171.5,248.5 C 165.31,264.667 163.477,281.333 166,298.5C 167.107,302.88 168.274,307.213 169.5,311.5C 168.143,310.41 167.143,309.076 166.5,307.5C 162.631,291.528 162.631,275.528 166.5,259.5C 166.003,257.182 165.67,254.848 165.5,252.5C 166.552,252.649 167.552,252.483 168.5,252C 169.163,250.482 170.163,249.315 171.5,248.5 Z"/></g>
<g><path style="opacity:1" fill="#ed7023" d="M 339.5,248.5 C 340.885,257.307 341.885,266.307 342.5,275.5C 343.338,271.033 343.672,266.7 343.5,262.5C 347.907,279.579 347.407,296.579 342,313.5C 340.594,314.668 339.428,314.335 338.5,312.5C 337.52,313.981 336.353,315.315 335,316.5C 335.698,322.509 335.532,328.509 334.5,334.5C 331.478,334.572 329.312,333.238 328,330.5C 322.221,340.331 320.721,339.831 323.5,329C 325.861,328.803 327.528,327.636 328.5,325.5C 329.167,326.5 329.833,327.5 330.5,328.5C 331.578,325.893 330.911,323.726 328.5,322C 329.448,321.517 330.448,321.351 331.5,321.5C 330.833,318.5 330.167,315.5 329.5,312.5C 331.205,311.465 332.872,311.465 334.5,312.5C 335.333,311.5 336.167,310.5 337,309.5C 337.333,302.5 337.667,295.5 338,288.5C 338.761,285.947 339.594,283.447 340.5,281C 336.509,280.085 335.509,277.751 337.5,274C 337.167,273.5 336.833,273 336.5,272.5C 335.749,273.376 335.249,274.376 335,275.5C 334.333,272.833 334.333,270.167 335,267.5C 337.764,264.188 339.264,260.354 339.5,256C 338.833,255.333 338.167,254.667 337.5,254C 338.109,252.052 338.776,250.218 339.5,248.5 Z"/></g>
<g><path style="opacity:1" fill="#ea7026" d="M 368.5,277.5 C 378.839,277.334 389.172,277.5 399.5,278C 400.872,278.402 402.205,278.902 403.5,279.5C 404.484,282.428 404.817,285.428 404.5,288.5C 404.5,289.167 404.167,289.5 403.5,289.5C 390.784,289.795 378.117,289.462 365.5,288.5C 363.615,286.205 363.115,283.538 364,280.5C 364.908,278.561 366.408,277.561 368.5,277.5 Z"/></g>
<g><path style="opacity:1" fill="#e08857" d="M 95.5,278.5 C 95.9175,277.778 96.5842,277.278 97.5,277C 108.833,276.333 120.167,276.333 131.5,277C 135.696,279.981 136.529,283.814 134,288.5C 132.829,289.893 131.329,290.727 129.5,291C 119.167,291.667 108.833,291.667 98.5,291C 94.5035,290.164 92.5035,287.664 92.5,283.5C 92.7573,281.308 93.7573,279.641 95.5,278.5 Z"/></g>
<g><path style="opacity:1" fill="#ec7023" d="M 95.5,278.5 C 107.532,277.001 119.532,277.168 131.5,279C 135.255,281.13 135.255,283.13 131.5,285C 132.337,286.011 132.67,287.178 132.5,288.5C 120.149,288.832 107.815,288.499 95.5,287.5C 94.2763,284.505 94.2763,281.505 95.5,278.5 Z"/></g>
<g><path style="opacity:0.53" fill="#dfa585" d="M 365.5,288.5 C 378.117,289.462 390.784,289.795 403.5,289.5C 402.737,290.268 401.737,290.768 400.5,291C 390.964,291.104 381.631,291.27 372.5,291.5C 369.708,291.239 367.375,290.239 365.5,288.5 Z"/></g>
<g><path style="opacity:0.241" fill="#e38958" d="M 333.5,279.5 C 334.653,285.653 334.82,291.986 334,298.5C 333.61,301.104 332.776,303.438 331.5,305.5C 333.198,296.944 333.865,288.278 333.5,279.5 Z"/></g>
<g><path style="opacity:0.949" fill="#dc804f" d="M 261.5,295.5 C 262.928,302.62 263.594,309.953 263.5,317.5C 262.71,316.391 262.21,315.058 262,313.5C 261.501,307.509 261.334,301.509 261.5,295.5 Z"/></g>
<g><path style="opacity:1" fill="#e57b38" d="M 332.5,228.5 C 343.435,245.673 348.768,264.673 348.5,285.5C 348.602,303.402 343.935,319.736 334.5,334.5C 335.532,328.509 335.698,322.509 335,316.5C 336.353,315.315 337.52,313.981 338.5,312.5C 339.428,314.335 340.594,314.668 342,313.5C 347.407,296.579 347.907,279.579 343.5,262.5C 343.672,266.7 343.338,271.033 342.5,275.5C 341.885,266.307 340.885,257.307 339.5,248.5C 340.401,244.759 339.068,242.759 335.5,242.5C 335.367,239.104 334.367,238.771 332.5,241.5C 332.167,241 331.833,240.5 331.5,240C 332.756,238.155 333.756,236.155 334.5,234C 333.115,232.403 332.449,230.57 332.5,228.5 Z"/></g>
<g><path style="opacity:1" fill="#eb7228" d="M 166.5,307.5 C 167.143,309.076 168.143,310.41 169.5,311.5C 170.833,315.167 172.167,318.833 173.5,322.5C 173.343,323.873 173.51,325.207 174,326.5C 175.572,329.692 177.405,332.692 179.5,335.5C 179.179,337.048 178.179,337.715 176.5,337.5C 178.167,342.5 176.5,344.167 171.5,342.5C 171.5,341.167 171.5,339.833 171.5,338.5C 168.233,337.224 165.566,335.224 163.5,332.5C 160.534,328.117 158.034,323.45 156,318.5C 154.85,314.888 154.017,311.222 153.5,307.5C 154.451,306.081 154.784,304.415 154.5,302.5C 155.822,302.33 156.989,302.663 158,303.5C 158.662,305.813 159.162,308.146 159.5,310.5C 158.5,310.5 157.5,310.5 156.5,310.5C 156.215,312.288 156.548,313.955 157.5,315.5C 160.225,319.274 162.725,318.941 165,314.5C 165.667,315.167 166.333,315.833 167,316.5C 167.301,313.493 167.135,310.493 166.5,307.5 Z"/></g>
<g><path style="opacity:1" fill="#e67f42" d="M 236.5,302.5 C 236.334,310.507 236.5,318.507 237,326.5C 238.689,329.57 240.522,332.57 242.5,335.5C 245.797,335.532 249.13,335.865 252.5,336.5C 253.167,336.167 253.833,335.833 254.5,335.5C 252.389,334.051 250.056,333.051 247.5,332.5C 246.289,331.726 246.289,330.893 247.5,330C 250.806,330.799 254.139,331.965 257.5,333.5C 260.028,332.831 260.028,331.998 257.5,331C 260.31,330.993 262.31,329.826 263.5,327.5C 262.96,333.212 259.96,337.046 254.5,339C 241.967,341.142 235.3,335.809 234.5,323C 235.033,316.003 235.7,309.17 236.5,302.5 Z"/></g>
<g><path style="opacity:1" fill="#e2844d" d="M 173.5,322.5 C 176.485,327.125 179.485,331.792 182.5,336.5C 181.609,335.89 180.609,335.557 179.5,335.5C 177.405,332.692 175.572,329.692 174,326.5C 173.51,325.207 173.343,323.873 173.5,322.5 Z"/></g>
<g><path style="opacity:1" fill="#e87631" d="M 329.5,312.5 C 330.167,315.5 330.833,318.5 331.5,321.5C 330.448,321.351 329.448,321.517 328.5,322C 330.911,323.726 331.578,325.893 330.5,328.5C 329.833,327.5 329.167,326.5 328.5,325.5C 327.528,327.636 325.861,328.803 323.5,329C 320.721,339.831 322.221,340.331 328,330.5C 329.312,333.238 331.478,334.572 334.5,334.5C 328.598,344.071 321.264,352.404 312.5,359.5C 311.522,352.879 307.855,349.879 301.5,350.5C 314.276,340.245 323.609,327.578 329.5,312.5 Z"/></g>
<g><path style="opacity:1" fill="#eb7025" d="M 195.5,366.5 C 193.878,365.878 192.545,364.878 191.5,363.5C 190.301,361.615 188.967,359.782 187.5,358C 187.645,357.228 187.978,356.561 188.5,356C 186.945,354.354 185.279,354.021 183.5,355C 183.273,353.865 182.94,352.698 182.5,351.5C 180.538,352.854 179.538,352.187 179.5,349.5C 180.068,347.631 180.734,345.797 181.5,344C 181.156,342.635 180.489,341.468 179.5,340.5C 179.887,339.28 180.72,338.613 182,338.5C 185.229,339.728 186.896,342.061 187,345.5C 188.243,344.664 189.41,344.997 190.5,346.5C 188.007,348.248 188.173,349.914 191,351.5C 192,351.167 193,350.833 194,350.5C 194.5,351.667 195.333,352.5 196.5,353C 196.167,353.333 195.833,353.667 195.5,354C 203.171,354.45 204.171,356.95 198.5,361.5C 199.167,361.833 199.833,362.167 200.5,362.5C 202.211,361.419 203.711,360.085 205,358.5C 206.921,360.003 209.088,360.669 211.5,360.5C 211.485,365.15 213.485,368.484 217.5,370.5C 217.038,372.291 215.871,373.291 214,373.5C 210.644,373.037 207.478,372.037 204.5,370.5C 205.167,369.5 205.833,368.5 206.5,367.5C 206,367.167 205.5,366.833 205,366.5C 203.908,367.296 202.741,367.963 201.5,368.5C 199.666,367.246 197.666,366.579 195.5,366.5 Z"/></g>
<g><path style="opacity:1" fill="#ec7027" d="M 312.5,359.5 C 309.72,359.945 307.053,359.945 304.5,359.5C 304.167,359.167 303.833,358.833 303.5,358.5C 305.915,356.991 306.081,355.324 304,353.5C 301.797,355.669 300.964,358.335 301.5,361.5C 302.978,361.238 304.311,361.571 305.5,362.5C 305.291,363.086 304.957,363.586 304.5,364C 302.833,364.333 301.167,364.667 299.5,365C 300.888,365.889 300.722,366.389 299,366.5C 296.479,365.327 293.979,365.327 291.5,366.5C 292.04,367.748 292.707,368.915 293.5,370C 289.065,372.314 284.398,374.147 279.5,375.5C 277.668,376.057 276.335,377.057 275.5,378.5C 273.143,378.663 270.81,378.497 268.5,378C 269.833,377.333 271.167,376.667 272.5,376C 270.333,375.833 268.167,375.667 266,375.5C 261.795,375.72 257.962,376.72 254.5,378.5C 252.077,378.406 249.744,377.906 247.5,377C 253.609,375.956 259.609,374.622 265.5,373C 268.429,372.223 271.263,372.39 274,373.5C 275.188,372.437 275.688,371.103 275.5,369.5C 283.398,369.114 283.398,368.114 275.5,366.5C 275.709,365.914 276.043,365.414 276.5,365C 279.514,364.872 282.514,364.872 285.5,365C 283.574,364.578 282.574,363.411 282.5,361.5C 289.023,358.344 295.356,354.677 301.5,350.5C 307.855,349.879 311.522,352.879 312.5,359.5 Z"/></g>
<g><path style="opacity:0.999" fill="#e07e44" d="M 356.5,380.5 C 355.417,380.461 354.417,380.127 353.5,379.5C 352.667,380.5 351.833,381.5 351,382.5C 350.667,380.5 350.333,378.5 350,376.5C 348.601,375.773 347.101,375.273 345.5,375C 346.357,374.311 347.023,373.478 347.5,372.5C 344.911,368.735 341.411,366.402 337,365.5C 335.105,365.615 333.438,366.282 332,367.5C 331.404,370.686 331.904,373.686 333.5,376.5C 329.748,374.286 328.581,370.953 330,366.5C 332.707,362.965 336.207,361.798 340.5,363C 346.09,368.75 351.423,374.583 356.5,380.5 Z"/></g>
<g><path style="opacity:1" fill="#e4793a" d="M 312.5,359.5 C 302.016,369.243 289.683,375.576 275.5,378.5C 276.335,377.057 277.668,376.057 279.5,375.5C 284.398,374.147 289.065,372.314 293.5,370C 292.707,368.915 292.04,367.748 291.5,366.5C 293.979,365.327 296.479,365.327 299,366.5C 300.722,366.389 300.888,365.889 299.5,365C 301.167,364.667 302.833,364.333 304.5,364C 304.957,363.586 305.291,363.086 305.5,362.5C 304.311,361.571 302.978,361.238 301.5,361.5C 300.964,358.335 301.797,355.669 304,353.5C 306.081,355.324 305.915,356.991 303.5,358.5C 303.833,358.833 304.167,359.167 304.5,359.5C 307.053,359.945 309.72,359.945 312.5,359.5 Z"/></g>
<g><path style="opacity:0.864" fill="#d97a3f" d="M 274.5,364.5 C 260.38,370.229 246.047,370.896 231.5,366.5C 245.995,368.281 260.328,367.614 274.5,364.5 Z"/></g>
<g><path style="opacity:1" fill="#e47737" d="M 163.5,332.5 C 165.566,335.224 168.233,337.224 171.5,338.5C 171.5,339.833 171.5,341.167 171.5,342.5C 176.5,344.167 178.167,342.5 176.5,337.5C 178.179,337.715 179.179,337.048 179.5,335.5C 180.609,335.557 181.609,335.89 182.5,336.5C 190.816,345.321 200.149,352.821 210.5,359C 217.587,361.637 224.587,364.137 231.5,366.5C 229.5,366.5 227.5,366.5 225.5,366.5C 225.762,367.978 225.429,369.311 224.5,370.5C 222.5,371.833 220.833,373.5 219.5,375.5C 224.42,376.393 229.086,377.893 233.5,380C 244.161,380.5 254.828,380.667 265.5,380.5C 264.391,381.29 263.058,381.79 261.5,382C 244.652,384.008 228.319,382.008 212.5,376C 206.202,373.848 200.535,370.681 195.5,366.5C 197.666,366.579 199.666,367.246 201.5,368.5C 202.741,367.963 203.908,367.296 205,366.5C 205.5,366.833 206,367.167 206.5,367.5C 205.833,368.5 205.167,369.5 204.5,370.5C 207.478,372.037 210.644,373.037 214,373.5C 215.871,373.291 217.038,372.291 217.5,370.5C 213.485,368.484 211.485,365.15 211.5,360.5C 209.088,360.669 206.921,360.003 205,358.5C 203.711,360.085 202.211,361.419 200.5,362.5C 199.833,362.167 199.167,361.833 198.5,361.5C 204.171,356.95 203.171,354.45 195.5,354C 195.833,353.667 196.167,353.333 196.5,353C 195.333,352.5 194.5,351.667 194,350.5C 193,350.833 192,351.167 191,351.5C 188.173,349.914 188.007,348.248 190.5,346.5C 189.41,344.997 188.243,344.664 187,345.5C 186.896,342.061 185.229,339.728 182,338.5C 180.72,338.613 179.887,339.28 179.5,340.5C 180.489,341.468 181.156,342.635 181.5,344C 180.734,345.797 180.068,347.631 179.5,349.5C 179.538,352.187 180.538,352.854 182.5,351.5C 182.94,352.698 183.273,353.865 183.5,355C 185.279,354.021 186.945,354.354 188.5,356C 187.978,356.561 187.645,357.228 187.5,358C 188.967,359.782 190.301,361.615 191.5,363.5C 179.333,355.67 170,345.336 163.5,332.5 Z"/></g>
<g><path style="opacity:1" fill="#eb7026" d="M 135.5,396.5 C 132.777,388.214 135.777,383.547 144.5,382.5C 143.35,379.442 144.017,376.775 146.5,374.5C 149.47,370.528 152.804,366.862 156.5,363.5C 159.896,362.07 162.896,362.737 165.5,365.5C 166.485,367.098 166.651,368.765 166,370.5C 164.293,369.862 162.46,369.862 160.5,370.5C 157.067,375.177 153.734,380.01 150.5,385C 151.337,386.011 151.67,387.178 151.5,388.5C 149.801,388.34 148.134,388.506 146.5,389C 146.957,389.414 147.291,389.914 147.5,390.5C 146.726,391.711 145.893,391.711 145,390.5C 144.781,391.938 144.281,393.271 143.5,394.5C 142.369,393.249 141.036,392.249 139.5,391.5C 137.167,391.833 136.833,392.833 138.5,394.5C 139.729,395.281 141.062,395.781 142.5,396C 140.19,396.497 137.857,396.663 135.5,396.5 Z"/></g>
<g><path style="opacity:1" fill="#ec7025" d="M 356.5,380.5 C 359.145,381.812 361.145,383.812 362.5,386.5C 363.379,388.228 364.046,390.061 364.5,392C 364.057,393.825 363.723,395.658 363.5,397.5C 361.076,397.808 358.743,397.474 356.5,396.5C 358.727,393.381 357.727,392.714 353.5,394.5C 353.003,392.784 352.669,391.117 352.5,389.5C 351.749,390.376 351.249,391.376 351,392.5C 348.878,390.244 346.378,388.577 343.5,387.5C 342.82,384.938 342.653,382.271 343,379.5C 340.087,382.133 338.254,381.467 337.5,377.5C 336.167,377.5 334.833,377.5 333.5,377.5C 333.5,377.167 333.5,376.833 333.5,376.5C 331.904,373.686 331.404,370.686 332,367.5C 333.438,366.282 335.105,365.615 337,365.5C 341.411,366.402 344.911,368.735 347.5,372.5C 347.023,373.478 346.357,374.311 345.5,375C 347.101,375.273 348.601,375.773 350,376.5C 350.333,378.5 350.667,380.5 351,382.5C 351.833,381.5 352.667,380.5 353.5,379.5C 354.417,380.127 355.417,380.461 356.5,380.5 Z"/></g>
<g><path style="opacity:1" fill="#e7793b" d="M 135.5,396.5 C 137.857,396.663 140.19,396.497 142.5,396C 141.062,395.781 139.729,395.281 138.5,394.5C 136.833,392.833 137.167,391.833 139.5,391.5C 141.036,392.249 142.369,393.249 143.5,394.5C 144.281,393.271 144.781,391.938 145,390.5C 145.893,391.711 146.726,391.711 147.5,390.5C 147.291,389.914 146.957,389.414 146.5,389C 148.134,388.506 149.801,388.34 151.5,388.5C 151.67,387.178 151.337,386.011 150.5,385C 153.734,380.01 157.067,375.177 160.5,370.5C 162.46,369.862 164.293,369.862 166,370.5C 166.651,368.765 166.485,367.098 165.5,365.5C 162.896,362.737 159.896,362.07 156.5,363.5C 159.187,361.026 162.187,360.859 165.5,363C 168.472,365.861 169.139,369.194 167.5,373C 160.134,380.698 152.8,388.365 145.5,396C 142.137,398.991 138.804,399.157 135.5,396.5 Z"/></g>
<g><path style="opacity:1" fill="#eb7126" d="M 282.5,361.5 C 282.574,363.411 283.574,364.578 285.5,365C 282.514,364.872 279.514,364.872 276.5,365C 276.043,365.414 275.709,365.914 275.5,366.5C 283.398,368.114 283.398,369.114 275.5,369.5C 275.688,371.103 275.188,372.437 274,373.5C 271.263,372.39 268.429,372.223 265.5,373C 259.609,374.622 253.609,375.956 247.5,377C 249.744,377.906 252.077,378.406 254.5,378.5C 257.962,376.72 261.795,375.72 266,375.5C 268.167,375.667 270.333,375.833 272.5,376C 271.167,376.667 269.833,377.333 268.5,378C 270.81,378.497 273.143,378.663 275.5,378.5C 272.493,380.175 269.16,380.841 265.5,380.5C 254.828,380.667 244.161,380.5 233.5,380C 229.086,377.893 224.42,376.393 219.5,375.5C 220.833,373.5 222.5,371.833 224.5,370.5C 225.429,369.311 225.762,367.978 225.5,366.5C 227.5,366.5 229.5,366.5 231.5,366.5C 246.047,370.896 260.38,370.229 274.5,364.5C 276.936,363.129 279.603,362.129 282.5,361.5 Z"/></g>
<g><path style="opacity:1" fill="#e3844a" d="M 333.5,377.5 C 334.833,377.5 336.167,377.5 337.5,377.5C 338.254,381.467 340.087,382.133 343,379.5C 342.653,382.271 342.82,384.938 343.5,387.5C 339.806,384.473 336.473,381.14 333.5,377.5 Z"/></g>
<g><path style="opacity:1" fill="#e47c40" d="M 146.5,374.5 C 144.017,376.775 143.35,379.442 144.5,382.5C 135.777,383.547 132.777,388.214 135.5,396.5C 132.764,394.142 131.93,391.142 133,387.5C 136.73,382.269 141.23,377.935 146.5,374.5 Z"/></g>
<g><path style="opacity:0.165" fill="#e7ad92" d="M 246.5,395.5 C 247.274,394.853 248.274,394.52 249.5,394.5C 251.355,394.34 252.688,395.007 253.5,396.5C 251.236,395.781 248.903,395.448 246.5,395.5 Z"/></g>
<g><path style="opacity:1" fill="#de773d" d="M 362.5,386.5 C 367.389,390.241 367.723,394.408 363.5,399C 360.97,400.422 358.303,400.755 355.5,400C 351.269,395.938 347.269,391.771 343.5,387.5C 346.378,388.577 348.878,390.244 351,392.5C 351.249,391.376 351.749,390.376 352.5,389.5C 352.669,391.117 353.003,392.784 353.5,394.5C 357.727,392.714 358.727,393.381 356.5,396.5C 358.743,397.474 361.076,397.808 363.5,397.5C 363.723,395.658 364.057,393.825 364.5,392C 364.046,390.061 363.379,388.228 362.5,386.5 Z"/></g>
<g><path style="opacity:1" fill="#df8141" d="M 246.5,395.5 C 248.903,395.448 251.236,395.781 253.5,396.5C 255.614,397.36 256.78,399.027 257,401.5C 257.667,412.167 257.667,422.833 257,433.5C 252.714,440.838 248.048,441.171 243,434.5C 242.333,422.5 242.333,410.5 243,398.5C 243.417,397.244 244.25,396.577 245.5,396.5C 245.5,395.833 245.833,395.5 246.5,395.5 Z"/></g>
<g><path style="opacity:1" fill="#ec7024" d="M 245.5,396.5 C 246.833,396.5 248.167,396.5 249.5,396.5C 249.579,397.93 249.246,399.264 248.5,400.5C 250.396,401.466 252.396,401.799 254.5,401.5C 255.13,412.59 254.463,423.423 252.5,434C 252.957,434.414 253.291,434.914 253.5,435.5C 250.527,436.509 247.527,436.509 244.5,435.5C 243.501,423.85 243.334,412.183 244,400.5C 244.41,399.099 244.91,397.766 245.5,396.5 Z"/></g>
</svg>
