<?xml version="1.0" encoding="UTF-8"?>
<!DOCTYPE svg PUBLIC "-//W3C//DTD SVG 1.1//EN" "http://www.w3.org/Graphics/SVG/1.1/DTD/svg11.dtd">
<svg xmlns="http://www.w3.org/2000/svg" version="1.1" width="500px" height="500px" style="shape-rendering:geometricPrecision; text-rendering:geometricPrecision; image-rendering:optimizeQuality; fill-rule:evenodd; clip-rule:evenodd" xmlns:xlink="http://www.w3.org/1999/xlink">
<g><path style="opacity:0.999" fill="#3d6595" d="M 373.5,118.5 C 371.856,118.286 370.356,118.62 369,119.5C 368.125,115.393 366.291,114.727 363.5,117.5C 364.668,118.906 364.335,120.072 362.5,121C 360.167,121.333 357.833,121.667 355.5,122C 361.833,126.333 368.167,130.667 374.5,135C 375.598,135.77 375.598,136.603 374.5,137.5C 349.295,119.555 321.295,113.389 290.5,119C 279.48,121.495 269.48,125.995 260.5,132.5C 257.495,132.25 255.662,133.583 255,136.5C 254.056,135.737 253.556,134.737 253.5,133.5C 254.423,132.164 254.923,130.83 255,129.5C 254.667,129.833 254.333,130.167 254,130.5C 252.648,128.568 250.815,127.234 248.5,126.5C 250.771,125.264 252.605,123.597 254,121.5C 256.501,124.185 258.334,123.685 259.5,120C 259.167,119.667 258.833,119.333 258.5,119C 261.271,115.118 264.937,113.118 269.5,113C 267.205,113.984 267.539,114.817 270.5,115.5C 271.842,113.995 273.508,113.328 275.5,113.5C 275.719,112.325 275.386,111.325 274.5,110.5C 273.604,111.506 272.938,111.506 272.5,110.5C 274.363,109.311 276.03,107.978 277.5,106.5C 282.823,104.224 288.489,102.724 294.5,102C 316.578,99.3087 337.911,101.975 358.5,110C 363.904,112.264 368.904,115.098 373.5,118.5 Z"/></g>
<g><path style="opacity:1" fill="#416793" d="M 153.5,148.5 C 153.586,147.504 153.252,146.671 152.5,146C 150.956,145.71 149.623,145.044 148.5,144C 152.148,143.938 155.815,144.105 159.5,144.5C 159.45,142.41 160.45,141.077 162.5,140.5C 165.647,141.975 168.647,141.808 171.5,140C 170.552,139.517 169.552,139.351 168.5,139.5C 168.281,138.325 168.614,137.325 169.5,136.5C 172.056,135.949 174.389,134.949 176.5,133.5C 179.278,136.307 182.611,137.14 186.5,136C 184.734,134.302 182.734,132.969 180.5,132C 184.5,131.333 188.5,130.667 192.5,130C 191.072,124.949 187.739,122.949 182.5,124C 180.697,126.103 178.364,126.936 175.5,126.5C 175.5,127.5 175.5,128.5 175.5,129.5C 178.797,129.329 179.131,129.995 176.5,131.5C 174.868,130.703 173.368,129.703 172,128.5C 167.333,128.305 164.166,130.305 162.5,134.5C 160.802,135.681 159.135,135.681 157.5,134.5C 158.5,133.833 159.5,133.167 160.5,132.5C 159.833,132.167 159.167,131.833 158.5,131.5C 156.028,132.992 153.361,133.658 150.5,133.5C 165.8,127.426 181.466,122.092 197.5,117.5C 203.967,118.428 206.467,122.095 205,128.5C 204.535,129.931 203.701,131.097 202.5,132C 186.141,137.517 169.808,143.017 153.5,148.5 Z"/></g>
<g><path style="opacity:1" fill="#3c6595" d="M 373.5,118.5 C 391.863,129.698 406.363,144.698 417,163.5C 418.966,167.712 420.466,172.046 421.5,176.5C 419.584,174.884 418.084,175.218 417,177.5C 412.706,177.546 409.872,175.546 408.5,171.5C 408.167,172.5 407.833,173.5 407.5,174.5C 409.428,181.455 411.262,188.455 413,195.5C 413.805,198.696 413.638,201.696 412.5,204.5C 410.465,185.904 403.632,169.237 392,154.5C 386.602,148.267 380.769,142.601 374.5,137.5C 375.598,136.603 375.598,135.77 374.5,135C 368.167,130.667 361.833,126.333 355.5,122C 357.833,121.667 360.167,121.333 362.5,121C 364.335,120.072 364.668,118.906 363.5,117.5C 366.291,114.727 368.125,115.393 369,119.5C 370.356,118.62 371.856,118.286 373.5,118.5 Z"/></g>
<g><path style="opacity:1" fill="#376294" d="M 153.5,148.5 C 151.958,149.301 150.292,149.634 148.5,149.5C 145.15,149.335 141.817,149.502 138.5,150C 129.82,156.102 121.154,157.769 112.5,155C 107.285,156.882 101.952,158.548 96.5,160C 96.1667,160.333 95.8333,160.667 95.5,161C 98.8333,161.333 102.167,161.667 105.5,162C 103.224,163.364 100.724,164.197 98,164.5C 92.5337,162.594 87.0337,160.761 81.5,159C 83.3844,157.951 84.7177,156.451 85.5,154.5C 106.978,147.279 128.645,140.279 150.5,133.5C 153.361,133.658 156.028,132.992 158.5,131.5C 159.167,131.833 159.833,132.167 160.5,132.5C 159.5,133.167 158.5,133.833 157.5,134.5C 159.135,135.681 160.802,135.681 162.5,134.5C 164.166,130.305 167.333,128.305 172,128.5C 173.368,129.703 174.868,130.703 176.5,131.5C 179.131,129.995 178.797,129.329 175.5,129.5C 175.5,128.5 175.5,127.5 175.5,126.5C 178.364,126.936 180.697,126.103 182.5,124C 187.739,122.949 191.072,124.949 192.5,130C 188.5,130.667 184.5,131.333 180.5,132C 182.734,132.969 184.734,134.302 186.5,136C 182.611,137.14 179.278,136.307 176.5,133.5C 174.389,134.949 172.056,135.949 169.5,136.5C 168.614,137.325 168.281,138.325 168.5,139.5C 169.552,139.351 170.552,139.517 171.5,140C 168.647,141.808 165.647,141.975 162.5,140.5C 160.45,141.077 159.45,142.41 159.5,144.5C 155.815,144.105 152.148,143.938 148.5,144C 149.623,145.044 150.956,145.71 152.5,146C 153.252,146.671 153.586,147.504 153.5,148.5 Z"/></g>
<g><path style="opacity:1" fill="#3e6594" d="M 277.5,106.5 C 276.03,107.978 274.363,109.311 272.5,110.5C 272.938,111.506 273.604,111.506 274.5,110.5C 275.386,111.325 275.719,112.325 275.5,113.5C 273.508,113.328 271.842,113.995 270.5,115.5C 267.539,114.817 267.205,113.984 269.5,113C 264.937,113.118 261.271,115.118 258.5,119C 258.833,119.333 259.167,119.667 259.5,120C 258.334,123.685 256.501,124.185 254,121.5C 252.605,123.597 250.771,125.264 248.5,126.5C 250.815,127.234 252.648,128.568 254,130.5C 254.333,130.167 254.667,129.833 255,129.5C 254.923,130.83 254.423,132.164 253.5,133.5C 253.556,134.737 254.056,135.737 255,136.5C 255.662,133.583 257.495,132.25 260.5,132.5C 248.703,144.764 241.703,159.43 239.5,176.5C 238.132,174.436 237.132,172.102 236.5,169.5C 235.833,171.5 235.167,173.5 234.5,175.5C 233.2,172.705 231.7,170.039 230,167.5C 229.667,169.5 229.333,171.5 229,173.5C 227.951,172.483 226.784,172.316 225.5,173C 226.517,174.049 226.684,175.216 226,176.5C 225.667,175.833 225.333,175.167 225,174.5C 224.722,175.416 224.222,176.082 223.5,176.5C 226.214,153.877 235.881,134.711 252.5,119C 260.061,113.22 268.394,109.053 277.5,106.5 Z"/></g>
<g><path style="opacity:1" fill="#3f6694" d="M 148.5,149.5 C 123.075,158.938 97.4085,167.605 71.5,175.5C 69.0294,175.205 66.8627,174.205 65,172.5C 64.3333,169.167 64.3333,165.833 65,162.5C 71.363,158.698 78.1963,156.031 85.5,154.5C 84.7177,156.451 83.3844,157.951 81.5,159C 87.0337,160.761 92.5337,162.594 98,164.5C 100.724,164.197 103.224,163.364 105.5,162C 102.167,161.667 98.8333,161.333 95.5,161C 95.8333,160.667 96.1667,160.333 96.5,160C 101.952,158.548 107.285,156.882 112.5,155C 121.154,157.769 129.82,156.102 138.5,150C 141.817,149.502 145.15,149.335 148.5,149.5 Z"/></g>
<g><path style="opacity:1" fill="#366193" d="M 239.5,176.5 C 237.446,184.688 236.113,193.021 235.5,201.5C 234.833,216.006 234.167,230.672 233.5,245.5C 232.808,244.975 232.308,244.308 232,243.5C 231,246.167 230,246.167 229,243.5C 228.784,245.384 228.117,247.051 227,248.5C 226.053,224.817 224.886,201.15 223.5,177.5C 223.5,177.167 223.5,176.833 223.5,176.5C 224.222,176.082 224.722,175.416 225,174.5C 225.333,175.167 225.667,175.833 226,176.5C 226.684,175.216 226.517,174.049 225.5,173C 226.784,172.316 227.951,172.483 229,173.5C 229.333,171.5 229.667,169.5 230,167.5C 231.7,170.039 233.2,172.705 234.5,175.5C 235.167,173.5 235.833,171.5 236.5,169.5C 237.132,172.102 238.132,174.436 239.5,176.5 Z"/></g>
<g><path style="opacity:1" fill="#366293" d="M 421.5,176.5 C 422.117,176.611 422.617,176.944 423,177.5C 424.702,182.709 425.869,188.043 426.5,193.5C 426.666,203.839 426.5,214.172 426,224.5C 425.355,225.646 424.522,226.646 423.5,227.5C 424.9,234.27 424.4,240.937 422,247.5C 421.261,245.779 420.427,244.113 419.5,242.5C 418.217,245.372 418.217,248.205 419.5,251C 418.5,251.667 417.5,251.667 416.5,251C 415.914,248.72 415.08,246.553 414,244.5C 412.89,246.397 412.724,248.23 413.5,250C 412.354,250.645 411.354,251.478 410.5,252.5C 409.914,252.291 409.414,251.957 409,251.5C 408.503,249.19 408.337,246.857 408.5,244.5C 412.783,231.403 414.116,218.069 412.5,204.5C 413.638,201.696 413.805,198.696 413,195.5C 411.262,188.455 409.428,181.455 407.5,174.5C 407.833,173.5 408.167,172.5 408.5,171.5C 409.872,175.546 412.706,177.546 417,177.5C 418.084,175.218 419.584,174.884 421.5,176.5 Z"/></g>
<g><path style="opacity:1" fill="#386394" d="M 181.5,197.5 C 178.107,197.938 175.107,197.105 172.5,195C 173.167,194.667 173.833,194.333 174.5,194C 172.272,193.18 170.272,193.513 168.5,195C 169.449,195.617 170.282,195.451 171,194.5C 171.298,199.369 169.131,201.035 164.5,199.5C 165.326,198.549 165.492,197.549 165,196.5C 160.013,197.571 155.513,196.404 151.5,193C 155.141,192.356 158.641,192.856 162,194.5C 163.171,193.66 164.338,192.827 165.5,192C 163.239,191.761 161.239,191.594 159.5,191.5C 165.615,189.583 171.282,186.917 176.5,183.5C 181.374,180.606 186.708,179.439 192.5,180C 197.916,183.203 198.916,187.536 195.5,193C 190.98,195.007 186.313,196.507 181.5,197.5 Z"/></g>
<g><path style="opacity:1" fill="#406794" d="M 223.5,177.5 C 224.886,201.15 226.053,224.817 227,248.5C 228.117,247.051 228.784,245.384 229,243.5C 230,246.167 231,246.167 232,243.5C 232.308,244.308 232.808,244.975 233.5,245.5C 234.167,230.672 234.833,216.006 235.5,201.5C 234.686,225.304 236.02,248.97 239.5,272.5C 238.06,268.975 236.06,265.642 233.5,262.5C 233.709,261.914 234.043,261.414 234.5,261C 233.376,260.161 232.709,258.994 232.5,257.5C 233.554,254.199 234.054,250.865 234,247.5C 232.667,248.167 231.333,248.833 230,249.5C 229.502,252.482 229.335,255.482 229.5,258.5C 227.856,258.714 226.356,258.38 225,257.5C 224.032,261.902 224.865,265.902 227.5,269.5C 228.478,269.023 229.311,268.357 230,267.5C 232.701,270.314 233.035,273.314 231,276.5C 230.506,274.866 230.34,273.199 230.5,271.5C 229.167,271.5 227.833,271.5 226.5,271.5C 227.254,274.256 227.254,276.922 226.5,279.5C 223.326,267.863 221.493,255.863 221,243.5C 220.333,227.5 220.333,211.5 221,195.5C 221.517,189.311 222.35,183.311 223.5,177.5 Z"/></g>
<g><path style="opacity:1" fill="#3e6695" d="M 176.5,183.5 C 171.282,186.917 165.615,189.583 159.5,191.5C 161.239,191.594 163.239,191.761 165.5,192C 164.338,192.827 163.171,193.66 162,194.5C 158.641,192.856 155.141,192.356 151.5,193C 155.513,196.404 160.013,197.571 165,196.5C 165.492,197.549 165.326,198.549 164.5,199.5C 169.131,201.035 171.298,199.369 171,194.5C 170.282,195.451 169.449,195.617 168.5,195C 170.272,193.513 172.272,193.18 174.5,194C 173.833,194.333 173.167,194.667 172.5,195C 175.107,197.105 178.107,197.938 181.5,197.5C 150.496,208.187 119.496,218.52 88.5,228.5C 89.278,226.775 89.6114,225.109 89.5,223.5C 91.4086,224.348 93.4086,224.682 95.5,224.5C 95.762,223.022 95.4287,221.689 94.5,220.5C 91.1769,221.757 87.8435,221.757 84.5,220.5C 85.9079,219.757 87.2412,218.923 88.5,218C 93.5,217.667 98.5,217.333 103.5,217C 101.481,216.55 99.6477,215.717 98,214.5C 94.2492,214.973 90.4159,215.139 86.5,215C 83.0011,216.704 79.3345,218.038 75.5,219C 73.1902,219.497 70.8568,219.663 68.5,219.5C 104.328,206.554 140.328,194.554 176.5,183.5 Z"/></g>
<g><path style="opacity:1" fill="#3b6394" d="M 88.5,228.5 C 84.6485,230.13 80.6485,231.63 76.5,233C 66.5259,235.027 62.6926,231.193 65,221.5C 65.8159,220.177 66.9826,219.511 68.5,219.5C 70.8568,219.663 73.1902,219.497 75.5,219C 79.3345,218.038 83.0011,216.704 86.5,215C 90.4159,215.139 94.2492,214.973 98,214.5C 99.6477,215.717 101.481,216.55 103.5,217C 98.5,217.333 93.5,217.667 88.5,218C 87.2412,218.923 85.9079,219.757 84.5,220.5C 87.8435,221.757 91.1769,221.757 94.5,220.5C 95.4287,221.689 95.762,223.022 95.5,224.5C 93.4086,224.682 91.4086,224.348 89.5,223.5C 89.6114,225.109 89.278,226.775 88.5,228.5 Z"/></g>
<g><path style="opacity:1" fill="#3e6694" d="M 145.5,267.5 C 142.085,267.739 138.919,267.072 136,265.5C 132.987,266.856 130.154,266.69 127.5,265C 128.167,264.667 128.833,264.333 129.5,264C 129.146,262.374 129.146,260.541 129.5,258.5C 130.873,258.657 132.207,258.49 133.5,258C 136.172,255.049 139.505,253.883 143.5,254.5C 143.5,255.5 143.5,256.5 143.5,257.5C 147.847,257.058 148.18,256.225 144.5,255C 146.192,253.693 147.525,252.193 148.5,250.5C 162.273,245.547 176.273,240.88 190.5,236.5C 196.19,238.027 198.024,241.694 196,247.5C 194.833,250 193,251.833 190.5,253C 175.528,258.158 160.528,262.992 145.5,267.5 Z"/></g>
<g><path style="opacity:1" fill="#416795" d="M 426.5,193.5 C 431.853,221.718 427.186,248.051 412.5,272.5C 411.36,267.348 410.194,267.348 409,272.5C 407.667,271.833 406.333,271.167 405,270.5C 406.372,268.802 407.538,266.802 408.5,264.5C 407.5,264.5 406.5,264.5 405.5,264.5C 405.762,263.022 405.429,261.689 404.5,260.5C 404.167,260.667 403.833,260.833 403.5,261C 402.069,264.272 400.402,267.438 398.5,270.5C 396.766,273.236 394.433,275.236 391.5,276.5C 399.284,266.93 404.951,256.263 408.5,244.5C 408.337,246.857 408.503,249.19 409,251.5C 409.414,251.957 409.914,252.291 410.5,252.5C 411.354,251.478 412.354,250.645 413.5,250C 412.724,248.23 412.89,246.397 414,244.5C 415.08,246.553 415.914,248.72 416.5,251C 417.5,251.667 418.5,251.667 419.5,251C 418.217,248.205 418.217,245.372 419.5,242.5C 420.427,244.113 421.261,245.779 422,247.5C 424.4,240.937 424.9,234.27 423.5,227.5C 424.522,226.646 425.355,225.646 426,224.5C 426.5,214.172 426.666,203.839 426.5,193.5 Z"/></g>
<g><path style="opacity:1" fill="#446995" d="M 148.5,250.5 C 147.525,252.193 146.192,253.693 144.5,255C 148.18,256.225 147.847,257.058 143.5,257.5C 143.5,256.5 143.5,255.5 143.5,254.5C 139.505,253.883 136.172,255.049 133.5,258C 132.207,258.49 130.873,258.657 129.5,258.5C 129.146,260.541 129.146,262.374 129.5,264C 128.833,264.333 128.167,264.667 127.5,265C 130.154,266.69 132.987,266.856 136,265.5C 138.919,267.072 142.085,267.739 145.5,267.5C 132.24,272.441 118.573,276.775 104.5,280.5C 105.429,279.685 106.429,278.852 107.5,278C 107.048,276.388 105.715,275.388 103.5,275C 105.833,273 108.167,273 110.5,275C 106.731,275.766 106.898,276.599 111,277.5C 113.886,275.775 117.052,275.108 120.5,275.5C 120.421,274.07 120.754,272.736 121.5,271.5C 119.865,270.319 118.198,270.319 116.5,271.5C 115.646,270.478 114.646,269.645 113.5,269C 114.32,266.086 115.32,265.919 116.5,268.5C 119.167,269.833 121.833,269.833 124.5,268.5C 122.83,266.387 120.83,265.72 118.5,266.5C 116.119,264.608 113.453,264.108 110.5,265C 110.833,265.333 111.167,265.667 111.5,266C 110.584,266.374 109.75,266.874 109,267.5C 106.263,266.39 103.429,266.223 100.5,267C 101.517,268.049 101.684,269.216 101,270.5C 99.8869,269.289 98.7202,269.289 97.5,270.5C 97.5105,269.559 97.0105,268.892 96,268.5C 94.8615,268.989 93.6948,269.322 92.5,269.5C 110.703,262.431 129.37,256.098 148.5,250.5 Z"/></g>
<g><path style="opacity:1" fill="#3b6393" d="M 104.5,280.5 C 94.9809,284.065 85.3143,287.565 75.5,291C 68.9999,292.924 65.3332,290.591 64.5,284C 64.3049,281.648 64.9716,279.648 66.5,278C 75.0962,274.527 83.7628,271.694 92.5,269.5C 93.6948,269.322 94.8615,268.989 96,268.5C 97.0105,268.892 97.5105,269.559 97.5,270.5C 98.7202,269.289 99.8869,269.289 101,270.5C 101.684,269.216 101.517,268.049 100.5,267C 103.429,266.223 106.263,266.39 109,267.5C 109.75,266.874 110.584,266.374 111.5,266C 111.167,265.667 110.833,265.333 110.5,265C 113.453,264.108 116.119,264.608 118.5,266.5C 120.83,265.72 122.83,266.387 124.5,268.5C 121.833,269.833 119.167,269.833 116.5,268.5C 115.32,265.919 114.32,266.086 113.5,269C 114.646,269.645 115.646,270.478 116.5,271.5C 118.198,270.319 119.865,270.319 121.5,271.5C 120.754,272.736 120.421,274.07 120.5,275.5C 117.052,275.108 113.886,275.775 111,277.5C 106.898,276.599 106.731,275.766 110.5,275C 108.167,273 105.833,273 103.5,275C 105.715,275.388 107.048,276.388 107.5,278C 106.429,278.852 105.429,279.685 104.5,280.5 Z"/></g>
<g><path style="opacity:1" fill="#3a6495" d="M 412.5,272.5 C 404.895,284.621 395.562,295.454 384.5,305C 381.941,306.777 379.274,308.277 376.5,309.5C 373.526,308.376 371.193,309.376 369.5,312.5C 367.929,313.309 366.262,313.643 364.5,313.5C 364.33,312.178 364.663,311.011 365.5,310C 362.676,309.657 360.009,310.157 357.5,311.5C 355.078,311.743 353.412,310.743 352.5,308.5C 355.727,307.276 358.894,305.943 362,304.5C 362.873,304.735 363.707,305.069 364.5,305.5C 363.955,301.374 365.955,299.374 370.5,299.5C 370.55,302.899 372.05,304.232 375,303.5C 375.667,302.833 375.667,302.167 375,301.5C 373.745,300.789 372.579,299.956 371.5,299C 372.337,297.989 372.67,296.822 372.5,295.5C 375.5,295.833 376.833,294.5 376.5,291.5C 379.278,291.022 381.278,292.022 382.5,294.5C 384.002,293.917 385.335,293.084 386.5,292C 384.369,291.457 382.369,290.624 380.5,289.5C 381.952,288.06 382.952,286.394 383.5,284.5C 385.833,281.5 388.5,278.833 391.5,276.5C 394.433,275.236 396.766,273.236 398.5,270.5C 400.402,267.438 402.069,264.272 403.5,261C 403.833,260.833 404.167,260.667 404.5,260.5C 405.429,261.689 405.762,263.022 405.5,264.5C 406.5,264.5 407.5,264.5 408.5,264.5C 407.538,266.802 406.372,268.802 405,270.5C 406.333,271.167 407.667,271.833 409,272.5C 410.194,267.348 411.36,267.348 412.5,272.5 Z"/></g>
<g><path style="opacity:1" fill="#376294" d="M 239.5,272.5 C 241.809,281.071 243.809,289.738 245.5,298.5C 246.196,304.205 244.696,309.205 241,313.5C 239.108,312.383 238.275,310.716 238.5,308.5C 237.5,308.5 236.5,308.5 235.5,308.5C 234.106,302.835 233.606,297.169 234,291.5C 233.149,294.612 231.983,294.946 230.5,292.5C 230.054,287.77 228.721,283.436 226.5,279.5C 227.254,276.922 227.254,274.256 226.5,271.5C 227.833,271.5 229.167,271.5 230.5,271.5C 230.34,273.199 230.506,274.866 231,276.5C 233.035,273.314 232.701,270.314 230,267.5C 229.311,268.357 228.478,269.023 227.5,269.5C 224.865,265.902 224.032,261.902 225,257.5C 226.356,258.38 227.856,258.714 229.5,258.5C 229.335,255.482 229.502,252.482 230,249.5C 231.333,248.833 232.667,248.167 234,247.5C 234.054,250.865 233.554,254.199 232.5,257.5C 232.709,258.994 233.376,260.161 234.5,261C 234.043,261.414 233.709,261.914 233.5,262.5C 236.06,265.642 238.06,268.975 239.5,272.5 Z"/></g>
<g><path style="opacity:1" fill="#3c6493" d="M 150.5,323.5 C 153.774,321.117 157.441,319.284 161.5,318C 161.167,317.667 160.833,317.333 160.5,317C 163.861,316.946 166.861,315.946 169.5,314C 168.166,311.913 166.333,310.413 164,309.5C 163.517,308.552 163.351,307.552 163.5,306.5C 161.435,306.483 159.435,306.15 157.5,305.5C 168.366,301.156 179.532,297.49 191,294.5C 197.339,294.843 200.006,298.176 199,304.5C 197.301,308.205 194.467,310.372 190.5,311C 177.275,315.474 163.942,319.64 150.5,323.5 Z"/></g>
<g><path style="opacity:1" fill="#396394" d="M 157.5,305.5 C 159.435,306.15 161.435,306.483 163.5,306.5C 163.351,307.552 163.517,308.552 164,309.5C 166.333,310.413 168.166,311.913 169.5,314C 166.861,315.946 163.861,316.946 160.5,317C 160.833,317.333 161.167,317.667 161.5,318C 157.441,319.284 153.774,321.117 150.5,323.5C 143.784,326.405 136.784,328.739 129.5,330.5C 128.305,330.322 127.138,329.989 126,329.5C 122.153,331.836 117.986,332.669 113.5,332C 112.707,330.915 112.04,329.748 111.5,328.5C 113.362,326.792 114.862,324.792 116,322.5C 117.297,323.784 118.464,323.617 119.5,322C 116.81,321.665 116.143,320.499 117.5,318.5C 130.877,314.136 144.21,309.803 157.5,305.5 Z"/></g>
<g><path style="opacity:1" fill="#3c6494" d="M 226.5,279.5 C 228.721,283.436 230.054,287.77 230.5,292.5C 231.983,294.946 233.149,294.612 234,291.5C 233.606,297.169 234.106,302.835 235.5,308.5C 236.5,308.5 237.5,308.5 238.5,308.5C 238.275,310.716 239.108,312.383 241,313.5C 244.696,309.205 246.196,304.205 245.5,298.5C 246.75,302.56 248.417,306.56 250.5,310.5C 252.875,312.265 255.542,313.432 258.5,314C 278.775,316.669 299.108,317.169 319.5,315.5C 324.801,316.377 330.135,317.044 335.5,317.5C 335.687,314.974 337.02,313.307 339.5,312.5C 342.72,312.096 345.887,312.762 349,314.5C 350.447,314.055 351.78,313.388 353,312.5C 353.5,312.833 354,313.167 354.5,313.5C 353.833,314.5 353.167,315.5 352.5,316.5C 350.135,317.085 348.135,318.252 346.5,320C 347.851,322.125 347.185,323.292 344.5,323.5C 342.58,322.331 340.58,321.331 338.5,320.5C 337.643,321.736 336.977,323.069 336.5,324.5C 337.602,325.176 338.602,325.842 339.5,326.5C 309.362,334.295 279.029,334.461 248.5,327C 242.23,323.053 237.73,317.553 235,310.5C 230.998,300.493 228.164,290.16 226.5,279.5 Z"/></g>
<g><path style="opacity:1" fill="#406693" d="M 383.5,284.5 C 382.952,286.394 381.952,288.06 380.5,289.5C 382.369,290.624 384.369,291.457 386.5,292C 385.335,293.084 384.002,293.917 382.5,294.5C 381.278,292.022 379.278,291.022 376.5,291.5C 376.833,294.5 375.5,295.833 372.5,295.5C 372.67,296.822 372.337,297.989 371.5,299C 372.579,299.956 373.745,300.789 375,301.5C 375.667,302.167 375.667,302.833 375,303.5C 372.05,304.232 370.55,302.899 370.5,299.5C 365.955,299.374 363.955,301.374 364.5,305.5C 363.707,305.069 362.873,304.735 362,304.5C 358.894,305.943 355.727,307.276 352.5,308.5C 353.412,310.743 355.078,311.743 357.5,311.5C 360.009,310.157 362.676,309.657 365.5,310C 364.663,311.011 364.33,312.178 364.5,313.5C 366.262,313.643 367.929,313.309 369.5,312.5C 371.193,309.376 373.526,308.376 376.5,309.5C 365.383,317.555 353.05,323.221 339.5,326.5C 338.602,325.842 337.602,325.176 336.5,324.5C 336.977,323.069 337.643,321.736 338.5,320.5C 340.58,321.331 342.58,322.331 344.5,323.5C 347.185,323.292 347.851,322.125 346.5,320C 348.135,318.252 350.135,317.085 352.5,316.5C 353.167,315.5 353.833,314.5 354.5,313.5C 354,313.167 353.5,312.833 353,312.5C 351.78,313.388 350.447,314.055 349,314.5C 345.887,312.762 342.72,312.096 339.5,312.5C 337.02,313.307 335.687,314.974 335.5,317.5C 330.135,317.044 324.801,316.377 319.5,315.5C 343.909,311.629 365.242,301.296 383.5,284.5 Z"/></g>
<g><path style="opacity:1" fill="#406695" d="M 117.5,318.5 C 116.143,320.499 116.81,321.665 119.5,322C 118.464,323.617 117.297,323.784 116,322.5C 114.862,324.792 113.362,326.792 111.5,328.5C 112.04,329.748 112.707,330.915 113.5,332C 117.986,332.669 122.153,331.836 126,329.5C 127.138,329.989 128.305,330.322 129.5,330.5C 110.792,337.747 91.6256,344.08 72,349.5C 67.1415,349.308 64.6415,346.808 64.5,342C 64.3049,339.648 64.9716,337.648 66.5,336C 83.444,329.979 100.444,324.146 117.5,318.5 Z"/></g>
<g><path style="opacity:1" fill="#3c6493" d="M 274.5,379.5 C 287.99,380.496 301.656,380.829 315.5,380.5C 302.098,381.175 288.598,381.842 275,382.5C 272.149,380.655 268.982,379.489 265.5,379C 264.333,377.167 263.167,375.333 262,373.5C 260.513,374.253 260.346,375.086 261.5,376C 260.47,379.024 259.804,381.857 259.5,384.5C 261.616,386.936 263.283,389.603 264.5,392.5C 258.4,390.23 254.567,385.897 253,379.5C 251.067,366.806 251.067,354.139 253,341.5C 256.911,336.743 261.078,336.41 265.5,340.5C 266.332,350.483 266.832,360.483 267,370.5C 267.192,375.519 269.692,378.519 274.5,379.5 Z"/></g>
<g><path style="opacity:1" fill="#426894" d="M 264.5,392.5 C 284.194,392.784 303.86,392.451 323.5,391.5C 323.33,390.178 323.663,389.011 324.5,388C 323.692,387.692 323.025,387.192 322.5,386.5C 325.547,384.082 327.88,381.082 329.5,377.5C 328.758,376.713 327.925,376.047 327,375.5C 324.494,377.333 322.661,379.167 321.5,381C 319.512,381.18 317.512,381.014 315.5,380.5C 301.656,380.829 287.99,380.496 274.5,379.5C 289.891,379.935 305.225,379.435 320.5,378C 321.333,377.167 322.167,376.333 323,375.5C 323.333,365.167 323.667,354.833 324,344.5C 327.983,336.002 332.983,335.336 339,342.5C 339.667,354.5 339.667,366.5 339,378.5C 336.275,387.227 330.442,392.394 321.5,394C 304.167,394.667 286.833,394.667 269.5,394C 267.618,393.802 265.952,393.302 264.5,392.5 Z"/></g>
<g><path style="opacity:1" fill="#346195" d="M 315.5,380.5 C 317.512,381.014 319.512,381.18 321.5,381C 322.661,379.167 324.494,377.333 327,375.5C 327.925,376.047 328.758,376.713 329.5,377.5C 327.88,381.082 325.547,384.082 322.5,386.5C 323.025,387.192 323.692,387.692 324.5,388C 323.663,389.011 323.33,390.178 323.5,391.5C 303.86,392.451 284.194,392.784 264.5,392.5C 263.283,389.603 261.616,386.936 259.5,384.5C 259.804,381.857 260.47,379.024 261.5,376C 260.346,375.086 260.513,374.253 262,373.5C 263.167,375.333 264.333,377.167 265.5,379C 268.982,379.489 272.149,380.655 275,382.5C 288.598,381.842 302.098,381.175 315.5,380.5 Z"/></g>
</svg>
