<?xml version="1.0" encoding="UTF-8"?>
<!DOCTYPE svg PUBLIC "-//W3C//DTD SVG 1.1//EN" "http://www.w3.org/Graphics/SVG/1.1/DTD/svg11.dtd">
<svg xmlns="http://www.w3.org/2000/svg" version="1.1" width="566px" height="440px" style="shape-rendering:geometricPrecision; text-rendering:geometricPrecision; image-rendering:optimizeQuality; fill-rule:evenodd; clip-rule:evenodd" xmlns:xlink="http://www.w3.org/1999/xlink">
<g><path style="opacity:0.992" fill="#e1d177" d="M 314.5,171.5 C 313.566,172.568 313.232,173.901 313.5,175.5C 311.684,165.266 309.017,155.266 305.5,145.5C 303.125,133.252 297.458,122.752 288.5,114C 280.344,111.552 272.01,110.886 263.5,112C 253.004,113.042 242.671,114.876 232.5,117.5C 233.167,116.833 233.833,116.167 234.5,115.5C 238.932,113.908 243.598,112.741 248.5,112C 259.376,109.493 270.376,108.493 281.5,109C 289.134,111.226 294.967,115.726 299,122.5C 306.481,138.087 311.648,154.42 314.5,171.5 Z"/></g>
<g><path style="opacity:1" fill="#fcf59e" d="M 305.5,145.5 C 305.784,147.415 305.451,149.081 304.5,150.5C 302.056,144 299.889,137.333 298,130.5C 295.015,125.689 291.515,121.356 287.5,117.5C 285.852,116.073 283.852,115.24 281.5,115C 271.808,114.409 262.141,114.742 252.5,116C 243.603,118.481 234.603,120.647 225.5,122.5C 224.127,122.657 222.793,122.49 221.5,122C 222.416,121.722 223.082,121.222 223.5,120.5C 226.557,119.367 229.557,118.367 232.5,117.5C 242.671,114.876 253.004,113.042 263.5,112C 272.01,110.886 280.344,111.552 288.5,114C 297.458,122.752 303.125,133.252 305.5,145.5 Z"/></g>
<g><path style="opacity:1" fill="#dabe41" d="M 287.5,117.5 C 283.802,117.806 280.302,117.139 277,115.5C 275.278,115.611 275.112,116.111 276.5,117C 269.372,117.433 262.372,118.599 255.5,120.5C 254.167,121.833 254.167,123.167 255.5,124.5C 262.015,125.976 268.348,125.642 274.5,123.5C 278.346,124.964 282.346,126.131 286.5,127C 285.978,127.561 285.645,128.228 285.5,129C 286.909,131.529 288.242,134.029 289.5,136.5C 290.832,140.82 292.165,145.153 293.5,149.5C 292.79,152.799 292.457,156.133 292.5,159.5C 290.804,153.91 288.971,148.243 287,142.5C 285.06,137.672 282.56,133.172 279.5,129C 272.131,128.383 264.798,128.717 257.5,130C 238.881,133.49 220.881,138.657 203.5,145.5C 202.167,145.5 200.833,145.5 199.5,145.5C 201.315,142.593 203.981,141.259 207.5,141.5C 207.5,139.5 207.5,137.5 207.5,135.5C 205.213,135.276 203.047,134.609 201,133.5C 197.876,134.828 194.71,135.828 191.5,136.5C 202.732,131.529 214.065,126.862 225.5,122.5C 234.603,120.647 243.603,118.481 252.5,116C 262.141,114.742 271.808,114.409 281.5,115C 283.852,115.24 285.852,116.073 287.5,117.5 Z"/></g>
<g><path style="opacity:1" fill="#d8b83c" d="M 287.5,117.5 C 288.72,119.663 288.72,121.83 287.5,124C 287.836,125.03 288.503,125.53 289.5,125.5C 289.277,128.114 290.444,129.781 293,130.5C 293.821,133.554 293.655,136.554 292.5,139.5C 291.719,138.271 291.219,136.938 291,135.5C 290.617,136.056 290.117,136.389 289.5,136.5C 288.242,134.029 286.909,131.529 285.5,129C 285.645,128.228 285.978,127.561 286.5,127C 282.346,126.131 278.346,124.964 274.5,123.5C 268.348,125.642 262.015,125.976 255.5,124.5C 254.167,123.167 254.167,121.833 255.5,120.5C 262.372,118.599 269.372,117.433 276.5,117C 275.112,116.111 275.278,115.611 277,115.5C 280.302,117.139 283.802,117.806 287.5,117.5 Z"/></g>
<g><path style="opacity:1" fill="#dbbf42" d="M 413.5,135.5 C 413.5,141.167 413.5,146.833 413.5,152.5C 411.527,148.293 410.36,143.626 410,138.5C 409.506,140.134 409.34,141.801 409.5,143.5C 408.178,143.67 407.011,143.337 406,142.5C 405.667,144.833 405.333,147.167 405,149.5C 404.667,148.833 404.333,148.167 404,147.5C 403.204,151.755 403.371,155.921 404.5,160C 403.429,160.852 402.429,161.685 401.5,162.5C 384.705,163.139 368.039,163.806 351.5,164.5C 351.5,165.5 351.5,166.5 351.5,167.5C 346.758,166.812 345.925,167.812 349,170.5C 365.756,169.508 382.589,169.175 399.5,169.5C 399.5,170.5 399.5,171.5 399.5,172.5C 400.833,172.5 402.167,172.5 403.5,172.5C 403.334,176.846 403.501,181.179 404,185.5C 404.333,184.833 404.667,184.167 405,183.5C 406.77,186.689 406.937,190.022 405.5,193.5C 403.989,197.486 402.656,201.652 401.5,206C 400.23,207.775 398.564,208.942 396.5,209.5C 397.038,207.883 397.371,206.216 397.5,204.5C 399.84,199.532 401.173,194.199 401.5,188.5C 402.487,183.695 402.821,178.695 402.5,173.5C 382.833,173.5 363.167,173.5 343.5,173.5C 342.625,168.665 342.625,163.998 343.5,159.5C 363.167,159.5 382.833,159.5 402.5,159.5C 402.047,142.217 398.047,125.884 390.5,110.5C 395.875,110.172 401.208,110.505 406.5,111.5C 410.697,118.957 413.031,126.957 413.5,135.5 Z"/></g>
<g><path style="opacity:1" fill="#fcf49b" d="M 292.5,159.5 C 292.833,162.167 293.167,164.833 293.5,167.5C 295.56,178.526 297.393,189.526 299,200.5C 299.917,224.898 299.084,249.231 296.5,273.5C 296.672,274.492 296.338,275.158 295.5,275.5C 295.658,272.098 295.324,268.764 294.5,265.5C 298.414,229.829 296.581,194.495 289,159.5C 287.389,154.633 285.556,149.966 283.5,145.5C 282.577,140.579 280.577,136.079 277.5,132C 247.031,133.615 218.365,141.448 191.5,155.5C 191.5,154.5 191.5,153.5 191.5,152.5C 195.532,150.153 199.532,147.82 203.5,145.5C 220.881,138.657 238.881,133.49 257.5,130C 264.798,128.717 272.131,128.383 279.5,129C 282.56,133.172 285.06,137.672 287,142.5C 288.971,148.243 290.804,153.91 292.5,159.5 Z"/></g>
<g><path style="opacity:1" fill="#d9bb3f" d="M 199.5,145.5 C 197.473,145.338 195.473,145.505 193.5,146C 189.377,149.536 185.044,152.87 180.5,156C 178.186,157.398 175.853,157.565 173.5,156.5C 172.252,158.459 170.585,159.959 168.5,161C 164.615,160.205 160.615,159.705 156.5,159.5C 159.484,156.658 162.651,156.324 166,158.5C 168.167,157 168,155.833 165.5,155C 167.037,153.89 167.703,152.39 167.5,150.5C 174.728,144.626 182.728,139.959 191.5,136.5C 194.71,135.828 197.876,134.828 201,133.5C 203.047,134.609 205.213,135.276 207.5,135.5C 207.5,137.5 207.5,139.5 207.5,141.5C 203.981,141.259 201.315,142.593 199.5,145.5 Z"/></g>
<g><path style="opacity:0.875" fill="#ddce77" d="M 234.5,115.5 C 233.833,116.167 233.167,116.833 232.5,117.5C 229.557,118.367 226.557,119.367 223.5,120.5C 192.056,129.716 164.389,145.383 140.5,167.5C 126.236,181.363 117.236,198.03 113.5,217.5C 112.668,217.754 112.001,218.754 111.5,220.5C 113.362,203.12 119.862,187.787 131,174.5C 159.309,144.416 193.809,124.749 234.5,115.5 Z"/></g>
<g><path style="opacity:1" fill="#dabb3f" d="M 289.5,125.5 C 290.847,126.171 292.014,126.171 293,125.5C 294.12,128.242 295.62,130.742 297.5,133C 297.994,138.111 297.994,143.278 297.5,148.5C 298.5,148.5 299.5,148.5 300.5,148.5C 300.66,150.199 300.494,151.866 300,153.5C 298.779,154.774 297.946,156.274 297.5,158C 298.992,162.314 298.825,166.481 297,170.5C 296.28,168.944 295.113,167.944 293.5,167.5C 293.167,164.833 292.833,162.167 292.5,159.5C 292.457,156.133 292.79,152.799 293.5,149.5C 292.165,145.153 290.832,140.82 289.5,136.5C 290.117,136.389 290.617,136.056 291,135.5C 291.219,136.938 291.719,138.271 292.5,139.5C 293.655,136.554 293.821,133.554 293,130.5C 290.444,129.781 289.277,128.114 289.5,125.5 Z"/></g>
<g><path style="opacity:1" fill="#ddc244" d="M 287.5,117.5 C 291.515,121.356 295.015,125.689 298,130.5C 299.889,137.333 302.056,144 304.5,150.5C 305.207,153.786 305.54,157.119 305.5,160.5C 305.657,161.873 305.49,163.207 305,164.5C 304.229,161.81 303.396,159.144 302.5,156.5C 301.145,164.065 299.479,171.565 297.5,179C 300.431,188.281 301.764,197.781 301.5,207.5C 302.5,207.5 303.5,207.5 304.5,207.5C 303.642,212.953 303.309,218.286 303.5,223.5C 302.266,225.201 301.599,227.201 301.5,229.5C 303.763,237.157 304.096,244.99 302.5,253C 302.933,254.928 303.6,256.761 304.5,258.5C 303.579,260.13 302.745,261.797 302,263.5C 301.667,262.833 301.333,262.167 301,261.5C 299.322,265.365 298.155,269.365 297.5,273.5C 297.167,273.5 296.833,273.5 296.5,273.5C 299.084,249.231 299.917,224.898 299,200.5C 297.393,189.526 295.56,178.526 293.5,167.5C 295.113,167.944 296.28,168.944 297,170.5C 298.825,166.481 298.992,162.314 297.5,158C 297.946,156.274 298.779,154.774 300,153.5C 300.494,151.866 300.66,150.199 300.5,148.5C 299.5,148.5 298.5,148.5 297.5,148.5C 297.994,143.278 297.994,138.111 297.5,133C 295.62,130.742 294.12,128.242 293,125.5C 292.014,126.171 290.847,126.171 289.5,125.5C 288.503,125.53 287.836,125.03 287.5,124C 288.72,121.83 288.72,119.663 287.5,117.5 Z"/></g>
<g><path style="opacity:1" fill="#fcf59c" d="M 223.5,120.5 C 223.082,121.222 222.416,121.722 221.5,122C 222.793,122.49 224.127,122.657 225.5,122.5C 214.065,126.862 202.732,131.529 191.5,136.5C 182.728,139.959 174.728,144.626 167.5,150.5C 157.973,156.025 149.306,162.692 141.5,170.5C 140.596,169.791 140.263,168.791 140.5,167.5C 164.389,145.383 192.056,129.716 223.5,120.5 Z"/></g>
<g><path style="opacity:1" fill="#dbbe40" d="M 199.5,145.5 C 200.833,145.5 202.167,145.5 203.5,145.5C 199.532,147.82 195.532,150.153 191.5,152.5C 182.363,157.57 173.363,162.903 164.5,168.5C 161.976,168.429 159.976,169.429 158.5,171.5C 155.148,170.646 152.482,168.813 150.5,166C 150.613,164.72 151.28,163.887 152.5,163.5C 154.059,164.074 155.559,164.74 157,165.5C 157.393,163.801 156.893,162.301 155.5,161C 155.57,160.235 155.903,159.735 156.5,159.5C 160.615,159.705 164.615,160.205 168.5,161C 170.585,159.959 172.252,158.459 173.5,156.5C 175.853,157.565 178.186,157.398 180.5,156C 185.044,152.87 189.377,149.536 193.5,146C 195.473,145.505 197.473,145.338 199.5,145.5 Z"/></g>
<g><path style="opacity:1" fill="#fbf297" d="M 191.5,152.5 C 191.5,153.5 191.5,154.5 191.5,155.5C 175.763,163.627 161.93,174.294 150,187.5C 149.472,188.816 149.972,189.483 151.5,189.5C 150.5,190.5 149.5,191.5 148.5,192.5C 148.225,190.158 147.392,190.158 146,192.5C 141.61,198.614 138.276,205.281 136,212.5C 134.77,219.445 134.27,226.445 134.5,233.5C 134.119,229.881 133.119,226.548 131.5,223.5C 132.185,213.086 135.185,203.42 140.5,194.5C 147.424,184.906 155.424,176.24 164.5,168.5C 173.363,162.903 182.363,157.57 191.5,152.5 Z"/></g>
<g><path style="opacity:0.478" fill="#dfd078" d="M 283.5,145.5 C 283.167,145.5 282.833,145.5 282.5,145.5C 280.517,141.939 278.517,138.273 276.5,134.5C 234.141,136.559 196.474,150.726 163.5,177C 158.96,180.706 154.96,184.872 151.5,189.5C 149.972,189.483 149.472,188.816 150,187.5C 161.93,174.294 175.763,163.627 191.5,155.5C 218.365,141.448 247.031,133.615 277.5,132C 280.577,136.079 282.577,140.579 283.5,145.5 Z"/></g>
<g><path style="opacity:0.467" fill="#e1cf78" d="M 282.5,145.5 C 282.833,145.5 283.167,145.5 283.5,145.5C 285.556,149.966 287.389,154.633 289,159.5C 296.581,194.495 298.414,229.829 294.5,265.5C 292.204,279.12 289.204,292.787 285.5,306.5C 284.833,306.5 284.167,306.5 283.5,306.5C 298.415,252.729 298.082,199.063 282.5,145.5 Z"/></g>
<g><path style="opacity:1" fill="#fcf49c" d="M 140.5,167.5 C 140.263,168.791 140.596,169.791 141.5,170.5C 130.824,180.854 123.49,193.187 119.5,207.5C 115.351,223.569 115.684,239.569 120.5,255.5C 119.842,254.602 119.176,253.602 118.5,252.5C 117.893,252.624 117.56,252.957 117.5,253.5C 113.932,241.911 112.599,229.911 113.5,217.5C 117.236,198.03 126.236,181.363 140.5,167.5 Z"/></g>
<g><path style="opacity:1" fill="#f3e681" d="M 343.5,173.5 C 363.167,173.5 382.833,173.5 402.5,173.5C 402.821,178.695 402.487,183.695 401.5,188.5C 401.5,183.833 401.5,179.167 401.5,174.5C 381.993,174.83 362.659,174.497 343.5,173.5 Z"/></g>
<g><path style="opacity:1" fill="#fef8a0" d="M 395.5,156.5 C 378.357,158.162 361.024,159.162 343.5,159.5C 342.625,163.998 342.625,168.665 343.5,173.5C 362.659,174.497 381.993,174.83 401.5,174.5C 401.5,179.167 401.5,183.833 401.5,188.5C 401.173,194.199 399.84,199.532 397.5,204.5C 397.768,202.901 397.434,201.568 396.5,200.5C 397.562,194.354 398.562,188.187 399.5,182C 399.456,180.236 399.122,178.569 398.5,177C 379.503,176.5 360.503,176.333 341.5,176.5C 340.066,169.936 339.066,163.269 338.5,156.5C 357.5,156.5 376.5,156.5 395.5,156.5 Z"/></g>
<g><path style="opacity:1" fill="#dcc040" d="M 307.5,165.5 C 309.974,173.944 311.307,182.611 311.5,191.5C 312.333,209.82 312.666,228.154 312.5,246.5C 310.569,240.459 309.569,234.126 309.5,227.5C 308.912,220.442 308.912,213.442 309.5,206.5C 307.292,203.523 306.626,200.357 307.5,197C 305.641,190.173 304.974,183.34 305.5,176.5C 304.585,175.672 303.919,174.672 303.5,173.5C 304.25,170.342 305.583,167.675 307.5,165.5 Z"/></g>
<g><path style="opacity:0.725" fill="#e0d17e" d="M 421.5,189.5 C 421.768,187.901 421.434,186.568 420.5,185.5C 420.223,182.552 420.556,179.719 421.5,177C 433.162,176.5 444.829,176.333 456.5,176.5C 456.5,169.833 456.5,163.167 456.5,156.5C 444.5,156.5 432.5,156.5 420.5,156.5C 419.482,139.704 415.482,123.704 408.5,108.5C 400.89,107.533 393.223,107.2 385.5,107.5C 386.485,111.809 388.319,115.809 391,119.5C 394.126,128.671 396.626,138.005 398.5,147.5C 398.119,150.791 397.119,153.791 395.5,156.5C 376.5,156.5 357.5,156.5 338.5,156.5C 339.066,163.269 340.066,169.936 341.5,176.5C 356.973,178.162 372.64,179.162 388.5,179.5C 372.497,179.667 356.497,179.5 340.5,179C 340,178.5 339.5,178 339,177.5C 338.659,171.591 337.826,165.758 336.5,160C 336.815,155.354 339.315,153.187 344,153.5C 361.375,153.546 378.708,153.546 396,153.5C 396.126,147.446 395.459,141.446 394,135.5C 391.483,127.467 388.15,119.8 384,112.5C 383.192,110.421 383.359,108.421 384.5,106.5C 392.785,105.364 401.118,105.197 409.5,106C 412.76,111.761 415.26,117.928 417,124.5C 419.485,134.382 421.318,144.382 422.5,154.5C 434.152,153.702 445.819,153.868 457.5,155C 458.958,157.077 459.624,159.41 459.5,162C 458.565,165.536 458.565,169.036 459.5,172.5C 459.167,175.01 458.167,177.177 456.5,179C 445.172,179.5 433.838,179.667 422.5,179.5C 422.813,183.042 422.479,186.375 421.5,189.5 Z"/></g>
<g><path style="opacity:1" fill="#d5b93d" d="M 351.5,164.5 C 366.785,165.82 382.118,165.82 397.5,164.5C 398.986,165.814 400.653,166.814 402.5,167.5C 404.135,166.954 405.801,166.62 407.5,166.5C 407.286,168.144 407.62,169.644 408.5,171C 407.956,171.717 407.289,172.217 406.5,172.5C 405.5,172.5 404.5,172.5 403.5,172.5C 402.167,172.5 400.833,172.5 399.5,172.5C 399.5,171.5 399.5,170.5 399.5,169.5C 382.589,169.175 365.756,169.508 349,170.5C 345.925,167.812 346.758,166.812 351.5,167.5C 351.5,166.5 351.5,165.5 351.5,164.5 Z"/></g>
<g><path style="opacity:1" fill="#d5b63f" d="M 415.5,171.5 C 414.022,173.645 412.688,175.979 411.5,178.5C 410.614,177.675 410.281,176.675 410.5,175.5C 408.381,175.532 407.048,174.532 406.5,172.5C 407.289,172.217 407.956,171.717 408.5,171C 407.62,169.644 407.286,168.144 407.5,166.5C 405.801,166.62 404.135,166.954 402.5,167.5C 400.653,166.814 398.986,165.814 397.5,164.5C 382.118,165.82 366.785,165.82 351.5,164.5C 368.039,163.806 384.705,163.139 401.5,162.5C 402.688,163.364 403.855,164.364 405,165.5C 407.028,162.115 408.861,159.115 410.5,156.5C 411.94,160.591 414.607,163.424 418.5,165C 417.167,165.667 415.833,166.333 414.5,167C 417.043,167.14 419.377,167.806 421.5,169C 418.949,169.002 416.949,169.836 415.5,171.5 Z"/></g>
<g><path style="opacity:1" fill="#dbc145" d="M 413.5,135.5 C 414.222,135.918 414.722,136.584 415,137.5C 415.726,144.855 416.56,152.188 417.5,159.5C 425.833,159.5 434.167,159.5 442.5,159.5C 446.167,159.5 449.833,159.5 453.5,159.5C 453.5,164.167 453.5,168.833 453.5,173.5C 442.5,173.5 431.5,173.5 420.5,173.5C 430.987,172.506 441.654,172.172 452.5,172.5C 452.5,170.167 452.5,167.833 452.5,165.5C 451.07,165.421 449.736,165.754 448.5,166.5C 447.614,165.675 447.281,164.675 447.5,163.5C 436.231,164.506 425.398,163.173 415,159.5C 413.798,157.323 413.298,154.989 413.5,152.5C 413.5,146.833 413.5,141.167 413.5,135.5 Z"/></g>
<g><path style="opacity:1" fill="#d8ba3d" d="M 413.5,152.5 C 413.298,154.989 413.798,157.323 415,159.5C 425.398,163.173 436.231,164.506 447.5,163.5C 447.281,164.675 447.614,165.675 448.5,166.5C 449.736,165.754 451.07,165.421 452.5,165.5C 452.5,167.833 452.5,170.167 452.5,172.5C 441.654,172.172 430.987,172.506 420.5,173.5C 419.833,173.5 419.167,173.5 418.5,173.5C 416.821,173.715 415.821,173.048 415.5,171.5C 416.949,169.836 418.949,169.002 421.5,169C 419.377,167.806 417.043,167.14 414.5,167C 415.833,166.333 417.167,165.667 418.5,165C 414.607,163.424 411.94,160.591 410.5,156.5C 408.861,159.115 407.028,162.115 405,165.5C 403.855,164.364 402.688,163.364 401.5,162.5C 402.429,161.685 403.429,160.852 404.5,160C 403.371,155.921 403.204,151.755 404,147.5C 404.333,148.167 404.667,148.833 405,149.5C 405.333,147.167 405.667,144.833 406,142.5C 407.011,143.337 408.178,143.67 409.5,143.5C 409.34,141.801 409.506,140.134 410,138.5C 410.36,143.626 411.527,148.293 413.5,152.5 Z"/></g>
<g><path style="opacity:1" fill="#fcf499" d="M 420.5,156.5 C 419.624,156.369 418.957,156.702 418.5,157.5C 426.657,158.167 434.657,158.833 442.5,159.5C 434.167,159.5 425.833,159.5 417.5,159.5C 416.56,152.188 415.726,144.855 415,137.5C 414.722,136.584 414.222,135.918 413.5,135.5C 413.031,126.957 410.697,118.957 406.5,111.5C 401.208,110.505 395.875,110.172 390.5,110.5C 398.047,125.884 402.047,142.217 402.5,159.5C 382.833,159.5 363.167,159.5 343.5,159.5C 361.024,159.162 378.357,158.162 395.5,156.5C 397.119,153.791 398.119,150.791 398.5,147.5C 396.626,138.005 394.126,128.671 391,119.5C 388.319,115.809 386.485,111.809 385.5,107.5C 393.223,107.2 400.89,107.533 408.5,108.5C 415.482,123.704 419.482,139.704 420.5,156.5 Z"/></g>
<g><path style="opacity:1" fill="#d6ba3e" d="M 415.5,171.5 C 415.821,173.048 416.821,173.715 418.5,173.5C 417.659,175.379 417.325,177.379 417.5,179.5C 416.542,179.047 415.708,178.381 415,177.5C 413.768,180.3 413.101,183.3 413,186.5C 412.667,186.167 412.333,185.833 412,185.5C 410.943,188.549 410.776,191.549 411.5,194.5C 410.164,197.009 409.33,199.676 409,202.5C 407.45,203.591 406.283,204.924 405.5,206.5C 406.833,202.167 406.833,197.833 405.5,193.5C 406.937,190.022 406.77,186.689 405,183.5C 404.667,184.167 404.333,184.833 404,185.5C 403.501,181.179 403.334,176.846 403.5,172.5C 404.5,172.5 405.5,172.5 406.5,172.5C 407.048,174.532 408.381,175.532 410.5,175.5C 410.281,176.675 410.614,177.675 411.5,178.5C 412.688,175.979 414.022,173.645 415.5,171.5 Z"/></g>
<g><path style="opacity:1" fill="#dbc043" d="M 167.5,150.5 C 167.703,152.39 167.037,153.89 165.5,155C 168,155.833 168.167,157 166,158.5C 162.651,156.324 159.484,156.658 156.5,159.5C 155.903,159.735 155.57,160.235 155.5,161C 156.893,162.301 157.393,163.801 157,165.5C 155.559,164.74 154.059,164.074 152.5,163.5C 151.28,163.887 150.613,164.72 150.5,166C 152.482,168.813 155.148,170.646 158.5,171.5C 159.976,169.429 161.976,168.429 164.5,168.5C 155.424,176.24 147.424,184.906 140.5,194.5C 140.496,192.158 139.663,190.158 138,188.5C 137.667,189.167 137.333,189.833 137,190.5C 135.925,188.17 134.425,186.837 132.5,186.5C 131.269,187.651 131.269,188.817 132.5,190C 130.292,190.936 128.958,192.602 128.5,195C 129.747,196.458 129.747,197.958 128.5,199.5C 126.11,201.267 124.443,203.6 123.5,206.5C 122.311,207.429 120.978,207.762 119.5,207.5C 123.49,193.187 130.824,180.854 141.5,170.5C 149.306,162.692 157.973,156.025 167.5,150.5 Z"/></g>
<g><path style="opacity:1" fill="#d8ba3e" d="M 305.5,160.5 C 306.537,161.93 307.204,163.597 307.5,165.5C 305.583,167.675 304.25,170.342 303.5,173.5C 303.919,174.672 304.585,175.672 305.5,176.5C 304.974,183.34 305.641,190.173 307.5,197C 306.626,200.357 307.292,203.523 309.5,206.5C 308.912,213.442 308.912,220.442 309.5,227.5C 309.569,234.126 310.569,240.459 312.5,246.5C 311.084,258.146 309.751,257.812 308.5,245.5C 305.751,238.3 304.084,230.967 303.5,223.5C 303.309,218.286 303.642,212.953 304.5,207.5C 303.5,207.5 302.5,207.5 301.5,207.5C 301.764,197.781 300.431,188.281 297.5,179C 299.479,171.565 301.145,164.065 302.5,156.5C 303.396,159.144 304.229,161.81 305,164.5C 305.49,163.207 305.657,161.873 305.5,160.5 Z"/></g>
<g><path style="opacity:1" fill="#d9bc3f" d="M 140.5,194.5 C 137.722,194.022 135.722,195.022 134.5,197.5C 133.522,197.023 132.689,196.357 132,195.5C 131.272,198.23 131.438,200.897 132.5,203.5C 129.705,211.012 127.371,218.679 125.5,226.5C 126.844,234.476 128.011,242.476 129,250.5C 129.333,251.167 129.667,251.833 130,252.5C 130.893,251.289 131.726,251.289 132.5,252.5C 132.267,257.294 134.267,260.627 138.5,262.5C 139.452,264.045 139.785,265.712 139.5,267.5C 136.639,267.513 135.639,268.679 136.5,271C 135.1,272.438 133.433,273.271 131.5,273.5C 127.318,267.801 123.652,261.801 120.5,255.5C 115.684,239.569 115.351,223.569 119.5,207.5C 120.978,207.762 122.311,207.429 123.5,206.5C 124.443,203.6 126.11,201.267 128.5,199.5C 129.747,197.958 129.747,196.458 128.5,195C 128.958,192.602 130.292,190.936 132.5,190C 131.269,188.817 131.269,187.651 132.5,186.5C 134.425,186.837 135.925,188.17 137,190.5C 137.333,189.833 137.667,189.167 138,188.5C 139.663,190.158 140.496,192.158 140.5,194.5 Z"/></g>
<g><path style="opacity:0.549" fill="#e0cf75" d="M 341.5,176.5 C 360.503,176.333 379.503,176.5 398.5,177C 399.122,178.569 399.456,180.236 399.5,182C 398.562,188.187 397.562,194.354 396.5,200.5C 394.905,205.611 392.905,210.611 390.5,215.5C 388.901,215.768 387.568,215.434 386.5,214.5C 387.496,214.586 388.329,214.252 389,213.5C 393.858,202.697 396.691,191.364 397.5,179.5C 394.5,179.5 391.5,179.5 388.5,179.5C 372.64,179.162 356.973,178.162 341.5,176.5 Z"/></g>
<g><path style="opacity:1" fill="#ddc044" d="M 417.5,179.5 C 417.203,186.228 416.37,192.895 415,199.5C 412.95,206.492 411.117,213.492 409.5,220.5C 407.952,220.179 407.285,219.179 407.5,217.5C 406.627,213.879 405.961,210.212 405.5,206.5C 406.283,204.924 407.45,203.591 409,202.5C 409.33,199.676 410.164,197.009 411.5,194.5C 410.776,191.549 410.943,188.549 412,185.5C 412.333,185.833 412.667,186.167 413,186.5C 413.101,183.3 413.768,180.3 415,177.5C 415.708,178.381 416.542,179.047 417.5,179.5 Z"/></g>
<g><path style="opacity:1" fill="#fcf497" d="M 305.5,145.5 C 309.017,155.266 311.684,165.266 313.5,175.5C 317.904,212.899 317.404,250.232 312,287.5C 308.691,303.071 303.691,318.071 297,332.5C 294.636,335.69 292.136,338.69 289.5,341.5C 287.104,343.138 284.438,344.304 281.5,345C 272.937,345.895 264.604,345.395 256.5,343.5C 258.199,343.66 259.866,343.494 261.5,343C 259.685,342.243 258.019,341.41 256.5,340.5C 264.561,342.565 272.561,342.898 280.5,341.5C 287.431,338.902 292.431,334.235 295.5,327.5C 298.429,321.829 300.929,315.829 303,309.5C 313.459,270.67 316.292,231.337 311.5,191.5C 311.307,182.611 309.974,173.944 307.5,165.5C 307.204,163.597 306.537,161.93 305.5,160.5C 305.54,157.119 305.207,153.786 304.5,150.5C 305.451,149.081 305.784,147.415 305.5,145.5 Z"/></g>
<g><path style="opacity:1" fill="#d2b43c" d="M 404.5,222.5 C 404.66,224.199 404.494,225.866 404,227.5C 402.951,226.483 401.784,226.316 400.5,227C 397.974,232.024 394.307,235.858 389.5,238.5C 389.662,236.473 389.495,234.473 389,232.5C 388.667,233.5 388.333,234.5 388,235.5C 387.667,233.833 387.333,232.167 387,230.5C 385.513,229.845 384.347,228.845 383.5,227.5C 387.308,226.564 390.975,225.23 394.5,223.5C 395.429,222.311 395.762,220.978 395.5,219.5C 398.276,219.911 398.943,219.078 397.5,217C 398.378,213.628 400.378,211.461 403.5,210.5C 403.66,213.884 403.327,217.217 402.5,220.5C 402.747,221.713 403.414,222.38 404.5,222.5 Z"/></g>
<g><path style="opacity:1" fill="#fef5a0" d="M 396.5,200.5 C 397.434,201.568 397.768,202.901 397.5,204.5C 397.371,206.216 397.038,207.883 396.5,209.5C 396.5,209.833 396.5,210.167 396.5,210.5C 394.91,213.598 393.244,216.765 391.5,220C 377.171,220.5 362.837,220.667 348.5,220.5C 348.5,225.167 348.5,229.833 348.5,234.5C 360.167,234.5 371.833,234.5 383.5,234.5C 381.622,241.464 379.955,248.464 378.5,255.5C 376.973,259.267 375.973,263.267 375.5,267.5C 373.692,266.082 373.025,264.082 373.5,261.5C 375.109,254.23 377.109,247.064 379.5,240C 379.167,239.5 378.833,239 378.5,238.5C 367.552,237.522 356.552,237.189 345.5,237.5C 345.5,230.833 345.5,224.167 345.5,217.5C 360.871,218.15 375.871,217.484 390.5,215.5C 392.905,210.611 394.905,205.611 396.5,200.5 Z"/></g>
<g><path style="opacity:1" fill="#fdf69e" d="M 420.5,156.5 C 432.5,156.5 444.5,156.5 456.5,156.5C 456.5,163.167 456.5,169.833 456.5,176.5C 444.829,176.333 433.162,176.5 421.5,177C 420.556,179.719 420.223,182.552 420.5,185.5C 419.311,196.382 416.977,207.049 413.5,217.5C 427.833,217.5 442.167,217.5 456.5,217.5C 456.5,224.167 456.5,230.833 456.5,237.5C 438.5,237.5 420.5,237.5 402.5,237.5C 401.167,237.5 400.5,236.833 400.5,235.5C 417.992,234.503 435.659,234.17 453.5,234.5C 453.5,229.833 453.5,225.167 453.5,220.5C 439.167,220.5 424.833,220.5 410.5,220.5C 410.167,220.5 409.833,220.5 409.5,220.5C 411.117,213.492 412.95,206.492 415,199.5C 416.37,192.895 417.203,186.228 417.5,179.5C 417.325,177.379 417.659,175.379 418.5,173.5C 419.167,173.5 419.833,173.5 420.5,173.5C 431.5,173.5 442.5,173.5 453.5,173.5C 453.5,168.833 453.5,164.167 453.5,159.5C 449.833,159.5 446.167,159.5 442.5,159.5C 434.657,158.833 426.657,158.167 418.5,157.5C 418.957,156.702 419.624,156.369 420.5,156.5 Z"/></g>
<g><path style="opacity:1" fill="#dcc855" d="M 396.5,210.5 C 396.997,218.582 393.33,222.249 385.5,221.5C 374.162,221.333 362.828,221.5 351.5,222C 351,222.5 350.5,223 350,223.5C 349.502,226.817 349.335,230.15 349.5,233.5C 361.012,233.172 372.346,233.505 383.5,234.5C 371.833,234.5 360.167,234.5 348.5,234.5C 348.5,229.833 348.5,225.167 348.5,220.5C 362.837,220.667 377.171,220.5 391.5,220C 393.244,216.765 394.91,213.598 396.5,210.5 Z"/></g>
<g><path style="opacity:1" fill="#d9bb3e" d="M 407.5,217.5 C 407.285,219.179 407.952,220.179 409.5,220.5C 409.833,220.5 410.167,220.5 410.5,220.5C 423.327,221.331 436.327,221.831 449.5,222C 450.416,222.374 451.25,222.874 452,223.5C 452.498,226.817 452.665,230.15 452.5,233.5C 434.83,233.333 417.164,233.5 399.5,234C 398.594,235.699 398.261,237.533 398.5,239.5C 392.656,253.548 389.656,268.215 389.5,283.5C 388.833,283.5 388.5,283.167 388.5,282.5C 388.662,280.473 388.495,278.473 388,276.5C 386.644,277.38 385.144,277.714 383.5,277.5C 383.5,276.167 383.5,274.833 383.5,273.5C 384.978,273.762 386.311,273.429 387.5,272.5C 386.191,269.749 384.524,267.249 382.5,265C 383.641,264.259 383.641,263.425 382.5,262.5C 382.833,261.5 383.5,260.833 384.5,260.5C 385.167,262.5 385.833,264.5 386.5,266.5C 387.65,263.253 388.483,259.92 389,256.5C 392.868,252.749 394.701,248.083 394.5,242.5C 392.857,242.48 391.524,243.147 390.5,244.5C 389.817,244.137 389.15,243.804 388.5,243.5C 388.366,241.708 388.699,240.042 389.5,238.5C 394.307,235.858 397.974,232.024 400.5,227C 401.784,226.316 402.951,226.483 404,227.5C 404.494,225.866 404.66,224.199 404.5,222.5C 404.58,220.716 405.58,219.049 407.5,217.5 Z"/></g>
<g><path style="opacity:1" fill="#d8b83e" d="M 405.5,193.5 C 406.833,197.833 406.833,202.167 405.5,206.5C 405.961,210.212 406.627,213.879 407.5,217.5C 405.58,219.049 404.58,220.716 404.5,222.5C 403.414,222.38 402.747,221.713 402.5,220.5C 403.327,217.217 403.66,213.884 403.5,210.5C 400.378,211.461 398.378,213.628 397.5,217C 398.943,219.078 398.276,219.911 395.5,219.5C 395.762,220.978 395.429,222.311 394.5,223.5C 390.975,225.23 387.308,226.564 383.5,227.5C 384.347,228.845 385.513,229.845 387,230.5C 387.333,232.167 387.667,233.833 388,235.5C 388.333,234.5 388.667,233.5 389,232.5C 389.495,234.473 389.662,236.473 389.5,238.5C 388.699,240.042 388.366,241.708 388.5,243.5C 387.833,243.167 387.167,242.833 386.5,242.5C 386.472,240.418 387.139,238.584 388.5,237C 387.151,236.228 386.318,235.061 386,233.5C 385.667,233.833 385.333,234.167 385,234.5C 384.517,233.552 384.351,232.552 384.5,231.5C 380.486,231.666 376.486,231.499 372.5,231C 371.421,230.044 370.255,229.211 369,228.5C 367.352,230.028 365.352,230.695 363,230.5C 358.828,230.041 354.662,229.541 350.5,229C 353.152,227.935 354.985,226.102 356,223.5C 361.877,223.614 368.21,224.281 375,225.5C 378.207,225.259 381.374,224.759 384.5,224C 385.252,223.329 385.586,222.496 385.5,221.5C 393.33,222.249 396.997,218.582 396.5,210.5C 396.5,210.167 396.5,209.833 396.5,209.5C 398.564,208.942 400.23,207.775 401.5,206C 402.656,201.652 403.989,197.486 405.5,193.5 Z"/></g>
<g><path style="opacity:1" fill="#dcc042" d="M 385.5,221.5 C 385.586,222.496 385.252,223.329 384.5,224C 381.374,224.759 378.207,225.259 375,225.5C 368.21,224.281 361.877,223.614 356,223.5C 354.985,226.102 353.152,227.935 350.5,229C 354.662,229.541 358.828,230.041 363,230.5C 365.352,230.695 367.352,230.028 369,228.5C 370.255,229.211 371.421,230.044 372.5,231C 376.486,231.499 380.486,231.666 384.5,231.5C 384.351,232.552 384.517,233.552 385,234.5C 385.333,234.167 385.667,233.833 386,233.5C 386.318,235.061 387.151,236.228 388.5,237C 387.139,238.584 386.472,240.418 386.5,242.5C 385.877,245.08 384.71,247.414 383,249.5C 382.683,247.699 382.016,247.366 381,248.5C 380.517,249.448 380.351,250.448 380.5,251.5C 380.843,253.483 380.176,254.817 378.5,255.5C 379.955,248.464 381.622,241.464 383.5,234.5C 372.346,233.505 361.012,233.172 349.5,233.5C 349.335,230.15 349.502,226.817 350,223.5C 350.5,223 351,222.5 351.5,222C 362.828,221.5 374.162,221.333 385.5,221.5 Z"/></g>
<g><path style="opacity:1" fill="#fcf39c" d="M 131.5,223.5 C 133.119,226.548 134.119,229.881 134.5,233.5C 134.692,238.27 135.525,242.937 137,247.5C 140.26,255.018 143.76,262.352 147.5,269.5C 153.201,273.69 158.534,278.523 163.5,284C 170.348,288.697 177.015,293.53 183.5,298.5C 184.116,299.798 184.116,300.798 183.5,301.5C 174.945,296.61 166.945,290.944 159.5,284.5C 139.804,269.137 130.47,248.803 131.5,223.5 Z"/></g>
<g><path style="opacity:1" fill="#dac352" d="M 410.5,220.5 C 424.833,220.5 439.167,220.5 453.5,220.5C 453.5,225.167 453.5,229.833 453.5,234.5C 435.659,234.17 417.992,234.503 400.5,235.5C 399.833,236.833 399.167,238.167 398.5,239.5C 398.261,237.533 398.594,235.699 399.5,234C 417.164,233.5 434.83,233.333 452.5,233.5C 452.665,230.15 452.498,226.817 452,223.5C 451.25,222.874 450.416,222.374 449.5,222C 436.327,221.831 423.327,221.331 410.5,220.5 Z"/></g>
<g><path style="opacity:1" fill="#d9b93d" d="M 303.5,223.5 C 304.084,230.967 305.751,238.3 308.5,245.5C 307.79,251.951 307.79,258.451 308.5,265C 308.294,267.73 307.294,269.897 305.5,271.5C 304.207,270.158 303.374,268.491 303,266.5C 302.351,269.705 301.185,272.705 299.5,275.5C 300.789,278.151 300.289,280.484 298,282.5C 297.502,279.518 297.335,276.518 297.5,273.5C 298.155,269.365 299.322,265.365 301,261.5C 301.333,262.167 301.667,262.833 302,263.5C 302.745,261.797 303.579,260.13 304.5,258.5C 303.6,256.761 302.933,254.928 302.5,253C 304.096,244.99 303.763,237.157 301.5,229.5C 301.599,227.201 302.266,225.201 303.5,223.5 Z"/></g>
<g><path style="opacity:0.472" fill="#e4d477" d="M 386.5,214.5 C 387.568,215.434 388.901,215.768 390.5,215.5C 375.871,217.484 360.871,218.15 345.5,217.5C 345.5,224.167 345.5,230.833 345.5,237.5C 356.552,237.189 367.552,237.522 378.5,238.5C 378.833,239 379.167,239.5 379.5,240C 377.109,247.064 375.109,254.23 373.5,261.5C 372.318,267.301 371.652,273.301 371.5,279.5C 363.5,279.5 355.5,279.5 347.5,279.5C 345.801,279.66 344.134,279.494 342.5,279C 343.737,278.768 344.737,278.268 345.5,277.5C 353.484,277.594 361.317,277.594 369,277.5C 370.109,270.515 371.109,263.515 372,256.5C 373.821,250.883 375.321,245.217 376.5,239.5C 368.143,239.295 359.81,239.628 351.5,240.5C 349.077,240.406 346.744,239.906 344.5,239C 343.353,231.58 343.187,224.08 344,216.5C 344.75,215.874 345.584,215.374 346.5,215C 359.829,214.5 373.163,214.333 386.5,214.5 Z"/></g>
<g><path style="opacity:0.489" fill="#e3d177" d="M 420.5,185.5 C 421.434,186.568 421.768,187.901 421.5,189.5C 421.096,197.778 419.43,205.778 416.5,213.5C 430.248,214.034 443.915,214.867 457.5,216C 458.126,216.75 458.626,217.584 459,218.5C 459.667,224.167 459.667,229.833 459,235.5C 458.691,236.766 458.191,237.933 457.5,239C 439.833,239.333 422.167,239.667 404.5,240C 398.507,252.13 395.507,264.963 395.5,278.5C 401.815,277.89 408.149,277.557 414.5,277.5C 425.326,278.33 436.326,278.83 447.5,279C 429.503,279.5 411.503,279.667 393.5,279.5C 392.635,273.254 393.135,266.921 395,260.5C 397.36,252.702 399.86,245.036 402.5,237.5C 420.5,237.5 438.5,237.5 456.5,237.5C 456.5,230.833 456.5,224.167 456.5,217.5C 442.167,217.5 427.833,217.5 413.5,217.5C 416.977,207.049 419.311,196.382 420.5,185.5 Z"/></g>
<g><path style="opacity:1" fill="#ddc147" d="M 140.5,194.5 C 135.185,203.42 132.185,213.086 131.5,223.5C 130.47,248.803 139.804,269.137 159.5,284.5C 156.223,284.422 153.723,285.756 152,288.5C 150.817,287.269 149.651,287.269 148.5,288.5C 148.316,290.415 148.65,292.415 149.5,294.5C 145.167,290.833 141.167,286.833 137.5,282.5C 139.589,282.857 141.589,283.523 143.5,284.5C 142.185,285.895 142.519,286.895 144.5,287.5C 146.51,285.829 148.843,285.162 151.5,285.5C 150.86,282.226 149.193,279.559 146.5,277.5C 145.772,274.788 144.939,272.121 144,269.5C 142.378,268.901 140.878,268.234 139.5,267.5C 139.785,265.712 139.452,264.045 138.5,262.5C 134.267,260.627 132.267,257.294 132.5,252.5C 131.726,251.289 130.893,251.289 130,252.5C 129.667,251.833 129.333,251.167 129,250.5C 128.011,242.476 126.844,234.476 125.5,226.5C 127.371,218.679 129.705,211.012 132.5,203.5C 131.438,200.897 131.272,198.23 132,195.5C 132.689,196.357 133.522,197.023 134.5,197.5C 135.722,195.022 137.722,194.022 140.5,194.5 Z"/></g>
<g><path style="opacity:0.439" fill="#e0cf76" d="M 113.5,217.5 C 112.599,229.911 113.932,241.911 117.5,253.5C 119.153,259.812 121.653,265.812 125,271.5C 135.043,286.579 147.543,299.246 162.5,309.5C 162.5,309.833 162.5,310.167 162.5,310.5C 135.178,294.9 118.345,271.567 112,240.5C 111.5,233.842 111.334,227.175 111.5,220.5C 112.001,218.754 112.668,217.754 113.5,217.5 Z"/></g>
<g><path style="opacity:1" fill="#d8ba40" d="M 386.5,242.5 C 387.167,242.833 387.833,243.167 388.5,243.5C 389.15,243.804 389.817,244.137 390.5,244.5C 391.524,243.147 392.857,242.48 394.5,242.5C 394.701,248.083 392.868,252.749 389,256.5C 388.483,259.92 387.65,263.253 386.5,266.5C 385.833,264.5 385.167,262.5 384.5,260.5C 383.5,260.833 382.833,261.5 382.5,262.5C 383.641,263.425 383.641,264.259 382.5,265C 384.524,267.249 386.191,269.749 387.5,272.5C 386.311,273.429 384.978,273.762 383.5,273.5C 383.5,274.833 383.5,276.167 383.5,277.5C 385.144,277.714 386.644,277.38 388,276.5C 388.495,278.473 388.662,280.473 388.5,282.5C 385.904,281.945 383.571,280.945 381.5,279.5C 381.501,269.92 381.167,260.587 380.5,251.5C 380.351,250.448 380.517,249.448 381,248.5C 382.016,247.366 382.683,247.699 383,249.5C 384.71,247.414 385.877,245.08 386.5,242.5 Z"/></g>
<g><path style="opacity:1" fill="#f9f296" d="M 400.5,235.5 C 400.5,236.833 401.167,237.5 402.5,237.5C 399.86,245.036 397.36,252.702 395,260.5C 393.135,266.921 392.635,273.254 393.5,279.5C 395.265,280.461 397.265,280.795 399.5,280.5C 398.391,281.29 397.058,281.79 395.5,282C 415.004,282.168 434.338,282.668 453.5,283.5C 432.167,283.5 410.833,283.5 389.5,283.5C 389.656,268.215 392.656,253.548 398.5,239.5C 399.167,238.167 399.833,236.833 400.5,235.5 Z"/></g>
<g><path style="opacity:0.957" fill="#dcce73" d="M 148.5,192.5 C 130.046,222.572 133.046,250.405 157.5,276C 166.406,283.991 176.072,290.825 186.5,296.5C 186.5,297.5 186.5,298.5 186.5,299.5C 185.391,299.443 184.391,299.11 183.5,298.5C 177.015,293.53 170.348,288.697 163.5,284C 158.534,278.523 153.201,273.69 147.5,269.5C 143.76,262.352 140.26,255.018 137,247.5C 135.525,242.937 134.692,238.27 134.5,233.5C 134.27,226.445 134.77,219.445 136,212.5C 138.276,205.281 141.61,198.614 146,192.5C 147.392,190.158 148.225,190.158 148.5,192.5 Z"/></g>
<g><path style="opacity:1" fill="#dcc145" d="M 311.5,191.5 C 316.292,231.337 313.459,270.67 303,309.5C 300.929,315.829 298.429,321.829 295.5,327.5C 296.39,325.218 296.556,322.885 296,320.5C 295.023,321.774 294.189,321.774 293.5,320.5C 297.003,316.118 299.503,311.118 301,305.5C 303.645,294.345 305.145,283.012 305.5,271.5C 307.294,269.897 308.294,267.73 308.5,265C 307.79,258.451 307.79,251.951 308.5,245.5C 309.751,257.812 311.084,258.146 312.5,246.5C 312.666,228.154 312.333,209.82 311.5,191.5 Z"/></g>
<g><path style="opacity:1" fill="#d8bb3f" d="M 305.5,271.5 C 305.145,283.012 303.645,294.345 301,305.5C 299.503,311.118 297.003,316.118 293.5,320.5C 292.694,319.003 292.028,317.336 291.5,315.5C 295.158,312.644 295.491,309.31 292.5,305.5C 291.719,306.729 291.219,308.062 291,309.5C 290.667,308.833 290.333,308.167 290,307.5C 289.994,310.264 288.828,312.264 286.5,313.5C 290.449,301.039 293.449,288.372 295.5,275.5C 296.338,275.158 296.672,274.492 296.5,273.5C 296.833,273.5 297.167,273.5 297.5,273.5C 297.335,276.518 297.502,279.518 298,282.5C 300.289,280.484 300.789,278.151 299.5,275.5C 301.185,272.705 302.351,269.705 303,266.5C 303.374,268.491 304.207,270.158 305.5,271.5 Z"/></g>
<g><path style="opacity:0.749" fill="#dfcd77" d="M 314.5,171.5 C 323.168,221.967 320.002,271.634 305,320.5C 302.08,329.515 297.247,337.182 290.5,343.5C 290.672,342.508 290.338,341.842 289.5,341.5C 292.136,338.69 294.636,335.69 297,332.5C 303.691,318.071 308.691,303.071 312,287.5C 317.404,250.232 317.904,212.899 313.5,175.5C 313.232,173.901 313.566,172.568 314.5,171.5 Z"/></g>
<g><path style="opacity:1" fill="#d9bb3e" d="M 139.5,267.5 C 140.878,268.234 142.378,268.901 144,269.5C 144.939,272.121 145.772,274.788 146.5,277.5C 149.193,279.559 150.86,282.226 151.5,285.5C 148.843,285.162 146.51,285.829 144.5,287.5C 142.519,286.895 142.185,285.895 143.5,284.5C 141.589,283.523 139.589,282.857 137.5,282.5C 135.242,279.643 133.242,276.643 131.5,273.5C 133.433,273.271 135.1,272.438 136.5,271C 135.639,268.679 136.639,267.513 139.5,267.5 Z"/></g>
<g><path style="opacity:1" fill="#fbf39a" d="M 373.5,261.5 C 373.025,264.082 373.692,266.082 375.5,267.5C 375.041,272.734 374.374,277.9 373.5,283C 363.506,283.5 353.506,283.666 343.5,283.5C 343.002,288.152 342.669,292.819 342.5,297.5C 353.167,297.5 363.833,297.5 374.5,297.5C 374.616,300.86 374.949,304.193 375.5,307.5C 373.692,308.918 373.025,310.918 373.5,313.5C 372.291,309.382 371.624,305.049 371.5,300.5C 360.5,300.5 349.5,300.5 338.5,300.5C 339.43,293.868 340.097,287.202 340.5,280.5C 343.059,280.802 345.393,280.468 347.5,279.5C 355.5,279.5 363.5,279.5 371.5,279.5C 371.652,273.301 372.318,267.301 373.5,261.5 Z"/></g>
<g><path style="opacity:1" fill="#d7b83d" d="M 381.5,279.5 C 383.571,280.945 385.904,281.945 388.5,282.5C 388.5,283.167 388.833,283.5 389.5,283.5C 390.902,287.137 392.902,287.47 395.5,284.5C 396.574,286.216 398.241,287.216 400.5,287.5C 416.808,287.266 433.141,287.266 449.5,287.5C 449.663,289.857 449.497,292.19 449,294.5C 441.571,293.659 434.071,292.993 426.5,292.5C 417.824,293.249 409.324,293.916 401,294.5C 399.956,293.377 399.29,292.044 399,290.5C 397.182,293 394.848,294.666 392,295.5C 390.624,295.316 389.791,294.649 389.5,293.5C 389.67,292.178 389.337,291.011 388.5,290C 386.231,289.242 384.064,289.409 382,290.5C 381.192,288.421 381.359,286.421 382.5,284.5C 383.609,285.59 384.609,285.59 385.5,284.5C 383.589,283.523 381.589,282.857 379.5,282.5C 379.285,280.821 379.952,279.821 381.5,279.5 Z"/></g>
<g><path style="opacity:1" fill="#d8bb3e" d="M 380.5,251.5 C 381.167,260.587 381.501,269.92 381.5,279.5C 379.952,279.821 379.285,280.821 379.5,282.5C 377.489,288.624 373.156,291.457 366.5,291C 370.112,292.165 373.779,293.332 377.5,294.5C 382.499,297.92 383.666,302.587 381,308.5C 379,309.5 379,310.5 381,311.5C 381.333,310.833 381.667,310.167 382,309.5C 381.548,313.937 381.381,318.27 381.5,322.5C 383.256,325.615 384.59,328.948 385.5,332.5C 384.041,332.567 382.708,332.234 381.5,331.5C 379.764,328.159 378.764,324.492 378.5,320.5C 377.418,312.679 376.418,304.845 375.5,297C 364.839,296.5 354.172,296.333 343.5,296.5C 343.343,295.127 343.51,293.793 344,292.5C 345.814,293.76 347.647,293.76 349.5,292.5C 346.906,290.239 346.906,288.072 349.5,286C 358.16,285.5 366.827,285.334 375.5,285.5C 375.187,282.753 375.52,280.086 376.5,277.5C 380.103,273.76 380.436,269.76 377.5,265.5C 378.417,262.242 378.751,258.909 378.5,255.5C 380.176,254.817 380.843,253.483 380.5,251.5 Z"/></g>
<g><path style="opacity:1" fill="#dcc248" d="M 378.5,255.5 C 378.751,258.909 378.417,262.242 377.5,265.5C 380.436,269.76 380.103,273.76 376.5,277.5C 375.52,280.086 375.187,282.753 375.5,285.5C 366.827,285.334 358.16,285.5 349.5,286C 346.906,288.072 346.906,290.239 349.5,292.5C 347.647,293.76 345.814,293.76 344,292.5C 343.51,293.793 343.343,295.127 343.5,296.5C 354.172,296.333 364.839,296.5 375.5,297C 376.418,304.845 377.418,312.679 378.5,320.5C 377.34,316.319 376.34,311.985 375.5,307.5C 374.949,304.193 374.616,300.86 374.5,297.5C 363.833,297.5 353.167,297.5 342.5,297.5C 342.669,292.819 343.002,288.152 343.5,283.5C 353.506,283.666 363.506,283.5 373.5,283C 374.374,277.9 375.041,272.734 375.5,267.5C 375.973,263.267 376.973,259.267 378.5,255.5 Z"/></g>
<g><path style="opacity:1" fill="#fcf39d" d="M 120.5,255.5 C 123.652,261.801 127.318,267.801 131.5,273.5C 133.242,276.643 135.242,279.643 137.5,282.5C 141.167,286.833 145.167,290.833 149.5,294.5C 154.858,299.186 160.525,303.519 166.5,307.5C 166.5,308.833 165.833,309.5 164.5,309.5C 163.833,309.5 163.167,309.5 162.5,309.5C 147.543,299.246 135.043,286.579 125,271.5C 121.653,265.812 119.153,259.812 117.5,253.5C 117.56,252.957 117.893,252.624 118.5,252.5C 119.176,253.602 119.842,254.602 120.5,255.5 Z"/></g>
<g><path style="opacity:1" fill="#dcc043" d="M 395.5,284.5 C 414.5,284.5 433.5,284.5 452.5,284.5C 452.5,288.5 452.5,292.5 452.5,296.5C 431.327,296.169 410.327,296.503 389.5,297.5C 389.947,307.931 391.947,317.931 395.5,327.5C 397.98,334.281 400.647,340.948 403.5,347.5C 397.794,347.829 392.128,347.495 386.5,346.5C 384.374,342.32 382.708,337.986 381.5,333.5C 383.532,334.048 384.532,335.381 384.5,337.5C 386.167,337.5 387.833,337.5 389.5,337.5C 389.708,339.92 389.374,342.253 388.5,344.5C 391.577,345.799 394.577,345.632 397.5,344C 394.332,343.418 393.999,342.418 396.5,341C 394.86,339.605 393.36,338.105 392,336.5C 390.554,332.278 389.72,327.945 389.5,323.5C 388.167,323.5 386.833,323.5 385.5,323.5C 384.668,317.412 385.002,311.245 386.5,305C 385.45,301.545 385.283,298.045 386,294.5C 387.011,293.663 388.178,293.33 389.5,293.5C 389.791,294.649 390.624,295.316 392,295.5C 394.848,294.666 397.182,293 399,290.5C 399.29,292.044 399.956,293.377 401,294.5C 409.324,293.916 417.824,293.249 426.5,292.5C 434.071,292.993 441.571,293.659 449,294.5C 449.497,292.19 449.663,289.857 449.5,287.5C 433.141,287.266 416.808,287.266 400.5,287.5C 398.241,287.216 396.574,286.216 395.5,284.5 Z"/></g>
<g><path style="opacity:1" fill="#ddc753" d="M 389.5,283.5 C 410.833,283.5 432.167,283.5 453.5,283.5C 453.5,288.167 453.5,292.833 453.5,297.5C 432.167,297.5 410.833,297.5 389.5,297.5C 410.327,296.503 431.327,296.169 452.5,296.5C 452.5,292.5 452.5,288.5 452.5,284.5C 433.5,284.5 414.5,284.5 395.5,284.5C 392.902,287.47 390.902,287.137 389.5,283.5 Z"/></g>
<g><path style="opacity:1" fill="#fcf29b" d="M 294.5,265.5 C 295.324,268.764 295.658,272.098 295.5,275.5C 293.449,288.372 290.449,301.039 286.5,313.5C 284.201,318.147 281.868,322.814 279.5,327.5C 276.728,328.767 274.061,328.767 271.5,327.5C 274.307,327.166 276.307,326.499 277.5,325.5C 280.548,319.364 283.215,313.03 285.5,306.5C 289.204,292.787 292.204,279.12 294.5,265.5 Z"/></g>
<g><path style="opacity:1" fill="#fcf59c" d="M 399.5,280.5 C 418.5,280.5 437.5,280.5 456.5,280.5C 456.5,287.167 456.5,293.833 456.5,300.5C 435.5,300.5 414.5,300.5 393.5,300.5C 393.237,308.776 394.57,316.776 397.5,324.5C 396.883,324.389 396.383,324.056 396,323.5C 395.51,324.793 395.343,326.127 395.5,327.5C 391.947,317.931 389.947,307.931 389.5,297.5C 410.833,297.5 432.167,297.5 453.5,297.5C 453.5,292.833 453.5,288.167 453.5,283.5C 434.338,282.668 415.004,282.168 395.5,282C 397.058,281.79 398.391,281.29 399.5,280.5 Z"/></g>
<g><path style="opacity:1" fill="#dabe41" d="M 159.5,284.5 C 166.945,290.944 174.945,296.61 183.5,301.5C 190.036,305.599 197.036,308.933 204.5,311.5C 200.572,312.63 197.238,314.63 194.5,317.5C 194.119,318.931 193.119,319.764 191.5,320C 192.056,320.383 192.389,320.883 192.5,321.5C 183.141,318.146 174.474,313.48 166.5,307.5C 160.525,303.519 154.858,299.186 149.5,294.5C 148.65,292.415 148.316,290.415 148.5,288.5C 149.651,287.269 150.817,287.269 152,288.5C 153.723,285.756 156.223,284.422 159.5,284.5 Z"/></g>
<g><path style="opacity:1" fill="#ddcc76" d="M 345.5,277.5 C 344.737,278.268 343.737,278.768 342.5,279C 344.134,279.494 345.801,279.66 347.5,279.5C 345.393,280.468 343.059,280.802 340.5,280.5C 340.097,287.202 339.43,293.868 338.5,300.5C 349.5,300.5 360.5,300.5 371.5,300.5C 371.624,305.049 372.291,309.382 373.5,313.5C 375.407,326.03 379.073,338.03 384.5,349.5C 392.138,350.497 399.804,350.831 407.5,350.5C 400.018,351.492 392.352,351.825 384.5,351.5C 382.827,350.657 381.66,349.324 381,347.5C 375.133,333.031 371.299,318.031 369.5,302.5C 358.585,302.82 347.752,302.487 337,301.5C 336.977,294.1 337.811,286.767 339.5,279.5C 341.173,277.914 343.173,277.247 345.5,277.5 Z"/></g>
<g><path style="opacity:0.415" fill="#e1d07b" d="M 414.5,277.5 C 428.931,277.034 443.264,277.534 457.5,279C 458.126,279.75 458.626,280.584 459,281.5C 459.877,288.249 459.544,294.916 458,301.5C 437.242,302.493 416.409,302.827 395.5,302.5C 396.883,318.803 401.883,333.803 410.5,347.5C 409.778,348.551 408.778,349.218 407.5,349.5C 407.029,344.89 405.196,340.89 402,337.5C 400.648,333.082 399.148,328.749 397.5,324.5C 394.57,316.776 393.237,308.776 393.5,300.5C 414.5,300.5 435.5,300.5 456.5,300.5C 456.5,293.833 456.5,287.167 456.5,280.5C 437.5,280.5 418.5,280.5 399.5,280.5C 397.265,280.795 395.265,280.461 393.5,279.5C 411.503,279.667 429.503,279.5 447.5,279C 436.326,278.83 425.326,278.33 414.5,277.5 Z"/></g>
<g><path style="opacity:1" fill="#fcf49d" d="M 166.5,307.5 C 174.474,313.48 183.141,318.146 192.5,321.5C 212.734,331.229 234.067,337.562 256.5,340.5C 258.019,341.41 259.685,342.243 261.5,343C 259.866,343.494 258.199,343.66 256.5,343.5C 223.055,339.434 192.388,328.101 164.5,309.5C 165.833,309.5 166.5,308.833 166.5,307.5 Z"/></g>
<g><path style="opacity:1" fill="#fcf49b" d="M 183.5,298.5 C 184.391,299.11 185.391,299.443 186.5,299.5C 214.878,314.621 245.212,323.288 277.5,325.5C 276.307,326.499 274.307,327.166 271.5,327.5C 248.149,326.078 225.816,320.745 204.5,311.5C 197.036,308.933 190.036,305.599 183.5,301.5C 184.116,300.798 184.116,299.798 183.5,298.5 Z"/></g>
<g><path style="opacity:0.502" fill="#ddcc71" d="M 162.5,309.5 C 163.167,309.5 163.833,309.5 164.5,309.5C 192.388,328.101 223.055,339.434 256.5,343.5C 264.604,345.395 272.937,345.895 281.5,345C 284.438,344.304 287.104,343.138 289.5,341.5C 290.338,341.842 290.672,342.508 290.5,343.5C 285.212,346.929 279.379,348.263 273,347.5C 232.525,345.031 195.692,332.698 162.5,310.5C 162.5,310.167 162.5,309.833 162.5,309.5 Z"/></g>
<g><path style="opacity:1" fill="#d6b740" d="M 379.5,282.5 C 381.589,282.857 383.589,283.523 385.5,284.5C 384.609,285.59 383.609,285.59 382.5,284.5C 381.359,286.421 381.192,288.421 382,290.5C 384.064,289.409 386.231,289.242 388.5,290C 389.337,291.011 389.67,292.178 389.5,293.5C 388.178,293.33 387.011,293.663 386,294.5C 385.283,298.045 385.45,301.545 386.5,305C 385.002,311.245 384.668,317.412 385.5,323.5C 386.833,323.5 388.167,323.5 389.5,323.5C 389.72,327.945 390.554,332.278 392,336.5C 393.36,338.105 394.86,339.605 396.5,341C 393.999,342.418 394.332,343.418 397.5,344C 394.577,345.632 391.577,345.799 388.5,344.5C 389.374,342.253 389.708,339.92 389.5,337.5C 387.833,337.5 386.167,337.5 384.5,337.5C 384.532,335.381 383.532,334.048 381.5,333.5C 381.5,332.833 381.5,332.167 381.5,331.5C 382.708,332.234 384.041,332.567 385.5,332.5C 384.59,328.948 383.256,325.615 381.5,322.5C 381.381,318.27 381.548,313.937 382,309.5C 381.667,310.167 381.333,310.833 381,311.5C 379,310.5 379,309.5 381,308.5C 383.666,302.587 382.499,297.92 377.5,294.5C 373.779,293.332 370.112,292.165 366.5,291C 373.156,291.457 377.489,288.624 379.5,282.5 Z"/></g>
<g><path style="opacity:1" fill="#dbbe42" d="M 234.5,325.5 C 232.382,326.137 230.049,326.137 227.5,325.5C 225.119,325.488 223.452,326.488 222.5,328.5C 231.943,331.898 241.443,334.898 251,337.5C 253.197,337.349 255.364,337.015 257.5,336.5C 265.192,338.406 272.858,340.072 280.5,341.5C 272.561,342.898 264.561,342.565 256.5,340.5C 234.067,337.562 212.734,331.229 192.5,321.5C 192.389,320.883 192.056,320.383 191.5,320C 193.119,319.764 194.119,318.931 194.5,317.5C 198.364,316.844 202.197,315.844 206,314.5C 207.811,315.078 209.645,315.578 211.5,316C 209.862,317.801 208.028,317.968 206,316.5C 204.829,317.34 203.662,318.173 202.5,319C 206.123,322.003 209.79,322.169 213.5,319.5C 220.637,321.4 227.637,323.4 234.5,325.5 Z"/></g>
<g><path style="opacity:0.996" fill="#dfd077" d="M 186.5,296.5 C 214.368,312.606 244.368,321.272 276.5,322.5C 278.873,317.097 281.206,311.764 283.5,306.5C 284.167,306.5 284.833,306.5 285.5,306.5C 283.215,313.03 280.548,319.364 277.5,325.5C 245.212,323.288 214.878,314.621 186.5,299.5C 186.5,298.5 186.5,297.5 186.5,296.5 Z"/></g>
<g><path style="opacity:1" fill="#dbc146" d="M 204.5,311.5 C 225.816,320.745 248.149,326.078 271.5,327.5C 274.061,328.767 276.728,328.767 279.5,327.5C 278.608,330.113 276.941,330.779 274.5,329.5C 273.143,333.016 270.809,334.016 267.5,332.5C 268.833,331.833 270.167,331.167 271.5,330.5C 266.533,329.671 261.533,329.171 256.5,329C 251.709,327.988 246.875,326.821 242,325.5C 240.553,325.945 239.22,326.612 238,327.5C 236.278,327.389 236.112,326.889 237.5,326C 236.552,325.517 235.552,325.351 234.5,325.5C 227.637,323.4 220.637,321.4 213.5,319.5C 209.79,322.169 206.123,322.003 202.5,319C 203.662,318.173 204.829,317.34 206,316.5C 208.028,317.968 209.862,317.801 211.5,316C 209.645,315.578 207.811,315.078 206,314.5C 202.197,315.844 198.364,316.844 194.5,317.5C 197.238,314.63 200.572,312.63 204.5,311.5 Z"/></g>
<g><path style="opacity:1" fill="#d8ba3d" d="M 293.5,320.5 C 294.189,321.774 295.023,321.774 296,320.5C 296.556,322.885 296.39,325.218 295.5,327.5C 292.431,334.235 287.431,338.902 280.5,341.5C 272.858,340.072 265.192,338.406 257.5,336.5C 255.364,337.015 253.197,337.349 251,337.5C 241.443,334.898 231.943,331.898 222.5,328.5C 223.452,326.488 225.119,325.488 227.5,325.5C 230.049,326.137 232.382,326.137 234.5,325.5C 235.552,325.351 236.552,325.517 237.5,326C 236.112,326.889 236.278,327.389 238,327.5C 239.22,326.612 240.553,325.945 242,325.5C 246.875,326.821 251.709,327.988 256.5,329C 261.533,329.171 266.533,329.671 271.5,330.5C 270.167,331.167 268.833,331.833 267.5,332.5C 270.809,334.016 273.143,333.016 274.5,329.5C 276.941,330.779 278.608,330.113 279.5,327.5C 281.868,322.814 284.201,318.147 286.5,313.5C 288.828,312.264 289.994,310.264 290,307.5C 290.333,308.167 290.667,308.833 291,309.5C 291.219,308.062 291.719,306.729 292.5,305.5C 295.491,309.31 295.158,312.644 291.5,315.5C 292.028,317.336 292.694,319.003 293.5,320.5 Z"/></g>
<g><path style="opacity:1" fill="#fcf59f" d="M 375.5,307.5 C 376.34,311.985 377.34,316.319 378.5,320.5C 378.764,324.492 379.764,328.159 381.5,331.5C 381.5,332.167 381.5,332.833 381.5,333.5C 382.708,337.986 384.374,342.32 386.5,346.5C 392.128,347.495 397.794,347.829 403.5,347.5C 400.647,340.948 397.98,334.281 395.5,327.5C 395.343,326.127 395.51,324.793 396,323.5C 396.383,324.056 396.883,324.389 397.5,324.5C 399.148,328.749 400.648,333.082 402,337.5C 405.196,340.89 407.029,344.89 407.5,349.5C 407.5,349.833 407.5,350.167 407.5,350.5C 399.804,350.831 392.138,350.497 384.5,349.5C 379.073,338.03 375.407,326.03 373.5,313.5C 373.025,310.918 373.692,308.918 375.5,307.5 Z"/></g>
<g><path style="opacity:0.246" fill="#e5dba2" d="M 410.5,347.5 C 410.703,349.39 410.037,350.89 408.5,352C 400.323,352.823 392.323,352.656 384.5,351.5C 392.352,351.825 400.018,351.492 407.5,350.5C 407.5,350.167 407.5,349.833 407.5,349.5C 408.778,349.218 409.778,348.551 410.5,347.5 Z"/></g>
</svg>
