<?xml version="1.0" encoding="UTF-8"?>
<!DOCTYPE svg PUBLIC "-//W3C//DTD SVG 1.1//EN" "http://www.w3.org/Graphics/SVG/1.1/DTD/svg11.dtd">
<svg xmlns="http://www.w3.org/2000/svg" version="1.1" width="500px" height="500px" style="shape-rendering:geometricPrecision; text-rendering:geometricPrecision; image-rendering:optimizeQuality; fill-rule:evenodd; clip-rule:evenodd" xmlns:xlink="http://www.w3.org/1999/xlink">
<g><path style="opacity:1" fill="#0e57aa" d="M 353.5,108.5 C 357.235,111.397 361.568,113.563 366.5,115C 366.957,115.414 367.291,115.914 367.5,116.5C 365.96,117.532 365.46,118.865 366,120.5C 367.388,119.446 368.888,119.28 370.5,120C 372.806,122.139 375.473,123.639 378.5,124.5C 376.5,125.167 374.5,125.833 372.5,126.5C 376.117,127.714 379.451,127.048 382.5,124.5C 383.736,125.246 385.07,125.579 386.5,125.5C 386.5,126.5 386.5,127.5 386.5,128.5C 390.061,128.915 389.894,129.915 386,131.5C 385.667,131.167 385.333,130.833 385,130.5C 384.86,132.256 385.36,133.922 386.5,135.5C 384.826,136.88 383.16,138.213 381.5,139.5C 379.337,139.078 378.003,137.744 377.5,135.5C 376.914,135.709 376.414,136.043 376,136.5C 374.211,134.771 372.044,134.104 369.5,134.5C 369.344,130.865 368.178,130.532 366,133.5C 361.53,131.101 356.697,129.768 351.5,129.5C 348.865,127.177 345.865,125.344 342.5,124C 335.302,122.067 327.969,121.233 320.5,121.5C 319.167,121.5 317.833,121.5 316.5,121.5C 315.158,120.207 313.491,119.374 311.5,119C 301.978,119.105 292.645,118.272 283.5,116.5C 279.822,118.489 277.822,121.489 277.5,125.5C 275.506,129.804 273.506,134.137 271.5,138.5C 269.088,138.694 268.088,140.027 268.5,142.5C 267.5,142.5 266.5,142.5 265.5,142.5C 264.413,134.587 263.413,134.753 262.5,143C 262.911,144.144 263.244,145.311 263.5,146.5C 262.201,150.411 260.534,154.078 258.5,157.5C 259.373,160.118 260.039,162.784 260.5,165.5C 259.522,167.777 258.855,170.11 258.5,172.5C 257.842,171.602 257.176,170.602 256.5,169.5C 255.833,171.5 255.167,173.5 254.5,175.5C 253.808,174.975 253.308,174.308 253,173.5C 252.581,174.672 251.915,175.672 251,176.5C 249.663,173.009 248.83,169.342 248.5,165.5C 245.203,165.329 244.869,165.995 247.5,167.5C 246.078,169.965 245.078,172.631 244.5,175.5C 243.833,173.833 243.167,172.167 242.5,170.5C 241.818,171.243 241.151,171.909 240.5,172.5C 240.5,170.833 240.5,169.167 240.5,167.5C 243.655,150.855 248.822,134.855 256,119.5C 262.911,105.311 274.244,98.3106 290,98.5C 311.836,98.7512 333.002,102.085 353.5,108.5 Z"/></g>
<g><path style="opacity:0.816" fill="#4d6da8" d="M 316.5,121.5 C 305.925,120.136 295.591,119.636 285.5,120C 284.167,120.333 282.833,120.667 281.5,121C 280.267,122.667 278.933,124.167 277.5,125.5C 277.822,121.489 279.822,118.489 283.5,116.5C 292.645,118.272 301.978,119.105 311.5,119C 313.491,119.374 315.158,120.207 316.5,121.5 Z"/></g>
<g><path style="opacity:1" fill="#3d64a0" d="M 320.5,121.5 C 327.969,121.233 335.302,122.067 342.5,124C 345.865,125.344 348.865,127.177 351.5,129.5C 341.331,125.868 330.997,123.201 320.5,121.5 Z"/></g>
<g><path style="opacity:1" fill="#2d5c9b" d="M 124.5,126.5 C 123.391,127.29 122.058,127.79 120.5,128C 103.167,128.333 85.8333,128.667 68.5,129C 67.4366,130.188 66.1033,130.688 64.5,130.5C 64.8493,133.463 63.8493,135.796 61.5,137.5C 62.9441,141.915 65.6107,145.248 69.5,147.5C 69.5,147.833 69.5,148.167 69.5,148.5C 62.0397,146.256 59.2064,141.256 61,133.5C 62.5,130.667 64.6667,128.5 67.5,127C 86.4971,126.5 105.497,126.333 124.5,126.5 Z"/></g>
<g><path style="opacity:1" fill="#336099" d="M 126.5,126.5 C 155.338,126.169 184.005,126.502 212.5,127.5C 193.329,127.536 174.162,127.869 155,128.5C 145.282,128.705 135.782,128.038 126.5,126.5 Z"/></g>
<g><path style="opacity:1" fill="#0656a9" d="M 124.5,126.5 C 125.167,126.5 125.833,126.5 126.5,126.5C 135.782,128.038 145.282,128.705 155,128.5C 174.162,127.869 193.329,127.536 212.5,127.5C 217.145,129.121 219.812,132.454 220.5,137.5C 219.826,139.195 219.159,140.862 218.5,142.5C 216.805,143.011 215.139,143.678 213.5,144.5C 214.55,145.429 214.55,146.095 213.5,146.5C 165.378,147.279 117.378,147.612 69.5,147.5C 65.6107,145.248 62.9441,141.915 61.5,137.5C 63.8493,135.796 64.8493,133.463 64.5,130.5C 66.1033,130.688 67.4366,130.188 68.5,129C 85.8333,128.667 103.167,128.333 120.5,128C 122.058,127.79 123.391,127.29 124.5,126.5 Z"/></g>
<g><path style="opacity:1" fill="#225ba8" d="M 353.5,108.5 C 375.892,115.549 394.892,127.883 410.5,145.5C 409.5,145.5 408.5,145.5 407.5,145.5C 407.648,151.418 406.314,151.918 403.5,147C 404.627,145.943 405.127,144.777 405,143.5C 402.993,142.331 400.827,141.665 398.5,141.5C 398.33,142.822 398.663,143.989 399.5,145C 396.839,145.062 394.505,144.062 392.5,142C 396.145,141.856 398.479,140.023 399.5,136.5C 399.192,135.692 398.692,135.025 398,134.5C 395.086,137.371 391.752,139.704 388,141.5C 387.833,141.833 387.667,142.167 387.5,142.5C 391.146,144.666 390.813,146.666 386.5,148.5C 389.612,151.698 392.945,154.698 396.5,157.5C 397.309,159.071 397.643,160.738 397.5,162.5C 384.604,148.057 369.271,137.057 351.5,129.5C 356.697,129.768 361.53,131.101 366,133.5C 368.178,130.532 369.344,130.865 369.5,134.5C 372.044,134.104 374.211,134.771 376,136.5C 376.414,136.043 376.914,135.709 377.5,135.5C 378.003,137.744 379.337,139.078 381.5,139.5C 383.16,138.213 384.826,136.88 386.5,135.5C 385.36,133.922 384.86,132.256 385,130.5C 385.333,130.833 385.667,131.167 386,131.5C 389.894,129.915 390.061,128.915 386.5,128.5C 386.5,127.5 386.5,126.5 386.5,125.5C 385.07,125.579 383.736,125.246 382.5,124.5C 379.451,127.048 376.117,127.714 372.5,126.5C 374.5,125.833 376.5,125.167 378.5,124.5C 375.473,123.639 372.806,122.139 370.5,120C 368.888,119.28 367.388,119.446 366,120.5C 365.46,118.865 365.96,117.532 367.5,116.5C 367.291,115.914 366.957,115.414 366.5,115C 361.568,113.563 357.235,111.397 353.5,108.5 Z"/></g>
<g><path style="opacity:1" fill="#7b90bf" d="M 218.5,142.5 C 217.833,145.167 216.167,146.833 213.5,147.5C 213.5,147.167 213.5,146.833 213.5,146.5C 214.55,146.095 214.55,145.429 213.5,144.5C 215.139,143.678 216.805,143.011 218.5,142.5 Z"/></g>
<g><path style="opacity:0.873" fill="#264c92" d="M 213.5,146.5 C 213.5,146.833 213.5,147.167 213.5,147.5C 213.167,147.5 212.833,147.5 212.5,147.5C 180.36,148.145 148.36,148.812 116.5,149.5C 100.658,149.83 84.9911,149.496 69.5,148.5C 69.5,148.167 69.5,147.833 69.5,147.5C 117.378,147.612 165.378,147.279 213.5,146.5 Z"/></g>
<g><path style="opacity:0.075" fill="#739fc8" d="M 212.5,147.5 C 212.082,148.222 211.416,148.722 210.5,149C 179.168,149.5 147.835,149.667 116.5,149.5C 148.36,148.812 180.36,148.145 212.5,147.5 Z"/></g>
<g><path style="opacity:1" fill="#3764ab" d="M 271.5,138.5 C 266.103,150.94 262.27,163.94 260,177.5C 256.29,198.489 254.79,219.156 255.5,239.5C 255.167,239.5 254.833,239.5 254.5,239.5C 253.186,237.085 252.519,234.252 252.5,231C 252.772,223.803 252.772,216.636 252.5,209.5C 252.808,208.692 253.308,208.025 254,207.5C 254.178,200.746 255.011,194.08 256.5,187.5C 256.558,184.953 255.891,182.62 254.5,180.5C 255.077,178.45 256.41,177.45 258.5,177.5C 258.5,175.833 258.5,174.167 258.5,172.5C 258.855,170.11 259.522,167.777 260.5,165.5C 260.039,162.784 259.373,160.118 258.5,157.5C 260.534,154.078 262.201,150.411 263.5,146.5C 263.244,145.311 262.911,144.144 262.5,143C 263.413,134.753 264.413,134.587 265.5,142.5C 266.5,142.5 267.5,142.5 268.5,142.5C 268.088,140.027 269.088,138.694 271.5,138.5 Z"/></g>
<g><path style="opacity:1" fill="#0c56aa" d="M 410.5,145.5 C 412.853,147.86 414.853,150.527 416.5,153.5C 417.975,157 418.975,160.667 419.5,164.5C 420.5,164.5 421.5,164.5 422.5,164.5C 422.5,165.5 422.5,166.5 422.5,167.5C 421.07,167.579 419.736,167.246 418.5,166.5C 417.548,168.045 417.215,169.712 417.5,171.5C 416.325,171.719 415.325,171.386 414.5,170.5C 414.023,169.069 413.357,167.736 412.5,166.5C 412.82,169.532 411.987,172.532 410,175.5C 409.586,175.957 409.086,176.291 408.5,176.5C 407.859,175.007 406.859,174.007 405.5,173.5C 402.865,169.857 400.199,166.19 397.5,162.5C 397.643,160.738 397.309,159.071 396.5,157.5C 392.945,154.698 389.612,151.698 386.5,148.5C 390.813,146.666 391.146,144.666 387.5,142.5C 387.667,142.167 387.833,141.833 388,141.5C 391.752,139.704 395.086,137.371 398,134.5C 398.692,135.025 399.192,135.692 399.5,136.5C 398.479,140.023 396.145,141.856 392.5,142C 394.505,144.062 396.839,145.062 399.5,145C 398.663,143.989 398.33,142.822 398.5,141.5C 400.827,141.665 402.993,142.331 405,143.5C 405.127,144.777 404.627,145.943 403.5,147C 406.314,151.918 407.648,151.418 407.5,145.5C 408.5,145.5 409.5,145.5 410.5,145.5 Z"/></g>
<g><path style="opacity:0.184" fill="#7f9ccb" d="M 240.5,167.5 C 240.5,169.167 240.5,170.833 240.5,172.5C 240.771,174.38 240.104,175.713 238.5,176.5C 238.99,173.345 239.656,170.345 240.5,167.5 Z"/></g>
<g><path style="opacity:1" fill="#0c57aa" d="M 258.5,172.5 C 258.5,174.167 258.5,175.833 258.5,177.5C 256.41,177.45 255.077,178.45 254.5,180.5C 255.891,182.62 256.558,184.953 256.5,187.5C 255.011,194.08 254.178,200.746 254,207.5C 253.308,208.025 252.808,208.692 252.5,209.5C 252.772,216.636 252.772,223.803 252.5,231C 252.519,234.252 253.186,237.085 254.5,239.5C 254.334,247.507 254.5,255.507 255,263.5C 257.118,275.39 258.951,287.39 260.5,299.5C 261.5,299.5 262.5,299.5 263.5,299.5C 263.336,302.187 263.503,304.854 264,307.5C 264.122,309.437 264.955,310.77 266.5,311.5C 268.241,313.395 269.241,315.728 269.5,318.5C 266.866,320.519 267.033,322.519 270,324.5C 270.495,326.473 270.662,328.473 270.5,330.5C 273.645,331.077 275.145,333.077 275,336.5C 280.542,339.857 280.376,341.69 274.5,342C 274.406,343.422 274.072,344.922 273.5,346.5C 268.139,346.403 265.472,343.736 265.5,338.5C 261.348,338.369 260.682,336.869 263.5,334C 262.552,333.517 261.552,333.351 260.5,333.5C 260.137,330.437 259.47,327.437 258.5,324.5C 259.897,321.968 259.564,319.801 257.5,318C 257.966,312.789 259.299,307.956 261.5,303.5C 258.079,303.238 257.079,304.572 258.5,307.5C 258.167,308.5 257.5,309.167 256.5,309.5C 255.167,308.167 253.833,306.833 252.5,305.5C 251.964,307.969 250.964,310.136 249.5,312C 251.349,313.093 253.016,314.426 254.5,316C 252.87,319.062 253.87,320.729 257.5,321C 256.299,321.903 255.465,323.069 255,324.5C 251.731,320.28 248.898,315.78 246.5,311C 250.359,304.25 250.359,297.416 246.5,290.5C 245.5,290.833 244.833,291.5 244.5,292.5C 245.446,295.905 246.446,299.571 247.5,303.5C 246.5,303.5 245.5,303.5 244.5,303.5C 243.912,300.937 242.912,298.604 241.5,296.5C 241.5,295.833 241.5,295.167 241.5,294.5C 241.279,291.933 240.612,289.599 239.5,287.5C 237.959,282.635 237.292,277.635 237.5,272.5C 238.059,268.624 238.725,264.791 239.5,261C 238.975,260.308 238.308,259.808 237.5,259.5C 236.821,241.436 236.154,223.436 235.5,205.5C 235.59,195.723 236.59,186.056 238.5,176.5C 240.104,175.713 240.771,174.38 240.5,172.5C 241.151,171.909 241.818,171.243 242.5,170.5C 243.167,172.167 243.833,173.833 244.5,175.5C 245.078,172.631 246.078,169.965 247.5,167.5C 244.869,165.995 245.203,165.329 248.5,165.5C 248.83,169.342 249.663,173.009 251,176.5C 251.915,175.672 252.581,174.672 253,173.5C 253.308,174.308 253.808,174.975 254.5,175.5C 255.167,173.5 255.833,171.5 256.5,169.5C 257.176,170.602 257.842,171.602 258.5,172.5 Z"/></g>
<g><path style="opacity:1" fill="#1057a9" d="M 204.5,201.5 C 159.862,202.651 115.196,202.818 70.5,202C 68.6789,199.863 66.3456,199.03 63.5,199.5C 58.625,192.412 59.9584,186.579 67.5,182C 112.833,181.333 158.167,181.333 203.5,182C 210.174,186.511 211.674,192.345 208,199.5C 207.184,200.823 206.017,201.489 204.5,201.5 Z"/></g>
<g><path style="opacity:0.333" fill="#3b5ea0" d="M 63.5,199.5 C 66.3456,199.03 68.6789,199.863 70.5,202C 115.196,202.818 159.862,202.651 204.5,201.5C 204.082,202.222 203.416,202.722 202.5,203C 157.833,203.667 113.167,203.667 68.5,203C 66.4156,202.303 64.7489,201.136 63.5,199.5 Z"/></g>
<g><path style="opacity:1" fill="#30599a" d="M 235.5,205.5 C 236.154,223.436 236.821,241.436 237.5,259.5C 238.308,259.808 238.975,260.308 239.5,261C 238.725,264.791 238.059,268.624 237.5,272.5C 235.933,266.747 235.1,260.747 235,254.5C 234.172,237.995 234.338,221.661 235.5,205.5 Z"/></g>
<g><path style="opacity:1" fill="#667aaf" d="M 201.5,236.5 C 157.68,238.162 113.68,238.995 69.5,239C 66.5585,240.109 63.8918,241.609 61.5,243.5C 63.0647,239.447 66.0647,236.947 70.5,236C 114.196,235.183 157.862,235.349 201.5,236.5 Z"/></g>
<g><path style="opacity:1" fill="#0656a9" d="M 201.5,236.5 C 209.41,240.302 211.577,246.302 208,254.5C 206.059,256.87 203.559,258.203 200.5,258.5C 157.002,257.667 113.335,257.167 69.5,257C 68.5842,256.722 67.9175,256.222 67.5,255.5C 64.5919,254.869 62.5919,253.536 61.5,251.5C 60.1667,248.833 60.1667,246.167 61.5,243.5C 63.8918,241.609 66.5585,240.109 69.5,239C 113.68,238.995 157.68,238.162 201.5,236.5 Z"/></g>
<g><path style="opacity:1" fill="#0f57a9" d="M 430.5,179.5 C 431.957,181.242 433.124,183.242 434,185.5C 443.198,216.702 442.531,247.702 432,278.5C 430.942,281.766 429.442,284.766 427.5,287.5C 426.5,287.5 425.5,287.5 424.5,287.5C 424.66,289.199 424.494,290.866 424,292.5C 423.397,289.094 422.231,288.761 420.5,291.5C 422.184,292.854 422.684,294.521 422,296.5C 421.667,295.5 421.333,294.5 421,293.5C 420.667,295.167 420.333,296.833 420,298.5C 418.869,295.555 418.036,292.555 417.5,289.5C 413.5,288.833 413.5,288.167 417.5,287.5C 419.264,281.112 420.931,281.112 422.5,287.5C 426.484,283.278 426.317,279.278 422,275.5C 420.674,276.799 419.34,278.132 418,279.5C 417.137,277.251 417.637,275.418 419.5,274C 416.744,270.587 417.077,267.42 420.5,264.5C 418.978,262.844 419.311,261.677 421.5,261C 419.639,259.138 418.306,259.638 417.5,262.5C 417.167,262.333 416.833,262.167 416.5,262C 419.508,253.435 421.342,244.602 422,235.5C 422.7,228.26 422.2,221.094 420.5,214C 420.699,210.563 421.699,207.396 423.5,204.5C 422.224,203.355 420.891,203.355 419.5,204.5C 419.167,204 418.833,203.5 418.5,203C 415.89,195.761 414.223,188.594 413.5,181.5C 414.446,178.274 415.946,175.274 418,172.5C 419.87,174.248 421.037,176.415 421.5,179C 423.055,178.575 424.555,177.742 426,176.5C 427.123,178.1 428.623,179.1 430.5,179.5 Z"/></g>
<g><path style="opacity:0.996" fill="#597cb4" d="M 61.5,251.5 C 62.5919,253.536 64.5919,254.869 67.5,255.5C 65.3023,255.409 64.9689,256.075 66.5,257.5C 63.7638,256.427 62.0971,254.427 61.5,251.5 Z"/></g>
<g><path style="opacity:0.714" fill="#5b73a5" d="M 67.5,255.5 C 67.9175,256.222 68.5842,256.722 69.5,257C 113.335,257.167 157.002,257.667 200.5,258.5C 157.002,259.665 113.335,259.831 69.5,259C 68.4734,258.487 67.4734,257.987 66.5,257.5C 64.9689,256.075 65.3023,255.409 67.5,255.5 Z"/></g>
<g><path style="opacity:1" fill="#225ba9" d="M 416.5,153.5 C 423.235,160.965 427.902,169.632 430.5,179.5C 428.623,179.1 427.123,178.1 426,176.5C 424.555,177.742 423.055,178.575 421.5,179C 421.037,176.415 419.87,174.248 418,172.5C 415.946,175.274 414.446,178.274 413.5,181.5C 414.223,188.594 415.89,195.761 418.5,203C 418.833,203.5 419.167,204 419.5,204.5C 420.891,203.355 422.224,203.355 423.5,204.5C 421.699,207.396 420.699,210.563 420.5,214C 422.2,221.094 422.7,228.26 422,235.5C 421.342,244.602 419.508,253.435 416.5,262C 416.833,262.167 417.167,262.333 417.5,262.5C 418.306,259.638 419.639,259.138 421.5,261C 419.311,261.677 418.978,262.844 420.5,264.5C 417.077,267.42 416.744,270.587 419.5,274C 417.637,275.418 417.137,277.251 418,279.5C 419.34,278.132 420.674,276.799 422,275.5C 426.317,279.278 426.484,283.278 422.5,287.5C 420.931,281.112 419.264,281.112 417.5,287.5C 413.5,288.167 413.5,288.833 417.5,289.5C 418.036,292.555 418.869,295.555 420,298.5C 420.333,296.833 420.667,295.167 421,293.5C 421.333,294.5 421.667,295.5 422,296.5C 422.684,294.521 422.184,292.854 420.5,291.5C 422.231,288.761 423.397,289.094 424,292.5C 424.494,290.866 424.66,289.199 424.5,287.5C 425.5,287.5 426.5,287.5 427.5,287.5C 420.962,302.395 411.295,315.061 398.5,325.5C 398.682,322.392 400.016,319.892 402.5,318C 401.663,316.989 401.33,315.822 401.5,314.5C 402.833,314.5 404.167,314.5 405.5,314.5C 405.5,313.5 405.5,312.5 405.5,311.5C 402.564,310.594 399.564,309.928 396.5,309.5C 397.363,307.105 397.363,304.771 396.5,302.5C 394.424,304.288 392.257,305.954 390,307.5C 389.493,308.996 389.993,310.163 391.5,311C 390.333,312.167 389.167,313.333 388,314.5C 386.887,313.24 386.72,312.073 387.5,311C 386.181,310.805 384.847,310.972 383.5,311.5C 393.007,303.001 401.007,293.335 407.5,282.5C 409.818,280.815 410.818,278.481 410.5,275.5C 423.868,240.62 422.202,206.62 405.5,173.5C 406.859,174.007 407.859,175.007 408.5,176.5C 409.086,176.291 409.586,175.957 410,175.5C 411.987,172.532 412.82,169.532 412.5,166.5C 413.357,167.736 414.023,169.069 414.5,170.5C 415.325,171.386 416.325,171.719 417.5,171.5C 417.215,169.712 417.548,168.045 418.5,166.5C 419.736,167.246 421.07,167.579 422.5,167.5C 422.5,166.5 422.5,165.5 422.5,164.5C 421.5,164.5 420.5,164.5 419.5,164.5C 418.975,160.667 417.975,157 416.5,153.5 Z"/></g>
<g><path style="opacity:0.714" fill="#7392c2" d="M 410.5,275.5 C 410.818,278.481 409.818,280.815 407.5,282.5C 408.088,279.937 409.088,277.604 410.5,275.5 Z"/></g>
<g><path style="opacity:0.086" fill="#bcd1ee" d="M 239.5,287.5 C 240.612,289.599 241.279,291.933 241.5,294.5C 239.837,292.562 239.171,290.228 239.5,287.5 Z"/></g>
<g><path style="opacity:1" fill="#1f5aab" d="M 205.5,291.5 C 206.598,292.397 206.598,293.23 205.5,294C 210.443,294.108 212.776,296.608 212.5,301.5C 212.37,303.375 212.037,305.208 211.5,307C 209.294,308.25 207.961,310.084 207.5,312.5C 161.237,313.661 114.904,313.828 68.5,313C 60.0895,308.596 58.4229,302.429 63.5,294.5C 64.7003,293.469 66.0337,292.635 67.5,292C 113.499,291.5 159.499,291.333 205.5,291.5 Z"/></g>
<g><path style="opacity:1" fill="#4165a6" d="M 254.5,239.5 C 254.833,239.5 255.167,239.5 255.5,239.5C 257.13,263.854 260.797,287.854 266.5,311.5C 264.955,310.77 264.122,309.437 264,307.5C 263.503,304.854 263.336,302.187 263.5,299.5C 262.5,299.5 261.5,299.5 260.5,299.5C 258.951,287.39 257.118,275.39 255,263.5C 254.5,255.507 254.334,247.507 254.5,239.5 Z"/></g>
<g><path style="opacity:0.937" fill="#6e8dc1" d="M 241.5,296.5 C 242.912,298.604 243.912,300.937 244.5,303.5C 244.5,305.167 244.5,306.833 244.5,308.5C 242.973,304.733 241.973,300.733 241.5,296.5 Z"/></g>
<g><path style="opacity:0.998" fill="#476aa5" d="M 205.5,291.5 C 213.78,293.829 216.447,299.163 213.5,307.5C 212.089,309.914 210.089,311.581 207.5,312.5C 207.961,310.084 209.294,308.25 211.5,307C 212.037,305.208 212.37,303.375 212.5,301.5C 212.776,296.608 210.443,294.108 205.5,294C 206.598,293.23 206.598,292.397 205.5,291.5 Z"/></g>
<g><path style="opacity:1" fill="#3761a6" d="M 383.5,311.5 C 383.721,312.735 384.388,313.735 385.5,314.5C 385,315.5 384.5,316.5 384,317.5C 382.89,315.963 381.39,315.297 379.5,315.5C 377.116,320.033 372.782,322.7 366.5,323.5C 372.143,319.532 377.81,315.532 383.5,311.5 Z"/></g>
<g><path style="opacity:1" fill="#3966aa" d="M 398.5,325.5 C 395.026,328.802 391.359,331.968 387.5,335C 384.941,336.777 382.274,338.277 379.5,339.5C 380.234,338.292 380.567,336.959 380.5,335.5C 382.5,335.167 384.5,334.833 386.5,334.5C 387.541,331.458 387.541,328.458 386.5,325.5C 390.4,324.995 394.4,324.995 398.5,325.5 Z"/></g>
<g><path style="opacity:1" fill="#0d57aa" d="M 398.5,325.5 C 394.4,324.995 390.4,324.995 386.5,325.5C 387.541,328.458 387.541,331.458 386.5,334.5C 384.5,334.833 382.5,335.167 380.5,335.5C 380.567,336.959 380.234,338.292 379.5,339.5C 376.354,342.244 372.687,344.244 368.5,345.5C 366.473,345.338 364.473,345.505 362.5,346C 355.354,348.603 348.354,351.27 341.5,354C 339.5,354.667 337.5,354.667 335.5,354C 336.711,353.107 336.711,352.274 335.5,351.5C 334.315,352.853 332.981,354.02 331.5,355C 331.833,355.333 332.167,355.667 332.5,356C 330.741,356.798 329.074,356.631 327.5,355.5C 327.709,354.914 328.043,354.414 328.5,354C 326.272,353.18 324.272,353.513 322.5,355C 323.5,355.333 324.5,355.667 325.5,356C 323.416,356.697 321.749,357.864 320.5,359.5C 306.706,361.424 292.706,361.924 278.5,361C 275.558,360.856 273.224,359.689 271.5,357.5C 270.972,356.279 270.305,355.113 269.5,354C 271.256,353.798 272.922,353.298 274.5,352.5C 272.076,350.286 272.743,349.286 276.5,349.5C 276.343,348.127 276.51,346.793 277,345.5C 277.333,345.833 277.667,346.167 278,346.5C 279,344.833 280,343.167 281,341.5C 290.103,342.267 299.27,342.934 308.5,343.5C 312.109,341.311 315.776,341.645 319.5,344.5C 316.75,345.754 314.083,346.254 311.5,346C 312.43,346.991 313.596,347.491 315,347.5C 317.5,347 320,346.5 322.5,346C 323.071,344.795 323.738,343.628 324.5,342.5C 327.216,344.086 329.55,343.753 331.5,341.5C 330.335,340.416 329.002,339.583 327.5,339C 331.486,338.501 335.486,338.334 339.5,338.5C 339.5,337.167 339.5,335.833 339.5,334.5C 348.783,331.592 357.783,327.926 366.5,323.5C 372.782,322.7 377.116,320.033 379.5,315.5C 381.39,315.297 382.89,315.963 384,317.5C 384.5,316.5 385,315.5 385.5,314.5C 384.388,313.735 383.721,312.735 383.5,311.5C 384.847,310.972 386.181,310.805 387.5,311C 386.72,312.073 386.887,313.24 388,314.5C 389.167,313.333 390.333,312.167 391.5,311C 389.993,310.163 389.493,308.996 390,307.5C 392.257,305.954 394.424,304.288 396.5,302.5C 397.363,304.771 397.363,307.105 396.5,309.5C 399.564,309.928 402.564,310.594 405.5,311.5C 405.5,312.5 405.5,313.5 405.5,314.5C 404.167,314.5 402.833,314.5 401.5,314.5C 401.33,315.822 401.663,316.989 402.5,318C 400.016,319.892 398.682,322.392 398.5,325.5 Z"/></g>
<g><path style="opacity:1" fill="#1e59a6" d="M 269.5,318.5 C 272.225,323.622 274.725,328.955 277,334.5C 278.167,337 280,338.833 282.5,340C 301.793,341.134 320.793,339.301 339.5,334.5C 339.5,335.833 339.5,337.167 339.5,338.5C 335.486,338.334 331.486,338.501 327.5,339C 329.002,339.583 330.335,340.416 331.5,341.5C 329.55,343.753 327.216,344.086 324.5,342.5C 323.738,343.628 323.071,344.795 322.5,346C 320,346.5 317.5,347 315,347.5C 313.596,347.491 312.43,346.991 311.5,346C 314.083,346.254 316.75,345.754 319.5,344.5C 315.776,341.645 312.109,341.311 308.5,343.5C 299.27,342.934 290.103,342.267 281,341.5C 280,343.167 279,344.833 278,346.5C 277.667,346.167 277.333,345.833 277,345.5C 276.51,346.793 276.343,348.127 276.5,349.5C 272.743,349.286 272.076,350.286 274.5,352.5C 272.922,353.298 271.256,353.798 269.5,354C 270.305,355.113 270.972,356.279 271.5,357.5C 265.184,354.016 260.351,349.016 257,342.5C 251.601,331.534 247.434,320.201 244.5,308.5C 244.5,306.833 244.5,305.167 244.5,303.5C 245.5,303.5 246.5,303.5 247.5,303.5C 246.446,299.571 245.446,295.905 244.5,292.5C 244.833,291.5 245.5,290.833 246.5,290.5C 250.359,297.416 250.359,304.25 246.5,311C 248.898,315.78 251.731,320.28 255,324.5C 255.465,323.069 256.299,321.903 257.5,321C 253.87,320.729 252.87,319.062 254.5,316C 253.016,314.426 251.349,313.093 249.5,312C 250.964,310.136 251.964,307.969 252.5,305.5C 253.833,306.833 255.167,308.167 256.5,309.5C 257.5,309.167 258.167,308.5 258.5,307.5C 257.079,304.572 258.079,303.238 261.5,303.5C 259.299,307.956 257.966,312.789 257.5,318C 259.564,319.801 259.897,321.968 258.5,324.5C 259.47,327.437 260.137,330.437 260.5,333.5C 261.552,333.351 262.552,333.517 263.5,334C 260.682,336.869 261.348,338.369 265.5,338.5C 265.472,343.736 268.139,346.403 273.5,346.5C 274.072,344.922 274.406,343.422 274.5,342C 280.376,341.69 280.542,339.857 275,336.5C 275.145,333.077 273.645,331.077 270.5,330.5C 270.662,328.473 270.495,326.473 270,324.5C 267.033,322.519 266.866,320.519 269.5,318.5 Z"/></g>
<g><path style="opacity:0.992" fill="#05438e" d="M 219.5,346.5 C 219.5,347.167 219.5,347.833 219.5,348.5C 218.352,349.895 217.352,349.728 216.5,348C 186.502,347.5 156.502,347.333 126.5,347.5C 123.941,347.802 121.607,347.468 119.5,346.5C 152.982,346.476 186.315,346.476 219.5,346.5 Z"/></g>
<g><path style="opacity:1" fill="#2f5ca1" d="M 368.5,345.5 C 353.525,353.044 337.525,357.711 320.5,359.5C 321.749,357.864 323.416,356.697 325.5,356C 324.5,355.667 323.5,355.333 322.5,355C 324.272,353.513 326.272,353.18 328.5,354C 328.043,354.414 327.709,354.914 327.5,355.5C 329.074,356.631 330.741,356.798 332.5,356C 332.167,355.667 331.833,355.333 331.5,355C 332.981,354.02 334.315,352.853 335.5,351.5C 336.711,352.274 336.711,353.107 335.5,354C 337.5,354.667 339.5,354.667 341.5,354C 348.354,351.27 355.354,348.603 362.5,346C 364.473,345.505 366.473,345.338 368.5,345.5 Z"/></g>
<g><path style="opacity:0.957" fill="#3f6baa" d="M 119.5,346.5 C 121.607,347.468 123.941,347.802 126.5,347.5C 107.638,348.609 88.6382,348.776 69.5,348C 62.0159,351.199 60.5159,356.366 65,363.5C 66.2547,364.211 67.4214,365.044 68.5,366C 119.832,366.5 171.166,366.667 222.5,366.5C 222.67,365.178 222.337,364.011 221.5,363C 223.134,362.506 224.801,362.34 226.5,362.5C 226.773,360.549 226.107,359.049 224.5,358C 225.406,356.301 225.739,354.467 225.5,352.5C 223.076,352.808 220.743,352.474 218.5,351.5C 218.977,350.522 219.643,349.689 220.5,349C 220.272,348.601 219.938,348.435 219.5,348.5C 219.5,347.833 219.5,347.167 219.5,346.5C 227.945,349.398 230.445,355.064 227,363.5C 225.363,365.81 223.196,367.31 220.5,368C 169.833,368.667 119.167,368.667 68.5,368C 60.3869,364.344 58.3869,358.511 62.5,350.5C 65.0927,347.798 68.2593,346.132 72,345.5C 88.1632,345.406 103.997,345.739 119.5,346.5 Z"/></g>
<g><path style="opacity:1" fill="#0356aa" d="M 126.5,347.5 C 156.502,347.333 186.502,347.5 216.5,348C 217.352,349.728 218.352,349.895 219.5,348.5C 219.938,348.435 220.272,348.601 220.5,349C 219.643,349.689 218.977,350.522 218.5,351.5C 220.743,352.474 223.076,352.808 225.5,352.5C 225.739,354.467 225.406,356.301 224.5,358C 226.107,359.049 226.773,360.549 226.5,362.5C 224.801,362.34 223.134,362.506 221.5,363C 222.337,364.011 222.67,365.178 222.5,366.5C 171.166,366.667 119.832,366.5 68.5,366C 67.4214,365.044 66.2547,364.211 65,363.5C 60.5159,356.366 62.0159,351.199 69.5,348C 88.6382,348.776 107.638,348.609 126.5,347.5 Z"/></g>
</svg>
