<?xml version="1.0" encoding="UTF-8"?>
<!DOCTYPE svg PUBLIC "-//W3C//DTD SVG 1.1//EN" "http://www.w3.org/Graphics/SVG/1.1/DTD/svg11.dtd">
<svg xmlns="http://www.w3.org/2000/svg" version="1.1" width="500px" height="500px" style="shape-rendering:geometricPrecision; text-rendering:geometricPrecision; image-rendering:optimizeQuality; fill-rule:evenodd; clip-rule:evenodd" xmlns:xlink="http://www.w3.org/1999/xlink">
<g><path style="opacity:0.932" fill="#b91c1c" d="M 228.5,-0.5 C 242.5,-0.5 256.5,-0.5 270.5,-0.5C 359.311,9.13648 425.811,52.8031 470,130.5C 504.788,202.774 506.455,275.774 475,349.5C 437.338,425.18 377.171,471.347 294.5,488C 205.703,501.697 129.87,476.864 67,413.5C 4.44231,341.267 -13.2244,258.934 14,166.5C 46.5706,78.9294 108.404,24.7627 199.5,4C 209.262,2.15486 218.928,0.654864 228.5,-0.5 Z M 227.5,26.5 C 304.833,21.1954 369,47.1954 420,104.5C 466.474,163.508 480.807,229.841 463,303.5C 442.871,370.962 400.704,419.129 336.5,448C 270.841,473.79 206.508,470.79 143.5,439C 64.3545,392.478 26.1878,322.978 29,230.5C 37.9329,142.296 82.4329,79.796 162.5,43C 183.613,34.8055 205.28,29.3055 227.5,26.5 Z M 225.5,192.5 C 236.505,192.333 247.505,192.5 258.5,193C 269.179,193.413 276.346,198.579 280,208.5C 281.681,217.712 280.348,226.379 276,234.5C 272.703,237.567 268.869,239.733 264.5,241C 251.871,242.515 239.205,242.848 226.5,242C 226.815,225.674 226.482,209.174 225.5,192.5 Z"/></g>
<g><path style="opacity:0.953" fill="#b91c1c" d="M 191.5,160.5 C 215.502,160.333 239.502,160.5 263.5,161C 298.709,163.874 317.375,182.874 319.5,218C 318.451,247.456 303.785,266.122 275.5,274C 259.199,275.349 242.866,275.849 226.5,275.5C 226.973,293.261 226.473,310.927 225,328.5C 224.5,329 224,329.5 223.5,330C 212.833,330.667 202.167,330.667 191.5,330C 189.667,329.5 188.5,328.333 188,326.5C 187.333,272.167 187.333,217.833 188,163.5C 189.145,162.364 190.312,161.364 191.5,160.5 Z M 225.5,192.5 C 226.482,209.174 226.815,225.674 226.5,242C 239.205,242.848 251.871,242.515 264.5,241C 268.869,239.733 272.703,237.567 276,234.5C 280.348,226.379 281.681,217.712 280,208.5C 276.346,198.579 269.179,193.413 258.5,193C 247.505,192.5 236.505,192.333 225.5,192.5 Z"/></g>
<g><path style="opacity:0.882" fill="#b91c1c" d="M 117.5,212.5 C 126.628,213.445 129.628,218.111 126.5,226.5C 104.405,247.104 97.2379,272.104 105,301.5C 108.107,310.377 112.774,318.377 119,325.5C 121.341,333.137 118.675,337.803 111,339.5C 106.836,338.5 103.669,336.167 101.5,332.5C 79.088,297.922 78.9213,263.255 101,228.5C 105.758,222.239 111.258,216.906 117.5,212.5 Z"/></g>
<g><path style="opacity:0.885" fill="#b91c1c" d="M 378.5,212.5 C 381.475,212.713 384.142,213.713 386.5,215.5C 416.639,247.049 422.472,282.716 404,322.5C 401.667,326.167 399.333,329.833 397,333.5C 392.195,340.243 386.862,340.909 381,335.5C 379.543,332.634 379.21,329.634 380,326.5C 400.496,300.066 402.83,272.066 387,242.5C 382.377,236.208 377.377,230.208 372,224.5C 370.798,218.565 372.965,214.565 378.5,212.5 Z"/></g>
<g><path style="opacity:0.876" fill="#b91c1c" d="M 133.5,232.5 C 139.758,232.418 143.758,235.418 145.5,241.5C 145.113,243.274 144.447,244.941 143.5,246.5C 128.821,258.726 123.988,274.059 129,292.5C 132.579,298.491 135.745,304.658 138.5,311C 136.147,319.175 131.147,321.342 123.5,317.5C 104.266,289.959 105.433,263.293 127,237.5C 129.352,235.97 131.519,234.303 133.5,232.5 Z"/></g>
<g><path style="opacity:0.874" fill="#b91c1c" d="M 359.5,232.5 C 362.724,232.203 365.724,232.87 368.5,234.5C 392.496,258.492 395.829,285.159 378.5,314.5C 374.325,320.085 369.325,320.918 363.5,317C 362.095,315.023 361.095,312.857 360.5,310.5C 363.46,304.378 366.626,298.378 370,292.5C 373.674,281.926 373.008,271.593 368,261.5C 364.38,255.245 360.046,249.578 355,244.5C 353.976,239.548 355.476,235.548 359.5,232.5 Z"/></g>
<g><path style="opacity:0.89" fill="#b91c1c" d="M 154.5,260.5 C 171.716,263.319 176.55,272.653 169,288.5C 159.081,296.895 149.747,296.229 141,286.5C 136.288,272.921 140.788,264.255 154.5,260.5 Z"/></g>
<g><path style="opacity:0.896" fill="#b91c1c" d="M 342.5,260.5 C 358.721,263.277 363.721,272.277 357.5,287.5C 346.53,297.566 336.697,296.566 328,284.5C 324.928,271.636 329.761,263.636 342.5,260.5 Z"/></g>
</svg>
