<?xml version="1.0" encoding="UTF-8"?>
<!DOCTYPE svg PUBLIC "-//W3C//DTD SVG 1.1//EN" "http://www.w3.org/Graphics/SVG/1.1/DTD/svg11.dtd">
<svg xmlns="http://www.w3.org/2000/svg" version="1.1" width="500px" height="500px" style="shape-rendering:geometricPrecision; text-rendering:geometricPrecision; image-rendering:optimizeQuality; fill-rule:evenodd; clip-rule:evenodd" xmlns:xlink="http://www.w3.org/1999/xlink">
<g><path style="opacity:1" fill="#115897" d="M 255.5,148.5 C 255.833,148.5 256.167,148.5 256.5,148.5C 256.5,151.5 256.5,154.5 256.5,157.5C 254.833,157.5 253.167,157.5 251.5,157.5C 251.719,156.325 251.386,155.325 250.5,154.5C 249.5,215.496 249.167,276.496 249.5,337.5C 246.898,338.969 244.731,338.302 243,335.5C 242.5,274.834 242.333,214.168 242.5,153.5C 244.288,153.785 245.955,153.452 247.5,152.5C 246.675,151.614 245.675,151.281 244.5,151.5C 244.5,150.167 244.5,148.833 244.5,147.5C 246.199,147.38 247.865,147.046 249.5,146.5C 251.425,146.59 252.592,147.59 253,149.5C 253.342,147.381 254.175,147.047 255.5,148.5 Z"/></g>
<g><path style="opacity:1" fill="#1c5b92" d="M 256.5,148.5 C 257.665,211.332 257.832,274.332 257,337.5C 256.617,338.056 256.117,338.389 255.5,338.5C 255.672,337.508 255.338,336.842 254.5,336.5C 254.996,277.357 254.496,218.357 253,159.5C 251.836,189.023 251.336,218.69 251.5,248.5C 251.504,278.238 251.837,307.904 252.5,337.5C 251.5,337.5 250.5,337.5 249.5,337.5C 249.167,276.496 249.5,215.496 250.5,154.5C 251.386,155.325 251.719,156.325 251.5,157.5C 253.167,157.5 254.833,157.5 256.5,157.5C 256.5,154.5 256.5,151.5 256.5,148.5 Z"/></g>
<g><path style="opacity:1" fill="#0e5999" d="M 254.5,336.5 C 254.158,337.338 253.492,337.672 252.5,337.5C 251.837,307.904 251.504,278.238 251.5,248.5C 251.336,218.69 251.836,189.023 253,159.5C 254.496,218.357 254.996,277.357 254.5,336.5 Z"/></g>
<g><path style="opacity:0.098" fill="#b9d4eb" d="M 340.5,160.5 C 340.573,162.027 339.906,163.027 338.5,163.5C 338.427,161.973 339.094,160.973 340.5,160.5 Z"/></g>
<g><path style="opacity:1" fill="#215b95" d="M 148.5,183.5 C 148.035,179.371 145.701,177.371 141.5,177.5C 138.706,177.821 136.206,178.821 134,180.5C 133.508,179.451 133.674,178.451 134.5,177.5C 133.311,176.571 131.978,176.238 130.5,176.5C 135.658,170.842 140.991,165.342 146.5,160C 156.512,155.99 161.345,159.49 161,170.5C 157.33,175.336 153.164,179.669 148.5,183.5 Z"/></g>
<g><path style="opacity:1" fill="#205c96" d="M 370.5,178.5 C 369.542,178.953 368.708,179.619 368,180.5C 367.598,179.128 367.098,177.795 366.5,176.5C 365.5,175.167 364.5,175.167 363.5,176.5C 366.322,179.213 365.822,181.213 362,182.5C 361.517,183.448 361.351,184.448 361.5,185.5C 359.365,185.853 358.032,185.02 357.5,183C 358.506,181.662 359.506,180.329 360.5,179C 360,178.5 359.5,178 359,177.5C 357.13,179.219 354.963,180.219 352.5,180.5C 353.477,182.821 354.477,185.154 355.5,187.5C 350.204,183.04 345.037,178.374 340,173.5C 337.604,170.37 337.104,167.036 338.5,163.5C 339.906,163.027 340.573,162.027 340.5,160.5C 343.635,157.398 347.302,157.065 351.5,159.5C 358.188,165.521 364.521,171.854 370.5,178.5 Z"/></g>
<g><path style="opacity:1" fill="#125998" d="M 130.5,176.5 C 131.978,176.238 133.311,176.571 134.5,177.5C 133.674,178.451 133.508,179.451 134,180.5C 136.206,178.821 138.706,177.821 141.5,177.5C 145.701,177.371 148.035,179.371 148.5,183.5C 147.127,183.657 145.793,183.49 144.5,183C 145.654,182.086 145.487,181.253 144,180.5C 143.56,182.076 142.727,183.41 141.5,184.5C 143.981,185.86 143.648,186.86 140.5,187.5C 139.571,188.689 139.238,190.022 139.5,191.5C 138.178,191.67 137.011,191.337 136,190.5C 135.5,192.333 134.333,193.5 132.5,194C 132.957,194.414 133.291,194.914 133.5,195.5C 130.799,195.975 128.799,197.308 127.5,199.5C 126.796,197.656 125.463,197.156 123.5,198C 120.279,201.221 117.279,204.221 114.5,207C 113.919,205.428 113.919,203.595 114.5,201.5C 116.3,198.687 118.633,196.687 121.5,195.5C 121.617,193.516 120.95,191.85 119.5,190.5C 121.149,188.35 122.982,186.35 125,184.5C 125.692,183.563 125.525,182.897 124.5,182.5C 126.167,180.167 128.167,178.167 130.5,176.5 Z"/></g>
<g><path style="opacity:1" fill="#4e72a3" d="M 148.5,183.5 C 137.167,195.5 125.5,207.167 113.5,218.5C 113.579,217.07 113.246,215.736 112.5,214.5C 113.833,213.833 115.167,213.167 116.5,212.5C 116.291,211.914 115.957,211.414 115.5,211C 116.784,210.316 117.951,210.483 119,211.5C 119.382,208.114 120.382,205.448 122,203.5C 122.667,204.167 123.333,204.833 124,205.5C 124.71,204.027 125.876,203.36 127.5,203.5C 127.5,202.167 127.5,200.833 127.5,199.5C 128.799,197.308 130.799,195.975 133.5,195.5C 133.291,194.914 132.957,194.414 132.5,194C 134.333,193.5 135.5,192.333 136,190.5C 137.011,191.337 138.178,191.67 139.5,191.5C 139.238,190.022 139.571,188.689 140.5,187.5C 143.648,186.86 143.981,185.86 141.5,184.5C 142.727,183.41 143.56,182.076 144,180.5C 145.487,181.253 145.654,182.086 144.5,183C 145.793,183.49 147.127,183.657 148.5,183.5 Z"/></g>
<g><path style="opacity:1" fill="#185996" d="M 370.5,178.5 C 371.445,181.14 371.612,183.806 371,186.5C 372.851,189.064 374.684,189.064 376.5,186.5C 378.222,189.749 377.222,191.582 373.5,192C 377.36,194.516 378.36,197.849 376.5,202C 378.46,203.939 379.793,203.439 380.5,200.5C 382.045,199.548 383.712,199.215 385.5,199.5C 385.351,198.448 385.517,197.448 386,196.5C 386.318,198.061 387.151,199.228 388.5,200C 386.185,201.109 384.685,202.943 384,205.5C 382.703,204.216 381.536,204.383 380.5,206C 381.184,207.693 382.184,209.193 383.5,210.5C 381.955,211.452 380.288,211.785 378.5,211.5C 370.497,203.83 362.83,195.83 355.5,187.5C 354.477,185.154 353.477,182.821 352.5,180.5C 354.963,180.219 357.13,179.219 359,177.5C 359.5,178 360,178.5 360.5,179C 359.506,180.329 358.506,181.662 357.5,183C 358.032,185.02 359.365,185.853 361.5,185.5C 361.351,184.448 361.517,183.448 362,182.5C 365.822,181.213 366.322,179.213 363.5,176.5C 364.5,175.167 365.5,175.167 366.5,176.5C 367.098,177.795 367.598,179.128 368,180.5C 368.708,179.619 369.542,178.953 370.5,178.5 Z"/></g>
<g><path style="opacity:1" fill="#1e5b95" d="M 370.5,178.5 C 382.473,189.806 394.14,201.473 405.5,213.5C 406.075,215.411 407.075,217.078 408.5,218.5C 407.844,219.278 407.011,219.944 406,220.5C 404.829,219.66 403.662,218.827 402.5,218C 401.627,215.068 400.46,212.235 399,209.5C 397.833,211.833 396.667,214.167 395.5,216.5C 398.215,218.551 398.048,220.217 395,221.5C 393.991,219.975 393.491,218.308 393.5,216.5C 390.412,216.623 387.745,215.623 385.5,213.5C 385.167,213.833 384.833,214.167 384.5,214.5C 386.756,215.421 387.756,217.088 387.5,219.5C 387.167,219.5 386.833,219.5 386.5,219.5C 383.833,216.833 381.167,214.167 378.5,211.5C 380.288,211.785 381.955,211.452 383.5,210.5C 382.184,209.193 381.184,207.693 380.5,206C 381.536,204.383 382.703,204.216 384,205.5C 384.685,202.943 386.185,201.109 388.5,200C 387.151,199.228 386.318,198.061 386,196.5C 385.517,197.448 385.351,198.448 385.5,199.5C 383.712,199.215 382.045,199.548 380.5,200.5C 379.793,203.439 378.46,203.939 376.5,202C 378.36,197.849 377.36,194.516 373.5,192C 377.222,191.582 378.222,189.749 376.5,186.5C 374.684,189.064 372.851,189.064 371,186.5C 371.612,183.806 371.445,181.14 370.5,178.5 Z"/></g>
<g><path style="opacity:1" fill="#165a97" d="M 124.5,182.5 C 125.525,182.897 125.692,183.563 125,184.5C 122.982,186.35 121.149,188.35 119.5,190.5C 120.95,191.85 121.617,193.516 121.5,195.5C 118.633,196.687 116.3,198.687 114.5,201.5C 113.919,203.595 113.919,205.428 114.5,207C 117.279,204.221 120.279,201.221 123.5,198C 125.463,197.156 126.796,197.656 127.5,199.5C 127.5,200.833 127.5,202.167 127.5,203.5C 125.876,203.36 124.71,204.027 124,205.5C 123.333,204.833 122.667,204.167 122,203.5C 120.382,205.448 119.382,208.114 119,211.5C 117.951,210.483 116.784,210.316 115.5,211C 115.957,211.414 116.291,211.914 116.5,212.5C 115.167,213.167 113.833,213.833 112.5,214.5C 113.246,215.736 113.579,217.07 113.5,218.5C 113.5,219.167 113.167,219.5 112.5,219.5C 111.662,219.842 111.328,220.508 111.5,221.5C 142.331,222.332 173.331,222.832 204.5,223C 207.881,223.182 208.881,224.682 207.5,227.5C 176.751,226.916 146.084,226.916 115.5,227.5C 110.249,226.276 105.082,224.943 100,223.5C 99.5,223.833 99,224.167 98.5,224.5C 102.403,227.35 101.903,228.017 97,226.5C 93.1079,229.493 92.6079,233.16 95.5,237.5C 97.1338,237.032 98.3005,236.032 99,234.5C 100.205,235.071 101.372,235.738 102.5,236.5C 101.353,238.585 102.02,240.085 104.5,241C 102.144,241.155 99.8107,241.155 97.5,241C 99.4049,242.815 101.072,244.815 102.5,247C 99.8482,248.065 98.0148,249.898 97,252.5C 95.0242,249.699 92.5242,247.532 89.5,246C 90.1667,245.667 90.8333,245.333 91.5,245C 89.5643,244.187 87.5643,243.687 85.5,243.5C 76.9258,238.4 75.7591,232.067 82,224.5C 86.0356,220.296 90.2022,216.296 94.5,212.5C 96.7488,211.92 98.4154,210.587 99.5,208.5C 107.166,199.167 115.5,190.501 124.5,182.5 Z"/></g>
<g><path style="opacity:0.482" fill="#8dacc6" d="M 99.5,208.5 C 98.4154,210.587 96.7488,211.92 94.5,212.5C 95.5846,210.413 97.2512,209.08 99.5,208.5 Z"/></g>
<g><path style="opacity:0.552" fill="#6a89a9" d="M 112.5,219.5 C 146.5,220.167 180.5,220.833 214.5,221.5C 180.167,221.5 145.833,221.5 111.5,221.5C 111.328,220.508 111.662,219.842 112.5,219.5 Z"/></g>
<g><path style="opacity:0.549" fill="#6a89aa" d="M 386.5,219.5 C 386.833,219.5 387.167,219.5 387.5,219.5C 353.516,221.493 319.183,222.16 284.5,221.5C 318.5,220.833 352.5,220.167 386.5,219.5 Z"/></g>
<g><path style="opacity:1" fill="#185a95" d="M 387.5,219.5 C 390.109,221.847 393.109,223.681 396.5,225C 393.782,225.653 391.116,226.487 388.5,227.5C 355.889,226.764 323.222,226.431 290.5,226.5C 289.833,226.833 289.167,227.167 288.5,227.5C 289.791,228.527 289.791,229.527 288.5,230.5C 287.199,231.884 287.199,233.384 288.5,235C 322.856,235.806 357.189,235.639 391.5,234.5C 393.027,234.427 394.027,235.094 394.5,236.5C 357.5,236.5 320.5,236.5 283.5,236.5C 278.408,233.041 277.574,228.708 281,223.5C 281.816,222.177 282.983,221.511 284.5,221.5C 319.183,222.16 353.516,221.493 387.5,219.5 Z"/></g>
<g><path style="opacity:1" fill="#215d98" d="M 410.5,221.5 C 411.3,223.741 412.966,224.741 415.5,224.5C 416.735,224.721 417.735,225.388 418.5,226.5C 421.29,229.654 421.79,232.987 420,236.5C 413.968,243.698 407.468,250.364 400.5,256.5C 400.449,254.43 401.115,252.597 402.5,251C 402.355,250.228 402.022,249.561 401.5,249C 403.677,247.798 406.011,247.298 408.5,247.5C 408.36,245.876 409.027,244.71 410.5,244C 407.972,242.983 407.972,241.816 410.5,240.5C 410.291,239.914 409.957,239.414 409.5,239C 405.525,238.631 402.358,240.131 400,243.5C 398.743,241.254 396.91,239.921 394.5,239.5C 394.5,238.833 394.5,238.167 394.5,237.5C 395.93,237.421 397.264,237.754 398.5,238.5C 399.893,236.326 399.56,234.493 397.5,233C 399.125,232.147 399.458,231.147 398.5,230C 399.227,228.601 399.727,227.101 400,225.5C 400.333,226.167 400.667,226.833 401,227.5C 403.466,224.352 406.633,222.352 410.5,221.5 Z"/></g>
<g><path style="opacity:1" fill="#5a79a7" d="M 405.5,213.5 C 409.566,216.563 412.899,220.229 415.5,224.5C 412.966,224.741 411.3,223.741 410.5,221.5C 410.573,219.973 409.906,218.973 408.5,218.5C 407.075,217.078 406.075,215.411 405.5,213.5 Z"/></g>
<g><path style="opacity:1" fill="#1e5c97" d="M 111.5,221.5 C 145.833,221.5 180.167,221.5 214.5,221.5C 220.131,223.539 221.964,227.539 220,233.5C 218.833,234.667 217.667,235.833 216.5,237C 179.167,237.333 141.833,237.667 104.5,238C 122.702,256.035 140.702,274.201 158.5,292.5C 157.234,293.09 155.901,293.59 154.5,294C 155.174,295.751 155.507,297.417 155.5,299C 153.154,298.208 150.821,298.375 148.5,299.5C 148.25,296.786 148.083,294.119 148,291.5C 148.667,292.167 149.333,292.833 150,293.5C 150.881,291.726 152.047,291.06 153.5,291.5C 152.552,289.056 151.052,287.056 149,285.5C 147.56,286.148 146.06,286.481 144.5,286.5C 146.046,290.745 144.713,291.579 140.5,289C 142.886,288.716 143.552,287.716 142.5,286C 136.341,285.342 132.007,282.175 129.5,276.5C 128.635,275.417 127.635,275.251 126.5,276C 125.74,277.441 125.074,278.941 124.5,280.5C 127.009,281.921 129.343,283.588 131.5,285.5C 132.32,287.974 133.32,290.307 134.5,292.5C 133.069,291.918 131.736,291.085 130.5,290C 115.612,274.28 100.612,258.78 85.5,243.5C 87.5643,243.687 89.5643,244.187 91.5,245C 90.8333,245.333 90.1667,245.667 89.5,246C 92.5242,247.532 95.0242,249.699 97,252.5C 98.0148,249.898 99.8482,248.065 102.5,247C 101.072,244.815 99.4049,242.815 97.5,241C 99.8107,241.155 102.144,241.155 104.5,241C 102.02,240.085 101.353,238.585 102.5,236.5C 101.372,235.738 100.205,235.071 99,234.5C 98.3005,236.032 97.1338,237.032 95.5,237.5C 92.6079,233.16 93.1079,229.493 97,226.5C 101.903,228.017 102.403,227.35 98.5,224.5C 99,224.167 99.5,223.833 100,223.5C 105.082,224.943 110.249,226.276 115.5,227.5C 146.084,226.916 176.751,226.916 207.5,227.5C 208.881,224.682 207.881,223.182 204.5,223C 173.331,222.832 142.331,222.332 111.5,221.5 Z"/></g>
<g><path style="opacity:1" fill="#0c5a97" d="M 408.5,218.5 C 409.906,218.973 410.573,219.973 410.5,221.5C 406.633,222.352 403.466,224.352 401,227.5C 400.667,226.833 400.333,226.167 400,225.5C 399.727,227.101 399.227,228.601 398.5,230C 399.458,231.147 399.125,232.147 397.5,233C 399.56,234.493 399.893,236.326 398.5,238.5C 397.264,237.754 395.93,237.421 394.5,237.5C 394.5,237.167 394.5,236.833 394.5,236.5C 394.027,235.094 393.027,234.427 391.5,234.5C 391.953,233.542 392.619,232.708 393.5,232C 390.978,231.501 388.478,231.668 386,232.5C 385.167,232.167 384.333,231.833 383.5,231.5C 384.506,230.604 384.506,229.938 383.5,229.5C 351.77,230.387 320.103,230.72 288.5,230.5C 289.791,229.527 289.791,228.527 288.5,227.5C 289.167,227.167 289.833,226.833 290.5,226.5C 323.222,226.431 355.889,226.764 388.5,227.5C 391.116,226.487 393.782,225.653 396.5,225C 393.109,223.681 390.109,221.847 387.5,219.5C 387.756,217.088 386.756,215.421 384.5,214.5C 384.833,214.167 385.167,213.833 385.5,213.5C 387.745,215.623 390.412,216.623 393.5,216.5C 393.491,218.308 393.991,219.975 395,221.5C 398.048,220.217 398.215,218.551 395.5,216.5C 396.667,214.167 397.833,211.833 399,209.5C 400.46,212.235 401.627,215.068 402.5,218C 403.662,218.827 404.829,219.66 406,220.5C 407.011,219.944 407.844,219.278 408.5,218.5 Z"/></g>
<g><path style="opacity:1" fill="#0e5998" d="M 107.5,228.5 C 109.722,228.178 111.556,228.845 113,230.5C 144.586,230.734 176.086,230.401 207.5,229.5C 207.749,230.582 207.915,231.915 208,233.5C 210.175,229.903 211.342,230.569 211.5,235.5C 177.809,235.18 144.142,235.514 110.5,236.5C 109.833,236.167 109.167,235.833 108.5,235.5C 109.263,234.281 110.263,233.281 111.5,232.5C 108.5,231.833 105.5,231.167 102.5,230.5C 104.291,229.83 105.958,229.163 107.5,228.5 Z"/></g>
<g><path style="opacity:1" fill="#0e5998" d="M 391.5,234.5 C 357.189,235.639 322.856,235.806 288.5,235C 287.199,233.384 287.199,231.884 288.5,230.5C 320.103,230.72 351.77,230.387 383.5,229.5C 384.506,229.938 384.506,230.604 383.5,231.5C 384.333,231.833 385.167,232.167 386,232.5C 388.478,231.668 390.978,231.501 393.5,232C 392.619,232.708 391.953,233.542 391.5,234.5 Z"/></g>
<g><path style="opacity:0.627" fill="#5f85ad" d="M 283.5,236.5 C 320.5,236.5 357.5,236.5 394.5,236.5C 394.5,236.833 394.5,237.167 394.5,237.5C 394.5,238.167 394.5,238.833 394.5,239.5C 393.609,240.11 392.609,240.443 391.5,240.5C 391.953,239.542 392.619,238.708 393.5,238C 356.664,237.833 319.998,237.333 283.5,236.5 Z"/></g>
<g><path style="opacity:0.812" fill="#2b5581" d="M 255.5,148.5 C 254.175,147.047 253.342,147.381 253,149.5C 252.592,147.59 251.425,146.59 249.5,146.5C 247.865,147.046 246.199,147.38 244.5,147.5C 244.5,148.833 244.5,150.167 244.5,151.5C 245.675,151.281 246.675,151.614 247.5,152.5C 245.955,153.452 244.288,153.785 242.5,153.5C 242.333,214.168 242.5,274.834 243,335.5C 244.731,338.302 246.898,338.969 249.5,337.5C 250.5,337.5 251.5,337.5 252.5,337.5C 253.492,337.672 254.158,337.338 254.5,336.5C 255.338,336.842 255.672,337.508 255.5,338.5C 254.71,339.401 253.71,340.068 252.5,340.5C 249.763,340.599 247.096,340.265 244.5,339.5C 243.542,339.047 242.708,338.381 242,337.5C 241.167,274.497 241.333,211.497 242.5,148.5C 247.065,144.544 251.398,144.544 255.5,148.5 Z"/></g>
<g><path style="opacity:0.392" fill="#9cafc4" d="M 383.5,249.5 C 381.761,252.243 379.427,254.243 376.5,255.5C 378.239,252.757 380.573,250.757 383.5,249.5 Z"/></g>
<g><path style="opacity:1" fill="#185a96" d="M 400.5,256.5 C 396.86,260.806 392.86,264.806 388.5,268.5C 387.292,267.218 385.958,267.218 384.5,268.5C 384.709,269.086 385.043,269.586 385.5,270C 383.348,271.413 381.014,272.246 378.5,272.5C 378.33,273.822 378.663,274.989 379.5,276C 376.944,276.981 374.777,278.481 373,280.5C 372.23,279.402 371.397,279.402 370.5,280.5C 369.312,281.684 368.145,281.684 367,280.5C 363.48,282.5 360.146,284.833 357,287.5C 355.347,287.18 354.347,286.18 354,284.5C 351.688,285.814 349.688,287.481 348,289.5C 347.5,289.167 347,288.833 346.5,288.5C 348.734,286.619 350.067,284.285 350.5,281.5C 354.5,277.5 358.5,273.5 362.5,269.5C 365.167,268.833 366.833,267.167 367.5,264.5C 370.5,261.5 373.5,258.5 376.5,255.5C 379.427,254.243 381.761,252.243 383.5,249.5C 385.802,246.197 388.468,243.197 391.5,240.5C 392.609,240.443 393.609,240.11 394.5,239.5C 396.91,239.921 398.743,241.254 400,243.5C 402.358,240.131 405.525,238.631 409.5,239C 409.957,239.414 410.291,239.914 410.5,240.5C 407.972,241.816 407.972,242.983 410.5,244C 409.027,244.71 408.36,245.876 408.5,247.5C 406.011,247.298 403.677,247.798 401.5,249C 402.022,249.561 402.355,250.228 402.5,251C 401.115,252.597 400.449,254.43 400.5,256.5 Z"/></g>
<g><path style="opacity:0.349" fill="#92b2c7" d="M 367.5,264.5 C 366.833,267.167 365.167,268.833 362.5,269.5C 363.833,267.5 365.5,265.833 367.5,264.5 Z"/></g>
<g><path style="opacity:1" fill="#40689c" d="M 388.5,268.5 C 381.167,276.5 373.5,284.167 365.5,291.5C 364.933,289.97 364.267,288.47 363.5,287C 365.753,284.789 368.419,283.123 371.5,282C 370.944,281.617 370.611,281.117 370.5,280.5C 371.397,279.402 372.23,279.402 373,280.5C 374.777,278.481 376.944,276.981 379.5,276C 378.663,274.989 378.33,273.822 378.5,272.5C 381.014,272.246 383.348,271.413 385.5,270C 385.043,269.586 384.709,269.086 384.5,268.5C 385.958,267.218 387.292,267.218 388.5,268.5 Z"/></g>
<g><path style="opacity:1" fill="#225d98" d="M 370.5,280.5 C 370.611,281.117 370.944,281.617 371.5,282C 368.419,283.123 365.753,284.789 363.5,287C 364.267,288.47 364.933,289.97 365.5,291.5C 359.306,299.702 351.639,306.035 342.5,310.5C 335.368,308.909 332.868,304.575 335,297.5C 340.006,291.994 345.173,286.661 350.5,281.5C 350.067,284.285 348.734,286.619 346.5,288.5C 347,288.833 347.5,289.167 348,289.5C 349.688,287.481 351.688,285.814 354,284.5C 354.347,286.18 355.347,287.18 357,287.5C 360.146,284.833 363.48,282.5 367,280.5C 368.145,281.684 369.312,281.684 370.5,280.5 Z"/></g>
<g><path style="opacity:1" fill="#195996" d="M 158.5,292.5 C 165.745,297.688 166.245,303.354 160,309.5C 156.742,310.929 153.576,310.762 150.5,309C 144.606,303.941 139.273,298.441 134.5,292.5C 133.32,290.307 132.32,287.974 131.5,285.5C 129.343,283.588 127.009,281.921 124.5,280.5C 125.074,278.941 125.74,277.441 126.5,276C 127.635,275.251 128.635,275.417 129.5,276.5C 132.007,282.175 136.341,285.342 142.5,286C 143.552,287.716 142.886,288.716 140.5,289C 144.713,291.579 146.046,290.745 144.5,286.5C 146.06,286.481 147.56,286.148 149,285.5C 151.052,287.056 152.552,289.056 153.5,291.5C 152.047,291.06 150.881,291.726 150,293.5C 149.333,292.833 148.667,292.167 148,291.5C 148.083,294.119 148.25,296.786 148.5,299.5C 150.821,298.375 153.154,298.208 155.5,299C 155.507,297.417 155.174,295.751 154.5,294C 155.901,293.59 157.234,293.09 158.5,292.5 Z"/></g>
<g><path style="opacity:0.082" fill="#c1e1f6" d="M 244.5,339.5 C 247.096,340.265 249.763,340.599 252.5,340.5C 251.551,341.152 250.385,341.486 249,341.5C 246.992,341.693 245.492,341.026 244.5,339.5 Z"/></g>
</svg>
