<?xml version="1.0" encoding="UTF-8"?>
<!DOCTYPE svg PUBLIC "-//W3C//DTD SVG 1.1//EN" "http://www.w3.org/Graphics/SVG/1.1/DTD/svg11.dtd">
<svg xmlns="http://www.w3.org/2000/svg" version="1.1" width="632px" height="395px" style="shape-rendering:geometricPrecision; text-rendering:geometricPrecision; image-rendering:optimizeQuality; fill-rule:evenodd; clip-rule:evenodd" xmlns:xlink="http://www.w3.org/1999/xlink">
<g><path style="opacity:1" fill="#f5c332" d="M 242.5,53.5 C 284.078,53.7248 325.578,53.7248 367,53.5C 370.481,54.1227 373.981,54.6227 377.5,55C 379.119,55.2355 380.119,56.0689 380.5,57.5C 382.299,61.9032 382.966,66.5698 382.5,71.5C 381.022,71.238 379.689,71.5713 378.5,72.5C 379.711,73.7202 379.711,74.8869 378.5,76C 364.362,77.0327 350.362,77.866 336.5,78.5C 335.868,83.2534 335.868,87.92 336.5,92.5C 350.327,93.3311 364.327,93.8311 378.5,94C 380.813,94.662 383.146,95.162 385.5,95.5C 387.826,96.1447 389.493,97.478 390.5,99.5C 392.462,102.185 393.962,105.185 395,108.5C 395.2,115.883 395.7,123.216 396.5,130.5C 408.184,131.229 419.85,131.896 431.5,132.5C 433.284,132.893 434.95,133.559 436.5,134.5C 436.372,136.655 436.872,138.655 438,140.5C 438.333,140.167 438.667,139.833 439,139.5C 440.667,142.5 442.333,145.5 444,148.5C 444.169,163.006 444.669,177.339 445.5,191.5C 449.298,192.483 453.298,192.817 457.5,192.5C 457.823,186.31 457.49,180.31 456.5,174.5C 457.167,172.833 457.833,171.167 458.5,169.5C 462.547,163.307 468.214,159.14 475.5,157C 483.827,156.5 492.16,156.334 500.5,156.5C 507.669,157.021 513.002,160.354 516.5,166.5C 518.756,174.682 520.589,183.015 522,191.5C 522.667,218.167 522.667,244.833 522,271.5C 520.812,272.563 520.312,273.897 520.5,275.5C 519.279,276.028 518.113,276.695 517,277.5C 516.333,276.167 515.667,276.167 515,277.5C 514.377,273.068 513.377,272.735 512,276.5C 511.047,274.408 509.714,274.075 508,275.5C 507.51,274.207 507.343,272.873 507.5,271.5C 506.167,271.5 504.833,271.5 503.5,271.5C 503.243,268.068 502.576,264.734 501.5,261.5C 502.663,240.337 502.829,219.004 502,197.5C 500.855,191.871 499.855,186.205 499,180.5C 498.308,179.975 497.808,179.308 497.5,178.5C 492.014,177.185 486.68,177.185 481.5,178.5C 480.883,178.611 480.383,178.944 480,179.5C 479.5,186.826 479.334,194.159 479.5,201.5C 479.588,207.4 476.921,211.4 471.5,213.5C 458.043,214.699 444.376,214.699 430.5,213.5C 428.873,211.37 427.04,209.37 425,207.5C 424.505,205.527 424.338,203.527 424.5,201.5C 423.5,201.5 422.5,201.5 421.5,201.5C 421.5,185.5 421.5,169.5 421.5,153.5C 410.007,152.669 398.341,152.169 386.5,152C 390.951,151.87 395.284,151.204 399.5,150C 393.5,149.667 387.5,149.333 381.5,149C 376.144,143.643 377.144,142.476 384.5,145.5C 389.649,144.68 389.649,143.347 384.5,141.5C 383.833,141.833 383.167,142.167 382.5,142.5C 381.833,140.833 381.167,139.167 380.5,137.5C 379.52,138.981 378.353,140.315 377,141.5C 376.586,141.043 376.086,140.709 375.5,140.5C 374.82,131.941 374.153,123.441 373.5,115C 349.667,114.833 325.833,114.667 302,114.5C 277.824,114.5 253.991,115.167 230.5,116.5C 229.626,122.073 228.626,127.739 227.5,133.5C 225.199,134.06 222.866,134.56 220.5,135C 221.167,135.333 221.833,135.667 222.5,136C 220.028,137.46 217.361,138.46 214.5,139C 200.259,139.176 186.092,139.676 172,140.5C 172.172,184.144 172.672,227.811 173.5,271.5C 188.822,270.519 204.155,270.352 219.5,271C 222.814,272.51 226.147,274.177 229.5,276C 231.16,277.488 232.16,279.321 232.5,281.5C 228.927,283.104 225.927,285.437 223.5,288.5C 222.311,289.429 220.978,289.762 219.5,289.5C 219.328,291.492 219.995,293.158 221.5,294.5C 219.905,295.434 218.239,295.434 216.5,294.5C 216.389,293.883 216.056,293.383 215.5,293C 200.167,292.667 184.833,292.333 169.5,292C 166.435,289.419 162.935,287.586 159,286.5C 158.448,283.953 157.114,281.953 155,280.5C 154.023,278.26 153.523,275.927 153.5,273.5C 154.541,261.813 154.208,250.146 152.5,238.5C 153.85,238.568 155.184,238.568 156.5,238.5C 157.881,239 158.547,240 158.5,241.5C 157.382,251.472 157.216,261.472 158,271.5C 160.043,270.421 161.376,268.754 162,266.5C 162.207,262.911 162.707,259.411 163.5,256C 162.174,239.886 161.507,223.553 161.5,207C 161.507,190.457 161.84,173.957 162.5,157.5C 161.934,149.307 160.6,141.307 158.5,133.5C 157.756,138.521 156.923,143.521 156,148.5C 155.13,147.892 154.63,147.059 154.5,146C 155.536,142.879 155.703,139.713 155,136.5C 154.292,137.381 153.458,138.047 152.5,138.5C 152.5,136.833 152.5,135.167 152.5,133.5C 153.793,132.158 154.626,130.491 155,128.5C 158.381,125.616 161.547,122.616 164.5,119.5C 178.809,118.736 193.142,118.236 207.5,118C 208.974,112.456 210.808,106.956 213,101.5C 214.707,99.9625 216.207,98.2959 217.5,96.5C 219.924,95.9695 222.257,95.1362 224.5,94C 239.339,93.8313 254.006,93.3313 268.5,92.5C 269.491,87.9573 270.491,83.2906 271.5,78.5C 270.833,78.1667 270.167,77.8333 269.5,77.5C 254.814,76.8495 240.147,76.1828 225.5,75.5C 222.414,73.4946 221.081,70.6612 221.5,67C 221.803,63.5614 222.803,60.3947 224.5,57.5C 226.58,56.9556 228.58,56.1223 230.5,55C 234.688,54.8238 238.688,54.3238 242.5,53.5 Z"/></g>
<g><path style="opacity:0.637" fill="#efc760" d="M 242.5,53.5 C 238.688,54.3238 234.688,54.8238 230.5,55C 228.58,56.1223 226.58,56.9556 224.5,57.5C 222.803,60.3947 221.803,63.5614 221.5,67C 221.081,70.6612 222.414,73.4946 225.5,75.5C 240.147,76.1828 254.814,76.8495 269.5,77.5C 270.167,77.8333 270.833,78.1667 271.5,78.5C 270.491,83.2906 269.491,87.9573 268.5,92.5C 268.5,87.8333 268.5,83.1667 268.5,78.5C 253.736,78.9666 239.07,78.4666 224.5,77C 218.309,70.4482 217.976,63.6149 223.5,56.5C 229.518,53.828 235.851,52.828 242.5,53.5 Z"/></g>
<g><path style="opacity:0.101" fill="#eccd79" d="M 380.5,57.5 C 385.787,62.0135 386.62,67.3469 383,73.5C 381.267,75.147 379.434,76.647 377.5,78C 363.837,78.4999 350.171,78.6666 336.5,78.5C 350.362,77.866 364.362,77.0327 378.5,76C 379.711,74.8869 379.711,73.7202 378.5,72.5C 379.689,71.5713 381.022,71.238 382.5,71.5C 382.966,66.5698 382.299,61.9032 380.5,57.5 Z"/></g>
<g><path style="opacity:0.124" fill="#eacb73" d="M 268.5,92.5 C 254.006,93.3313 239.339,93.8313 224.5,94C 222.257,95.1362 219.924,95.9695 217.5,96.5C 218.749,94.8639 220.416,93.6972 222.5,93C 237.83,92.5001 253.163,92.3334 268.5,92.5 Z"/></g>
<g><path style="opacity:0.129" fill="#eacc75" d="M 336.5,92.5 C 351.504,92.3334 366.504,92.5001 381.5,93C 383.066,93.6082 384.4,94.4415 385.5,95.5C 383.146,95.162 380.813,94.662 378.5,94C 364.327,93.8311 350.327,93.3311 336.5,92.5 Z"/></g>
<g><path style="opacity:0.301" fill="#eacc79" d="M 372.5,116.5 C 325.892,116.423 279.225,116.59 232.5,117C 231.712,120.076 231.212,123.242 231,126.5C 230.33,129.174 229.163,131.507 227.5,133.5C 228.626,127.739 229.626,122.073 230.5,116.5C 277.931,115.17 325.264,115.17 372.5,116.5 Z"/></g>
<g><path style="opacity:0.442" fill="#f6d272" d="M 217.5,96.5 C 216.207,98.2959 214.707,99.9625 213,101.5C 210.808,106.956 208.974,112.456 207.5,118C 193.142,118.236 178.809,118.736 164.5,119.5C 166.019,118.59 167.685,117.757 169.5,117C 181.829,116.5 194.162,116.333 206.5,116.5C 206.073,107.398 209.74,100.731 217.5,96.5 Z"/></g>
<g><path style="opacity:0.373" fill="#f3d67b" d="M 137.5,124.5 C 127.193,116.435 119.86,118.601 115.5,131C 113.073,132.591 110.407,133.425 107.5,133.5C 109.579,131.127 112.246,129.794 115.5,129.5C 116.06,122.589 119.893,118.589 127,117.5C 132.044,117.756 135.544,120.089 137.5,124.5 Z"/></g>
<g><path style="opacity:0.859" fill="#f4d171" d="M 164.5,119.5 C 161.547,122.616 158.381,125.616 155,128.5C 154.626,130.491 153.793,132.158 152.5,133.5C 152.74,128.914 154.74,125.247 158.5,122.5C 160.243,120.962 162.243,119.962 164.5,119.5 Z"/></g>
<g><path style="opacity:1" fill="#f6c335" d="M 137.5,124.5 C 137.656,133.175 137.989,141.842 138.5,150.5C 137.834,155.823 137.501,161.323 137.5,167C 137.505,172.876 138.171,178.376 139.5,183.5C 143.319,186.161 147.486,186.828 152,185.5C 152.5,169.837 152.667,154.17 152.5,138.5C 153.458,138.047 154.292,137.381 155,136.5C 155.703,139.713 155.536,142.879 154.5,146C 154.63,147.059 155.13,147.892 156,148.5C 156.923,143.521 157.756,138.521 158.5,133.5C 160.6,141.307 161.934,149.307 162.5,157.5C 161.84,173.957 161.507,190.457 161.5,207C 161.507,223.553 162.174,239.886 163.5,256C 162.707,259.411 162.207,262.911 162,266.5C 161.376,268.754 160.043,270.421 158,271.5C 157.216,261.472 157.382,251.472 158.5,241.5C 158.547,240 157.881,239 156.5,238.5C 155.184,238.568 153.85,238.568 152.5,238.5C 154.208,250.146 154.541,261.813 153.5,273.5C 152.833,267.5 152.167,261.5 151.5,255.5C 151.5,253.5 151.5,251.5 151.5,249.5C 152.362,242.687 152.029,236.02 150.5,229.5C 150.5,229.167 150.5,228.833 150.5,228.5C 151.434,227.432 151.768,226.099 151.5,224.5C 146.901,224.2 142.401,224.533 138,225.5C 137.5,245.497 137.333,265.497 137.5,285.5C 137.5,286.167 137.167,286.5 136.5,286.5C 135.167,286.5 133.833,286.5 132.5,286.5C 132.5,287.5 132.5,288.5 132.5,289.5C 125.291,291.301 120.125,288.968 117,282.5C 116.667,258.833 116.333,235.167 116,211.5C 114.512,209.84 112.679,208.84 110.5,208.5C 106.957,208.128 104.79,206.128 104,202.5C 103.333,180.833 103.333,159.167 104,137.5C 104.66,135.676 105.827,134.343 107.5,133.5C 110.407,133.425 113.073,132.591 115.5,131C 119.86,118.601 127.193,116.435 137.5,124.5 Z"/></g>
<g><path style="opacity:0.481" fill="#f4d77c" d="M 390.5,99.5 C 393.857,102.337 396.024,106.003 397,110.5C 397.5,116.825 397.666,123.158 397.5,129.5C 406.839,129.334 416.173,129.5 425.5,130C 427.852,130.24 429.852,131.073 431.5,132.5C 419.85,131.896 408.184,131.229 396.5,130.5C 395.7,123.216 395.2,115.883 395,108.5C 393.962,105.185 392.462,102.185 390.5,99.5 Z"/></g>
<g><path style="opacity:0.503" fill="#f7e398" d="M 137.5,124.5 C 138.222,124.918 138.722,125.584 139,126.5C 139.5,144.164 139.667,161.83 139.5,179.5C 138.506,170.014 138.173,160.348 138.5,150.5C 137.989,141.842 137.656,133.175 137.5,124.5 Z"/></g>
<g><path style="opacity:1" fill="#f3c74b" d="M 421.5,153.5 C 412.631,154.277 403.798,154.611 395,154.5C 385.394,155.533 378.394,151.866 374,143.5C 373.412,134.03 372.912,125.03 372.5,116.5C 325.264,115.17 277.931,115.17 230.5,116.5C 253.991,115.167 277.824,114.5 302,114.5C 325.833,114.667 349.667,114.833 373.5,115C 374.153,123.441 374.82,131.941 375.5,140.5C 376.086,140.709 376.586,141.043 377,141.5C 378.353,140.315 379.52,138.981 380.5,137.5C 381.167,139.167 381.833,140.833 382.5,142.5C 383.167,142.167 383.833,141.833 384.5,141.5C 389.649,143.347 389.649,144.68 384.5,145.5C 377.144,142.476 376.144,143.643 381.5,149C 387.5,149.333 393.5,149.667 399.5,150C 395.284,151.204 390.951,151.87 386.5,152C 398.341,152.169 410.007,152.669 421.5,153.5 Z"/></g>
<g><path style="opacity:0.34" fill="#f8d67a" d="M 152.5,133.5 C 152.5,135.167 152.5,136.833 152.5,138.5C 152.667,154.17 152.5,169.837 152,185.5C 147.486,186.828 143.319,186.161 139.5,183.5C 143.514,183.666 147.514,183.499 151.5,183C 150.709,171.854 150.376,160.687 150.5,149.5C 150.276,143.902 150.943,138.569 152.5,133.5 Z"/></g>
<g><path style="opacity:0.171" fill="#f5d782" d="M 500.5,156.5 C 492.16,156.334 483.827,156.5 475.5,157C 468.214,159.14 462.547,163.307 458.5,169.5C 461.461,162.386 466.794,157.886 474.5,156C 483.343,155.176 492.01,155.343 500.5,156.5 Z"/></g>
<g><path style="opacity:0.094" fill="#eec860" d="M 436.5,134.5 C 440.247,137.764 443.08,141.764 445,146.5C 445.5,161.496 445.667,176.496 445.5,191.5C 444.669,177.339 444.169,163.006 444,148.5C 442.333,145.5 440.667,142.5 439,139.5C 438.667,139.833 438.333,140.167 438,140.5C 436.872,138.655 436.372,136.655 436.5,134.5 Z"/></g>
<g><path style="opacity:0.471" fill="#ebca69" d="M 138.5,150.5 C 138.173,160.348 138.506,170.014 139.5,179.5C 139.5,180.833 139.5,182.167 139.5,183.5C 138.171,178.376 137.505,172.876 137.5,167C 137.501,161.323 137.834,155.823 138.5,150.5 Z"/></g>
<g><path style="opacity:0.152" fill="#f1dd95" d="M 481.5,178.5 C 486.363,178.181 491.03,178.514 495.5,179.5C 490.57,179.197 485.737,179.531 481,180.5C 480.829,187.679 480.329,194.679 479.5,201.5C 479.334,194.159 479.5,186.826 480,179.5C 480.383,178.944 480.883,178.611 481.5,178.5 Z"/></g>
<g><path style="opacity:0.11" fill="#f3db97" d="M 456.5,174.5 C 457.49,180.31 457.823,186.31 457.5,192.5C 453.298,192.817 449.298,192.483 445.5,191.5C 449.167,191.5 452.833,191.5 456.5,191.5C 456.5,185.833 456.5,180.167 456.5,174.5 Z"/></g>
<g><path style="opacity:0.876" fill="#f3c953" d="M 227.5,133.5 C 225.732,136.59 223.065,138.59 219.5,139.5C 204.283,140.11 189.117,140.777 174,141.5C 173.333,182.833 173.333,224.167 174,265.5C 174.21,267.058 174.71,268.391 175.5,269.5C 191.89,269.06 208.224,269.56 224.5,271C 226.001,272.252 227.668,273.252 229.5,274C 234.102,278.094 238.102,282.594 241.5,287.5C 238.5,285.5 235.5,283.5 232.5,281.5C 232.16,279.321 231.16,277.488 229.5,276C 226.147,274.177 222.814,272.51 219.5,271C 204.155,270.352 188.822,270.519 173.5,271.5C 172.672,227.811 172.172,184.144 172,140.5C 186.092,139.676 200.259,139.176 214.5,139C 217.361,138.46 220.028,137.46 222.5,136C 221.833,135.667 221.167,135.333 220.5,135C 222.866,134.56 225.199,134.06 227.5,133.5 Z"/></g>
<g><path style="opacity:0.267" fill="#f6d582" d="M 421.5,201.5 C 422.5,201.5 423.5,201.5 424.5,201.5C 424.338,203.527 424.505,205.527 425,207.5C 427.04,209.37 428.873,211.37 430.5,213.5C 425.201,211.204 422.201,207.204 421.5,201.5 Z"/></g>
<g><path style="opacity:0.614" fill="#f3cb54" d="M 481.5,178.5 C 486.68,177.185 492.014,177.185 497.5,178.5C 497.808,179.308 498.308,179.975 499,180.5C 499.855,186.205 500.855,191.871 502,197.5C 502.829,219.004 502.663,240.337 501.5,261.5C 501.821,240.424 501.488,219.424 500.5,198.5C 499.816,191.803 498.15,185.469 495.5,179.5C 491.03,178.514 486.363,178.181 481.5,178.5 Z"/></g>
<g><path style="opacity:0.231" fill="#f6d977" d="M 471.5,213.5 C 468.797,214.963 465.797,215.796 462.5,216C 454.5,216.667 446.5,216.667 438.5,216C 435.543,215.721 432.877,214.887 430.5,213.5C 444.376,214.699 458.043,214.699 471.5,213.5 Z"/></g>
<g><path style="opacity:0.605" fill="#f3d073" d="M 516.5,166.5 C 518.163,168.493 519.33,170.826 520,173.5C 521.461,179.806 522.794,186.139 524,192.5C 524.667,218.833 524.667,245.167 524,271.5C 522.415,277.95 520.915,284.283 519.5,290.5C 519.916,285.507 520.249,280.507 520.5,275.5C 520.312,273.897 520.812,272.563 522,271.5C 522.667,244.833 522.667,218.167 522,191.5C 520.589,183.015 518.756,174.682 516.5,166.5 Z"/></g>
<g><path style="opacity:0.063" fill="#efd383" d="M 500.5,198.5 C 501.488,219.424 501.821,240.424 501.5,261.5C 500.833,261.5 500.167,261.5 499.5,261.5C 500.48,240.329 500.813,219.329 500.5,198.5 Z"/></g>
<g><path style="opacity:0.368" fill="#f5d882" d="M 219.5,139.5 C 218.737,140.268 217.737,140.768 216.5,141C 202.837,141.5 189.171,141.667 175.5,141.5C 175.5,184.167 175.5,226.833 175.5,269.5C 174.71,268.391 174.21,267.058 174,265.5C 173.333,224.167 173.333,182.833 174,141.5C 189.117,140.777 204.283,140.11 219.5,139.5 Z"/></g>
<g><path style="opacity:0.236" fill="#f0ce6b" d="M 110.5,208.5 C 112.679,208.84 114.512,209.84 116,211.5C 116.333,235.167 116.667,258.833 117,282.5C 120.125,288.968 125.291,291.301 132.5,289.5C 132.5,288.5 132.5,287.5 132.5,286.5C 133.833,286.5 135.167,286.5 136.5,286.5C 133.366,291.119 129.032,292.619 123.5,291C 121.333,289.5 119.167,288 117,286.5C 115.862,262.222 115.028,237.889 114.5,213.5C 112.448,212.389 111.114,210.723 110.5,208.5 Z"/></g>
<g><path style="opacity:0.391" fill="#fadc81" d="M 150.5,229.5 C 152.029,236.02 152.362,242.687 151.5,249.5C 150.509,243.021 150.176,236.354 150.5,229.5 Z"/></g>
<g><path style="opacity:0.243" fill="#eccd7a" d="M 431.5,251.5 C 444.327,250.34 457.327,250.173 470.5,251C 472.093,251.949 473.426,253.115 474.5,254.5C 472.577,254.205 470.91,253.372 469.5,252C 456.838,251.5 444.171,251.333 431.5,251.5 Z"/></g>
<g><path style="opacity:1" fill="#f6c336" d="M 431.5,251.5 C 444.171,251.333 456.838,251.5 469.5,252C 470.91,253.372 472.577,254.205 474.5,254.5C 474.989,257.467 476.155,260.133 478,262.5C 477.861,270.565 478.695,278.232 480.5,285.5C 486.167,285.5 491.833,285.5 497.5,285.5C 497.5,284.167 497.5,282.833 497.5,281.5C 498.818,274.906 499.485,268.24 499.5,261.5C 500.167,261.5 500.833,261.5 501.5,261.5C 502.576,264.734 503.243,268.068 503.5,271.5C 504.833,271.5 506.167,271.5 507.5,271.5C 507.343,272.873 507.51,274.207 508,275.5C 509.714,274.075 511.047,274.408 512,276.5C 513.377,272.735 514.377,273.068 515,277.5C 515.667,276.167 516.333,276.167 517,277.5C 518.113,276.695 519.279,276.028 520.5,275.5C 520.249,280.507 519.916,285.507 519.5,290.5C 518.504,290.414 517.671,290.748 517,291.5C 515.434,293.43 514.267,296.097 513.5,299.5C 510.466,301.541 507.8,303.875 505.5,306.5C 505.158,307.338 504.492,307.672 503.5,307.5C 492.833,307.5 482.167,307.5 471.5,307.5C 463.759,304.921 458.926,299.587 457,291.5C 456.501,285.843 456.334,280.176 456.5,274.5C 452.833,274.5 449.167,274.5 445.5,274.5C 444.504,289.324 444.171,304.324 444.5,319.5C 443.5,319.5 442.5,319.5 441.5,319.5C 441.089,323.221 440.422,326.888 439.5,330.5C 439.5,331.167 439.167,331.5 438.5,331.5C 436.833,331.5 435.167,331.5 433.5,331.5C 433.5,332.5 433.5,333.5 433.5,334.5C 428.654,336.039 423.654,336.706 418.5,336.5C 415.983,335.027 413.15,334.36 410,334.5C 395.849,335.136 381.683,335.136 367.5,334.5C 367.5,332.5 367.5,330.5 367.5,328.5C 372.833,328.5 378.167,328.5 383.5,328.5C 383.225,323.78 384.059,323.446 386,327.5C 388.929,323.653 390.929,324.319 392,329.5C 393.11,327.963 394.61,327.297 396.5,327.5C 396.5,324.833 396.5,322.167 396.5,319.5C 397.5,319.5 398.5,319.5 399.5,319.5C 399.5,322.167 399.5,324.833 399.5,327.5C 404.891,326.896 409.891,327.896 414.5,330.5C 415.487,327.232 415.82,323.898 415.5,320.5C 419.56,321.152 421.56,319.485 421.5,315.5C 371.513,316.634 321.513,316.801 271.5,316C 270.833,315.667 270.167,315.333 269.5,315C 281.341,314.831 293.007,314.331 304.5,313.5C 343.5,313.5 382.5,313.5 421.5,313.5C 422.687,296.676 423.521,279.676 424,262.5C 425.591,260.073 426.425,257.407 426.5,254.5C 427.659,252.75 429.326,251.75 431.5,251.5 Z"/></g>
<g><path style="opacity:0.499" fill="#f3dc87" d="M 150.5,228.5 C 150.5,227.5 150.5,226.5 150.5,225.5C 146.833,225.5 143.167,225.5 139.5,225.5C 139.667,244.836 139.5,264.17 139,283.5C 138.722,284.416 138.222,285.082 137.5,285.5C 137.333,265.497 137.5,245.497 138,225.5C 142.401,224.533 146.901,224.2 151.5,224.5C 151.768,226.099 151.434,227.432 150.5,228.5 Z"/></g>
<g><path style="opacity:0.702" fill="#f6ce5f" d="M 426.5,254.5 C 426.425,257.407 425.591,260.073 424,262.5C 423.521,279.676 422.687,296.676 421.5,313.5C 421.333,296.497 421.5,279.497 422,262.5C 422.23,259.032 423.73,256.366 426.5,254.5 Z"/></g>
<g><path style="opacity:0.871" fill="#f1d16b" d="M 151.5,255.5 C 152.167,261.5 152.833,267.5 153.5,273.5C 153.523,275.927 154.023,278.26 155,280.5C 157.114,281.953 158.448,283.953 159,286.5C 162.935,287.586 166.435,289.419 169.5,292C 184.833,292.333 200.167,292.667 215.5,293C 216.056,293.383 216.389,293.883 216.5,294.5C 216.833,295.167 217.167,295.833 217.5,296.5C 215.804,296.315 214.471,295.481 213.5,294C 198.5,293.667 183.5,293.333 168.5,293C 161.263,291.432 156.096,287.266 153,280.5C 151.41,272.16 150.91,263.827 151.5,255.5 Z"/></g>
<g><path style="opacity:0.6" fill="#f1ce6a" d="M 474.5,254.5 C 477.537,257.06 479.371,260.393 480,264.5C 480.5,271.158 480.666,277.825 480.5,284.5C 480.5,284.833 480.5,285.167 480.5,285.5C 478.695,278.232 477.861,270.565 478,262.5C 476.155,260.133 474.989,257.467 474.5,254.5 Z"/></g>
<g><path style="opacity:0.027" fill="#fbdca9" d="M 497.5,281.5 C 497.5,282.833 497.5,284.167 497.5,285.5C 491.833,285.5 486.167,285.5 480.5,285.5C 480.5,285.167 480.5,284.833 480.5,284.5C 485.833,284.5 491.167,284.5 496.5,284.5C 496.263,283.209 496.596,282.209 497.5,281.5 Z"/></g>
<g><path style="opacity:0.992" fill="#f5ce6d" d="M 519.5,290.5 C 518.024,298.642 513.357,303.975 505.5,306.5C 507.8,303.875 510.466,301.541 513.5,299.5C 514.267,296.097 515.434,293.43 517,291.5C 517.671,290.748 518.504,290.414 519.5,290.5 Z"/></g>
<g><path style="opacity:0.122" fill="#f1c95e" d="M 445.5,274.5 C 445.667,290.17 445.5,305.837 445,321.5C 443.656,324.865 441.823,327.865 439.5,330.5C 440.422,326.888 441.089,323.221 441.5,319.5C 442.5,319.5 443.5,319.5 444.5,319.5C 444.171,304.324 444.504,289.324 445.5,274.5 Z"/></g>
<g><path style="opacity:0.996" fill="#f2d26f" d="M 251.5,296.5 C 256.562,300.559 260.895,305.226 264.5,310.5C 258.054,307.781 253.721,303.114 251.5,296.5 Z"/></g>
<g><path style="opacity:0.595" fill="#f2cd6b" d="M 471.5,307.5 C 482.167,307.5 492.833,307.5 503.5,307.5C 502.737,308.268 501.737,308.768 500.5,309C 492.167,309.667 483.833,309.667 475.5,309C 473.942,308.79 472.609,308.29 471.5,307.5 Z"/></g>
<g><path style="opacity:1" fill="#f5c335" d="M 232.5,281.5 C 235.5,283.5 238.5,285.5 241.5,287.5C 245.462,289.795 248.795,292.795 251.5,296.5C 253.721,303.114 258.054,307.781 264.5,310.5C 266.196,310.685 267.529,311.519 268.5,313C 280.495,313.5 292.495,313.667 304.5,313.5C 293.007,314.331 281.341,314.831 269.5,315C 270.167,315.333 270.833,315.667 271.5,316C 321.513,316.801 371.513,316.634 421.5,315.5C 421.56,319.485 419.56,321.152 415.5,320.5C 415.82,323.898 415.487,327.232 414.5,330.5C 409.891,327.896 404.891,326.896 399.5,327.5C 399.5,324.833 399.5,322.167 399.5,319.5C 398.5,319.5 397.5,319.5 396.5,319.5C 396.5,322.167 396.5,324.833 396.5,327.5C 394.61,327.297 393.11,327.963 392,329.5C 390.929,324.319 388.929,323.653 386,327.5C 384.059,323.446 383.225,323.78 383.5,328.5C 378.167,328.5 372.833,328.5 367.5,328.5C 367.5,330.5 367.5,332.5 367.5,334.5C 381.683,335.136 395.849,335.136 410,334.5C 413.15,334.36 415.983,335.027 418.5,336.5C 365.144,336.816 311.81,336.483 258.5,335.5C 255.91,334.872 253.577,333.705 251.5,332C 239.894,320.377 228.56,308.544 217.5,296.5C 217.167,295.833 216.833,295.167 216.5,294.5C 218.239,295.434 219.905,295.434 221.5,294.5C 219.995,293.158 219.328,291.492 219.5,289.5C 220.978,289.762 222.311,289.429 223.5,288.5C 225.927,285.437 228.927,283.104 232.5,281.5 Z"/></g>
<g><path style="opacity:0.536" fill="#eece6e" d="M 438.5,331.5 C 435.525,334.661 431.858,336.828 427.5,338C 372.833,338.667 318.167,338.667 263.5,338C 261.509,337.626 259.842,336.793 258.5,335.5C 311.81,336.483 365.144,336.816 418.5,336.5C 423.654,336.706 428.654,336.039 433.5,334.5C 433.5,333.5 433.5,332.5 433.5,331.5C 435.167,331.5 436.833,331.5 438.5,331.5 Z"/></g>
</svg>
