<?xml version="1.0" encoding="UTF-8"?>
<!DOCTYPE svg PUBLIC "-//W3C//DTD SVG 1.1//EN" "http://www.w3.org/Graphics/SVG/1.1/DTD/svg11.dtd">
<svg xmlns="http://www.w3.org/2000/svg" version="1.1" width="500px" height="500px" style="shape-rendering:geometricPrecision; text-rendering:geometricPrecision; image-rendering:optimizeQuality; fill-rule:evenodd; clip-rule:evenodd" xmlns:xlink="http://www.w3.org/1999/xlink">
<g><path style="opacity:1" fill="#30547f" d="M 331.5,145.5 C 331.881,146.931 332.881,147.764 334.5,148C 331.138,149.915 327.471,150.915 323.5,151C 324.328,151.915 325.328,152.581 326.5,153C 324.5,153.5 322.5,154 320.5,154.5C 316.87,153.574 313.203,152.907 309.5,152.5C 306.733,152.142 304.067,151.475 301.5,150.5C 301.918,149.778 302.584,149.278 303.5,149C 298.012,148.504 292.845,147.004 288,144.5C 287.329,145.252 286.496,145.586 285.5,145.5C 285.539,144.417 285.873,143.417 286.5,142.5C 283.893,141.682 281.226,141.182 278.5,141C 278.833,140.667 279.167,140.333 279.5,140C 276.313,139.999 273.48,139.166 271,137.5C 270.085,138.328 269.419,139.328 269,140.5C 268.833,211.001 268.333,281.335 267.5,351.5C 266.335,280.668 266.168,209.668 267,138.5C 270.084,131.045 275.584,128.545 283.5,131C 300.802,132.15 316.802,136.983 331.5,145.5 Z"/></g>
<g><path style="opacity:1" fill="#204b78" d="M 232.5,138.5 C 231.292,137.766 229.959,137.433 228.5,137.5C 228.773,135.549 228.107,134.049 226.5,133C 215.304,131.078 204.971,133.078 195.5,139C 197.256,139.202 198.922,139.702 200.5,140.5C 197.232,141.487 193.898,141.82 190.5,141.5C 190.5,140.5 190.5,139.5 190.5,138.5C 187.903,138.643 185.569,139.477 183.5,141C 186.946,141.661 190.279,142.495 193.5,143.5C 193.5,144.833 193.5,146.167 193.5,147.5C 198.822,147.98 204.155,148.313 209.5,148.5C 180.49,153.502 158.157,168.502 142.5,193.5C 142.466,190.801 143.133,188.301 144.5,186C 143.919,185.107 143.585,184.107 143.5,183C 144.476,180.882 145.31,178.715 146,176.5C 149.935,174.491 153.435,171.991 156.5,169C 157.167,167.333 157.833,165.667 158.5,164C 166.241,161.899 166.241,159.732 158.5,157.5C 155.664,157.706 152.998,158.373 150.5,159.5C 167.251,143.048 187.584,133.548 211.5,131C 216.5,130.333 221.5,130.333 226.5,131C 229.817,132.48 231.817,134.98 232.5,138.5 Z"/></g>
<g><path style="opacity:1" fill="#114778" d="M 285.5,145.5 C 283.856,145.286 282.356,145.62 281,146.5C 280.667,177.5 280.333,208.5 280,239.5C 279.496,247.533 278.663,255.533 277.5,263.5C 277.833,266.167 278.167,268.833 278.5,271.5C 279.329,266.533 279.829,261.533 280,256.5C 280.167,259.833 280.333,263.167 280.5,266.5C 279.436,291.493 279.269,316.493 280,341.5C 280.374,342.416 280.874,343.25 281.5,344C 283.608,344.36 285.608,345.027 287.5,346C 288.337,347.011 288.67,348.178 288.5,349.5C 286.516,349.617 284.85,348.95 283.5,347.5C 282.19,350.561 279.857,351.894 276.5,351.5C 276.38,349.266 276.713,347.099 277.5,345C 276.742,340.603 275.575,340.436 274,344.5C 271.828,350.813 273.994,353.813 280.5,353.5C 282.429,353.46 284.262,353.127 286,352.5C 286.667,353.167 286.667,353.833 286,354.5C 280.157,357.132 274.324,357.132 268.5,354.5C 267.596,353.791 267.263,352.791 267.5,351.5C 268.333,281.335 268.833,211.001 269,140.5C 269.419,139.328 270.085,138.328 271,137.5C 273.48,139.166 276.313,139.999 279.5,140C 279.167,140.333 278.833,140.667 278.5,141C 281.226,141.182 283.893,141.682 286.5,142.5C 285.873,143.417 285.539,144.417 285.5,145.5 Z"/></g>
<g><path style="opacity:1" fill="#234e7c" d="M 232.5,138.5 C 232.184,208.501 232.517,278.668 233.5,349C 232.763,352.944 230.763,355.944 227.5,358C 220.753,358.792 214.086,358.626 207.5,357.5C 207.541,355.255 208.375,354.588 210,355.5C 210.305,353.443 210.305,351.443 210,349.5C 210.718,350.451 211.551,350.617 212.5,350C 213.167,348.667 213.833,347.333 214.5,346C 211.574,345.782 208.74,345.282 206,344.5C 205.25,345.126 204.416,345.626 203.5,346C 204.759,346.923 206.092,347.757 207.5,348.5C 206.667,348.833 205.833,349.167 205,349.5C 201.15,348.672 197.65,347.172 194.5,345C 194.381,343.719 194.881,342.552 196,341.5C 196.725,342.059 197.558,342.392 198.5,342.5C 200.056,341.453 201.723,340.786 203.5,340.5C 207.81,341.08 212.143,341.414 216.5,341.5C 216.667,276.832 216.5,212.166 216,147.5C 213.959,148.423 211.792,148.756 209.5,148.5C 204.155,148.313 198.822,147.98 193.5,147.5C 193.5,146.167 193.5,144.833 193.5,143.5C 190.279,142.495 186.946,141.661 183.5,141C 185.569,139.477 187.903,138.643 190.5,138.5C 190.5,139.5 190.5,140.5 190.5,141.5C 193.898,141.82 197.232,141.487 200.5,140.5C 198.922,139.702 197.256,139.202 195.5,139C 204.971,133.078 215.304,131.078 226.5,133C 228.107,134.049 228.773,135.549 228.5,137.5C 229.959,137.433 231.292,137.766 232.5,138.5 Z"/></g>
<g><path style="opacity:1" fill="#204a78" d="M 425.5,146.5 C 436.834,145.48 440.501,150.147 436.5,160.5C 423.808,169.752 410.642,178.086 397,185.5C 389.381,183.904 387.048,179.571 390,172.5C 401.827,163.685 413.66,155.019 425.5,146.5 Z"/></g>
<g><path style="opacity:1" fill="#204b79" d="M 64.5,146.5 C 67.5184,146.335 70.5184,146.502 73.5,147C 85.1667,154.667 96.8333,162.333 108.5,170C 112.461,174.536 112.461,179.036 108.5,183.5C 105.216,184.657 101.882,184.824 98.5,184C 86.3171,176.077 74.3171,167.911 62.5,159.5C 61.4079,157.817 60.7413,155.984 60.5,154C 61.4486,151.268 62.782,148.768 64.5,146.5 Z"/></g>
<g><path style="opacity:1" fill="#1d4a79" d="M 331.5,145.5 C 356.501,159.826 372.835,180.826 380.5,208.5C 379.25,208.423 378.417,207.756 378,206.5C 377.293,208.081 376.46,209.581 375.5,211C 376.76,212.814 376.76,214.647 375.5,216.5C 373.898,215.45 373.065,216.117 373,218.5C 372.751,217.376 372.251,216.376 371.5,215.5C 371.167,215.833 370.833,216.167 370.5,216.5C 369.557,221.1 369.223,225.767 369.5,230.5C 363.948,193.399 343.948,167.399 309.5,152.5C 313.203,152.907 316.87,153.574 320.5,154.5C 322.5,154 324.5,153.5 326.5,153C 325.328,152.581 324.328,151.915 323.5,151C 327.471,150.915 331.138,149.915 334.5,148C 332.881,147.764 331.881,146.931 331.5,145.5 Z"/></g>
<g><path style="opacity:1" fill="#1e4b7a" d="M 142.5,193.5 C 127.681,225.519 126.681,258.019 139.5,291C 142.385,295.943 145.385,300.776 148.5,305.5C 145.233,309.18 142.567,313.346 140.5,318C 142.07,319.836 143.57,319.67 145,317.5C 145.5,317.833 146,318.167 146.5,318.5C 145.441,320.534 144.441,322.534 143.5,324.5C 123.871,302.86 113.871,277.193 113.5,247.5C 113.464,218.927 121.964,193.261 139,170.5C 142.394,166.271 146.227,162.604 150.5,159.5C 152.998,158.373 155.664,157.706 158.5,157.5C 166.241,159.732 166.241,161.899 158.5,164C 157.833,165.667 157.167,167.333 156.5,169C 153.435,171.991 149.935,174.491 146,176.5C 145.31,178.715 144.476,180.882 143.5,183C 143.585,184.107 143.919,185.107 144.5,186C 143.133,188.301 142.466,190.801 142.5,193.5 Z"/></g>
<g><path style="opacity:1" fill="#214c7b" d="M 380.5,208.5 C 382.095,211.557 383.262,214.89 384,218.5C 387.308,236.172 387.308,253.839 384,271.5C 383.262,275.11 382.095,278.443 380.5,281.5C 377.086,277.542 375.252,272.876 375,267.5C 373.812,268.563 373.312,269.897 373.5,271.5C 372.167,271.5 370.833,271.5 369.5,271.5C 369.794,267.9 370.46,264.4 371.5,261C 370.663,259.989 370.33,258.822 370.5,257.5C 370.68,248.472 370.347,239.472 369.5,230.5C 369.223,225.767 369.557,221.1 370.5,216.5C 370.833,216.167 371.167,215.833 371.5,215.5C 372.251,216.376 372.751,217.376 373,218.5C 373.065,216.117 373.898,215.45 375.5,216.5C 376.76,214.647 376.76,212.814 375.5,211C 376.46,209.581 377.293,208.081 378,206.5C 378.417,207.756 379.25,208.423 380.5,208.5 Z"/></g>
<g><path style="opacity:1" fill="#2a517e" d="M 49.5,235.5 C 63.1707,235.333 76.8374,235.5 90.5,236C 95.1126,237.452 97.7793,240.618 98.5,245.5C 97.2804,248.887 94.947,251.054 91.5,252C 77.5,252.667 63.5,252.667 49.5,252C 45.4385,251.109 43.4385,248.609 43.5,244.5C 43.2843,239.911 45.2843,236.911 49.5,235.5 Z"/></g>
<g><path style="opacity:1" fill="#28507e" d="M 408.5,235.5 C 422.171,235.333 435.837,235.5 449.5,236C 455.233,238.248 457.067,242.414 455,248.5C 454.021,250.32 452.521,251.487 450.5,252C 435.833,252.667 421.167,252.667 406.5,252C 400.274,248.933 399.107,244.433 403,238.5C 404.876,237.391 406.709,236.391 408.5,235.5 Z"/></g>
<g><path style="opacity:1" fill="#1b4979" d="M 370.5,257.5 C 370.33,258.822 370.663,259.989 371.5,261C 370.46,264.4 369.794,267.9 369.5,271.5C 370.833,271.5 372.167,271.5 373.5,271.5C 373.312,269.897 373.812,268.563 375,267.5C 375.252,272.876 377.086,277.542 380.5,281.5C 376.065,300.029 366.732,315.696 352.5,328.5C 350.019,328.677 348.186,327.677 347,325.5C 345.262,328.232 342.762,329.732 339.5,330C 338.643,330.689 337.977,331.522 337.5,332.5C 339.167,333.167 340.833,333.833 342.5,334.5C 339.942,336.717 336.942,337.883 333.5,338C 334.993,339.156 334.826,339.99 333,340.5C 328.695,338.267 324.195,336.434 319.5,335C 322.435,332.234 325.768,330.067 329.5,328.5C 330.127,327.583 330.461,326.583 330.5,325.5C 347.572,312.588 359.405,295.922 366,275.5C 367.404,269.347 368.904,263.347 370.5,257.5 Z"/></g>
<g><path style="opacity:1" fill="#1b4a79" d="M 148.5,305.5 C 162.903,323.524 181.236,335.191 203.5,340.5C 201.723,340.786 200.056,341.453 198.5,342.5C 197.558,342.392 196.725,342.059 196,341.5C 194.881,342.552 194.381,343.719 194.5,345C 197.65,347.172 201.15,348.672 205,349.5C 205.833,349.167 206.667,348.833 207.5,348.5C 206.092,347.757 204.759,346.923 203.5,346C 204.416,345.626 205.25,345.126 206,344.5C 208.74,345.282 211.574,345.782 214.5,346C 213.833,347.333 213.167,348.667 212.5,350C 211.551,350.617 210.718,350.451 210,349.5C 210.305,351.443 210.305,353.443 210,355.5C 208.375,354.588 207.541,355.255 207.5,357.5C 182.487,353.713 161.153,342.713 143.5,324.5C 144.441,322.534 145.441,320.534 146.5,318.5C 146,318.167 145.5,317.833 145,317.5C 143.57,319.67 142.07,319.836 140.5,318C 142.567,313.346 145.233,309.18 148.5,305.5 Z"/></g>
<g><path style="opacity:1" fill="#1f4b79" d="M 100.5,302.5 C 110.862,302.216 114.029,306.883 110,316.5C 97.9195,324.791 85.7529,332.957 73.5,341C 66.4222,343.435 62.0888,341.102 60.5,334C 60.396,331.855 61.0627,330.021 62.5,328.5C 75.1695,319.832 87.8361,311.165 100.5,302.5 Z"/></g>
<g><path style="opacity:1" fill="#1f4a79" d="M 392.5,302.5 C 395.978,302.184 399.312,302.684 402.5,304C 412.923,311.281 423.589,318.281 434.5,325C 438.969,328.916 439.636,333.416 436.5,338.5C 433.961,341.04 430.961,341.874 427.5,341C 415.854,333.364 404.187,325.697 392.5,318C 387.186,312.714 387.186,307.548 392.5,302.5 Z"/></g>
<g><path style="opacity:1" fill="#2c537e" d="M 301.5,150.5 C 295.198,149.288 288.864,148.288 282.5,147.5C 282.5,212.5 282.5,277.5 282.5,342.5C 299.79,340.175 315.79,334.508 330.5,325.5C 330.461,326.583 330.127,327.583 329.5,328.5C 325.768,330.067 322.435,332.234 319.5,335C 324.195,336.434 328.695,338.267 333,340.5C 334.826,339.99 334.993,339.156 333.5,338C 336.942,337.883 339.942,336.717 342.5,334.5C 340.833,333.833 339.167,333.167 337.5,332.5C 337.977,331.522 338.643,330.689 339.5,330C 342.762,329.732 345.262,328.232 347,325.5C 348.186,327.677 350.019,328.677 352.5,328.5C 329.5,349.337 302.5,359.17 271.5,358C 270.29,356.961 269.29,355.794 268.5,354.5C 274.324,357.132 280.157,357.132 286,354.5C 286.667,353.833 286.667,353.167 286,352.5C 284.262,353.127 282.429,353.46 280.5,353.5C 273.994,353.813 271.828,350.813 274,344.5C 275.575,340.436 276.742,340.603 277.5,345C 276.713,347.099 276.38,349.266 276.5,351.5C 279.857,351.894 282.19,350.561 283.5,347.5C 284.85,348.95 286.516,349.617 288.5,349.5C 288.67,348.178 288.337,347.011 287.5,346C 285.608,345.027 283.608,344.36 281.5,344C 280.874,343.25 280.374,342.416 280,341.5C 279.269,316.493 279.436,291.493 280.5,266.5C 280.333,263.167 280.167,259.833 280,256.5C 279.829,261.533 279.329,266.533 278.5,271.5C 278.167,268.833 277.833,266.167 277.5,263.5C 278.663,255.533 279.496,247.533 280,239.5C 280.333,208.5 280.667,177.5 281,146.5C 282.356,145.62 283.856,145.286 285.5,145.5C 286.496,145.586 287.329,145.252 288,144.5C 292.845,147.004 298.012,148.504 303.5,149C 302.584,149.278 301.918,149.778 301.5,150.5 Z"/></g>
</svg>
