<?xml version="1.0" encoding="UTF-8"?>
<!DOCTYPE svg PUBLIC "-//W3C//DTD SVG 1.1//EN" "http://www.w3.org/Graphics/SVG/1.1/DTD/svg11.dtd">
<svg xmlns="http://www.w3.org/2000/svg" version="1.1" width="632px" height="395px" style="shape-rendering:geometricPrecision; text-rendering:geometricPrecision; image-rendering:optimizeQuality; fill-rule:evenodd; clip-rule:evenodd" xmlns:xlink="http://www.w3.org/1999/xlink">
<g><path style="opacity:0.435" fill="#db7b72" d="M 107.5,109.5 C 103.846,109.058 100.179,108.724 96.5,108.5C 96.9704,107.307 97.9704,106.64 99.5,106.5C 102.555,106.737 105.221,107.737 107.5,109.5 Z"/></g>
<g><path style="opacity:1" fill="#eb4c3a" d="M 96.5,108.5 C 100.179,108.724 103.846,109.058 107.5,109.5C 108.791,109.263 109.791,109.596 110.5,110.5C 113.321,112.712 116.655,113.712 120.5,113.5C 120.833,113.5 121.167,113.5 121.5,113.5C 121.577,114.75 122.244,115.583 123.5,116C 128.585,116.956 133.585,118.123 138.5,119.5C 140.645,120.978 142.979,122.312 145.5,123.5C 148.428,124.484 151.428,124.817 154.5,124.5C 158.149,127.379 162.482,128.712 167.5,128.5C 170.239,132.009 173.906,133.343 178.5,132.5C 178.173,141.682 178.507,150.682 179.5,159.5C 197.167,159.5 214.833,159.5 232.5,159.5C 233.166,155.681 233.499,151.681 233.5,147.5C 233.491,143.107 232.824,139.107 231.5,135.5C 226.025,134.511 220.358,134.178 214.5,134.5C 214.185,126.58 214.518,118.747 215.5,111C 221.509,110.5 227.509,110.667 233.5,111.5C 241.34,111.063 249.007,110.396 256.5,109.5C 259.604,108.225 262.604,108.225 265.5,109.5C 268.962,110.482 272.629,110.815 276.5,110.5C 276.5,118.5 276.5,126.5 276.5,134.5C 270.31,134.177 264.31,134.51 258.5,135.5C 257.508,143.316 257.174,151.316 257.5,159.5C 276.996,160.332 296.662,160.832 316.5,161C 318.125,161.853 318.458,162.853 317.5,164C 319.518,164.505 321.518,165.005 323.5,165.5C 322.545,168.811 321.212,171.977 319.5,175C 320.448,175.483 321.448,175.649 322.5,175.5C 322.649,176.552 322.483,177.552 322,178.5C 320.057,178.041 318.724,179.041 318,181.5C 317.505,183.473 317.338,185.473 317.5,187.5C 314.136,188.211 311.803,187.044 310.5,184C 311.448,183.517 312.448,183.351 313.5,183.5C 314.624,181.269 315.124,178.936 315,176.5C 312.963,178.436 310.797,180.102 308.5,181.5C 265.159,181.836 222.159,182.836 179.5,184.5C 179.5,212.167 179.5,239.833 179.5,267.5C 182.039,269.232 185.039,270.232 188.5,270.5C 248.126,269.671 307.793,269.171 367.5,269C 368.381,268.292 369.047,267.458 369.5,266.5C 373.909,261.431 377.909,256.098 381.5,250.5C 384.297,250.033 385.631,248.367 385.5,245.5C 389.311,243.564 391.978,240.564 393.5,236.5C 393.833,236.5 394.167,236.5 394.5,236.5C 397.882,233.433 401.048,230.099 404,226.5C 404.483,225.552 404.649,224.552 404.5,223.5C 409.21,221.629 412.876,218.463 415.5,214C 416.448,213.517 417.448,213.351 418.5,213.5C 418.34,211.801 418.506,210.134 419,208.5C 420.481,207.529 421.315,206.196 421.5,204.5C 421.5,203.833 421.833,203.5 422.5,203.5C 425.854,201.137 428.52,198.137 430.5,194.5C 429.667,194.167 428.833,193.833 428,193.5C 426.624,193.684 425.791,194.351 425.5,195.5C 425.167,195.5 424.833,195.5 424.5,195.5C 421.772,194.795 418.939,194.128 416,193.5C 413.266,195.71 410.433,197.71 407.5,199.5C 406.833,199.5 406.167,199.5 405.5,199.5C 401.865,200.114 398.198,200.448 394.5,200.5C 390.951,199.118 387.618,199.785 384.5,202.5C 380.893,203.489 377.226,203.823 373.5,203.5C 373.5,204.5 373.5,205.5 373.5,206.5C 366.312,208.096 359.312,209.263 352.5,210C 351.748,210.671 351.414,211.504 351.5,212.5C 350.005,212.989 348.671,213.655 347.5,214.5C 346.432,215.434 345.099,215.768 343.5,215.5C 341.473,215.662 339.473,215.495 337.5,215C 336.692,213.294 335.359,212.461 333.5,212.5C 331.502,208.507 329.002,204.841 326,201.5C 325.275,199.843 325.775,198.843 327.5,198.5C 329.379,199.341 331.379,199.675 333.5,199.5C 333.413,195.759 331.413,193.759 327.5,193.5C 326.779,191.314 326.113,189.147 325.5,187C 324.5,186.333 323.5,186.333 322.5,187C 321.994,189.532 320.827,191.698 319,193.5C 318.5,193 318,192.5 317.5,192C 319.114,188.191 321.114,184.525 323.5,181C 325.167,181.333 326.833,181.667 328.5,182C 327.739,179.821 328.072,177.655 329.5,175.5C 330.005,177.769 331.338,179.103 333.5,179.5C 336.148,180.824 338.814,182.157 341.5,183.5C 341.67,186.204 343.003,187.871 345.5,188.5C 346.167,188.5 346.833,188.5 347.5,188.5C 350.839,188.11 354.173,187.61 357.5,187C 358.056,186.617 358.389,186.117 358.5,185.5C 364.149,186.1 369.149,184.767 373.5,181.5C 381.595,180.447 389.595,178.947 397.5,177C 398.056,176.617 398.389,176.117 398.5,175.5C 403.809,174.924 408.809,173.591 413.5,171.5C 413.833,171.5 414.167,171.5 414.5,171.5C 417.839,171.11 421.173,170.61 424.5,170C 425.942,169.623 426.942,168.79 427.5,167.5C 427.833,167.5 428.167,167.5 428.5,167.5C 434.137,168.16 439.137,166.827 443.5,163.5C 446.85,163.665 450.183,163.498 453.5,163C 457.995,161.22 462.662,160.054 467.5,159.5C 467.863,158.817 468.196,158.15 468.5,157.5C 473.869,156.987 479.202,156.154 484.5,155C 487.401,154.125 490.068,152.958 492.5,151.5C 499.357,151.336 505.691,149.669 511.5,146.5C 513.214,145.262 515.214,144.595 517.5,144.5C 520.01,144.054 522.01,144.72 523.5,146.5C 523.351,147.552 523.517,148.552 524,149.5C 528.568,154.517 533.402,159.183 538.5,163.5C 539.15,165.435 539.483,167.435 539.5,169.5C 542.91,169.384 544.244,171.05 543.5,174.5C 542.167,174.5 540.833,174.5 539.5,174.5C 539.5,175.5 539.5,176.5 539.5,177.5C 533.732,177.025 531.065,179.692 531.5,185.5C 531.5,186.167 531.167,186.5 530.5,186.5C 528.435,186.483 526.435,186.15 524.5,185.5C 522.833,183.5 521.167,181.5 519.5,179.5C 519.512,176.858 518.179,175.525 515.5,175.5C 515.5,175.167 515.5,174.833 515.5,174.5C 515.5,173.5 515.5,172.5 515.5,171.5C 512.813,171.336 510.146,171.503 507.5,172C 497.701,175.094 487.701,177.427 477.5,179C 475.973,180.032 474.64,181.199 473.5,182.5C 473.5,184.5 472.5,185.5 470.5,185.5C 468.956,185.703 467.622,186.37 466.5,187.5C 465.325,186.145 464.325,186.312 463.5,188C 464.517,189.049 464.684,190.216 464,191.5C 461.41,192.45 459.41,194.116 458,196.5C 457.282,195.549 456.449,195.383 455.5,196C 456.166,198.329 456.166,200.829 455.5,203.5C 452.763,205.234 450.763,207.568 449.5,210.5C 447.856,210.714 446.356,210.38 445,209.5C 444.383,210.449 444.549,211.282 445.5,212C 443.789,213.435 442.622,215.269 442,217.5C 440.68,217.799 439.18,217.966 437.5,218C 438.536,219.776 438.536,221.609 437.5,223.5C 434.273,224.894 430.94,226.061 427.5,227C 428.449,227.617 429.282,227.451 430,226.5C 430.692,227.025 431.192,227.692 431.5,228.5C 430.349,229.731 429.183,229.731 428,228.5C 427.355,229.646 426.522,230.646 425.5,231.5C 426.246,232.736 426.579,234.07 426.5,235.5C 424.801,235.34 423.134,235.506 421.5,236C 423.037,237.11 423.703,238.61 423.5,240.5C 422.5,240.5 421.5,240.5 420.5,240.5C 420.5,241.833 420.5,243.167 420.5,244.5C 418.61,244.703 417.11,244.037 416,242.5C 415.138,244.087 414.471,245.754 414,247.5C 413.683,245.699 413.016,245.366 412,246.5C 411.506,248.134 411.34,249.801 411.5,251.5C 409.857,251.48 408.524,252.147 407.5,253.5C 407.15,256.862 405.816,259.695 403.5,262C 400.839,261.402 398.173,261.568 395.5,262.5C 396.325,263.386 397.325,263.719 398.5,263.5C 398.5,264.5 398.5,265.5 398.5,266.5C 397.5,266.5 396.5,266.5 395.5,266.5C 395.5,268.5 395.5,270.5 395.5,272.5C 395.167,273.5 394.5,274.167 393.5,274.5C 391.637,276.705 389.303,278.039 386.5,278.5C 386.5,279.5 386.5,280.5 386.5,281.5C 385.127,281.343 383.793,281.51 382.5,282C 383.258,283.364 382.758,284.531 381,285.5C 380.51,286.793 380.343,288.127 380.5,289.5C 379.5,289.833 378.833,290.5 378.5,291.5C 304.833,291.5 231.167,291.5 157.5,291.5C 157.768,289.901 157.434,288.568 156.5,287.5C 156.833,256.16 156.5,224.826 155.5,193.5C 153.591,192.652 151.591,192.318 149.5,192.5C 145.288,188.874 140.288,187.207 134.5,187.5C 126.753,185.461 119.086,183.128 111.5,180.5C 108.808,177.819 105.475,176.486 101.5,176.5C 101.167,176.5 100.833,176.5 100.5,176.5C 100.209,175.351 99.3756,174.684 98,174.5C 95.863,173.923 93.6963,173.59 91.5,173.5C 88.779,173.037 86.1123,172.371 83.5,171.5C 82.713,169.896 81.3797,169.229 79.5,169.5C 79.6159,166.14 79.9492,162.807 80.5,159.5C 81.4584,159.047 82.2917,158.381 83,157.5C 83.4974,154.854 83.6641,152.187 83.5,149.5C 84.7498,149.423 85.5831,148.756 86,147.5C 86.8215,144.883 87.3215,142.216 87.5,139.5C 87.5,138.833 87.5,138.167 87.5,137.5C 89.8061,133.915 91.1394,129.915 91.5,125.5C 91.5,125.167 91.5,124.833 91.5,124.5C 94.5208,120.086 96.1875,115.086 96.5,109.5C 96.5,109.167 96.5,108.833 96.5,108.5 Z M 131.5,143.5 C 132.167,143.5 132.833,143.5 133.5,143.5C 140.243,146.911 147.243,149.578 154.5,151.5C 155.108,156.944 154.442,161.944 152.5,166.5C 151.833,166.5 151.167,166.5 150.5,166.5C 148.208,164.733 145.542,163.733 142.5,163.5C 137.535,161.94 132.535,160.273 127.5,158.5C 125.401,157.388 123.067,156.721 120.5,156.5C 120.167,156.5 119.833,156.5 119.5,156.5C 116.394,154.732 113.061,153.232 109.5,152C 110.337,150.989 110.67,149.822 110.5,148.5C 111.216,145.046 112.549,141.713 114.5,138.5C 120.122,140.375 125.788,142.041 131.5,143.5 Z M 307.5,185.5 C 308.167,186.833 309.167,187.833 310.5,188.5C 313.215,191.882 316.215,194.882 319.5,197.5C 323.411,203.082 328.077,208.082 333.5,212.5C 335.834,217.579 339.168,218.579 343.5,215.5C 345.099,215.768 346.432,215.434 347.5,214.5C 354.223,213.904 360.556,212.237 366.5,209.5C 370.078,209.451 373.411,208.785 376.5,207.5C 378.565,207.483 380.565,207.15 382.5,206.5C 383.167,206.5 383.5,206.167 383.5,205.5C 386.373,205.198 389.039,204.531 391.5,203.5C 396.529,203.08 401.195,201.746 405.5,199.5C 406.167,199.5 406.833,199.5 407.5,199.5C 413.208,198.323 418.874,196.99 424.5,195.5C 424.833,195.5 425.167,195.5 425.5,195.5C 426.423,194.697 427.423,194.53 428.5,195C 426.255,197.731 424.255,200.564 422.5,203.5C 421.833,203.5 421.5,203.833 421.5,204.5C 415.463,210.535 409.796,216.869 404.5,223.5C 400.443,227.284 397.109,231.617 394.5,236.5C 394.167,236.5 393.833,236.5 393.5,236.5C 390.608,239.271 387.942,242.271 385.5,245.5C 383.937,246.945 382.604,248.611 381.5,250.5C 376.106,255.89 371.106,261.556 366.5,267.5C 304.5,267.5 242.5,267.5 180.5,267.5C 180.5,240.167 180.5,212.833 180.5,185.5C 222.833,185.5 265.167,185.5 307.5,185.5 Z"/></g>
<g><path style="opacity:0.455" fill="#df7e70" d="M 110.5,110.5 C 114.286,110.32 117.619,111.32 120.5,113.5C 116.655,113.712 113.321,112.712 110.5,110.5 Z"/></g>
<g><path style="opacity:0.627" fill="#e07768" d="M 121.5,113.5 C 127.539,114.75 133.206,116.75 138.5,119.5C 133.585,118.123 128.585,116.956 123.5,116C 122.244,115.583 121.577,114.75 121.5,113.5 Z"/></g>
<g><path style="opacity:0.424" fill="#e1877b" d="M 96.5,109.5 C 96.1875,115.086 94.5208,120.086 91.5,124.5C 92.3574,119.144 94.0241,114.144 96.5,109.5 Z"/></g>
<g><path style="opacity:0.553" fill="#d46053" d="M 265.5,109.5 C 269.5,109.5 273.5,109.5 277.5,109.5C 277.5,118.167 277.5,126.833 277.5,135.5C 271.167,135.5 264.833,135.5 258.5,135.5C 264.31,134.51 270.31,134.177 276.5,134.5C 276.5,126.5 276.5,118.5 276.5,110.5C 272.629,110.815 268.962,110.482 265.5,109.5 Z"/></g>
<g><path style="opacity:0.8" fill="#e06759" d="M 256.5,109.5 C 249.007,110.396 241.34,111.063 233.5,111.5C 227.509,110.667 221.509,110.5 215.5,111C 214.518,118.747 214.185,126.58 214.5,134.5C 220.358,134.178 226.025,134.511 231.5,135.5C 225.5,135.5 219.5,135.5 213.5,135.5C 213.5,126.833 213.5,118.167 213.5,109.5C 227.838,109.499 242.171,109.499 256.5,109.5 Z"/></g>
<g><path style="opacity:1" fill="#e16f5c" d="M 138.5,119.5 C 144.291,119.987 149.624,121.654 154.5,124.5C 151.428,124.817 148.428,124.484 145.5,123.5C 142.979,122.312 140.645,120.978 138.5,119.5 Z"/></g>
<g><path style="opacity:0.933" fill="#de7568" d="M 154.5,124.5 C 159.16,125.009 163.493,126.342 167.5,128.5C 162.482,128.712 158.149,127.379 154.5,124.5 Z"/></g>
<g><path style="opacity:0.49" fill="#e0887e" d="M 91.5,125.5 C 91.1394,129.915 89.8061,133.915 87.5,137.5C 88.2556,133.233 89.589,129.233 91.5,125.5 Z"/></g>
<g><path style="opacity:0.196" fill="#d37f75" d="M 213.5,109.5 C 213.5,118.167 213.5,126.833 213.5,135.5C 219.5,135.5 225.5,135.5 231.5,135.5C 232.824,139.107 233.491,143.107 233.5,147.5C 233.499,151.681 233.166,155.681 232.5,159.5C 232.5,159.167 232.5,158.833 232.5,158.5C 232.229,151.147 232.229,143.813 232.5,136.5C 225.833,136.5 219.167,136.5 212.5,136.5C 212.173,127.318 212.507,118.318 213.5,109.5 Z"/></g>
<g><path style="opacity:0.992" fill="#df6d5f" d="M 131.5,143.5 C 125.788,142.041 120.122,140.375 114.5,138.5C 112.549,141.713 111.216,145.046 110.5,148.5C 110.184,144.218 111.184,140.385 113.5,137C 115.167,136.333 116.833,136.333 118.5,137C 121.628,139.716 125.128,140.549 129,139.5C 130.595,140.356 131.428,141.689 131.5,143.5 Z"/></g>
<g><path style="opacity:0.784" fill="#da7468" d="M 87.5,139.5 C 87.3215,142.216 86.8215,144.883 86,147.5C 85.5831,148.756 84.7498,149.423 83.5,149.5C 84.2667,145.851 85.6001,142.518 87.5,139.5 Z"/></g>
<g><path style="opacity:0.059" fill="#f5c0b7" d="M 517.5,144.5 C 519.288,143.378 521.288,143.211 523.5,144C 524.252,144.671 524.586,145.504 524.5,146.5C 524.167,146.5 523.833,146.5 523.5,146.5C 522.01,144.72 520.01,144.054 517.5,144.5 Z"/></g>
<g><path style="opacity:0.642" fill="#d55749" d="M 167.5,128.5 C 171.647,128.995 175.647,129.995 179.5,131.5C 179.5,140.833 179.5,150.167 179.5,159.5C 178.507,150.682 178.173,141.682 178.5,132.5C 173.906,133.343 170.239,132.009 167.5,128.5 Z"/></g>
<g><path style="opacity:0.102" fill="#dc7567" d="M 133.5,143.5 C 140.085,145.315 146.751,147.148 153.5,149C 154.756,149.417 155.423,150.25 155.5,151.5C 155.167,151.5 154.833,151.5 154.5,151.5C 147.243,149.578 140.243,146.911 133.5,143.5 Z"/></g>
<g><path style="opacity:1" fill="#e16f61" d="M 511.5,146.5 C 505.691,149.669 499.357,151.336 492.5,151.5C 498.432,148.765 504.766,147.099 511.5,146.5 Z"/></g>
<g><path style="opacity:0.788" fill="#e48071" d="M 110.5,148.5 C 110.67,149.822 110.337,150.989 109.5,152C 113.061,153.232 116.394,154.732 119.5,156.5C 116.513,156.002 113.513,155.502 110.5,155C 107.866,152.707 107.866,150.54 110.5,148.5 Z"/></g>
<g><path style="opacity:0.992" fill="#df6d60" d="M 523.5,146.5 C 523.833,146.5 524.167,146.5 524.5,146.5C 529.915,151.579 534.582,157.246 538.5,163.5C 533.402,159.183 528.568,154.517 524,149.5C 523.517,148.552 523.351,147.552 523.5,146.5 Z"/></g>
<g><path style="opacity:0.196" fill="#eaa399" d="M 154.5,151.5 C 154.833,151.5 155.167,151.5 155.5,151.5C 155.5,156.833 155.5,162.167 155.5,167.5C 154.209,167.737 153.209,167.404 152.5,166.5C 154.442,161.944 155.108,156.944 154.5,151.5 Z"/></g>
<g><path style="opacity:0.914" fill="#dc796b" d="M 83.5,149.5 C 83.6641,152.187 83.4974,154.854 83,157.5C 82.2917,158.381 81.4584,159.047 80.5,159.5C 81.5113,156.06 82.5113,152.726 83.5,149.5 Z"/></g>
<g><path style="opacity:0.878" fill="#dc6d60" d="M 492.5,151.5 C 490.068,152.958 487.401,154.125 484.5,155C 479.202,156.154 473.869,156.987 468.5,157.5C 476.067,154.275 484.067,152.275 492.5,151.5 Z"/></g>
<g><path style="opacity:0.596" fill="#e0857d" d="M 120.5,156.5 C 123.067,156.721 125.401,157.388 127.5,158.5C 124.772,158.829 122.438,158.163 120.5,156.5 Z"/></g>
<g><path style="opacity:0.063" fill="#f1b2af" d="M 179.5,131.5 C 180.493,140.318 180.827,149.318 180.5,158.5C 197.833,158.5 215.167,158.5 232.5,158.5C 232.5,158.833 232.5,159.167 232.5,159.5C 214.833,159.5 197.167,159.5 179.5,159.5C 179.5,150.167 179.5,140.833 179.5,131.5 Z"/></g>
<g><path style="opacity:0.065" fill="#f1b6af" d="M 277.5,109.5 C 278.493,118.318 278.827,127.318 278.5,136.5C 271.833,136.5 265.167,136.5 258.5,136.5C 258.5,143.833 258.5,151.167 258.5,158.5C 278.674,158.17 298.674,158.503 318.5,159.5C 298.167,159.5 277.833,159.5 257.5,159.5C 257.174,151.316 257.508,143.316 258.5,135.5C 264.833,135.5 271.167,135.5 277.5,135.5C 277.5,126.833 277.5,118.167 277.5,109.5 Z"/></g>
<g><path style="opacity:0.593" fill="#d85e4e" d="M 257.5,159.5 C 277.833,159.5 298.167,159.5 318.5,159.5C 320.19,161.519 321.856,163.519 323.5,165.5C 321.518,165.005 319.518,164.505 317.5,164C 318.458,162.853 318.125,161.853 316.5,161C 296.662,160.832 276.996,160.332 257.5,159.5 Z"/></g>
<g><path style="opacity:1" fill="#e57363" d="M 127.5,158.5 C 132.535,160.273 137.535,161.94 142.5,163.5C 139.15,163.386 135.817,163.053 132.5,162.5C 130.68,162.649 129.18,163.316 128,164.5C 127.517,163.552 127.351,162.552 127.5,161.5C 128.873,161.657 130.207,161.49 131.5,161C 129.563,160.878 128.23,160.045 127.5,158.5 Z"/></g>
<g><path style="opacity:0.969" fill="#de6e5f" d="M 468.5,157.5 C 468.196,158.15 467.863,158.817 467.5,159.5C 462.662,160.054 457.995,161.22 453.5,163C 450.183,163.498 446.85,163.665 443.5,163.5C 451.52,160.746 459.853,158.746 468.5,157.5 Z"/></g>
<g><path style="opacity:0.322" fill="#e8978c" d="M 142.5,163.5 C 145.542,163.733 148.208,164.733 150.5,166.5C 147.351,166.585 144.684,165.585 142.5,163.5 Z"/></g>
<g><path style="opacity:0.882" fill="#d46c5c" d="M 443.5,163.5 C 439.137,166.827 434.137,168.16 428.5,167.5C 433.319,165.951 438.319,164.617 443.5,163.5 Z"/></g>
<g><path style="opacity:0.784" fill="#dd847e" d="M 80.5,159.5 C 79.9492,162.807 79.6159,166.14 79.5,169.5C 81.3797,169.229 82.713,169.896 83.5,171.5C 80.9394,171.553 78.9394,170.553 77.5,168.5C 78.1332,165.268 79.1332,162.268 80.5,159.5 Z"/></g>
<g><path style="opacity:0.408" fill="#dd786b" d="M 427.5,167.5 C 426.942,168.79 425.942,169.623 424.5,170C 421.173,170.61 417.839,171.11 414.5,171.5C 418.594,169.721 422.927,168.388 427.5,167.5 Z"/></g>
<g><path style="opacity:0.847" fill="#df7467" d="M 515.5,174.5 C 514.518,173.859 513.518,173.193 512.5,172.5C 499.61,176.306 486.61,179.639 473.5,182.5C 474.64,181.199 475.973,180.032 477.5,179C 487.701,177.427 497.701,175.094 507.5,172C 510.146,171.503 512.813,171.336 515.5,171.5C 515.5,172.5 515.5,173.5 515.5,174.5 Z"/></g>
<g><path style="opacity:0.747" fill="#dd7467" d="M 91.5,173.5 C 93.6963,173.59 95.863,173.923 98,174.5C 99.3756,174.684 100.209,175.351 100.5,176.5C 97.0836,176.472 94.0836,175.472 91.5,173.5 Z"/></g>
<g><path style="opacity:0.435" fill="#db7e72" d="M 413.5,171.5 C 408.809,173.591 403.809,174.924 398.5,175.5C 403.194,173.386 408.194,172.053 413.5,171.5 Z"/></g>
<g><path style="opacity:0.675" fill="#e28178" d="M 101.5,176.5 C 105.475,176.486 108.808,177.819 111.5,180.5C 107.863,179.737 104.53,178.403 101.5,176.5 Z"/></g>
<g><path style="opacity:0.773" fill="#ea827d" d="M 515.5,175.5 C 518.179,175.525 519.512,176.858 519.5,179.5C 517.833,178.5 516.5,177.167 515.5,175.5 Z"/></g>
<g><path style="opacity:0.365" fill="#da7b6e" d="M 398.5,175.5 C 398.389,176.117 398.056,176.617 397.5,177C 389.595,178.947 381.595,180.447 373.5,181.5C 381.622,179.054 389.955,177.054 398.5,175.5 Z"/></g>
<g><path style="opacity:1" fill="#e6695b" d="M 538.5,163.5 C 542.017,165.518 544.684,168.351 546.5,172C 545.561,173.944 544.227,175.611 542.5,177C 538.939,180.073 535.272,182.906 531.5,185.5C 531.065,179.692 533.732,177.025 539.5,177.5C 539.5,176.5 539.5,175.5 539.5,174.5C 540.833,174.5 542.167,174.5 543.5,174.5C 544.244,171.05 542.91,169.384 539.5,169.5C 539.483,167.435 539.15,165.435 538.5,163.5 Z"/></g>
<g><path style="opacity:0.957" fill="#e17162" d="M 331.5,173.5 C 335.167,176.5 338.5,179.833 341.5,183.5C 338.814,182.157 336.148,180.824 333.5,179.5C 332.833,177.5 332.167,175.5 331.5,173.5 Z"/></g>
<g><path style="opacity:0.878" fill="#e17d70" d="M 373.5,181.5 C 369.149,184.767 364.149,186.1 358.5,185.5C 363.278,183.721 368.278,182.387 373.5,181.5 Z"/></g>
<g><path style="opacity:1" fill="#e15343" d="M 323.5,165.5 C 326.5,167.833 329.167,170.5 331.5,173.5C 332.167,175.5 332.833,177.5 333.5,179.5C 331.338,179.103 330.005,177.769 329.5,175.5C 328.072,177.655 327.739,179.821 328.5,182C 326.833,181.667 325.167,181.333 323.5,181C 321.114,184.525 319.114,188.191 317.5,192C 318,192.5 318.5,193 319,193.5C 320.827,191.698 321.994,189.532 322.5,187C 323.5,186.333 324.5,186.333 325.5,187C 326.113,189.147 326.779,191.314 327.5,193.5C 331.413,193.759 333.413,195.759 333.5,199.5C 331.379,199.675 329.379,199.341 327.5,198.5C 327.586,197.504 327.252,196.671 326.5,196C 324.559,195.696 322.893,194.863 321.5,193.5C 320.735,194.612 319.735,195.279 318.5,195.5C 316.431,192.427 313.764,190.094 310.5,188.5C 309.167,187.833 308.167,186.833 307.5,185.5C 265.003,184.501 222.337,184.168 179.5,184.5C 222.159,182.836 265.159,181.836 308.5,181.5C 310.797,180.102 312.963,178.436 315,176.5C 315.124,178.936 314.624,181.269 313.5,183.5C 312.448,183.351 311.448,183.517 310.5,184C 311.803,187.044 314.136,188.211 317.5,187.5C 317.338,185.473 317.505,183.473 318,181.5C 318.724,179.041 320.057,178.041 322,178.5C 322.483,177.552 322.649,176.552 322.5,175.5C 321.448,175.649 320.448,175.483 319.5,175C 321.212,171.977 322.545,168.811 323.5,165.5 Z"/></g>
<g><path style="opacity:0.557" fill="#d98369" d="M 341.5,183.5 C 343.207,184.873 344.54,186.539 345.5,188.5C 343.003,187.871 341.67,186.204 341.5,183.5 Z"/></g>
<g><path style="opacity:0.686" fill="#df8b7c" d="M 524.5,185.5 C 526.435,186.15 528.435,186.483 530.5,186.5C 528.185,189.189 526.185,188.855 524.5,185.5 Z"/></g>
<g><path style="opacity:0.431" fill="#e47b76" d="M 358.5,185.5 C 358.389,186.117 358.056,186.617 357.5,187C 354.173,187.61 350.839,188.11 347.5,188.5C 350.763,186.432 354.43,185.432 358.5,185.5 Z"/></g>
<g><path style="opacity:0.822" fill="#dd7364" d="M 134.5,187.5 C 140.288,187.207 145.288,188.874 149.5,192.5C 144.202,191.451 139.202,189.785 134.5,187.5 Z"/></g>
<g><path style="opacity:0.169" fill="#dc7b73" d="M 310.5,188.5 C 313.764,190.094 316.431,192.427 318.5,195.5C 318.833,196.167 319.167,196.833 319.5,197.5C 316.215,194.882 313.215,191.882 310.5,188.5 Z"/></g>
<g><path style="opacity:0.996" fill="#de6e5b" d="M 424.5,195.5 C 418.874,196.99 413.208,198.323 407.5,199.5C 410.433,197.71 413.266,195.71 416,193.5C 418.939,194.128 421.772,194.795 424.5,195.5 Z"/></g>
<g><path style="opacity:1" fill="#e55c4d" d="M 327.5,198.5 C 325.775,198.843 325.275,199.843 326,201.5C 329.002,204.841 331.502,208.507 333.5,212.5C 328.077,208.082 323.411,203.082 319.5,197.5C 319.167,196.833 318.833,196.167 318.5,195.5C 319.735,195.279 320.735,194.612 321.5,193.5C 322.893,194.863 324.559,195.696 326.5,196C 327.252,196.671 327.586,197.504 327.5,198.5 Z"/></g>
<g><path style="opacity:0.999" fill="#e76f5c" d="M 470.5,185.5 C 466.247,192.09 461.247,198.09 455.5,203.5C 456.166,200.829 456.166,198.329 455.5,196C 456.449,195.383 457.282,195.549 458,196.5C 459.41,194.116 461.41,192.45 464,191.5C 464.684,190.216 464.517,189.049 463.5,188C 464.325,186.312 465.325,186.145 466.5,187.5C 467.622,186.37 468.956,185.703 470.5,185.5 Z"/></g>
<g><path style="opacity:0.816" fill="#e37968" d="M 405.5,199.5 C 401.195,201.746 396.529,203.08 391.5,203.5C 392.1,202.1 393.1,201.1 394.5,200.5C 398.198,200.448 401.865,200.114 405.5,199.5 Z"/></g>
<g><path style="opacity:0.278" fill="#e5988e" d="M 422.5,203.5 C 424.255,200.564 426.255,197.731 428.5,195C 427.423,194.53 426.423,194.697 425.5,195.5C 425.791,194.351 426.624,193.684 428,193.5C 428.833,193.833 429.667,194.167 430.5,194.5C 428.52,198.137 425.854,201.137 422.5,203.5 Z"/></g>
<g><path style="opacity:0.085" fill="#fbc8c0" d="M 179.5,184.5 C 222.337,184.168 265.003,184.501 307.5,185.5C 265.167,185.5 222.833,185.5 180.5,185.5C 180.5,212.833 180.5,240.167 180.5,267.5C 180.167,267.5 179.833,267.5 179.5,267.5C 179.5,239.833 179.5,212.167 179.5,184.5 Z"/></g>
<g><path style="opacity:0.994" fill="#e65849" d="M 394.5,200.5 C 393.1,201.1 392.1,202.1 391.5,203.5C 388.447,203.111 385.78,203.777 383.5,205.5C 383.5,206.167 383.167,206.5 382.5,206.5C 380.402,205.516 378.402,205.849 376.5,207.5C 373.411,208.785 370.078,209.451 366.5,209.5C 361.572,210.588 356.572,211.588 351.5,212.5C 351.414,211.504 351.748,210.671 352.5,210C 359.312,209.263 366.312,208.096 373.5,206.5C 373.5,205.5 373.5,204.5 373.5,203.5C 377.226,203.823 380.893,203.489 384.5,202.5C 387.618,199.785 390.951,199.118 394.5,200.5 Z"/></g>
<g><path style="opacity:0.102" fill="#d9917f" d="M 391.5,203.5 C 389.039,204.531 386.373,205.198 383.5,205.5C 385.78,203.777 388.447,203.111 391.5,203.5 Z"/></g>
<g><path style="opacity:0.114" fill="#f0aea3" d="M 382.5,206.5 C 380.565,207.15 378.565,207.483 376.5,207.5C 378.402,205.849 380.402,205.516 382.5,206.5 Z"/></g>
<g><path style="opacity:0.008" fill="#e79279" d="M 455.5,203.5 C 454.19,206.473 452.19,208.807 449.5,210.5C 450.763,207.568 452.763,205.234 455.5,203.5 Z"/></g>
<g><path style="opacity:1" fill="#e17462" d="M 449.5,210.5 C 446.23,215.44 442.23,219.773 437.5,223.5C 438.536,221.609 438.536,219.776 437.5,218C 439.18,217.966 440.68,217.799 442,217.5C 442.622,215.269 443.789,213.435 445.5,212C 444.549,211.282 444.383,210.449 445,209.5C 446.356,210.38 447.856,210.714 449.5,210.5 Z"/></g>
<g><path style="opacity:0.627" fill="#e07d72" d="M 366.5,209.5 C 360.556,212.237 354.223,213.904 347.5,214.5C 348.671,213.655 350.005,212.989 351.5,212.5C 356.572,211.588 361.572,210.588 366.5,209.5 Z"/></g>
<g><path style="opacity:0.506" fill="#e18378" d="M 333.5,212.5 C 335.359,212.461 336.692,213.294 337.5,215C 339.473,215.495 341.473,215.662 343.5,215.5C 339.168,218.579 335.834,217.579 333.5,212.5 Z"/></g>
<g><path style="opacity:0.992" fill="#e56e5f" d="M 421.5,204.5 C 421.315,206.196 420.481,207.529 419,208.5C 418.506,210.134 418.34,211.801 418.5,213.5C 417.448,213.351 416.448,213.517 415.5,214C 412.876,218.463 409.21,221.629 404.5,223.5C 409.796,216.869 415.463,210.535 421.5,204.5 Z"/></g>
<g><path style="opacity:0.137" fill="#dc837a" d="M 545.5,216.5 C 544.041,216.433 542.708,216.766 541.5,217.5C 542.398,212.852 543.731,212.519 545.5,216.5 Z"/></g>
<g><path style="opacity:0.976" fill="#e66e60" d="M 545.5,216.5 C 547.008,218.181 548.008,220.181 548.5,222.5C 546.433,221.737 544.766,220.404 543.5,218.5C 541.022,221.129 539.356,224.129 538.5,227.5C 537.5,227.5 536.5,227.5 535.5,227.5C 537,223.827 539,220.494 541.5,217.5C 542.708,216.766 544.041,216.433 545.5,216.5 Z"/></g>
<g><path style="opacity:0.396" fill="#d97369" d="M 404.5,223.5 C 404.649,224.552 404.483,225.552 404,226.5C 401.048,230.099 397.882,233.433 394.5,236.5C 397.109,231.617 400.443,227.284 404.5,223.5 Z"/></g>
<g><path style="opacity:0.922" fill="#e67f75" d="M 535.5,227.5 C 535.151,231.53 533.151,234.53 529.5,236.5C 531.124,233.217 533.124,230.217 535.5,227.5 Z"/></g>
<g><path style="opacity:1" fill="#ec4e3c" d="M 548.5,222.5 C 551.08,225.989 553.413,229.656 555.5,233.5C 557.36,238.72 559.36,243.887 561.5,249C 560.878,253.52 560.211,258.02 559.5,262.5C 558.5,262.5 557.5,262.5 556.5,262.5C 556.657,263.873 556.49,265.207 556,266.5C 549.347,270.568 542.18,271.568 534.5,269.5C 534.167,269.5 533.833,269.5 533.5,269.5C 532.73,267.065 531.063,265.731 528.5,265.5C 524.39,261.3 523.057,256.3 524.5,250.5C 525.461,248.735 525.795,246.735 525.5,244.5C 526.5,244.5 527.5,244.5 528.5,244.5C 528.575,241.794 528.908,239.127 529.5,236.5C 533.151,234.53 535.151,231.53 535.5,227.5C 536.5,227.5 537.5,227.5 538.5,227.5C 539.356,224.129 541.022,221.129 543.5,218.5C 544.766,220.404 546.433,221.737 548.5,222.5 Z"/></g>
<g><path style="opacity:1" fill="#e66c5a" d="M 437.5,223.5 C 433.582,229.754 428.915,235.421 423.5,240.5C 423.703,238.61 423.037,237.11 421.5,236C 423.134,235.506 424.801,235.34 426.5,235.5C 426.579,234.07 426.246,232.736 425.5,231.5C 426.522,230.646 427.355,229.646 428,228.5C 429.183,229.731 430.349,229.731 431.5,228.5C 431.192,227.692 430.692,227.025 430,226.5C 429.282,227.451 428.449,227.617 427.5,227C 430.94,226.061 434.273,224.894 437.5,223.5 Z"/></g>
<g><path style="opacity:0.541" fill="#e59184" d="M 423.5,240.5 C 422.974,242.23 421.974,243.564 420.5,244.5C 420.5,243.167 420.5,241.833 420.5,240.5C 421.5,240.5 422.5,240.5 423.5,240.5 Z"/></g>
<g><path style="opacity:0.431" fill="#e18278" d="M 393.5,236.5 C 391.978,240.564 389.311,243.564 385.5,245.5C 387.942,242.271 390.608,239.271 393.5,236.5 Z"/></g>
<g><path style="opacity:0.79" fill="#d35045" d="M 149.5,192.5 C 151.591,192.318 153.591,192.652 155.5,193.5C 156.5,224.826 156.833,256.16 156.5,287.5C 156.5,289.167 156.5,290.833 156.5,292.5C 155.833,259.833 155.167,227.167 154.5,194.5C 152.597,194.204 150.93,193.537 149.5,192.5 Z"/></g>
<g><path style="opacity:0.988" fill="#e27767" d="M 529.5,236.5 C 528.908,239.127 528.575,241.794 528.5,244.5C 527.5,244.5 526.5,244.5 525.5,244.5C 525.795,246.735 525.461,248.735 524.5,250.5C 524.239,245.112 525.905,240.445 529.5,236.5 Z"/></g>
<g><path style="opacity:1" fill="#e86d5d" d="M 420.5,244.5 C 412.626,254.251 404.293,263.584 395.5,272.5C 395.5,270.5 395.5,268.5 395.5,266.5C 396.5,266.5 397.5,266.5 398.5,266.5C 398.5,265.5 398.5,264.5 398.5,263.5C 397.325,263.719 396.325,263.386 395.5,262.5C 398.173,261.568 400.839,261.402 403.5,262C 405.816,259.695 407.15,256.862 407.5,253.5C 408.524,252.147 409.857,251.48 411.5,251.5C 411.34,249.801 411.506,248.134 412,246.5C 413.016,245.366 413.683,245.699 414,247.5C 414.471,245.754 415.138,244.087 416,242.5C 417.11,244.037 418.61,244.703 420.5,244.5 Z"/></g>
<g><path style="opacity:0.573" fill="#e48581" d="M 385.5,245.5 C 385.631,248.367 384.297,250.033 381.5,250.5C 382.604,248.611 383.937,246.945 385.5,245.5 Z"/></g>
<g><path style="opacity:1" fill="#de6e60" d="M 555.5,233.5 C 566.036,245.383 566.036,257.216 555.5,269C 550.26,272.161 544.593,273.161 538.5,272C 536.68,271.8 535.347,270.966 534.5,269.5C 542.18,271.568 549.347,270.568 556,266.5C 556.49,265.207 556.657,263.873 556.5,262.5C 557.5,262.5 558.5,262.5 559.5,262.5C 560.211,258.02 560.878,253.52 561.5,249C 559.36,243.887 557.36,238.72 555.5,233.5 Z"/></g>
<g><path style="opacity:0.365" fill="#dd7e74" d="M 381.5,250.5 C 377.909,256.098 373.909,261.431 369.5,266.5C 368.391,266.557 367.391,266.89 366.5,267.5C 371.106,261.556 376.106,255.89 381.5,250.5 Z"/></g>
<g><path style="opacity:0.165" fill="#e4a095" d="M 528.5,265.5 C 531.063,265.731 532.73,267.065 533.5,269.5C 531.251,268.92 529.585,267.587 528.5,265.5 Z"/></g>
<g><path style="opacity:0.933" fill="#e0624f" d="M 369.5,266.5 C 369.047,267.458 368.381,268.292 367.5,269C 307.793,269.171 248.126,269.671 188.5,270.5C 185.039,270.232 182.039,269.232 179.5,267.5C 179.833,267.5 180.167,267.5 180.5,267.5C 242.5,267.5 304.5,267.5 366.5,267.5C 367.391,266.89 368.391,266.557 369.5,266.5 Z"/></g>
<g><path style="opacity:0.878" fill="#e57464" d="M 393.5,274.5 C 389.534,279.801 385.2,284.801 380.5,289.5C 380.343,288.127 380.51,286.793 381,285.5C 382.758,284.531 383.258,283.364 382.5,282C 383.793,281.51 385.127,281.343 386.5,281.5C 386.5,280.5 386.5,279.5 386.5,278.5C 389.303,278.039 391.637,276.705 393.5,274.5 Z"/></g>
<g><path style="opacity:0.016" fill="#f6bbb7" d="M 380.5,289.5 C 380.573,291.027 379.906,292.027 378.5,292.5C 378.5,292.167 378.5,291.833 378.5,291.5C 378.833,290.5 379.5,289.833 380.5,289.5 Z"/></g>
<g><path style="opacity:0.917" fill="#e05642" d="M 156.5,287.5 C 157.434,288.568 157.768,289.901 157.5,291.5C 231.167,291.5 304.833,291.5 378.5,291.5C 378.5,291.833 378.5,292.167 378.5,292.5C 378.167,292.5 377.833,292.5 377.5,292.5C 303.833,292.5 230.167,292.5 156.5,292.5C 156.5,290.833 156.5,289.167 156.5,287.5 Z"/></g>
<g><path style="opacity:0.192" fill="#dc8173" d="M 154.5,194.5 C 155.167,227.167 155.833,259.833 156.5,292.5C 230.167,292.5 303.833,292.5 377.5,292.5C 303.335,293.499 229.002,293.833 154.5,293.5C 154.5,260.5 154.5,227.5 154.5,194.5 Z"/></g>
</svg>
