<?xml version="1.0" encoding="UTF-8"?>
<!DOCTYPE svg PUBLIC "-//W3C//DTD SVG 1.1//EN" "http://www.w3.org/Graphics/SVG/1.1/DTD/svg11.dtd">
<svg xmlns="http://www.w3.org/2000/svg" version="1.1" width="358px" height="357px" style="shape-rendering:geometricPrecision; text-rendering:geometricPrecision; image-rendering:optimizeQuality; fill-rule:evenodd; clip-rule:evenodd" xmlns:xlink="http://www.w3.org/1999/xlink">
<g><path style="opacity:1" fill="#d1fc3e" d="M 133.5,92.5 C 133.167,92.5 132.833,92.5 132.5,92.5C 132.047,91.5416 131.381,90.7083 130.5,90C 124.244,86.8898 117.911,84.0565 111.5,81.5C 111.5,80.5 111.5,79.5 111.5,78.5C 112.822,78.67 113.989,78.3366 115,77.5C 115.824,74.1177 115.657,70.7844 114.5,67.5C 111.788,64.8723 109.788,61.8723 108.5,58.5C 108.5,57.5 108.5,56.5 108.5,55.5C 117.698,52.1008 127.031,49.1008 136.5,46.5C 139.427,51.9551 141.761,57.6217 143.5,63.5C 146.482,63.0371 149.482,62.7038 152.5,62.5C 152.517,66.1168 151.517,69.4501 149.5,72.5C 148.575,73.6405 147.741,73.6405 147,72.5C 144.474,78.6162 142.474,84.9495 141,91.5C 140.311,92.3567 139.478,93.0233 138.5,93.5C 136.929,92.6906 135.262,92.3573 133.5,92.5 Z"/></g>
<g><path style="opacity:1" fill="#e7fb59" d="M 108.5,58.5 C 109.788,61.8723 111.788,64.8723 114.5,67.5C 115.657,70.7844 115.824,74.1177 115,77.5C 113.989,78.3366 112.822,78.67 111.5,78.5C 111.5,79.5 111.5,80.5 111.5,81.5C 109.227,81.0432 107.894,79.7099 107.5,77.5C 109.214,76.2616 111.214,75.595 113.5,75.5C 112.032,69.7632 110.365,64.0966 108.5,58.5 Z"/></g>
<g><path style="opacity:1" fill="#e6f965" d="M 133.5,92.5 C 135.262,92.3573 136.929,92.6906 138.5,93.5C 139.478,93.0233 140.311,92.3567 141,91.5C 142.474,84.9495 144.474,78.6162 147,72.5C 147.741,73.6405 148.575,73.6405 149.5,72.5C 151.517,69.4501 152.517,66.1168 152.5,62.5C 149.482,62.7038 146.482,63.0371 143.5,63.5C 141.761,57.6217 139.427,51.9551 136.5,46.5C 127.031,49.1008 117.698,52.1008 108.5,55.5C 108.5,56.5 108.5,57.5 108.5,58.5C 106.623,57.171 106.456,55.8377 108,54.5C 117.667,50.8333 127.333,47.1667 137,43.5C 140.202,49.0768 143.035,54.9101 145.5,61C 145.167,61.3333 144.833,61.6667 144.5,62C 148.718,61.4041 152.718,59.9041 156.5,57.5C 156.833,58 157.167,58.5 157.5,59C 151.617,71.4217 145.783,83.9217 140,96.5C 137.686,95.2668 135.519,93.9334 133.5,92.5 Z"/></g>
<g><path style="opacity:0.988" fill="#f2fa7c" d="M 107.5,77.5 C 107.894,79.7099 109.227,81.0432 111.5,81.5C 117.911,84.0565 124.244,86.8898 130.5,90C 131.381,90.7083 132.047,91.5416 132.5,92.5C 122,87.7543 111.334,83.2543 100.5,79C 102.813,78.338 105.146,77.838 107.5,77.5 Z"/></g>
<g><path style="opacity:0.788" fill="#d9f16f" d="M 200.5,91.5 C 186.274,91.3217 171.941,92.3217 157.5,94.5C 158.263,93.7321 159.263,93.2321 160.5,93C 173.909,90.4867 187.243,89.9867 200.5,91.5 Z"/></g>
<g><path style="opacity:0.247" fill="#dcf577" d="M 201.5,91.5 C 209.569,92.8592 217.236,95.1926 224.5,98.5C 220.285,97.2532 215.952,96.4198 211.5,96C 207.852,94.8071 204.519,93.3071 201.5,91.5 Z"/></g>
<g><path style="opacity:1" fill="#d1fc3f" d="M 200.5,91.5 C 200.833,91.5 201.167,91.5 201.5,91.5C 204.519,93.3071 207.852,94.8071 211.5,96C 215.952,96.4198 220.285,97.2532 224.5,98.5C 225.833,99.8333 227.167,101.167 228.5,102.5C 227.504,102.586 226.671,102.252 226,101.5C 222.855,105.153 219.355,105.486 215.5,102.5C 214.614,101.675 214.281,100.675 214.5,99.5C 211.05,100.244 209.384,98.9103 209.5,95.5C 208.325,95.281 207.325,95.6143 206.5,96.5C 207.155,99.6588 208.822,102.159 211.5,104C 210.01,105.772 208.343,105.939 206.5,104.5C 205.579,106.756 203.912,107.756 201.5,107.5C 202.806,106.533 203.473,105.199 203.5,103.5C 202.5,103.5 201.5,103.5 200.5,103.5C 200.5,104.833 200.5,106.167 200.5,107.5C 194.006,107.352 191.673,104.019 193.5,97.5C 192.5,97.5 191.5,97.5 190.5,97.5C 190.926,107.783 190.926,118.116 190.5,128.5C 186.15,129.689 181.817,129.689 177.5,128.5C 176.833,121.679 176.167,115.012 175.5,108.5C 172.409,109.637 169.409,109.97 166.5,109.5C 160.793,110.006 155.126,110.839 149.5,112C 142.989,114.568 136.823,117.734 131,121.5C 128.589,123.958 125.755,125.791 122.5,127C 121.748,127.671 121.414,128.504 121.5,129.5C 119.12,132.332 117.12,131.999 115.5,128.5C 117.165,124.978 115.999,122.978 112,122.5C 110.275,123.464 108.441,124.131 106.5,124.5C 110.239,119.794 114.905,116.294 120.5,114C 121.965,112.226 123.298,110.392 124.5,108.5C 124.842,107.662 125.508,107.328 126.5,107.5C 128.482,107.005 130.482,106.505 132.5,106C 138.022,103.407 143.355,100.574 148.5,97.5C 151.008,95.446 154.008,94.446 157.5,94.5C 171.941,92.3217 186.274,91.3217 200.5,91.5 Z"/></g>
<g><path style="opacity:1" fill="#ecf873" d="M 148.5,97.5 C 143.355,100.574 138.022,103.407 132.5,106C 130.482,106.505 128.482,107.005 126.5,107.5C 133.03,102.571 140.363,99.2378 148.5,97.5 Z"/></g>
<g><path style="opacity:1" fill="#d3f654" d="M 224.5,98.5 C 237.75,103.437 249.417,110.771 259.5,120.5C 257.634,119.986 255.8,119.32 254,118.5C 253.228,118.645 252.561,118.978 252,119.5C 251.51,118.207 251.343,116.873 251.5,115.5C 247.669,115.584 244.002,114.917 240.5,113.5C 240.066,108.103 237.066,105.436 231.5,105.5C 231.5,104.5 231.5,103.5 231.5,102.5C 230.5,102.5 229.5,102.5 228.5,102.5C 227.167,101.167 225.833,99.8333 224.5,98.5 Z"/></g>
<g><path style="opacity:0.867" fill="#dce95e" d="M 124.5,108.5 C 123.298,110.392 121.965,112.226 120.5,114C 114.905,116.294 110.239,119.794 106.5,124.5C 99.6247,130.213 94.4581,137.213 91,145.5C 89.871,147.141 88.371,148.141 86.5,148.5C 95.4205,131.58 108.087,118.247 124.5,108.5 Z"/></g>
<g><path style="opacity:1" fill="#d0f849" d="M 201.5,107.5 C 213.425,111.475 225.425,115.475 237.5,119.5C 237.627,116.755 236.46,114.755 234,113.5C 233.333,112.5 233.333,111.5 234,110.5C 238.209,114.376 242.709,117.876 247.5,121C 246.303,122.52 244.803,123.687 243,124.5C 241.13,119.013 239.63,119.18 238.5,125C 239.056,125.383 239.389,125.883 239.5,126.5C 226.68,118.038 212.68,112.371 197.5,109.5C 195.545,109.724 193.879,110.391 192.5,111.5C 191.833,117.167 191.167,122.833 190.5,128.5C 190.926,118.116 190.926,107.783 190.5,97.5C 191.5,97.5 192.5,97.5 193.5,97.5C 191.673,104.019 194.006,107.352 200.5,107.5C 200.5,106.167 200.5,104.833 200.5,103.5C 201.5,103.5 202.5,103.5 203.5,103.5C 203.473,105.199 202.806,106.533 201.5,107.5 Z"/></g>
<g><path style="opacity:1" fill="#d0fc3d" d="M 228.5,102.5 C 229.5,102.5 230.5,102.5 231.5,102.5C 231.5,103.5 231.5,104.5 231.5,105.5C 237.066,105.436 240.066,108.103 240.5,113.5C 244.002,114.917 247.669,115.584 251.5,115.5C 251.343,116.873 251.51,118.207 252,119.5C 252.561,118.978 253.228,118.645 254,118.5C 255.8,119.32 257.634,119.986 259.5,120.5C 261.167,121.5 262.5,122.833 263.5,124.5C 263.703,126.044 264.37,127.378 265.5,128.5C 264.391,130.214 265.058,130.881 267.5,130.5C 267.5,131.833 267.5,133.167 267.5,134.5C 268.5,134.5 269.5,134.5 270.5,134.5C 270.5,136.167 270.5,137.833 270.5,139.5C 269.07,139.579 267.736,139.246 266.5,138.5C 265.482,136.388 263.982,134.721 262,133.5C 260.743,133.85 260.409,134.517 261,135.5C 263.022,138.356 265.522,140.689 268.5,142.5C 266.188,144.052 263.688,145.385 261,146.5C 259.826,145.456 258.659,144.456 257.5,143.5C 255.741,143.046 253.741,143.046 251.5,143.5C 250.152,149.68 246.319,153.346 240,154.5C 238.862,154.011 237.695,153.678 236.5,153.5C 234.413,152.415 233.08,150.749 232.5,148.5C 232.34,146.801 232.506,145.134 233,143.5C 236.167,140.333 239.333,137.167 242.5,134C 243.448,133.517 244.448,133.351 245.5,133.5C 246.385,128.717 244.385,126.384 239.5,126.5C 239.389,125.883 239.056,125.383 238.5,125C 239.63,119.18 241.13,119.013 243,124.5C 244.803,123.687 246.303,122.52 247.5,121C 242.709,117.876 238.209,114.376 234,110.5C 233.333,111.5 233.333,112.5 234,113.5C 236.46,114.755 237.627,116.755 237.5,119.5C 225.425,115.475 213.425,111.475 201.5,107.5C 203.912,107.756 205.579,106.756 206.5,104.5C 208.343,105.939 210.01,105.772 211.5,104C 208.822,102.159 207.155,99.6588 206.5,96.5C 207.325,95.6143 208.325,95.281 209.5,95.5C 209.384,98.9103 211.05,100.244 214.5,99.5C 214.281,100.675 214.614,101.675 215.5,102.5C 219.355,105.486 222.855,105.153 226,101.5C 226.671,102.252 227.504,102.586 228.5,102.5 Z"/></g>
<g><path style="opacity:0.942" fill="#d4f05f" d="M 175.5,108.5 C 176.167,115.012 176.833,121.679 177.5,128.5C 181.817,129.689 186.15,129.689 190.5,128.5C 191.167,122.833 191.833,117.167 192.5,111.5C 193.674,117.382 193.674,123.049 192.5,128.5C 186.292,132.537 180.292,132.371 174.5,128C 175.478,121.59 175.811,115.09 175.5,108.5 Z"/></g>
<g><path style="opacity:0.729" fill="#cce95d" d="M 239.5,126.5 C 244.385,126.384 246.385,128.717 245.5,133.5C 244.448,133.351 243.448,133.517 242.5,134C 239.333,137.167 236.167,140.333 233,143.5C 232.506,145.134 232.34,146.801 232.5,148.5C 230.145,146.754 229.978,144.754 232,142.5C 235.867,138.298 240.033,134.465 244.5,131C 242.34,130.004 240.673,128.504 239.5,126.5 Z"/></g>
<g><path style="opacity:1" fill="#d2fc3e" d="M 121.5,129.5 C 121.238,130.978 121.571,132.311 122.5,133.5C 125.853,137.03 128.853,140.863 131.5,145C 132.77,150.733 130.437,153.4 124.5,153C 120.806,149.306 117.14,145.64 113.5,142C 112.5,141.333 111.5,141.333 110.5,142C 103.057,149.925 97.7236,159.092 94.5,169.5C 91.7993,178.002 90.1327,186.669 89.5,195.5C 88.6909,193.708 88.1909,191.708 88,189.5C 85.9842,191.751 83.6508,192.084 81,190.5C 79.7387,190.759 78.7387,191.426 78,192.5C 77.3566,199.424 77.0232,206.091 77,212.5C 80.0134,213.016 82.6801,212.016 85,209.5C 85.8141,211.902 85.6474,214.235 84.5,216.5C 80.9207,212.246 78.5874,212.913 77.5,218.5C 76.7784,218.082 76.2784,217.416 76,216.5C 75.2413,205.135 75.5746,193.801 77,182.5C 79.4447,171.328 82.6114,160.328 86.5,149.5C 86.5,149.167 86.5,148.833 86.5,148.5C 88.371,148.141 89.871,147.141 91,145.5C 94.4581,137.213 99.6247,130.213 106.5,124.5C 108.441,124.131 110.275,123.464 112,122.5C 115.999,122.978 117.165,124.978 115.5,128.5C 117.12,131.999 119.12,132.332 121.5,129.5 Z"/></g>
<g><path style="opacity:1" fill="#d5f35e" d="M 176.5,159.5 C 173.553,156.005 171.553,152.005 170.5,147.5C 169.5,147.5 168.5,147.5 167.5,147.5C 167.5,145.833 167.5,144.167 167.5,142.5C 166.448,142.649 165.448,142.483 164.5,142C 165.337,140.989 165.67,139.822 165.5,138.5C 160.61,137.784 156.444,139.117 153,142.5C 152.506,144.134 152.34,145.801 152.5,147.5C 150.853,144.248 151.52,141.414 154.5,139C 158.3,136.927 162.3,135.927 166.5,136C 170.509,143.52 173.842,151.353 176.5,159.5 Z"/></g>
<g><path style="opacity:1" fill="#d0f74c" d="M 263.5,124.5 C 273.902,134.376 281.568,146.043 286.5,159.5C 284.508,157.637 283.008,155.304 282,152.5C 281.586,152.957 281.086,153.291 280.5,153.5C 278.913,149.982 277.246,146.648 275.5,143.5C 273.396,143.201 271.396,143.534 269.5,144.5C 268.35,146.609 267.016,148.609 265.5,150.5C 266.342,155.834 268.009,160.834 270.5,165.5C 266.17,158.175 261.837,150.841 257.5,143.5C 258.659,144.456 259.826,145.456 261,146.5C 263.688,145.385 266.188,144.052 268.5,142.5C 265.522,140.689 263.022,138.356 261,135.5C 260.409,134.517 260.743,133.85 262,133.5C 263.982,134.721 265.482,136.388 266.5,138.5C 267.736,139.246 269.07,139.579 270.5,139.5C 270.5,137.833 270.5,136.167 270.5,134.5C 269.5,134.5 268.5,134.5 267.5,134.5C 267.5,133.167 267.5,131.833 267.5,130.5C 265.058,130.881 264.391,130.214 265.5,128.5C 264.37,127.378 263.703,126.044 263.5,124.5 Z"/></g>
<g><path style="opacity:1" fill="#e6f75d" d="M 166.5,109.5 C 150.509,112.995 136.176,119.995 123.5,130.5C 127.818,134.318 131.985,138.318 136,142.5C 136.283,151.885 131.783,156.051 122.5,155C 118.667,151.167 114.833,147.333 111,143.5C 105.039,151.767 99.8719,160.433 95.5,169.5C 95.1667,169.5 94.8333,169.5 94.5,169.5C 97.7236,159.092 103.057,149.925 110.5,142C 111.5,141.333 112.5,141.333 113.5,142C 117.14,145.64 120.806,149.306 124.5,153C 130.437,153.4 132.77,150.733 131.5,145C 128.853,140.863 125.853,137.03 122.5,133.5C 121.571,132.311 121.238,130.978 121.5,129.5C 121.414,128.504 121.748,127.671 122.5,127C 125.755,125.791 128.589,123.958 131,121.5C 136.823,117.734 142.989,114.568 149.5,112C 155.126,110.839 160.793,110.006 166.5,109.5 Z"/></g>
<g><path style="opacity:1" fill="#cbec5a" d="M 257.5,143.5 C 253.002,147.83 248.335,151.997 243.5,156C 240.519,156.838 238.186,156.005 236.5,153.5C 237.695,153.678 238.862,154.011 240,154.5C 246.319,153.346 250.152,149.68 251.5,143.5C 253.741,143.046 255.741,143.046 257.5,143.5 Z"/></g>
<g><path style="opacity:1" fill="#d0fb41" d="M 286.5,159.5 C 289.929,166.723 291.929,174.39 292.5,182.5C 292.5,183.167 292.5,183.833 292.5,184.5C 291.504,184.414 290.671,184.748 290,185.5C 290.279,190.199 288.945,194.199 286,197.5C 286.762,191.939 287.596,186.606 288.5,181.5C 287.885,179.884 286.885,178.551 285.5,177.5C 287.333,176.032 287.666,174.365 286.5,172.5C 285.808,173.025 285.308,173.692 285,174.5C 284,172.833 283,171.167 282,169.5C 280.356,171.716 278.856,174.049 277.5,176.5C 279.636,180.552 279.97,184.719 278.5,189C 279.047,189.925 279.713,190.758 280.5,191.5C 282.567,188.141 283.9,184.474 284.5,180.5C 285.657,183.784 285.824,187.118 285,190.5C 283.842,190.998 283.009,191.831 282.5,193C 283.791,195.05 284.291,197.217 284,199.5C 282.887,200.711 281.72,200.711 280.5,199.5C 279.833,198.167 279.167,196.833 278.5,195.5C 273.591,196.712 268.757,198.045 264,199.5C 262.951,197.893 261.451,197.227 259.5,197.5C 259.611,196.883 259.944,196.383 260.5,196C 265.351,195.826 270.018,195.326 274.5,194.5C 275.586,194.38 276.253,193.713 276.5,192.5C 275.954,190.865 275.62,189.199 275.5,187.5C 276.139,186.903 276.472,186.07 276.5,185C 275.296,180.57 274.462,176.07 274,171.5C 273.502,169.456 272.335,168.122 270.5,167.5C 270.5,166.833 270.5,166.167 270.5,165.5C 268.009,160.834 266.342,155.834 265.5,150.5C 267.016,148.609 268.35,146.609 269.5,144.5C 271.396,143.534 273.396,143.201 275.5,143.5C 277.246,146.648 278.913,149.982 280.5,153.5C 281.086,153.291 281.586,152.957 282,152.5C 283.008,155.304 284.508,157.637 286.5,159.5 Z"/></g>
<g><path style="opacity:1" fill="#dcf670" d="M 155.5,154.5 C 157.489,156.467 158.989,158.8 160,161.5C 161.535,167.273 163.369,172.939 165.5,178.5C 164.21,177.942 163.377,176.942 163,175.5C 160.642,168.373 158.142,161.373 155.5,154.5 Z"/></g>
<g><path style="opacity:1" fill="#d0fb40" d="M 176.5,159.5 C 177.11,160.391 177.443,161.391 177.5,162.5C 177.831,167.328 179.164,171.828 181.5,176C 181.43,176.765 181.097,177.265 180.5,177.5C 180.229,173.864 178.563,171.03 175.5,169C 176.915,165.889 176.415,163.055 174,160.5C 173.503,163.146 173.336,165.813 173.5,168.5C 172.167,168.5 170.833,168.5 169.5,168.5C 169.5,169.833 169.5,171.167 169.5,172.5C 170.5,172.5 171.5,172.5 172.5,172.5C 172.5,173.5 172.5,174.5 172.5,175.5C 170.723,175.214 169.056,174.547 167.5,173.5C 166.833,173.833 166.167,174.167 165.5,174.5C 166.309,176.071 166.643,177.738 166.5,179.5C 166.167,179.5 165.833,179.5 165.5,179.5C 165.5,179.167 165.5,178.833 165.5,178.5C 163.369,172.939 161.535,167.273 160,161.5C 158.989,158.8 157.489,156.467 155.5,154.5C 153.935,152.491 152.935,150.157 152.5,147.5C 152.34,145.801 152.506,144.134 153,142.5C 156.444,139.117 160.61,137.784 165.5,138.5C 165.67,139.822 165.337,140.989 164.5,142C 165.448,142.483 166.448,142.649 167.5,142.5C 167.5,144.167 167.5,145.833 167.5,147.5C 168.5,147.5 169.5,147.5 170.5,147.5C 171.553,152.005 173.553,156.005 176.5,159.5 Z"/></g>
<g><path style="opacity:1" fill="#d0fd3c" d="M 292.5,184.5 C 292.5,185.5 292.5,186.5 292.5,187.5C 291.133,192.321 289.966,197.321 289,202.5C 287.315,204.988 285.981,204.655 285,201.5C 283.05,203.549 282.716,205.549 284,207.5C 284.95,206.978 285.784,206.311 286.5,205.5C 287.545,209.139 288.879,212.639 290.5,216C 288.729,221.522 285.395,223.022 280.5,220.5C 280.167,221 279.833,221.5 279.5,222C 280.885,223.597 281.551,225.43 281.5,227.5C 282.5,227.5 283.5,227.5 284.5,227.5C 284.5,226.167 284.5,224.833 284.5,223.5C 285.5,223.5 286.5,223.5 287.5,223.5C 287.449,225.57 288.115,227.403 289.5,229C 288.863,230.713 287.863,230.879 286.5,229.5C 285.198,231.446 284.531,233.279 284.5,235C 282.956,236.187 281.289,236.52 279.5,236C 278.192,227.406 277.192,218.739 276.5,210C 277.289,208.374 278.289,206.874 279.5,205.5C 278.635,204.417 277.635,204.251 276.5,205C 271.952,209.941 266.285,211.775 259.5,210.5C 257.691,206.695 257.191,202.695 258,198.5C 258.383,197.944 258.883,197.611 259.5,197.5C 261.451,197.227 262.951,197.893 264,199.5C 268.757,198.045 273.591,196.712 278.5,195.5C 279.167,196.833 279.833,198.167 280.5,199.5C 281.72,200.711 282.887,200.711 284,199.5C 284.291,197.217 283.791,195.05 282.5,193C 283.009,191.831 283.842,190.998 285,190.5C 285.824,187.118 285.657,183.784 284.5,180.5C 283.9,184.474 282.567,188.141 280.5,191.5C 279.713,190.758 279.047,189.925 278.5,189C 279.97,184.719 279.636,180.552 277.5,176.5C 278.856,174.049 280.356,171.716 282,169.5C 283,171.167 284,172.833 285,174.5C 285.308,173.692 285.808,173.025 286.5,172.5C 287.666,174.365 287.333,176.032 285.5,177.5C 286.885,178.551 287.885,179.884 288.5,181.5C 287.596,186.606 286.762,191.939 286,197.5C 288.945,194.199 290.279,190.199 290,185.5C 290.671,184.748 291.504,184.414 292.5,184.5 Z"/></g>
<g><path style="opacity:0.722" fill="#cff163" d="M 270.5,167.5 C 272.335,168.122 273.502,169.456 274,171.5C 274.462,176.07 275.296,180.57 276.5,185C 276.472,186.07 276.139,186.903 275.5,187.5C 274.459,180.67 272.793,174.003 270.5,167.5 Z"/></g>
<g><path style="opacity:1" fill="#d1f15b" d="M 177.5,162.5 C 180.918,170.521 184.252,178.688 187.5,187C 188.686,188.412 190.019,189.579 191.5,190.5C 189.856,190.714 188.356,190.38 187,189.5C 184.85,186.082 182.517,182.749 180,179.5C 179.308,178.563 179.475,177.897 180.5,177.5C 181.097,177.265 181.43,176.765 181.5,176C 179.164,171.828 177.831,167.328 177.5,162.5 Z"/></g>
<g><path style="opacity:1" fill="#d6f565" d="M 165.5,179.5 C 165.833,179.5 166.167,179.5 166.5,179.5C 166.941,182.716 168.607,185.05 171.5,186.5C 170.265,189.452 170.598,192.286 172.5,195C 170.779,200.02 170.113,205.186 170.5,210.5C 168.687,207.111 168.021,203.611 168.5,200C 169.13,198.108 170.13,196.441 171.5,195C 168.87,190.162 166.536,185.162 164.5,180C 164.728,179.601 165.062,179.435 165.5,179.5 Z"/></g>
<g><path style="opacity:1" fill="#d0fc3e" d="M 180.5,177.5 C 179.475,177.897 179.308,178.563 180,179.5C 182.517,182.749 184.85,186.082 187,189.5C 188.356,190.38 189.856,190.714 191.5,190.5C 191.844,193.196 193.177,195.196 195.5,196.5C 197.272,200.774 197.606,205.107 196.5,209.5C 194.626,211.816 192.96,214.15 191.5,216.5C 184.836,217.172 178.503,216.172 172.5,213.5C 171.599,212.71 170.932,211.71 170.5,210.5C 170.113,205.186 170.779,200.02 172.5,195C 170.598,192.286 170.265,189.452 171.5,186.5C 168.607,185.05 166.941,182.716 166.5,179.5C 166.643,177.738 166.309,176.071 165.5,174.5C 166.167,174.167 166.833,173.833 167.5,173.5C 169.056,174.547 170.723,175.214 172.5,175.5C 172.5,174.5 172.5,173.5 172.5,172.5C 171.5,172.5 170.5,172.5 169.5,172.5C 169.5,171.167 169.5,169.833 169.5,168.5C 170.833,168.5 172.167,168.5 173.5,168.5C 173.336,165.813 173.503,163.146 174,160.5C 176.415,163.055 176.915,165.889 175.5,169C 178.563,171.03 180.229,173.864 180.5,177.5 Z"/></g>
<g><path style="opacity:1" fill="#f0fc79" d="M 86.5,149.5 C 82.6114,160.328 79.4447,171.328 77,182.5C 75.5746,193.801 75.2413,205.135 76,216.5C 76.2784,217.416 76.7784,218.082 77.5,218.5C 77.444,224.896 78.7773,230.896 81.5,236.5C 82.0916,239.127 82.4249,241.794 82.5,244.5C 69.4545,212.619 70.7878,180.953 86.5,149.5 Z"/></g>
<g><path style="opacity:0.98" fill="#effc7f" d="M 94.5,169.5 C 94.8333,169.5 95.1667,169.5 95.5,169.5C 93.0648,178.01 91.3982,186.676 90.5,195.5C 96.8421,195.334 103.175,195.5 109.5,196C 112.144,200.939 112.144,205.772 109.5,210.5C 111.133,205.83 110.8,201.33 108.5,197C 102.175,196.5 95.8421,196.334 89.5,196.5C 89.5,196.167 89.5,195.833 89.5,195.5C 90.1327,186.669 91.7993,178.002 94.5,169.5 Z"/></g>
<g><path style="opacity:0.904" fill="#d2f05b" d="M 191.5,190.5 C 199.703,195.659 201.536,202.659 197,211.5C 195.945,214.056 194.112,215.723 191.5,216.5C 192.96,214.15 194.626,211.816 196.5,209.5C 197.606,205.107 197.272,200.774 195.5,196.5C 193.177,195.196 191.844,193.196 191.5,190.5 Z"/></g>
<g><path style="opacity:1" fill="#d2ee6b" d="M 274.5,194.5 C 270.018,195.326 265.351,195.826 260.5,196C 259.944,196.383 259.611,196.883 259.5,197.5C 258.883,197.611 258.383,197.944 258,198.5C 257.191,202.695 257.691,206.695 259.5,210.5C 259.5,210.833 259.5,211.167 259.5,211.5C 254.319,206.14 254.319,200.64 259.5,195C 264.489,194.501 269.489,194.334 274.5,194.5 Z"/></g>
<g><path style="opacity:0.98" fill="#edfc81" d="M 91.5,211.5 C 97.31,210.51 103.31,210.177 109.5,210.5C 109.217,211.289 108.717,211.956 108,212.5C 102.593,211.527 97.0934,211.193 91.5,211.5 Z"/></g>
<g><path style="opacity:1" fill="#d0fd3d" d="M 89.5,195.5 C 89.5,195.833 89.5,196.167 89.5,196.5C 90.5025,198.011 91.1692,199.678 91.5,201.5C 92.9778,201.762 94.3112,201.429 95.5,200.5C 94.1062,199.313 94.2729,198.646 96,198.5C 99.2052,199.798 100.205,202.132 99,205.5C 95.318,202.372 93.318,203.372 93,208.5C 92,207.167 91,207.167 90,208.5C 88.0527,212.549 87.5527,216.715 88.5,221C 86.7249,224.317 86.8916,227.817 89,231.5C 89.3333,236.167 89.6667,240.833 90,245.5C 91.0113,246.337 92.1779,246.67 93.5,246.5C 93.665,249.85 93.4983,253.183 93,256.5C 92.3292,255.748 91.4959,255.414 90.5,255.5C 89.6859,251.503 88.6859,247.503 87.5,243.5C 86.5,243.5 85.5,243.5 84.5,243.5C 84.8337,240.509 83.8337,238.176 81.5,236.5C 78.7773,230.896 77.444,224.896 77.5,218.5C 78.5874,212.913 80.9207,212.246 84.5,216.5C 85.6474,214.235 85.8141,211.902 85,209.5C 82.6801,212.016 80.0134,213.016 77,212.5C 77.0232,206.091 77.3566,199.424 78,192.5C 78.7387,191.426 79.7387,190.759 81,190.5C 83.6508,192.084 85.9842,191.751 88,189.5C 88.1909,191.708 88.6909,193.708 89.5,195.5 Z"/></g>
<g><path style="opacity:1" fill="#d1f35b" d="M 292.5,182.5 C 293.596,188.677 294.596,195.01 295.5,201.5C 294.407,211.733 292.741,221.733 290.5,231.5C 291.083,225.25 291.083,219.083 290.5,213C 291.487,210.195 292.487,207.362 293.5,204.5C 292.892,199.071 292.559,193.404 292.5,187.5C 292.5,186.5 292.5,185.5 292.5,184.5C 292.5,183.833 292.5,183.167 292.5,182.5 Z"/></g>
<g><path style="opacity:1" fill="#d6f36d" d="M 172.5,213.5 C 178.503,216.172 184.836,217.172 191.5,216.5C 187.409,218.25 183.243,218.916 179,218.5C 176.438,217.273 174.272,215.606 172.5,213.5 Z"/></g>
<g><path style="opacity:1" fill="#d0fb41" d="M 292.5,187.5 C 292.559,193.404 292.892,199.071 293.5,204.5C 292.487,207.362 291.487,210.195 290.5,213C 291.083,219.083 291.083,225.25 290.5,231.5C 288.812,234.223 287.312,237.223 286,240.5C 285.586,240.043 285.086,239.709 284.5,239.5C 283.719,240.729 283.219,242.062 283,243.5C 282.667,243.167 282.333,242.833 282,242.5C 280.137,246.633 279.304,250.967 279.5,255.5C 278.5,255.5 277.5,255.5 276.5,255.5C 276.439,257.592 275.439,259.092 273.5,260C 273.957,260.414 274.291,260.914 274.5,261.5C 272.896,263.179 272.229,265.179 272.5,267.5C 271.5,267.5 270.5,267.5 269.5,267.5C 269.5,268.5 269.5,269.5 269.5,270.5C 267.738,270.643 266.071,270.309 264.5,269.5C 264.167,269.833 263.833,270.167 263.5,270.5C 266.179,273.311 265.845,275.811 262.5,278C 260.866,278.494 259.199,278.66 257.5,278.5C 256.987,276.71 256.487,275.044 256,273.5C 257.962,273.969 259.795,273.303 261.5,271.5C 261,270.119 260,269.453 258.5,269.5C 256.865,270.046 255.199,270.38 253.5,270.5C 251.992,273.14 252.326,275.473 254.5,277.5C 252.837,281.081 250.671,281.414 248,278.5C 247.35,275.035 245.85,272.035 243.5,269.5C 240.291,270.759 238.291,269.592 237.5,266C 237.905,265.055 238.572,264.388 239.5,264C 237.95,262.004 236.616,259.838 235.5,257.5C 237.421,256.676 238.754,255.343 239.5,253.5C 240.695,253.322 241.862,252.989 243,252.5C 244.406,253.414 245.906,254.08 247.5,254.5C 250.168,256.336 252.334,258.669 254,261.5C 266.211,247.574 273.711,231.408 276.5,213C 270.652,212.827 264.985,212.327 259.5,211.5C 259.5,211.167 259.5,210.833 259.5,210.5C 266.285,211.775 271.952,209.941 276.5,205C 277.635,204.251 278.635,204.417 279.5,205.5C 278.289,206.874 277.289,208.374 276.5,210C 277.192,218.739 278.192,227.406 279.5,236C 281.289,236.52 282.956,236.187 284.5,235C 284.531,233.279 285.198,231.446 286.5,229.5C 287.863,230.879 288.863,230.713 289.5,229C 288.115,227.403 287.449,225.57 287.5,223.5C 286.5,223.5 285.5,223.5 284.5,223.5C 284.5,224.833 284.5,226.167 284.5,227.5C 283.5,227.5 282.5,227.5 281.5,227.5C 281.551,225.43 280.885,223.597 279.5,222C 279.833,221.5 280.167,221 280.5,220.5C 285.395,223.022 288.729,221.522 290.5,216C 288.879,212.639 287.545,209.139 286.5,205.5C 285.784,206.311 284.95,206.978 284,207.5C 282.716,205.549 283.05,203.549 285,201.5C 285.981,204.655 287.315,204.988 289,202.5C 289.966,197.321 291.133,192.321 292.5,187.5 Z"/></g>
<g><path style="opacity:1" fill="#d4f756" d="M 290.5,231.5 C 286.964,244.8 280.964,256.8 272.5,267.5C 272.229,265.179 272.896,263.179 274.5,261.5C 274.291,260.914 273.957,260.414 273.5,260C 275.439,259.092 276.439,257.592 276.5,255.5C 277.5,255.5 278.5,255.5 279.5,255.5C 279.304,250.967 280.137,246.633 282,242.5C 282.333,242.833 282.667,243.167 283,243.5C 283.219,242.062 283.719,240.729 284.5,239.5C 285.086,239.709 285.586,240.043 286,240.5C 287.312,237.223 288.812,234.223 290.5,231.5 Z"/></g>
<g><path style="opacity:0.988" fill="#e8f662" d="M 91.5,211.5 C 92.0688,219.776 93.9022,227.776 97,235.5C 101.257,244.236 106.091,252.569 111.5,260.5C 108.788,259.953 107.288,258.287 107,255.5C 102.041,251.696 98.7074,246.696 97,240.5C 95.1441,234.062 93.1441,227.729 91,221.5C 90.1925,217.973 90.3592,214.64 91.5,211.5 Z"/></g>
<g><path style="opacity:0.941" fill="#d3ec67" d="M 247.5,254.5 C 245.906,254.08 244.406,253.414 243,252.5C 241.862,252.989 240.695,253.322 239.5,253.5C 237.833,254.167 236.167,254.833 234.5,255.5C 236.466,252.843 239.133,251.177 242.5,250.5C 244.761,251.095 246.428,252.429 247.5,254.5 Z"/></g>
<g><path style="opacity:1" fill="#d2fc3f" d="M 89.5,196.5 C 95.8421,196.334 102.175,196.5 108.5,197C 110.8,201.33 111.133,205.83 109.5,210.5C 103.31,210.177 97.31,210.51 91.5,211.5C 90.3592,214.64 90.1925,217.973 91,221.5C 93.1441,227.729 95.1441,234.062 97,240.5C 98.7074,246.696 102.041,251.696 107,255.5C 107.288,258.287 108.788,259.953 111.5,260.5C 111.427,262.027 112.094,263.027 113.5,263.5C 116.899,261.612 119.899,259.112 122.5,256C 129.308,253.902 132.641,256.402 132.5,263.5C 131.194,264.912 130.36,266.579 130,268.5C 129.667,268.167 129.333,267.833 129,267.5C 128.517,268.448 128.351,269.448 128.5,270.5C 124.019,272.459 120.185,275.459 117,279.5C 116.51,280.793 116.343,282.127 116.5,283.5C 110.672,281.845 106.505,278.179 104,272.5C 100.617,270.782 98.2841,268.115 97,264.5C 93.1355,262.766 90.9688,259.766 90.5,255.5C 91.4959,255.414 92.3292,255.748 93,256.5C 93.4983,253.183 93.665,249.85 93.5,246.5C 92.1779,246.67 91.0113,246.337 90,245.5C 89.6667,240.833 89.3333,236.167 89,231.5C 86.8916,227.817 86.7249,224.317 88.5,221C 87.5527,216.715 88.0527,212.549 90,208.5C 91,207.167 92,207.167 93,208.5C 93.318,203.372 95.318,202.372 99,205.5C 100.205,202.132 99.2052,199.798 96,198.5C 94.2729,198.646 94.1062,199.313 95.5,200.5C 94.3112,201.429 92.9778,201.762 91.5,201.5C 91.1692,199.678 90.5025,198.011 89.5,196.5 Z"/></g>
<g><path style="opacity:1" fill="#e4f757" d="M 129.5,252.5 C 134.724,254.324 136.891,257.991 136,263.5C 129.996,270.671 123.496,277.338 116.5,283.5C 116.343,282.127 116.51,280.793 117,279.5C 120.185,275.459 124.019,272.459 128.5,270.5C 128.351,269.448 128.517,268.448 129,267.5C 129.333,267.833 129.667,268.167 130,268.5C 130.36,266.579 131.194,264.912 132.5,263.5C 132.641,256.402 129.308,253.902 122.5,256C 119.899,259.112 116.899,261.612 113.5,263.5C 116.629,259.869 119.963,256.369 123.5,253C 125.473,252.505 127.473,252.338 129.5,252.5 Z"/></g>
<g><path style="opacity:0.482" fill="#cbd75a" d="M 129.5,252.5 C 127.473,252.338 125.473,252.505 123.5,253C 119.963,256.369 116.629,259.869 113.5,263.5C 112.094,263.027 111.427,262.027 111.5,260.5C 112.117,260.611 112.617,260.944 113,261.5C 116.167,258.333 119.333,255.167 122.5,252C 125.039,251.204 127.372,251.371 129.5,252.5 Z"/></g>
<g><path style="opacity:1" fill="#d0f74c" d="M 239.5,253.5 C 238.754,255.343 237.421,256.676 235.5,257.5C 236.616,259.838 237.95,262.004 239.5,264C 238.572,264.388 237.905,265.055 237.5,266C 238.291,269.592 240.291,270.759 243.5,269.5C 245.85,272.035 247.35,275.035 248,278.5C 250.671,281.414 252.837,281.081 254.5,277.5C 252.326,275.473 251.992,273.14 253.5,270.5C 255.199,270.38 256.865,270.046 258.5,269.5C 260,269.453 261,270.119 261.5,271.5C 259.795,273.303 257.962,273.969 256,273.5C 256.487,275.044 256.987,276.71 257.5,278.5C 259.199,278.66 260.866,278.494 262.5,278C 265.845,275.811 266.179,273.311 263.5,270.5C 263.833,270.167 264.167,269.833 264.5,269.5C 266.071,270.309 267.738,270.643 269.5,270.5C 269.5,269.5 269.5,268.5 269.5,267.5C 270.5,267.5 271.5,267.5 272.5,267.5C 267.921,274.916 262.087,281.249 255,286.5C 245.982,278.982 237.815,270.649 230.5,261.5C 231.361,259.089 232.694,257.089 234.5,255.5C 236.167,254.833 237.833,254.167 239.5,253.5 Z"/></g>
<g><path style="opacity:0.98" fill="#e3f45a" d="M 81.5,236.5 C 83.8337,238.176 84.8337,240.509 84.5,243.5C 85.5,243.5 86.5,243.5 87.5,243.5C 88.6859,247.503 89.6859,251.503 90.5,255.5C 90.9688,259.766 93.1355,262.766 97,264.5C 98.2841,268.115 100.617,270.782 104,272.5C 106.505,278.179 110.672,281.845 116.5,283.5C 115.685,284.837 114.518,285.837 113,286.5C 99.1426,275.148 88.9759,261.148 82.5,244.5C 82.4249,241.794 82.0916,239.127 81.5,236.5 Z"/></g>
</svg>
