<?xml version="1.0" encoding="UTF-8"?>
<!DOCTYPE svg PUBLIC "-//W3C//DTD SVG 1.1//EN" "http://www.w3.org/Graphics/SVG/1.1/DTD/svg11.dtd">
<svg xmlns="http://www.w3.org/2000/svg" version="1.1" width="500px" height="500px" style="shape-rendering:geometricPrecision; text-rendering:geometricPrecision; image-rendering:optimizeQuality; fill-rule:evenodd; clip-rule:evenodd" xmlns:xlink="http://www.w3.org/1999/xlink">
<g><path style="opacity:1" fill="#d63f35" d="M 261.5,85.5 C 265.027,88.2044 267.86,91.5377 270,95.5C 275.19,104.555 280.357,113.555 285.5,122.5C 281.42,120.53 279.087,117.197 278.5,112.5C 277.5,112.5 276.5,112.5 275.5,112.5C 275.285,108.734 273.951,105.4 271.5,102.5C 268.165,101.452 266.665,99.1183 267,95.5C 265.344,92.0256 263.511,88.6923 261.5,85.5 Z"/></g>
<g><path style="opacity:1" fill="#e32820" d="M 261.5,85.5 C 263.511,88.6923 265.344,92.0256 267,95.5C 266.665,99.1183 268.165,101.452 271.5,102.5C 273.951,105.4 275.285,108.734 275.5,112.5C 276.5,112.5 277.5,112.5 278.5,112.5C 279.087,117.197 281.42,120.53 285.5,122.5C 288.613,126.39 290.946,130.724 292.5,135.5C 292.854,138.421 291.854,140.754 289.5,142.5C 293.844,147.384 298.344,151.384 303,154.5C 303.638,155.609 304.138,156.775 304.5,158C 302.722,160.225 302.222,162.725 303,165.5C 303.667,164.167 304.333,164.167 305,165.5C 305.559,168.285 306.892,170.618 309,172.5C 309.333,171.167 309.667,169.833 310,168.5C 312.186,169.967 312.852,171.967 312,174.5C 311.107,173.289 310.274,173.289 309.5,174.5C 311.997,175.578 313.663,177.411 314.5,180C 317.594,180.471 319.261,182.304 319.5,185.5C 320.86,186.18 322.193,186.847 323.5,187.5C 338.584,211.327 352.918,235.66 366.5,260.5C 366.927,263.914 365.927,266.748 363.5,269C 365.68,269.749 368.013,270.249 370.5,270.5C 372.102,272.708 373.436,275.041 374.5,277.5C 373.608,282.038 371.441,283.038 368,280.5C 367.781,279.062 367.281,277.729 366.5,276.5C 365.123,282.261 364.789,287.927 365.5,293.5C 361.865,293.344 361.532,292.178 364.5,290C 360.534,290.143 358.534,288.309 358.5,284.5C 357.5,284.5 356.5,284.5 355.5,284.5C 345.74,268.742 336.407,252.742 327.5,236.5C 326.805,233.085 325.138,230.418 322.5,228.5C 315.614,217.871 309.281,206.871 303.5,195.5C 302.633,192.107 302.466,188.773 303,185.5C 301.817,186.731 300.651,186.731 299.5,185.5C 298.811,183.556 298.311,181.556 298,179.5C 297.667,179.833 297.333,180.167 297,180.5C 294.162,178.166 292.329,175.166 291.5,171.5C 290.358,170.174 289.024,169.174 287.5,168.5C 287.087,164.662 285.42,161.662 282.5,159.5C 271.688,141.887 260.855,124.22 250,106.5C 247.698,108.477 245.698,110.81 244,113.5C 238.316,124.878 232.149,135.878 225.5,146.5C 224.142,145.374 222.808,145.374 221.5,146.5C 222.041,148.523 221.541,150.523 220,152.5C 219.667,151.833 219.333,151.167 219,150.5C 218.781,151.938 218.281,153.271 217.5,154.5C 216.914,154.291 216.414,153.957 216,153.5C 215.818,156.226 215.318,158.893 214.5,161.5C 212.983,160.089 211.649,160.256 210.5,162C 212.107,163.049 212.773,164.549 212.5,166.5C 212.5,166.833 212.5,167.167 212.5,167.5C 211.849,166.909 211.182,166.243 210.5,165.5C 209.494,165.938 209.494,166.604 210.5,167.5C 208.167,168.167 205.833,168.833 203.5,169.5C 203.529,172.492 203.862,175.492 204.5,178.5C 203.448,178.351 202.448,178.517 201.5,179C 202.337,180.011 202.67,181.178 202.5,182.5C 200.058,182.119 199.391,182.786 200.5,184.5C 198.988,185.862 197.488,186.196 196,185.5C 195.044,186.579 194.211,187.745 193.5,189C 192.216,189.684 191.049,189.517 190,188.5C 189.845,190.856 189.845,193.189 190,195.5C 189.5,197.333 188.333,198.5 186.5,199C 187.554,200.388 187.72,201.888 187,203.5C 186.667,203.167 186.333,202.833 186,202.5C 185.121,205.818 184.287,209.152 183.5,212.5C 182.604,211.494 181.938,211.494 181.5,212.5C 182.246,213.736 182.579,215.07 182.5,216.5C 181.5,216.5 180.5,216.5 179.5,216.5C 179.5,218.5 179.5,220.5 179.5,222.5C 178.5,222.5 177.5,222.5 176.5,222.5C 176.5,224.5 176.5,226.5 176.5,228.5C 166.098,246.968 155.431,265.302 144.5,283.5C 142.983,283.511 141.816,284.177 141,285.5C 137.911,290.74 135.078,296.073 132.5,301.5C 131.5,301.5 130.5,301.5 129.5,301.5C 129.662,305.177 128.662,308.511 126.5,311.5C 125.808,310.975 125.308,310.308 125,309.5C 124.503,311.81 124.337,314.143 124.5,316.5C 121.645,318.281 120.312,320.948 120.5,324.5C 118.743,325.292 117.409,326.625 116.5,328.5C 115.094,327.332 113.928,327.665 113,329.5C 112.545,332.854 112.045,336.187 111.5,339.5C 107.021,347.599 102.354,355.599 97.5,363.5C 198.495,365.498 299.828,366.164 401.5,365.5C 301.001,366.333 200.334,366.833 99.5,367C 97.0454,367.394 95.0454,368.56 93.5,370.5C 94.4911,371.665 95.4911,372.832 96.5,374C 96.3865,375.28 95.7199,376.113 94.5,376.5C 93.8333,375.167 93.1667,373.833 92.5,372.5C 91.5,372.833 90.8333,373.5 90.5,374.5C 91.5,375.833 92.5,377.167 93.5,378.5C 92.6906,380.071 92.3573,381.738 92.5,383.5C 90.5856,382.815 88.5856,382.315 86.5,382C 86.8333,381.667 87.1667,381.333 87.5,381C 83.2371,380.239 80.9037,377.739 80.5,373.5C 79.5,373.5 78.5,373.5 77.5,373.5C 76.7784,373.082 76.2784,372.416 76,371.5C 75.3333,366.833 75.3333,362.167 76,357.5C 76.7568,355.685 77.5902,354.019 78.5,352.5C 80.7718,351.073 82.9385,349.406 85,347.5C 86.1544,349.957 87.4877,349.957 89,347.5C 89.6667,346.167 89.6667,344.833 89,343.5C 88.6827,345.301 88.016,345.634 87,344.5C 86.51,343.207 86.3433,341.873 86.5,340.5C 92.2215,340.997 94.2215,338.663 92.5,333.5C 92.8036,331.559 93.6369,329.893 95,328.5C 95.1962,330.286 96.0295,331.619 97.5,332.5C 97.8333,331.833 98.1667,331.167 98.5,330.5C 97.8333,329.5 97.1667,328.5 96.5,327.5C 98.5507,322.473 100.551,317.473 102.5,312.5C 112.822,292.515 124.155,273.182 136.5,254.5C 138.373,253.137 140.039,251.47 141.5,249.5C 142.067,245.933 144.067,243.6 147.5,242.5C 148.182,237.119 149.849,232.119 152.5,227.5C 152.491,225.692 152.991,224.025 154,222.5C 169.761,196.925 185.261,171.258 200.5,145.5C 203.181,143.838 205.181,141.505 206.5,138.5C 209.908,132.017 213.575,125.684 217.5,119.5C 219.058,117.009 220.058,114.343 220.5,111.5C 225.481,101.544 231.481,92.2105 238.5,83.5C 244.709,80.9305 251.043,80.4305 257.5,82C 259.093,82.9487 260.426,84.1154 261.5,85.5 Z"/></g>
<g><path style="opacity:0.984" fill="#d44b3e" d="M 220.5,111.5 C 220.058,114.343 219.058,117.009 217.5,119.5C 213.575,125.684 209.908,132.017 206.5,138.5C 205.181,141.505 203.181,143.838 200.5,145.5C 206.652,133.862 213.319,122.529 220.5,111.5 Z"/></g>
<g><path style="opacity:0.996" fill="#da4335" d="M 225.5,146.5 C 221.164,153.194 216.831,159.86 212.5,166.5C 212.773,164.549 212.107,163.049 210.5,162C 211.649,160.256 212.983,160.089 214.5,161.5C 215.318,158.893 215.818,156.226 216,153.5C 216.414,153.957 216.914,154.291 217.5,154.5C 218.281,153.271 218.781,151.938 219,150.5C 219.333,151.167 219.667,151.833 220,152.5C 221.541,150.523 222.041,148.523 221.5,146.5C 222.808,145.374 224.142,145.374 225.5,146.5 Z"/></g>
<g><path style="opacity:0.361" fill="#cc524b" d="M 282.5,159.5 C 285.42,161.662 287.087,164.662 287.5,168.5C 285.277,165.856 283.611,162.856 282.5,159.5 Z"/></g>
<g><path style="opacity:1" fill="#de3227" d="M 292.5,135.5 C 303.635,152.314 313.969,169.647 323.5,187.5C 322.193,186.847 320.86,186.18 319.5,185.5C 319.261,182.304 317.594,180.471 314.5,180C 313.663,177.411 311.997,175.578 309.5,174.5C 310.274,173.289 311.107,173.289 312,174.5C 312.852,171.967 312.186,169.967 310,168.5C 309.667,169.833 309.333,171.167 309,172.5C 306.892,170.618 305.559,168.285 305,165.5C 304.333,164.167 303.667,164.167 303,165.5C 302.222,162.725 302.722,160.225 304.5,158C 304.138,156.775 303.638,155.609 303,154.5C 298.344,151.384 293.844,147.384 289.5,142.5C 291.854,140.754 292.854,138.421 292.5,135.5 Z"/></g>
<g><path style="opacity:1" fill="#e32920" d="M 268.5,183.5 C 269.775,187.137 271.108,190.804 272.5,194.5C 271.178,194.67 270.011,194.337 269,193.5C 267.061,195.46 267.561,196.793 270.5,197.5C 271.768,196.572 273.101,196.405 274.5,197C 275.542,198.918 276.708,200.751 278,202.5C 277.954,205.8 277.788,209.134 277.5,212.5C 280.797,212.671 281.131,212.005 278.5,210.5C 280.116,206.724 281.116,207.058 281.5,211.5C 282.5,211.5 283.5,211.5 284.5,211.5C 284.906,214.988 285.906,218.321 287.5,221.5C 286.369,222.604 285.535,222.271 285,220.5C 284.075,221.047 283.242,221.713 282.5,222.5C 282.255,224.745 282.255,227.078 282.5,229.5C 283.415,228.672 284.081,227.672 284.5,226.5C 286.689,225.827 288.689,224.827 290.5,223.5C 291.734,225.398 291.401,227.065 289.5,228.5C 291.045,229.452 292.712,229.785 294.5,229.5C 295.198,232.212 296.532,234.546 298.5,236.5C 299.474,238.743 299.808,241.076 299.5,243.5C 300.552,243.351 301.552,243.517 302.5,244C 303.664,246.328 305.33,248.162 307.5,249.5C 308.167,249.5 308.5,249.833 308.5,250.5C 308.321,252.954 308.987,255.121 310.5,257C 309.623,258.867 308.123,260.034 306,260.5C 305.808,262.577 305.308,264.577 304.5,266.5C 303.833,265.167 303.167,263.833 302.5,262.5C 301.833,262.833 301.167,263.167 300.5,263.5C 299.548,261.955 299.215,260.288 299.5,258.5C 297.801,258.34 296.134,258.506 294.5,259C 297.696,262.559 299.363,266.725 299.5,271.5C 298.5,271.5 297.5,271.5 296.5,271.5C 293.324,267.516 291.657,262.849 291.5,257.5C 290.022,257.762 288.689,257.429 287.5,256.5C 286.764,254.207 286.598,251.874 287,249.5C 285.644,248.62 284.144,248.286 282.5,248.5C 282.5,247.167 282.5,245.833 282.5,244.5C 281.5,244.5 280.5,244.5 279.5,244.5C 279.445,240.126 277.445,237.126 273.5,235.5C 265.573,221.879 257.573,208.213 249.5,194.5C 240.149,210.543 230.815,226.543 221.5,242.5C 220.5,242.5 219.5,242.5 218.5,242.5C 218.437,245.908 216.77,248.241 213.5,249.5C 214.5,251.591 213.833,253.257 211.5,254.5C 210.534,256.396 210.201,258.396 210.5,260.5C 208.61,260.703 207.11,260.037 206,258.5C 205.5,259 205,259.5 204.5,260C 206.439,260.908 207.439,262.408 207.5,264.5C 206.5,264.5 205.5,264.5 204.5,264.5C 204.5,265.5 204.5,266.5 204.5,267.5C 203.325,267.281 202.325,267.614 201.5,268.5C 202.246,269.736 202.579,271.07 202.5,272.5C 201.167,272.5 199.833,272.5 198.5,272.5C 198.5,274.167 198.5,275.833 198.5,277.5C 196.891,277.094 195.557,277.094 194.5,277.5C 196.104,279.179 196.771,281.179 196.5,283.5C 195.404,286.032 194.071,288.365 192.5,290.5C 190.259,291.3 189.259,292.966 189.5,295.5C 185.217,302.802 180.884,310.135 176.5,317.5C 180.037,317.782 183.704,317.782 187.5,317.5C 187.5,318.5 187.5,319.5 187.5,320.5C 183.233,320.797 179.066,320.464 175,319.5C 174.713,317.109 174.213,314.776 173.5,312.5C 174.868,311.406 176.035,311.74 177,313.5C 179.574,309.518 181.74,305.352 183.5,301C 183.333,300.167 183.167,299.333 183,298.5C 181.345,298.802 180.012,300.136 179,302.5C 178.5,301.5 178,300.5 177.5,299.5C 179.027,297.807 180.36,295.973 181.5,294C 177.294,292.34 176.627,289.84 179.5,286.5C 177.677,285.509 176.177,284.176 175,282.5C 174.292,283.381 173.458,284.047 172.5,284.5C 172.833,283.167 173.167,281.833 173.5,280.5C 195.294,244.204 216.461,207.537 237,170.5C 246.562,160.685 255.229,161.352 263,172.5C 265.318,175.973 267.151,179.639 268.5,183.5 Z"/></g>
<g><path style="opacity:1" fill="#d63f35" d="M 287.5,168.5 C 289.024,169.174 290.358,170.174 291.5,171.5C 292.329,175.166 294.162,178.166 297,180.5C 297.333,180.167 297.667,179.833 298,179.5C 298.311,181.556 298.811,183.556 299.5,185.5C 300.651,186.731 301.817,186.731 303,185.5C 302.466,188.773 302.633,192.107 303.5,195.5C 298.202,186.522 292.869,177.522 287.5,168.5 Z"/></g>
<g><path style="opacity:1" fill="#e03a2c" d="M 212.5,167.5 C 200.733,188.043 188.733,208.376 176.5,228.5C 176.5,226.5 176.5,224.5 176.5,222.5C 177.5,222.5 178.5,222.5 179.5,222.5C 179.5,220.5 179.5,218.5 179.5,216.5C 180.5,216.5 181.5,216.5 182.5,216.5C 182.579,215.07 182.246,213.736 181.5,212.5C 181.938,211.494 182.604,211.494 183.5,212.5C 184.287,209.152 185.121,205.818 186,202.5C 186.333,202.833 186.667,203.167 187,203.5C 187.72,201.888 187.554,200.388 186.5,199C 188.333,198.5 189.5,197.333 190,195.5C 189.845,193.189 189.845,190.856 190,188.5C 191.049,189.517 192.216,189.684 193.5,189C 194.211,187.745 195.044,186.579 196,185.5C 197.488,186.196 198.988,185.862 200.5,184.5C 199.391,182.786 200.058,182.119 202.5,182.5C 202.67,181.178 202.337,180.011 201.5,179C 202.448,178.517 203.448,178.351 204.5,178.5C 203.862,175.492 203.529,172.492 203.5,169.5C 205.833,168.833 208.167,168.167 210.5,167.5C 209.494,166.604 209.494,165.938 210.5,165.5C 211.182,166.243 211.849,166.909 212.5,167.5 Z"/></g>
<g><path style="opacity:1" fill="#db352a" d="M 268.5,183.5 C 282.006,205.176 295.006,227.176 307.5,249.5C 305.33,248.162 303.664,246.328 302.5,244C 301.552,243.517 300.552,243.351 299.5,243.5C 299.808,241.076 299.474,238.743 298.5,236.5C 296.532,234.546 295.198,232.212 294.5,229.5C 292.712,229.785 291.045,229.452 289.5,228.5C 291.401,227.065 291.734,225.398 290.5,223.5C 288.689,224.827 286.689,225.827 284.5,226.5C 284.081,227.672 283.415,228.672 282.5,229.5C 282.255,227.078 282.255,224.745 282.5,222.5C 283.242,221.713 284.075,221.047 285,220.5C 285.535,222.271 286.369,222.604 287.5,221.5C 285.906,218.321 284.906,214.988 284.5,211.5C 283.5,211.5 282.5,211.5 281.5,211.5C 281.116,207.058 280.116,206.724 278.5,210.5C 281.131,212.005 280.797,212.671 277.5,212.5C 277.788,209.134 277.954,205.8 278,202.5C 276.708,200.751 275.542,198.918 274.5,197C 273.101,196.405 271.768,196.572 270.5,197.5C 267.561,196.793 267.061,195.46 269,193.5C 270.011,194.337 271.178,194.67 272.5,194.5C 271.108,190.804 269.775,187.137 268.5,183.5 Z"/></g>
<g><path style="opacity:0.761" fill="#e07a70" d="M 322.5,228.5 C 325.138,230.418 326.805,233.085 327.5,236.5C 325.347,234.206 323.68,231.54 322.5,228.5 Z"/></g>
<g><path style="opacity:1" fill="#d53f32" d="M 152.5,227.5 C 149.849,232.119 148.182,237.119 147.5,242.5C 144.067,243.6 142.067,245.933 141.5,249.5C 140.039,251.47 138.373,253.137 136.5,254.5C 141.031,244.982 146.364,235.982 152.5,227.5 Z"/></g>
<g><path style="opacity:0.976" fill="#dd5c4d" d="M 221.5,242.5 C 218.195,248.794 214.528,254.794 210.5,260.5C 210.201,258.396 210.534,256.396 211.5,254.5C 213.833,253.257 214.5,251.591 213.5,249.5C 216.77,248.241 218.437,245.908 218.5,242.5C 219.5,242.5 220.5,242.5 221.5,242.5 Z"/></g>
<g><path style="opacity:1" fill="#d74135" d="M 273.5,235.5 C 277.445,237.126 279.445,240.126 279.5,244.5C 280.5,244.5 281.5,244.5 282.5,244.5C 282.5,245.833 282.5,247.167 282.5,248.5C 284.144,248.286 285.644,248.62 287,249.5C 286.598,251.874 286.764,254.207 287.5,256.5C 288.689,257.429 290.022,257.762 291.5,257.5C 291.657,262.849 293.324,267.516 296.5,271.5C 297.5,271.5 298.5,271.5 299.5,271.5C 299.586,272.496 299.252,273.329 298.5,274C 299.5,274.333 300.5,274.667 301.5,275C 300.667,277.081 300.667,279.248 301.5,281.5C 291.804,266.452 282.471,251.119 273.5,235.5 Z"/></g>
<g><path style="opacity:0.999" fill="#dc483a" d="M 210.5,260.5 C 206.583,268.675 201.917,276.341 196.5,283.5C 196.771,281.179 196.104,279.179 194.5,277.5C 195.557,277.094 196.891,277.094 198.5,277.5C 198.5,275.833 198.5,274.167 198.5,272.5C 199.833,272.5 201.167,272.5 202.5,272.5C 202.579,271.07 202.246,269.736 201.5,268.5C 202.325,267.614 203.325,267.281 204.5,267.5C 204.5,266.5 204.5,265.5 204.5,264.5C 205.5,264.5 206.5,264.5 207.5,264.5C 207.439,262.408 206.439,260.908 204.5,260C 205,259.5 205.5,259 206,258.5C 207.11,260.037 208.61,260.703 210.5,260.5 Z"/></g>
<g><path style="opacity:1" fill="#e02e24" d="M 308.5,250.5 C 317.222,266.271 326.222,281.938 335.5,297.5C 333.521,296.188 331.855,294.521 330.5,292.5C 329.264,291.754 327.93,291.421 326.5,291.5C 326.663,289.143 326.497,286.81 326,284.5C 324.209,286.513 322.875,286.513 322,284.5C 320.667,285.167 319.667,286.167 319,287.5C 317.989,286.663 316.822,286.33 315.5,286.5C 315.5,284.167 315.5,281.833 315.5,279.5C 316.552,279.649 317.552,279.483 318.5,279C 318.662,275.226 317.996,271.393 316.5,267.5C 313.412,267.197 311.746,268.53 311.5,271.5C 312.978,271.238 314.311,271.571 315.5,272.5C 315.154,273.696 314.654,273.696 314,272.5C 311.202,274.591 308.035,275.924 304.5,276.5C 305.682,278.467 305.015,279.8 302.5,280.5C 304.39,281.424 305.89,282.757 307,284.5C 307.557,288.175 308.89,291.508 311,294.5C 312.852,290.923 315.518,289.923 319,291.5C 319.167,291.833 319.333,292.167 319.5,292.5C 317.242,293.799 314.908,294.799 312.5,295.5C 312.5,296.833 312.5,298.167 312.5,299.5C 313.873,299.343 315.207,299.51 316.5,300C 315.978,300.561 315.645,301.228 315.5,302C 316.609,304.047 317.276,306.213 317.5,308.5C 311.428,300.035 306.094,291.035 301.5,281.5C 300.667,279.248 300.667,277.081 301.5,275C 300.5,274.667 299.5,274.333 298.5,274C 299.252,273.329 299.586,272.496 299.5,271.5C 299.363,266.725 297.696,262.559 294.5,259C 296.134,258.506 297.801,258.34 299.5,258.5C 299.215,260.288 299.548,261.955 300.5,263.5C 301.167,263.167 301.833,262.833 302.5,262.5C 303.167,263.833 303.833,265.167 304.5,266.5C 305.308,264.577 305.808,262.577 306,260.5C 308.123,260.034 309.623,258.867 310.5,257C 308.987,255.121 308.321,252.954 308.5,250.5 Z"/></g>
<g><path style="opacity:1" fill="#dd3226" d="M 366.5,260.5 C 375.595,274.352 383.928,288.686 391.5,303.5C 390.5,303.5 389.5,303.5 388.5,303.5C 388.659,300.813 387.825,298.48 386,296.5C 385.781,297.938 385.281,299.271 384.5,300.5C 384.026,298.138 383.692,295.805 383.5,293.5C 381.974,295.658 380.474,295.325 379,292.5C 378.667,289.5 378.333,286.5 378,283.5C 374.257,284.729 370.424,285.729 366.5,286.5C 367.242,287.287 368.075,287.953 369,288.5C 369.558,293.122 370.891,297.455 373,301.5C 374.049,299.893 375.549,299.227 377.5,299.5C 377.5,300.5 377.5,301.5 377.5,302.5C 375.856,302.286 374.356,302.62 373,303.5C 372.333,305.833 372.333,308.167 373,310.5C 373.333,309.5 373.667,308.5 374,307.5C 374.333,307.833 374.667,308.167 375,308.5C 375,310.5 375,312.5 375,314.5C 377.393,318.725 379.56,323.058 381.5,327.5C 372.57,313.304 363.903,298.97 355.5,284.5C 356.5,284.5 357.5,284.5 358.5,284.5C 358.534,288.309 360.534,290.143 364.5,290C 361.532,292.178 361.865,293.344 365.5,293.5C 364.789,287.927 365.123,282.261 366.5,276.5C 367.281,277.729 367.781,279.062 368,280.5C 371.441,283.038 373.608,282.038 374.5,277.5C 373.436,275.041 372.102,272.708 370.5,270.5C 368.013,270.249 365.68,269.749 363.5,269C 365.927,266.748 366.927,263.914 366.5,260.5 Z"/></g>
<g><path style="opacity:1" fill="#d94a3b" d="M 173.5,280.5 C 173.167,281.833 172.833,283.167 172.5,284.5C 170.872,286.374 170.538,288.374 171.5,290.5C 170.369,291.604 169.535,291.271 169,289.5C 168.584,291.55 167.417,292.884 165.5,293.5C 167.4,288.701 170.067,284.368 173.5,280.5 Z"/></g>
<g><path style="opacity:0.994" fill="#d6493c" d="M 144.5,283.5 C 138.578,295.021 131.912,306.021 124.5,316.5C 124.337,314.143 124.503,311.81 125,309.5C 125.308,310.308 125.808,310.975 126.5,311.5C 128.662,308.511 129.662,305.177 129.5,301.5C 130.5,301.5 131.5,301.5 132.5,301.5C 135.078,296.073 137.911,290.74 141,285.5C 141.816,284.177 142.983,283.511 144.5,283.5 Z"/></g>
<g><path style="opacity:1" fill="#e5261e" d="M 335.5,297.5 C 335.5,299.5 335.5,301.5 335.5,303.5C 336.5,303.5 337.5,303.5 338.5,303.5C 338.449,305.57 339.115,307.403 340.5,309C 340.355,309.772 340.022,310.439 339.5,311C 340.766,311.309 341.933,311.809 343,312.5C 345.17,315.942 346.17,319.609 346,323.5C 345.308,324.025 344.808,324.692 344.5,325.5C 346.005,326.842 346.672,328.508 346.5,330.5C 344.712,330.215 343.045,330.548 341.5,331.5C 341.931,332.293 342.265,333.127 342.5,334C 341.586,335.406 340.92,336.906 340.5,338.5C 279.458,338.826 218.458,338.492 157.5,337.5C 156.222,337.218 155.222,336.551 154.5,335.5C 154.502,333.169 153.669,331.169 152,329.5C 151.502,326.183 151.335,322.85 151.5,319.5C 154.645,309.869 159.311,301.202 165.5,293.5C 167.417,292.884 168.584,291.55 169,289.5C 169.535,291.271 170.369,291.604 171.5,290.5C 170.538,288.374 170.872,286.374 172.5,284.5C 173.458,284.047 174.292,283.381 175,282.5C 176.177,284.176 177.677,285.509 179.5,286.5C 176.627,289.84 177.294,292.34 181.5,294C 180.36,295.973 179.027,297.807 177.5,299.5C 178,300.5 178.5,301.5 179,302.5C 180.012,300.136 181.345,298.802 183,298.5C 183.167,299.333 183.333,300.167 183.5,301C 181.74,305.352 179.574,309.518 177,313.5C 176.035,311.74 174.868,311.406 173.5,312.5C 174.213,314.776 174.713,317.109 175,319.5C 179.066,320.464 183.233,320.797 187.5,320.5C 187.5,319.5 187.5,318.5 187.5,317.5C 230.123,317.19 272.79,317.523 315.5,318.5C 317.819,317.936 320.153,317.436 322.5,317C 320.444,314.386 318.777,311.553 317.5,308.5C 317.276,306.213 316.609,304.047 315.5,302C 315.645,301.228 315.978,300.561 316.5,300C 315.207,299.51 313.873,299.343 312.5,299.5C 312.5,298.167 312.5,296.833 312.5,295.5C 314.908,294.799 317.242,293.799 319.5,292.5C 319.333,292.167 319.167,291.833 319,291.5C 315.518,289.923 312.852,290.923 311,294.5C 308.89,291.508 307.557,288.175 307,284.5C 305.89,282.757 304.39,281.424 302.5,280.5C 305.015,279.8 305.682,278.467 304.5,276.5C 308.035,275.924 311.202,274.591 314,272.5C 314.654,273.696 315.154,273.696 315.5,272.5C 314.311,271.571 312.978,271.238 311.5,271.5C 311.746,268.53 313.412,267.197 316.5,267.5C 317.996,271.393 318.662,275.226 318.5,279C 317.552,279.483 316.552,279.649 315.5,279.5C 315.5,281.833 315.5,284.167 315.5,286.5C 316.822,286.33 317.989,286.663 319,287.5C 319.667,286.167 320.667,285.167 322,284.5C 322.875,286.513 324.209,286.513 326,284.5C 326.497,286.81 326.663,289.143 326.5,291.5C 327.93,291.421 329.264,291.754 330.5,292.5C 331.855,294.521 333.521,296.188 335.5,297.5 Z"/></g>
<g><path style="opacity:0.459" fill="#d5665f" d="M 192.5,290.5 C 191.89,292.434 190.89,294.101 189.5,295.5C 189.259,292.966 190.259,291.3 192.5,290.5 Z"/></g>
<g><path style="opacity:0.894" fill="#db594c" d="M 391.5,303.5 C 394.225,305.995 396.225,308.995 397.5,312.5C 396.391,312.443 395.391,312.11 394.5,311.5C 392.539,309.202 391.539,306.535 391.5,303.5 Z"/></g>
<g><path style="opacity:1" fill="#e5251c" d="M 391.5,303.5 C 391.539,306.535 392.539,309.202 394.5,311.5C 394.816,314.256 395.816,316.756 397.5,319C 397.382,323.07 397.215,327.236 397,331.5C 396.167,332.5 395.333,333.5 394.5,334.5C 393.914,334.291 393.414,333.957 393,333.5C 392.689,334.742 393.189,335.742 394.5,336.5C 392.44,341.177 390.44,341.344 388.5,337C 387.713,334.901 387.38,332.734 387.5,330.5C 385.282,330.386 383.282,329.72 381.5,328.5C 381.5,328.167 381.5,327.833 381.5,327.5C 379.56,323.058 377.393,318.725 375,314.5C 375,312.5 375,310.5 375,308.5C 374.667,308.167 374.333,307.833 374,307.5C 373.667,308.5 373.333,309.5 373,310.5C 372.333,308.167 372.333,305.833 373,303.5C 374.356,302.62 375.856,302.286 377.5,302.5C 377.5,301.5 377.5,300.5 377.5,299.5C 375.549,299.227 374.049,299.893 373,301.5C 370.891,297.455 369.558,293.122 369,288.5C 368.075,287.953 367.242,287.287 366.5,286.5C 370.424,285.729 374.257,284.729 378,283.5C 378.333,286.5 378.667,289.5 379,292.5C 380.474,295.325 381.974,295.658 383.5,293.5C 383.692,295.805 384.026,298.138 384.5,300.5C 385.281,299.271 385.781,297.938 386,296.5C 387.825,298.48 388.659,300.813 388.5,303.5C 389.5,303.5 390.5,303.5 391.5,303.5 Z"/></g>
<g><path style="opacity:1" fill="#dc352a" d="M 394.5,311.5 C 395.391,312.11 396.391,312.443 397.5,312.5C 406.006,326.847 414.506,341.181 423,355.5C 425.152,362.171 424.652,368.505 421.5,374.5C 422.496,369.537 422.663,364.537 422,359.5C 421.07,357.448 419.57,355.948 417.5,355C 419.288,351.594 418.455,349.094 415,347.5C 414.431,343.639 413.598,343.639 412.5,347.5C 410.06,345.891 408.893,343.557 409,340.5C 407.535,341.369 406.369,340.869 405.5,339C 405.8,336.976 406.633,336.476 408,337.5C 408.738,334.788 408.071,332.455 406,330.5C 405.667,331.5 405.333,332.5 405,333.5C 403.228,332.01 403.061,330.343 404.5,328.5C 403.988,325.649 402.321,324.316 399.5,324.5C 399.577,328.215 399.244,331.881 398.5,335.5C 399.5,335.5 400.5,335.5 401.5,335.5C 401.5,336.5 401.5,337.5 401.5,338.5C 399.023,338.051 397.023,338.717 395.5,340.5C 396.711,341.72 396.711,342.887 395.5,344C 397.64,346.173 397.974,348.673 396.5,351.5C 398.711,351.967 400.711,352.967 402.5,354.5C 401.147,355.524 400.48,356.857 400.5,358.5C 399.833,358.5 399.167,358.5 398.5,358.5C 392.853,348.546 387.187,338.546 381.5,328.5C 383.282,329.72 385.282,330.386 387.5,330.5C 387.38,332.734 387.713,334.901 388.5,337C 390.44,341.344 392.44,341.177 394.5,336.5C 393.189,335.742 392.689,334.742 393,333.5C 393.414,333.957 393.914,334.291 394.5,334.5C 395.333,333.5 396.167,332.5 397,331.5C 397.215,327.236 397.382,323.07 397.5,319C 395.816,316.756 394.816,314.256 394.5,311.5 Z"/></g>
<g><path style="opacity:0.91" fill="#dc685b" d="M 124.5,316.5 C 123.696,319.442 122.362,322.109 120.5,324.5C 120.312,320.948 121.645,318.281 124.5,316.5 Z"/></g>
<g><path style="opacity:0.573" fill="#c95f59" d="M 151.5,319.5 C 151.335,322.85 151.502,326.183 152,329.5C 153.669,331.169 154.502,333.169 154.5,335.5C 150.521,330.734 149.521,325.401 151.5,319.5 Z"/></g>
<g><path style="opacity:1" fill="#d5382d" d="M 335.5,297.5 C 341.976,305.448 346.642,314.448 349.5,324.5C 348.99,330.871 345.99,335.538 340.5,338.5C 340.92,336.906 341.586,335.406 342.5,334C 342.265,333.127 341.931,332.293 341.5,331.5C 343.045,330.548 344.712,330.215 346.5,330.5C 346.672,328.508 346.005,326.842 344.5,325.5C 344.808,324.692 345.308,324.025 346,323.5C 346.17,319.609 345.17,315.942 343,312.5C 341.933,311.809 340.766,311.309 339.5,311C 340.022,310.439 340.355,309.772 340.5,309C 339.115,307.403 338.449,305.57 338.5,303.5C 337.5,303.5 336.5,303.5 335.5,303.5C 335.5,301.5 335.5,299.5 335.5,297.5 Z"/></g>
<g><path style="opacity:1" fill="#da483c" d="M 120.5,324.5 C 117.89,329.767 114.89,334.767 111.5,339.5C 112.045,336.187 112.545,332.854 113,329.5C 113.928,327.665 115.094,327.332 116.5,328.5C 117.409,326.625 118.743,325.292 120.5,324.5 Z"/></g>
<g><path style="opacity:0.43" fill="#d04d41" d="M 157.5,337.5 C 218.458,338.492 279.458,338.826 340.5,338.5C 338.107,339.21 335.607,339.877 333,340.5C 277.895,339.344 222.562,339.344 167,340.5C 164.26,339.718 161.426,339.218 158.5,339C 157.944,338.617 157.611,338.117 157.5,337.5 Z"/></g>
<g><path style="opacity:1" fill="#dd372d" d="M 102.5,312.5 C 100.551,317.473 98.5507,322.473 96.5,327.5C 97.1667,328.5 97.8333,329.5 98.5,330.5C 98.1667,331.167 97.8333,331.833 97.5,332.5C 96.0295,331.619 95.1962,330.286 95,328.5C 93.6369,329.893 92.8036,331.559 92.5,333.5C 94.2215,338.663 92.2215,340.997 86.5,340.5C 86.3433,341.873 86.51,343.207 87,344.5C 88.016,345.634 88.6827,345.301 89,343.5C 89.6667,344.833 89.6667,346.167 89,347.5C 87.4877,349.957 86.1544,349.957 85,347.5C 82.9385,349.406 80.7718,351.073 78.5,352.5C 86.1554,338.871 94.1554,325.537 102.5,312.5 Z"/></g>
<g><path style="opacity:0.302" fill="#ce5b56" d="M 398.5,358.5 C 399.167,358.5 399.833,358.5 400.5,358.5C 402.604,360.583 402.938,362.917 401.5,365.5C 299.828,366.164 198.495,365.498 97.5,363.5C 198.43,364.664 299.43,364.831 400.5,364C 400.833,363.667 401.167,363.333 401.5,363C 400.614,361.385 399.614,359.885 398.5,358.5 Z"/></g>
<g><path style="opacity:1" fill="#e5251d" d="M 421.5,374.5 C 420.288,373.77 419.288,372.77 418.5,371.5C 418.76,374.214 418.093,376.881 416.5,379.5C 415.022,379.238 413.689,379.571 412.5,380.5C 411.632,382.397 410.299,383.73 408.5,384.5C 302.999,384.833 197.665,384.499 92.5,383.5C 92.3573,381.738 92.6906,380.071 93.5,378.5C 92.5,377.167 91.5,375.833 90.5,374.5C 90.8333,373.5 91.5,372.833 92.5,372.5C 93.1667,373.833 93.8333,375.167 94.5,376.5C 95.7199,376.113 96.3865,375.28 96.5,374C 95.4911,372.832 94.4911,371.665 93.5,370.5C 95.0454,368.56 97.0454,367.394 99.5,367C 200.334,366.833 301.001,366.333 401.5,365.5C 402.938,362.917 402.604,360.583 400.5,358.5C 400.48,356.857 401.147,355.524 402.5,354.5C 400.711,352.967 398.711,351.967 396.5,351.5C 397.974,348.673 397.64,346.173 395.5,344C 396.711,342.887 396.711,341.72 395.5,340.5C 397.023,338.717 399.023,338.051 401.5,338.5C 401.5,337.5 401.5,336.5 401.5,335.5C 400.5,335.5 399.5,335.5 398.5,335.5C 399.244,331.881 399.577,328.215 399.5,324.5C 402.321,324.316 403.988,325.649 404.5,328.5C 403.061,330.343 403.228,332.01 405,333.5C 405.333,332.5 405.667,331.5 406,330.5C 408.071,332.455 408.738,334.788 408,337.5C 406.633,336.476 405.8,336.976 405.5,339C 406.369,340.869 407.535,341.369 409,340.5C 408.893,343.557 410.06,345.891 412.5,347.5C 413.598,343.639 414.431,343.639 415,347.5C 418.455,349.094 419.288,351.594 417.5,355C 419.57,355.948 421.07,357.448 422,359.5C 422.663,364.537 422.496,369.537 421.5,374.5 Z"/></g>
<g><path style="opacity:1" fill="#d94d41" d="M 421.5,374.5 C 418.885,380.12 414.552,383.453 408.5,384.5C 410.299,383.73 411.632,382.397 412.5,380.5C 413.689,379.571 415.022,379.238 416.5,379.5C 418.093,376.881 418.76,374.214 418.5,371.5C 419.288,372.77 420.288,373.77 421.5,374.5 Z"/></g>
<g><path style="opacity:0.718" fill="#d96959" d="M 77.5,373.5 C 78.5,373.5 79.5,373.5 80.5,373.5C 80.9037,377.739 83.2371,380.239 87.5,381C 87.1667,381.333 86.8333,381.667 86.5,382C 88.5856,382.315 90.5856,382.815 92.5,383.5C 197.665,384.499 302.999,384.833 408.5,384.5C 407.737,385.268 406.737,385.768 405.5,386C 301.833,386.667 198.167,386.667 94.5,386C 86.2284,385.213 80.5618,381.046 77.5,373.5 Z"/></g>
</svg>
