<?xml version="1.0" encoding="UTF-8"?>
<!DOCTYPE svg PUBLIC "-//W3C//DTD SVG 1.1//EN" "http://www.w3.org/Graphics/SVG/1.1/DTD/svg11.dtd">
<svg xmlns="http://www.w3.org/2000/svg" version="1.1" width="632px" height="395px" style="shape-rendering:geometricPrecision; text-rendering:geometricPrecision; image-rendering:optimizeQuality; fill-rule:evenodd; clip-rule:evenodd" xmlns:xlink="http://www.w3.org/1999/xlink">
<g><path style="opacity:1" fill="#ea1d24" d="M 327.5,114.5 C 329.379,115.341 331.379,115.675 333.5,115.5C 339.471,119.49 345.471,123.49 351.5,127.5C 352.244,128.991 352.91,130.491 353.5,132C 356.461,133.265 359.461,134.431 362.5,135.5C 363.386,136.325 363.719,137.325 363.5,138.5C 365.06,140.129 364.727,141.296 362.5,142C 370.772,144.867 370.438,146.034 361.5,145.5C 361.509,143.692 361.009,142.025 360,140.5C 357.189,141.351 354.022,141.518 350.5,141C 350.816,138.039 351.15,134.872 351.5,131.5C 346.275,131.814 341.275,131.147 336.5,129.5C 336.5,130.833 336.5,132.167 336.5,133.5C 340.025,133.346 342.859,134.679 345,137.5C 345.432,138.6 344.932,139.267 343.5,139.5C 342.151,139.154 340.817,138.821 339.5,138.5C 337.401,137.388 335.067,136.721 332.5,136.5C 332.772,131.304 330.772,129.804 326.5,132C 295.167,132.333 263.833,132.667 232.5,133C 229.545,134.448 227.545,136.615 226.5,139.5C 224.089,139.863 222.589,138.863 222,136.5C 221.713,134.109 221.213,131.776 220.5,129.5C 223.214,126.787 222.547,125.954 218.5,127C 217.495,128.751 216.828,128.751 216.5,127C 216.903,125.527 217.57,124.194 218.5,123C 220.421,122.64 222.088,121.806 223.5,120.5C 224.086,120.709 224.586,121.043 225,121.5C 226.423,119.496 228.256,117.996 230.5,117C 260.139,117.793 289.806,117.626 319.5,116.5C 322.306,115.832 324.972,115.166 327.5,114.5 Z"/></g>
<g><path style="opacity:1" fill="#e3272a" d="M 327.5,114.5 C 324.972,115.166 322.306,115.832 319.5,116.5C 289.806,117.626 260.139,117.793 230.5,117C 228.256,117.996 226.423,119.496 225,121.5C 224.586,121.043 224.086,120.709 223.5,120.5C 222.088,121.806 220.421,122.64 218.5,123C 217.57,124.194 216.903,125.527 216.5,127C 216.828,128.751 217.495,128.751 218.5,127C 222.547,125.954 223.214,126.787 220.5,129.5C 221.213,131.776 221.713,134.109 222,136.5C 222.589,138.863 224.089,139.863 226.5,139.5C 227.545,136.615 229.545,134.448 232.5,133C 263.833,132.667 295.167,132.333 326.5,132C 330.772,129.804 332.772,131.304 332.5,136.5C 335.067,136.721 337.401,137.388 339.5,138.5C 342.736,141.797 346.403,144.63 350.5,147C 351.252,147.671 351.586,148.504 351.5,149.5C 343.552,145.188 335.886,140.355 328.5,135C 297.167,134.333 265.833,134.333 234.5,135C 227.06,140.375 220.06,146.209 213.5,152.5C 213.981,149.545 215.481,147.211 218,145.5C 218.535,140.968 216.368,138.968 211.5,139.5C 208.57,139.154 206.237,140.154 204.5,142.5C 202.929,141.691 201.262,141.357 199.5,141.5C 197.748,146.712 194.081,148.878 188.5,148C 186.547,145.047 185.047,141.881 184,138.5C 180.604,134.721 177.437,130.721 174.5,126.5C 172.263,128.817 169.93,128.983 167.5,127C 170.941,125.682 172.275,123.182 171.5,119.5C 172.794,120.29 173.961,121.29 175,122.5C 179.971,130.303 185.138,137.97 190.5,145.5C 198.649,138.519 206.649,131.352 214.5,124C 218.156,120.837 222.156,118.171 226.5,116C 260.142,114.573 293.809,114.073 327.5,114.5 Z"/></g>
<g><path style="opacity:0.988" fill="#e43538" d="M 333.5,115.5 C 337.896,117.359 342.229,119.526 346.5,122C 356.233,128.855 365.9,135.689 375.5,142.5C 371.25,141.698 367.25,140.364 363.5,138.5C 363.719,137.325 363.386,136.325 362.5,135.5C 359.461,134.431 356.461,133.265 353.5,132C 352.91,130.491 352.244,128.991 351.5,127.5C 345.471,123.49 339.471,119.49 333.5,115.5 Z"/></g>
<g><path style="opacity:0.439" fill="#e63638" d="M 171.5,119.5 C 170.118,118.199 168.452,117.366 166.5,117C 158.173,116.5 149.84,116.334 141.5,116.5C 141.5,117.5 141.5,118.5 141.5,119.5C 138.042,119.119 134.708,118.619 131.5,118C 128.592,122.465 128.925,126.632 132.5,130.5C 141.148,131.332 149.814,131.832 158.5,132C 160.333,134.158 162.166,136.324 164,138.5C 164.765,140.066 164.598,141.399 163.5,142.5C 161.879,139.433 159.879,136.599 157.5,134C 148.732,133.942 140.065,133.275 131.5,132C 126.617,126.942 126.284,121.609 130.5,116C 131.833,115.333 133.167,114.667 134.5,114C 144.5,113.333 154.5,113.333 164.5,114C 166.087,114.862 167.754,115.529 169.5,116C 170.823,116.816 171.489,117.983 171.5,119.5 Z"/></g>
<g><path style="opacity:0.999" fill="#eb1f25" d="M 171.5,119.5 C 172.275,123.182 170.941,125.682 167.5,127C 169.93,128.983 172.263,128.817 174.5,126.5C 177.437,130.721 180.604,134.721 184,138.5C 185.047,141.881 186.547,145.047 188.5,148C 194.081,148.878 197.748,146.712 199.5,141.5C 201.262,141.357 202.929,141.691 204.5,142.5C 206.237,140.154 208.57,139.154 211.5,139.5C 216.368,138.968 218.535,140.968 218,145.5C 215.481,147.211 213.981,149.545 213.5,152.5C 205.969,161.575 197.303,169.242 187.5,175.5C 182.397,176.121 177.397,177.121 172.5,178.5C 172.5,176.833 172.5,175.167 172.5,173.5C 168.486,173.666 164.486,173.499 160.5,173C 159.663,171.989 159.33,170.822 159.5,169.5C 162.579,169.26 165.579,169.593 168.5,170.5C 169.5,170 170.5,169.5 171.5,169C 167.539,166.967 163.539,165.8 159.5,165.5C 159.5,164.5 159.5,163.5 159.5,162.5C 163.119,161.82 166.786,161.32 170.5,161C 172.002,160.417 173.335,159.584 174.5,158.5C 171.304,152.753 167.638,147.419 163.5,142.5C 164.598,141.399 164.765,140.066 164,138.5C 162.166,136.324 160.333,134.158 158.5,132C 149.814,131.832 141.148,131.332 132.5,130.5C 128.925,126.632 128.592,122.465 131.5,118C 134.708,118.619 138.042,119.119 141.5,119.5C 141.5,118.5 141.5,117.5 141.5,116.5C 149.84,116.334 158.173,116.5 166.5,117C 168.452,117.366 170.118,118.199 171.5,119.5 Z"/></g>
<g><path style="opacity:1" fill="#ea2227" d="M 363.5,138.5 C 367.25,140.364 371.25,141.698 375.5,142.5C 387.558,149.72 399.225,157.553 410.5,166C 429.118,169.624 447.785,172.957 466.5,176C 480.144,180.168 491.477,187.668 500.5,198.5C 498.983,198.489 497.816,197.823 497,196.5C 495.771,198.947 494.271,199.113 492.5,197C 491.399,193.966 489.899,191.133 488,188.5C 485.395,186.308 482.562,185.975 479.5,187.5C 477.761,186.6 475.928,185.933 474,185.5C 470.571,186.732 467.071,187.732 463.5,188.5C 462.115,189.551 461.115,190.884 460.5,192.5C 465.251,194.382 469.918,196.548 474.5,199C 476.372,201.944 479.039,203.111 482.5,202.5C 483.249,206.78 485.582,209.78 489.5,211.5C 491.391,213.849 491.724,216.515 490.5,219.5C 491.767,222.272 491.767,224.939 490.5,227.5C 488.192,211.352 479.192,200.852 463.5,196C 443.82,192.399 424.154,188.732 404.5,185C 386.111,174.088 368.445,162.254 351.5,149.5C 351.586,148.504 351.252,147.671 350.5,147C 346.403,144.63 342.736,141.797 339.5,138.5C 340.817,138.821 342.151,139.154 343.5,139.5C 344.932,139.267 345.432,138.6 345,137.5C 342.859,134.679 340.025,133.346 336.5,133.5C 336.5,132.167 336.5,130.833 336.5,129.5C 341.275,131.147 346.275,131.814 351.5,131.5C 351.15,134.872 350.816,138.039 350.5,141C 354.022,141.518 357.189,141.351 360,140.5C 361.009,142.025 361.509,143.692 361.5,145.5C 370.438,146.034 370.772,144.867 362.5,142C 364.727,141.296 365.06,140.129 363.5,138.5 Z"/></g>
<g><path style="opacity:1" fill="#ea2126" d="M 500.5,198.5 C 511.795,212.822 513.295,228.155 505,244.5C 502.894,247.118 500.394,249.118 497.5,250.5C 496.086,248.402 496.752,247.402 499.5,247.5C 499.104,244.956 499.771,242.789 501.5,241C 499.65,241.595 497.65,242.095 495.5,242.5C 495.256,246.789 493.589,247.456 490.5,244.5C 494.821,241.52 497.821,237.52 499.5,232.5C 498.585,231.672 497.919,230.672 497.5,229.5C 499.007,225.54 498.507,221.873 496,218.5C 494.806,220.623 494.14,222.957 494,225.5C 493.667,223.167 493.333,220.833 493,218.5C 492.329,219.252 491.496,219.586 490.5,219.5C 491.724,216.515 491.391,213.849 489.5,211.5C 485.582,209.78 483.249,206.78 482.5,202.5C 479.039,203.111 476.372,201.944 474.5,199C 469.918,196.548 465.251,194.382 460.5,192.5C 461.115,190.884 462.115,189.551 463.5,188.5C 467.071,187.732 470.571,186.732 474,185.5C 475.928,185.933 477.761,186.6 479.5,187.5C 482.562,185.975 485.395,186.308 488,188.5C 489.899,191.133 491.399,193.966 492.5,197C 494.271,199.113 495.771,198.947 497,196.5C 497.816,197.823 498.983,198.489 500.5,198.5 Z"/></g>
<g><path style="opacity:1" fill="#ec1e24" d="M 159.5,165.5 C 163.539,165.8 167.539,166.967 171.5,169C 170.5,169.5 169.5,170 168.5,170.5C 165.579,169.593 162.579,169.26 159.5,169.5C 159.33,170.822 159.663,171.989 160.5,173C 164.486,173.499 168.486,173.666 172.5,173.5C 172.5,175.167 172.5,176.833 172.5,178.5C 165.058,180.034 157.391,180.868 149.5,181C 148,181.833 146.833,183 146,184.5C 145.59,195.026 144.423,205.36 142.5,215.5C 141.527,216.791 140.527,216.791 139.5,215.5C 138.167,217.167 136.833,218.833 135.5,220.5C 138.466,226.696 138.133,232.696 134.5,238.5C 132.591,239.348 130.591,239.682 128.5,239.5C 126.87,237.974 126.037,235.974 126,233.5C 125.333,227.5 125.333,221.5 126,215.5C 129.042,202.385 131.208,189.051 132.5,175.5C 133.5,175.5 134.5,175.5 135.5,175.5C 135.899,178.988 136.566,179.154 137.5,176C 134.627,172.273 135.294,169.273 139.5,167C 146.156,166.289 152.822,165.789 159.5,165.5 Z"/></g>
<g><path style="opacity:0.853" fill="#e43638" d="M 159.5,162.5 C 159.5,163.5 159.5,164.5 159.5,165.5C 152.822,165.789 146.156,166.289 139.5,167C 135.294,169.273 134.627,172.273 137.5,176C 136.566,179.154 135.899,178.988 135.5,175.5C 134.5,175.5 133.5,175.5 132.5,175.5C 131.208,189.051 129.042,202.385 126,215.5C 125.333,221.5 125.333,227.5 126,233.5C 126.037,235.974 126.87,237.974 128.5,239.5C 128.5,241.167 128.5,242.833 128.5,244.5C 126.864,243.251 125.697,241.584 125,239.5C 123.91,235.384 123.077,231.218 122.5,227C 124.936,209.427 127.769,191.927 131,174.5C 133.275,167.609 138.109,164.109 145.5,164C 150.184,163.565 154.851,163.065 159.5,162.5 Z"/></g>
<g><path style="opacity:0.798" fill="#e43133" d="M 187.5,175.5 C 184.375,177.225 181.042,178.725 177.5,180C 168.469,181.078 159.469,182.244 150.5,183.5C 148.119,194.74 146.119,206.073 144.5,217.5C 143.5,217.167 142.833,216.5 142.5,215.5C 144.423,205.36 145.59,195.026 146,184.5C 146.833,183 148,181.833 149.5,181C 157.391,180.868 165.058,180.034 172.5,178.5C 177.397,177.121 182.397,176.121 187.5,175.5 Z"/></g>
<g><path style="opacity:1" fill="#ed1d24" d="M 447.5,224.5 C 441.269,225.127 434.935,225.961 428.5,227C 428.957,227.414 429.291,227.914 429.5,228.5C 435.727,228.941 441.727,230.275 447.5,232.5C 446.065,234.374 444.898,236.374 444,238.5C 438.859,235.233 433.192,233.566 427,233.5C 421.989,233.762 417.156,234.762 412.5,236.5C 412.167,238.5 411.833,240.5 411.5,242.5C 410.178,242.33 409.011,242.663 408,243.5C 406.292,248.369 405.125,253.369 404.5,258.5C 403.431,253.844 403.431,249.178 404.5,244.5C 403.5,244.5 402.5,244.5 401.5,244.5C 401.946,248.877 401.279,253.044 399.5,257C 403.585,261.486 405.918,266.486 406.5,272C 410.103,278.982 415.436,281.149 422.5,278.5C 424.208,278.703 425.541,279.536 426.5,281C 422.258,280.997 418.258,281.83 414.5,283.5C 413.614,282.675 413.281,281.675 413.5,280.5C 411.856,280.714 410.356,280.38 409,279.5C 408.8,281.32 407.966,282.653 406.5,283.5C 401.124,281.318 401.458,279.818 407.5,279C 405.587,277.209 403.92,275.209 402.5,273C 403.357,272.311 404.023,271.478 404.5,270.5C 402.415,268.148 400.915,265.482 400,262.5C 399.667,264.5 399.333,266.5 399,268.5C 398.012,265.576 397.346,262.576 397,259.5C 396.333,258.167 395.667,258.167 395,259.5C 392.948,257.48 393.115,255.813 395.5,254.5C 396.72,255.711 397.887,255.711 399,254.5C 399.339,252.166 399.172,249.832 398.5,247.5C 399.804,244.987 400.804,242.32 401.5,239.5C 398.656,239.657 396.989,238.324 396.5,235.5C 396.954,233.259 396.954,231.259 396.5,229.5C 396.833,228.5 397.5,227.833 398.5,227.5C 400.5,227.5 402.5,227.5 404.5,227.5C 404.297,225.61 404.963,224.11 406.5,223C 409.588,221.125 412.921,219.792 416.5,219C 423.833,218.333 431.167,218.333 438.5,219C 441.692,220.728 444.692,222.561 447.5,224.5 Z"/></g>
<g><path style="opacity:0.835" fill="#e33639" d="M 457.5,230.5 C 454.795,229.147 452.462,227.313 450.5,225C 449.552,224.517 448.552,224.351 447.5,224.5C 444.692,222.561 441.692,220.728 438.5,219C 431.167,218.333 423.833,218.333 416.5,219C 412.921,219.792 409.588,221.125 406.5,223C 404.963,224.11 404.297,225.61 404.5,227.5C 402.5,227.5 400.5,227.5 398.5,227.5C 411.805,214.933 427.138,212.1 444.5,219C 447.167,220.667 449.833,222.333 452.5,224C 454.79,225.777 456.457,227.944 457.5,230.5 Z"/></g>
<g><path style="opacity:0.997" fill="#eb1e24" d="M 142.5,215.5 C 142.833,216.5 143.5,217.167 144.5,217.5C 143.389,222.416 143.222,227.416 144,232.5C 145.255,233.211 146.421,234.044 147.5,235C 154.777,236.467 162.111,236.801 169.5,236C 170.381,235.292 171.047,234.458 171.5,233.5C 173.682,232.7 175.349,231.2 176.5,229C 178.5,228.667 180.5,228.333 182.5,228C 186.436,221.44 192.102,218.94 199.5,220.5C 196.696,221.105 194.029,221.938 191.5,223C 197.876,224.286 197.542,225.286 190.5,226C 191.685,227.353 193.019,228.52 194.5,229.5C 193.038,229.065 192.038,229.898 191.5,232C 192.167,233 192.833,234 193.5,235C 189.762,237.969 186.596,241.469 184,245.5C 183.333,251.167 183.333,256.833 184,262.5C 186.675,265.84 189.341,269.173 192,272.5C 193.205,273.071 194.372,273.738 195.5,274.5C 201.122,275.089 206.622,276.089 212,277.5C 212.333,277.167 212.667,276.833 213,276.5C 212.732,279.596 210.899,281.263 207.5,281.5C 207.5,282.5 207.5,283.5 207.5,284.5C 200.743,283.232 193.91,282.232 187,281.5C 185.715,281.95 184.548,282.617 183.5,283.5C 179.244,281.75 176.577,278.75 175.5,274.5C 174.5,274.5 173.5,274.5 172.5,274.5C 172.719,273.325 172.386,272.325 171.5,271.5C 170.893,271.624 170.56,271.957 170.5,272.5C 167.252,267.448 165.585,261.781 165.5,255.5C 158.159,255.666 150.826,255.5 143.5,255C 136.989,253.431 131.989,249.931 128.5,244.5C 128.5,242.833 128.5,241.167 128.5,239.5C 130.591,239.682 132.591,239.348 134.5,238.5C 138.133,232.696 138.466,226.696 135.5,220.5C 136.833,218.833 138.167,217.167 139.5,215.5C 140.527,216.791 141.527,216.791 142.5,215.5 Z"/></g>
<g><path style="opacity:0.999" fill="#ea1d24" d="M 238.5,237.5 C 238.833,237.5 239.167,237.5 239.5,237.5C 247.999,238.407 256.666,239.074 265.5,239.5C 265.666,244.179 265.499,248.845 265,253.5C 263.927,252.72 262.76,252.887 261.5,254C 255.167,254.333 248.833,254.667 242.5,255C 241.556,257.719 241.223,260.552 241.5,263.5C 241.717,266.421 241.051,269.087 239.5,271.5C 238.167,271.5 236.833,271.5 235.5,271.5C 235.183,275.165 233.183,276.665 229.5,276C 230.833,275.333 230.833,274.667 229.5,274C 228.552,273.517 227.552,273.351 226.5,273.5C 226.649,272.448 226.483,271.448 226,270.5C 225,270.833 224,271.167 223,271.5C 222.598,270.128 222.098,268.795 221.5,267.5C 223.404,264.145 223.737,260.812 222.5,257.5C 223.833,255.167 223.833,252.833 222.5,250.5C 223.797,248.307 223.797,245.973 222.5,243.5C 221.081,241.664 219.914,239.664 219,237.5C 217.795,236.929 216.628,236.262 215.5,235.5C 215.833,235.167 216.167,234.833 216.5,234.5C 219.603,234.077 222.436,233.077 225,231.5C 226.779,234.276 227.779,233.943 228,230.5C 229.816,232.441 231.816,233.108 234,232.5C 233.872,234.445 234.038,236.278 234.5,238C 235.928,238.579 237.262,238.412 238.5,237.5 Z"/></g>
<g><path style="opacity:0.469" fill="#c62124" d="M 396.5,229.5 C 396.954,231.259 396.954,233.259 396.5,235.5C 395.244,235.461 394.244,235.961 393.5,237C 342.168,237.5 290.834,237.667 239.5,237.5C 239.167,237.5 238.833,237.5 238.5,237.5C 238.5,236.833 238.833,236.5 239.5,236.5C 290.501,236.667 341.501,236.5 392.5,236C 393.719,233.722 395.052,231.555 396.5,229.5 Z"/></g>
<g><path style="opacity:0.998" fill="#e71f25" d="M 396.5,235.5 C 396.989,238.324 398.656,239.657 401.5,239.5C 400.804,242.32 399.804,244.987 398.5,247.5C 399.172,249.832 399.339,252.166 399,254.5C 397.887,255.711 396.72,255.711 395.5,254.5C 393.115,255.813 392.948,257.48 395,259.5C 395.667,258.167 396.333,258.167 397,259.5C 397.346,262.576 398.012,265.576 399,268.5C 399.333,266.5 399.667,264.5 400,262.5C 400.915,265.482 402.415,268.148 404.5,270.5C 404.023,271.478 403.357,272.311 402.5,273C 403.92,275.209 405.587,277.209 407.5,279C 401.458,279.818 401.124,281.318 406.5,283.5C 406.953,284.458 407.619,285.292 408.5,286C 412.531,286.481 416.531,287.147 420.5,288C 419.366,289.016 419.699,289.683 421.5,290C 427.62,290.823 433.62,290.323 439.5,288.5C 440.281,287.271 440.781,285.938 441,284.5C 441.333,284.833 441.667,285.167 442,285.5C 444.851,283.655 448.018,282.489 451.5,282C 453.677,280.814 454.677,278.981 454.5,276.5C 455.5,276.5 456.5,276.5 457.5,276.5C 455.841,273.466 456.341,270.8 459,268.5C 459.494,266.866 459.66,265.199 459.5,263.5C 457.167,263.5 454.833,263.5 452.5,263.5C 452.5,262.167 452.5,260.833 452.5,259.5C 454.668,258.821 456.668,257.821 458.5,256.5C 461.411,258.334 463.744,257.834 465.5,255C 474.999,254.729 484.332,253.896 493.5,252.5C 491.852,253.927 489.852,254.76 487.5,255C 480.508,255.5 473.508,255.666 466.5,255.5C 463.617,278.543 450.451,290.877 427,292.5C 403.496,291.161 390.663,278.828 388.5,255.5C 340.167,255.5 291.833,255.5 243.5,255.5C 243.435,258.428 242.768,261.095 241.5,263.5C 241.223,260.552 241.556,257.719 242.5,255C 248.833,254.667 255.167,254.333 261.5,254C 262.76,252.887 263.927,252.72 265,253.5C 265.499,248.845 265.666,244.179 265.5,239.5C 256.666,239.074 247.999,238.407 239.5,237.5C 290.834,237.667 342.168,237.5 393.5,237C 394.244,235.961 395.244,235.461 396.5,235.5 Z"/></g>
<g><path style="opacity:0.998" fill="#eb1f25" d="M 497.5,250.5 C 496.486,251.674 495.153,252.34 493.5,252.5C 484.332,253.896 474.999,254.729 465.5,255C 463.744,257.834 461.411,258.334 458.5,256.5C 456.668,257.821 454.668,258.821 452.5,259.5C 452.5,260.833 452.5,262.167 452.5,263.5C 454.833,263.5 457.167,263.5 459.5,263.5C 459.66,265.199 459.494,266.866 459,268.5C 456.341,270.8 455.841,273.466 457.5,276.5C 456.5,276.5 455.5,276.5 454.5,276.5C 454.677,278.981 453.677,280.814 451.5,282C 448.018,282.489 444.851,283.655 442,285.5C 441.667,285.167 441.333,284.833 441,284.5C 440.781,285.938 440.281,287.271 439.5,288.5C 433.62,290.323 427.62,290.823 421.5,290C 419.699,289.683 419.366,289.016 420.5,288C 416.531,287.147 412.531,286.481 408.5,286C 407.619,285.292 406.953,284.458 406.5,283.5C 407.966,282.653 408.8,281.32 409,279.5C 410.356,280.38 411.856,280.714 413.5,280.5C 413.281,281.675 413.614,282.675 414.5,283.5C 418.258,281.83 422.258,280.997 426.5,281C 425.541,279.536 424.208,278.703 422.5,278.5C 415.436,281.149 410.103,278.982 406.5,272C 405.918,266.486 403.585,261.486 399.5,257C 401.279,253.044 401.946,248.877 401.5,244.5C 402.5,244.5 403.5,244.5 404.5,244.5C 403.431,249.178 403.431,253.844 404.5,258.5C 405.125,253.369 406.292,248.369 408,243.5C 409.011,242.663 410.178,242.33 411.5,242.5C 411.833,240.5 412.167,238.5 412.5,236.5C 417.156,234.762 421.989,233.762 427,233.5C 433.192,233.566 438.859,235.233 444,238.5C 444.898,236.374 446.065,234.374 447.5,232.5C 441.727,230.275 435.727,228.941 429.5,228.5C 429.291,227.914 428.957,227.414 428.5,227C 434.935,225.961 441.269,225.127 447.5,224.5C 448.552,224.351 449.552,224.517 450.5,225C 452.462,227.313 454.795,229.147 457.5,230.5C 459.033,232.355 460.7,234.188 462.5,236C 468.833,236.667 475.167,236.667 481.5,236C 486.317,235.015 489.317,232.182 490.5,227.5C 491.767,224.939 491.767,222.272 490.5,219.5C 491.496,219.586 492.329,219.252 493,218.5C 493.333,220.833 493.667,223.167 494,225.5C 494.14,222.957 494.806,220.623 496,218.5C 498.507,221.873 499.007,225.54 497.5,229.5C 497.919,230.672 498.585,231.672 499.5,232.5C 497.821,237.52 494.821,241.52 490.5,244.5C 493.589,247.456 495.256,246.789 495.5,242.5C 497.65,242.095 499.65,241.595 501.5,241C 499.771,242.789 499.104,244.956 499.5,247.5C 496.752,247.402 496.086,248.402 497.5,250.5 Z M 411.5,242.5 C 418.567,235.572 426.9,233.739 436.5,237C 445.953,244.341 448.12,253.508 443,264.5C 434.467,273.7 424.967,274.866 414.5,268C 408.788,262.331 406.955,255.497 409,247.5C 410.094,245.922 410.928,244.255 411.5,242.5 Z"/></g>
<g><path style="opacity:1" fill="#e82528" d="M 239.5,236.5 C 238.833,236.5 238.5,236.833 238.5,237.5C 237.262,238.412 235.928,238.579 234.5,238C 234.038,236.278 233.872,234.445 234,232.5C 231.816,233.108 229.816,232.441 228,230.5C 227.779,233.943 226.779,234.276 225,231.5C 222.436,233.077 219.603,234.077 216.5,234.5C 216.167,234.833 215.833,235.167 215.5,235.5C 216.628,236.262 217.795,236.929 219,237.5C 219.914,239.664 221.081,241.664 222.5,243.5C 223.797,245.973 223.797,248.307 222.5,250.5C 220.507,240.821 214.507,235.821 204.5,235.5C 192.756,236.077 186.422,242.244 185.5,254C 186.402,262.905 191.068,268.905 199.5,272C 211.808,274.148 219.475,269.315 222.5,257.5C 223.737,260.812 223.404,264.145 221.5,267.5C 222.098,268.795 222.598,270.128 223,271.5C 224,271.167 225,270.833 226,270.5C 226.483,271.448 226.649,272.448 226.5,273.5C 227.552,273.351 228.552,273.517 229.5,274C 230.833,274.667 230.833,275.333 229.5,276C 233.183,276.665 235.183,275.165 235.5,271.5C 236.833,271.5 238.167,271.5 239.5,271.5C 225.513,292.743 206.847,297.91 183.5,287C 177.878,283.217 173.545,278.384 170.5,272.5C 170.56,271.957 170.893,271.624 171.5,271.5C 172.386,272.325 172.719,273.325 172.5,274.5C 173.5,274.5 174.5,274.5 175.5,274.5C 176.577,278.75 179.244,281.75 183.5,283.5C 184.548,282.617 185.715,281.95 187,281.5C 193.91,282.232 200.743,283.232 207.5,284.5C 207.5,283.5 207.5,282.5 207.5,281.5C 210.899,281.263 212.732,279.596 213,276.5C 212.667,276.833 212.333,277.167 212,277.5C 206.622,276.089 201.122,275.089 195.5,274.5C 194.372,273.738 193.205,273.071 192,272.5C 189.341,269.173 186.675,265.84 184,262.5C 183.333,256.833 183.333,251.167 184,245.5C 186.596,241.469 189.762,237.969 193.5,235C 192.833,234 192.167,233 191.5,232C 192.038,229.898 193.038,229.065 194.5,229.5C 193.019,228.52 191.685,227.353 190.5,226C 197.542,225.286 197.876,224.286 191.5,223C 194.029,221.938 196.696,221.105 199.5,220.5C 192.102,218.94 186.436,221.44 182.5,228C 180.5,228.333 178.5,228.667 176.5,229C 175.349,231.2 173.682,232.7 171.5,233.5C 179.146,221.554 190.146,215.554 204.5,215.5C 220.365,215.596 232.032,222.596 239.5,236.5 Z"/></g>
</svg>
