<?xml version="1.0" encoding="UTF-8"?>
<!DOCTYPE svg PUBLIC "-//W3C//DTD SVG 1.1//EN" "http://www.w3.org/Graphics/SVG/1.1/DTD/svg11.dtd">
<svg xmlns="http://www.w3.org/2000/svg" version="1.1" width="515px" height="484px" style="shape-rendering:geometricPrecision; text-rendering:geometricPrecision; image-rendering:optimizeQuality; fill-rule:evenodd; clip-rule:evenodd" xmlns:xlink="http://www.w3.org/1999/xlink">
<g><path style="opacity:0.945" fill="#e56f6d" d="M 313.5,131.5 C 311.661,130.492 310.328,128.992 309.5,127C 304.963,124.57 300.63,121.903 296.5,119C 277.986,115.845 259.319,114.679 240.5,115.5C 257.368,112.825 274.368,112.991 291.5,116C 297.07,117.747 302.404,120.081 307.5,123C 310.381,125.279 312.381,128.112 313.5,131.5 Z"/></g>
<g><path style="opacity:0.97" fill="#e05c5c" d="M 239.5,115.5 C 239.119,116.931 238.119,117.764 236.5,118C 232.49,118.501 228.49,119.001 224.5,119.5C 229.078,116.98 234.078,115.647 239.5,115.5 Z"/></g>
<g><path style="opacity:1" fill="#e72e30" d="M 239.5,115.5 C 239.833,115.5 240.167,115.5 240.5,115.5C 259.319,114.679 277.986,115.845 296.5,119C 300.63,121.903 304.963,124.57 309.5,127C 310.328,128.992 311.661,130.492 313.5,131.5C 313.5,131.833 313.5,132.167 313.5,132.5C 314.109,137.812 314.609,143.146 315,148.5C 315.5,211.832 315.667,275.166 315.5,338.5C 315.5,339.5 315.5,340.5 315.5,341.5C 314.504,341.414 313.671,341.748 313,342.5C 312.996,345.792 311.83,348.458 309.5,350.5C 309.67,348.152 310.003,345.818 310.5,343.5C 308.537,340.228 307.37,336.561 307,332.5C 305.924,335.36 305.091,338.36 304.5,341.5C 300.838,341.162 300.171,339.995 302.5,338C 301.584,337.626 300.75,337.126 300,336.5C 299,337.833 298,337.833 297,336.5C 295.745,337.211 294.579,338.044 293.5,339C 289.514,339.499 285.514,339.666 281.5,339.5C 288.565,337.991 295.565,335.825 302.5,333C 305.36,328.323 304.693,324.156 300.5,320.5C 299.962,318.883 299.629,317.216 299.5,315.5C 304.454,317.91 306.454,321.91 305.5,327.5C 306.978,327.238 308.311,327.571 309.5,328.5C 309.621,331.002 309.788,333.668 310,336.5C 310.914,337.654 311.747,337.487 312.5,336C 311.919,335.107 311.585,334.107 311.5,333C 312.759,330.143 313.425,327.143 313.5,324C 312.462,320.628 312.462,317.295 313.5,314C 313.167,312.833 312.833,311.667 312.5,310.5C 311.784,312.482 310.617,314.149 309,315.5C 306.041,312.843 303.041,310.176 300,307.5C 300.207,305.249 300.373,302.915 300.5,300.5C 301.637,301.789 302.97,302.789 304.5,303.5C 304.523,305.927 305.023,308.26 306,310.5C 307.011,311.337 308.178,311.67 309.5,311.5C 309.5,276.833 309.5,242.167 309.5,207.5C 308.167,207.5 306.833,207.5 305.5,207.5C 305.969,210.393 304.969,212.393 302.5,213.5C 302.833,210.5 301.5,209.167 298.5,209.5C 300.905,205.559 302.239,201.225 302.5,196.5C 307.03,193.717 308.53,189.717 307,184.5C 304.695,182.07 301.862,181.07 298.5,181.5C 298.167,181.5 297.833,181.5 297.5,181.5C 289.308,177.958 280.642,176.292 271.5,176.5C 260.984,175.442 250.317,175.609 239.5,177C 234.467,177.7 229.801,179.2 225.5,181.5C 222.833,181.833 220.167,182.167 217.5,182.5C 217.5,183.5 217.5,184.5 217.5,185.5C 217.5,186.167 217.5,186.833 217.5,187.5C 217.895,192.083 219.062,196.416 221,200.5C 223.096,205.44 225.929,209.94 229.5,214C 245.436,212.749 261.436,212.249 277.5,212.5C 283.238,214.228 289.238,214.895 295.5,214.5C 295.5,213.5 295.5,212.5 295.5,211.5C 296.167,211.167 296.833,210.833 297.5,210.5C 296.85,212.435 296.517,214.435 296.5,216.5C 293.813,216.336 291.146,216.503 288.5,217C 289.7,222.11 288.7,222.61 285.5,218.5C 283.634,218.902 281.634,218.902 279.5,218.5C 280.5,217.667 281.5,216.833 282.5,216C 278.035,213.881 273.701,214.048 269.5,216.5C 267.636,215.007 265.47,214.34 263,214.5C 254.524,215.145 246.024,215.145 237.5,214.5C 238.348,216.481 238.848,218.481 239,220.5C 236.931,221.264 234.764,221.764 232.5,222C 231.299,222.903 230.465,224.069 230,225.5C 229.503,222.854 229.336,220.187 229.5,217.5C 231.199,217.66 232.866,217.494 234.5,217C 232.19,216.503 229.857,216.337 227.5,216.5C 226.947,220.456 226.114,220.456 225,216.5C 224.18,218.728 224.513,220.728 226,222.5C 226.667,245.833 226.667,269.167 226,292.5C 225.434,294.723 224.6,296.723 223.5,298.5C 223.5,296.833 223.5,295.167 223.5,293.5C 223.5,292.5 223.5,291.5 223.5,290.5C 224.663,268.337 224.83,246.004 224,223.5C 223.648,221.753 223.148,220.086 222.5,218.5C 221.266,214.018 219.433,209.685 217,205.5C 215.989,204.663 214.822,204.33 213.5,204.5C 213.643,206.262 213.309,207.929 212.5,209.5C 214.484,243.346 215.15,277.346 214.5,311.5C 213.501,305.592 213.167,298.926 213.5,291.5C 212.5,291.5 211.5,291.5 210.5,291.5C 210.357,293.262 210.691,294.929 211.5,296.5C 209.308,299.469 209.308,302.302 211.5,305C 210.284,308.518 209.617,312.185 209.5,316C 210.126,324.841 210.793,333.674 211.5,342.5C 209.982,339.466 209.149,336.133 209,332.5C 208.204,269.157 208.37,205.824 209.5,142.5C 210.381,138.546 211.048,134.546 211.5,130.5C 214.243,128.761 216.243,126.427 217.5,123.5C 220.331,122.921 222.664,121.588 224.5,119.5C 228.49,119.001 232.49,118.501 236.5,118C 238.119,117.764 239.119,116.931 239.5,115.5 Z M 253.5,177.5 C 268.42,176.593 283.087,177.926 297.5,181.5C 297.833,181.5 298.167,181.5 298.5,181.5C 300.277,182.6 302.277,183.434 304.5,184C 305.574,184.739 306.241,185.739 306.5,187C 305.25,190.266 303.916,193.432 302.5,196.5C 299.603,201.167 297.27,206.167 295.5,211.5C 294.333,212.815 292.833,213.481 291,213.5C 286.599,212.133 282.099,211.467 277.5,211.5C 272.652,211.424 267.819,211.091 263,210.5C 252.094,211.132 241.261,211.966 230.5,213C 229.667,212.167 228.833,211.333 228,210.5C 224.962,202.521 221.462,194.854 217.5,187.5C 217.5,186.833 217.5,186.167 217.5,185.5C 220.298,184.35 222.965,183.017 225.5,181.5C 234.792,179.839 244.126,178.505 253.5,177.5 Z M 221.5,218.5 C 221.995,220.482 222.495,222.482 223,224.5C 223.5,246.497 223.667,268.497 223.5,290.5C 223.5,291.5 223.5,292.5 223.5,293.5C 221.327,298.853 218.827,304.186 216,309.5C 215.333,275.833 215.333,242.167 216,208.5C 218.099,211.745 219.932,215.079 221.5,218.5 Z M 308.5,287.5 C 307.833,294.167 307.167,300.833 306.5,307.5C 306.34,305.847 305.674,304.514 304.5,303.5C 302.426,299.383 301.093,295.05 300.5,290.5C 300.219,267.478 300.552,244.478 301.5,221.5C 303.621,217.259 305.787,212.925 308,208.5C 308.5,234.831 308.667,261.165 308.5,287.5 Z M 230.5,307.5 C 250.218,311.414 269.884,311.414 289.5,307.5C 291.144,307.286 292.644,307.62 294,308.5C 295.955,312.753 298.122,316.753 300.5,320.5C 301.667,323.819 302.501,327.153 303,330.5C 295.347,334.458 287.18,336.958 278.5,338C 264.754,338.977 251.088,338.477 237.5,336.5C 236.833,336.5 236.167,336.5 235.5,336.5C 231.383,334.796 227.049,333.463 222.5,332.5C 220.438,330.13 220.271,327.463 222,324.5C 224.815,318.869 227.649,313.202 230.5,307.5 Z"/></g>
<g><path style="opacity:0.298" fill="#e38581" d="M 224.5,119.5 C 222.664,121.588 220.331,122.921 217.5,123.5C 219.336,121.412 221.669,120.079 224.5,119.5 Z"/></g>
<g><path style="opacity:0.349" fill="#e07675" d="M 217.5,123.5 C 216.243,126.427 214.243,128.761 211.5,130.5C 212.412,128.405 213.579,126.405 215,124.5C 215.671,123.748 216.504,123.414 217.5,123.5 Z"/></g>
<g><path style="opacity:0.392" fill="#e27d79" d="M 211.5,130.5 C 211.048,134.546 210.381,138.546 209.5,142.5C 208.833,144.833 208.167,147.167 207.5,149.5C 207.066,142.665 208.399,136.332 211.5,130.5 Z"/></g>
<g><path style="opacity:0.765" fill="#e88382" d="M 253.5,177.5 C 259.31,176.51 265.31,176.177 271.5,176.5C 280.642,176.292 289.308,177.958 297.5,181.5C 283.087,177.926 268.42,176.593 253.5,177.5 Z"/></g>
<g><path style="opacity:0.729" fill="#e17272" d="M 271.5,176.5 C 265.31,176.177 259.31,176.51 253.5,177.5C 244.126,178.505 234.792,179.839 225.5,181.5C 229.801,179.2 234.467,177.7 239.5,177C 250.317,175.609 260.984,175.442 271.5,176.5 Z"/></g>
<g><path style="opacity:0.824" fill="#e67575" d="M 225.5,181.5 C 222.965,183.017 220.298,184.35 217.5,185.5C 217.5,184.5 217.5,183.5 217.5,182.5C 220.167,182.167 222.833,181.833 225.5,181.5 Z"/></g>
<g><path style="opacity:0.761" fill="#dd6164" d="M 298.5,181.5 C 301.862,181.07 304.695,182.07 307,184.5C 308.53,189.717 307.03,193.717 302.5,196.5C 303.916,193.432 305.25,190.266 306.5,187C 306.241,185.739 305.574,184.739 304.5,184C 302.277,183.434 300.277,182.6 298.5,181.5 Z"/></g>
<g><path style="opacity:0.957" fill="#e16564" d="M 217.5,187.5 C 221.462,194.854 224.962,202.521 228,210.5C 228.833,211.333 229.667,212.167 230.5,213C 241.261,211.966 252.094,211.132 263,210.5C 267.819,211.091 272.652,211.424 277.5,211.5C 277.5,211.833 277.5,212.167 277.5,212.5C 261.436,212.249 245.436,212.749 229.5,214C 225.929,209.94 223.096,205.44 221,200.5C 219.062,196.416 217.895,192.083 217.5,187.5 Z"/></g>
<g><path style="opacity:0.947" fill="#df484a" d="M 196.5,187.5 C 197.5,187.5 198.5,187.5 199.5,187.5C 199.5,195.167 199.5,202.833 199.5,210.5C 199.5,210.833 199.5,211.167 199.5,211.5C 198.5,211.5 197.5,211.5 196.5,211.5C 196.371,213.216 196.038,214.883 195.5,216.5C 195.5,216.833 195.5,217.167 195.5,217.5C 195.167,217.5 194.833,217.5 194.5,217.5C 194.791,213.25 195.957,209.25 198,205.5C 198.829,200.136 198.663,194.802 197.5,189.5C 196.482,190.193 195.482,190.859 194.5,191.5C 194.733,189.938 195.4,188.605 196.5,187.5 Z"/></g>
<g><path style="opacity:0.118" fill="#e79291" d="M 192.5,193.5 C 191.277,197.049 189.277,200.049 186.5,202.5C 187.759,198.975 189.759,195.975 192.5,193.5 Z"/></g>
<g><path style="opacity:0.365" fill="#e38a8a" d="M 199.5,210.5 C 199.5,202.833 199.5,195.167 199.5,187.5C 198.5,187.5 197.5,187.5 196.5,187.5C 197.751,185.78 199.251,185.447 201,186.5C 201.667,193.167 201.667,199.833 201,206.5C 200.79,208.058 200.29,209.391 199.5,210.5 Z"/></g>
<g><path style="opacity:0.31" fill="#e37572" d="M 337.5,203.5 C 333.526,198.936 329.526,194.269 325.5,189.5C 323.957,198.02 324.623,206.353 327.5,214.5C 324.39,211.598 322.89,207.932 323,203.5C 322.149,197.747 322.483,192.08 324,186.5C 326.091,185.5 327.757,186.167 329,188.5C 332.359,193.221 335.193,198.221 337.5,203.5 Z"/></g>
<g><path style="opacity:0.906" fill="#e26061" d="M 302.5,196.5 C 302.239,201.225 300.905,205.559 298.5,209.5C 297.833,209.5 297.5,209.833 297.5,210.5C 296.833,210.833 296.167,211.167 295.5,211.5C 297.27,206.167 299.603,201.167 302.5,196.5 Z"/></g>
<g><path style="opacity:1" fill="#e45d5a" d="M 338.5,203.5 C 341.221,206.894 343.554,210.561 345.5,214.5C 343.947,212.615 341.947,211.615 339.5,211.5C 339.167,208.833 338.833,206.167 338.5,203.5 Z"/></g>
<g><path style="opacity:0.847" fill="#e36e6e" d="M 186.5,202.5 C 185.94,205.713 184.773,208.713 183,211.5C 180.179,216.175 176.679,220.175 172.5,223.5C 176.425,215.976 181.092,208.976 186.5,202.5 Z"/></g>
<g><path style="opacity:0.447" fill="#e7908f" d="M 199.5,211.5 C 198.396,213.389 197.063,215.055 195.5,216.5C 196.038,214.883 196.371,213.216 196.5,211.5C 197.5,211.5 198.5,211.5 199.5,211.5 Z"/></g>
<g><path style="opacity:0.28" fill="#e6787c" d="M 277.5,211.5 C 282.099,211.467 286.599,212.133 291,213.5C 292.833,213.481 294.333,212.815 295.5,211.5C 295.5,212.5 295.5,213.5 295.5,214.5C 289.238,214.895 283.238,214.228 277.5,212.5C 277.5,212.167 277.5,211.833 277.5,211.5 Z"/></g>
<g><path style="opacity:1" fill="#e92d30" d="M 298.5,209.5 C 301.5,209.167 302.833,210.5 302.5,213.5C 302.5,213.833 302.5,214.167 302.5,214.5C 300.91,216.475 299.743,218.808 299,221.5C 298.333,245.833 298.333,270.167 299,294.5C 300.128,296.345 300.628,298.345 300.5,300.5C 300.373,302.915 300.207,305.249 300,307.5C 303.041,310.176 306.041,312.843 309,315.5C 310.617,314.149 311.784,312.482 312.5,310.5C 312.833,311.667 313.167,312.833 313.5,314C 312.462,317.295 312.462,320.628 313.5,324C 313.425,327.143 312.759,330.143 311.5,333C 311.585,334.107 311.919,335.107 312.5,336C 311.747,337.487 310.914,337.654 310,336.5C 309.788,333.668 309.621,331.002 309.5,328.5C 308.311,327.571 306.978,327.238 305.5,327.5C 306.454,321.91 304.454,317.91 299.5,315.5C 297.741,312.726 296.074,309.893 294.5,307C 292.866,306.506 291.199,306.34 289.5,306.5C 275.806,308.372 262.14,308.705 248.5,307.5C 244.677,306.003 240.677,304.67 236.5,303.5C 232.49,304.256 228.99,305.923 226,308.5C 225.506,306.866 225.34,305.199 225.5,303.5C 223.821,303.715 222.821,303.048 222.5,301.5C 222.557,300.391 222.89,299.391 223.5,298.5C 224.6,296.723 225.434,294.723 226,292.5C 226.667,269.167 226.667,245.833 226,222.5C 224.513,220.728 224.18,218.728 225,216.5C 226.114,220.456 226.947,220.456 227.5,216.5C 229.857,216.337 232.19,216.503 234.5,217C 232.866,217.494 231.199,217.66 229.5,217.5C 229.336,220.187 229.503,222.854 230,225.5C 230.465,224.069 231.299,222.903 232.5,222C 234.764,221.764 236.931,221.264 239,220.5C 238.848,218.481 238.348,216.481 237.5,214.5C 246.024,215.145 254.524,215.145 263,214.5C 265.47,214.34 267.636,215.007 269.5,216.5C 273.701,214.048 278.035,213.881 282.5,216C 281.5,216.833 280.5,217.667 279.5,218.5C 281.634,218.902 283.634,218.902 285.5,218.5C 288.7,222.61 289.7,222.11 288.5,217C 291.146,216.503 293.813,216.336 296.5,216.5C 296.517,214.435 296.85,212.435 297.5,210.5C 297.5,209.833 297.833,209.5 298.5,209.5 Z"/></g>
<g><path style="opacity:0.651" fill="#e47b77" d="M 327.5,215.5 C 330.9,216.908 332.9,219.575 333.5,223.5C 331.512,220.872 329.512,218.205 327.5,215.5 Z"/></g>
<g><path style="opacity:0.286" fill="#ec8789" d="M 345.5,214.5 C 347.326,216.147 348.66,218.147 349.5,220.5C 347.178,219.198 345.845,217.198 345.5,214.5 Z"/></g>
<g><path style="opacity:0.996" fill="#e46c66" d="M 194.5,217.5 C 194.833,217.5 195.167,217.5 195.5,217.5C 192.488,221.538 189.488,225.538 186.5,229.5C 186.884,223.804 189.551,219.804 194.5,217.5 Z"/></g>
<g><path style="opacity:0.526" fill="#dc4e4e" d="M 222.5,218.5 C 222.167,218.5 221.833,218.5 221.5,218.5C 219.932,215.079 218.099,211.745 216,208.5C 215.333,242.167 215.333,275.833 216,309.5C 218.827,304.186 221.327,298.853 223.5,293.5C 223.5,295.167 223.5,296.833 223.5,298.5C 222.89,299.391 222.557,300.391 222.5,301.5C 221.025,304.326 219.692,307.326 218.5,310.5C 217.311,311.429 215.978,311.762 214.5,311.5C 215.15,277.346 214.484,243.346 212.5,209.5C 213.309,207.929 213.643,206.262 213.5,204.5C 214.822,204.33 215.989,204.663 217,205.5C 219.433,209.685 221.266,214.018 222.5,218.5 Z"/></g>
<g><path style="opacity:0.118" fill="#ec9c9c" d="M 172.5,223.5 C 172.155,226.198 170.822,228.198 168.5,229.5C 169.34,227.147 170.674,225.147 172.5,223.5 Z"/></g>
<g><path style="opacity:1" fill="#e2524c" d="M 349.5,220.5 C 352.66,224.148 355.327,228.148 357.5,232.5C 355.277,231.886 353.611,230.552 352.5,228.5C 351.914,228.709 351.414,229.043 351,229.5C 350.365,228.034 349.531,226.7 348.5,225.5C 349.309,223.929 349.643,222.262 349.5,220.5 Z"/></g>
<g><path style="opacity:0.227" fill="#e28684" d="M 166.5,232.5 C 166.155,235.198 164.822,237.198 162.5,238.5C 163.34,236.147 164.674,234.147 166.5,232.5 Z"/></g>
<g><path style="opacity:1" fill="#e63030" d="M 337.5,203.5 C 337.833,203.5 338.167,203.5 338.5,203.5C 338.833,206.167 339.167,208.833 339.5,211.5C 341.947,211.615 343.947,212.615 345.5,214.5C 345.845,217.198 347.178,219.198 349.5,220.5C 349.643,222.262 349.309,223.929 348.5,225.5C 349.531,226.7 350.365,228.034 351,229.5C 351.414,229.043 351.914,228.709 352.5,228.5C 353.611,230.552 355.277,231.886 357.5,232.5C 357.564,236.219 359.231,238.886 362.5,240.5C 363.376,240.369 364.043,240.702 364.5,241.5C 365.937,244.716 367.604,247.716 369.5,250.5C 371.299,254.903 371.966,259.57 371.5,264.5C 367.132,264.741 363.132,263.741 359.5,261.5C 359.33,258.796 357.997,257.129 355.5,256.5C 355.5,256.167 355.5,255.833 355.5,255.5C 355.5,253.167 355.5,250.833 355.5,248.5C 352.488,247.745 349.822,246.412 347.5,244.5C 347.5,244.167 347.5,243.833 347.5,243.5C 345.939,240.227 344.272,236.894 342.5,233.5C 341.675,232.614 340.675,232.281 339.5,232.5C 337.5,229.5 335.5,226.5 333.5,223.5C 332.9,219.575 330.9,216.908 327.5,215.5C 327.5,215.167 327.5,214.833 327.5,214.5C 324.623,206.353 323.957,198.02 325.5,189.5C 329.526,194.269 333.526,198.936 337.5,203.5 Z"/></g>
<g><path style="opacity:0.957" fill="#e66662" d="M 357.5,232.5 C 360.164,234.484 361.831,237.151 362.5,240.5C 359.231,238.886 357.564,236.219 357.5,232.5 Z"/></g>
<g><path style="opacity:0.282" fill="#db6162" d="M 339.5,232.5 C 340.675,232.281 341.675,232.614 342.5,233.5C 344.272,236.894 345.939,240.227 347.5,243.5C 344.601,240.048 341.934,236.382 339.5,232.5 Z"/></g>
<g><path style="opacity:1" fill="#e5625f" d="M 183.5,233.5 C 179.993,239.852 175.993,245.852 171.5,251.5C 171.5,249.167 171.5,246.833 171.5,244.5C 172.833,244.5 174.167,244.5 175.5,244.5C 175.338,242.473 175.505,240.473 176,238.5C 176.414,238.957 176.914,239.291 177.5,239.5C 178.429,238.311 178.762,236.978 178.5,235.5C 180.514,235.608 182.18,234.942 183.5,233.5 Z"/></g>
<g><path style="opacity:1" fill="#e73031" d="M 194.5,217.5 C 189.551,219.804 186.884,223.804 186.5,229.5C 185.974,231.23 184.974,232.564 183.5,233.5C 182.18,234.942 180.514,235.608 178.5,235.5C 178.762,236.978 178.429,238.311 177.5,239.5C 176.914,239.291 176.414,238.957 176,238.5C 175.505,240.473 175.338,242.473 175.5,244.5C 174.167,244.5 172.833,244.5 171.5,244.5C 171.5,246.833 171.5,249.167 171.5,251.5C 168.366,252.279 165.699,253.945 163.5,256.5C 163.709,257.086 164.043,257.586 164.5,258C 162.893,259.049 162.227,260.549 162.5,262.5C 160.104,264.212 157.438,264.712 154.5,264C 153.152,262.426 152.486,260.593 152.5,258.5C 155.834,251.832 159.167,245.166 162.5,238.5C 164.822,237.198 166.155,235.198 166.5,232.5C 166.427,230.973 167.094,229.973 168.5,229.5C 170.822,228.198 172.155,226.198 172.5,223.5C 176.679,220.175 180.179,216.175 183,211.5C 184.773,208.713 185.94,205.713 186.5,202.5C 189.277,200.049 191.277,197.049 192.5,193.5C 192.5,192.167 193.167,191.5 194.5,191.5C 195.482,190.859 196.482,190.193 197.5,189.5C 198.663,194.802 198.829,200.136 198,205.5C 195.957,209.25 194.791,213.25 194.5,217.5 Z"/></g>
<g><path style="opacity:0.378" fill="#e27e7a" d="M 209.5,142.5 C 208.37,205.824 208.204,269.157 209,332.5C 209.149,336.133 209.982,339.466 211.5,342.5C 212.167,345.833 212.833,349.167 213.5,352.5C 210.61,348.023 208.777,343.023 208,337.5C 206.273,274.814 206.106,212.147 207.5,149.5C 208.167,147.167 208.833,144.833 209.5,142.5 Z"/></g>
<g><path style="opacity:0.719" fill="#dd4f51" d="M 302.5,214.5 C 302.326,216.861 301.993,219.194 301.5,221.5C 300.883,221.611 300.383,221.944 300,222.5C 299.17,245.337 299.337,268.004 300.5,290.5C 301.093,295.05 302.426,299.383 304.5,303.5C 302.97,302.789 301.637,301.789 300.5,300.5C 300.628,298.345 300.128,296.345 299,294.5C 298.333,270.167 298.333,245.833 299,221.5C 299.743,218.808 300.91,216.475 302.5,214.5 Z"/></g>
<g><path style="opacity:1" fill="#e05854" d="M 347.5,244.5 C 349.822,246.412 352.488,247.745 355.5,248.5C 355.5,250.833 355.5,253.167 355.5,255.5C 352.601,252.048 349.934,248.382 347.5,244.5 Z"/></g>
<g><path style="opacity:0.808" fill="#dc6d6e" d="M 162.5,238.5 C 159.167,245.166 155.834,251.832 152.5,258.5C 152.486,260.593 153.152,262.426 154.5,264C 157.438,264.712 160.104,264.212 162.5,262.5C 163.167,262.5 163.833,262.5 164.5,262.5C 161.061,265.557 157.061,266.224 152.5,264.5C 150.106,260.581 149.939,256.581 152,252.5C 155.277,247.586 158.777,242.92 162.5,238.5 Z"/></g>
<g><path style="opacity:0.404" fill="#eb8e8d" d="M 355.5,256.5 C 357.997,257.129 359.33,258.796 359.5,261.5C 357.937,260.055 356.604,258.389 355.5,256.5 Z"/></g>
<g><path style="opacity:1" fill="#e25150" d="M 171.5,251.5 C 169.416,255.336 167.083,259.003 164.5,262.5C 163.833,262.5 163.167,262.5 162.5,262.5C 162.227,260.549 162.893,259.049 164.5,258C 164.043,257.586 163.709,257.086 163.5,256.5C 165.699,253.945 168.366,252.279 171.5,251.5 Z"/></g>
<g><path style="opacity:0.357" fill="#dc7476" d="M 369.5,250.5 C 373.709,254.666 374.375,259.333 371.5,264.5C 371.966,259.57 371.299,254.903 369.5,250.5 Z"/></g>
<g><path style="opacity:0.336" fill="#dc6264" d="M 304.5,303.5 C 305.674,304.514 306.34,305.847 306.5,307.5C 306.56,308.043 306.893,308.376 307.5,308.5C 308.497,301.532 308.83,294.532 308.5,287.5C 308.667,261.165 308.5,234.831 308,208.5C 305.787,212.925 303.621,217.259 301.5,221.5C 301.993,219.194 302.326,216.861 302.5,214.5C 302.5,214.167 302.5,213.833 302.5,213.5C 304.969,212.393 305.969,210.393 305.5,207.5C 306.833,207.5 308.167,207.5 309.5,207.5C 309.5,242.167 309.5,276.833 309.5,311.5C 308.178,311.67 307.011,311.337 306,310.5C 305.023,308.26 304.523,305.927 304.5,303.5 Z"/></g>
<g><path style="opacity:0.439" fill="#d86e6f" d="M 359.5,261.5 C 363.132,263.741 367.132,264.741 371.5,264.5C 370.626,265.525 369.459,266.192 368,266.5C 364.18,266.357 361.347,264.69 359.5,261.5 Z"/></g>
<g><path style="opacity:0.128" fill="#f69796" d="M 221.5,218.5 C 221.833,218.5 222.167,218.5 222.5,218.5C 223.148,220.086 223.648,221.753 224,223.5C 224.83,246.004 224.663,268.337 223.5,290.5C 223.667,268.497 223.5,246.497 223,224.5C 222.495,222.482 221.995,220.482 221.5,218.5 Z"/></g>
<g><path style="opacity:0.775" fill="#e06b6c" d="M 313.5,132.5 C 315.257,137.564 316.424,142.897 317,148.5C 317.667,209.833 317.667,271.167 317,332.5C 316.809,334.708 316.309,336.708 315.5,338.5C 315.667,275.166 315.5,211.832 315,148.5C 314.609,143.146 314.109,137.812 313.5,132.5 Z"/></g>
<g><path style="opacity:0.09" fill="#e78d8d" d="M 301.5,221.5 C 300.552,244.478 300.219,267.478 300.5,290.5C 299.337,268.004 299.17,245.337 300,222.5C 300.383,221.944 300.883,221.611 301.5,221.5 Z"/></g>
<g><path style="opacity:0.047" fill="#f59ea6" d="M 308.5,287.5 C 308.83,294.532 308.497,301.532 307.5,308.5C 306.893,308.376 306.56,308.043 306.5,307.5C 307.167,300.833 307.833,294.167 308.5,287.5 Z"/></g>
<g><path style="opacity:0.52" fill="#e26b68" d="M 230.5,307.5 C 236.325,306.794 242.325,306.794 248.5,307.5C 262.14,308.705 275.806,308.372 289.5,306.5C 289.5,306.833 289.5,307.167 289.5,307.5C 269.884,311.414 250.218,311.414 230.5,307.5 Z"/></g>
<g><path style="opacity:0.286" fill="#e77f80" d="M 289.5,307.5 C 289.5,307.167 289.5,306.833 289.5,306.5C 291.199,306.34 292.866,306.506 294.5,307C 296.074,309.893 297.741,312.726 299.5,315.5C 299.629,317.216 299.962,318.883 300.5,320.5C 298.122,316.753 295.955,312.753 294,308.5C 292.644,307.62 291.144,307.286 289.5,307.5 Z"/></g>
<g><path style="opacity:0.718" fill="#e16361" d="M 230.5,307.5 C 227.649,313.202 224.815,318.869 222,324.5C 220.271,327.463 220.438,330.13 222.5,332.5C 220.156,332.494 218.822,331.327 218.5,329C 221.592,322.135 224.758,315.301 228,308.5C 228.671,307.748 229.504,307.414 230.5,307.5 Z"/></g>
<g><path style="opacity:1" fill="#e82f30" d="M 214.5,311.5 C 215.978,311.762 217.311,311.429 218.5,310.5C 219.692,307.326 221.025,304.326 222.5,301.5C 222.821,303.048 223.821,303.715 225.5,303.5C 225.34,305.199 225.506,306.866 226,308.5C 228.99,305.923 232.49,304.256 236.5,303.5C 240.677,304.67 244.677,306.003 248.5,307.5C 242.325,306.794 236.325,306.794 230.5,307.5C 229.504,307.414 228.671,307.748 228,308.5C 224.758,315.301 221.592,322.135 218.5,329C 218.822,331.327 220.156,332.494 222.5,332.5C 225.992,336.004 230.325,337.338 235.5,336.5C 236.167,336.5 236.833,336.5 237.5,336.5C 240.614,337.956 243.948,339.122 247.5,340C 258.846,340.593 270.179,340.426 281.5,339.5C 285.514,339.666 289.514,339.499 293.5,339C 294.579,338.044 295.745,337.211 297,336.5C 298,337.833 299,337.833 300,336.5C 300.75,337.126 301.584,337.626 302.5,338C 300.171,339.995 300.838,341.162 304.5,341.5C 305.091,338.36 305.924,335.36 307,332.5C 307.37,336.561 308.537,340.228 310.5,343.5C 310.003,345.818 309.67,348.152 309.5,350.5C 308.466,351.687 307.133,352.52 305.5,353C 306.022,353.561 306.355,354.228 306.5,355C 305.586,356.406 304.92,357.906 304.5,359.5C 296.407,361.975 288.407,364.642 280.5,367.5C 267.833,370.167 255.167,370.167 242.5,367.5C 241.602,366.842 240.602,366.176 239.5,365.5C 234.042,364.642 228.709,363.642 223.5,362.5C 222.833,361.833 222.167,361.167 221.5,360.5C 219.118,357.452 216.452,354.785 213.5,352.5C 212.833,349.167 212.167,345.833 211.5,342.5C 210.793,333.674 210.126,324.841 209.5,316C 209.617,312.185 210.284,308.518 211.5,305C 209.308,302.302 209.308,299.469 211.5,296.5C 210.691,294.929 210.357,293.262 210.5,291.5C 211.5,291.5 212.5,291.5 213.5,291.5C 213.167,298.926 213.501,305.592 214.5,311.5 Z"/></g>
<g><path style="opacity:0.922" fill="#e57271" d="M 222.5,332.5 C 227.049,333.463 231.383,334.796 235.5,336.5C 230.325,337.338 225.992,336.004 222.5,332.5 Z"/></g>
<g><path style="opacity:0.612" fill="#dd6a69" d="M 300.5,320.5 C 304.693,324.156 305.36,328.323 302.5,333C 295.565,335.825 288.565,337.991 281.5,339.5C 270.179,340.426 258.846,340.593 247.5,340C 243.948,339.122 240.614,337.956 237.5,336.5C 251.088,338.477 264.754,338.977 278.5,338C 287.18,336.958 295.347,334.458 303,330.5C 302.501,327.153 301.667,323.819 300.5,320.5 Z"/></g>
<g><path style="opacity:0.608" fill="#e57a7a" d="M 213.5,352.5 C 216.452,354.785 219.118,357.452 221.5,360.5C 217.855,358.855 215.188,356.188 213.5,352.5 Z"/></g>
<g><path style="opacity:1" fill="#df605b" d="M 315.5,341.5 C 313.869,348.766 310.202,354.766 304.5,359.5C 304.92,357.906 305.586,356.406 306.5,355C 306.355,354.228 306.022,353.561 305.5,353C 307.133,352.52 308.466,351.687 309.5,350.5C 311.83,348.458 312.996,345.792 313,342.5C 313.671,341.748 314.504,341.414 315.5,341.5 Z"/></g>
<g><path style="opacity:0.918" fill="#db5956" d="M 223.5,362.5 C 228.709,363.642 234.042,364.642 239.5,365.5C 240.602,366.176 241.602,366.842 242.5,367.5C 235.693,367.216 229.359,365.55 223.5,362.5 Z"/></g>
<g><path style="opacity:0.565" fill="#e05c58" d="M 304.5,359.5 C 297.712,365.211 289.712,367.878 280.5,367.5C 288.407,364.642 296.407,361.975 304.5,359.5 Z"/></g>
</svg>
