<?xml version="1.0" encoding="UTF-8"?>
<!DOCTYPE svg PUBLIC "-//W3C//DTD SVG 1.1//EN" "http://www.w3.org/Graphics/SVG/1.1/DTD/svg11.dtd">
<svg xmlns="http://www.w3.org/2000/svg" version="1.1" width="632px" height="395px" style="shape-rendering:geometricPrecision; text-rendering:geometricPrecision; image-rendering:optimizeQuality; fill-rule:evenodd; clip-rule:evenodd" xmlns:xlink="http://www.w3.org/1999/xlink">
<g><path style="opacity:0.043" fill="#f4ecd5" d="M 191.5,77.5 C 181.167,77.5 170.833,77.5 160.5,77.5C 170.827,74.935 181.16,74.935 191.5,77.5 Z"/></g>
<g><path style="opacity:0.278" fill="#efe4c8" d="M 348.5,78.5 C 346.5,78.5 344.5,78.5 342.5,78.5C 329.863,77.5794 317.197,77.246 304.5,77.5C 319.213,74.8351 333.88,75.1684 348.5,78.5 Z"/></g>
<g><path style="opacity:0.298" fill="#f5f0d2" d="M 476.5,76.5 C 471.637,76.1805 466.97,76.5139 462.5,77.5C 460.167,77.5 457.833,77.5 455.5,77.5C 454.5,77.5 453.5,77.5 452.5,77.5C 457.077,76.0103 461.91,75.3437 467,75.5C 470.352,75.5018 473.518,75.8351 476.5,76.5 Z"/></g>
<g><path style="opacity:0.125" fill="#dfceb1" d="M 462.5,77.5 C 466.97,76.5139 471.637,76.1805 476.5,76.5C 481.657,76.2943 486.657,76.961 491.5,78.5C 491.5,78.8333 491.5,79.1667 491.5,79.5C 481.969,77.7169 472.302,77.0502 462.5,77.5 Z"/></g>
<g><path style="opacity:0.247" fill="#f0e5cc" d="M 303.5,77.5 C 295.577,78.9726 287.577,80.6392 279.5,82.5C 287.016,79.1795 295.016,77.5128 303.5,77.5 Z"/></g>
<g><path style="opacity:0.529" fill="#d4bd90" d="M 493.5,79.5 C 496.152,79.4095 498.485,80.0762 500.5,81.5C 497.848,81.5905 495.515,80.9238 493.5,79.5 Z"/></g>
<g><path style="opacity:0.141" fill="#f2e5c6" d="M 191.5,77.5 C 211.472,79.2677 229.805,85.6011 246.5,96.5C 256.529,89.5742 267.529,84.9076 279.5,82.5C 268.177,86.6591 257.177,91.6591 246.5,97.5C 236.472,92.051 226.139,87.3843 215.5,83.5C 207.457,81.4997 199.457,79.4997 191.5,77.5 Z"/></g>
<g><path style="opacity:1" fill="#a07929" d="M 159.5,77.5 C 159.833,77.5 160.167,77.5 160.5,77.5C 170.833,77.5 181.167,77.5 191.5,77.5C 199.457,79.4997 207.457,81.4997 215.5,83.5C 215.5,84.1667 215.5,84.8333 215.5,85.5C 214.833,85.5 214.167,85.5 213.5,85.5C 197.387,80.1249 180.72,78.1249 163.5,79.5C 161.901,79.7678 160.568,79.4345 159.5,78.5C 159.5,78.1667 159.5,77.8333 159.5,77.5 Z"/></g>
<g><path style="opacity:0.141" fill="#f6ebcd" d="M 491.5,79.5 C 491.5,79.1667 491.5,78.8333 491.5,78.5C 493.857,78.3367 496.19,78.5034 498.5,79C 502.756,80.6306 507.09,81.9639 511.5,83C 514.448,84.2373 517.115,85.7373 519.5,87.5C 513.034,85.9001 506.701,83.9001 500.5,81.5C 498.485,80.0762 496.152,79.4095 493.5,79.5C 492.833,79.5 492.167,79.5 491.5,79.5 Z"/></g>
<g><path style="opacity:1" fill="#f1c740" d="M 163.5,79.5 C 180.72,78.1249 197.387,80.1249 213.5,85.5C 201.126,83.3468 188.793,82.0135 176.5,81.5C 171.334,81.0509 166.501,82.0509 162,84.5C 154.518,81.3668 148.018,82.8668 142.5,89C 140.432,89.6869 138.432,89.5202 136.5,88.5C 135.808,89.0253 135.308,89.6919 135,90.5C 132.315,90.1727 129.482,90.1727 126.5,90.5C 128.674,88.9186 131.007,87.4186 133.5,86C 143.514,83.2578 153.514,81.0911 163.5,79.5 Z"/></g>
<g><path style="opacity:1" fill="#f9d03f" d="M 213.5,85.5 C 214.167,85.5 214.833,85.5 215.5,85.5C 221.769,87.9676 227.769,90.9676 233.5,94.5C 230.266,93.7402 227.099,92.7402 224,91.5C 223.692,92.3081 223.192,92.9747 222.5,93.5C 220.228,91.8894 218.061,90.8894 216,90.5C 212.691,92.7236 213.191,94.0569 217.5,94.5C 215.376,95.1494 213.376,95.9827 211.5,97C 215.861,97.6703 218.861,100.004 220.5,104C 221.448,104.483 222.448,104.649 223.5,104.5C 223.815,102.774 223.981,101.107 224,99.5C 222.491,98.9103 220.991,98.2436 219.5,97.5C 220.035,95.8987 221.035,95.3987 222.5,96C 229.032,100.391 233.365,106.391 235.5,114C 235.026,115.608 234.359,115.774 233.5,114.5C 231.266,112.619 229.933,110.285 229.5,107.5C 227.549,107.773 226.049,107.107 225,105.5C 223.625,107.937 223.125,110.603 223.5,113.5C 224.822,113.33 225.989,113.663 227,114.5C 229.908,120.685 228.075,124.351 221.5,125.5C 221.5,128.833 221.5,132.167 221.5,135.5C 220.292,134.766 218.959,134.433 217.5,134.5C 217.137,139.713 214.303,143.046 209,144.5C 206.52,148.135 205.02,152.135 204.5,156.5C 203.5,156.5 202.5,156.5 201.5,156.5C 207.993,142.84 215.993,130.174 225.5,118.5C 216.986,112.881 207.652,109.215 197.5,107.5C 194.742,106.239 191.742,105.406 188.5,105C 175.73,103.942 163.063,104.609 150.5,107C 143.024,109.576 135.691,112.409 128.5,115.5C 124.614,109.061 121.28,102.394 118.5,95.5C 118.608,94.5581 118.941,93.7247 119.5,93C 121.854,92.1529 124.188,91.3195 126.5,90.5C 129.482,90.1727 132.315,90.1727 135,90.5C 135.308,89.6919 135.808,89.0253 136.5,88.5C 138.432,89.5202 140.432,89.6869 142.5,89C 148.018,82.8668 154.518,81.3668 162,84.5C 166.501,82.0509 171.334,81.0509 176.5,81.5C 188.793,82.0135 201.126,83.3468 213.5,85.5 Z"/></g>
<g><path style="opacity:1" fill="#f8cf40" d="M 337.5,80.5 C 347.832,81.3629 357.832,83.3629 367.5,86.5C 365.143,86.3367 362.81,86.5034 360.5,87C 361.167,87.3333 361.833,87.6667 362.5,88C 359.272,89.5629 357.105,92.0629 356,95.5C 354.302,94.267 352.302,93.6004 350,93.5C 346.772,92.9923 344.272,93.9923 342.5,96.5C 345.5,97.1667 348.5,97.8333 351.5,98.5C 351.291,99.086 350.957,99.586 350.5,100C 347.429,100.147 344.596,100.98 342,102.5C 339.861,101.231 337.695,101.231 335.5,102.5C 340.815,103.387 346.148,104.054 351.5,104.5C 351.351,103.448 351.517,102.448 352,101.5C 356.494,101.169 360.994,102.002 365.5,104C 360.917,105.145 356.251,105.811 351.5,106C 354.192,106.743 356.525,107.91 358.5,109.5C 349.616,107.205 340.616,105.539 331.5,104.5C 328.016,103.835 324.349,103.501 320.5,103.5C 314.591,103.349 308.925,104.016 303.5,105.5C 297.139,106.673 290.806,108.007 284.5,109.5C 284.414,108.504 284.748,107.671 285.5,107C 289.558,106.66 293.558,105.993 297.5,105C 298.267,102.947 299.6,101.447 301.5,100.5C 307.459,101.414 313.459,101.747 319.5,101.5C 319.5,100.5 319.5,99.5 319.5,98.5C 323.312,97.7188 326.979,96.3855 330.5,94.5C 327.074,94.0253 323.908,93.0253 321,91.5C 320,92.1667 319,92.8333 318,93.5C 315.379,93.2964 312.545,93.2964 309.5,93.5C 309.433,96.766 311.099,98.266 314.5,98C 313.5,98.3333 312.5,98.6667 311.5,99C 305.528,98.5762 299.528,98.0762 293.5,97.5C 293.238,96.0222 293.571,94.6888 294.5,93.5C 297.421,94.4066 300.421,94.7399 303.5,94.5C 303.5,93.5 303.5,92.5 303.5,91.5C 300.278,91.8919 297.278,91.3919 294.5,90C 301.5,89.6667 308.5,89.3333 315.5,89C 317.59,87.5597 319.756,87.7264 322,89.5C 330.828,86.0184 339.995,84.8518 349.5,86C 345.284,87.2036 340.951,87.8702 336.5,88C 335.663,89.0113 335.33,90.1779 335.5,91.5C 341.169,91.3568 346.669,91.3568 352,91.5C 354.02,90.9681 354.853,89.6348 354.5,87.5C 353.5,87.5 352.5,87.5 351.5,87.5C 351.714,85.8561 351.38,84.3561 350.5,83C 346.661,82.541 342.828,82.041 339,81.5C 329.384,81.7924 319.884,82.7924 310.5,84.5C 307.228,83.5153 303.895,82.8486 300.5,82.5C 295.386,84.6114 290.053,85.778 284.5,86C 283.833,87 283.167,88 282.5,89C 278.83,89.2792 275.163,89.1125 271.5,88.5C 279.848,85.245 288.515,82.9117 297.5,81.5C 310.815,80.6673 324.149,80.3339 337.5,80.5 Z"/></g>
<g><path style="opacity:0.141" fill="#ebdbc1" d="M 519.5,87.5 C 528.379,88.539 531.212,93.2056 528,101.5C 526.071,105.036 523.904,108.369 521.5,111.5C 523.038,105.973 525.038,100.64 527.5,95.5C 527.333,94.5 527.167,93.5 527,92.5C 524.176,91.1819 521.676,89.5152 519.5,87.5 Z"/></g>
<g><path style="opacity:1" fill="#f9d13d" d="M 501.5,84.5 C 509.703,86.1338 517.369,89.1338 524.5,93.5C 524.833,94.3333 525.167,95.1667 525.5,96C 522.793,101.914 519.959,107.748 517,113.5C 514.461,116.067 511.961,116.067 509.5,113.5C 507.744,111.055 505.411,109.222 502.5,108C 499.443,107.744 496.443,107.244 493.5,106.5C 492.749,105.624 492.249,104.624 492,103.5C 490.644,104.38 489.144,104.714 487.5,104.5C 487.5,103.5 487.5,102.5 487.5,101.5C 482.97,100.321 478.47,98.9877 474,97.5C 472.289,97.4393 470.956,98.1059 470,99.5C 469.544,100.744 470.044,101.577 471.5,102C 467.5,102.667 463.5,102.667 459.5,102C 459.167,101.667 458.833,101.333 458.5,101C 460.167,100.667 461.833,100.333 463.5,100C 458.5,99.6667 453.5,99.3333 448.5,99C 442.487,98.0209 436.487,96.6876 430.5,95C 430.167,94.6667 429.833,94.3333 429.5,94C 435.5,93.3333 441.5,93.3333 447.5,94C 448.381,95.4705 449.714,96.3038 451.5,96.5C 457.175,97.4013 462.841,97.9013 468.5,98C 467.833,97.6667 467.167,97.3333 466.5,97C 467.406,95.3005 467.739,93.4672 467.5,91.5C 471.252,93.3025 475.252,94.3025 479.5,94.5C 479.5,92.5 479.5,90.5 479.5,88.5C 483.308,88.8368 486.974,88.3368 490.5,87C 487.028,85.4201 483.362,85.0867 479.5,86C 474.648,88.2421 469.648,89.0754 464.5,88.5C 464.023,87.5224 463.357,86.6891 462.5,86C 459.086,85.7031 455.753,85.0365 452.5,84C 453.737,83.7679 454.737,83.2679 455.5,82.5C 470.761,81.8575 486.094,82.5242 501.5,84.5 Z"/></g>
<g><path style="opacity:1" fill="#f9d13e" d="M 284.5,109.5 C 280.763,111.531 276.763,113.198 272.5,114.5C 270.487,115.969 268.82,117.636 267.5,119.5C 268.08,121.749 269.413,123.415 271.5,124.5C 274.933,127.601 277.6,131.268 279.5,135.5C 280.707,143.153 283.873,149.819 289,155.5C 288.732,159.706 289.066,164.039 290,168.5C 292.62,171.506 294.787,174.839 296.5,178.5C 296.54,183.193 296.873,187.859 297.5,192.5C 296.167,192.5 294.833,192.5 293.5,192.5C 293.771,187.087 293.271,181.754 292,176.5C 290.129,175.003 289.129,173.003 289,170.5C 288.333,169.167 287.667,169.167 287,170.5C 287.291,175.811 287.791,181.144 288.5,186.5C 288.309,194.442 286.809,202.109 284,209.5C 283.501,214.155 283.334,218.821 283.5,223.5C 283.167,223.5 282.833,223.5 282.5,223.5C 281.266,198.125 274.432,174.459 262,152.5C 258.428,146.095 253.928,140.428 248.5,135.5C 251.206,134.637 253.539,133.137 255.5,131C 254.978,130.05 254.311,129.216 253.5,128.5C 253.672,125.223 255.005,122.223 257.5,119.5C 257.314,117.42 256.314,115.92 254.5,115C 256.001,113.748 257.668,112.748 259.5,112C 255.066,110.072 250.399,109.072 245.5,109C 248.96,106.56 252.627,104.727 256.5,103.5C 256.113,102.28 255.28,101.613 254,101.5C 249.502,104.256 245.168,103.922 241,100.5C 238.435,101.411 235.935,101.078 233.5,99.5C 234.167,98.8333 234.833,98.1667 235.5,97.5C 234.388,96.7348 233.721,95.7348 233.5,94.5C 237.967,96.2339 242.301,98.2339 246.5,100.5C 254.392,95.7217 262.725,91.7217 271.5,88.5C 275.163,89.1125 278.83,89.2792 282.5,89C 283.167,88 283.833,87 284.5,86C 290.053,85.778 295.386,84.6114 300.5,82.5C 303.895,82.8486 307.228,83.5153 310.5,84.5C 319.884,82.7924 329.384,81.7924 339,81.5C 342.828,82.041 346.661,82.541 350.5,83C 351.38,84.3561 351.714,85.8561 351.5,87.5C 352.5,87.5 353.5,87.5 354.5,87.5C 354.853,89.6348 354.02,90.9681 352,91.5C 346.669,91.3568 341.169,91.3568 335.5,91.5C 335.33,90.1779 335.663,89.0113 336.5,88C 340.951,87.8702 345.284,87.2036 349.5,86C 339.995,84.8518 330.828,86.0184 322,89.5C 319.756,87.7264 317.59,87.5597 315.5,89C 308.5,89.3333 301.5,89.6667 294.5,90C 297.278,91.3919 300.278,91.8919 303.5,91.5C 303.5,92.5 303.5,93.5 303.5,94.5C 300.421,94.7399 297.421,94.4066 294.5,93.5C 293.571,94.6888 293.238,96.0222 293.5,97.5C 299.528,98.0762 305.528,98.5762 311.5,99C 312.5,98.6667 313.5,98.3333 314.5,98C 311.099,98.266 309.433,96.766 309.5,93.5C 312.545,93.2964 315.379,93.2964 318,93.5C 319,92.8333 320,92.1667 321,91.5C 323.908,93.0253 327.074,94.0253 330.5,94.5C 326.979,96.3855 323.312,97.7188 319.5,98.5C 319.5,99.5 319.5,100.5 319.5,101.5C 313.459,101.747 307.459,101.414 301.5,100.5C 299.6,101.447 298.267,102.947 297.5,105C 293.558,105.993 289.558,106.66 285.5,107C 284.748,107.671 284.414,108.504 284.5,109.5 Z"/></g>
<g><path style="opacity:1" fill="#a47d29" d="M 303.5,77.5 C 303.833,77.5 304.167,77.5 304.5,77.5C 317.197,77.246 329.863,77.5794 342.5,78.5C 345.273,79.6572 348.273,80.3239 351.5,80.5C 359.053,81.3881 366.386,83.2215 373.5,86C 381.43,90.133 389.43,93.9663 397.5,97.5C 403.831,94.67 409.831,91.3366 415.5,87.5C 421.399,85.5248 427.399,83.8581 433.5,82.5C 437.427,82.0743 441.093,81.0743 444.5,79.5C 448.387,79.3541 452.054,78.6874 455.5,77.5C 457.833,77.5 460.167,77.5 462.5,77.5C 472.302,77.0502 481.969,77.7169 491.5,79.5C 492.167,79.5 492.833,79.5 493.5,79.5C 495.515,80.9238 497.848,81.5905 500.5,81.5C 506.701,83.9001 513.034,85.9001 519.5,87.5C 521.676,89.5152 524.176,91.1819 527,92.5C 527.167,93.5 527.333,94.5 527.5,95.5C 525.038,100.64 523.038,105.973 521.5,111.5C 519.921,113.23 518.254,115.064 516.5,117C 515.5,117.167 514.5,117.333 513.5,117.5C 507.857,114.585 501.857,112.585 495.5,111.5C 494.486,110.326 493.153,109.66 491.5,109.5C 489.485,108.076 487.152,107.41 484.5,107.5C 481.833,107.5 479.167,107.5 476.5,107.5C 470.355,106.51 464.022,106.177 457.5,106.5C 466.348,105.304 475.348,105.304 484.5,106.5C 493.241,107.435 501.574,109.768 509.5,113.5C 511.961,116.067 514.461,116.067 517,113.5C 519.959,107.748 522.793,101.914 525.5,96C 525.167,95.1667 524.833,94.3333 524.5,93.5C 517.369,89.1338 509.703,86.1338 501.5,84.5C 480.045,78.177 458.379,77.8436 436.5,83.5C 432.494,84.2221 428.494,85.0555 424.5,86C 423.058,86.3768 422.058,87.2101 421.5,88.5C 413.32,91.8529 405.487,95.8529 398,100.5C 393.921,98.2382 389.754,96.2382 385.5,94.5C 379.7,91.2639 373.7,88.5973 367.5,86.5C 357.832,83.3629 347.832,81.3629 337.5,80.5C 332.01,79.8339 326.343,79.5005 320.5,79.5C 312.6,79.2822 304.934,79.9489 297.5,81.5C 288.515,82.9117 279.848,85.245 271.5,88.5C 262.725,91.7217 254.392,95.7217 246.5,100.5C 242.301,98.2339 237.967,96.2339 233.5,94.5C 227.769,90.9676 221.769,87.9676 215.5,85.5C 215.5,84.8333 215.5,84.1667 215.5,83.5C 226.139,87.3843 236.472,92.051 246.5,97.5C 257.177,91.6591 268.177,86.6591 279.5,82.5C 287.577,80.6392 295.577,78.9726 303.5,77.5 Z"/></g>
<g><path style="opacity:0.082" fill="#f1e2c7" d="M 348.5,78.5 C 357.747,79.5615 366.747,81.7282 375.5,85C 383.134,88.4028 390.634,91.9028 398,95.5C 402.842,93.6612 407.342,91.1612 411.5,88C 412.793,87.51 414.127,87.3433 415.5,87.5C 409.831,91.3366 403.831,94.67 397.5,97.5C 389.43,93.9663 381.43,90.133 373.5,86C 366.386,83.2215 359.053,81.3881 351.5,80.5C 350.5,79.8333 349.5,79.1667 348.5,78.5 Z"/></g>
<g><path style="opacity:1" fill="#c89b29" d="M 436.5,83.5 C 431.745,85.6126 426.745,87.2792 421.5,88.5C 422.058,87.2101 423.058,86.3768 424.5,86C 428.494,85.0555 432.494,84.2221 436.5,83.5 Z"/></g>
<g><path style="opacity:0.341" fill="#e4d4b6" d="M 439.5,79.5 C 437.5,80.5 435.5,81.5 433.5,82.5C 427.399,83.8581 421.399,85.5248 415.5,87.5C 418.177,85.5399 421.177,84.0399 424.5,83C 429.384,81.3161 434.384,80.1495 439.5,79.5 Z"/></g>
<g><path style="opacity:0.831" fill="#b3965b" d="M 439.5,79.5 C 441.167,79.5 442.833,79.5 444.5,79.5C 441.093,81.0743 437.427,82.0743 433.5,82.5C 435.5,81.5 437.5,80.5 439.5,79.5 Z"/></g>
<g><path style="opacity:1" fill="#d9ae32" d="M 337.5,80.5 C 324.149,80.3339 310.815,80.6673 297.5,81.5C 304.934,79.9489 312.6,79.2822 320.5,79.5C 326.343,79.5005 332.01,79.8339 337.5,80.5 Z"/></g>
<g><path style="opacity:0.71" fill="#b9985d" d="M 342.5,78.5 C 344.5,78.5 346.5,78.5 348.5,78.5C 349.5,79.1667 350.5,79.8333 351.5,80.5C 348.273,80.3239 345.273,79.6572 342.5,78.5 Z"/></g>
<g><path style="opacity:0.541" fill="#decba6" d="M 452.5,77.5 C 453.5,77.5 454.5,77.5 455.5,77.5C 452.054,78.6874 448.387,79.3541 444.5,79.5C 442.833,79.5 441.167,79.5 439.5,79.5C 443.639,78.4371 447.972,77.7704 452.5,77.5 Z"/></g>
<g><path style="opacity:1" fill="#f9d03f" d="M 367.5,86.5 C 373.7,88.5973 379.7,91.2639 385.5,94.5C 385.721,95.7348 386.388,96.7348 387.5,97.5C 390.289,98.3642 392.622,99.8642 394.5,102C 392.109,102.691 392.109,103.691 394.5,105C 399.882,105.307 405.215,105.974 410.5,107C 413.15,109.596 416.316,111.096 420,111.5C 422.255,110.958 424.088,109.791 425.5,108C 428.053,107.149 430.386,107.482 432.5,109C 430.404,109.737 428.737,110.903 427.5,112.5C 424.908,113.999 422.241,115.499 419.5,117C 418.748,117.671 418.414,118.504 418.5,119.5C 419.075,121.411 420.075,123.078 421.5,124.5C 420.21,125.058 419.377,126.058 419,127.5C 419.218,135.115 416.885,141.782 412,147.5C 410.735,145.187 409.235,143.02 407.5,141C 408.931,138.462 408.264,136.628 405.5,135.5C 401.025,134.215 396.525,133.215 392,132.5C 391.667,132.833 391.333,133.167 391,133.5C 389.815,131.441 388.648,131.274 387.5,133C 389.083,134.735 390.416,136.568 391.5,138.5C 387.687,144.109 383.853,149.776 380,155.5C 377.211,160.742 374.711,166.075 372.5,171.5C 372.5,170.167 372.5,168.833 372.5,167.5C 371.5,167.5 370.5,167.5 369.5,167.5C 369.187,164.753 369.52,162.086 370.5,159.5C 372.258,160.128 373.758,161.128 375,162.5C 373.92,159.64 372.753,156.64 371.5,153.5C 373.804,151.062 375.47,148.229 376.5,145C 375.358,141.857 375.358,138.69 376.5,135.5C 376.431,133.291 375.764,131.291 374.5,129.5C 372.238,132.367 370.238,135.367 368.5,138.5C 368.967,140.568 369.634,142.568 370.5,144.5C 370.032,146.134 369.032,147.3 367.5,148C 371.168,151.237 371.335,154.737 368,158.5C 366.414,157.624 364.914,156.624 363.5,155.5C 362.264,156.246 360.93,156.579 359.5,156.5C 359.034,154.799 359.034,153.299 359.5,152C 358.975,151.308 358.308,150.808 357.5,150.5C 353.797,153.357 353.797,156.19 357.5,159C 355.866,159.494 354.199,159.66 352.5,159.5C 352.897,164.959 352.397,170.292 351,175.5C 350.077,174.241 349.243,172.908 348.5,171.5C 347.935,173.544 346.935,175.21 345.5,176.5C 351.507,154.984 361.841,135.817 376.5,119C 376.355,118.228 376.022,117.561 375.5,117C 369.846,114.396 364.179,111.896 358.5,109.5C 356.525,107.91 354.192,106.743 351.5,106C 356.251,105.811 360.917,105.145 365.5,104C 360.994,102.002 356.494,101.169 352,101.5C 351.517,102.448 351.351,103.448 351.5,104.5C 346.148,104.054 340.815,103.387 335.5,102.5C 337.695,101.231 339.861,101.231 342,102.5C 344.596,100.98 347.429,100.147 350.5,100C 350.957,99.586 351.291,99.086 351.5,98.5C 348.5,97.8333 345.5,97.1667 342.5,96.5C 344.272,93.9923 346.772,92.9923 350,93.5C 352.302,93.6004 354.302,94.267 356,95.5C 357.105,92.0629 359.272,89.5629 362.5,88C 361.833,87.6667 361.167,87.3333 360.5,87C 362.81,86.5034 365.143,86.3367 367.5,86.5 Z"/></g>
<g><path style="opacity:1" fill="#f9d03f" d="M 455.5,82.5 C 454.737,83.2679 453.737,83.7679 452.5,84C 455.753,85.0365 459.086,85.7031 462.5,86C 463.357,86.6891 464.023,87.5224 464.5,88.5C 469.648,89.0754 474.648,88.2421 479.5,86C 483.362,85.0867 487.028,85.4201 490.5,87C 486.974,88.3368 483.308,88.8368 479.5,88.5C 479.5,90.5 479.5,92.5 479.5,94.5C 475.252,94.3025 471.252,93.3025 467.5,91.5C 467.739,93.4672 467.406,95.3005 466.5,97C 467.167,97.3333 467.833,97.6667 468.5,98C 462.841,97.9013 457.175,97.4013 451.5,96.5C 449.714,96.3038 448.381,95.4705 447.5,94C 441.5,93.3333 435.5,93.3333 429.5,94C 429.833,94.3333 430.167,94.6667 430.5,95C 436.487,96.6876 442.487,98.0209 448.5,99C 453.5,99.3333 458.5,99.6667 463.5,100C 461.833,100.333 460.167,100.667 458.5,101C 458.833,101.333 459.167,101.667 459.5,102C 463.5,102.667 467.5,102.667 471.5,102C 470.044,101.577 469.544,100.744 470,99.5C 470.956,98.1059 472.289,97.4393 474,97.5C 478.47,98.9877 482.97,100.321 487.5,101.5C 487.5,102.5 487.5,103.5 487.5,104.5C 489.144,104.714 490.644,104.38 492,103.5C 492.249,104.624 492.749,105.624 493.5,106.5C 496.443,107.244 499.443,107.744 502.5,108C 505.411,109.222 507.744,111.055 509.5,113.5C 501.574,109.768 493.241,107.435 484.5,106.5C 483.737,105.732 482.737,105.232 481.5,105C 470.807,104.263 460.14,104.43 449.5,105.5C 443.828,105.466 438.328,104.466 433,102.5C 431.374,103.289 429.874,104.289 428.5,105.5C 427.468,103.96 426.135,103.46 424.5,104C 425.815,105.395 425.481,106.395 423.5,107C 420.854,107.497 418.187,107.664 415.5,107.5C 415.045,105.633 414.378,103.8 413.5,102C 414.025,99.313 414.025,96.4797 413.5,93.5C 422.596,90.0784 431.929,86.9117 441.5,84C 446.171,83.4625 450.838,82.9625 455.5,82.5 Z"/></g>
<g><path style="opacity:1" fill="#f8ce41" d="M 501.5,84.5 C 486.094,82.5242 470.761,81.8575 455.5,82.5C 450.838,82.9625 446.171,83.4625 441.5,84C 431.929,86.9117 422.596,90.0784 413.5,93.5C 414.025,96.4797 414.025,99.313 413.5,102C 414.378,103.8 415.045,105.633 415.5,107.5C 418.187,107.664 420.854,107.497 423.5,107C 425.481,106.395 425.815,105.395 424.5,104C 426.135,103.46 427.468,103.96 428.5,105.5C 429.874,104.289 431.374,103.289 433,102.5C 438.328,104.466 443.828,105.466 449.5,105.5C 449.5,105.833 449.5,106.167 449.5,106.5C 446.126,106.674 442.793,107.174 439.5,108C 435.724,110.11 431.724,111.61 427.5,112.5C 428.737,110.903 430.404,109.737 432.5,109C 430.386,107.482 428.053,107.149 425.5,108C 424.088,109.791 422.255,110.958 420,111.5C 416.316,111.096 413.15,109.596 410.5,107C 405.215,105.974 399.882,105.307 394.5,105C 392.109,103.691 392.109,102.691 394.5,102C 392.622,99.8642 390.289,98.3642 387.5,97.5C 386.388,96.7348 385.721,95.7348 385.5,94.5C 389.754,96.2382 393.921,98.2382 398,100.5C 405.487,95.8529 413.32,91.8529 421.5,88.5C 426.745,87.2792 431.745,85.6126 436.5,83.5C 458.379,77.8436 480.045,78.177 501.5,84.5 Z"/></g>
<g><path style="opacity:1" fill="#fad23d" d="M 233.5,94.5 C 233.721,95.7348 234.388,96.7348 235.5,97.5C 234.833,98.1667 234.167,98.8333 233.5,99.5C 235.935,101.078 238.435,101.411 241,100.5C 245.168,103.922 249.502,104.256 254,101.5C 255.28,101.613 256.113,102.28 256.5,103.5C 252.627,104.727 248.96,106.56 245.5,109C 250.399,109.072 255.066,110.072 259.5,112C 257.668,112.748 256.001,113.748 254.5,115C 256.314,115.92 257.314,117.42 257.5,119.5C 255.005,122.223 253.672,125.223 253.5,128.5C 254.311,129.216 254.978,130.05 255.5,131C 253.539,133.137 251.206,134.637 248.5,135.5C 248.5,135.167 248.5,134.833 248.5,134.5C 246.765,131.933 244.765,131.933 242.5,134.5C 241.833,133.833 241.167,133.167 240.5,132.5C 237.788,136.073 234.955,138.739 232,140.5C 230.908,143.044 230.241,145.711 230,148.5C 227.952,147.902 226.785,146.569 226.5,144.5C 227.346,140.882 227.68,137.215 227.5,133.5C 225.5,134.167 223.5,134.833 221.5,135.5C 221.5,132.167 221.5,128.833 221.5,125.5C 228.075,124.351 229.908,120.685 227,114.5C 225.989,113.663 224.822,113.33 223.5,113.5C 223.125,110.603 223.625,107.937 225,105.5C 226.049,107.107 227.549,107.773 229.5,107.5C 229.933,110.285 231.266,112.619 233.5,114.5C 234.359,115.774 235.026,115.608 235.5,114C 233.365,106.391 229.032,100.391 222.5,96C 221.035,95.3987 220.035,95.8987 219.5,97.5C 220.991,98.2436 222.491,98.9103 224,99.5C 223.981,101.107 223.815,102.774 223.5,104.5C 222.448,104.649 221.448,104.483 220.5,104C 218.861,100.004 215.861,97.6703 211.5,97C 213.376,95.9827 215.376,95.1494 217.5,94.5C 213.191,94.0569 212.691,92.7236 216,90.5C 218.061,90.8894 220.228,91.8894 222.5,93.5C 223.192,92.9747 223.692,92.3081 224,91.5C 227.099,92.7402 230.266,93.7402 233.5,94.5 Z"/></g>
<g><path style="opacity:1" fill="#d1a32a" d="M 331.5,104.5 C 322.151,104.483 312.818,104.817 303.5,105.5C 308.925,104.016 314.591,103.349 320.5,103.5C 324.349,103.501 328.016,103.835 331.5,104.5 Z"/></g>
<g><path style="opacity:1" fill="#a57f30" d="M 159.5,78.5 C 160.568,79.4345 161.901,79.7678 163.5,79.5C 153.514,81.0911 143.514,83.2578 133.5,86C 131.007,87.4186 128.674,88.9186 126.5,90.5C 124.188,91.3195 121.854,92.1529 119.5,93C 118.941,93.7247 118.608,94.5581 118.5,95.5C 121.28,102.394 124.614,109.061 128.5,115.5C 129.919,116.451 131.585,116.784 133.5,116.5C 131.368,119.037 129.201,119.037 127,116.5C 123.907,109.977 120.573,103.644 117,97.5C 116.333,95.8333 116.333,94.1667 117,92.5C 125.313,87.4256 134.147,83.5923 143.5,81C 148.755,79.6241 154.088,78.7908 159.5,78.5 Z"/></g>
<g><path style="opacity:1" fill="#a87f20" d="M 197.5,107.5 C 186.388,105.591 175.388,105.258 164.5,106.5C 163.081,107.451 161.415,107.784 159.5,107.5C 156.848,107.41 154.515,108.076 152.5,109.5C 145.846,110.995 139.513,113.328 133.5,116.5C 131.585,116.784 129.919,116.451 128.5,115.5C 135.691,112.409 143.024,109.576 150.5,107C 163.063,104.609 175.73,103.942 188.5,105C 191.742,105.406 194.742,106.239 197.5,107.5 Z"/></g>
<g><path style="opacity:1" fill="#ae8317" d="M 484.5,106.5 C 475.348,105.304 466.348,105.304 457.5,106.5C 457.167,106.5 456.833,106.5 456.5,106.5C 454.167,106.5 451.833,106.5 449.5,106.5C 449.5,106.167 449.5,105.833 449.5,105.5C 460.14,104.43 470.807,104.263 481.5,105C 482.737,105.232 483.737,105.732 484.5,106.5 Z"/></g>
<g><path style="opacity:1" fill="#a17b2a" d="M 331.5,104.5 C 340.616,105.539 349.616,107.205 358.5,109.5C 364.179,111.896 369.846,114.396 375.5,117C 376.022,117.561 376.355,118.228 376.5,119C 361.841,135.817 351.507,154.984 345.5,176.5C 345.068,177.71 344.401,178.71 343.5,179.5C 343.5,178.167 343.5,176.833 343.5,175.5C 344.188,171.416 345.188,167.416 346.5,163.5C 348.46,160.373 350.127,157.04 351.5,153.5C 352.674,152.486 353.34,151.153 353.5,149.5C 358.938,138.72 365.605,128.72 373.5,119.5C 372.395,118.108 371.061,116.941 369.5,116C 364.502,114.164 359.502,112.664 354.5,111.5C 339.463,106.647 324.129,105.314 308.5,107.5C 299.381,107.855 290.714,109.855 282.5,113.5C 281.833,113.5 281.167,113.5 280.5,113.5C 277.759,113.707 275.426,114.707 273.5,116.5C 272.828,117.267 271.995,117.934 271,118.5C 270.333,119.167 270.333,119.833 271,120.5C 277.464,127.783 283.298,135.45 288.5,143.5C 289.338,143.842 289.672,144.508 289.5,145.5C 289.992,147.819 290.992,149.819 292.5,151.5C 292.259,153.898 292.926,155.898 294.5,157.5C 296.229,163.766 298.563,169.766 301.5,175.5C 302.341,180.532 303.341,185.532 304.5,190.5C 305.34,194.985 306.34,199.319 307.5,203.5C 307.5,204.833 307.5,206.167 307.5,207.5C 307.5,210.167 307.5,212.833 307.5,215.5C 307.167,215.5 306.833,215.5 306.5,215.5C 305.895,204.774 303.895,194.441 300.5,184.5C 300.5,184.167 300.5,183.833 300.5,183.5C 296.962,165.852 289.962,149.852 279.5,135.5C 277.6,131.268 274.933,127.601 271.5,124.5C 270.92,122.251 269.587,120.585 267.5,119.5C 268.82,117.636 270.487,115.969 272.5,114.5C 276.763,113.198 280.763,111.531 284.5,109.5C 290.806,108.007 297.139,106.673 303.5,105.5C 312.818,104.817 322.151,104.483 331.5,104.5 Z"/></g>
<g><path style="opacity:0.4" fill="#e8d8b8" d="M 456.5,106.5 C 456.833,106.5 457.167,106.5 457.5,106.5C 464.022,106.177 470.355,106.51 476.5,107.5C 474.167,107.5 471.833,107.5 469.5,107.5C 463.569,108.384 457.569,109.051 451.5,109.5C 450.167,109.5 448.833,109.5 447.5,109.5C 450.408,108.184 453.408,107.184 456.5,106.5 Z"/></g>
<g><path style="opacity:0.29" fill="#f5ecd1" d="M 179.5,107.5 C 180.833,107.5 182.167,107.5 183.5,107.5C 190.561,107.561 197.227,108.894 203.5,111.5C 195.405,110.01 187.405,108.677 179.5,107.5 Z"/></g>
<g><path style="opacity:0.239" fill="#f7eed9" d="M 469.5,107.5 C 471.833,107.5 474.167,107.5 476.5,107.5C 479.167,107.5 481.833,107.5 484.5,107.5C 486.515,108.924 488.848,109.59 491.5,109.5C 493.153,109.66 494.486,110.326 495.5,111.5C 486.747,109.928 478.08,108.595 469.5,107.5 Z"/></g>
<g><path style="opacity:0.867" fill="#c2a56b" d="M 484.5,107.5 C 487.152,107.41 489.485,108.076 491.5,109.5C 488.848,109.59 486.515,108.924 484.5,107.5 Z"/></g>
<g><path style="opacity:0.114" fill="#e9dbbc" d="M 308.5,107.5 C 324.129,105.314 339.463,106.647 354.5,111.5C 342.286,109.143 329.953,107.81 317.5,107.5C 314.5,107.5 311.5,107.5 308.5,107.5 Z"/></g>
<g><path style="opacity:0.157" fill="#f0e0ce" d="M 447.5,109.5 C 448.833,109.5 450.167,109.5 451.5,109.5C 448.124,111.082 444.458,111.749 440.5,111.5C 442.515,110.076 444.848,109.41 447.5,109.5 Z"/></g>
<g><path style="opacity:0.161" fill="#f6ecd4" d="M 308.5,107.5 C 311.5,107.5 314.5,107.5 317.5,107.5C 305.318,108.876 293.318,111.543 281.5,115.5C 281.833,114.833 282.167,114.167 282.5,113.5C 290.714,109.855 299.381,107.855 308.5,107.5 Z"/></g>
<g><path style="opacity:0.027" fill="#fcf5dc" d="M 203.5,111.5 C 208.324,112.213 212.657,113.88 216.5,116.5C 211.868,115.404 207.534,113.737 203.5,111.5 Z"/></g>
<g><path style="opacity:0.988" fill="#9f803e" d="M 280.5,113.5 C 278.574,115.293 276.241,116.293 273.5,116.5C 275.426,114.707 277.759,113.707 280.5,113.5 Z"/></g>
<g><path style="opacity:0.341" fill="#ebddbc" d="M 280.5,113.5 C 281.167,113.5 281.833,113.5 282.5,113.5C 282.167,114.167 281.833,114.833 281.5,115.5C 278.581,116.293 275.915,117.626 273.5,119.5C 279.345,127.003 284.345,135.003 288.5,143.5C 283.298,135.45 277.464,127.783 271,120.5C 270.333,119.833 270.333,119.167 271,118.5C 271.995,117.934 272.828,117.267 273.5,116.5C 276.241,116.293 278.574,115.293 280.5,113.5 Z"/></g>
<g><path style="opacity:0.067" fill="#ebdac0" d="M 495.5,111.5 C 501.857,112.585 507.857,114.585 513.5,117.5C 514.5,117.333 515.5,117.167 516.5,117C 518.254,115.064 519.921,113.23 521.5,111.5C 521.002,115.859 518.669,118.526 514.5,119.5C 507.926,117.204 501.593,114.537 495.5,111.5 Z"/></g>
<g><path style="opacity:0.137" fill="#efe2c6" d="M 159.5,77.5 C 159.5,77.8333 159.5,78.1667 159.5,78.5C 154.088,78.7908 148.755,79.6241 143.5,81C 134.147,83.5923 125.313,87.4256 117,92.5C 116.333,94.1667 116.333,95.8333 117,97.5C 120.573,103.644 123.907,109.977 127,116.5C 129.201,119.037 131.368,119.037 133.5,116.5C 139.513,113.328 145.846,110.995 152.5,109.5C 155.152,109.59 157.485,108.924 159.5,107.5C 161.415,107.784 163.081,107.451 164.5,106.5C 171.022,106.177 177.355,106.51 183.5,107.5C 182.167,107.5 180.833,107.5 179.5,107.5C 162.975,107.955 147.308,111.789 132.5,119C 129.653,119.944 127.153,119.444 125,117.5C 121.682,110.864 118.349,104.198 115,97.5C 114.675,95.4473 115.009,93.4473 116,91.5C 125.385,85.5616 135.552,81.3949 146.5,79C 150.79,78.0775 155.123,77.5775 159.5,77.5 Z"/></g>
<g><path style="opacity:0.525" fill="#bfa674" d="M 159.5,107.5 C 157.485,108.924 155.152,109.59 152.5,109.5C 154.515,108.076 156.848,107.41 159.5,107.5 Z"/></g>
<g><path style="opacity:0.118" fill="#f1e3c7" d="M 440.5,111.5 C 435.113,113.968 429.779,116.635 424.5,119.5C 429.386,125.363 433.386,131.696 436.5,138.5C 431.856,132.184 427.189,125.85 422.5,119.5C 422.833,118.833 423.167,118.167 423.5,117.5C 428.856,114.441 434.523,112.441 440.5,111.5 Z"/></g>
<g><path style="opacity:1" fill="#d0a834" d="M 267.5,119.5 C 269.587,120.585 270.92,122.251 271.5,124.5C 269.413,123.415 268.08,121.749 267.5,119.5 Z"/></g>
<g><path style="opacity:1" fill="#d0a12a" d="M 418.5,119.5 C 420.914,120.911 422.581,122.911 423.5,125.5C 422.833,125.167 422.167,124.833 421.5,124.5C 420.075,123.078 419.075,121.411 418.5,119.5 Z"/></g>
<g><path style="opacity:1" fill="#a37d2f" d="M 449.5,106.5 C 451.833,106.5 454.167,106.5 456.5,106.5C 453.408,107.184 450.408,108.184 447.5,109.5C 444.848,109.41 442.515,110.076 440.5,111.5C 434.523,112.441 428.856,114.441 423.5,117.5C 423.167,118.167 422.833,118.833 422.5,119.5C 427.189,125.85 431.856,132.184 436.5,138.5C 439.249,144.333 442.249,149.999 445.5,155.5C 446.267,159.93 447.933,163.93 450.5,167.5C 451.434,168.568 451.768,169.901 451.5,171.5C 459.784,199.079 462.451,227.079 459.5,255.5C 459.829,242.323 459.495,229.323 458.5,216.5C 458.101,212.989 457.434,209.656 456.5,206.5C 455.977,200.744 454.977,195.078 453.5,189.5C 449.614,168.494 441.28,149.494 428.5,132.5C 427.214,129.883 425.547,127.55 423.5,125.5C 422.581,122.911 420.914,120.911 418.5,119.5C 418.414,118.504 418.748,117.671 419.5,117C 422.241,115.499 424.908,113.999 427.5,112.5C 431.724,111.61 435.724,110.11 439.5,108C 442.793,107.174 446.126,106.674 449.5,106.5 Z"/></g>
<g><path style="opacity:0.247" fill="#f0e3ca" d="M 218.5,117.5 C 219.995,117.415 220.995,118.081 221.5,119.5C 213.593,129.404 206.926,140.071 201.5,151.5C 200.833,151.833 200.167,152.167 199.5,152.5C 201.359,147.777 203.526,143.11 206,138.5C 210.306,132.028 214.806,125.694 219.5,119.5C 219.137,118.817 218.804,118.15 218.5,117.5 Z"/></g>
<g><path style="opacity:0.149" fill="#efe1c2" d="M 354.5,111.5 C 359.502,112.664 364.502,114.164 369.5,116C 371.061,116.941 372.395,118.108 373.5,119.5C 365.605,128.72 358.938,138.72 353.5,149.5C 353.167,149.5 352.833,149.5 352.5,149.5C 357.127,138.515 363.46,128.515 371.5,119.5C 365.765,116.819 360.099,114.152 354.5,111.5 Z"/></g>
<g><path style="opacity:1" fill="#f9d040" d="M 421.5,124.5 C 422.167,124.833 422.833,125.167 423.5,125.5C 425.547,127.55 427.214,129.883 428.5,132.5C 429.104,137.477 430.604,142.144 433,146.5C 433.249,145.376 433.749,144.376 434.5,143.5C 437.394,148.511 439.06,153.844 439.5,159.5C 440.822,159.33 441.989,159.663 443,160.5C 442.954,163.633 443.954,166.3 446,168.5C 446.333,170.5 446.667,172.5 447,174.5C 449.475,179.443 451.641,184.443 453.5,189.5C 454.977,195.078 455.977,200.744 456.5,206.5C 457.359,221.816 457.692,237.149 457.5,252.5C 457.5,256.167 457.5,259.833 457.5,263.5C 456.011,267.792 454.677,272.125 453.5,276.5C 453.087,270.951 453.92,265.618 456,260.5C 456.5,253.508 456.666,246.508 456.5,239.5C 454.833,239.5 453.167,239.5 451.5,239.5C 451.333,228.828 451.5,218.161 452,207.5C 454,203.833 454,200.167 452,196.5C 451.667,197.5 451.333,198.5 451,199.5C 450.667,199.167 450.333,198.833 450,198.5C 449.832,206.853 449.332,215.187 448.5,223.5C 447.575,222.359 446.741,222.359 446,223.5C 445.853,236.536 445.187,249.536 444,262.5C 443.751,263.624 443.251,264.624 442.5,265.5C 440.517,261.275 440.183,256.942 441.5,252.5C 441.167,251.833 440.833,251.167 440.5,250.5C 439.719,251.729 439.219,253.062 439,254.5C 437.873,251.623 437.206,248.623 437,245.5C 435.603,250.708 435.103,256.041 435.5,261.5C 434.5,261.5 433.5,261.5 432.5,261.5C 432.998,256.848 433.331,252.181 433.5,247.5C 434.658,238.343 434.824,229.009 434,219.5C 433.665,215.264 432.832,211.264 431.5,207.5C 431.5,206.5 431.5,205.5 431.5,204.5C 427.39,181.628 418.89,160.628 406,141.5C 403.833,139.333 401.667,137.167 399.5,135C 398.5,134.333 397.5,134.333 396.5,135C 395.211,136.802 393.544,137.969 391.5,138.5C 390.416,136.568 389.083,134.735 387.5,133C 388.648,131.274 389.815,131.441 391,133.5C 391.333,133.167 391.667,132.833 392,132.5C 396.525,133.215 401.025,134.215 405.5,135.5C 408.264,136.628 408.931,138.462 407.5,141C 409.235,143.02 410.735,145.187 412,147.5C 416.885,141.782 419.218,135.115 419,127.5C 419.377,126.058 420.21,125.058 421.5,124.5 Z"/></g>
<g><path style="opacity:0.075" fill="#f0e2c3" d="M 436.5,138.5 C 440.79,143.409 443.79,149.076 445.5,155.5C 442.249,149.999 439.249,144.333 436.5,138.5 Z"/></g>
<g><path style="opacity:0.086" fill="#eee3c6" d="M 289.5,145.5 C 291.539,146.911 292.539,148.911 292.5,151.5C 290.992,149.819 289.992,147.819 289.5,145.5 Z"/></g>
<g><path style="opacity:1" fill="#a47e31" d="M 164.5,106.5 C 175.388,105.258 186.388,105.591 197.5,107.5C 207.652,109.215 216.986,112.881 225.5,118.5C 215.993,130.174 207.993,142.84 201.5,156.5C 201.5,156.833 201.5,157.167 201.5,157.5C 192.791,174.992 187.791,193.659 186.5,213.5C 185.85,215.435 185.517,217.435 185.5,219.5C 184.505,231.322 184.172,243.322 184.5,255.5C 183.056,249.058 182.39,242.392 182.5,235.5C 182.861,225.141 183.528,214.807 184.5,204.5C 185.344,201.655 186.01,198.655 186.5,195.5C 187.924,193.485 188.59,191.152 188.5,188.5C 189.092,185.873 189.425,183.206 189.5,180.5C 189.232,178.901 189.566,177.568 190.5,176.5C 193.484,169.227 196.484,161.893 199.5,154.5C 200.906,154.027 201.573,153.027 201.5,151.5C 206.926,140.071 213.593,129.404 221.5,119.5C 220.995,118.081 219.995,117.415 218.5,117.5C 217.508,117.672 216.842,117.338 216.5,116.5C 212.657,113.88 208.324,112.213 203.5,111.5C 197.227,108.894 190.561,107.561 183.5,107.5C 177.355,106.51 171.022,106.177 164.5,106.5 Z"/></g>
<g><path style="opacity:0.796" fill="#c6a67b" d="M 352.5,149.5 C 352.833,149.5 353.167,149.5 353.5,149.5C 353.34,151.153 352.674,152.486 351.5,153.5C 351.5,152.833 351.5,152.167 351.5,151.5C 351.328,150.508 351.662,149.842 352.5,149.5 Z"/></g>
<g><path style="opacity:0.996" fill="#a57e28" d="M 431.5,204.5 C 430.833,203.833 430.167,203.167 429.5,202.5C 429.113,199.794 428.113,197.461 426.5,195.5C 425.483,189.098 423.983,182.765 422,176.5C 421.617,175.944 421.117,175.611 420.5,175.5C 416.805,160.422 409.305,147.755 398,137.5C 392.966,140.868 388.966,145.202 386,150.5C 380.974,158.739 376.807,167.406 373.5,176.5C 371.58,179.339 369.913,182.339 368.5,185.5C 369.253,180.663 370.586,175.996 372.5,171.5C 374.711,166.075 377.211,160.742 380,155.5C 383.853,149.776 387.687,144.109 391.5,138.5C 393.544,137.969 395.211,136.802 396.5,135C 397.5,134.333 398.5,134.333 399.5,135C 401.667,137.167 403.833,139.333 406,141.5C 418.89,160.628 427.39,181.628 431.5,204.5 Z"/></g>
<g><path style="opacity:0.745" fill="#bd9f6b" d="M 201.5,151.5 C 201.573,153.027 200.906,154.027 199.5,154.5C 199.5,153.833 199.5,153.167 199.5,152.5C 200.167,152.167 200.833,151.833 201.5,151.5 Z"/></g>
<g><path style="opacity:0.741" fill="#cab480" d="M 292.5,151.5 C 293.674,152.514 294.34,153.847 294.5,155.5C 294.5,156.167 294.5,156.833 294.5,157.5C 292.926,155.898 292.259,153.898 292.5,151.5 Z"/></g>
<g><path style="opacity:0.231" fill="#f1e4c7" d="M 420.5,175.5 C 414.559,162.297 407.059,149.963 398,138.5C 386.044,152.413 377.211,168.079 371.5,185.5C 371.756,182.402 372.422,179.402 373.5,176.5C 376.807,167.406 380.974,158.739 386,150.5C 388.966,145.202 392.966,140.868 398,137.5C 409.305,147.755 416.805,160.422 420.5,175.5 Z"/></g>
<g><path style="opacity:1" fill="#f9d13d" d="M 372.5,171.5 C 370.586,175.996 369.253,180.663 368.5,185.5C 367.659,187.379 367.325,189.379 367.5,191.5C 366.082,194.02 365.082,196.687 364.5,199.5C 362.154,202.414 360.487,205.414 359.5,208.5C 359.712,229.57 361.212,250.57 364,271.5C 364.206,273.936 365.373,275.602 367.5,276.5C 370.66,284.645 374.66,292.312 379.5,299.5C 378.213,300.768 377.213,300.435 376.5,298.5C 374.52,299.484 372.853,300.817 371.5,302.5C 368.249,301.041 365.915,302.041 364.5,305.5C 365.325,306.386 366.325,306.719 367.5,306.5C 367.5,308.167 367.5,309.833 367.5,311.5C 362.829,310.445 360.829,307.445 361.5,302.5C 358.043,302.96 356.377,304.96 356.5,308.5C 347.552,297.148 342.052,284.148 340,269.5C 336.109,248.755 335.609,228.088 338.5,207.5C 341.612,199.925 343.279,191.925 343.5,183.5C 343.5,182.167 343.5,180.833 343.5,179.5C 344.401,178.71 345.068,177.71 345.5,176.5C 346.935,175.21 347.935,173.544 348.5,171.5C 349.243,172.908 350.077,174.241 351,175.5C 352.397,170.292 352.897,164.959 352.5,159.5C 354.199,159.66 355.866,159.494 357.5,159C 353.797,156.19 353.797,153.357 357.5,150.5C 358.308,150.808 358.975,151.308 359.5,152C 359.034,153.299 359.034,154.799 359.5,156.5C 360.93,156.579 362.264,156.246 363.5,155.5C 364.914,156.624 366.414,157.624 368,158.5C 371.335,154.737 371.168,151.237 367.5,148C 369.032,147.3 370.032,146.134 370.5,144.5C 369.634,142.568 368.967,140.568 368.5,138.5C 370.238,135.367 372.238,132.367 374.5,129.5C 375.764,131.291 376.431,133.291 376.5,135.5C 375.358,138.69 375.358,141.857 376.5,145C 375.47,148.229 373.804,151.062 371.5,153.5C 372.753,156.64 373.92,159.64 375,162.5C 373.758,161.128 372.258,160.128 370.5,159.5C 369.52,162.086 369.187,164.753 369.5,167.5C 370.5,167.5 371.5,167.5 372.5,167.5C 372.5,168.833 372.5,170.167 372.5,171.5 Z"/></g>
<g><path style="opacity:0.584" fill="#e2ccae" d="M 351.5,151.5 C 351.5,152.167 351.5,152.833 351.5,153.5C 350.127,157.04 348.46,160.373 346.5,163.5C 347.022,158.912 348.688,154.912 351.5,151.5 Z"/></g>
<g><path style="opacity:0.675" fill="#dbccad" d="M 445.5,155.5 C 447.922,159.076 449.589,163.076 450.5,167.5C 447.933,163.93 446.267,159.93 445.5,155.5 Z"/></g>
<g><path style="opacity:0.067" fill="#f7edd3" d="M 199.5,152.5 C 199.5,153.167 199.5,153.833 199.5,154.5C 196.484,161.893 193.484,169.227 190.5,176.5C 192.334,167.989 195.334,159.989 199.5,152.5 Z"/></g>
<g><path style="opacity:1" fill="#f9d03e" d="M 248.5,134.5 C 247.127,134.343 245.793,134.51 244.5,135C 226.735,154.708 216.069,177.874 212.5,204.5C 211.004,210.605 210.337,216.938 210.5,223.5C 209.197,244.877 211.864,265.71 218.5,286C 221.574,291.904 225.574,297.071 230.5,301.5C 226.473,299.511 222.307,299.511 218,301.5C 217.481,300.484 216.647,299.818 215.5,299.5C 214.034,300.135 212.7,300.969 211.5,302C 213.833,303 215.5,304.667 216.5,307C 215.09,307.368 214.09,308.201 213.5,309.5C 214.39,310.711 214.39,312.045 213.5,313.5C 213.818,314.647 214.484,315.481 215.5,316C 215.043,316.414 214.709,316.914 214.5,317.5C 217.537,318.902 220.537,320.235 223.5,321.5C 224.786,316.698 226.453,316.531 228.5,321C 226.382,321.26 224.716,322.26 223.5,324C 224.43,324.991 225.596,325.491 227,325.5C 230.667,324.167 234.333,322.833 238,321.5C 243.976,322.534 249.81,321.868 255.5,319.5C 256.833,319.667 258.167,319.833 259.5,320C 260.866,322.438 260.366,322.938 258,321.5C 255.851,323.458 253.518,323.791 251,322.5C 250.374,324.991 249.541,324.991 248.5,322.5C 244.841,323.101 241.174,323.767 237.5,324.5C 236.477,326.895 237.477,327.895 240.5,327.5C 240.5,328.5 240.5,329.5 240.5,330.5C 245.417,331.157 249.583,329.824 253,326.5C 253.333,326.833 253.667,327.167 254,327.5C 254.956,326.106 256.289,325.439 258,325.5C 260.792,326.216 263.626,326.549 266.5,326.5C 260.335,330.416 253.501,332.082 246,331.5C 228.704,331.528 215.038,324.528 205,310.5C 202.167,304.83 198.834,299.497 195,294.5C 192.738,286.705 190.571,279.038 188.5,271.5C 185.887,254.287 184.887,236.953 185.5,219.5C 185.517,217.435 185.85,215.435 186.5,213.5C 188.184,206.584 189.684,199.584 191,192.5C 191.333,193.167 191.667,193.833 192,194.5C 192.333,191.5 192.667,188.5 193,185.5C 194.664,185.188 196.497,184.355 198.5,183C 197.296,181.647 196.629,179.981 196.5,178C 196.667,176.5 196.833,175 197,173.5C 198.016,167.958 199.516,162.624 201.5,157.5C 201.5,157.167 201.5,156.833 201.5,156.5C 202.5,156.5 203.5,156.5 204.5,156.5C 205.02,152.135 206.52,148.135 209,144.5C 214.303,143.046 217.137,139.713 217.5,134.5C 218.959,134.433 220.292,134.766 221.5,135.5C 223.5,134.833 225.5,134.167 227.5,133.5C 227.68,137.215 227.346,140.882 226.5,144.5C 226.785,146.569 227.952,147.902 230,148.5C 230.241,145.711 230.908,143.044 232,140.5C 234.955,138.739 237.788,136.073 240.5,132.5C 241.167,133.167 241.833,133.833 242.5,134.5C 244.765,131.933 246.765,131.933 248.5,134.5 Z"/></g>
<g><path style="opacity:1" fill="#f5c941" d="M 279.5,135.5 C 289.962,149.852 296.962,165.852 300.5,183.5C 298.926,182.016 297.593,180.349 296.5,178.5C 294.787,174.839 292.62,171.506 290,168.5C 289.066,164.039 288.732,159.706 289,155.5C 283.873,149.819 280.707,143.153 279.5,135.5 Z"/></g>
<g><path style="opacity:0.549" fill="#f7ebd0" d="M 294.5,155.5 C 296.622,159.226 298.456,163.226 300,167.5C 301.079,170.063 301.579,172.729 301.5,175.5C 298.563,169.766 296.229,163.766 294.5,157.5C 294.5,156.833 294.5,156.167 294.5,155.5 Z"/></g>
<g><path style="opacity:0.192" fill="#f0dac0" d="M 346.5,163.5 C 345.188,167.416 344.188,171.416 343.5,175.5C 342.833,176.167 342.167,176.833 341.5,177.5C 342.506,173.142 343.673,168.809 345,164.5C 345.383,163.944 345.883,163.611 346.5,163.5 Z"/></g>
<g><path style="opacity:1" fill="#f2c743" d="M 428.5,132.5 C 441.28,149.494 449.614,168.494 453.5,189.5C 451.641,184.443 449.475,179.443 447,174.5C 446.667,172.5 446.333,170.5 446,168.5C 443.954,166.3 442.954,163.633 443,160.5C 441.989,159.663 440.822,159.33 439.5,159.5C 439.06,153.844 437.394,148.511 434.5,143.5C 433.749,144.376 433.249,145.376 433,146.5C 430.604,142.144 429.104,137.477 428.5,132.5 Z"/></g>
<g><path style="opacity:0.263" fill="#e8e0bf" d="M 341.5,177.5 C 341.5,178.833 341.5,180.167 341.5,181.5C 340.833,182.5 340.167,183.5 339.5,184.5C 339.41,181.848 340.076,179.515 341.5,177.5 Z"/></g>
<g><path style="opacity:0.82" fill="#a58349" d="M 343.5,175.5 C 343.5,176.833 343.5,178.167 343.5,179.5C 342.833,180.167 342.167,180.833 341.5,181.5C 341.5,180.167 341.5,178.833 341.5,177.5C 342.167,176.833 342.833,176.167 343.5,175.5 Z"/></g>
<g><path style="opacity:0.996" fill="#a27d38" d="M 373.5,176.5 C 372.422,179.402 371.756,182.402 371.5,185.5C 369.968,188.765 368.635,192.098 367.5,195.5C 367.5,194.167 367.5,192.833 367.5,191.5C 367.325,189.379 367.659,187.379 368.5,185.5C 369.913,182.339 371.58,179.339 373.5,176.5 Z"/></g>
<g><path style="opacity:0.251" fill="#f7ebd4" d="M 301.5,175.5 C 304.087,181.172 305.753,187.172 306.5,193.5C 305.833,192.5 305.167,191.5 304.5,190.5C 303.341,185.532 302.341,180.532 301.5,175.5 Z"/></g>
<g><path style="opacity:0.859" fill="#c1a275" d="M 341.5,181.5 C 341.44,184.341 340.774,187.007 339.5,189.5C 339.167,189.5 338.833,189.5 338.5,189.5C 338.216,187.585 338.549,185.919 339.5,184.5C 340.167,183.5 340.833,182.5 341.5,181.5 Z"/></g>
<g><path style="opacity:1" fill="#a87d1b" d="M 343.5,179.5 C 343.5,180.833 343.5,182.167 343.5,183.5C 341.787,188.067 340.454,192.734 339.5,197.5C 339.5,194.833 339.5,192.167 339.5,189.5C 340.774,187.007 341.44,184.341 341.5,181.5C 342.167,180.833 342.833,180.167 343.5,179.5 Z"/></g>
<g><path style="opacity:1" fill="#a57e2a" d="M 248.5,134.5 C 248.5,134.833 248.5,135.167 248.5,135.5C 253.928,140.428 258.428,146.095 262,152.5C 274.432,174.459 281.266,198.125 282.5,223.5C 283.683,242.663 281.35,261.33 275.5,279.5C 271.92,290.34 265.253,298.674 255.5,304.5C 250.688,305.678 246.021,305.678 241.5,304.5C 244.713,304.81 247.713,304.477 250.5,303.5C 255.869,302.454 260.203,299.787 263.5,295.5C 266.366,293.454 268.533,290.787 270,287.5C 272.67,281.656 274.836,275.656 276.5,269.5C 277.972,265.081 278.638,260.414 278.5,255.5C 279.473,253.052 279.806,250.385 279.5,247.5C 279.5,236.833 279.5,226.167 279.5,215.5C 277.48,190.715 269.646,168.049 256,147.5C 253.537,144.035 250.704,140.869 247.5,138C 245.721,138.044 244.055,138.711 242.5,140C 233.61,151.278 226.943,163.778 222.5,177.5C 219.676,181.63 218.009,186.297 217.5,191.5C 214.571,201.841 212.904,212.507 212.5,223.5C 212.167,223.5 211.833,223.5 211.5,223.5C 211.767,217.162 212.1,210.829 212.5,204.5C 216.069,177.874 226.735,154.708 244.5,135C 245.793,134.51 247.127,134.343 248.5,134.5 Z"/></g>
<g><path style="opacity:0.165" fill="#ecddbf" d="M 279.5,215.5 C 278.833,214.833 278.167,214.167 277.5,213.5C 275.124,185.768 265.124,161.268 247.5,140C 246.833,139.333 246.167,139.333 245.5,140C 242.714,143.074 240.048,146.241 237.5,149.5C 231.933,158.64 226.933,167.974 222.5,177.5C 226.943,163.778 233.61,151.278 242.5,140C 244.055,138.711 245.721,138.044 247.5,138C 250.704,140.869 253.537,144.035 256,147.5C 269.646,168.049 277.48,190.715 279.5,215.5 Z"/></g>
<g><path style="opacity:0.29" fill="#e8d8b7" d="M 222.5,177.5 C 221.071,183.985 219.405,190.318 217.5,196.5C 217.5,194.833 217.5,193.167 217.5,191.5C 218.009,186.297 219.676,181.63 222.5,177.5 Z"/></g>
<g><path style="opacity:0.098" fill="#eeddc6" d="M 420.5,175.5 C 421.117,175.611 421.617,175.944 422,176.5C 423.983,182.765 425.483,189.098 426.5,195.5C 423.636,189.256 421.636,182.589 420.5,175.5 Z"/></g>
<g><path style="opacity:1" fill="#f3c841" d="M 201.5,157.5 C 199.516,162.624 198.016,167.958 197,173.5C 196.833,175 196.667,176.5 196.5,178C 196.629,179.981 197.296,181.647 198.5,183C 196.497,184.355 194.664,185.188 193,185.5C 192.667,188.5 192.333,191.5 192,194.5C 191.667,193.833 191.333,193.167 191,192.5C 189.684,199.584 188.184,206.584 186.5,213.5C 187.791,193.659 192.791,174.992 201.5,157.5 Z"/></g>
<g><path style="opacity:1" fill="#fad13d" d="M 296.5,178.5 C 297.593,180.349 298.926,182.016 300.5,183.5C 300.5,183.833 300.5,184.167 300.5,184.5C 305.181,206.547 306.181,228.713 303.5,251C 303.76,253.676 304.094,256.343 304.5,259C 302.99,263.382 302.323,267.882 302.5,272.5C 300.454,286.663 295.12,299.33 286.5,310.5C 286.769,308.571 286.269,306.905 285,305.5C 283.984,306.634 283.317,306.301 283,304.5C 281.667,305.167 280.667,306.167 280,307.5C 276.548,305.977 273.381,303.977 270.5,301.5C 269.749,302.376 269.249,303.376 269,304.5C 265.36,300.096 261.86,300.596 258.5,306C 256.866,306.494 255.199,306.66 253.5,306.5C 254.167,305.833 254.833,305.167 255.5,304.5C 265.253,298.674 271.92,290.34 275.5,279.5C 277.104,278.713 277.771,277.38 277.5,275.5C 278.5,275.5 279.5,275.5 280.5,275.5C 281.901,266.302 283.067,256.969 284,247.5C 284.823,239.323 284.656,231.323 283.5,223.5C 283.334,218.821 283.501,214.155 284,209.5C 286.809,202.109 288.309,194.442 288.5,186.5C 287.791,181.144 287.291,175.811 287,170.5C 287.667,169.167 288.333,169.167 289,170.5C 289.129,173.003 290.129,175.003 292,176.5C 293.271,181.754 293.771,187.087 293.5,192.5C 294.833,192.5 296.167,192.5 297.5,192.5C 296.873,187.859 296.54,183.193 296.5,178.5 Z"/></g>
<g><path style="opacity:0.643" fill="#b39962" d="M 188.5,188.5 C 188.59,191.152 187.924,193.485 186.5,195.5C 186.41,192.848 187.076,190.515 188.5,188.5 Z"/></g>
<g><path style="opacity:0.141" fill="#f4e5cb" d="M 189.5,180.5 C 189.425,183.206 189.092,185.873 188.5,188.5C 187.076,190.515 186.41,192.848 186.5,195.5C 186.01,198.655 185.344,201.655 184.5,204.5C 184.465,196.015 186.131,188.015 189.5,180.5 Z"/></g>
<g><path style="opacity:0.122" fill="#f0e2c5" d="M 451.5,171.5 C 453.129,173.858 454.295,176.524 455,179.5C 460.95,203.112 463.284,227.112 462,251.5C 461.728,256.076 460.895,260.409 459.5,264.5C 459.5,263.167 459.5,261.833 459.5,260.5C 459.5,258.833 459.5,257.167 459.5,255.5C 462.451,227.079 459.784,199.079 451.5,171.5 Z"/></g>
<g><path style="opacity:1" fill="#ecc040" d="M 343.5,183.5 C 343.279,191.925 341.612,199.925 338.5,207.5C 338.342,204.098 338.676,200.764 339.5,197.5C 340.454,192.734 341.787,188.067 343.5,183.5 Z"/></g>
<g><path style="opacity:0.729" fill="#d7c39d" d="M 304.5,190.5 C 305.167,191.5 305.833,192.5 306.5,193.5C 307.015,195.894 307.681,198.228 308.5,200.5C 307.596,201.209 307.263,202.209 307.5,203.5C 306.34,199.319 305.34,194.985 304.5,190.5 Z"/></g>
<g><path style="opacity:1" fill="#f0c53f" d="M 364.5,199.5 C 359.765,225.392 360.765,251.059 367.5,276.5C 365.373,275.602 364.206,273.936 364,271.5C 361.212,250.57 359.712,229.57 359.5,208.5C 360.487,205.414 362.154,202.414 364.5,199.5 Z"/></g>
<g><path style="opacity:0.051" fill="#fcf4e1" d="M 336.5,200.5 C 336.149,204.684 335.482,208.684 334.5,212.5C 334.083,208.183 334.75,204.183 336.5,200.5 Z"/></g>
<g><path style="opacity:0.067" fill="#e9dbbd" d="M 426.5,195.5 C 428.113,197.461 429.113,199.794 429.5,202.5C 429.5,203.833 429.5,205.167 429.5,206.5C 429.5,209.5 429.5,212.5 429.5,215.5C 428.014,209.037 427.014,202.37 426.5,195.5 Z"/></g>
<g><path style="opacity:1" fill="#be9520" d="M 212.5,204.5 C 212.1,210.829 211.767,217.162 211.5,223.5C 211.167,223.5 210.833,223.5 210.5,223.5C 210.337,216.938 211.004,210.605 212.5,204.5 Z"/></g>
<g><path style="opacity:0.243" fill="#dbc8a0" d="M 217.5,191.5 C 217.5,193.167 217.5,194.833 217.5,196.5C 213.984,214.639 212.65,232.972 213.5,251.5C 213.5,252.833 213.5,254.167 213.5,255.5C 212.506,245.013 212.172,234.346 212.5,223.5C 212.904,212.507 214.571,201.841 217.5,191.5 Z"/></g>
<g><path style="opacity:0.037" fill="#fbf6e3" d="M 277.5,213.5 C 278.167,214.167 278.833,214.833 279.5,215.5C 279.5,226.167 279.5,236.833 279.5,247.5C 279.167,247.5 278.833,247.5 278.5,247.5C 278.69,236.143 278.356,224.81 277.5,213.5 Z"/></g>
<g><path style="opacity:0.25" fill="#fbf1de" d="M 308.5,200.5 C 309.807,211.296 310.807,222.129 311.5,233C 311.143,243.053 310.143,252.886 308.5,262.5C 308.5,260.167 308.5,257.833 308.5,255.5C 308.5,254.5 308.5,253.5 308.5,252.5C 309.166,246.509 309.5,240.343 309.5,234C 309.691,224.947 309.024,216.114 307.5,207.5C 307.5,206.167 307.5,204.833 307.5,203.5C 307.263,202.209 307.596,201.209 308.5,200.5 Z"/></g>
<g><path style="opacity:1" fill="#d9ac32" d="M 456.5,206.5 C 457.434,209.656 458.101,212.989 458.5,216.5C 458.828,228.678 458.495,240.678 457.5,252.5C 457.692,237.149 457.359,221.816 456.5,206.5 Z"/></g>
<g><path style="opacity:0.12" fill="#f1e5cc" d="M 184.5,204.5 C 183.528,214.807 182.861,225.141 182.5,235.5C 182.39,242.392 183.056,249.058 184.5,255.5C 184.833,260.833 185.167,266.167 185.5,271.5C 182.129,259.886 180.795,247.886 181.5,235.5C 181.667,229.167 181.833,222.833 182,216.5C 182.335,212.264 183.168,208.264 184.5,204.5 Z"/></g>
<g><path style="opacity:1" fill="#a17614" d="M 458.5,216.5 C 459.495,229.323 459.829,242.323 459.5,255.5C 459.5,257.167 459.5,258.833 459.5,260.5C 458.833,261.5 458.167,262.5 457.5,263.5C 457.5,259.833 457.5,256.167 457.5,252.5C 458.495,240.678 458.828,228.678 458.5,216.5 Z"/></g>
<g><path style="opacity:0.889" fill="#b19258" d="M 307.5,207.5 C 309.024,216.114 309.691,224.947 309.5,234C 309.5,240.343 309.166,246.509 308.5,252.5C 308.813,240.087 308.479,227.753 307.5,215.5C 307.5,212.833 307.5,210.167 307.5,207.5 Z"/></g>
<g><path style="opacity:1" fill="#f4cc42" d="M 300.5,184.5 C 303.895,194.441 305.895,204.774 306.5,215.5C 306.667,228.837 306.5,242.171 306,255.5C 305.642,261.462 304.475,267.129 302.5,272.5C 302.323,267.882 302.99,263.382 304.5,259C 304.094,256.343 303.76,253.676 303.5,251C 306.181,228.713 305.181,206.547 300.5,184.5 Z"/></g>
<g><path style="opacity:1" fill="#c69a28" d="M 431.5,207.5 C 432.832,211.264 433.665,215.264 434,219.5C 434.824,229.009 434.658,238.343 433.5,247.5C 433.805,234.105 433.139,220.771 431.5,207.5 Z"/></g>
<g><path style="opacity:1" fill="#a07926" d="M 367.5,191.5 C 367.5,192.833 367.5,194.167 367.5,195.5C 365.721,206.829 364.387,218.162 363.5,229.5C 363.62,238.189 364.12,246.856 365,255.5C 365.311,259.09 366.144,262.423 367.5,265.5C 367.446,270.659 368.779,275.325 371.5,279.5C 371.415,282.649 372.415,285.316 374.5,287.5C 382.734,304.136 395.067,308.303 411.5,300C 415.114,296.897 418.114,293.397 420.5,289.5C 423.1,284.466 425.1,279.132 426.5,273.5C 428.599,266.416 430.099,259.083 431,251.5C 431.667,239.833 431.667,228.167 431,216.5C 430.821,212.975 430.321,209.641 429.5,206.5C 429.5,205.167 429.5,203.833 429.5,202.5C 430.167,203.167 430.833,203.833 431.5,204.5C 431.5,205.5 431.5,206.5 431.5,207.5C 433.139,220.771 433.805,234.105 433.5,247.5C 433.331,252.181 432.998,256.848 432.5,261.5C 430.294,266.503 428.961,271.836 428.5,277.5C 425.172,286.303 420.172,294.137 413.5,301C 411.595,302.421 409.595,303.588 407.5,304.5C 401.879,305.354 396.212,305.687 390.5,305.5C 386.38,304.274 382.713,302.274 379.5,299.5C 374.66,292.312 370.66,284.645 367.5,276.5C 360.765,251.059 359.765,225.392 364.5,199.5C 365.082,196.687 366.082,194.02 367.5,191.5 Z"/></g>
<g><path style="opacity:0.121" fill="#e7d5b6" d="M 429.5,206.5 C 430.321,209.641 430.821,212.975 431,216.5C 431.667,228.167 431.667,239.833 431,251.5C 430.099,259.083 428.599,266.416 426.5,273.5C 427.432,265.809 428.599,258.143 430,250.5C 430.635,238.819 430.469,227.152 429.5,215.5C 429.5,212.5 429.5,209.5 429.5,206.5 Z"/></g>
<g><path style="opacity:1" fill="#f0c541" d="M 282.5,223.5 C 282.833,223.5 283.167,223.5 283.5,223.5C 284.656,231.323 284.823,239.323 284,247.5C 283.067,256.969 281.901,266.302 280.5,275.5C 279.5,275.5 278.5,275.5 277.5,275.5C 277.771,277.38 277.104,278.713 275.5,279.5C 281.35,261.33 283.683,242.663 282.5,223.5 Z"/></g>
<g><path style="opacity:0.114" fill="#f5e7ce" d="M 334.5,212.5 C 333.528,233.678 334.861,254.678 338.5,275.5C 336.086,269.166 334.586,262.499 334,255.5C 333.173,240.994 333.339,226.661 334.5,212.5 Z"/></g>
<g><path style="opacity:0.18" fill="#eadabb" d="M 371.5,185.5 C 365.366,211.907 364.033,238.574 367.5,265.5C 366.144,262.423 365.311,259.09 365,255.5C 364.12,246.856 363.62,238.189 363.5,229.5C 364.387,218.162 365.721,206.829 367.5,195.5C 368.635,192.098 369.968,188.765 371.5,185.5 Z"/></g>
<g><path style="opacity:0.996" fill="#b4871e" d="M 185.5,219.5 C 184.887,236.953 185.887,254.287 188.5,271.5C 188.167,271.5 187.833,271.5 187.5,271.5C 187.167,271.5 186.833,271.5 186.5,271.5C 186.745,265.916 186.078,260.583 184.5,255.5C 184.172,243.322 184.505,231.322 185.5,219.5 Z"/></g>
<g><path style="opacity:0.588" fill="#e6dbc5" d="M 278.5,247.5 C 278.833,247.5 279.167,247.5 279.5,247.5C 279.806,250.385 279.473,253.052 278.5,255.5C 278.167,255.5 277.833,255.5 277.5,255.5C 277.194,252.615 277.527,249.948 278.5,247.5 Z"/></g>
<g><path style="opacity:0.471" fill="#e1d1af" d="M 213.5,251.5 C 214.617,255.295 215.283,259.295 215.5,263.5C 214.232,261.095 213.565,258.428 213.5,255.5C 213.5,254.167 213.5,252.833 213.5,251.5 Z"/></g>
<g><path style="opacity:0.337" fill="#cfb991" d="M 277.5,255.5 C 277.833,255.5 278.167,255.5 278.5,255.5C 278.638,260.414 277.972,265.081 276.5,269.5C 276.5,267.833 276.5,266.167 276.5,264.5C 277.159,261.545 277.492,258.545 277.5,255.5 Z"/></g>
<g><path style="opacity:0.369" fill="#d4bd94" d="M 308.5,255.5 C 308.5,257.833 308.5,260.167 308.5,262.5C 308.5,263.167 308.5,263.833 308.5,264.5C 307.833,265.5 307.167,266.5 306.5,267.5C 306.851,263.316 307.518,259.316 308.5,255.5 Z"/></g>
<g><path style="opacity:1" fill="#f9d13d" d="M 453.5,276.5 C 451.205,289.084 446.205,300.417 438.5,310.5C 436.191,309.612 434.524,307.946 433.5,305.5C 433.977,304.522 434.643,303.689 435.5,303C 433.275,300.975 432.941,298.642 434.5,296C 432.593,295.868 431.093,296.702 430,298.5C 428.523,297.556 427.523,296.223 427,294.5C 425.731,295.905 425.231,297.571 425.5,299.5C 422.454,300.394 419.454,300.561 416.5,300C 414.027,301.561 412.027,303.561 410.5,306C 404.739,307.703 399.072,307.87 393.5,306.5C 397.514,306.666 401.514,306.499 405.5,306C 406.416,305.722 407.082,305.222 407.5,304.5C 409.595,303.588 411.595,302.421 413.5,301C 420.172,294.137 425.172,286.303 428.5,277.5C 430.614,276.64 431.78,274.973 432,272.5C 432.499,268.848 432.665,265.182 432.5,261.5C 433.5,261.5 434.5,261.5 435.5,261.5C 435.103,256.041 435.603,250.708 437,245.5C 437.206,248.623 437.873,251.623 439,254.5C 439.219,253.062 439.719,251.729 440.5,250.5C 440.833,251.167 441.167,251.833 441.5,252.5C 440.183,256.942 440.517,261.275 442.5,265.5C 443.251,264.624 443.751,263.624 444,262.5C 445.187,249.536 445.853,236.536 446,223.5C 446.741,222.359 447.575,222.359 448.5,223.5C 449.332,215.187 449.832,206.853 450,198.5C 450.333,198.833 450.667,199.167 451,199.5C 451.333,198.5 451.667,197.5 452,196.5C 454,200.167 454,203.833 452,207.5C 451.5,218.161 451.333,228.828 451.5,239.5C 453.167,239.5 454.833,239.5 456.5,239.5C 456.666,246.508 456.5,253.508 456,260.5C 453.92,265.618 453.087,270.951 453.5,276.5 Z"/></g>
<g><path style="opacity:1" fill="#9b7d39" d="M 184.5,255.5 C 186.078,260.583 186.745,265.916 186.5,271.5C 186.167,271.5 185.833,271.5 185.5,271.5C 185.167,266.167 184.833,260.833 184.5,255.5 Z"/></g>
<g><path style="opacity:0.157" fill="#f1e1c8" d="M 215.5,263.5 C 217.448,271.199 219.781,278.865 222.5,286.5C 218.183,279.594 215.849,271.928 215.5,263.5 Z"/></g>
<g><path style="opacity:0.341" fill="#dfc6a2" d="M 185.5,271.5 C 185.833,271.5 186.167,271.5 186.5,271.5C 186.833,271.5 187.167,271.5 187.5,271.5C 187.5,273.167 187.5,274.833 187.5,276.5C 187.167,276.5 186.833,276.5 186.5,276.5C 185.549,275.081 185.216,273.415 185.5,271.5 Z"/></g>
<g><path style="opacity:0.161" fill="#f9ecd3" d="M 186.5,276.5 C 186.833,276.5 187.167,276.5 187.5,276.5C 188.038,278.117 188.371,279.784 188.5,281.5C 188.5,282.833 188.5,284.167 188.5,285.5C 187.343,282.727 186.676,279.727 186.5,276.5 Z"/></g>
<g><path style="opacity:0.161" fill="#f4e7cb" d="M 338.5,276.5 C 340.025,279.583 341.025,282.916 341.5,286.5C 339.288,283.679 338.288,280.345 338.5,276.5 Z"/></g>
<g><path style="opacity:0.322" fill="#ecddbb" d="M 276.5,264.5 C 276.5,266.167 276.5,267.833 276.5,269.5C 274.836,275.656 272.67,281.656 270,287.5C 268.533,290.787 266.366,293.454 263.5,295.5C 269.789,285.929 274.123,275.596 276.5,264.5 Z"/></g>
<g><path style="opacity:0.106" fill="#f5e0cd" d="M 341.5,287.5 C 342.401,288.29 343.068,289.29 343.5,290.5C 343.5,291.167 343.5,291.833 343.5,292.5C 342.069,291.22 341.402,289.553 341.5,287.5 Z"/></g>
<g><path style="opacity:0.984" fill="#a57f30" d="M 338.5,189.5 C 338.833,189.5 339.167,189.5 339.5,189.5C 339.5,192.167 339.5,194.833 339.5,197.5C 338.676,200.764 338.342,204.098 338.5,207.5C 335.609,228.088 336.109,248.755 340,269.5C 342.052,284.148 347.552,297.148 356.5,308.5C 363.374,320.034 373.374,327.367 386.5,330.5C 393.989,331.656 401.655,331.822 409.5,331C 411.611,330.155 413.611,329.322 415.5,328.5C 424.839,324.85 432.505,318.85 438.5,310.5C 446.205,300.417 451.205,289.084 453.5,276.5C 454.677,272.125 456.011,267.792 457.5,263.5C 458.167,262.5 458.833,261.5 459.5,260.5C 459.5,261.833 459.5,263.167 459.5,264.5C 456.672,273.617 454.339,282.95 452.5,292.5C 450.896,293.287 450.229,294.62 450.5,296.5C 447.252,301.326 444.252,306.326 441.5,311.5C 437.06,315.535 432.727,319.702 428.5,324C 415.578,332.882 401.245,336.049 385.5,333.5C 382.916,331.528 379.916,330.528 376.5,330.5C 362.662,321.652 352.329,309.652 345.5,294.5C 345.34,292.847 344.674,291.514 343.5,290.5C 343.068,289.29 342.401,288.29 341.5,287.5C 341.5,287.167 341.5,286.833 341.5,286.5C 341.025,282.916 340.025,279.583 338.5,276.5C 338.5,276.167 338.5,275.833 338.5,275.5C 334.861,254.678 333.528,233.678 334.5,212.5C 335.482,208.684 336.149,204.684 336.5,200.5C 336.43,196.575 337.097,192.909 338.5,189.5 Z"/></g>
<g><path style="opacity:0.796" fill="#d4bd96" d="M 426.5,273.5 C 425.1,279.132 423.1,284.466 420.5,289.5C 420.5,288.833 420.5,288.167 420.5,287.5C 421.988,282.533 423.988,277.866 426.5,273.5 Z"/></g>
<g><path style="opacity:0.647" fill="#d7c19c" d="M 371.5,279.5 C 373.008,281.181 374.008,283.181 374.5,285.5C 374.5,286.167 374.5,286.833 374.5,287.5C 372.415,285.316 371.415,282.649 371.5,279.5 Z"/></g>
<g><path style="opacity:1" fill="#efc340" d="M 432.5,261.5 C 432.665,265.182 432.499,268.848 432,272.5C 431.78,274.973 430.614,276.64 428.5,277.5C 428.961,271.836 430.294,266.503 432.5,261.5 Z"/></g>
<g><path style="opacity:0.176" fill="#e6d4ba" d="M 367.5,265.5 C 369.408,269.903 370.741,274.57 371.5,279.5C 368.779,275.325 367.446,270.659 367.5,265.5 Z"/></g>
<g><path style="opacity:0.102" fill="#eee1be" d="M 459.5,264.5 C 459.027,274.391 456.694,283.724 452.5,292.5C 454.339,282.95 456.672,273.617 459.5,264.5 Z"/></g>
<g><path style="opacity:0.475" fill="#bca274" d="M 343.5,290.5 C 344.674,291.514 345.34,292.847 345.5,294.5C 344.833,294.167 344.167,293.833 343.5,293.5C 343.5,293.167 343.5,292.833 343.5,292.5C 343.5,291.833 343.5,291.167 343.5,290.5 Z"/></g>
<g><path style="opacity:1" fill="#fad13d" d="M 438.5,310.5 C 432.505,318.85 424.839,324.85 415.5,328.5C 405.96,330.195 396.293,330.861 386.5,330.5C 373.374,327.367 363.374,320.034 356.5,308.5C 356.377,304.96 358.043,302.96 361.5,302.5C 360.829,307.445 362.829,310.445 367.5,311.5C 367.5,309.833 367.5,308.167 367.5,306.5C 366.325,306.719 365.325,306.386 364.5,305.5C 365.915,302.041 368.249,301.041 371.5,302.5C 372.853,300.817 374.52,299.484 376.5,298.5C 377.213,300.435 378.213,300.768 379.5,299.5C 382.713,302.274 386.38,304.274 390.5,305.5C 391.209,306.404 392.209,306.737 393.5,306.5C 399.072,307.87 404.739,307.703 410.5,306C 412.027,303.561 414.027,301.561 416.5,300C 419.454,300.561 422.454,300.394 425.5,299.5C 425.231,297.571 425.731,295.905 427,294.5C 427.523,296.223 428.523,297.556 430,298.5C 431.093,296.702 432.593,295.868 434.5,296C 432.941,298.642 433.275,300.975 435.5,303C 434.643,303.689 433.977,304.522 433.5,305.5C 434.524,307.946 436.191,309.612 438.5,310.5 Z"/></g>
<g><path style="opacity:0.22" fill="#e1d1a9" d="M 452.5,292.5 C 452.34,294.153 451.674,295.486 450.5,296.5C 450.229,294.62 450.896,293.287 452.5,292.5 Z"/></g>
<g><path style="opacity:0.984" fill="#a37e31" d="M 210.5,223.5 C 210.833,223.5 211.167,223.5 211.5,223.5C 211.833,223.5 212.167,223.5 212.5,223.5C 212.172,234.346 212.506,245.013 213.5,255.5C 213.565,258.428 214.232,261.095 215.5,263.5C 215.849,271.928 218.183,279.594 222.5,286.5C 227.444,299.308 236.777,304.975 250.5,303.5C 247.713,304.477 244.713,304.81 241.5,304.5C 239.833,304.5 238.167,304.5 236.5,304.5C 234.517,303.529 232.517,302.529 230.5,301.5C 225.574,297.071 221.574,291.904 218.5,286C 211.864,265.71 209.197,244.877 210.5,223.5 Z"/></g>
<g><path style="opacity:0.278" fill="#efe3c8" d="M 188.5,281.5 C 193.876,299.249 203.543,314.249 217.5,326.5C 210.607,322.445 204.774,317.112 200,310.5C 195.607,302.384 191.774,294.051 188.5,285.5C 188.5,284.167 188.5,282.833 188.5,281.5 Z"/></g>
<g><path style="opacity:0.2" fill="#ead8b8" d="M 374.5,285.5 C 378.398,293.229 384.398,298.729 392.5,302C 399.468,303.462 405.801,302.129 411.5,298C 415.114,294.897 418.114,291.397 420.5,287.5C 420.5,288.167 420.5,288.833 420.5,289.5C 418.114,293.397 415.114,296.897 411.5,300C 395.067,308.303 382.734,304.136 374.5,287.5C 374.5,286.833 374.5,286.167 374.5,285.5 Z"/></g>
<g><path style="opacity:0.22" fill="#e8d6b9" d="M 450.5,296.5 C 449.248,302.691 446.248,307.691 441.5,311.5C 444.252,306.326 447.252,301.326 450.5,296.5 Z"/></g>
<g><path style="opacity:1" fill="#be9423" d="M 407.5,304.5 C 407.082,305.222 406.416,305.722 405.5,306C 401.514,306.499 397.514,306.666 393.5,306.5C 392.209,306.737 391.209,306.404 390.5,305.5C 396.212,305.687 401.879,305.354 407.5,304.5 Z"/></g>
<g><path style="opacity:0.843" fill="#a47d28" d="M 306.5,215.5 C 306.833,215.5 307.167,215.5 307.5,215.5C 308.479,227.753 308.813,240.087 308.5,252.5C 308.5,253.5 308.5,254.5 308.5,255.5C 307.518,259.316 306.851,263.316 306.5,267.5C 303.603,284.698 297.103,300.364 287,314.5C 277.633,325.455 265.799,331.788 251.5,333.5C 245.824,333.666 240.157,333.499 234.5,333C 230.553,331.516 226.553,330.35 222.5,329.5C 221.341,327.75 219.674,326.75 217.5,326.5C 203.543,314.249 193.876,299.249 188.5,281.5C 188.371,279.784 188.038,278.117 187.5,276.5C 187.5,274.833 187.5,273.167 187.5,271.5C 187.833,271.5 188.167,271.5 188.5,271.5C 190.571,279.038 192.738,286.705 195,294.5C 198.834,299.497 202.167,304.83 205,310.5C 215.038,324.528 228.704,331.528 246,331.5C 253.501,332.082 260.335,330.416 266.5,326.5C 275.083,323.544 281.75,318.211 286.5,310.5C 295.12,299.33 300.454,286.663 302.5,272.5C 304.475,267.129 305.642,261.462 306,255.5C 306.5,242.171 306.667,228.837 306.5,215.5 Z"/></g>
<g><path style="opacity:0.114" fill="#f2e5c9" d="M 222.5,286.5 C 225.698,290.355 229.031,294.188 232.5,298C 239.294,302.6 246.627,303.6 254.5,301C 257.556,299.144 260.556,297.311 263.5,295.5C 260.203,299.787 255.869,302.454 250.5,303.5C 236.777,304.975 227.444,299.308 222.5,286.5 Z"/></g>
<g><path style="opacity:1" fill="#f9d13c" d="M 230.5,301.5 C 232.517,302.529 234.517,303.529 236.5,304.5C 237.263,305.268 238.263,305.768 239.5,306C 244.155,306.499 248.821,306.666 253.5,306.5C 255.199,306.66 256.866,306.494 258.5,306C 261.86,300.596 265.36,300.096 269,304.5C 269.249,303.376 269.749,302.376 270.5,301.5C 273.381,303.977 276.548,305.977 280,307.5C 280.667,306.167 281.667,305.167 283,304.5C 283.317,306.301 283.984,306.634 285,305.5C 286.269,306.905 286.769,308.571 286.5,310.5C 281.75,318.211 275.083,323.544 266.5,326.5C 263.626,326.549 260.792,326.216 258,325.5C 256.289,325.439 254.956,326.106 254,327.5C 253.667,327.167 253.333,326.833 253,326.5C 249.583,329.824 245.417,331.157 240.5,330.5C 240.5,329.5 240.5,328.5 240.5,327.5C 237.477,327.895 236.477,326.895 237.5,324.5C 241.174,323.767 244.841,323.101 248.5,322.5C 249.541,324.991 250.374,324.991 251,322.5C 253.518,323.791 255.851,323.458 258,321.5C 260.366,322.938 260.866,322.438 259.5,320C 258.167,319.833 256.833,319.667 255.5,319.5C 249.81,321.868 243.976,322.534 238,321.5C 234.333,322.833 230.667,324.167 227,325.5C 225.596,325.491 224.43,324.991 223.5,324C 224.716,322.26 226.382,321.26 228.5,321C 226.453,316.531 224.786,316.698 223.5,321.5C 220.537,320.235 217.537,318.902 214.5,317.5C 214.709,316.914 215.043,316.414 215.5,316C 214.484,315.481 213.818,314.647 213.5,313.5C 214.39,312.045 214.39,310.711 213.5,309.5C 214.09,308.201 215.09,307.368 216.5,307C 215.5,304.667 213.833,303 211.5,302C 212.7,300.969 214.034,300.135 215.5,299.5C 216.647,299.818 217.481,300.484 218,301.5C 222.307,299.511 226.473,299.511 230.5,301.5 Z"/></g>
<g><path style="opacity:1" fill="#c99f29" d="M 236.5,304.5 C 238.167,304.5 239.833,304.5 241.5,304.5C 246.021,305.678 250.688,305.678 255.5,304.5C 254.833,305.167 254.167,305.833 253.5,306.5C 248.821,306.666 244.155,306.499 239.5,306C 238.263,305.768 237.263,305.268 236.5,304.5 Z"/></g>
<g><path style="opacity:0.075" fill="#f1e2c4" d="M 308.5,264.5 C 305.886,287.893 296.219,307.727 279.5,324C 271.231,330.367 261.898,333.867 251.5,334.5C 251.5,334.167 251.5,333.833 251.5,333.5C 265.799,331.788 277.633,325.455 287,314.5C 297.103,300.364 303.603,284.698 306.5,267.5C 307.167,266.5 307.833,265.5 308.5,264.5 Z"/></g>
<g><path style="opacity:0.18" fill="#f1e2c4" d="M 343.5,293.5 C 344.167,293.833 344.833,294.167 345.5,294.5C 352.329,309.652 362.662,321.652 376.5,330.5C 365.701,325.87 357.201,318.537 351,308.5C 347.941,303.715 345.441,298.715 343.5,293.5 Z"/></g>
<g><path style="opacity:0.102" fill="#f0e2b9" d="M 217.5,326.5 C 219.674,326.75 221.341,327.75 222.5,329.5C 220.326,329.25 218.659,328.25 217.5,326.5 Z"/></g>
<g><path style="opacity:0.086" fill="#e4d3b0" d="M 441.5,311.5 C 439.314,316.362 435.981,320.362 431.5,323.5C 417.735,334.205 402.401,337.539 385.5,333.5C 401.245,336.049 415.578,332.882 428.5,324C 432.727,319.702 437.06,315.535 441.5,311.5 Z"/></g>
<g><path style="opacity:0.345" fill="#e8d3ac" d="M 376.5,330.5 C 379.916,330.528 382.916,331.528 385.5,333.5C 382.145,333.31 379.145,332.31 376.5,330.5 Z"/></g>
<g><path style="opacity:1" fill="#e5ba39" d="M 415.5,328.5 C 413.611,329.322 411.611,330.155 409.5,331C 401.655,331.822 393.989,331.656 386.5,330.5C 396.293,330.861 405.96,330.195 415.5,328.5 Z"/></g>
<g><path style="opacity:0.263" fill="#ddceae" d="M 222.5,329.5 C 226.553,330.35 230.553,331.516 234.5,333C 240.157,333.499 245.824,333.666 251.5,333.5C 251.5,333.833 251.5,334.167 251.5,334.5C 251.083,335.124 250.416,335.457 249.5,335.5C 244.197,334.764 238.863,334.264 233.5,334C 229.381,333.356 225.715,331.856 222.5,329.5 Z"/></g>
</svg>
