<?xml version="1.0" encoding="UTF-8"?>
<!DOCTYPE svg PUBLIC "-//W3C//DTD SVG 1.1//EN" "http://www.w3.org/Graphics/SVG/1.1/DTD/svg11.dtd">
<svg xmlns="http://www.w3.org/2000/svg" version="1.1" width="515px" height="484px" style="shape-rendering:geometricPrecision; text-rendering:geometricPrecision; image-rendering:optimizeQuality; fill-rule:evenodd; clip-rule:evenodd" xmlns:xlink="http://www.w3.org/1999/xlink">
<g><path style="opacity:0.157" fill="#f1dc79" d="M 174.5,115.5 C 168.055,112.589 161.388,111.922 154.5,113.5C 154.611,112.883 154.944,112.383 155.5,112C 160.167,111.333 164.833,111.333 169.5,112C 171.584,112.697 173.251,113.864 174.5,115.5 Z"/></g>
<g><path style="opacity:0.178" fill="#f1de82" d="M 365.5,116.5 C 361.17,115.003 356.837,113.67 352.5,112.5C 348.042,113.032 343.708,114.032 339.5,115.5C 342.646,112.098 346.646,110.765 351.5,111.5C 357.082,110.972 361.748,112.639 365.5,116.5 Z"/></g>
<g><path style="opacity:1" fill="#fbf076" d="M 153.5,113.5 C 154.152,114.725 155.319,115.392 157,115.5C 163.039,114.256 168.873,114.923 174.5,117.5C 175.619,120.087 176.953,122.42 178.5,124.5C 177.306,125.272 176.306,126.272 175.5,127.5C 174.604,126.494 173.938,126.494 173.5,127.5C 172.833,127.5 172.167,127.5 171.5,127.5C 170.473,125.806 169.139,124.473 167.5,123.5C 171.584,124.055 172.251,123.055 169.5,120.5C 165.893,119.511 162.226,119.177 158.5,119.5C 158.611,118.883 158.944,118.383 159.5,118C 156.112,117.341 152.779,117.508 149.5,118.5C 147.589,119.075 145.922,120.075 144.5,121.5C 146.233,117.435 149.233,114.768 153.5,113.5 Z"/></g>
<g><path style="opacity:1" fill="#f8eb67" d="M 365.5,116.5 C 367.587,117.585 368.92,119.251 369.5,121.5C 369.5,122.833 369.5,124.167 369.5,125.5C 367.521,123.832 365.188,123.166 362.5,123.5C 355.403,118.272 348.403,118.272 341.5,123.5C 341.428,121.689 340.595,120.356 339,119.5C 337.7,120.707 336.2,121.374 334.5,121.5C 333.446,130.806 333.279,140.139 334,149.5C 335.626,152.296 337.46,154.963 339.5,157.5C 336.606,156.118 334.106,154.118 332,151.5C 330.942,141.296 331.442,131.296 333.5,121.5C 334.5,118.5 336.5,116.5 339.5,115.5C 343.708,114.032 348.042,113.032 352.5,112.5C 356.837,113.67 361.17,115.003 365.5,116.5 Z"/></g>
<g><path style="opacity:0.898" fill="#f4dc57" d="M 158.5,119.5 C 162.226,119.177 165.893,119.511 169.5,120.5C 172.251,123.055 171.584,124.055 167.5,123.5C 164.873,122.908 162.206,122.575 159.5,122.5C 155.591,122.134 152.924,123.8 151.5,127.5C 150.501,140.483 150.168,153.483 150.5,166.5C 149.505,154.011 149.171,141.344 149.5,128.5C 150.837,123.829 153.837,120.829 158.5,119.5 Z"/></g>
<g><path style="opacity:0.996" fill="#f4e060" d="M 362.5,123.5 C 362.795,125.423 363.628,127.09 365,128.5C 365.333,140.833 365.667,153.167 366,165.5C 367.322,168.965 368.822,172.298 370.5,175.5C 369.147,173.185 367.48,171.852 365.5,171.5C 364.003,158.077 363.003,144.744 362.5,131.5C 363.084,128.715 362.084,127.048 359.5,126.5C 354.592,121.522 349.259,121.189 343.5,125.5C 341.031,126.607 340.031,128.607 340.5,131.5C 340.696,136.678 340.863,141.678 341,146.5C 344.785,150.106 347.952,154.106 350.5,158.5C 348.584,156.884 347.084,157.218 346,159.5C 344.53,155.02 341.864,151.354 338,148.5C 337.333,141.5 337.333,134.5 338,127.5C 338.949,125.907 340.115,124.574 341.5,123.5C 348.403,118.272 355.403,118.272 362.5,123.5 Z"/></g>
<g><path style="opacity:1" fill="#fcf87b" d="M 158.5,119.5 C 153.837,120.829 150.837,123.829 149.5,128.5C 148.671,135.989 148.171,143.656 148,151.5C 147.418,154.668 146.418,155.001 145,152.5C 144.5,145.174 144.334,137.841 144.5,130.5C 144.663,125.816 146.33,121.816 149.5,118.5C 152.779,117.508 156.112,117.341 159.5,118C 158.944,118.383 158.611,118.883 158.5,119.5 Z"/></g>
<g><path style="opacity:0.255" fill="#f0e5ae" d="M 256.5,125.5 C 255.01,127.28 253.01,127.946 250.5,127.5C 252.302,126.542 254.302,125.875 256.5,125.5 Z"/></g>
<g><path style="opacity:0.941" fill="#f4e06c" d="M 256.5,125.5 C 264.649,125.3 270.649,128.634 274.5,135.5C 273.391,135.443 272.391,135.11 271.5,134.5C 269.15,133.139 266.816,131.806 264.5,130.5C 259.684,129.35 254.684,129.184 249.5,130C 247.623,131.717 245.623,133.217 243.5,134.5C 243.44,133.957 243.107,133.624 242.5,133.5C 241.482,134.193 240.482,134.859 239.5,135.5C 239.859,133.629 240.859,132.129 242.5,131C 244.818,129.007 247.484,127.841 250.5,127.5C 253.01,127.946 255.01,127.28 256.5,125.5 Z"/></g>
<g><path style="opacity:0.075" fill="#f8eeaf" d="M 343.5,125.5 C 342.486,127.574 341.486,129.574 340.5,131.5C 340.031,128.607 341.031,126.607 343.5,125.5 Z"/></g>
<g><path style="opacity:0.027" fill="#fdfaaf" d="M 359.5,126.5 C 362.084,127.048 363.084,128.715 362.5,131.5C 362.828,142.346 362.494,153.013 361.5,163.5C 361.667,151.829 361.5,140.162 361,128.5C 360.283,127.956 359.783,127.289 359.5,126.5 Z"/></g>
<g><path style="opacity:1" fill="#fdf574" d="M 362.5,123.5 C 365.188,123.166 367.521,123.832 369.5,125.5C 370.167,125.5 370.5,125.833 370.5,126.5C 370.333,138.838 370.5,151.171 371,163.5C 371.607,167.381 373.274,170.714 376,173.5C 374.711,170.432 373.878,167.099 373.5,163.5C 375.343,165.853 376.677,168.52 377.5,171.5C 377.338,173.527 377.505,175.527 378,177.5C 379.624,181.812 381.791,185.812 384.5,189.5C 385.338,189.842 385.672,190.508 385.5,191.5C 386.255,198.541 387.255,205.541 388.5,212.5C 388.19,213.738 387.69,213.738 387,212.5C 386.781,211.062 386.281,209.729 385.5,208.5C 384.741,213.463 384.741,218.463 385.5,223.5C 383.325,212.134 380.492,200.801 377,189.5C 375.392,185.944 373.559,182.611 371.5,179.5C 371.167,178.167 370.833,176.833 370.5,175.5C 368.822,172.298 367.322,168.965 366,165.5C 365.667,153.167 365.333,140.833 365,128.5C 363.628,127.09 362.795,125.423 362.5,123.5 Z"/></g>
<g><path style="opacity:0.035" fill="#fcf8a9" d="M 171.5,127.5 C 172.167,127.5 172.833,127.5 173.5,127.5C 173.824,134.354 173.491,141.021 172.5,147.5C 172.793,140.745 172.46,134.078 171.5,127.5 Z"/></g>
<g><path style="opacity:1" fill="#fdf576" d="M 178.5,124.5 C 179.79,125.058 180.623,126.058 181,127.5C 181.831,134.856 181.665,142.189 180.5,149.5C 177.736,152.923 175.402,156.59 173.5,160.5C 173.624,161.107 173.957,161.44 174.5,161.5C 174.5,162.167 174.167,162.5 173.5,162.5C 171.876,162.36 170.71,163.027 170,164.5C 169.51,163.207 169.343,161.873 169.5,160.5C 168.041,160.433 166.708,160.766 165.5,161.5C 168.037,156.783 171.204,152.449 175,148.5C 175.5,141.508 175.666,134.508 175.5,127.5C 176.306,126.272 177.306,125.272 178.5,124.5 Z"/></g>
<g><path style="opacity:0.641" fill="#f0dd6a" d="M 174.5,115.5 C 178.485,117.321 181.319,120.321 183,124.5C 184.576,133.089 184.91,141.756 184,150.5C 180.968,154.359 177.802,158.026 174.5,161.5C 173.957,161.44 173.624,161.107 173.5,160.5C 175.402,156.59 177.736,152.923 180.5,149.5C 181.665,142.189 181.831,134.856 181,127.5C 180.623,126.058 179.79,125.058 178.5,124.5C 176.953,122.42 175.619,120.087 174.5,117.5C 168.873,114.923 163.039,114.256 157,115.5C 155.319,115.392 154.152,114.725 153.5,113.5C 153.833,113.5 154.167,113.5 154.5,113.5C 161.388,111.922 168.055,112.589 174.5,115.5 Z"/></g>
<g><path style="opacity:0.612" fill="#f1d959" d="M 261.5,134.5 C 264.267,135.221 266.267,136.887 267.5,139.5C 266.5,139.5 265.5,139.5 264.5,139.5C 262.148,138.214 259.648,137.214 257,136.5C 254.953,137.609 252.787,138.276 250.5,138.5C 250.36,136.876 251.027,135.71 252.5,135C 255.482,134.502 258.482,134.335 261.5,134.5 Z"/></g>
<g><path style="opacity:1" fill="#fdf775" d="M 264.5,130.5 C 262.738,131.262 261.738,132.596 261.5,134.5C 258.482,134.335 255.482,134.502 252.5,135C 251.027,135.71 250.36,136.876 250.5,138.5C 249.041,138.433 247.708,138.766 246.5,139.5C 245.685,140.429 244.852,141.429 244,142.5C 243.17,172.003 243.336,201.336 244.5,230.5C 244.183,234.172 245.849,235.838 249.5,235.5C 249.227,237.451 249.893,238.951 251.5,240C 254.482,240.498 257.482,240.665 260.5,240.5C 262.199,240.34 263.866,240.506 265.5,241C 266.252,241.671 266.586,242.504 266.5,243.5C 265.737,244.268 264.737,244.768 263.5,245C 258.833,245.667 254.167,245.667 249.5,245C 246.692,243.684 244.359,241.85 242.5,239.5C 241.11,238.101 240.11,236.434 239.5,234.5C 239.552,232.097 239.219,229.764 238.5,227.5C 239.833,227.5 241.167,227.5 242.5,227.5C 242.667,200.165 242.5,172.831 242,145.5C 240.989,144.663 239.822,144.33 238.5,144.5C 238.691,140.337 240.357,137.004 243.5,134.5C 245.623,133.217 247.623,131.717 249.5,130C 254.684,129.184 259.684,129.35 264.5,130.5 Z"/></g>
<g><path style="opacity:0.59" fill="#f5e57b" d="M 369.5,121.5 C 370.79,122.058 371.623,123.058 372,124.5C 373.374,137.12 373.874,149.787 373.5,162.5C 371.84,150.701 370.84,138.701 370.5,126.5C 370.5,125.833 370.167,125.5 369.5,125.5C 369.5,124.167 369.5,122.833 369.5,121.5 Z"/></g>
<g><path style="opacity:1" fill="#fcf476" d="M 341.5,123.5 C 340.115,124.574 338.949,125.907 338,127.5C 337.333,134.5 337.333,141.5 338,148.5C 341.864,151.354 344.53,155.02 346,159.5C 347.084,157.218 348.584,156.884 350.5,158.5C 352.046,160.882 352.713,163.549 352.5,166.5C 352.703,168.044 353.37,169.378 354.5,170.5C 353.67,172.135 353.503,173.802 354,175.5C 353.282,174.549 352.449,174.383 351.5,175C 352.554,177.382 353.221,179.882 353.5,182.5C 350.17,177.175 346.836,171.841 343.5,166.5C 343.208,162.934 341.874,159.934 339.5,157.5C 337.46,154.963 335.626,152.296 334,149.5C 333.279,140.139 333.446,130.806 334.5,121.5C 336.2,121.374 337.7,120.707 339,119.5C 340.595,120.356 341.428,121.689 341.5,123.5 Z"/></g>
<g><path style="opacity:0.669" fill="#f2db66" d="M 149.5,118.5 C 146.33,121.816 144.663,125.816 144.5,130.5C 143.669,141.659 143.169,152.993 143,164.5C 139.792,172.074 136.292,179.407 132.5,186.5C 132.34,184.801 132.506,183.134 133,181.5C 136.242,176.933 138.408,171.933 139.5,166.5C 140.294,154.212 140.794,141.878 141,129.5C 141.387,126.401 142.554,123.734 144.5,121.5C 145.922,120.075 147.589,119.075 149.5,118.5 Z"/></g>
<g><path style="opacity:0.576" fill="#f5e084" d="M 159.5,122.5 C 156.66,123.686 154.494,125.686 153,128.5C 152.667,140.833 152.333,153.167 152,165.5C 151.722,166.416 151.222,167.082 150.5,167.5C 150.5,167.167 150.5,166.833 150.5,166.5C 150.168,153.483 150.501,140.483 151.5,127.5C 152.924,123.8 155.591,122.134 159.5,122.5 Z"/></g>
<g><path style="opacity:0.686" fill="#f1dc5a" d="M 175.5,127.5 C 175.666,134.508 175.5,141.508 175,148.5C 171.204,152.449 168.037,156.783 165.5,161.5C 162.334,164.824 159.5,168.491 157,172.5C 156.952,169.587 157.785,166.921 159.5,164.5C 163.172,161.151 165.839,157.151 167.5,152.5C 168.806,150.527 170.473,148.861 172.5,147.5C 173.491,141.021 173.824,134.354 173.5,127.5C 173.938,126.494 174.604,126.494 175.5,127.5 Z"/></g>
<g><path style="opacity:0.537" fill="#f6e780" d="M 333.5,121.5 C 331.442,131.296 330.942,141.296 332,151.5C 334.106,154.118 336.606,156.118 339.5,157.5C 341.874,159.934 343.208,162.934 343.5,166.5C 338.865,161.358 334.365,156.024 330,150.5C 329.161,141.78 329.495,133.113 331,124.5C 331.852,123.429 332.685,122.429 333.5,121.5 Z"/></g>
<g><path style="opacity:1" fill="#f2de5b" d="M 370.5,126.5 C 370.84,138.701 371.84,150.701 373.5,162.5C 373.5,162.833 373.5,163.167 373.5,163.5C 373.878,167.099 374.711,170.432 376,173.5C 373.274,170.714 371.607,167.381 371,163.5C 370.5,151.171 370.333,138.838 370.5,126.5 Z"/></g>
<g><path style="opacity:1" fill="#f7e052" d="M 246.5,139.5 C 245.949,142.807 245.616,146.14 245.5,149.5C 244.502,176.328 244.169,203.328 244.5,230.5C 243.336,201.336 243.17,172.003 244,142.5C 244.852,141.429 245.685,140.429 246.5,139.5 Z"/></g>
<g><path style="opacity:0.458" fill="#f0dc7b" d="M 362.5,131.5 C 363.003,144.744 364.003,158.077 365.5,171.5C 363.229,169.388 361.896,166.721 361.5,163.5C 362.494,153.013 362.828,142.346 362.5,131.5 Z"/></g>
<g><path style="opacity:0.333" fill="#f5e392" d="M 167.5,152.5 C 165.839,157.151 163.172,161.151 159.5,164.5C 161.673,160.148 164.34,156.148 167.5,152.5 Z"/></g>
<g><path style="opacity:1" fill="#fdf97b" d="M 238.5,144.5 C 239.822,144.33 240.989,144.663 242,145.5C 242.5,172.831 242.667,200.165 242.5,227.5C 241.167,227.5 239.833,227.5 238.5,227.5C 238.5,199.833 238.5,172.167 238.5,144.5 Z"/></g>
<g><path style="opacity:0.861" fill="#f0d75c" d="M 245.5,149.5 C 245.169,176.672 245.502,203.672 246.5,230.5C 247.89,231.899 248.89,233.566 249.5,235.5C 245.849,235.838 244.183,234.172 244.5,230.5C 244.169,203.328 244.502,176.328 245.5,149.5 Z"/></g>
<g><path style="opacity:1" fill="#f6e159" d="M 243.5,134.5 C 240.357,137.004 238.691,140.337 238.5,144.5C 238.5,172.167 238.5,199.833 238.5,227.5C 239.219,229.764 239.552,232.097 239.5,234.5C 238.034,233.653 237.2,232.32 237,230.5C 236.197,199.81 236.364,169.144 237.5,138.5C 237.427,136.973 238.094,135.973 239.5,135.5C 240.482,134.859 241.482,134.193 242.5,133.5C 243.107,133.624 243.44,133.957 243.5,134.5 Z"/></g>
<g><path style="opacity:0.984" fill="#f3dc66" d="M 350.5,158.5 C 362.937,174.049 371.103,191.715 375,211.5C 375.966,217.168 376.799,222.835 377.5,228.5C 376.675,232.647 376.175,236.981 376,241.5C 375.821,237.975 375.321,234.641 374.5,231.5C 374.806,228.615 374.473,225.948 373.5,223.5C 373.412,218.464 372.912,213.464 372,208.5C 369.646,200.74 367.146,193.073 364.5,185.5C 361.345,179.859 358.178,174.193 355,168.5C 354.292,167.619 353.458,166.953 352.5,166.5C 352.713,163.549 352.046,160.882 350.5,158.5 Z"/></g>
<g><path style="opacity:1" fill="#faee78" d="M 173.5,162.5 C 170.734,167.045 167.734,171.378 164.5,175.5C 164.542,172.601 165.042,169.935 166,167.5C 163.09,168.45 161.923,170.45 162.5,173.5C 161.5,173.5 160.5,173.5 159.5,173.5C 159.211,179.303 157.378,184.637 154,189.5C 152.572,186.61 151.072,183.944 149.5,181.5C 151.973,176.553 154.473,171.553 157,166.5C 157.708,165.619 158.542,164.953 159.5,164.5C 157.785,166.921 156.952,169.587 157,172.5C 159.5,168.491 162.334,164.824 165.5,161.5C 166.708,160.766 168.041,160.433 169.5,160.5C 169.343,161.873 169.51,163.207 170,164.5C 170.71,163.027 171.876,162.36 173.5,162.5 Z"/></g>
<g><path style="opacity:0.071" fill="#f2de7a" d="M 264.5,139.5 C 265.5,139.5 266.5,139.5 267.5,139.5C 268.806,169.646 268.806,199.646 267.5,229.5C 267.667,201.165 267.5,172.831 267,144.5C 266.153,142.807 265.32,141.14 264.5,139.5 Z"/></g>
<g><path style="opacity:0.88" fill="#f0d656" d="M 275.5,136.5 C 276.537,137.93 277.204,139.597 277.5,141.5C 277.831,172.338 277.498,203.005 276.5,233.5C 276.804,201.142 276.471,168.809 275.5,136.5 Z"/></g>
<g><path style="opacity:0.973" fill="#f3de6b" d="M 149.5,169.5 C 143.728,181.049 139.061,193.049 135.5,205.5C 133.876,207.137 132.876,206.803 132.5,204.5C 133.961,200.58 135.128,196.58 136,192.5C 139.55,184.742 143.05,177.075 146.5,169.5C 147.5,169.5 148.5,169.5 149.5,169.5 Z"/></g>
<g><path style="opacity:0.929" fill="#f5e37c" d="M 365.5,171.5 C 367.48,171.852 369.147,173.185 370.5,175.5C 370.833,176.833 371.167,178.167 371.5,179.5C 372.323,182.461 372.99,185.461 373.5,188.5C 370.575,182.982 367.908,177.315 365.5,171.5 Z"/></g>
<g><path style="opacity:1" fill="#fdf578" d="M 149.5,128.5 C 149.171,141.344 149.505,154.011 150.5,166.5C 150.5,166.833 150.5,167.167 150.5,167.5C 150.672,168.492 150.338,169.158 149.5,169.5C 148.5,169.5 147.5,169.5 146.5,169.5C 143.05,177.075 139.55,184.742 136,192.5C 135.128,196.58 133.961,200.58 132.5,204.5C 132.876,206.803 133.876,207.137 135.5,205.5C 135.279,208.067 134.612,210.401 133.5,212.5C 133.769,210.571 133.269,208.905 132,207.5C 131.56,209.866 131.06,212.199 130.5,214.5C 129.178,214.67 128.011,214.337 127,213.5C 126.505,211.527 126.338,209.527 126.5,207.5C 128.395,200.455 130.395,193.455 132.5,186.5C 136.292,179.407 139.792,172.074 143,164.5C 143.169,152.993 143.669,141.659 144.5,130.5C 144.334,137.841 144.5,145.174 145,152.5C 146.418,155.001 147.418,154.668 148,151.5C 148.171,143.656 148.671,135.989 149.5,128.5 Z"/></g>
<g><path style="opacity:0.251" fill="#ebd785" d="M 277.5,141.5 C 278.664,172.331 278.831,203.331 278,234.5C 277.303,236.584 276.136,238.251 274.5,239.5C 274.5,238.167 274.5,236.833 274.5,235.5C 275.833,235.5 276.5,234.833 276.5,233.5C 277.498,203.005 277.831,172.338 277.5,141.5 Z"/></g>
<g><path style="opacity:0.841" fill="#f4da74" d="M 377.5,171.5 C 381.336,176.778 383.669,182.778 384.5,189.5C 381.791,185.812 379.624,181.812 378,177.5C 377.505,175.527 377.338,173.527 377.5,171.5 Z"/></g>
<g><path style="opacity:0.671" fill="#f0e17f" d="M 164.5,175.5 C 163.258,179.655 161.258,183.322 158.5,186.5C 159.777,182.935 160.777,179.268 161.5,175.5C 162.5,175.5 163.5,175.5 164.5,175.5 Z"/></g>
<g><path style="opacity:1" fill="#fdf670" d="M 270.5,155.5 C 271.727,178.801 272.227,202.135 272,225.5C 272.71,226.973 273.876,227.64 275.5,227.5C 274.735,230.096 274.401,232.763 274.5,235.5C 274.5,236.833 274.5,238.167 274.5,239.5C 272.508,241.564 270.175,242.897 267.5,243.5C 267.167,243.5 266.833,243.5 266.5,243.5C 266.586,242.504 266.252,241.671 265.5,241C 263.866,240.506 262.199,240.34 260.5,240.5C 266.232,239.256 269.399,235.589 270,229.5C 270.5,204.836 270.667,180.169 270.5,155.5 Z"/></g>
<g><path style="opacity:0.133" fill="#f1dc8f" d="M 250.5,138.5 C 249.093,140.308 247.926,142.308 247,144.5C 246.5,173.165 246.333,201.831 246.5,230.5C 245.502,203.672 245.169,176.672 245.5,149.5C 245.616,146.14 245.949,142.807 246.5,139.5C 247.708,138.766 249.041,138.433 250.5,138.5 Z"/></g>
<g><path style="opacity:1" fill="#fbf270" d="M 164.5,175.5 C 163.5,175.5 162.5,175.5 161.5,175.5C 160.777,179.268 159.777,182.935 158.5,186.5C 158.5,186.833 158.5,187.167 158.5,187.5C 154.928,190.593 153.261,194.593 153.5,199.5C 152.5,199.5 151.5,199.5 150.5,199.5C 150.5,200.833 150.5,202.167 150.5,203.5C 148.559,206.197 147.059,209.197 146,212.5C 145.501,207.177 145.334,201.844 145.5,196.5C 146.793,195.158 147.626,193.491 148,191.5C 148.363,188.456 148.863,185.456 149.5,182.5C 149.5,182.167 149.5,181.833 149.5,181.5C 151.072,183.944 152.572,186.61 154,189.5C 157.378,184.637 159.211,179.303 159.5,173.5C 160.5,173.5 161.5,173.5 162.5,173.5C 161.923,170.45 163.09,168.45 166,167.5C 165.042,169.935 164.542,172.601 164.5,175.5 Z"/></g>
<g><path style="opacity:1" fill="#fdf878" d="M 264.5,130.5 C 266.816,131.806 269.15,133.139 271.5,134.5C 273.196,137.236 274.362,140.236 275,143.5C 275.5,171.498 275.667,199.498 275.5,227.5C 273.876,227.64 272.71,226.973 272,225.5C 272.227,202.135 271.727,178.801 270.5,155.5C 270.666,150.821 270.499,146.155 270,141.5C 269.292,140.619 268.458,139.953 267.5,139.5C 266.267,136.887 264.267,135.221 261.5,134.5C 261.738,132.596 262.738,131.262 264.5,130.5 Z"/></g>
<g><path style="opacity:0.251" fill="#f8ec91" d="M 373.5,188.5 C 376.873,194.303 378.873,200.636 379.5,207.5C 377.362,201.302 375.362,194.968 373.5,188.5 Z"/></g>
<g><path style="opacity:0.965" fill="#f3db6f" d="M 149.5,182.5 C 148.863,185.456 148.363,188.456 148,191.5C 147.626,193.491 146.793,195.158 145.5,196.5C 144.607,198.297 143.274,199.63 141.5,200.5C 143.148,196.251 144.648,191.918 146,187.5C 146.902,185.569 148.069,183.903 149.5,182.5 Z"/></g>
<g><path style="opacity:0.18" fill="#efd768" d="M 237.5,138.5 C 236.364,169.144 236.197,199.81 237,230.5C 237.2,232.32 238.034,233.653 239.5,234.5C 240.11,236.434 241.11,238.101 242.5,239.5C 242.351,240.552 242.517,241.552 243,242.5C 244.667,243.733 246.167,245.067 247.5,246.5C 241.819,244.318 237.986,240.318 236,234.5C 235.333,203.5 235.333,172.5 236,141.5C 236.232,140.263 236.732,139.263 237.5,138.5 Z"/></g>
<g><path style="opacity:0.978" fill="#f2df6f" d="M 385.5,191.5 C 388.621,199.121 390.621,207.121 391.5,215.5C 391.167,215.5 390.833,215.5 390.5,215.5C 390.5,214.833 390.167,214.5 389.5,214.5C 389.672,213.508 389.338,212.842 388.5,212.5C 387.255,205.541 386.255,198.541 385.5,191.5 Z"/></g>
<g><path style="opacity:1" fill="#fdf675" d="M 352.5,166.5 C 353.458,166.953 354.292,167.619 355,168.5C 358.178,174.193 361.345,179.859 364.5,185.5C 367.146,193.073 369.646,200.74 372,208.5C 372.912,213.464 373.412,218.464 373.5,223.5C 373.666,227.846 373.499,232.179 373,236.5C 371.984,235.366 371.317,235.699 371,237.5C 370.722,236.584 370.222,235.918 369.5,235.5C 370.089,231.029 369.423,227.029 367.5,223.5C 367.384,216.751 366.551,210.084 365,203.5C 362.691,197.54 360.358,191.54 358,185.5C 356.89,183.963 355.39,183.297 353.5,183.5C 353.5,183.167 353.5,182.833 353.5,182.5C 353.221,179.882 352.554,177.382 351.5,175C 352.449,174.383 353.282,174.549 354,175.5C 353.503,173.802 353.67,172.135 354.5,170.5C 353.37,169.378 352.703,168.044 352.5,166.5 Z"/></g>
<g><path style="opacity:0.863" fill="#f2dd76" d="M 158.5,187.5 C 154.407,196.551 151.407,205.884 149.5,215.5C 149.505,211.466 149.838,207.466 150.5,203.5C 150.5,202.167 150.5,200.833 150.5,199.5C 151.5,199.5 152.5,199.5 153.5,199.5C 153.261,194.593 154.928,190.593 158.5,187.5 Z"/></g>
<g><path style="opacity:0.747" fill="#f2db59" d="M 267.5,139.5 C 268.458,139.953 269.292,140.619 270,141.5C 270.499,146.155 270.666,150.821 270.5,155.5C 270.667,180.169 270.5,204.836 270,229.5C 269.399,235.589 266.232,239.256 260.5,240.5C 257.482,240.665 254.482,240.498 251.5,240C 249.893,238.951 249.227,237.451 249.5,235.5C 254.879,238.439 260.046,238.106 265,234.5C 265.847,232.807 266.68,231.14 267.5,229.5C 268.806,199.646 268.806,169.646 267.5,139.5 Z"/></g>
<g><path style="opacity:1" fill="#f8e353" d="M 271.5,134.5 C 272.391,135.11 273.391,135.443 274.5,135.5C 275.167,135.5 275.5,135.833 275.5,136.5C 276.471,168.809 276.804,201.142 276.5,233.5C 276.5,234.833 275.833,235.5 274.5,235.5C 274.401,232.763 274.735,230.096 275.5,227.5C 275.667,199.498 275.5,171.498 275,143.5C 274.362,140.236 273.196,137.236 271.5,134.5 Z"/></g>
<g><path style="opacity:0.216" fill="#faec9c" d="M 379.5,209.5 C 381.163,211.438 381.829,213.772 381.5,216.5C 380.388,214.401 379.721,212.067 379.5,209.5 Z"/></g>
<g><path style="opacity:0.596" fill="#f2e280" d="M 141.5,203.5 C 140.971,208.822 140.471,214.156 140,219.5C 139.292,220.381 138.458,221.047 137.5,221.5C 138.204,215.235 139.538,209.235 141.5,203.5 Z"/></g>
<g><path style="opacity:0.949" fill="#f4e062" d="M 353.5,183.5 C 355.39,183.297 356.89,183.963 358,185.5C 360.358,191.54 362.691,197.54 365,203.5C 366.551,210.084 367.384,216.751 367.5,223.5C 366.833,223.5 366.167,223.5 365.5,223.5C 363.651,209.418 359.651,196.085 353.5,183.5 Z"/></g>
<g><path style="opacity:0.949" fill="#f1dd6f" d="M 139.5,166.5 C 138.408,171.933 136.242,176.933 133,181.5C 132.506,183.134 132.34,184.801 132.5,186.5C 130.395,193.455 128.395,200.455 126.5,207.5C 125.883,207.611 125.383,207.944 125,208.5C 124.823,212.356 124.323,216.023 123.5,219.5C 122.361,235.006 122.361,250.673 123.5,266.5C 116.359,231.09 121.693,197.756 139.5,166.5 Z"/></g>
<g><path style="opacity:0.629" fill="#f5e184" d="M 133.5,213.5 C 133.187,218.353 132.521,223.02 131.5,227.5C 130.897,222.381 131.564,217.715 133.5,213.5 Z"/></g>
<g><path style="opacity:1" fill="#f8e867" d="M 145.5,196.5 C 145.334,201.844 145.501,207.177 146,212.5C 147.059,209.197 148.559,206.197 150.5,203.5C 149.838,207.466 149.505,211.466 149.5,215.5C 144.586,228.868 144.253,242.202 148.5,255.5C 148.5,255.833 148.5,256.167 148.5,256.5C 148.5,259.5 148.5,262.5 148.5,265.5C 146.672,262.865 145.505,259.865 145,256.5C 144.833,244.153 144.333,231.82 143.5,219.5C 142.029,220.381 141.196,221.714 141,223.5C 140.324,237.514 140.491,251.514 141.5,265.5C 140.869,261.497 139.536,257.163 137.5,252.5C 136.301,242.223 136.301,231.89 137.5,221.5C 138.458,221.047 139.292,220.381 140,219.5C 140.471,214.156 140.971,208.822 141.5,203.5C 141.5,202.5 141.5,201.5 141.5,200.5C 143.274,199.63 144.607,198.297 145.5,196.5 Z"/></g>
<g><path style="opacity:0.108" fill="#fcea91" d="M 131.5,229.5 C 131.205,236.588 131.538,243.588 132.5,250.5C 131.179,247.402 130.512,243.902 130.5,240C 130.501,236.317 130.835,232.817 131.5,229.5 Z"/></g>
<g><path style="opacity:0.165" fill="#f4dd7e" d="M 391.5,215.5 C 394.114,230.496 394.114,245.496 391.5,260.5C 392.833,245.5 392.833,230.5 391.5,215.5 Z"/></g>
<g><path style="opacity:1" fill="#fdf874" d="M 373.5,223.5 C 374.473,225.948 374.806,228.615 374.5,231.5C 375.11,246.066 373.61,260.399 370,274.5C 368.941,277.803 367.441,280.803 365.5,283.5C 365.5,282.5 365.5,281.5 365.5,280.5C 364.209,280.737 363.209,280.404 362.5,279.5C 367.629,265.389 369.962,250.722 369.5,235.5C 370.222,235.918 370.722,236.584 371,237.5C 371.317,235.699 371.984,235.366 373,236.5C 373.499,232.179 373.666,227.846 373.5,223.5 Z"/></g>
<g><path style="opacity:0.204" fill="#f8e78d" d="M 365.5,223.5 C 366.167,223.5 366.833,223.5 367.5,223.5C 367.666,232.839 367.5,242.173 367,251.5C 366.79,253.058 366.29,254.391 365.5,255.5C 366.703,244.826 366.703,234.16 365.5,223.5 Z"/></g>
<g><path style="opacity:1" fill="#f3e05f" d="M 133.5,212.5 C 133.5,212.833 133.5,213.167 133.5,213.5C 131.564,217.715 130.897,222.381 131.5,227.5C 131.5,228.167 131.5,228.833 131.5,229.5C 130.835,232.817 130.501,236.317 130.5,240C 130.512,243.902 131.179,247.402 132.5,250.5C 132.5,250.833 132.5,251.167 132.5,251.5C 131.867,256.987 131.867,262.654 132.5,268.5C 131.852,266.502 131.019,264.502 130,262.5C 127.864,246.463 128.031,230.463 130.5,214.5C 131.06,212.199 131.56,209.866 132,207.5C 133.269,208.905 133.769,210.571 133.5,212.5 Z"/></g>
<g><path style="opacity:1" fill="#fdf576" d="M 126.5,207.5 C 126.338,209.527 126.505,211.527 127,213.5C 128.011,214.337 129.178,214.67 130.5,214.5C 128.031,230.463 127.864,246.463 130,262.5C 131.019,264.502 131.852,266.502 132.5,268.5C 133.742,272.743 134.742,277.076 135.5,281.5C 136.183,281.863 136.85,282.196 137.5,282.5C 137.682,284.591 137.348,286.591 136.5,288.5C 141.64,304.724 148.14,320.391 156,335.5C 156.483,334.552 156.649,333.552 156.5,332.5C 158.326,334.147 159.66,336.147 160.5,338.5C 159.518,337.859 158.518,337.193 157.5,336.5C 156.702,336.957 156.369,337.624 156.5,338.5C 155.432,339.434 154.099,339.768 152.5,339.5C 150.425,337.234 148.925,334.567 148,331.5C 147.667,331.833 147.333,332.167 147,332.5C 145.418,327.02 143.418,321.687 141,316.5C 140.505,318.473 140.338,320.473 140.5,322.5C 138.98,320.11 137.98,317.443 137.5,314.5C 138.117,314.611 138.617,314.944 139,315.5C 139.667,314.167 139.667,312.833 139,311.5C 135.827,303.515 132.994,295.515 130.5,287.5C 128.881,284.452 127.881,281.119 127.5,277.5C 123.974,258.401 122.641,239.068 123.5,219.5C 124.323,216.023 124.823,212.356 125,208.5C 125.383,207.944 125.883,207.611 126.5,207.5 Z"/></g>
<g><path style="opacity:1" fill="#f4dc57" d="M 242.5,239.5 C 244.359,241.85 246.692,243.684 249.5,245C 254.167,245.667 258.833,245.667 263.5,245C 264.737,244.768 265.737,244.268 266.5,243.5C 266.833,243.5 267.167,243.5 267.5,243.5C 268.738,243.81 268.738,244.31 267.5,245C 265.273,245.941 263.273,247.108 261.5,248.5C 261.167,248.5 260.833,248.5 260.5,248.5C 256.821,248.276 253.154,247.942 249.5,247.5C 248.508,247.672 247.842,247.338 247.5,246.5C 246.167,245.067 244.667,243.733 243,242.5C 242.517,241.552 242.351,240.552 242.5,239.5 Z"/></g>
<g><path style="opacity:0.996" fill="#f6e686" d="M 274.5,239.5 C 271.806,244.694 267.472,247.694 261.5,248.5C 263.273,247.108 265.273,245.941 267.5,245C 268.738,244.31 268.738,243.81 267.5,243.5C 270.175,242.897 272.508,241.564 274.5,239.5 Z"/></g>
<g><path style="opacity:0.931" fill="#f5de5f" d="M 367.5,223.5 C 369.423,227.029 370.089,231.029 369.5,235.5C 369.962,250.722 367.629,265.389 362.5,279.5C 359.441,283.937 356.608,288.603 354,293.5C 349.96,297.704 345.46,301.371 340.5,304.5C 339.194,305.912 338.36,307.579 338,309.5C 337.586,309.043 337.086,308.709 336.5,308.5C 332.243,309.128 328.576,310.795 325.5,313.5C 316.057,316.577 306.391,318.91 296.5,320.5C 300.118,319.062 303.785,317.729 307.5,316.5C 311.647,316.874 315.314,315.874 318.5,313.5C 321.385,313.357 323.718,312.357 325.5,310.5C 330.825,307.503 336.159,304.503 341.5,301.5C 344.427,300.243 346.761,298.243 348.5,295.5C 351.934,290.284 355.601,285.284 359.5,280.5C 361.935,276.942 363.268,272.942 363.5,268.5C 363.909,264.124 364.575,259.79 365.5,255.5C 366.29,254.391 366.79,253.058 367,251.5C 367.5,242.173 367.666,232.839 367.5,223.5 Z"/></g>
<g><path style="opacity:1" fill="#f4e06f" d="M 377.5,228.5 C 378.433,246.157 376.266,263.49 371,280.5C 369.311,284.56 367.144,288.227 364.5,291.5C 364.401,288.763 364.735,286.096 365.5,283.5C 367.441,280.803 368.941,277.803 370,274.5C 373.61,260.399 375.11,246.066 374.5,231.5C 375.321,234.641 375.821,237.975 376,241.5C 376.175,236.981 376.675,232.647 377.5,228.5 Z"/></g>
<g><path style="opacity:1" fill="#fdf87a" d="M 388.5,212.5 C 389.338,212.842 389.672,213.508 389.5,214.5C 388.439,223.849 388.439,233.182 389.5,242.5C 389.033,244.568 388.366,246.568 387.5,248.5C 388.733,254.152 388.733,259.819 387.5,265.5C 386.5,265.5 385.5,265.5 384.5,265.5C 384.5,262.167 384.5,258.833 384.5,255.5C 385.375,244.86 385.709,234.194 385.5,223.5C 384.741,218.463 384.741,213.463 385.5,208.5C 386.281,209.729 386.781,211.062 387,212.5C 387.69,213.738 388.19,213.738 388.5,212.5 Z"/></g>
<g><path style="opacity:1" fill="#fdf879" d="M 148.5,265.5 C 148.338,267.527 148.505,269.527 149,271.5C 150.963,275.694 152.463,280.028 153.5,284.5C 153.22,287.272 153.887,289.772 155.5,292C 154.906,292.464 154.239,292.631 153.5,292.5C 149.763,287.366 146.763,281.699 144.5,275.5C 144.043,274.702 143.376,274.369 142.5,274.5C 141.975,271.383 141.641,268.383 141.5,265.5C 140.491,251.514 140.324,237.514 141,223.5C 141.196,221.714 142.029,220.381 143.5,219.5C 144.333,231.82 144.833,244.153 145,256.5C 145.505,259.865 146.672,262.865 148.5,265.5 Z"/></g>
<g><path style="opacity:0.369" fill="#f2de7c" d="M 149.5,215.5 C 147.48,228.795 147.147,242.128 148.5,255.5C 144.253,242.202 144.586,228.868 149.5,215.5 Z"/></g>
<g><path style="opacity:0.22" fill="#f9f1ab" d="M 249.5,247.5 C 253.154,247.942 256.821,248.276 260.5,248.5C 256.735,249.774 253.069,249.441 249.5,247.5 Z"/></g>
<g><path style="opacity:0.396" fill="#f4e587" d="M 381.5,223.5 C 382.827,227.951 383.494,232.784 383.5,238C 383.697,245.07 383.03,251.903 381.5,258.5C 382.502,246.821 382.502,235.155 381.5,223.5 Z"/></g>
<g><path style="opacity:0.98" fill="#f0dc5a" d="M 390.5,215.5 C 390.833,215.5 391.167,215.5 391.5,215.5C 392.833,230.5 392.833,245.5 391.5,260.5C 391.5,260.833 391.5,261.167 391.5,261.5C 390.833,262.167 390.167,262.833 389.5,263.5C 390.439,247.528 390.772,231.528 390.5,215.5 Z"/></g>
<g><path style="opacity:1" fill="#f6e05b" d="M 123.5,219.5 C 122.641,239.068 123.974,258.401 127.5,277.5C 126.227,275.98 124.894,273.98 123.5,271.5C 123.5,269.833 123.5,268.167 123.5,266.5C 122.361,250.673 122.361,235.006 123.5,219.5 Z"/></g>
<g><path style="opacity:0.524" fill="#f7e289" d="M 148.5,256.5 C 150.035,262.342 151.369,268.342 152.5,274.5C 150.886,271.608 149.553,268.608 148.5,265.5C 148.5,262.5 148.5,259.5 148.5,256.5 Z"/></g>
<g><path style="opacity:0.988" fill="#f4e57f" d="M 274.5,268.5 C 273.038,267.542 271.705,266.376 270.5,265C 269.207,264.51 267.873,264.343 266.5,264.5C 266.5,263.5 266.5,262.5 266.5,261.5C 263.533,261.002 260.533,260.669 257.5,260.5C 253.476,261.179 249.476,261.846 245.5,262.5C 253.851,257.062 262.184,257.229 270.5,263C 272.464,264.451 273.797,266.284 274.5,268.5 Z"/></g>
<g><path style="opacity:0.239" fill="#faec9d" d="M 381.5,259.5 C 381.785,262.829 381.118,265.829 379.5,268.5C 379.676,265.273 380.343,262.273 381.5,259.5 Z"/></g>
<g><path style="opacity:1" fill="#faee66" d="M 274.5,268.5 C 275.478,272.314 276.478,276.148 277.5,280C 277.306,281.86 276.972,283.693 276.5,285.5C 276.253,286.713 275.586,287.38 274.5,287.5C 274.5,283.167 274.5,278.833 274.5,274.5C 273.167,274.5 271.833,274.5 270.5,274.5C 272.307,289.86 265.641,296.026 250.5,293C 249.944,292.617 249.611,292.117 249.5,291.5C 254.14,292.397 258.806,292.564 263.5,292C 262.402,291.23 262.402,290.397 263.5,289.5C 265.39,289.703 266.89,289.037 268,287.5C 272.01,272.527 266.51,266.027 251.5,268C 250.027,268.71 249.36,269.876 249.5,271.5C 248.041,271.433 246.708,271.766 245.5,272.5C 245.001,269.611 243.501,268.944 241,270.5C 240.833,270 240.667,269.5 240.5,269C 241.985,266.683 243.652,264.516 245.5,262.5C 249.476,261.846 253.476,261.179 257.5,260.5C 260.533,260.669 263.533,261.002 266.5,261.5C 266.5,262.5 266.5,263.5 266.5,264.5C 267.873,264.343 269.207,264.51 270.5,265C 271.705,266.376 273.038,267.542 274.5,268.5 Z"/></g>
<g><path style="opacity:0.988" fill="#f2dc57" d="M 371.5,179.5 C 373.559,182.611 375.392,185.944 377,189.5C 380.492,200.801 383.325,212.134 385.5,223.5C 385.709,234.194 385.375,244.86 384.5,255.5C 383.268,262.533 381.935,269.533 380.5,276.5C 379.539,274.735 379.205,272.735 379.5,270.5C 379.5,269.833 379.5,269.167 379.5,268.5C 381.118,265.829 381.785,262.829 381.5,259.5C 381.5,259.167 381.5,258.833 381.5,258.5C 383.03,251.903 383.697,245.07 383.5,238C 383.494,232.784 382.827,227.951 381.5,223.5C 381.5,221.167 381.5,218.833 381.5,216.5C 381.829,213.772 381.163,211.438 379.5,209.5C 379.5,208.833 379.5,208.167 379.5,207.5C 378.873,200.636 376.873,194.303 373.5,188.5C 372.99,185.461 372.323,182.461 371.5,179.5 Z"/></g>
<g><path style="opacity:0.988" fill="#f4df7b" d="M 137.5,252.5 C 139.536,257.163 140.869,261.497 141.5,265.5C 141.641,268.383 141.975,271.383 142.5,274.5C 143.15,276.435 143.483,278.435 143.5,280.5C 139.798,271.653 137.798,262.319 137.5,252.5 Z"/></g>
<g><path style="opacity:0.976" fill="#f3dd7a" d="M 132.5,251.5 C 133.522,261.941 135.188,272.274 137.5,282.5C 136.85,282.196 136.183,281.863 135.5,281.5C 134.742,277.076 133.742,272.743 132.5,268.5C 131.867,262.654 131.867,256.987 132.5,251.5 Z"/></g>
<g><path style="opacity:1" fill="#fbf47b" d="M 245.5,262.5 C 243.652,264.516 241.985,266.683 240.5,269C 240.667,269.5 240.833,270 241,270.5C 243.501,268.944 245.001,269.611 245.5,272.5C 245.5,272.833 245.5,273.167 245.5,273.5C 244.883,273.611 244.383,273.944 244,274.5C 243.891,279.614 243.224,284.614 242,289.5C 242.017,283.834 241.184,278.167 239.5,272.5C 239.158,271.662 238.492,271.328 237.5,271.5C 238.768,267.233 241.435,264.233 245.5,262.5 Z"/></g>
<g><path style="opacity:0.984" fill="#f4df69" d="M 263.5,289.5 C 269.842,281.392 268.509,274.892 259.5,270C 253.48,269.615 249.147,272.115 246.5,277.5C 246.768,275.901 246.434,274.568 245.5,273.5C 245.5,273.167 245.5,272.833 245.5,272.5C 246.708,271.766 248.041,271.433 249.5,271.5C 249.36,269.876 250.027,268.71 251.5,268C 266.51,266.027 272.01,272.527 268,287.5C 266.89,289.037 265.39,289.703 263.5,289.5 Z"/></g>
<g><path style="opacity:0.608" fill="#f6e584" d="M 363.5,268.5 C 363.268,272.942 361.935,276.942 359.5,280.5C 360.256,276.233 361.589,272.233 363.5,268.5 Z"/></g>
<g><path style="opacity:0.271" fill="#f5df80" d="M 391.5,261.5 C 391.054,268.801 389.721,275.801 387.5,282.5C 387.916,277.507 388.249,272.507 388.5,267.5C 388.232,265.901 388.566,264.568 389.5,263.5C 390.167,262.833 390.833,262.167 391.5,261.5 Z"/></g>
<g><path style="opacity:0.78" fill="#f5da7d" d="M 237.5,272.5 C 236.312,278.181 236.312,283.848 237.5,289.5C 236.778,289.082 236.278,288.416 236,287.5C 235.333,282.833 235.333,278.167 236,273.5C 236.383,272.944 236.883,272.611 237.5,272.5 Z"/></g>
<g><path style="opacity:0.973" fill="#f3e37b" d="M 123.5,271.5 C 124.894,273.98 126.227,275.98 127.5,277.5C 127.881,281.119 128.881,284.452 130.5,287.5C 130.423,291.215 130.756,294.881 131.5,298.5C 128.391,289.753 125.725,280.753 123.5,271.5 Z"/></g>
<g><path style="opacity:0.875" fill="#f4e069" d="M 142.5,274.5 C 143.376,274.369 144.043,274.702 144.5,275.5C 146.763,281.699 149.763,287.366 153.5,292.5C 155.545,294.889 157.211,297.556 158.5,300.5C 159.736,301.246 161.07,301.579 162.5,301.5C 162.15,304.453 163.15,306.787 165.5,308.5C 154.799,301.8 147.465,292.467 143.5,280.5C 143.483,278.435 143.15,276.435 142.5,274.5 Z"/></g>
<g><path style="opacity:1" fill="#fdf573" d="M 239.5,272.5 C 241.184,278.167 242.017,283.834 242,289.5C 243.224,284.614 243.891,279.614 244,274.5C 244.383,273.944 244.883,273.611 245.5,273.5C 246.434,274.568 246.768,275.901 246.5,277.5C 245.359,280.64 245.192,283.973 246,287.5C 246.949,289.093 248.115,290.426 249.5,291.5C 249.611,292.117 249.944,292.617 250.5,293C 265.641,296.026 272.307,289.86 270.5,274.5C 271.833,274.5 273.167,274.5 274.5,274.5C 274.5,278.833 274.5,283.167 274.5,287.5C 273.917,290.489 272.584,293.155 270.5,295.5C 269.051,296.172 267.718,296.839 266.5,297.5C 250.642,302.298 240.976,296.631 237.5,280.5C 237.964,277.651 238.631,274.984 239.5,272.5 Z"/></g>
<g><path style="opacity:0.91" fill="#efd661" d="M 246.5,277.5 C 246.886,289.183 252.553,293.183 263.5,289.5C 262.402,290.397 262.402,291.23 263.5,292C 258.806,292.564 254.14,292.397 249.5,291.5C 248.115,290.426 246.949,289.093 246,287.5C 245.192,283.973 245.359,280.64 246.5,277.5 Z"/></g>
<g><path style="opacity:0.82" fill="#f2de6a" d="M 379.5,270.5 C 379.205,272.735 379.539,274.735 380.5,276.5C 379.293,282.998 377.626,289.331 375.5,295.5C 374.542,295.953 373.708,296.619 373,297.5C 372.7,302.271 370.867,306.271 367.5,309.5C 371.97,296.615 375.97,283.615 379.5,270.5 Z"/></g>
<g><path style="opacity:0.965" fill="#f1dd79" d="M 274.5,268.5 C 277.897,271.686 279.23,275.686 278.5,280.5C 276.643,297.173 267.31,304.34 250.5,302C 249.584,301.722 248.918,301.222 248.5,300.5C 255.048,301.605 261.381,300.772 267.5,298C 267.272,297.601 266.938,297.435 266.5,297.5C 267.718,296.839 269.051,296.172 270.5,295.5C 272.584,293.155 273.917,290.489 274.5,287.5C 275.586,287.38 276.253,286.713 276.5,285.5C 276.972,283.693 277.306,281.86 277.5,280C 276.478,276.148 275.478,272.314 274.5,268.5 Z"/></g>
<g><path style="opacity:0.988" fill="#f3dd5c" d="M 130.5,287.5 C 132.994,295.515 135.827,303.515 139,311.5C 139.667,312.833 139.667,314.167 139,315.5C 138.617,314.944 138.117,314.611 137.5,314.5C 135.358,311.2 134.025,307.533 133.5,303.5C 133.598,301.447 132.931,299.78 131.5,298.5C 130.756,294.881 130.423,291.215 130.5,287.5 Z"/></g>
<g><path style="opacity:1" fill="#fcf572" d="M 389.5,214.5 C 390.167,214.5 390.5,214.833 390.5,215.5C 390.772,231.528 390.439,247.528 389.5,263.5C 388.566,264.568 388.232,265.901 388.5,267.5C 385.823,279.203 382.823,290.87 379.5,302.5C 378.475,305.974 377.808,309.64 377.5,313.5C 375.946,314.914 374.612,316.581 373.5,318.5C 373.167,318.167 372.833,317.833 372.5,317.5C 373.788,314.033 373.788,310.7 372.5,307.5C 372.951,303.296 373.951,299.296 375.5,295.5C 377.626,289.331 379.293,282.998 380.5,276.5C 381.935,269.533 383.268,262.533 384.5,255.5C 384.5,258.833 384.5,262.167 384.5,265.5C 385.5,265.5 386.5,265.5 387.5,265.5C 388.733,259.819 388.733,254.152 387.5,248.5C 388.366,246.568 389.033,244.568 389.5,242.5C 388.439,233.182 388.439,223.849 389.5,214.5 Z"/></g>
<g><path style="opacity:0.953" fill="#f3dd5b" d="M 388.5,267.5 C 388.249,272.507 387.916,277.507 387.5,282.5C 387.142,285.267 386.475,287.933 385.5,290.5C 383.5,294.5 381.5,298.5 379.5,302.5C 382.823,290.87 385.823,279.203 388.5,267.5 Z"/></g>
<g><path style="opacity:0.988" fill="#f3dc5f" d="M 237.5,271.5 C 238.492,271.328 239.158,271.662 239.5,272.5C 238.631,274.984 237.964,277.651 237.5,280.5C 240.976,296.631 250.642,302.298 266.5,297.5C 266.938,297.435 267.272,297.601 267.5,298C 261.381,300.772 255.048,301.605 248.5,300.5C 243.167,298.5 239.5,294.833 237.5,289.5C 236.312,283.848 236.312,278.181 237.5,272.5C 237.5,272.167 237.5,271.833 237.5,271.5 Z"/></g>
<g><path style="opacity:0.333" fill="#faeb91" d="M 348.5,295.5 C 346.761,298.243 344.427,300.243 341.5,301.5C 343.193,298.81 345.527,296.81 348.5,295.5 Z"/></g>
<g><path style="opacity:0.102" fill="#f9e59b" d="M 131.5,298.5 C 132.931,299.78 133.598,301.447 133.5,303.5C 131.787,302.365 131.12,300.698 131.5,298.5 Z"/></g>
<g><path style="opacity:0.98" fill="#f4de74" d="M 358.5,299.5 C 356.549,302.785 353.882,305.451 350.5,307.5C 350.36,305.876 351.027,304.71 352.5,304C 352.167,303.667 351.833,303.333 351.5,303C 353.527,301.121 355.86,299.954 358.5,299.5 Z"/></g>
<g><path style="opacity:0.914" fill="#f3e284" d="M 385.5,290.5 C 383.599,298.542 380.932,306.208 377.5,313.5C 377.808,309.64 378.475,305.974 379.5,302.5C 381.5,298.5 383.5,294.5 385.5,290.5 Z"/></g>
<g><path style="opacity:1" fill="#f2dd67" d="M 137.5,282.5 C 142.909,299.431 149.243,316.098 156.5,332.5C 156.649,333.552 156.483,334.552 156,335.5C 148.14,320.391 141.64,304.724 136.5,288.5C 137.348,286.591 137.682,284.591 137.5,282.5 Z"/></g>
<g><path style="opacity:1" fill="#fcf372" d="M 362.5,279.5 C 363.209,280.404 364.209,280.737 365.5,280.5C 365.5,281.5 365.5,282.5 365.5,283.5C 364.735,286.096 364.401,288.763 364.5,291.5C 363.471,294.891 361.471,297.557 358.5,299.5C 355.86,299.954 353.527,301.121 351.5,303C 351.833,303.333 352.167,303.667 352.5,304C 351.027,304.71 350.36,305.876 350.5,307.5C 348.518,307.995 346.518,308.495 344.5,309C 339.831,312.522 334.831,315.356 329.5,317.5C 327.396,317.799 325.396,317.466 323.5,316.5C 324.193,315.482 324.859,314.482 325.5,313.5C 328.576,310.795 332.243,309.128 336.5,308.5C 337.086,308.709 337.586,309.043 338,309.5C 338.36,307.579 339.194,305.912 340.5,304.5C 345.46,301.371 349.96,297.704 354,293.5C 356.608,288.603 359.441,283.937 362.5,279.5 Z"/></g>
<g><path style="opacity:1" fill="#f6ea7f" d="M 165.5,308.5 C 169.085,310.334 172.585,312.334 176,314.5C 177.762,314.056 177.595,313.556 175.5,313C 177.619,309.831 179.619,309.831 181.5,313C 180.244,313.417 179.577,314.25 179.5,315.5C 179.062,315.435 178.728,315.601 178.5,316C 181.014,316.881 183.014,318.381 184.5,320.5C 177.347,317.759 171.014,313.759 165.5,308.5 Z"/></g>
<g><path style="opacity:0.216" fill="#fce89d" d="M 325.5,310.5 C 323.718,312.357 321.385,313.357 318.5,313.5C 320.395,311.759 322.728,310.759 325.5,310.5 Z"/></g>
<g><path style="opacity:0.996" fill="#f5dd70" d="M 350.5,307.5 C 344.087,313.374 336.754,317.707 328.5,320.5C 329.11,319.609 329.443,318.609 329.5,317.5C 334.831,315.356 339.831,312.522 344.5,309C 346.518,308.495 348.518,307.995 350.5,307.5 Z"/></g>
<g><path style="opacity:1" fill="#fcf675" d="M 153.5,284.5 C 168.999,305.917 189.999,318.251 216.5,321.5C 212.486,321.334 208.486,321.501 204.5,322C 203.263,322.232 202.263,322.732 201.5,323.5C 199.801,323.66 198.134,323.494 196.5,323C 190.851,320.397 185.184,317.897 179.5,315.5C 179.577,314.25 180.244,313.417 181.5,313C 179.619,309.831 177.619,309.831 175.5,313C 177.595,313.556 177.762,314.056 176,314.5C 172.585,312.334 169.085,310.334 165.5,308.5C 163.15,306.787 162.15,304.453 162.5,301.5C 161.07,301.579 159.736,301.246 158.5,300.5C 157.211,297.556 155.545,294.889 153.5,292.5C 154.239,292.631 154.906,292.464 155.5,292C 153.887,289.772 153.22,287.272 153.5,284.5 Z"/></g>
<g><path style="opacity:0.145" fill="#fde999" d="M 191.5,311.5 C 195.137,312.263 198.47,313.597 201.5,315.5C 197.668,315.118 194.335,313.785 191.5,311.5 Z"/></g>
<g><path style="opacity:0.592" fill="#f7e787" d="M 318.5,313.5 C 315.314,315.874 311.647,316.874 307.5,316.5C 311.006,315.267 314.673,314.267 318.5,313.5 Z"/></g>
<g><path style="opacity:0.114" fill="#f6e198" d="M 212.5,317.5 C 217.152,317.998 221.819,318.331 226.5,318.5C 224.696,319.162 222.696,319.495 220.5,319.5C 217.473,319.713 214.807,319.047 212.5,317.5 Z"/></g>
<g><path style="opacity:0.725" fill="#f4de5f" d="M 148.5,265.5 C 149.553,268.608 150.886,271.608 152.5,274.5C 160.532,291.86 173.532,304.194 191.5,311.5C 194.335,313.785 197.668,315.118 201.5,315.5C 205.319,315.414 208.985,316.081 212.5,317.5C 214.807,319.047 217.473,319.713 220.5,319.5C 222.696,319.495 224.696,319.162 226.5,318.5C 227.791,318.263 228.791,318.596 229.5,319.5C 251.327,320.497 273.327,320.831 295.5,320.5C 295.158,321.338 294.492,321.672 293.5,321.5C 267.835,322.823 242.169,322.823 216.5,321.5C 189.999,318.251 168.999,305.917 153.5,284.5C 152.463,280.028 150.963,275.694 149,271.5C 148.505,269.527 148.338,267.527 148.5,265.5 Z"/></g>
<g><path style="opacity:0.288" fill="#f7e17a" d="M 307.5,316.5 C 303.785,317.729 300.118,319.062 296.5,320.5C 296.167,320.5 295.833,320.5 295.5,320.5C 273.327,320.831 251.327,320.497 229.5,319.5C 255.59,320.22 281.59,319.22 307.5,316.5 Z"/></g>
<g><path style="opacity:1" fill="#fbf177" d="M 372.5,307.5 C 373.788,310.7 373.788,314.033 372.5,317.5C 372.833,317.833 373.167,318.167 373.5,318.5C 374.612,316.581 375.946,314.914 377.5,313.5C 374.477,323.21 370.144,332.21 364.5,340.5C 364.657,339.127 364.49,337.793 364,336.5C 360.651,340.813 359.151,340.146 359.5,334.5C 363.287,325.081 367.621,316.081 372.5,307.5 Z"/></g>
<g><path style="opacity:0.837" fill="#f2dc64" d="M 179.5,315.5 C 185.184,317.897 190.851,320.397 196.5,323C 198.134,323.494 199.801,323.66 201.5,323.5C 207.433,325.11 213.433,326.443 219.5,327.5C 225.833,328.167 232.167,328.833 238.5,329.5C 233.305,329.179 228.305,329.513 223.5,330.5C 209.951,329.204 196.951,325.871 184.5,320.5C 183.014,318.381 181.014,316.881 178.5,316C 178.728,315.601 179.062,315.435 179.5,315.5 Z"/></g>
<g><path style="opacity:1" fill="#fef778" d="M 216.5,321.5 C 242.169,322.823 267.835,322.823 293.5,321.5C 292.282,322.161 290.949,322.828 289.5,323.5C 290.025,324.192 290.692,324.692 291.5,325C 289.336,325.433 287.336,324.933 285.5,323.5C 282.972,324.169 282.972,325.002 285.5,326C 284.101,326.595 282.768,326.428 281.5,325.5C 280.261,325.942 279.261,326.609 278.5,327.5C 258.833,327.5 239.167,327.5 219.5,327.5C 213.433,326.443 207.433,325.11 201.5,323.5C 202.263,322.732 203.263,322.232 204.5,322C 208.486,321.501 212.486,321.334 216.5,321.5 Z"/></g>
<g><path style="opacity:1" fill="#fcf26f" d="M 325.5,313.5 C 324.859,314.482 324.193,315.482 323.5,316.5C 325.396,317.466 327.396,317.799 329.5,317.5C 329.443,318.609 329.11,319.609 328.5,320.5C 328.158,321.338 327.492,321.672 326.5,321.5C 321.851,322.065 317.184,322.565 312.5,323C 313.167,323.333 313.833,323.667 314.5,324C 312.404,324.737 310.737,325.903 309.5,327.5C 308.833,327.5 308.167,327.5 307.5,327.5C 302.5,327.5 297.5,327.5 292.5,327.5C 287.833,327.5 283.167,327.5 278.5,327.5C 279.261,326.609 280.261,325.942 281.5,325.5C 282.768,326.428 284.101,326.595 285.5,326C 282.972,325.002 282.972,324.169 285.5,323.5C 287.336,324.933 289.336,325.433 291.5,325C 290.692,324.692 290.025,324.192 289.5,323.5C 290.949,322.828 292.282,322.161 293.5,321.5C 294.492,321.672 295.158,321.338 295.5,320.5C 295.833,320.5 296.167,320.5 296.5,320.5C 306.391,318.91 316.057,316.577 325.5,313.5 Z"/></g>
<g><path style="opacity:0.894" fill="#f6e483" d="M 326.5,321.5 C 321.062,323.949 315.395,325.949 309.5,327.5C 310.737,325.903 312.404,324.737 314.5,324C 313.833,323.667 313.167,323.333 312.5,323C 317.184,322.565 321.851,322.065 326.5,321.5 Z"/></g>
<g><path style="opacity:0.996" fill="#f4df5d" d="M 375.5,295.5 C 373.951,299.296 372.951,303.296 372.5,307.5C 367.621,316.081 363.287,325.081 359.5,334.5C 355.786,341.089 351.786,347.589 347.5,354C 344.518,354.498 341.518,354.665 338.5,354.5C 335.428,354.817 332.428,354.484 329.5,353.5C 328.557,348.9 328.223,344.233 328.5,339.5C 330.054,343.567 330.72,347.9 330.5,352.5C 336.026,352.821 341.36,352.488 346.5,351.5C 354.255,337.916 361.255,323.916 367.5,309.5C 370.867,306.271 372.7,302.271 373,297.5C 373.708,296.619 374.542,295.953 375.5,295.5 Z"/></g>
<g><path style="opacity:0.996" fill="#f6df55" d="M 219.5,327.5 C 239.167,327.5 258.833,327.5 278.5,327.5C 283.167,327.5 287.833,327.5 292.5,327.5C 274.691,329.071 256.691,329.738 238.5,329.5C 232.167,328.833 225.833,328.167 219.5,327.5 Z"/></g>
<g><path style="opacity:0.504" fill="#f1e082" d="M 292.5,327.5 C 297.5,327.5 302.5,327.5 307.5,327.5C 302.358,328.647 297.025,329.48 291.5,330C 268.836,330.5 246.169,330.667 223.5,330.5C 228.305,329.513 233.305,329.179 238.5,329.5C 256.691,329.738 274.691,329.071 292.5,327.5 Z"/></g>
<g><path style="opacity:0.325" fill="#f4e8a4" d="M 326.5,335.5 C 321.5,335.5 316.5,335.5 311.5,335.5C 316.5,332.833 321.5,332.833 326.5,335.5 Z"/></g>
<g><path style="opacity:0.918" fill="#f2df80" d="M 207.5,340.5 C 207.5,344.167 207.5,347.833 207.5,351.5C 207.131,347.232 206.131,343.232 204.5,339.5C 203.833,339.5 203.5,339.167 203.5,338.5C 202.051,336.836 200.051,336.002 197.5,336C 193.779,335.322 190.112,335.489 186.5,336.5C 186.611,335.883 186.944,335.383 187.5,335C 192.833,333 198.167,333 203.5,335C 205.464,336.451 206.797,338.284 207.5,340.5 Z"/></g>
<g><path style="opacity:0.939" fill="#f5de67" d="M 311.5,335.5 C 316.5,335.5 321.5,335.5 326.5,335.5C 328.451,336.282 329.951,337.616 331,339.5C 331.173,343.541 331.673,347.541 332.5,351.5C 337.151,350.297 341.818,350.297 346.5,351.5C 341.36,352.488 336.026,352.821 330.5,352.5C 330.72,347.9 330.054,343.567 328.5,339.5C 325.081,337.913 321.415,337.247 317.5,337.5C 314.635,337.055 312.135,337.722 310,339.5C 309.826,344.351 309.326,349.018 308.5,353.5C 301.5,353.5 294.5,353.5 287.5,353.5C 287.5,349.167 287.5,344.833 287.5,340.5C 288.196,344.231 288.862,348.065 289.5,352C 292.167,352.167 294.833,352.333 297.5,352.5C 300.59,352.478 303.257,351.812 305.5,350.5C 305.344,346.418 305.844,342.418 307,338.5C 308.129,336.859 309.629,335.859 311.5,335.5 Z"/></g>
<g><path style="opacity:1" fill="#fbf274" d="M 270.5,335.5 C 275.58,335.25 280.58,335.75 285.5,337C 286.823,337.816 287.489,338.983 287.5,340.5C 287.5,344.833 287.5,349.167 287.5,353.5C 294.5,353.5 301.5,353.5 308.5,353.5C 302.347,354.328 296.013,354.828 289.5,355C 290.167,355.333 290.833,355.667 291.5,356C 289.676,356.66 288.343,357.827 287.5,359.5C 285.248,359.084 283.748,357.751 283,355.5C 282.077,351.21 281.577,346.877 281.5,342.5C 278.833,342.5 276.167,342.5 273.5,342.5C 273.706,346.898 273.373,351.232 272.5,355.5C 267.247,352.589 267.247,349.922 272.5,347.5C 272.688,345.897 272.188,344.563 271,343.5C 270.29,344.973 269.124,345.64 267.5,345.5C 267.657,344.127 267.49,342.793 267,341.5C 266.667,341.833 266.333,342.167 266,342.5C 265.88,345.955 265.38,348.622 264.5,350.5C 264.234,346.395 264.734,342.395 266,338.5C 267.129,336.859 268.629,335.859 270.5,335.5 Z"/></g>
<g><path style="opacity:0.792" fill="#f4e073" d="M 152.5,339.5 C 152.401,342.237 152.735,344.904 153.5,347.5C 147.965,339.918 143.632,331.585 140.5,322.5C 140.338,320.473 140.505,318.473 141,316.5C 143.418,321.687 145.418,327.02 147,332.5C 147.333,332.167 147.667,331.833 148,331.5C 148.925,334.567 150.425,337.234 152.5,339.5 Z"/></g>
<g><path style="opacity:1" fill="#fdf777" d="M 267.5,345.5 C 269.124,345.64 270.29,344.973 271,343.5C 272.188,344.563 272.688,345.897 272.5,347.5C 267.247,349.922 267.247,352.589 272.5,355.5C 273.404,356.209 273.737,357.209 273.5,358.5C 263.51,359.73 253.51,359.73 243.5,358.5C 241.845,353.684 241.012,348.684 241,343.5C 238.281,342.556 235.448,342.223 232.5,342.5C 232.083,346.835 231.583,351.168 231,355.5C 229.833,356.667 228.667,357.833 227.5,359C 219.323,359.823 211.323,359.656 203.5,358.5C 205.199,358.66 206.866,358.494 208.5,358C 209.684,356.855 209.684,355.688 208.5,354.5C 214.176,354.666 219.843,354.499 225.5,354C 227.085,349.687 227.919,345.187 228,340.5C 230.653,338.059 233.82,337.059 237.5,337.5C 240.451,337.596 243.118,338.429 245.5,340C 245.863,344.892 246.863,349.558 248.5,354C 254.5,354.667 260.5,354.667 266.5,354C 267.444,351.281 267.777,348.448 267.5,345.5 Z"/></g>
<g><path style="opacity:1" fill="#fdf779" d="M 203.5,338.5 C 203.5,339.167 203.833,339.5 204.5,339.5C 205.392,344.438 205.726,349.438 205.5,354.5C 206.5,354.5 207.5,354.5 208.5,354.5C 209.684,355.688 209.684,356.855 208.5,358C 206.866,358.494 205.199,358.66 203.5,358.5C 202.531,357.691 201.698,356.691 201,355.5C 200.667,351.5 200.333,347.5 200,343.5C 197.281,342.556 194.448,342.223 191.5,342.5C 191.5,344.833 191.5,347.167 191.5,349.5C 190.663,352.484 189.329,355.318 187.5,358C 182.964,359.379 178.297,359.879 173.5,359.5C 173.67,358.178 173.337,357.011 172.5,356C 175.14,355.161 177.473,355.661 179.5,357.5C 180.919,356.995 181.585,355.995 181.5,354.5C 182.822,354.67 183.989,354.337 185,353.5C 185.179,348.348 186.012,343.348 187.5,338.5C 192.878,337.27 198.211,337.27 203.5,338.5 Z"/></g>
<g><path style="opacity:0.729" fill="#f5e06c" d="M 203.5,358.5 C 211.323,359.656 219.323,359.823 227.5,359C 228.667,357.833 229.833,356.667 231,355.5C 231.583,351.168 232.083,346.835 232.5,342.5C 235.448,342.223 238.281,342.556 241,343.5C 241.012,348.684 241.845,353.684 243.5,358.5C 253.51,359.73 263.51,359.73 273.5,358.5C 272.657,360.173 271.324,361.34 269.5,362C 260.424,362.913 251.424,362.58 242.5,361C 240.951,359.786 239.785,358.286 239,356.5C 238.501,352.848 238.335,349.182 238.5,345.5C 237.5,345.5 236.5,345.5 235.5,345.5C 236.475,359.187 230.142,364.854 216.5,362.5C 202.138,365.463 195.804,359.796 197.5,345.5C 196.5,345.5 195.5,345.5 194.5,345.5C 193.624,345.369 192.957,345.702 192.5,346.5C 193.05,348.657 193.717,350.657 194.5,352.5C 194.088,354.887 193.088,356.887 191.5,358.5C 191.5,355.5 191.5,352.5 191.5,349.5C 191.5,347.167 191.5,344.833 191.5,342.5C 194.448,342.223 197.281,342.556 200,343.5C 200.333,347.5 200.667,351.5 201,355.5C 201.698,356.691 202.531,357.691 203.5,358.5 Z"/></g>
<g><path style="opacity:0.055" fill="#fbe4a7" d="M 364.5,340.5 C 364.346,342.97 363.346,344.97 361.5,346.5C 361.654,344.03 362.654,342.03 364.5,340.5 Z"/></g>
<g><path style="opacity:0.108" fill="#f6e594" d="M 248.5,340.5 C 249.479,343.625 249.813,346.958 249.5,350.5C 250.833,350.5 252.167,350.5 253.5,350.5C 252.63,352.599 251.297,352.932 249.5,351.5C 248.511,347.893 248.177,344.226 248.5,340.5 Z"/></g>
<g><path style="opacity:1" fill="#fcf471" d="M 156.5,338.5 C 160.183,343.347 163.516,348.513 166.5,354C 171.489,354.499 176.489,354.666 181.5,354.5C 181.585,355.995 180.919,356.995 179.5,357.5C 177.473,355.661 175.14,355.161 172.5,356C 173.337,357.011 173.67,358.178 173.5,359.5C 170.15,359.665 166.817,359.498 163.5,359C 162.837,357.482 161.837,356.315 160.5,355.5C 157.939,353.36 155.605,351.027 153.5,348.5C 153.5,348.167 153.5,347.833 153.5,347.5C 152.735,344.904 152.401,342.237 152.5,339.5C 154.099,339.768 155.432,339.434 156.5,338.5 Z"/></g>
<g><path style="opacity:0.016" fill="#fefab1" d="M 194.5,345.5 C 194.5,347.833 194.5,350.167 194.5,352.5C 193.717,350.657 193.05,348.657 192.5,346.5C 192.957,345.702 193.624,345.369 194.5,345.5 Z"/></g>
<g><path style="opacity:0.753" fill="#f6e18c" d="M 305.5,350.5 C 303.257,351.812 300.59,352.478 297.5,352.5C 294.833,352.333 292.167,352.167 289.5,352C 288.862,348.065 288.196,344.231 287.5,340.5C 287.489,338.983 286.823,337.816 285.5,337C 280.58,335.75 275.58,335.25 270.5,335.5C 275.273,333.033 280.273,332.867 285.5,335C 287.726,336.227 289.226,338.061 290,340.5C 290.498,343.817 290.665,347.15 290.5,350.5C 295.5,350.5 300.5,350.5 305.5,350.5 Z"/></g>
<g><path style="opacity:0.345" fill="#f9e88a" d="M 153.5,348.5 C 155.605,351.027 157.939,353.36 160.5,355.5C 160.615,357.947 161.615,359.947 163.5,361.5C 161.629,361.141 160.129,360.141 159,358.5C 156.901,355.3 155.067,351.967 153.5,348.5 Z"/></g>
<g><path style="opacity:0.873" fill="#f5df62" d="M 248.5,340.5 C 248.177,344.226 248.511,347.893 249.5,351.5C 251.297,352.932 252.63,352.599 253.5,350.5C 257.167,350.5 260.833,350.5 264.5,350.5C 265.38,348.622 265.88,345.955 266,342.5C 266.333,342.167 266.667,341.833 267,341.5C 267.49,342.793 267.657,344.127 267.5,345.5C 267.777,348.448 267.444,351.281 266.5,354C 260.5,354.667 254.5,354.667 248.5,354C 246.863,349.558 245.863,344.892 245.5,340C 243.118,338.429 240.451,337.596 237.5,337.5C 233.82,337.059 230.653,338.059 228,340.5C 227.919,345.187 227.085,349.687 225.5,354C 219.843,354.499 214.176,354.666 208.5,354.5C 207.5,354.5 206.5,354.5 205.5,354.5C 205.726,349.438 205.392,344.438 204.5,339.5C 206.131,343.232 207.131,347.232 207.5,351.5C 208.5,351.5 209.5,351.5 210.5,351.5C 214.801,350.227 219.135,350.227 223.5,351.5C 224.787,350.129 225.453,348.295 225.5,346C 225.494,343.967 225.161,342.134 224.5,340.5C 227.012,335.488 231.179,333.154 237,333.5C 242.698,333.018 246.532,335.352 248.5,340.5 Z"/></g>
<g><path style="opacity:0.392" fill="#f4e481" d="M 224.5,340.5 C 225.161,342.134 225.494,343.967 225.5,346C 225.453,348.295 224.787,350.129 223.5,351.5C 223.323,347.766 223.656,344.099 224.5,340.5 Z"/></g>
<g><path style="opacity:0.102" fill="#f1e3a2" d="M 207.5,340.5 C 207.993,344.292 208.993,347.958 210.5,351.5C 209.5,351.5 208.5,351.5 207.5,351.5C 207.5,347.833 207.5,344.167 207.5,340.5 Z"/></g>
<g><path style="opacity:1" fill="#faf171" d="M 359.5,334.5 C 359.151,340.146 360.651,340.813 364,336.5C 364.49,337.793 364.657,339.127 364.5,340.5C 362.654,342.03 361.654,344.03 361.5,346.5C 359.612,350.606 357.446,354.606 355,358.5C 353.871,360.141 352.371,361.141 350.5,361.5C 350.5,360.833 350.5,360.167 350.5,359.5C 347.023,358.677 343.356,358.177 339.5,358C 338.663,356.989 338.33,355.822 338.5,354.5C 341.518,354.665 344.518,354.498 347.5,354C 351.786,347.589 355.786,341.089 359.5,334.5 Z"/></g>
<g><path style="opacity:1" fill="#f6e062" d="M 203.5,338.5 C 198.211,337.27 192.878,337.27 187.5,338.5C 186.012,343.348 185.179,348.348 185,353.5C 183.989,354.337 182.822,354.67 181.5,354.5C 176.489,354.666 171.489,354.499 166.5,354C 163.516,348.513 160.183,343.347 156.5,338.5C 156.369,337.624 156.702,336.957 157.5,336.5C 158.518,337.193 159.518,337.859 160.5,338.5C 162.825,343.147 165.659,347.48 169,351.5C 173.066,350.536 177.233,350.203 181.5,350.5C 181.56,351.043 181.893,351.376 182.5,351.5C 183.489,347.893 183.823,344.226 183.5,340.5C 183.738,338.596 184.738,337.262 186.5,336.5C 190.112,335.489 193.779,335.322 197.5,336C 200.051,336.002 202.051,336.836 203.5,338.5 Z"/></g>
<g><path style="opacity:0.086" fill="#f4e8ae" d="M 183.5,340.5 C 183.823,344.226 183.489,347.893 182.5,351.5C 181.893,351.376 181.56,351.043 181.5,350.5C 182.167,347.167 182.833,343.833 183.5,340.5 Z"/></g>
<g><path style="opacity:1" fill="#f4df67" d="M 287.5,359.5 C 295.611,359.935 303.611,359.435 311.5,358C 314.003,353.548 315.169,348.715 315,343.5C 316.356,342.62 317.856,342.286 319.5,342.5C 320.833,342.5 322.167,342.5 323.5,342.5C 323.334,346.846 323.501,351.179 324,355.5C 325.218,357.019 326.718,358.186 328.5,359C 335.826,359.5 343.159,359.666 350.5,359.5C 350.5,360.167 350.5,360.833 350.5,361.5C 342.5,362.833 334.5,362.833 326.5,361.5C 321.93,356.833 320.263,351.166 321.5,344.5C 319.901,344.232 318.568,344.566 317.5,345.5C 317.5,345.833 317.5,346.167 317.5,346.5C 316.419,349.627 315.753,352.96 315.5,356.5C 314.647,359.518 312.647,361.351 309.5,362C 300.756,362.91 292.089,362.576 283.5,361C 281.951,359.786 280.785,358.286 280,356.5C 279.501,352.848 279.335,349.182 279.5,345.5C 278.5,345.5 277.5,345.5 276.5,345.5C 276.665,348.85 276.498,352.183 276,355.5C 275.148,356.571 274.315,357.571 273.5,358.5C 273.737,357.209 273.404,356.209 272.5,355.5C 273.373,351.232 273.706,346.898 273.5,342.5C 276.167,342.5 278.833,342.5 281.5,342.5C 281.577,346.877 282.077,351.21 283,355.5C 283.748,357.751 285.248,359.084 287.5,359.5 Z"/></g>
<g><path style="opacity:0.082" fill="#efde86" d="M 317.5,346.5 C 317.665,349.518 317.498,352.518 317,355.5C 316.617,356.056 316.117,356.389 315.5,356.5C 315.753,352.96 316.419,349.627 317.5,346.5 Z"/></g>
<g><path style="opacity:0.165" fill="#f0df90" d="M 317.5,345.5 C 318.568,344.566 319.901,344.232 321.5,344.5C 320.263,351.166 321.93,356.833 326.5,361.5C 323.909,360.746 322.076,359.079 321,356.5C 320.501,352.848 320.335,349.182 320.5,345.5C 319.5,345.5 318.5,345.5 317.5,345.5 Z"/></g>
<g><path style="opacity:1" fill="#fdf778" d="M 317.5,337.5 C 319.158,338.181 320.825,339.015 322.5,340C 320.881,340.236 319.881,341.069 319.5,342.5C 317.856,342.286 316.356,342.62 315,343.5C 315.169,348.715 314.003,353.548 311.5,358C 303.611,359.435 295.611,359.935 287.5,359.5C 288.343,357.827 289.676,356.66 291.5,356C 290.833,355.667 290.167,355.333 289.5,355C 296.013,354.828 302.347,354.328 308.5,353.5C 309.326,349.018 309.826,344.351 310,339.5C 312.135,337.722 314.635,337.055 317.5,337.5 Z"/></g>
<g><path style="opacity:1" fill="#fdf674" d="M 317.5,337.5 C 321.415,337.247 325.081,337.913 328.5,339.5C 328.223,344.233 328.557,348.9 329.5,353.5C 332.428,354.484 335.428,354.817 338.5,354.5C 338.33,355.822 338.663,356.989 339.5,358C 343.356,358.177 347.023,358.677 350.5,359.5C 343.159,359.666 335.826,359.5 328.5,359C 326.718,358.186 325.218,357.019 324,355.5C 323.501,351.179 323.334,346.846 323.5,342.5C 322.167,342.5 320.833,342.5 319.5,342.5C 319.881,341.069 320.881,340.236 322.5,340C 320.825,339.015 319.158,338.181 317.5,337.5 Z"/></g>
<g><path style="opacity:1" fill="#f4e264" d="M 191.5,349.5 C 191.5,352.5 191.5,355.5 191.5,358.5C 190.547,360.61 188.881,361.777 186.5,362C 178.754,362.798 171.087,362.631 163.5,361.5C 161.615,359.947 160.615,357.947 160.5,355.5C 161.837,356.315 162.837,357.482 163.5,359C 166.817,359.498 170.15,359.665 173.5,359.5C 178.297,359.879 182.964,359.379 187.5,358C 189.329,355.318 190.663,352.484 191.5,349.5 Z"/></g>
</svg>
