<?xml version="1.0" encoding="UTF-8"?>
<!DOCTYPE svg PUBLIC "-//W3C//DTD SVG 1.1//EN" "http://www.w3.org/Graphics/SVG/1.1/DTD/svg11.dtd">
<svg xmlns="http://www.w3.org/2000/svg" version="1.1" width="500px" height="500px" style="shape-rendering:geometricPrecision; text-rendering:geometricPrecision; image-rendering:optimizeQuality; fill-rule:evenodd; clip-rule:evenodd" xmlns:xlink="http://www.w3.org/1999/xlink">
<g><path style="opacity:0.347" fill="#f3d987" d="M 293.5,216.5 C 291.672,186.183 290.839,155.516 291,124.5C 289.585,120.749 287.085,117.916 283.5,116C 242.331,115.833 201.331,115.333 160.5,114.5C 200.482,113.363 240.482,113.196 280.5,114C 287.333,115.5 291.5,119.667 293,126.5C 293.5,156.498 293.667,186.498 293.5,216.5 Z"/></g>
<g><path style="opacity:0.196" fill="#f1daa2" d="M 159.5,115.5 C 157.5,118.167 155.167,120.5 152.5,122.5C 153.263,118.615 155.596,116.281 159.5,115.5 Z"/></g>
<g><path style="opacity:0.039" fill="#eed895" d="M 335.5,125.5 C 329.897,122.699 324.231,119.865 318.5,117C 315.331,116.022 312.497,116.522 310,118.5C 309.824,122.688 309.324,126.688 308.5,130.5C 308.334,126.154 308.501,121.821 309,117.5C 311.21,114.71 314.044,113.877 317.5,115C 324.148,117.501 330.148,121.001 335.5,125.5 Z"/></g>
<g><path style="opacity:1" fill="#f2cb70" d="M 341.5,129.5 C 345.959,132.787 350.292,136.287 354.5,140C 355.823,140.816 356.489,141.983 356.5,143.5C 353.364,140.962 350.197,140.962 347,143.5C 346.5,143.167 346,142.833 345.5,142.5C 347.756,141.579 348.756,139.912 348.5,137.5C 346.71,138.013 345.044,138.513 343.5,139C 344.293,137.915 344.96,136.748 345.5,135.5C 343.364,134.031 342.03,132.031 341.5,129.5 Z"/></g>
<g><path style="opacity:0.957" fill="#f0cf6f" d="M 314.5,135.5 C 317.55,134.923 319.55,136.09 320.5,139C 323.333,139.167 324.833,140.667 325,143.5C 331.59,147.333 335.757,152.999 337.5,160.5C 338.325,161.386 339.325,161.719 340.5,161.5C 341.167,164.833 341.833,168.167 342.5,171.5C 335.811,157.473 326.477,145.473 314.5,135.5 Z"/></g>
<g><path style="opacity:0.999" fill="#f1ca6e" d="M 356.5,143.5 C 361.371,148.22 365.538,153.554 369,159.5C 373.963,168.085 377.797,177.085 380.5,186.5C 378.981,183.979 377.314,181.479 375.5,179C 374.256,178.544 373.423,179.044 373,180.5C 370.306,179.054 369.473,177.054 370.5,174.5C 369.311,173.571 367.978,173.238 366.5,173.5C 366.5,172.167 366.5,170.833 366.5,169.5C 367.833,169.5 369.167,169.5 370.5,169.5C 370.044,166.356 369.044,163.356 367.5,160.5C 363.356,155.047 359.689,149.38 356.5,143.5 Z"/></g>
<g><path style="opacity:0.349" fill="#efd992" d="M 380.5,186.5 C 381.117,186.611 381.617,186.944 382,187.5C 382.455,190.781 383.289,193.948 384.5,197C 384.613,198.699 383.947,199.866 382.5,200.5C 381.356,195.967 380.689,191.301 380.5,186.5 Z"/></g>
<g><path style="opacity:0.835" fill="#f1d284" d="M 342.5,171.5 C 343.5,171.5 344.5,171.5 345.5,171.5C 347.141,176.034 348.641,180.7 350,185.5C 352.363,201.266 353.197,216.932 352.5,232.5C 351.258,219.184 350.091,205.851 349,192.5C 347.6,185.226 345.433,178.226 342.5,171.5 Z"/></g>
<g><path style="opacity:0.165" fill="#f1d796" d="M 381.5,201.5 C 377.901,202.344 374.234,202.677 370.5,202.5C 371.08,206.81 371.414,211.143 371.5,215.5C 371.167,215.5 370.833,215.5 370.5,215.5C 369.45,210.886 369.283,206.22 370,201.5C 373.934,200.179 377.767,200.179 381.5,201.5 Z"/></g>
<g><path style="opacity:1" fill="#f0c557" d="M 160.5,114.5 C 201.331,115.333 242.331,115.833 283.5,116C 287.085,117.916 289.585,120.749 291,124.5C 290.839,155.516 291.672,186.183 293.5,216.5C 301.027,218.256 308.027,221.59 314.5,226.5C 315.736,227.246 317.07,227.579 318.5,227.5C 318.833,228.833 319.167,230.167 319.5,231.5C 320.028,232.847 320.195,234.181 320,235.5C 318.413,234.273 317.079,234.606 316,236.5C 311.74,233.351 307.907,229.685 304.5,225.5C 303.833,226.167 303.167,226.833 302.5,227.5C 301.481,226.313 300.314,225.313 299,224.5C 296,225.833 293,225.833 290,224.5C 289.502,227.482 289.335,230.482 289.5,233.5C 295.203,234.443 300.203,233.11 304.5,229.5C 305.004,232.342 306.671,233.675 309.5,233.5C 309.167,236.5 310.5,237.833 313.5,237.5C 313.272,240.926 314.605,243.593 317.5,245.5C 314.927,247.642 313.094,250.308 312,253.5C 311.329,252.748 310.496,252.414 309.5,252.5C 309.598,250.447 308.931,248.78 307.5,247.5C 306.326,246.486 305.66,245.153 305.5,243.5C 304.962,241.883 304.629,240.216 304.5,238.5C 301.395,238.218 298.562,237.218 296,235.5C 294.289,235.439 292.956,236.106 292,237.5C 291.169,283.002 291.335,328.335 292.5,373.5C 292.415,374.995 293.081,375.995 294.5,376.5C 297.5,375.167 300.5,375.167 303.5,376.5C 304.783,381.521 304.783,386.521 303.5,391.5C 249.503,392.667 195.503,392.833 141.5,392C 141,391.5 140.5,391 140,390.5C 139.501,385.511 139.334,380.511 139.5,375.5C 143.021,374.693 146.688,374.026 150.5,373.5C 151.175,289.973 151.841,206.306 152.5,122.5C 155.167,120.5 157.5,118.167 159.5,115.5C 159.5,114.833 159.833,114.5 160.5,114.5 Z M 171.5,134.5 C 205.573,134.174 239.573,134.507 273.5,135.5C 273.5,162.167 273.5,188.833 273.5,215.5C 240.5,215.5 207.5,215.5 174.5,215.5C 173.167,215.5 171.833,215.5 170.5,215.5C 170.184,188.456 170.517,161.456 171.5,134.5 Z"/></g>
<g><path style="opacity:0.059" fill="#ebd393" d="M 171.5,134.5 C 170.517,161.456 170.184,188.456 170.5,215.5C 169.502,191.672 169.169,167.672 169.5,143.5C 168.945,139.988 169.612,136.988 171.5,134.5 Z"/></g>
<g><path style="opacity:0.29" fill="#efd991" d="M 273.5,135.5 C 274.828,162.736 274.828,190.069 273.5,217.5C 240.15,218.16 207.15,217.493 174.5,215.5C 207.5,215.5 240.5,215.5 273.5,215.5C 273.5,188.833 273.5,162.167 273.5,135.5 Z"/></g>
<g><path style="opacity:0.893" fill="#edc766" d="M 169.5,143.5 C 169.169,167.672 169.502,191.672 170.5,215.5C 171.833,215.5 173.167,215.5 174.5,215.5C 207.15,217.493 240.15,218.16 273.5,217.5C 238.998,218.83 204.331,218.83 169.5,217.5C 168.172,192.706 168.172,168.039 169.5,143.5 Z"/></g>
<g><path style="opacity:0.502" fill="#eed589" d="M 293.5,216.5 C 303.218,217.196 311.551,220.863 318.5,227.5C 317.07,227.579 315.736,227.246 314.5,226.5C 308.027,221.59 301.027,218.256 293.5,216.5 Z"/></g>
<g><path style="opacity:0.867" fill="#eecf81" d="M 370.5,215.5 C 370.833,215.5 371.167,215.5 371.5,215.5C 372.336,224.852 373.336,234.185 374.5,243.5C 373.019,240.393 371.852,237.059 371,233.5C 370.501,227.509 370.334,221.509 370.5,215.5 Z"/></g>
<g><path style="opacity:1" fill="#f1c659" d="M 335.5,125.5 C 338.198,125.845 340.198,127.178 341.5,129.5C 342.03,132.031 343.364,134.031 345.5,135.5C 344.96,136.748 344.293,137.915 343.5,139C 345.044,138.513 346.71,138.013 348.5,137.5C 348.756,139.912 347.756,141.579 345.5,142.5C 346,142.833 346.5,143.167 347,143.5C 350.197,140.962 353.364,140.962 356.5,143.5C 359.689,149.38 363.356,155.047 367.5,160.5C 369.044,163.356 370.044,166.356 370.5,169.5C 369.167,169.5 367.833,169.5 366.5,169.5C 366.5,170.833 366.5,172.167 366.5,173.5C 367.978,173.238 369.311,173.571 370.5,174.5C 369.473,177.054 370.306,179.054 373,180.5C 373.423,179.044 374.256,178.544 375.5,179C 377.314,181.479 378.981,183.979 380.5,186.5C 380.689,191.301 381.356,195.967 382.5,200.5C 382.5,201.167 382.167,201.5 381.5,201.5C 377.767,200.179 373.934,200.179 370,201.5C 369.283,206.22 369.45,210.886 370.5,215.5C 370.334,221.509 370.501,227.509 371,233.5C 371.852,237.059 373.019,240.393 374.5,243.5C 375.926,248.048 376.926,252.714 377.5,257.5C 376.965,262.312 377.965,266.645 380.5,270.5C 380.5,270.833 380.5,271.167 380.5,271.5C 380.31,276.15 380.977,280.65 382.5,285C 380.575,288.274 381.241,290.774 384.5,292.5C 386.844,299.234 389.177,305.901 391.5,312.5C 391.5,312.833 391.5,313.167 391.5,313.5C 391.666,319.509 391.499,325.509 391,331.5C 389.52,336.438 388.353,341.438 387.5,346.5C 386.316,349.861 384.483,352.861 382,355.5C 381.329,356.252 380.496,356.586 379.5,356.5C 377.801,356.34 376.134,356.506 374.5,357C 374.957,357.414 375.291,357.914 375.5,358.5C 372.35,359.93 369.683,361.93 367.5,364.5C 367.158,365.338 366.492,365.672 365.5,365.5C 356.162,366.799 346.829,366.799 337.5,365.5C 330.234,363.869 324.234,360.202 319.5,354.5C 317.27,349.749 314.77,345.082 312,340.5C 311.118,337.211 310.452,333.877 310,330.5C 309.5,304.502 309.333,278.502 309.5,252.5C 310.496,252.414 311.329,252.748 312,253.5C 313.094,250.308 314.927,247.642 317.5,245.5C 314.605,243.593 313.272,240.926 313.5,237.5C 310.5,237.833 309.167,236.5 309.5,233.5C 306.671,233.675 305.004,232.342 304.5,229.5C 300.203,233.11 295.203,234.443 289.5,233.5C 289.335,230.482 289.502,227.482 290,224.5C 293,225.833 296,225.833 299,224.5C 300.314,225.313 301.481,226.313 302.5,227.5C 303.167,226.833 303.833,226.167 304.5,225.5C 307.907,229.685 311.74,233.351 316,236.5C 317.079,234.606 318.413,234.273 320,235.5C 320.195,234.181 320.028,232.847 319.5,231.5C 320.605,232.6 321.938,233.267 323.5,233.5C 323.5,233.833 323.5,234.167 323.5,234.5C 324.051,239.371 325.218,244.038 327,248.5C 327.333,275.5 327.667,302.5 328,329.5C 327.754,334.343 329.588,338.009 333.5,340.5C 336.523,342.533 339.523,344.533 342.5,346.5C 358.169,351.758 368.669,346.424 374,330.5C 374.667,326.833 374.667,323.167 374,319.5C 372.353,312.547 371.02,305.547 370,298.5C 368.374,297.045 367.208,295.378 366.5,293.5C 365.471,287.107 364.138,280.773 362.5,274.5C 362.36,272.97 361.693,271.97 360.5,271.5C 358.264,263.34 356.264,255.007 354.5,246.5C 355.629,244.372 355.796,242.039 355,239.5C 354.998,236.949 354.164,234.949 352.5,233.5C 352.5,233.167 352.5,232.833 352.5,232.5C 353.197,216.932 352.363,201.266 350,185.5C 348.641,180.7 347.141,176.034 345.5,171.5C 344.5,171.5 343.5,171.5 342.5,171.5C 341.833,168.167 341.167,164.833 340.5,161.5C 339.325,161.719 338.325,161.386 337.5,160.5C 335.757,152.999 331.59,147.333 325,143.5C 324.833,140.667 323.333,139.167 320.5,139C 319.55,136.09 317.55,134.923 314.5,135.5C 311.911,134.581 309.911,132.914 308.5,130.5C 309.324,126.688 309.824,122.688 310,118.5C 312.497,116.522 315.331,116.022 318.5,117C 324.231,119.865 329.897,122.699 335.5,125.5 Z"/></g>
<g><path style="opacity:0.086" fill="#eed998" d="M 352.5,233.5 C 354.164,234.949 354.998,236.949 355,239.5C 355.796,242.039 355.629,244.372 354.5,246.5C 354.075,242.092 353.408,237.758 352.5,233.5 Z"/></g>
<g><path style="opacity:0.522" fill="#f4db9d" d="M 318.5,227.5 C 320.156,229.46 321.823,231.46 323.5,233.5C 321.938,233.267 320.605,232.6 319.5,231.5C 319.167,230.167 318.833,228.833 318.5,227.5 Z"/></g>
<g><path style="opacity:0.241" fill="#e4ca8a" d="M 152.5,122.5 C 151.841,206.306 151.175,289.973 150.5,373.5C 150.5,373.167 150.5,372.833 150.5,372.5C 150.333,289.833 150.5,207.166 151,124.5C 151.278,123.584 151.778,122.918 152.5,122.5 Z"/></g>
<g><path style="opacity:0.18" fill="#ead498" d="M 307.5,247.5 C 308.931,248.78 309.598,250.447 309.5,252.5C 309.333,278.502 309.5,304.502 310,330.5C 310.452,333.877 311.118,337.211 312,340.5C 314.77,345.082 317.27,349.749 319.5,354.5C 314.196,348.896 310.696,342.23 309,334.5C 308.809,305.47 308.309,276.47 307.5,247.5 Z"/></g>
<g><path style="opacity:0.604" fill="#edd191" d="M 377.5,257.5 C 378.731,261.68 379.731,266.014 380.5,270.5C 377.965,266.645 376.965,262.312 377.5,257.5 Z"/></g>
<g><path style="opacity:0.652" fill="#eece7e" d="M 305.5,243.5 C 302.172,240.176 298.172,238.176 293.5,237.5C 293.5,282.833 293.5,328.167 293.5,373.5C 293.167,373.5 292.833,373.5 292.5,373.5C 291.335,328.335 291.169,283.002 292,237.5C 292.956,236.106 294.289,235.439 296,235.5C 298.562,237.218 301.395,238.218 304.5,238.5C 304.629,240.216 304.962,241.883 305.5,243.5 Z"/></g>
<g><path style="opacity:0.118" fill="#ecda98" d="M 360.5,271.5 C 361.693,271.97 362.36,272.97 362.5,274.5C 364.138,280.773 365.471,287.107 366.5,293.5C 363.63,286.523 361.63,279.19 360.5,271.5 Z"/></g>
<g><path style="opacity:0.999" fill="#eece7a" d="M 380.5,271.5 C 384.92,284.836 388.586,298.503 391.5,312.5C 389.177,305.901 386.844,299.234 384.5,292.5C 381.241,290.774 380.575,288.274 382.5,285C 380.977,280.65 380.31,276.15 380.5,271.5 Z"/></g>
<g><path style="opacity:0.31" fill="#f4dd9c" d="M 323.5,234.5 C 325.856,237.715 327.356,241.381 328,245.5C 328.322,250.852 328.822,256.186 329.5,261.5C 329.355,278.251 329.022,295.418 328.5,313C 329.24,319.809 329.74,326.643 330,333.5C 331.193,335.886 332.36,338.22 333.5,340.5C 329.588,338.009 327.754,334.343 328,329.5C 327.667,302.5 327.333,275.5 327,248.5C 325.218,244.038 324.051,239.371 323.5,234.5 Z"/></g>
<g><path style="opacity:0.673" fill="#edd384" d="M 366.5,293.5 C 367.208,295.378 368.374,297.045 370,298.5C 371.02,305.547 372.353,312.547 374,319.5C 374.667,323.167 374.667,326.833 374,330.5C 368.669,346.424 358.169,351.758 342.5,346.5C 364.366,349.134 374.2,339.467 372,317.5C 369.593,309.634 367.76,301.634 366.5,293.5 Z"/></g>
<g><path style="opacity:0.345" fill="#efd08a" d="M 391.5,313.5 C 392.29,314.609 392.79,315.942 393,317.5C 394.921,328.018 393.088,337.685 387.5,346.5C 388.353,341.438 389.52,336.438 391,331.5C 391.499,325.509 391.666,319.509 391.5,313.5 Z"/></g>
<g><path style="opacity:0.039" fill="#f2d888" d="M 379.5,356.5 C 376.197,360.156 372.197,362.822 367.5,364.5C 369.683,361.93 372.35,359.93 375.5,358.5C 375.291,357.914 374.957,357.414 374.5,357C 376.134,356.506 377.801,356.34 379.5,356.5 Z"/></g>
<g><path style="opacity:0.286" fill="#efd791" d="M 337.5,365.5 C 346.829,366.799 356.162,366.799 365.5,365.5C 360.935,367.04 356.102,367.707 351,367.5C 347.5,367.333 344,367.167 340.5,367C 339.263,366.768 338.263,366.268 337.5,365.5 Z"/></g>
<g><path style="opacity:0.51" fill="#edd39b" d="M 150.5,372.5 C 150.5,372.833 150.5,373.167 150.5,373.5C 146.688,374.026 143.021,374.693 139.5,375.5C 138.349,380.65 138.183,385.984 139,391.5C 139.717,392.044 140.217,392.711 140.5,393.5C 138.589,393.426 137.422,392.426 137,390.5C 136.333,385.833 136.333,381.167 137,376.5C 137.374,375.584 137.874,374.75 138.5,374C 142.418,372.844 146.418,372.344 150.5,372.5 Z"/></g>
<g><path style="opacity:0.522" fill="#edcb85" d="M 292.5,373.5 C 292.833,373.5 293.167,373.5 293.5,373.5C 297.911,373.021 302.078,373.688 306,375.5C 306.667,380.833 306.667,386.167 306,391.5C 305.5,392.667 304.667,393.5 303.5,394C 249.364,394.305 195.03,394.138 140.5,393.5C 140.217,392.711 139.717,392.044 139,391.5C 138.183,385.984 138.349,380.65 139.5,375.5C 139.334,380.511 139.501,385.511 140,390.5C 140.5,391 141,391.5 141.5,392C 195.503,392.833 249.503,392.667 303.5,391.5C 304.783,386.521 304.783,381.521 303.5,376.5C 300.5,375.167 297.5,375.167 294.5,376.5C 293.081,375.995 292.415,374.995 292.5,373.5 Z"/></g>
</svg>
