<?xml version="1.0" encoding="UTF-8"?>
<!DOCTYPE svg PUBLIC "-//W3C//DTD SVG 1.1//EN" "http://www.w3.org/Graphics/SVG/1.1/DTD/svg11.dtd">
<svg xmlns="http://www.w3.org/2000/svg" version="1.1" width="549px" height="455px" style="shape-rendering:geometricPrecision; text-rendering:geometricPrecision; image-rendering:optimizeQuality; fill-rule:evenodd; clip-rule:evenodd" xmlns:xlink="http://www.w3.org/1999/xlink">
<g><path style="opacity:0.405" fill="#f5d476" d="M 324.5,114.5 C 324.5,114.833 324.5,115.167 324.5,115.5C 295.831,115.333 267.165,115.5 238.5,116C 239.624,116.249 240.624,116.749 241.5,117.5C 241.333,117.833 241.167,118.167 241,118.5C 238.25,117.709 235.417,117.709 232.5,118.5C 235.142,115.683 238.475,114.183 242.5,114C 269.905,113.176 297.239,113.343 324.5,114.5 Z"/></g>
<g><path style="opacity:0.173" fill="#f6dd93" d="M 324.5,115.5 C 324.5,115.167 324.5,114.833 324.5,114.5C 329.109,115.59 333.442,117.423 337.5,120C 338.758,121.741 339.758,123.574 340.5,125.5C 336.033,120.886 330.7,117.553 324.5,115.5 Z"/></g>
<g><path style="opacity:1" fill="#f5ca48" d="M 324.5,115.5 C 330.7,117.553 336.033,120.886 340.5,125.5C 344.586,130.665 347.92,136.332 350.5,142.5C 350.241,145.48 351.574,147.313 354.5,148C 360.5,148.333 366.5,148.667 372.5,149C 374.278,151.135 374.945,153.635 374.5,156.5C 373.549,157.919 373.216,159.585 373.5,161.5C 371.508,161.328 369.842,161.995 368.5,163.5C 367.232,162.572 365.899,162.405 364.5,163C 363.726,165.405 363.226,167.905 363,170.5C 362,169.167 361,169.167 360,170.5C 359.606,168.045 358.44,166.045 356.5,164.5C 355.777,166.69 354.61,168.69 353,170.5C 351.681,168.75 351.181,166.75 351.5,164.5C 349.897,164.312 348.563,164.812 347.5,166C 348.692,167.912 349.692,169.912 350.5,172C 349.648,173.728 348.648,173.895 347.5,172.5C 347.419,169.487 346.086,167.487 343.5,166.5C 323.678,165.167 303.511,164.5 283,164.5C 262.833,164.667 242.667,164.833 222.5,165C 220.963,166.11 220.297,167.61 220.5,169.5C 219.833,168.167 219.167,166.833 218.5,165.5C 217.022,165.238 215.689,165.571 214.5,166.5C 213.52,167.981 212.353,169.315 211,170.5C 210.308,169.975 209.808,169.308 209.5,168.5C 211.086,165.784 210.753,163.45 208.5,161.5C 207.52,164.086 207.187,166.753 207.5,169.5C 205.208,169.244 203.041,169.577 201,170.5C 200.534,167.688 201.034,165.021 202.5,162.5C 203.167,163.5 203.833,164.5 204.5,165.5C 205.529,163.114 204.863,161.114 202.5,159.5C 200.421,160.912 198.421,162.412 196.5,164C 194.19,164.497 191.857,164.663 189.5,164.5C 189.5,161.833 189.5,159.167 189.5,156.5C 189.5,156.167 189.5,155.833 189.5,155.5C 190.719,152.709 192.052,149.876 193.5,147C 199.19,146.311 204.857,146.478 210.5,147.5C 214.4,146.266 216.4,143.599 216.5,139.5C 218.265,136.291 220.265,133.291 222.5,130.5C 225.396,126.259 228.729,122.259 232.5,118.5C 235.417,117.709 238.25,117.709 241,118.5C 241.167,118.167 241.333,117.833 241.5,117.5C 240.624,116.749 239.624,116.249 238.5,116C 267.165,115.5 295.831,115.333 324.5,115.5 Z M 329.5,144.5 C 298.5,145.833 267.5,145.833 236.5,144.5C 239.178,141.668 241.512,138.501 243.5,135C 269.833,134.333 296.167,134.333 322.5,135C 325.083,138.068 327.416,141.235 329.5,144.5 Z"/></g>
<g><path style="opacity:0.31" fill="#f6dd93" d="M 232.5,118.5 C 228.729,122.259 225.396,126.259 222.5,130.5C 224.071,124.938 227.404,120.938 232.5,118.5 Z"/></g>
<g><path style="opacity:0.335" fill="#f6d981" d="M 325.5,134.5 C 327.041,137.75 328.708,140.917 330.5,144C 330.272,144.399 329.938,144.565 329.5,144.5C 327.416,141.235 325.083,138.068 322.5,135C 296.167,134.333 269.833,134.333 243.5,135C 241.512,138.501 239.178,141.668 236.5,144.5C 235.566,143.432 235.232,142.099 235.5,140.5C 237.179,140.715 238.179,140.048 238.5,138.5C 239.955,136.108 241.955,134.275 244.5,133C 271.167,132.333 297.833,132.333 324.5,133C 325.056,133.383 325.389,133.883 325.5,134.5 Z"/></g>
<g><path style="opacity:0.09" fill="#f6da86" d="M 216.5,139.5 C 216.4,143.599 214.4,146.266 210.5,147.5C 204.857,146.478 199.19,146.311 193.5,147C 192.052,149.876 190.719,152.709 189.5,155.5C 189.596,152.044 190.596,148.877 192.5,146C 199.167,145.667 205.833,145.333 212.5,145C 213.977,143.188 215.31,141.355 216.5,139.5 Z"/></g>
<g><path style="opacity:0.09" fill="#f4dc8c" d="M 356.5,145.5 C 362.176,145.334 367.843,145.501 373.5,146C 374.823,146.816 375.489,147.983 375.5,149.5C 374.373,148.878 373.373,148.045 372.5,147C 366.984,146.827 361.651,146.327 356.5,145.5 Z"/></g>
<g><path style="opacity:0.939" fill="#f5cf5e" d="M 325.5,134.5 C 327.017,134.511 328.184,135.177 329,136.5C 329.889,139.279 331.056,141.945 332.5,144.5C 332.32,145.554 331.987,146.554 331.5,147.5C 328.47,148.888 325.47,150.221 322.5,151.5C 316.305,149.912 309.971,149.079 303.5,149C 280.5,148.667 257.5,148.333 234.5,148C 233.398,145.599 233.231,143.099 234,140.5C 235.33,139.418 236.83,138.751 238.5,138.5C 238.179,140.048 237.179,140.715 235.5,140.5C 235.232,142.099 235.566,143.432 236.5,144.5C 267.5,145.833 298.5,145.833 329.5,144.5C 329.938,144.565 330.272,144.399 330.5,144C 328.708,140.917 327.041,137.75 325.5,134.5 Z"/></g>
<g><path style="opacity:0.945" fill="#f7d366" d="M 350.5,142.5 C 351.642,144.972 353.642,145.972 356.5,145.5C 361.651,146.327 366.984,146.827 372.5,147C 373.373,148.045 374.373,148.878 375.5,149.5C 375.433,150.959 375.766,152.292 376.5,153.5C 376.115,157.293 376.115,161.293 376.5,165.5C 373.359,166.321 370.025,166.821 366.5,167C 367.582,168.33 368.249,169.83 368.5,171.5C 365.013,170.517 363.68,168.183 364.5,164.5C 367.909,164.751 371.242,164.417 374.5,163.5C 375.363,161.229 375.363,158.895 374.5,156.5C 374.945,153.635 374.278,151.135 372.5,149C 366.5,148.667 360.5,148.333 354.5,148C 351.574,147.313 350.241,145.48 350.5,142.5 Z"/></g>
<g><path style="opacity:0.208" fill="#f9e7a2" d="M 376.5,153.5 C 377.005,156.521 377.672,159.521 378.5,162.5C 378.547,164.038 377.88,165.038 376.5,165.5C 376.115,161.293 376.115,157.293 376.5,153.5 Z"/></g>
<g><path style="opacity:0.549" fill="#f2d477" d="M 343.5,166.5 C 303.161,166.167 262.828,166.5 222.5,167.5C 222.145,168.522 221.478,169.189 220.5,169.5C 220.297,167.61 220.963,166.11 222.5,165C 242.667,164.833 262.833,164.667 283,164.5C 303.511,164.5 323.678,165.167 343.5,166.5 Z"/></g>
<g><path style="opacity:0.051" fill="#f0d997" d="M 189.5,156.5 C 189.5,159.167 189.5,161.833 189.5,164.5C 192.5,165.167 195.5,165.833 198.5,166.5C 188.086,169.104 185.086,165.77 189.5,156.5 Z"/></g>
<g><path style="opacity:1" fill="#f5cb50" d="M 218.5,165.5 C 218.173,168.482 218.173,171.315 218.5,174C 226.493,174.5 234.493,174.666 242.5,174.5C 242.5,180.5 242.5,186.5 242.5,192.5C 242.167,192.5 241.833,192.5 241.5,192.5C 240.971,187.178 240.471,181.844 240,176.5C 232.043,176.562 223.877,176.562 215.5,176.5C 215.5,175.5 215.5,174.5 215.5,173.5C 212.182,173.939 209.016,173.939 206,173.5C 204.08,174.088 202.413,175.088 201,176.5C 200.411,174.137 198.911,173.137 196.5,173.5C 195.091,179.537 194.424,185.703 194.5,192C 194.833,195.5 195.167,199 195.5,202.5C 196.067,196.356 197.233,190.356 199,184.5C 199.6,189.519 199.1,194.353 197.5,199C 197.654,201.379 198.32,203.546 199.5,205.5C 198.68,207.111 197.346,207.778 195.5,207.5C 196.134,213.145 196.468,218.811 196.5,224.5C 193.909,209.759 192.909,194.759 193.5,179.5C 194.575,174.851 196.575,170.685 199.5,167C 199.272,166.601 198.938,166.435 198.5,166.5C 195.5,165.833 192.5,165.167 189.5,164.5C 191.857,164.663 194.19,164.497 196.5,164C 198.421,162.412 200.421,160.912 202.5,159.5C 204.863,161.114 205.529,163.114 204.5,165.5C 203.833,164.5 203.167,163.5 202.5,162.5C 201.034,165.021 200.534,167.688 201,170.5C 203.041,169.577 205.208,169.244 207.5,169.5C 207.187,166.753 207.52,164.086 208.5,161.5C 210.753,163.45 211.086,165.784 209.5,168.5C 209.808,169.308 210.308,169.975 211,170.5C 212.353,169.315 213.52,167.981 214.5,166.5C 215.689,165.571 217.022,165.238 218.5,165.5 Z"/></g>
<g><path style="opacity:1" fill="#f5c948" d="M 374.5,156.5 C 375.363,158.895 375.363,161.229 374.5,163.5C 371.242,164.417 367.909,164.751 364.5,164.5C 363.68,168.183 365.013,170.517 368.5,171.5C 369.167,171.5 369.5,171.833 369.5,172.5C 369.562,175.753 370.396,178.753 372,181.5C 372.167,186.167 372.333,190.833 372.5,195.5C 370.84,211.119 369.84,226.786 369.5,242.5C 367.605,243.703 365.605,244.869 363.5,246C 355.452,246.77 347.452,246.603 339.5,245.5C 338.772,240.549 338.272,235.549 338,230.5C 337.5,230 337,229.5 336.5,229C 300.664,228.169 264.998,228.336 229.5,229.5C 228.677,232.977 228.177,236.644 228,240.5C 227.727,242.329 226.893,243.829 225.5,245C 217.277,246.438 208.943,246.938 200.5,246.5C 198.5,246.5 197.5,245.5 197.5,243.5C 196.628,237.211 196.295,230.878 196.5,224.5C 196.468,218.811 196.134,213.145 195.5,207.5C 197.346,207.778 198.68,207.111 199.5,205.5C 198.32,203.546 197.654,201.379 197.5,199C 199.1,194.353 199.6,189.519 199,184.5C 197.233,190.356 196.067,196.356 195.5,202.5C 195.167,199 194.833,195.5 194.5,192C 194.424,185.703 195.091,179.537 196.5,173.5C 198.911,173.137 200.411,174.137 201,176.5C 202.413,175.088 204.08,174.088 206,173.5C 209.016,173.939 212.182,173.939 215.5,173.5C 215.5,174.5 215.5,175.5 215.5,176.5C 223.877,176.562 232.043,176.562 240,176.5C 240.471,181.844 240.971,187.178 241.5,192.5C 231.494,192.334 221.494,192.5 211.5,193C 210.525,198.741 210.192,204.575 210.5,210.5C 216.828,210.672 223.161,211.006 229.5,211.5C 259.942,211.211 289.442,212.211 318,214.5C 318.5,214 319,213.5 319.5,213C 330.167,212.667 340.833,212.333 351.5,212C 354.984,211.734 355.984,210.234 354.5,207.5C 354.819,202.637 354.486,197.97 353.5,193.5C 353.167,193.5 352.833,193.5 352.5,193.5C 343.676,192.67 334.676,192.17 325.5,192C 324.525,186.259 324.192,180.425 324.5,174.5C 332.573,175.132 340.24,174.465 347.5,172.5C 348.648,173.895 349.648,173.728 350.5,172C 349.692,169.912 348.692,167.912 347.5,166C 348.563,164.812 349.897,164.312 351.5,164.5C 351.181,166.75 351.681,168.75 353,170.5C 354.61,168.69 355.777,166.69 356.5,164.5C 358.44,166.045 359.606,168.045 360,170.5C 361,169.167 362,169.167 363,170.5C 363.226,167.905 363.726,165.405 364.5,163C 365.899,162.405 367.232,162.572 368.5,163.5C 369.842,161.995 371.508,161.328 373.5,161.5C 373.216,159.585 373.549,157.919 374.5,156.5 Z"/></g>
<g><path style="opacity:0.4" fill="#f4d783" d="M 343.5,166.5 C 346.086,167.487 347.419,169.487 347.5,172.5C 340.24,174.465 332.573,175.132 324.5,174.5C 324.192,180.425 324.525,186.259 325.5,192C 334.676,192.17 343.676,192.67 352.5,193.5C 342.584,193.819 332.75,193.486 323,192.5C 322.333,186.167 322.333,179.833 323,173.5C 330.754,172.683 338.588,172.183 346.5,172C 345.361,170.22 344.361,168.386 343.5,166.5 Z"/></g>
<g><path style="opacity:0.055" fill="#fae091" d="M 218.5,165.5 C 219.167,166.833 219.833,168.167 220.5,169.5C 220.586,170.496 220.252,171.329 219.5,172C 227.412,172.183 235.246,172.683 243,173.5C 243.82,180.014 243.653,186.347 242.5,192.5C 242.5,186.5 242.5,180.5 242.5,174.5C 234.493,174.666 226.493,174.5 218.5,174C 218.173,171.315 218.173,168.482 218.5,165.5 Z"/></g>
<g><path style="opacity:0.206" fill="#f4da83" d="M 369.5,172.5 C 371.163,174.493 372.33,176.826 373,179.5C 374.26,201.011 373.093,222.011 369.5,242.5C 369.84,226.786 370.84,211.119 372.5,195.5C 372.333,190.833 372.167,186.167 372,181.5C 370.396,178.753 369.562,175.753 369.5,172.5 Z"/></g>
<g><path style="opacity:0.21" fill="#f3dc94" d="M 193.5,179.5 C 192.909,194.759 193.909,209.759 196.5,224.5C 196.295,230.878 196.628,237.211 197.5,243.5C 196.778,243.082 196.278,242.416 196,241.5C 195.083,231.488 194.083,221.488 193,211.5C 192.175,200.659 192.341,189.992 193.5,179.5 Z"/></g>
<g><path style="opacity:0.212" fill="#f6dd88" d="M 353.5,193.5 C 354.486,197.97 354.819,202.637 354.5,207.5C 354.586,208.496 354.252,209.329 353.5,210C 349.646,210.354 345.812,210.854 342,211.5C 338.875,210.744 335.709,210.411 332.5,210.5C 338.979,209.509 345.646,209.176 352.5,209.5C 352.472,204.138 352.806,198.805 353.5,193.5 Z"/></g>
<g><path style="opacity:0.839" fill="#f4cf71" d="M 241.5,192.5 C 241.833,192.5 242.167,192.5 242.5,192.5C 232.681,193.494 222.681,193.827 212.5,193.5C 212.324,198.88 212.658,204.213 213.5,209.5C 219.5,209.5 225.5,209.5 231.5,209.5C 230.833,210.167 230.167,210.833 229.5,211.5C 223.161,211.006 216.828,210.672 210.5,210.5C 210.192,204.575 210.525,198.741 211.5,193C 221.494,192.5 231.494,192.334 241.5,192.5 Z"/></g>
<g><path style="opacity:0.983" fill="#f4cc5a" d="M 354.5,207.5 C 355.984,210.234 354.984,211.734 351.5,212C 340.833,212.333 330.167,212.667 319.5,213C 319,213.5 318.5,214 318,214.5C 289.442,212.211 259.942,211.211 229.5,211.5C 230.167,210.833 230.833,210.167 231.5,209.5C 265.159,209.396 298.826,209.729 332.5,210.5C 335.709,210.411 338.875,210.744 342,211.5C 345.812,210.854 349.646,210.354 353.5,210C 354.252,209.329 354.586,208.496 354.5,207.5 Z"/></g>
<g><path style="opacity:0.337" fill="#f1d273" d="M 229.5,229.5 C 264.998,228.336 300.664,228.169 336.5,229C 337,229.5 337.5,230 338,230.5C 338.272,235.549 338.772,240.549 339.5,245.5C 338.21,244.942 337.377,243.942 337,242.5C 336.824,238.312 336.324,234.312 335.5,230.5C 300.337,229.502 265.004,229.168 229.5,229.5 Z"/></g>
<g><path style="opacity:0.043" fill="#fee4b7" d="M 229.5,229.5 C 265.004,229.168 300.337,229.502 335.5,230.5C 300.5,230.5 265.5,230.5 230.5,230.5C 230.815,234.371 230.482,238.038 229.5,241.5C 229.5,237.5 229.5,233.5 229.5,229.5 Z"/></g>
<g><path style="opacity:0.273" fill="#f4d97b" d="M 229.5,229.5 C 229.5,233.5 229.5,237.5 229.5,241.5C 229.089,245.079 227.089,247.246 223.5,248C 215.615,248.722 207.949,248.222 200.5,246.5C 208.943,246.938 217.277,246.438 225.5,245C 226.893,243.829 227.727,242.329 228,240.5C 228.177,236.644 228.677,232.977 229.5,229.5 Z"/></g>
<g><path style="opacity:0.255" fill="#f6dd88" d="M 369.5,242.5 C 368.647,245.518 366.647,247.351 363.5,248C 356.833,248.667 350.167,248.667 343.5,248C 341.68,247.8 340.347,246.966 339.5,245.5C 347.452,246.603 355.452,246.77 363.5,246C 365.605,244.869 367.605,243.703 369.5,242.5 Z"/></g>
<g><path style="opacity:0.012" fill="#fbe7a6" d="M 225.5,254.5 C 225.5,254.833 225.5,255.167 225.5,255.5C 217.493,255.334 209.493,255.5 201.5,256C 201.167,256.333 200.833,256.667 200.5,257C 201.71,258.039 202.71,259.206 203.5,260.5C 200.214,259.758 198.88,257.925 199.5,255C 208.16,254.5 216.827,254.334 225.5,254.5 Z"/></g>
<g><path style="opacity:0.416" fill="#f7dc88" d="M 372.5,258.5 C 362.64,256.275 352.64,255.942 342.5,257.5C 342.863,258.183 343.196,258.85 343.5,259.5C 339.843,258.78 339.176,257.28 341.5,255C 349.833,254.333 358.167,254.333 366.5,255C 369.025,255.424 371.025,256.59 372.5,258.5 Z"/></g>
<g><path style="opacity:0.792" fill="#f5df86" d="M 225.5,254.5 C 234.529,259.01 243.196,264.01 251.5,269.5C 246.448,266.643 241.114,264.31 235.5,262.5C 232.149,260.141 228.815,257.808 225.5,255.5C 225.5,255.167 225.5,254.833 225.5,254.5 Z"/></g>
<g><path style="opacity:1" fill="#f5cb4a" d="M 225.5,255.5 C 228.815,257.808 232.149,260.141 235.5,262.5C 241.114,264.31 246.448,266.643 251.5,269.5C 252.71,269.932 253.71,270.599 254.5,271.5C 255.373,273.886 256.873,275.886 259,277.5C 259.667,280.833 259.667,284.167 259,287.5C 257.198,288.789 256.031,290.456 255.5,292.5C 254.167,292.5 252.833,292.5 251.5,292.5C 251.5,293.5 251.5,294.5 251.5,295.5C 248.911,295.461 246.911,296.461 245.5,298.5C 238.978,300.458 232.478,302.792 226,305.5C 224.97,305.836 224.47,306.503 224.5,307.5C 223.833,307.833 223.167,308.167 222.5,308.5C 222.265,307.903 221.765,307.57 221,307.5C 214.906,308.468 209.072,310.135 203.5,312.5C 199.125,312.653 195.292,311.32 192,308.5C 191.312,307.668 191.479,307.002 192.5,306.5C 194.996,309.192 197.33,309.025 199.5,306C 195.281,305.827 191.281,304.827 187.5,303C 192.189,301.322 196.522,299.156 200.5,296.5C 201.772,296.57 202.938,296.903 204,297.5C 203.852,298.825 204.018,299.992 204.5,301C 206.833,301.667 209.167,301.667 211.5,301C 210.833,300 210.167,299 209.5,298C 214.125,296.209 218.792,294.542 223.5,293C 224.641,292.259 224.641,291.425 223.5,290.5C 225.624,289.851 227.624,289.017 229.5,288C 227.563,287.878 226.23,287.045 225.5,285.5C 227.026,284.508 227.693,283.008 227.5,281C 227.884,278.258 226.884,276.425 224.5,275.5C 224.67,274.178 224.337,273.011 223.5,272C 221.372,271.345 219.372,270.511 217.5,269.5C 216.508,269.672 215.842,269.338 215.5,268.5C 214.972,267.279 214.305,266.113 213.5,265C 210.936,263.604 208.269,262.437 205.5,261.5C 204.508,261.672 203.842,261.338 203.5,260.5C 202.71,259.206 201.71,258.039 200.5,257C 200.833,256.667 201.167,256.333 201.5,256C 209.493,255.5 217.493,255.334 225.5,255.5 Z"/></g>
<g><path style="opacity:0.498" fill="#f7df8b" d="M 205.5,261.5 C 208.269,262.437 210.936,263.604 213.5,265C 214.305,266.113 214.972,267.279 215.5,268.5C 211.608,266.938 208.275,264.605 205.5,261.5 Z"/></g>
<g><path style="opacity:0.239" fill="#f3d882" d="M 374.5,258.5 C 380.515,261.902 386.515,265.402 392.5,269C 394.063,269.759 395.063,270.926 395.5,272.5C 389.36,269.015 383.193,265.682 377,262.5C 375.405,261.644 374.572,260.311 374.5,258.5 Z"/></g>
<g><path style="opacity:0.396" fill="#f6de91" d="M 352.5,265.5 C 356.542,267.362 360.208,269.862 363.5,273C 363.272,273.399 362.938,273.565 362.5,273.5C 358.854,271.183 355.52,268.516 352.5,265.5 Z"/></g>
<g><path style="opacity:0.871" fill="#f5dc81" d="M 217.5,269.5 C 219.372,270.511 221.372,271.345 223.5,272C 224.337,273.011 224.67,274.178 224.5,275.5C 221.599,274.208 219.266,272.208 217.5,269.5 Z"/></g>
<g><path style="opacity:0.216" fill="#f5dc8a" d="M 396.5,272.5 C 398.934,273.771 400.434,275.771 401,278.5C 401.805,281.696 401.638,284.696 400.5,287.5C 400.664,284.813 400.497,282.146 400,279.5C 398.87,277.067 397.704,274.734 396.5,272.5 Z"/></g>
<g><path style="opacity:0.282" fill="#f1d98d" d="M 254.5,271.5 C 260.304,275.643 262.138,281.309 260,288.5C 259.252,290.751 257.752,292.084 255.5,292.5C 257.752,292.084 259.252,290.751 260,288.5C 262.138,281.309 260.304,275.643 254.5,271.5 Z"/></g>
<g><path style="opacity:0.165" fill="#f6db80" d="M 365.5,277.5 C 367.252,277.418 368.252,278.251 368.5,280C 366.887,284.959 363.553,287.792 358.5,288.5C 360.942,287.101 363.276,285.434 365.5,283.5C 366.819,281.468 366.819,279.468 365.5,277.5 Z"/></g>
<g><path style="opacity:0.427" fill="#f7db81" d="M 224.5,275.5 C 226.884,276.425 227.884,278.258 227.5,281C 227.693,283.008 227.026,284.508 225.5,285.5C 221.247,288.292 216.58,289.958 211.5,290.5C 216.017,288.324 220.517,285.99 225,283.5C 225.602,280.779 225.435,278.113 224.5,275.5 Z"/></g>
<g><path style="opacity:0.478" fill="#f4db87" d="M 400.5,287.5 C 399.774,290.288 398.107,292.288 395.5,293.5C 395.875,290.467 397.542,288.467 400.5,287.5 Z"/></g>
<g><path style="opacity:0.678" fill="#f6d58a" d="M 255.5,292.5 C 254.738,294.262 253.404,295.262 251.5,295.5C 251.5,294.5 251.5,293.5 251.5,292.5C 252.833,292.5 254.167,292.5 255.5,292.5 Z"/></g>
<g><path style="opacity:0.294" fill="#f4dd8b" d="M 358.5,288.5 C 353.909,291.112 348.909,292.779 343.5,293.5C 348.165,291.078 353.165,289.411 358.5,288.5 Z"/></g>
<g><path style="opacity:0.951" fill="#f4da86" d="M 395.5,293.5 C 389.699,298.401 383.032,301.734 375.5,303.5C 376.574,302.115 377.907,300.949 379.5,300C 382.368,298.617 385.368,297.784 388.5,297.5C 388.5,296.5 388.5,295.5 388.5,294.5C 390.903,294.552 393.236,294.219 395.5,293.5 Z"/></g>
<g><path style="opacity:0.133" fill="#f3d98e" d="M 251.5,295.5 C 249.819,297.008 247.819,298.008 245.5,298.5C 246.911,296.461 248.911,295.461 251.5,295.5 Z"/></g>
<g><path style="opacity:0.4" fill="#f1d785" d="M 211.5,290.5 C 202.166,294.169 192.499,297.502 182.5,300.5C 191.672,295.997 201.339,292.664 211.5,290.5 Z"/></g>
<g><path style="opacity:0.31" fill="#f3d894" d="M 329.5,298.5 C 326.916,300.472 323.916,301.472 320.5,301.5C 323.145,299.69 326.145,298.69 329.5,298.5 Z"/></g>
<g><path style="opacity:0.169" fill="#f6d8a1" d="M 180.5,300.5 C 178.967,302.245 176.967,303.245 174.5,303.5C 176.033,301.755 178.033,300.755 180.5,300.5 Z"/></g>
<g><path style="opacity:1" fill="#f6ca4f" d="M 225.5,285.5 C 226.23,287.045 227.563,287.878 229.5,288C 227.624,289.017 225.624,289.851 223.5,290.5C 224.641,291.425 224.641,292.259 223.5,293C 218.792,294.542 214.125,296.209 209.5,298C 210.167,299 210.833,300 211.5,301C 209.167,301.667 206.833,301.667 204.5,301C 204.018,299.992 203.852,298.825 204,297.5C 202.938,296.903 201.772,296.57 200.5,296.5C 196.522,299.156 192.189,301.322 187.5,303C 191.281,304.827 195.281,305.827 199.5,306C 197.33,309.025 194.996,309.192 192.5,306.5C 191.479,307.002 191.312,307.668 192,308.5C 195.292,311.32 199.125,312.653 203.5,312.5C 203.167,313.167 202.833,313.833 202.5,314.5C 202.167,314.5 201.833,314.5 201.5,314.5C 199.035,314.767 196.701,315.434 194.5,316.5C 194.714,314.856 194.38,313.356 193.5,312C 184.464,311.283 175.464,311.616 166.5,313C 165.692,313.308 165.025,313.808 164.5,314.5C 165.5,315.167 166.5,315.833 167.5,316.5C 165.395,317.95 163.395,318.783 161.5,319C 162.5,319.333 163.5,319.667 164.5,320C 164.167,320.333 163.833,320.667 163.5,321C 153.715,320.168 152.382,322.668 159.5,328.5C 158.388,329.265 157.721,330.265 157.5,331.5C 155.833,330.833 154.167,330.167 152.5,329.5C 151.833,329.5 151.5,329.167 151.5,328.5C 150.417,324.915 149.751,321.249 149.5,317.5C 149.328,316.508 149.662,315.842 150.5,315.5C 158.029,311.355 165.696,307.355 173.5,303.5C 173.833,303.5 174.167,303.5 174.5,303.5C 176.967,303.245 178.967,302.245 180.5,300.5C 181.167,300.5 181.833,300.5 182.5,300.5C 192.499,297.502 202.166,294.169 211.5,290.5C 216.58,289.958 221.247,288.292 225.5,285.5 Z"/></g>
<g><path style="opacity:0.231" fill="#f6dc8f" d="M 245.5,298.5 C 238.953,302.266 231.953,305.266 224.5,307.5C 224.47,306.503 224.97,305.836 226,305.5C 232.478,302.792 238.978,300.458 245.5,298.5 Z"/></g>
<g><path style="opacity:0.294" fill="#f5dc84" d="M 320.5,301.5 C 320.196,302.15 319.863,302.817 319.5,303.5C 315.14,304.119 311.14,305.619 307.5,308C 305.934,308.765 304.601,308.598 303.5,307.5C 309.022,305.104 314.689,303.104 320.5,301.5 Z"/></g>
<g><path style="opacity:0.541" fill="#f2d688" d="M 173.5,303.5 C 165.696,307.355 158.029,311.355 150.5,315.5C 151.066,313.922 152.066,312.588 153.5,311.5C 159.943,308.279 166.61,305.612 173.5,303.5 Z"/></g>
<g><path style="opacity:0.247" fill="#f7da8f" d="M 375.5,303.5 C 363.467,308.402 351.133,312.735 338.5,316.5C 339.058,315.21 340.058,314.377 341.5,314C 349.502,311.58 357.336,308.746 365,305.5C 368.402,304.274 371.902,303.607 375.5,303.5 Z"/></g>
<g><path style="opacity:0.216" fill="#f5da83" d="M 222.5,308.5 C 215.821,310.502 209.155,312.502 202.5,314.5C 202.833,313.833 203.167,313.167 203.5,312.5C 209.072,310.135 214.906,308.468 221,307.5C 221.765,307.57 222.265,307.903 222.5,308.5 Z"/></g>
<g><path style="opacity:1" fill="#f5cb4b" d="M 194.5,316.5 C 192.263,317.449 189.929,318.116 187.5,318.5C 187.5,319.5 187.5,320.5 187.5,321.5C 187.283,324.421 187.949,327.087 189.5,329.5C 190.203,331.716 191.536,333.549 193.5,335C 196.802,336.651 200.136,338.318 203.5,340C 204.337,341.011 204.67,342.178 204.5,343.5C 208.002,344.917 211.669,345.584 215.5,345.5C 217.167,346.167 218.833,346.833 220.5,347.5C 220.821,349.048 221.821,349.715 223.5,349.5C 224.038,351.117 224.371,352.784 224.5,354.5C 218.131,355.507 211.797,355.507 205.5,354.5C 198.85,353.197 192.184,351.531 185.5,349.5C 183.065,346.745 180.065,344.745 176.5,343.5C 175.833,342.167 175.167,340.833 174.5,339.5C 171.904,340.213 169.237,340.213 166.5,339.5C 164.759,337.023 163.259,334.356 162,331.5C 160.701,331.966 159.201,331.966 157.5,331.5C 157.721,330.265 158.388,329.265 159.5,328.5C 152.382,322.668 153.715,320.168 163.5,321C 163.833,320.667 164.167,320.333 164.5,320C 163.5,319.667 162.5,319.333 161.5,319C 163.395,318.783 165.395,317.95 167.5,316.5C 166.5,315.833 165.5,315.167 164.5,314.5C 165.025,313.808 165.692,313.308 166.5,313C 175.464,311.616 184.464,311.283 193.5,312C 194.38,313.356 194.714,314.856 194.5,316.5 Z"/></g>
<g><path style="opacity:1" fill="#f5ca4a" d="M 372.5,258.5 C 373.167,258.5 373.833,258.5 374.5,258.5C 374.572,260.311 375.405,261.644 377,262.5C 383.193,265.682 389.36,269.015 395.5,272.5C 395.833,272.5 396.167,272.5 396.5,272.5C 397.704,274.734 398.87,277.067 400,279.5C 400.497,282.146 400.664,284.813 400.5,287.5C 397.542,288.467 395.875,290.467 395.5,293.5C 393.236,294.219 390.903,294.552 388.5,294.5C 388.5,295.5 388.5,296.5 388.5,297.5C 385.368,297.784 382.368,298.617 379.5,300C 377.907,300.949 376.574,302.115 375.5,303.5C 371.902,303.607 368.402,304.274 365,305.5C 357.336,308.746 349.502,311.58 341.5,314C 340.058,314.377 339.058,315.21 338.5,316.5C 335.654,316.552 333.32,317.552 331.5,319.5C 327.633,323.084 327.633,326.751 331.5,330.5C 332.979,333.305 335.312,334.972 338.5,335.5C 339.457,338.168 341.457,339.668 344.5,340C 345.743,341.154 346.743,342.488 347.5,344C 354.048,346.553 360.382,349.553 366.5,353C 356.5,353.667 346.5,353.667 336.5,353C 334.091,351.293 331.425,350.46 328.5,350.5C 326.685,347.593 324.019,346.259 320.5,346.5C 314.364,343.933 308.697,340.6 303.5,336.5C 303.5,334.833 303.5,333.167 303.5,331.5C 301.473,331.662 299.473,331.495 297.5,331C 296.511,328.842 294.844,327.675 292.5,327.5C 291.04,324.296 290.54,320.962 291,317.5C 294.483,314.236 297.983,311.236 301.5,308.5C 302.167,308.167 302.833,307.833 303.5,307.5C 304.601,308.598 305.934,308.765 307.5,308C 311.14,305.619 315.14,304.119 319.5,303.5C 319.863,302.817 320.196,302.15 320.5,301.5C 323.916,301.472 326.916,300.472 329.5,298.5C 333.817,296.06 338.483,294.393 343.5,293.5C 348.909,292.779 353.909,291.112 358.5,288.5C 363.553,287.792 366.887,284.959 368.5,280C 368.252,278.251 367.252,277.418 365.5,277.5C 364.5,276.167 363.5,274.833 362.5,273.5C 362.938,273.565 363.272,273.399 363.5,273C 360.208,269.862 356.542,267.362 352.5,265.5C 348.975,264.241 345.975,262.241 343.5,259.5C 343.196,258.85 342.863,258.183 342.5,257.5C 352.64,255.942 362.64,256.275 372.5,258.5 Z"/></g>
<g><path style="opacity:0.58" fill="#f8de87" d="M 201.5,314.5 C 196.914,316.793 192.247,319.127 187.5,321.5C 187.5,320.5 187.5,319.5 187.5,318.5C 189.929,318.116 192.263,317.449 194.5,316.5C 196.701,315.434 199.035,314.767 201.5,314.5 Z"/></g>
<g><path style="opacity:0.094" fill="#fae098" d="M 338.5,316.5 C 336.574,318.293 334.241,319.293 331.5,319.5C 333.32,317.552 335.654,316.552 338.5,316.5 Z"/></g>
<g><path style="opacity:0.11" fill="#f3dc93" d="M 301.5,308.5 C 297.983,311.236 294.483,314.236 291,317.5C 290.54,320.962 291.04,324.296 292.5,327.5C 291.21,326.942 290.377,325.942 290,324.5C 289.22,316.081 293.053,310.748 301.5,308.5 Z"/></g>
<g><path style="opacity:0.408" fill="#f1d58a" d="M 149.5,317.5 C 149.751,321.249 150.417,324.915 151.5,328.5C 150.034,327.653 149.2,326.32 149,324.5C 148.204,321.961 148.371,319.628 149.5,317.5 Z"/></g>
<g><path style="opacity:0.989" fill="#f4d775" d="M 152.5,329.5 C 154.167,330.167 155.833,330.833 157.5,331.5C 159.201,331.966 160.701,331.966 162,331.5C 163.259,334.356 164.759,337.023 166.5,339.5C 162.889,337.356 159.222,335.19 155.5,333C 154.29,331.961 153.29,330.794 152.5,329.5 Z"/></g>
<g><path style="opacity:1" fill="#f5d273" d="M 292.5,327.5 C 294.844,327.675 296.511,328.842 297.5,331C 299.473,331.495 301.473,331.662 303.5,331.5C 303.5,333.167 303.5,334.833 303.5,336.5C 298.957,334.628 295.29,331.628 292.5,327.5 Z"/></g>
<g><path style="opacity:0.157" fill="#f5e194" d="M 331.5,330.5 C 334.135,331.811 336.469,333.478 338.5,335.5C 335.312,334.972 332.979,333.305 331.5,330.5 Z"/></g>
<g><path style="opacity:0.937" fill="#f5d880" d="M 189.5,329.5 C 197.901,335.362 206.568,340.695 215.5,345.5C 211.669,345.584 208.002,344.917 204.5,343.5C 204.67,342.178 204.337,341.011 203.5,340C 200.136,338.318 196.802,336.651 193.5,335C 191.536,333.549 190.203,331.716 189.5,329.5 Z"/></g>
<g><path style="opacity:0.812" fill="#f5d67c" d="M 166.5,339.5 C 169.237,340.213 171.904,340.213 174.5,339.5C 175.167,340.833 175.833,342.167 176.5,343.5C 180.065,344.745 183.065,346.745 185.5,349.5C 178.728,346.948 172.394,343.614 166.5,339.5 Z"/></g>
<g><path style="opacity:0.212" fill="#f4e3b8" d="M 220.5,347.5 C 221.71,347.932 222.71,348.599 223.5,349.5C 221.821,349.715 220.821,349.048 220.5,347.5 Z"/></g>
<g><path style="opacity:0.235" fill="#f2d988" d="M 320.5,346.5 C 324.019,346.259 326.685,347.593 328.5,350.5C 325.515,349.674 322.849,348.341 320.5,346.5 Z"/></g>
<g><path style="opacity:0.943" fill="#f2d16e" d="M 338.5,335.5 C 348.563,340.863 358.563,346.196 368.5,351.5C 368.5,352.5 368.5,353.5 368.5,354.5C 364.167,354.5 359.833,354.5 355.5,354.5C 350.103,354.215 344.77,354.549 339.5,355.5C 335.395,354.611 331.729,352.945 328.5,350.5C 331.425,350.46 334.091,351.293 336.5,353C 346.5,353.667 356.5,353.667 366.5,353C 360.382,349.553 354.048,346.553 347.5,344C 346.743,342.488 345.743,341.154 344.5,340C 341.457,339.668 339.457,338.168 338.5,335.5 Z"/></g>
<g><path style="opacity:0.885" fill="#eecf71" d="M 185.5,349.5 C 192.184,351.531 198.85,353.197 205.5,354.5C 201.154,354.666 196.821,354.499 192.5,354C 190.007,352.581 187.674,351.081 185.5,349.5 Z"/></g>
<g><path style="opacity:0.361" fill="#f3dd90" d="M 223.5,349.5 C 225.853,350.34 227.853,351.674 229.5,353.5C 227.93,355.379 226.264,355.712 224.5,354.5C 224.371,352.784 224.038,351.117 223.5,349.5 Z"/></g>
<g><path style="opacity:0.035" fill="#fee499" d="M 368.5,351.5 C 370.466,352.255 370.8,353.421 369.5,355C 364.648,355.815 359.981,355.648 355.5,354.5C 359.833,354.5 364.167,354.5 368.5,354.5C 368.5,353.5 368.5,352.5 368.5,351.5 Z"/></g>
</svg>
