<?xml version="1.0" encoding="UTF-8"?>
<!DOCTYPE svg PUBLIC "-//W3C//DTD SVG 1.1//EN" "http://www.w3.org/Graphics/SVG/1.1/DTD/svg11.dtd">
<svg xmlns="http://www.w3.org/2000/svg" version="1.1" width="300px" height="200px" style="shape-rendering:geometricPrecision; text-rendering:geometricPrecision; image-rendering:optimizeQuality; fill-rule:evenodd; clip-rule:evenodd" xmlns:xlink="http://www.w3.org/1999/xlink">
<g><path style="opacity:0.714" fill="#8b1c1b" d="M 195.5,39.5 C 195.167,39.5 194.833,39.5 194.5,39.5C 194.5,32.8333 194.5,26.1667 194.5,19.5C 197.167,19.5 199.833,19.5 202.5,19.5C 202.5,18.5 202.5,17.5 202.5,16.5C 196.5,16.5 190.5,16.5 184.5,16.5C 184.5,17.5 184.5,18.5 184.5,19.5C 186.415,19.2155 188.081,19.5489 189.5,20.5C 187.5,20.5 185.5,20.5 183.5,20.5C 183.5,18.8333 183.5,17.1667 183.5,15.5C 190.167,15.5 196.833,15.5 203.5,15.5C 203.5,17.1667 203.5,18.8333 203.5,20.5C 200.833,20.5 198.167,20.5 195.5,20.5C 195.5,26.8333 195.5,33.1667 195.5,39.5 Z"/></g>
<g><path style="opacity:1" fill="#8f0b0d" d="M 109.5,16.5 C 106.753,16.1866 104.086,16.52 101.5,17.5C 103.975,17.9642 105.975,18.9642 107.5,20.5C 104.09,19.0391 101.757,20.0391 100.5,23.5C 99.2652,23.2786 98.2652,22.6119 97.5,21.5C 96.5713,22.6888 96.238,24.0222 96.5,25.5C 94.9447,18.8644 97.778,15.5311 105,15.5C 106.707,15.5085 108.207,15.8418 109.5,16.5 Z"/></g>
<g><path style="opacity:1" fill="#950c0e" d="M 161.5,16.5 C 167.072,15.1302 172.739,15.2969 178.5,17C 182.433,20.8762 182.433,24.7095 178.5,28.5C 178.719,27.325 178.386,26.325 177.5,25.5C 176.583,26.1272 175.583,26.4606 174.5,26.5C 176.424,24.9098 176.757,23.0765 175.5,21C 172.854,20.5026 170.187,20.3359 167.5,20.5C 169.025,18.9642 171.025,17.9642 173.5,17.5C 169.555,16.5091 165.555,16.1758 161.5,16.5 Z"/></g>
<g><path style="opacity:1" fill="#a20507" d="M 194.5,39.5 C 193.5,39.5 192.5,39.5 191.5,39.5C 191.823,33.31 191.49,27.31 190.5,21.5C 190.5,20.8333 190.167,20.5 189.5,20.5C 188.081,19.5489 186.415,19.2155 184.5,19.5C 184.5,18.5 184.5,17.5 184.5,16.5C 190.5,16.5 196.5,16.5 202.5,16.5C 202.5,17.5 202.5,18.5 202.5,19.5C 199.833,19.5 197.167,19.5 194.5,19.5C 194.5,26.1667 194.5,32.8333 194.5,39.5 Z"/></g>
<g><path style="opacity:1" fill="#9b0809" d="M 109.5,16.5 C 112.234,17.7806 113.9,19.9472 114.5,23C 111.374,24.0164 109.041,23.1831 107.5,20.5C 105.975,18.9642 103.975,17.9642 101.5,17.5C 104.086,16.52 106.753,16.1866 109.5,16.5 Z"/></g>
<g><path style="opacity:1" fill="#a60307" d="M 129.5,20.5 C 128.662,20.8417 128.328,21.5084 128.5,22.5C 127.007,23.3121 126.34,24.6455 126.5,26.5C 126.436,28.5566 127.102,30.2233 128.5,31.5C 128.5,33.8333 128.5,36.1667 128.5,38.5C 127.167,38.5 125.833,38.5 124.5,38.5C 124.666,32.1579 124.5,25.8246 124,19.5C 122.175,18.8971 120.341,18.2304 118.5,17.5C 123.467,16.3377 128.467,16.1711 133.5,17C 132.269,18.4048 130.936,19.5714 129.5,20.5 Z"/></g>
<g><path style="opacity:1" fill="#930a0e" d="M 149.5,16.5 C 147.833,16.5 146.167,16.5 144.5,16.5C 144.5,18.1667 144.5,19.8333 144.5,21.5C 145.833,21.5 147.167,21.5 148.5,21.5C 148.5,22.8333 148.5,24.1667 148.5,25.5C 147.732,24.7375 147.232,23.7375 147,22.5C 146.243,24.3146 145.41,25.9812 144.5,27.5C 144.785,25.712 144.452,24.0453 143.5,22.5C 142.859,23.9935 141.859,24.9935 140.5,25.5C 142.076,22.3452 143.076,19.0118 143.5,15.5C 145.735,15.2053 147.735,15.5386 149.5,16.5 Z"/></g>
<g><path style="opacity:1" fill="#8f0d0d" d="M 128.5,22.5 C 128.5,25.5 128.5,28.5 128.5,31.5C 127.102,30.2233 126.436,28.5566 126.5,26.5C 126.34,24.6455 127.007,23.3121 128.5,22.5 Z"/></g>
<g><path style="opacity:1" fill="#9d080a" d="M 100.5,23.5 C 104.023,24.9762 107.69,26.1428 111.5,27C 114.769,30.4531 115.269,34.2865 113,38.5C 111.89,40.0368 110.39,40.7035 108.5,40.5C 100.526,39.9845 100.526,39.1512 108.5,38C 109.252,37.3292 109.586,36.4959 109.5,35.5C 109.154,31.333 106.82,29.4997 102.5,30C 99.8936,29.2082 97.8936,27.7082 96.5,25.5C 96.238,24.0222 96.5713,22.6888 97.5,21.5C 98.2652,22.6119 99.2652,23.2786 100.5,23.5 Z"/></g>
<g><path style="opacity:1" fill="#9d0406" d="M 161.5,16.5 C 165.555,16.1758 169.555,16.5091 173.5,17.5C 171.025,17.9642 169.025,18.9642 167.5,20.5C 166.539,22.2646 166.205,24.2646 166.5,26.5C 166.47,27.4972 166.97,28.1639 168,28.5C 170.453,27.5071 172.953,27.3405 175.5,28C 174.347,29.883 172.681,30.7163 170.5,30.5C 169.167,30.5 167.833,30.5 166.5,30.5C 166.5,31.5 166.5,32.5 166.5,33.5C 165.549,34.9187 165.216,36.5853 165.5,38.5C 164.167,38.5 162.833,38.5 161.5,38.5C 161.737,37.209 161.404,36.209 160.5,35.5C 160.177,28.9779 160.51,22.6446 161.5,16.5 Z"/></g>
<g><path style="opacity:1" fill="#a10609" d="M 149.5,16.5 C 150.11,17.391 150.443,18.391 150.5,19.5C 151.152,24.2956 152.819,28.6289 155.5,32.5C 156.338,32.8417 156.672,33.5084 156.5,34.5C 156.762,35.9778 156.429,37.3112 155.5,38.5C 154.717,36.7118 153.384,35.7118 151.5,35.5C 148.167,35.5 144.833,35.5 141.5,35.5C 143.948,34.5269 146.615,34.1936 149.5,34.5C 149.5,33.1667 149.5,31.8333 149.5,30.5C 149.371,28.7839 149.038,27.1172 148.5,25.5C 148.5,24.1667 148.5,22.8333 148.5,21.5C 147.167,21.5 145.833,21.5 144.5,21.5C 144.5,19.8333 144.5,18.1667 144.5,16.5C 146.167,16.5 147.833,16.5 149.5,16.5 Z"/></g>
<g><path style="opacity:1" fill="#8e0a0d" d="M 150.5,19.5 C 153.134,23.3947 154.801,27.728 155.5,32.5C 152.819,28.6289 151.152,24.2956 150.5,19.5 Z"/></g>
<g><path style="opacity:1" fill="#9f060a" d="M 178.5,28.5 C 177.527,28.9867 176.527,29.4867 175.5,30C 175.728,30.3988 176.062,30.5654 176.5,30.5C 176.427,32.0269 177.094,33.0269 178.5,33.5C 179.401,34.2905 180.068,35.2905 180.5,36.5C 180.5,37.5 180.5,38.5 180.5,39.5C 179.167,39.5 177.833,39.5 176.5,39.5C 174.5,36.5 172.5,33.5 170.5,30.5C 172.681,30.7163 174.347,29.883 175.5,28C 172.953,27.3405 170.453,27.5071 168,28.5C 166.97,28.1639 166.47,27.4972 166.5,26.5C 169.167,26.5 171.833,26.5 174.5,26.5C 175.583,26.4606 176.583,26.1272 177.5,25.5C 178.386,26.325 178.719,27.325 178.5,28.5 Z"/></g>
<g><path style="opacity:0.992" fill="#781012" d="M 176.5,30.5 C 177.906,30.9731 178.573,31.9731 178.5,33.5C 177.094,33.0269 176.427,32.0269 176.5,30.5 Z"/></g>
<g><path style="opacity:1" fill="#7f1515" d="M 100.5,35.5 C 97.6314,32.488 96.2981,33.1547 96.5,37.5C 95.0687,36.2196 94.4021,34.5529 94.5,32.5C 96.1992,32.3398 97.8659,32.5065 99.5,33C 100.252,33.6708 100.586,34.5041 100.5,35.5 Z"/></g>
<g><path style="opacity:1" fill="#a30406" d="M 144.5,27.5 C 144.586,28.4959 144.252,29.3292 143.5,30C 145.473,30.4955 147.473,30.6621 149.5,30.5C 149.5,31.8333 149.5,33.1667 149.5,34.5C 146.615,34.1936 143.948,34.5269 141.5,35.5C 141.737,36.791 141.404,37.791 140.5,38.5C 139.351,38.2089 138.684,37.3756 138.5,36C 138.969,34.1131 139.969,32.6131 141.5,31.5C 140.691,29.9291 140.357,28.2624 140.5,26.5C 140.5,26.1667 140.5,25.8333 140.5,25.5C 141.859,24.9935 142.859,23.9935 143.5,22.5C 144.452,24.0453 144.785,25.712 144.5,27.5 Z"/></g>
<g><path style="opacity:1" fill="#891314" d="M 129.5,20.5 C 130.936,19.5714 132.269,18.4048 133.5,17C 128.467,16.1711 123.467,16.3377 118.5,17.5C 120.341,18.2304 122.175,18.8971 124,19.5C 124.5,25.8246 124.666,32.1579 124.5,38.5C 125.833,38.5 127.167,38.5 128.5,38.5C 127.448,40.256 125.781,40.9227 123.5,40.5C 123.5,33.8333 123.5,27.1667 123.5,20.5C 121.167,20.5 118.833,20.5 116.5,20.5C 116.5,18.8333 116.5,17.1667 116.5,15.5C 123.167,15.5 129.833,15.5 136.5,15.5C 136.5,17.1667 136.5,18.8333 136.5,20.5C 134.167,20.5 131.833,20.5 129.5,20.5 Z"/></g>
<g><path style="opacity:0.506" fill="#7f1d21" d="M 190.5,21.5 C 191.49,27.31 191.823,33.31 191.5,39.5C 192.5,39.5 193.5,39.5 194.5,39.5C 194.833,39.5 195.167,39.5 195.5,39.5C 194.081,40.4511 192.415,40.7845 190.5,40.5C 190.5,34.1667 190.5,27.8333 190.5,21.5 Z"/></g>
<g><path style="opacity:1" fill="#9a0a0c" d="M 100.5,35.5 C 103.5,36.8333 106.5,36.8333 109.5,35.5C 109.586,36.4959 109.252,37.3292 108.5,38C 100.526,39.1512 100.526,39.9845 108.5,40.5C 106.372,41.6291 104.039,41.7958 101.5,41C 99.1192,40.7767 97.4525,39.61 96.5,37.5C 96.2981,33.1547 97.6314,32.488 100.5,35.5 Z"/></g>
<g><path style="opacity:1" fill="#960b0b" d="M 140.5,26.5 C 140.357,28.2624 140.691,29.9291 141.5,31.5C 139.969,32.6131 138.969,34.1131 138.5,36C 138.684,37.3756 139.351,38.2089 140.5,38.5C 140.03,39.6935 139.03,40.3601 137.5,40.5C 136.5,40.3333 135.5,40.1667 134.5,40C 136.679,35.4842 138.679,30.9842 140.5,26.5 Z"/></g>
<g><path style="opacity:1" fill="#910b10" d="M 156.5,34.5 C 161.345,39.5612 160.345,41.2278 153.5,39.5C 152.82,38.1401 152.153,36.8068 151.5,35.5C 153.384,35.7118 154.717,36.7118 155.5,38.5C 156.429,37.3112 156.762,35.9778 156.5,34.5 Z"/></g>
<g><path style="opacity:1" fill="#880d14" d="M 166.5,33.5 C 166.5,35.8333 166.5,38.1667 166.5,40.5C 164.5,40.5 162.5,40.5 160.5,40.5C 160.5,38.8333 160.5,37.1667 160.5,35.5C 161.404,36.209 161.737,37.209 161.5,38.5C 162.833,38.5 164.167,38.5 165.5,38.5C 165.216,36.5853 165.549,34.9187 166.5,33.5 Z"/></g>
<g><path style="opacity:1" fill="#821217" d="M 180.5,36.5 C 181.364,37.6883 182.364,38.8549 183.5,40C 180.961,40.7958 178.628,40.6291 176.5,39.5C 177.833,39.5 179.167,39.5 180.5,39.5C 180.5,38.5 180.5,37.5 180.5,36.5 Z"/></g>
<g><path style="opacity:1" fill="#92090d" d="M 155.5,46.5 C 158.781,46.4203 161.781,47.087 164.5,48.5C 160.988,49.0545 157.988,48.3878 155.5,46.5 Z"/></g>
<g><path style="opacity:1" fill="#a60206" d="M 150.5,46.5 C 152.167,46.5 153.833,46.5 155.5,46.5C 157.988,48.3878 160.988,49.0545 164.5,48.5C 164.833,48.5 165.167,48.5 165.5,48.5C 165.833,49.1667 166.167,49.8333 166.5,50.5C 164.599,50.5668 162.766,50.2335 161,49.5C 159.349,50.7424 157.515,51.5757 155.5,52C 154.402,52.7697 154.402,53.603 155.5,54.5C 154.833,54.5 154.167,54.5 153.5,54.5C 150.5,54.5 147.5,54.5 144.5,54.5C 142.473,54.6621 140.473,54.4955 138.5,54C 137.624,52.4152 136.291,51.4152 134.5,51C 135.833,50.3333 135.833,49.6667 134.5,49C 140.043,48.9474 145.377,48.114 150.5,46.5 Z"/></g>
<g><path style="opacity:1" fill="#870c11" d="M 165.5,48.5 C 169.332,48.8816 172.665,50.2149 175.5,52.5C 172.5,51.8333 169.5,51.1667 166.5,50.5C 166.167,49.8333 165.833,49.1667 165.5,48.5 Z"/></g>
<g><path style="opacity:1" fill="#a80204" d="M 131.5,56.5 C 128.412,57.312 125.579,58.6453 123,60.5C 121.701,59.91 120.868,58.91 120.5,57.5C 121.187,55.8228 121.854,54.1561 122.5,52.5C 125.872,51.5985 129.205,51.5985 132.5,52.5C 131.754,53.7362 131.421,55.0695 131.5,56.5 Z"/></g>
<g><path style="opacity:1" fill="#9a090b" d="M 150.5,46.5 C 145.377,48.114 140.043,48.9474 134.5,49C 135.833,49.6667 135.833,50.3333 134.5,51C 136.291,51.4152 137.624,52.4152 138.5,54C 140.473,54.4955 142.473,54.6621 144.5,54.5C 141.344,55.4339 138.011,56.1006 134.5,56.5C 133.5,56.5 132.5,56.5 131.5,56.5C 131.421,55.0695 131.754,53.7362 132.5,52.5C 129.205,51.5985 125.872,51.5985 122.5,52.5C 131.275,47.3398 140.609,45.3398 150.5,46.5 Z"/></g>
<g><path style="opacity:1" fill="#a80205" d="M 166.5,50.5 C 165.697,51.4232 165.53,52.4232 166,53.5C 167.32,53.799 168.82,53.9657 170.5,54C 171.598,54.7697 171.598,55.603 170.5,56.5C 165.693,55.1066 160.693,54.4399 155.5,54.5C 154.402,53.603 154.402,52.7697 155.5,52C 157.515,51.5757 159.349,50.7424 161,49.5C 162.766,50.2335 164.599,50.5668 166.5,50.5 Z"/></g>
<g><path style="opacity:1" fill="#98080c" d="M 175.5,52.5 C 179.046,53.7187 182.046,55.7187 184.5,58.5C 180.327,56.6534 177.66,57.9868 176.5,62.5C 169.177,58.6157 161.511,55.949 153.5,54.5C 154.167,54.5 154.833,54.5 155.5,54.5C 160.693,54.4399 165.693,55.1066 170.5,56.5C 172.887,61.5353 175.221,61.5353 177.5,56.5C 176.775,55.1331 176.108,53.7997 175.5,52.5 Z"/></g>
<g><path style="opacity:1" fill="#9c0509" d="M 122.5,52.5 C 121.854,54.1561 121.187,55.8228 120.5,57.5C 120.868,58.91 121.701,59.91 123,60.5C 125.579,58.6453 128.412,57.312 131.5,56.5C 132.5,56.5 133.5,56.5 134.5,56.5C 129.63,58.2681 124.964,60.6015 120.5,63.5C 120.585,62.0047 119.919,61.0047 118.5,60.5C 117.167,61.5 115.833,62.5 114.5,63.5C 113.833,62.5 113.167,61.5 112.5,60.5C 111.583,61.1272 110.583,61.4606 109.5,61.5C 113.001,57.3375 117.335,54.3375 122.5,52.5 Z"/></g>
<g><path style="opacity:1" fill="#a50205" d="M 166.5,50.5 C 169.5,51.1667 172.5,51.8333 175.5,52.5C 176.108,53.7997 176.775,55.1331 177.5,56.5C 175.221,61.5353 172.887,61.5353 170.5,56.5C 171.598,55.603 171.598,54.7697 170.5,54C 168.82,53.9657 167.32,53.799 166,53.5C 165.53,52.4232 165.697,51.4232 166.5,50.5 Z"/></g>
<g><path style="opacity:1" fill="#8f0e0f" d="M 186.5,59.5 C 189.573,61.5691 191.906,64.2358 193.5,67.5C 192.833,67.1667 192.167,66.8333 191.5,66.5C 188.71,65.0329 187.044,62.6996 186.5,59.5 Z"/></g>
<g><path style="opacity:1" fill="#a60306" d="M 184.5,58.5 C 185.167,58.8333 185.833,59.1667 186.5,59.5C 187.044,62.6996 188.71,65.0329 191.5,66.5C 188.861,67.1241 187.527,68.4574 187.5,70.5C 186.583,69.8728 185.583,69.5394 184.5,69.5C 181.793,67.1568 179.126,64.8235 176.5,62.5C 177.66,57.9868 180.327,56.6534 184.5,58.5 Z"/></g>
<g><path style="opacity:1" fill="#a10507" d="M 120.5,63.5 C 117.192,66.4715 113.859,69.4715 110.5,72.5C 110.978,69.7224 109.978,67.7224 107.5,66.5C 105.727,69.2103 103.394,71.2103 100.5,72.5C 102.372,67.9568 105.372,64.2901 109.5,61.5C 110.583,61.4606 111.583,61.1272 112.5,60.5C 113.167,61.5 113.833,62.5 114.5,63.5C 115.833,62.5 117.167,61.5 118.5,60.5C 119.919,61.0047 120.585,62.0047 120.5,63.5 Z"/></g>
<g><path style="opacity:1" fill="#a20405" d="M 191.5,66.5 C 192.167,66.8333 192.833,67.1667 193.5,67.5C 196.264,68.9475 197.931,71.2809 198.5,74.5C 198.5,75.5 198.5,76.5 198.5,77.5C 197.5,77.5 196.5,77.5 195.5,77.5C 195.66,79.1992 195.494,80.8659 195,82.5C 194.167,80.5 193.333,78.5 192.5,76.5C 191.583,75.8728 190.583,75.5394 189.5,75.5C 187.833,73.5 186.167,71.5 184.5,69.5C 185.583,69.5394 186.583,69.8728 187.5,70.5C 187.527,68.4574 188.861,67.1241 191.5,66.5 Z"/></g>
<g><path style="opacity:1" fill="#850f19" d="M 144.5,75.5 C 146.134,74.8389 147.967,74.5056 150,74.5C 152.295,74.5465 154.129,75.2132 155.5,76.5C 151.936,75.5773 148.269,75.244 144.5,75.5 Z"/></g>
<g><path style="opacity:1" fill="#a40406" d="M 110.5,72.5 C 109.066,75.0472 107.4,77.3805 105.5,79.5C 103.516,79.6168 101.85,78.9501 100.5,77.5C 99.914,77.7093 99.414,78.0426 99,78.5C 99.707,76.6891 100.207,74.6891 100.5,72.5C 103.394,71.2103 105.727,69.2103 107.5,66.5C 109.978,67.7224 110.978,69.7224 110.5,72.5 Z"/></g>
<g><path style="opacity:1" fill="#9d060b" d="M 100.5,72.5 C 100.207,74.6891 99.707,76.6891 99,78.5C 99.414,78.0426 99.914,77.7093 100.5,77.5C 101.85,78.9501 103.516,79.6168 105.5,79.5C 103.805,83.5476 102.139,87.5476 100.5,91.5C 100.27,88.3056 100.936,85.3056 102.5,82.5C 102.167,81.8333 101.833,81.1667 101.5,80.5C 100.5,81.8333 99.5,83.1667 98.5,84.5C 97.8302,82.7086 97.1635,81.0419 96.5,79.5C 97.0787,76.6689 98.412,74.3356 100.5,72.5 Z"/></g>
<g><path style="opacity:1" fill="#9d0609" d="M 198.5,74.5 C 203.076,80.6725 205.743,87.6725 206.5,95.5C 205.209,95.7373 204.209,95.404 203.5,94.5C 201.182,91.6601 200.849,88.4935 202.5,85C 202.387,83.7202 201.72,82.8869 200.5,82.5C 198.935,86.6865 198.268,91.0199 198.5,95.5C 196.63,88.4181 193.63,81.7514 189.5,75.5C 190.583,75.5394 191.583,75.8728 192.5,76.5C 193.333,78.5 194.167,80.5 195,82.5C 195.494,80.8659 195.66,79.1992 195.5,77.5C 196.5,77.5 197.5,77.5 198.5,77.5C 198.5,76.5 198.5,75.5 198.5,74.5 Z"/></g>
<g><path style="opacity:1" fill="#a40407" d="M 144.5,75.5 C 148.269,75.244 151.936,75.5773 155.5,76.5C 156.167,76.5 156.5,76.8333 156.5,77.5C 156.575,80.2062 156.908,82.8728 157.5,85.5C 156.969,84.2046 155.636,83.5379 153.5,83.5C 153.253,86.9387 153.586,90.272 154.5,93.5C 154.5,94.5 154.5,95.5 154.5,96.5C 152.939,92.8405 151.273,89.8405 149.5,87.5C 147.096,84.3454 145.429,80.6788 144.5,76.5C 144.5,76.1667 144.5,75.8333 144.5,75.5 Z"/></g>
<g><path style="opacity:1" fill="#a50306" d="M 96.5,79.5 C 97.1635,81.0419 97.8302,82.7086 98.5,84.5C 99.5,83.1667 100.5,81.8333 101.5,80.5C 101.833,81.1667 102.167,81.8333 102.5,82.5C 100.936,85.3056 100.27,88.3056 100.5,91.5C 100.5,92.8333 100.5,94.1667 100.5,95.5C 100.167,95.5 99.8333,95.5 99.5,95.5C 99.6633,93.1432 99.4966,90.8098 99,88.5C 98.0975,89.7014 96.9308,90.5348 95.5,91C 95.8333,91.3333 96.1667,91.6667 96.5,92C 95.552,92.4828 94.552,92.6495 93.5,92.5C 94.4853,88.9244 95.152,85.2577 95.5,81.5C 95.3284,80.5084 95.6618,79.8417 96.5,79.5 Z"/></g>
<g><path style="opacity:1" fill="#960712" d="M 156.5,77.5 C 158.734,81.5225 160.401,85.8558 161.5,90.5C 159.312,89.5557 157.979,87.889 157.5,85.5C 156.908,82.8728 156.575,80.2062 156.5,77.5 Z"/></g>
<g><path style="opacity:1" fill="#a50303" d="M 157.5,85.5 C 157.979,87.889 159.312,89.5557 161.5,90.5C 162.258,93.3519 162.258,96.0185 161.5,98.5C 161.881,96.0582 161.214,95.3915 159.5,96.5C 158.614,95.675 158.281,94.675 158.5,93.5C 157.167,93.5 155.833,93.5 154.5,93.5C 153.586,90.272 153.253,86.9387 153.5,83.5C 155.636,83.5379 156.969,84.2046 157.5,85.5 Z"/></g>
<g><path style="opacity:1" fill="#a70204" d="M 203.5,94.5 C 203.352,96.9339 203.186,99.6005 203,102.5C 202.148,101.429 201.315,100.429 200.5,99.5C 200.771,97.6203 200.104,96.287 198.5,95.5C 198.268,91.0199 198.935,86.6865 200.5,82.5C 201.72,82.8869 202.387,83.7202 202.5,85C 200.849,88.4935 201.182,91.6601 203.5,94.5 Z"/></g>
<g><path style="opacity:1" fill="#a60206" d="M 99.5,95.5 C 98.8333,102.5 98.1667,109.5 97.5,116.5C 97.5,114.833 97.5,113.167 97.5,111.5C 96.1667,111.5 94.8333,111.5 93.5,111.5C 93.997,105.1 93.997,98.7663 93.5,92.5C 94.552,92.6495 95.552,92.4828 96.5,92C 96.1667,91.6667 95.8333,91.3333 95.5,91C 96.9308,90.5348 98.0975,89.7014 99,88.5C 99.4966,90.8098 99.6633,93.1432 99.5,95.5 Z"/></g>
<g><path style="opacity:1" fill="#a20409" d="M 203.5,94.5 C 204.209,95.404 205.209,95.7373 206.5,95.5C 207.806,101.599 207.806,107.599 206.5,113.5C 204.744,114.552 204.077,116.219 204.5,118.5C 203.657,116.513 202.99,114.346 202.5,112C 203.694,109.153 203.694,106.32 202.5,103.5C 201.832,105.969 201.165,108.302 200.5,110.5C 200.5,106.833 200.5,103.167 200.5,99.5C 201.315,100.429 202.148,101.429 203,102.5C 203.186,99.6005 203.352,96.9339 203.5,94.5 Z"/></g>
<g><path style="opacity:1" fill="#a30407" d="M 144.5,76.5 C 145.429,80.6788 147.096,84.3454 149.5,87.5C 147.643,92.716 145.643,97.8827 143.5,103C 147.486,103.499 151.486,103.666 155.5,103.5C 151.647,104.166 147.647,104.833 143.5,105.5C 144.912,106.806 146.579,107.64 148.5,108C 149.252,108.671 149.586,109.504 149.5,110.5C 146.167,110.5 142.833,110.5 139.5,110.5C 139.5,111.5 139.5,112.5 139.5,113.5C 138.5,114.833 137.5,114.833 136.5,113.5C 137.897,110.615 137.23,108.282 134.5,106.5C 135.905,102.615 136.905,98.6148 137.5,94.5C 139.32,88.2099 141.654,82.2099 144.5,76.5 Z"/></g>
<g><path style="opacity:1" fill="#9f050b" d="M 95.5,81.5 C 95.152,85.2577 94.4853,88.9244 93.5,92.5C 93.997,98.7663 93.997,105.1 93.5,111.5C 92.5386,113.265 92.2053,115.265 92.5,117.5C 91.71,116.391 91.21,115.058 91,113.5C 89.3725,102.243 90.8725,91.5765 95.5,81.5 Z"/></g>
<g><path style="opacity:1" fill="#9f0609" d="M 161.5,90.5 C 163.871,95.2647 165.871,100.265 167.5,105.5C 166.115,104.426 164.949,103.093 164,101.5C 163.808,103.577 163.308,105.577 162.5,107.5C 159.681,105.807 159.348,103.974 161.5,102C 158.93,100.651 158.93,99.484 161.5,98.5C 162.258,96.0185 162.258,93.3519 161.5,90.5 Z"/></g>
<g><path style="opacity:1" fill="#a60306" d="M 154.5,93.5 C 155.833,93.5 157.167,93.5 158.5,93.5C 158.281,94.675 158.614,95.675 159.5,96.5C 161.214,95.3915 161.881,96.0582 161.5,98.5C 158.93,99.484 158.93,100.651 161.5,102C 159.348,103.974 159.681,105.807 162.5,107.5C 163.308,105.577 163.808,103.577 164,101.5C 164.949,103.093 166.115,104.426 167.5,105.5C 167.762,106.978 167.429,108.311 166.5,109.5C 163.845,107.98 163.178,108.48 164.5,111C 164.101,112.728 163.434,114.228 162.5,115.5C 162.773,113.549 162.107,112.049 160.5,111C 156.848,110.501 153.182,110.335 149.5,110.5C 149.586,109.504 149.252,108.671 148.5,108C 146.579,107.64 144.912,106.806 143.5,105.5C 147.647,104.833 151.647,104.166 155.5,103.5C 155.938,103.565 156.272,103.399 156.5,103C 155.331,100.993 154.665,98.8268 154.5,96.5C 154.5,95.5 154.5,94.5 154.5,93.5 Z"/></g>
<g><path style="opacity:1" fill="#a80206" d="M 134.5,106.5 C 137.23,108.282 137.897,110.615 136.5,113.5C 136.466,115.671 136.133,118.004 135.5,120.5C 134.264,121.246 132.93,121.579 131.5,121.5C 131.643,119.738 131.309,118.071 130.5,116.5C 132.744,114.62 133.41,112.453 132.5,110C 133.429,108.923 134.096,107.756 134.5,106.5 Z"/></g>
<g><path style="opacity:1" fill="#920b0d" d="M 149.5,110.5 C 153.182,110.335 156.848,110.501 160.5,111C 162.107,112.049 162.773,113.549 162.5,115.5C 162.5,116.167 162.5,116.833 162.5,117.5C 161.229,115.891 160.229,114.058 159.5,112C 152.556,110.937 145.889,111.437 139.5,113.5C 139.5,112.5 139.5,111.5 139.5,110.5C 142.833,110.5 146.167,110.5 149.5,110.5 Z"/></g>
<g><path style="opacity:1" fill="#a10508" d="M 167.5,105.5 C 169.871,110.265 171.871,115.265 173.5,120.5C 171.5,121.167 169.5,121.833 167.5,122.5C 163.849,122.838 162.183,121.172 162.5,117.5C 162.5,116.833 162.5,116.167 162.5,115.5C 163.434,114.228 164.101,112.728 164.5,111C 163.178,108.48 163.845,107.98 166.5,109.5C 167.429,108.311 167.762,106.978 167.5,105.5 Z"/></g>
<g><path style="opacity:1" fill="#a10509" d="M 93.5,111.5 C 94.8333,111.5 96.1667,111.5 97.5,111.5C 97.5,113.167 97.5,114.833 97.5,116.5C 95.5159,116.484 94.5159,117.484 94.5,119.5C 96.1187,122.642 96.7854,125.975 96.5,129.5C 94.0648,125.942 92.7315,121.942 92.5,117.5C 92.2053,115.265 92.5386,113.265 93.5,111.5 Z"/></g>
<g><path style="opacity:1" fill="#960a0c" d="M 99.5,95.5 C 99.8333,95.5 100.167,95.5 100.5,95.5C 98.9099,104.981 99.5766,114.314 102.5,123.5C 100.6,121.381 98.9336,119.047 97.5,116.5C 98.1667,109.5 98.8333,102.5 99.5,95.5 Z"/></g>
<g><path style="opacity:1" fill="#960b0c" d="M 198.5,95.5 C 200.104,96.287 200.771,97.6203 200.5,99.5C 200.5,103.167 200.5,106.833 200.5,110.5C 200.38,112.734 200.713,114.901 201.5,117C 200.115,118.597 199.449,120.43 199.5,122.5C 198.5,122.5 197.5,122.5 196.5,122.5C 196.421,123.93 196.754,125.264 197.5,126.5C 196.388,127.265 195.721,128.265 195.5,129.5C 194.5,129.5 193.5,129.5 192.5,129.5C 197.878,118.831 199.878,107.497 198.5,95.5 Z"/></g>
<g><path style="opacity:1" fill="#a70205" d="M 204.5,118.5 C 204.5,119.833 204.5,121.167 204.5,122.5C 204.5,122.833 204.5,123.167 204.5,123.5C 202.013,125.809 200.013,128.476 198.5,131.5C 196.821,131.715 195.821,131.048 195.5,129.5C 195.721,128.265 196.388,127.265 197.5,126.5C 196.754,125.264 196.421,123.93 196.5,122.5C 197.5,122.5 198.5,122.5 199.5,122.5C 199.449,120.43 200.115,118.597 201.5,117C 200.713,114.901 200.38,112.734 200.5,110.5C 201.165,108.302 201.832,105.969 202.5,103.5C 203.694,106.32 203.694,109.153 202.5,112C 202.99,114.346 203.657,116.513 204.5,118.5 Z"/></g>
<g><path style="opacity:1" fill="#930a0e" d="M 206.5,113.5 C 206.785,116.829 206.118,119.829 204.5,122.5C 204.5,121.167 204.5,119.833 204.5,118.5C 204.077,116.219 204.744,114.552 206.5,113.5 Z"/></g>
<g><path style="opacity:1" fill="#980a0d" d="M 137.5,94.5 C 136.905,98.6148 135.905,102.615 134.5,106.5C 134.096,107.756 133.429,108.923 132.5,110C 133.41,112.453 132.744,114.62 130.5,116.5C 131.309,118.071 131.643,119.738 131.5,121.5C 132.93,121.579 134.264,121.246 135.5,120.5C 136.133,118.004 136.466,115.671 136.5,113.5C 137.5,114.833 138.5,114.833 139.5,113.5C 139.136,122.276 134.803,124.942 126.5,121.5C 129.937,112.307 133.604,103.307 137.5,94.5 Z"/></g>
<g><path style="opacity:1" fill="#a70204" d="M 97.5,116.5 C 98.9336,119.047 100.6,121.381 102.5,123.5C 103.161,128.168 101.161,130.168 96.5,129.5C 96.7854,125.975 96.1187,122.642 94.5,119.5C 94.5159,117.484 95.5159,116.484 97.5,116.5 Z"/></g>
<g><path style="opacity:1" fill="#7d1514" d="M 173.5,120.5 C 174.043,120.56 174.376,120.893 174.5,121.5C 172.257,122.474 169.924,122.808 167.5,122.5C 169.5,121.833 171.5,121.167 173.5,120.5 Z"/></g>
<g><path style="opacity:0.49" fill="#6b1d21" d="M 181.5,125.5 C 180.833,125.5 180.5,125.833 180.5,126.5C 179.427,125.749 179.26,124.749 180,123.5C 180.717,124.044 181.217,124.711 181.5,125.5 Z"/></g>
<g><path style="opacity:1" fill="#910b12" d="M 204.5,123.5 C 203.438,128.053 201.438,132.053 198.5,135.5C 198.5,134.167 198.5,132.833 198.5,131.5C 200.013,128.476 202.013,125.809 204.5,123.5 Z"/></g>
<g><path style="opacity:1" fill="#970809" d="M 102.5,123.5 C 104.493,127.122 106.493,130.789 108.5,134.5C 106.124,133.274 104.624,131.274 104,128.5C 103.097,129.701 101.931,130.535 100.5,131C 100.75,133.69 101.417,136.523 102.5,139.5C 99.4977,136.839 97.4977,133.505 96.5,129.5C 101.161,130.168 103.161,128.168 102.5,123.5 Z"/></g>
<g><path style="opacity:1" fill="#a40305" d="M 183.5,127.5 C 185.797,129.294 187.963,131.294 190,133.5C 191.095,132.307 191.928,130.973 192.5,129.5C 193.5,129.5 194.5,129.5 195.5,129.5C 195.821,131.048 196.821,131.715 198.5,131.5C 198.5,132.833 198.5,134.167 198.5,135.5C 197.646,137.035 197.646,138.368 198.5,139.5C 198.5,140.167 198.5,140.833 198.5,141.5C 194.61,140.806 191.11,139.14 188,136.5C 186.224,137.536 184.391,137.536 182.5,136.5C 182.19,133.287 182.523,130.287 183.5,127.5 Z"/></g>
<g><path style="opacity:1" fill="#a40307" d="M 108.5,134.5 C 110.194,135.527 111.527,136.861 112.5,138.5C 112.92,140.094 113.586,141.594 114.5,143C 112.956,146.325 110.623,147.158 107.5,145.5C 105.086,144.089 103.419,142.089 102.5,139.5C 101.417,136.523 100.75,133.69 100.5,131C 101.931,130.535 103.097,129.701 104,128.5C 104.624,131.274 106.124,133.274 108.5,134.5 Z"/></g>
<g><path style="opacity:1" fill="#8f0c11" d="M 181.5,125.5 C 182.5,125.833 183.167,126.5 183.5,127.5C 182.523,130.287 182.19,133.287 182.5,136.5C 183.406,139.436 184.072,142.436 184.5,145.5C 184.5,146.5 184.5,147.5 184.5,148.5C 186.167,148.5 187.833,148.5 189.5,148.5C 187.137,150.002 184.97,149.668 183,147.5C 181.837,140.533 181.004,133.533 180.5,126.5C 180.5,125.833 180.833,125.5 181.5,125.5 Z"/></g>
<g><path style="opacity:1" fill="#a20406" d="M 200.5,142.5 C 204.068,143.062 204.402,144.395 201.5,146.5C 197.606,147.593 193.606,148.26 189.5,148.5C 187.833,148.5 186.167,148.5 184.5,148.5C 184.5,147.5 184.5,146.5 184.5,145.5C 185.151,144.909 185.818,144.243 186.5,143.5C 187.086,143.709 187.586,144.043 188,144.5C 188.436,141.716 189.936,140.55 192.5,141C 190.968,141.7 189.968,142.866 189.5,144.5C 192.784,145.657 196.118,145.824 199.5,145C 199.167,144.667 198.833,144.333 198.5,144C 199.416,143.722 200.082,143.222 200.5,142.5 Z"/></g>
<g><path style="opacity:1" fill="#890f11" d="M 198.5,139.5 C 201.923,141.071 205.257,142.905 208.5,145C 206.187,145.662 203.854,146.162 201.5,146.5C 204.402,144.395 204.068,143.062 200.5,142.5C 199.833,142.167 199.167,141.833 198.5,141.5C 198.5,140.833 198.5,140.167 198.5,139.5 Z"/></g>
<g><path style="opacity:1" fill="#a60208" d="M 182.5,136.5 C 184.391,137.536 186.224,137.536 188,136.5C 191.11,139.14 194.61,140.806 198.5,141.5C 199.167,141.833 199.833,142.167 200.5,142.5C 200.082,143.222 199.416,143.722 198.5,144C 198.833,144.333 199.167,144.667 199.5,145C 196.118,145.824 192.784,145.657 189.5,144.5C 189.968,142.866 190.968,141.7 192.5,141C 189.936,140.55 188.436,141.716 188,144.5C 187.586,144.043 187.086,143.709 186.5,143.5C 185.818,144.243 185.151,144.909 184.5,145.5C 184.072,142.436 183.406,139.436 182.5,136.5 Z"/></g>
<g><path style="opacity:1" fill="#910c12" d="M 112.5,138.5 C 114.296,139.793 115.963,141.293 117.5,143C 115.607,145.303 113.607,147.47 111.5,149.5C 109.812,148.479 108.479,147.145 107.5,145.5C 110.623,147.158 112.956,146.325 114.5,143C 113.586,141.594 112.92,140.094 112.5,138.5 Z"/></g>
<g><path style="opacity:0.506" fill="#861719" d="M 139.5,162.5 C 141.265,161.539 143.265,161.205 145.5,161.5C 145.5,160.5 145.5,159.5 145.5,158.5C 139.5,158.5 133.5,158.5 127.5,158.5C 127.5,159.5 127.5,160.5 127.5,161.5C 129.415,161.216 131.081,161.549 132.5,162.5C 130.5,162.5 128.5,162.5 126.5,162.5C 126.5,160.833 126.5,159.167 126.5,157.5C 133.167,157.5 139.833,157.5 146.5,157.5C 146.5,159.167 146.5,160.833 146.5,162.5C 144.167,162.5 141.833,162.5 139.5,162.5 Z"/></g>
<g><path style="opacity:1" fill="#9e0609" d="M 119.5,158.5 C 119.703,160.044 120.37,161.378 121.5,162.5C 120.192,163.626 118.858,163.626 117.5,162.5C 115.583,160.255 113.25,159.922 110.5,161.5C 109.438,160.575 109.438,159.575 110.5,158.5C 113.396,157.225 116.396,157.225 119.5,158.5 Z"/></g>
<g><path style="opacity:1" fill="#a70307" d="M 155.5,158.5 C 158.807,158.063 161.807,158.73 164.5,160.5C 162.925,161.446 161.258,161.446 159.5,160.5C 157.962,160.453 156.962,161.12 156.5,162.5C 156.167,162.5 155.833,162.5 155.5,162.5C 154.325,162.719 153.325,162.386 152.5,161.5C 153.993,160.859 154.993,159.859 155.5,158.5 Z"/></g>
<g><path style="opacity:1" fill="#940a0e" d="M 155.5,158.5 C 159.595,157.011 163.595,157.511 167.5,160C 169.141,161.129 170.141,162.629 170.5,164.5C 169.262,163.588 167.928,163.421 166.5,164C 167.472,166.218 168.139,168.551 168.5,171C 168.316,172.376 167.649,173.209 166.5,173.5C 167.749,165.092 164.415,161.426 156.5,162.5C 156.962,161.12 157.962,160.453 159.5,160.5C 161.258,161.446 162.925,161.446 164.5,160.5C 161.807,158.73 158.807,158.063 155.5,158.5 Z"/></g>
<g><path style="opacity:1" fill="#930b11" d="M 178.5,158.5 C 178.5,158.167 178.5,157.833 178.5,157.5C 183.716,157.134 188.716,157.968 193.5,160C 195.552,162.774 195.886,165.607 194.5,168.5C 194.659,165.813 193.825,163.48 192,161.5C 190.812,162.563 190.312,163.897 190.5,165.5C 189.596,164.791 189.263,163.791 189.5,162.5C 186.833,162.5 184.167,162.5 181.5,162.5C 183.292,161.691 185.292,161.191 187.5,161C 184.998,158.788 181.998,157.955 178.5,158.5 Z"/></g>
<g><path style="opacity:1" fill="#940a0d" d="M 110.5,158.5 C 109.438,159.575 109.438,160.575 110.5,161.5C 113.25,159.922 115.583,160.255 117.5,162.5C 115.215,161.454 112.882,161.454 110.5,162.5C 110.5,163.5 110.5,164.5 110.5,165.5C 107.631,162.488 106.298,163.155 106.5,167.5C 104.417,163.067 105.751,160.067 110.5,158.5 Z"/></g>
<g><path style="opacity:1" fill="#a30407" d="M 139.5,162.5 C 138.51,168.31 138.177,174.31 138.5,180.5C 137.167,180.5 135.833,180.5 134.5,180.5C 134.823,174.31 134.49,168.31 133.5,162.5C 133.167,162.5 132.833,162.5 132.5,162.5C 131.081,161.549 129.415,161.216 127.5,161.5C 127.5,160.5 127.5,159.5 127.5,158.5C 133.5,158.5 139.5,158.5 145.5,158.5C 145.5,159.5 145.5,160.5 145.5,161.5C 143.265,161.205 141.265,161.539 139.5,162.5 Z"/></g>
<g><path style="opacity:1" fill="#940b0d" d="M 155.5,158.5 C 154.993,159.859 153.993,160.859 152.5,161.5C 153.325,162.386 154.325,162.719 155.5,162.5C 153.722,166.565 153.055,170.899 153.5,175.5C 152.834,171.647 152.167,167.647 151.5,163.5C 150.817,163.863 150.15,164.196 149.5,164.5C 149.833,160.833 151.833,158.833 155.5,158.5 Z"/></g>
<g><path style="opacity:1" fill="#910b0e" d="M 119.5,158.5 C 122.097,159.932 123.763,162.099 124.5,165C 122.5,165.667 120.5,165.667 118.5,165C 117.748,164.329 117.414,163.496 117.5,162.5C 118.858,163.626 120.192,163.626 121.5,162.5C 120.37,161.378 119.703,160.044 119.5,158.5 Z"/></g>
<g><path style="opacity:1" fill="#a10507" d="M 178.5,158.5 C 181.998,157.955 184.998,158.788 187.5,161C 185.292,161.191 183.292,161.691 181.5,162.5C 181.5,164.833 181.5,167.167 181.5,169.5C 182.718,170.161 184.051,170.828 185.5,171.5C 184.051,172.172 182.718,172.839 181.5,173.5C 181.5,176.167 181.5,178.833 181.5,181.5C 180.167,181.5 178.833,181.5 177.5,181.5C 177.175,173.648 177.508,165.982 178.5,158.5 Z"/></g>
<g><path style="opacity:0.573" fill="#841318" d="M 148.5,166.5 C 148.46,169.881 148.793,173.214 149.5,176.5C 148.028,174.883 147.361,172.883 147.5,170.5C 147.511,168.955 147.844,167.622 148.5,166.5 Z"/></g>
<g><path style="opacity:1" fill="#a30407" d="M 110.5,165.5 C 114.167,166.833 117.833,168.167 121.5,169.5C 121.178,171.722 121.845,173.556 123.5,175C 122.005,180.807 118.339,182.807 112.5,181C 114.653,180.901 116.319,180.067 117.5,178.5C 119.69,177.252 120.023,175.586 118.5,173.5C 114.58,171.54 110.58,169.54 106.5,167.5C 106.298,163.155 107.631,162.488 110.5,165.5 Z"/></g>
<g><path style="opacity:0.508" fill="#8a1819" d="M 133.5,162.5 C 134.49,168.31 134.823,174.31 134.5,180.5C 135.833,180.5 137.167,180.5 138.5,180.5C 137.448,182.256 135.781,182.923 133.5,182.5C 133.5,175.833 133.5,169.167 133.5,162.5 Z"/></g>
<g><path style="opacity:1" fill="#a50306" d="M 153.5,175.5 C 154.167,175.5 154.5,175.833 154.5,176.5C 154.573,178.027 153.906,179.027 152.5,179.5C 151.833,179.5 151.167,179.5 150.5,179.5C 149.89,178.609 149.557,177.609 149.5,176.5C 148.793,173.214 148.46,169.881 148.5,166.5C 148.328,165.508 148.662,164.842 149.5,164.5C 150.15,164.196 150.817,163.863 151.5,163.5C 152.167,167.647 152.834,171.647 153.5,175.5 Z"/></g>
<g><path style="opacity:1" fill="#9d070a" d="M 194.5,168.5 C 194.084,170.752 192.751,172.252 190.5,173C 187.518,173.498 184.518,173.665 181.5,173.5C 182.718,172.839 184.051,172.172 185.5,171.5C 184.051,170.828 182.718,170.161 181.5,169.5C 185.487,170.071 188.487,168.738 190.5,165.5C 190.312,163.897 190.812,162.563 192,161.5C 193.825,163.48 194.659,165.813 194.5,168.5 Z"/></g>
<g><path style="opacity:1" fill="#791718" d="M 178.5,157.5 C 178.5,157.833 178.5,158.167 178.5,158.5C 177.508,165.982 177.175,173.648 177.5,181.5C 178.833,181.5 180.167,181.5 181.5,181.5C 180.081,182.451 178.415,182.784 176.5,182.5C 175.865,173.766 176.532,165.433 178.5,157.5 Z"/></g>
<g><path style="opacity:0.98" fill="#861011" d="M 106.5,167.5 C 110.58,169.54 114.58,171.54 118.5,173.5C 115.474,172.826 112.474,171.993 109.5,171C 107.944,170.28 106.944,169.113 106.5,167.5 Z"/></g>
<g><path style="opacity:1" fill="#9e0708" d="M 170.5,164.5 C 173.135,169.324 172.802,173.991 169.5,178.5C 168.5,178.5 167.5,178.5 166.5,178.5C 166.5,177.167 166.5,175.833 166.5,174.5C 166.5,174.167 166.5,173.833 166.5,173.5C 167.649,173.209 168.316,172.376 168.5,171C 168.139,168.551 167.472,166.218 166.5,164C 167.928,163.421 169.262,163.588 170.5,164.5 Z"/></g>
<g><path style="opacity:1" fill="#940b0d" d="M 121.5,169.5 C 125.478,173.55 125.478,177.716 121.5,182C 116.37,184.334 111.703,183.834 107.5,180.5C 105.778,177.242 106.445,175.909 109.5,176.5C 111.82,178.226 114.487,178.893 117.5,178.5C 116.319,180.067 114.653,180.901 112.5,181C 118.339,182.807 122.005,180.807 123.5,175C 121.845,173.556 121.178,171.722 121.5,169.5 Z"/></g>
<g><path style="opacity:1" fill="#831113" d="M 109.5,176.5 C 106.445,175.909 105.778,177.242 107.5,180.5C 105.386,179.216 104.386,177.216 104.5,174.5C 106.781,174.077 108.448,174.744 109.5,176.5 Z"/></g>
<g><path style="opacity:1" fill="#820c12" d="M 150.5,179.5 C 151.167,179.5 151.833,179.5 152.5,179.5C 153.9,180.1 154.9,181.1 155.5,182.5C 153.326,182.25 151.659,181.25 150.5,179.5 Z"/></g>
<g><path style="opacity:1" fill="#9a080b" d="M 166.5,174.5 C 166.5,175.833 166.5,177.167 166.5,178.5C 167.5,178.5 168.5,178.5 169.5,178.5C 165.87,183.216 161.203,184.55 155.5,182.5C 154.9,181.1 153.9,180.1 152.5,179.5C 153.906,179.027 154.573,178.027 154.5,176.5C 159.239,179.635 163.239,178.968 166.5,174.5 Z"/></g>
</svg>
