<?xml version="1.0" encoding="UTF-8"?>
<!DOCTYPE svg PUBLIC "-//W3C//DTD SVG 1.1//EN" "http://www.w3.org/Graphics/SVG/1.1/DTD/svg11.dtd">
<svg xmlns="http://www.w3.org/2000/svg" version="1.1" width="500px" height="500px" style="shape-rendering:geometricPrecision; text-rendering:geometricPrecision; image-rendering:optimizeQuality; fill-rule:evenodd; clip-rule:evenodd" xmlns:xlink="http://www.w3.org/1999/xlink">
<g><path style="opacity:0.667" fill="#c84a48" d="M 275.5,42.5 C 260.61,39.491 245.61,38.8244 230.5,40.5C 231.263,39.7321 232.263,39.2321 233.5,39C 244.167,37 254.833,37 265.5,39C 269.11,39.7384 272.443,40.9051 275.5,42.5 Z"/></g>
<g><path style="opacity:0.949" fill="#c44a49" d="M 230.5,40.5 C 226.089,42.6971 221.422,44.3638 216.5,45.5C 220.664,42.6657 225.331,40.999 230.5,40.5 Z"/></g>
<g><path style="opacity:0.667" fill="#c44b49" d="M 202.5,53.5 C 202.5,54.1667 202.5,54.8333 202.5,55.5C 197.167,60.1667 192.167,65.1667 187.5,70.5C 191.39,63.9375 196.39,58.2708 202.5,53.5 Z"/></g>
<g><path style="opacity:0.827" fill="#cb4b48" d="M 311.5,70.5 C 312.885,71.5736 314.051,72.9069 315,74.5C 317.047,77.9302 318.547,81.5969 319.5,85.5C 317.461,81.6233 314.961,77.9566 312,74.5C 311.51,73.2068 311.343,71.8734 311.5,70.5 Z"/></g>
<g><path style="opacity:1" fill="#d73734" d="M 290.5,73.5 C 292.746,74.4552 295.079,75.1218 297.5,75.5C 297.599,78.6296 298.766,81.2963 301,83.5C 301.29,81.9559 301.956,80.6226 303,79.5C 302.175,84.1637 302.341,88.8304 303.5,93.5C 300.176,86.1879 295.843,79.5212 290.5,73.5 Z"/></g>
<g><path style="opacity:0.761" fill="#cf524d" d="M 200.5,83.5 C 198.477,88.587 196.477,93.587 194.5,98.5C 194.411,94.7002 195.078,91.0336 196.5,87.5C 197.211,85.4554 198.544,84.1221 200.5,83.5 Z"/></g>
<g><path style="opacity:1" fill="#e1181b" d="M 202.5,80.5 C 202.068,81.7095 201.401,82.7095 200.5,83.5C 198.544,84.1221 197.211,85.4554 196.5,87.5C 195.078,91.0336 194.411,94.7002 194.5,98.5C 193.883,98.6107 193.383,98.944 193,99.5C 192.168,163.668 192.335,227.668 193.5,291.5C 194.506,292.396 194.506,293.062 193.5,293.5C 190.874,292.238 188.207,290.904 185.5,289.5C 186.347,288.155 187.513,287.155 189,286.5C 189.167,284.667 189.333,282.833 189.5,281C 188.076,272.988 187.076,264.822 186.5,256.5C 185.223,260.666 183.556,264.666 181.5,268.5C 182.419,274.794 182.753,281.127 182.5,287.5C 181.5,287.5 180.5,287.5 179.5,287.5C 179.737,290.212 179.737,292.712 179.5,295C 177.107,296.829 174.773,296.663 172.5,294.5C 171.549,295.326 170.549,295.492 169.5,295C 171.575,293.432 173.575,291.932 175.5,290.5C 176.33,227.57 176.83,164.57 177,101.5C 177.683,96.7665 178.683,92.0998 180,87.5C 182.158,82.8677 183.991,78.2011 185.5,73.5C 185.427,71.9731 186.094,70.9731 187.5,70.5C 192.167,65.1667 197.167,60.1667 202.5,55.5C 207.055,54.5558 211.055,52.5558 214.5,49.5C 214.906,50.5575 214.906,51.8908 214.5,53.5C 219.309,52.7796 223.309,54.1129 226.5,57.5C 222.194,58.4234 217.861,58.4234 213.5,57.5C 213.5,59.5 213.5,61.5 213.5,63.5C 214.552,63.3505 215.552,63.5172 216.5,64C 214.132,64.7895 211.966,65.9562 210,67.5C 207.042,66.5388 204.542,67.3721 202.5,70C 203,70.5 203.5,71 204,71.5C 204.71,70.0267 205.876,69.3601 207.5,69.5C 207.5,70.5 207.5,71.5 207.5,72.5C 206.167,72.5 204.833,72.5 203.5,72.5C 203.167,75.1667 202.833,77.8333 202.5,80.5 Z"/></g>
<g><path style="opacity:1" fill="#e0191c" d="M 275.5,42.5 C 290.908,47.5278 302.908,56.8611 311.5,70.5C 311.343,71.8734 311.51,73.2068 312,74.5C 314.961,77.9566 317.461,81.6233 319.5,85.5C 319.116,90.1277 319.95,94.461 322,98.5C 322.333,162.833 322.667,227.167 323,291.5C 330.087,292.315 337.253,292.815 344.5,293C 345.381,293.708 346.047,294.542 346.5,295.5C 352.185,300.456 351.185,302.123 343.5,300.5C 345.027,298.67 344.527,297.67 342,297.5C 338.931,298.636 335.931,299.969 333,301.5C 332.5,301.167 332,300.833 331.5,300.5C 332.313,299.186 333.313,298.019 334.5,297C 333.351,295.256 332.017,295.089 330.5,296.5C 329.187,292.612 328.187,292.778 327.5,297C 327.706,298.865 328.372,300.532 329.5,302C 327.711,305.565 327.044,309.398 327.5,313.5C 324.975,312.36 322.308,311.693 319.5,311.5C 319.5,310.5 319.5,309.5 319.5,308.5C 316.054,307.293 312.721,307.46 309.5,309C 310.833,309.333 312.167,309.667 313.5,310C 312.833,310.333 312.167,310.667 311.5,311C 313.376,316.752 317.376,319.586 323.5,319.5C 323.62,321.199 323.954,322.865 324.5,324.5C 327.875,328.308 329.375,332.641 329,337.5C 330.011,338.337 331.178,338.67 332.5,338.5C 332.62,340.734 332.287,342.901 331.5,345C 331.833,345.5 332.167,346 332.5,346.5C 333.167,345.833 333.833,345.167 334.5,344.5C 335.944,346.608 336.61,348.941 336.5,351.5C 337.5,351.5 338.5,351.5 339.5,351.5C 338.36,354.025 337.693,356.692 337.5,359.5C 338.552,359.351 339.552,359.517 340.5,360C 339.506,361.329 338.506,362.662 337.5,364C 340.457,366.184 340.123,367.351 336.5,367.5C 336.663,369.857 336.497,372.19 336,374.5C 331.819,376.959 331.652,379.459 335.5,382C 334.601,384.192 333.601,386.358 332.5,388.5C 334.018,391.761 333.352,394.427 330.5,396.5C 329.876,396.083 329.543,395.416 329.5,394.5C 330.388,392.845 330.888,391.178 331,389.5C 328.697,391.393 326.53,393.393 324.5,395.5C 323.54,391.861 323.54,388.195 324.5,384.5C 325.369,382.283 325.702,379.95 325.5,377.5C 325.5,377.167 325.5,376.833 325.5,376.5C 327.164,375.051 327.998,373.051 328,370.5C 329.432,359.834 327.599,349.834 322.5,340.5C 321.675,339.614 320.675,339.281 319.5,339.5C 314.376,331.706 307.71,325.706 299.5,321.5C 298.039,318.824 295.706,317.324 292.5,317C 288.848,316.501 285.182,316.335 281.5,316.5C 281.423,315.25 280.756,314.417 279.5,314C 276.167,313.667 272.833,313.333 269.5,313C 270.167,312.333 270.833,311.667 271.5,311C 276.449,311.492 281.449,311.492 286.5,311C 292.148,308.391 298.148,306.891 304.5,306.5C 302.887,305.573 301.221,304.739 299.5,304C 298.304,303.346 298.304,302.846 299.5,302.5C 302.421,303.407 305.421,303.74 308.5,303.5C 308.22,273.561 307.553,243.561 306.5,213.5C 306.667,175.165 306.5,136.832 306,98.5C 305.764,96.8807 304.931,95.8807 303.5,95.5C 303.5,94.8333 303.5,94.1667 303.5,93.5C 302.341,88.8304 302.175,84.1637 303,79.5C 301.956,80.6226 301.29,81.9559 301,83.5C 298.766,81.2963 297.599,78.6296 297.5,75.5C 295.079,75.1218 292.746,74.4552 290.5,73.5C 290.5,73.1667 290.5,72.8333 290.5,72.5C 290.586,71.5041 290.252,70.6708 289.5,70C 287.5,68.6667 285.5,67.3333 283.5,66C 285.301,65.6827 285.634,65.016 284.5,64C 283.207,63.51 281.873,63.3433 280.5,63.5C 282.327,59.4947 281.16,58.1613 277,59.5C 272.867,58.6001 268.7,57.9334 264.5,57.5C 258.82,56.9421 253.153,56.2755 247.5,55.5C 238.558,55.2195 230.225,57.2195 222.5,61.5C 222.137,62.1835 221.804,62.8501 221.5,63.5C 213.898,67.7699 207.564,73.4366 202.5,80.5C 202.833,77.8333 203.167,75.1667 203.5,72.5C 204.833,72.5 206.167,72.5 207.5,72.5C 207.5,71.5 207.5,70.5 207.5,69.5C 205.876,69.3601 204.71,70.0267 204,71.5C 203.5,71 203,70.5 202.5,70C 204.542,67.3721 207.042,66.5388 210,67.5C 211.966,65.9562 214.132,64.7895 216.5,64C 215.552,63.5172 214.552,63.3505 213.5,63.5C 213.5,61.5 213.5,59.5 213.5,57.5C 217.861,58.4234 222.194,58.4234 226.5,57.5C 223.309,54.1129 219.309,52.7796 214.5,53.5C 214.906,51.8908 214.906,50.5575 214.5,49.5C 211.055,52.5558 207.055,54.5558 202.5,55.5C 202.5,54.8333 202.5,54.1667 202.5,53.5C 206.542,49.81 211.209,47.1434 216.5,45.5C 221.422,44.3638 226.089,42.6971 230.5,40.5C 245.61,38.8244 260.61,39.491 275.5,42.5 Z"/></g>
<g><path style="opacity:1" fill="#d53b39" d="M 264.5,57.5 C 268.7,57.9334 272.867,58.6001 277,59.5C 281.16,58.1613 282.327,59.4947 280.5,63.5C 281.873,63.3433 283.207,63.51 284.5,64C 285.634,65.016 285.301,65.6827 283.5,66C 285.5,67.3333 287.5,68.6667 289.5,70C 290.252,70.6708 290.586,71.5041 290.5,72.5C 282.698,65.9347 274.032,60.9347 264.5,57.5 Z"/></g>
<g><path style="opacity:0.271" fill="#cb5754" d="M 247.5,55.5 C 243.381,56.7379 239.047,57.5712 234.5,58C 230.115,59.8634 225.782,61.6967 221.5,63.5C 221.804,62.8501 222.137,62.1835 222.5,61.5C 230.225,57.2195 238.558,55.2195 247.5,55.5 Z"/></g>
<g><path style="opacity:0.345" fill="#a21919" d="M 271.5,139.5 C 271.5,139.833 271.5,140.167 271.5,140.5C 254.756,140.182 238.089,140.515 221.5,141.5C 237.8,139.515 254.466,138.848 271.5,139.5 Z"/></g>
<g><path style="opacity:1" fill="#dc1b1d" d="M 271.5,140.5 C 273.5,140.5 275.5,140.5 277.5,140.5C 277.5,145.5 277.5,150.5 277.5,155.5C 259.005,156.662 240.338,156.829 221.5,156C 220.192,151.167 220.192,146.334 221.5,141.5C 238.089,140.515 254.756,140.182 271.5,140.5 Z"/></g>
<g><path style="opacity:0.11" fill="#cb696c" d="M 271.5,140.5 C 271.5,140.167 271.5,139.833 271.5,139.5C 273.833,139.5 276.167,139.5 278.5,139.5C 278.821,145.026 278.488,150.36 277.5,155.5C 277.5,150.5 277.5,145.5 277.5,140.5C 275.5,140.5 273.5,140.5 271.5,140.5 Z"/></g>
<g><path style="opacity:0.819" fill="#d06958" d="M 194.5,98.5 C 194.5,162.5 194.5,226.5 194.5,290.5C 203.5,290.5 212.5,290.5 221.5,290.5C 212.348,291.494 203.015,291.827 193.5,291.5C 192.335,227.668 192.168,163.668 193,99.5C 193.383,98.944 193.883,98.6107 194.5,98.5 Z"/></g>
<g><path style="opacity:1" fill="#dc181b" d="M 277.5,290.5 C 279.965,292.411 282.298,294.578 284.5,297C 281.103,298.193 277.77,298.526 274.5,298C 271.476,301.198 267.809,302.198 263.5,301C 265.631,300.457 267.631,299.624 269.5,298.5C 268.335,297.416 267.002,296.583 265.5,296C 266.5,295.667 267.5,295.333 268.5,295C 265.741,292.426 266.074,290.26 269.5,288.5C 267.902,288.39 266.235,288.057 264.5,287.5C 264.21,283.389 262.21,280.555 258.5,279C 259.543,277.024 260.877,276.524 262.5,277.5C 262.991,275.321 262.991,273.321 262.5,271.5C 264.003,272.052 265.669,272.052 267.5,271.5C 266.719,266.484 265.719,261.484 264.5,256.5C 263.914,256.291 263.414,255.957 263,255.5C 256.388,256.739 249.721,256.739 243,255.5C 241.893,255.585 240.893,255.919 240,256.5C 239.798,258.256 239.298,259.922 238.5,261.5C 237.264,260.754 235.93,260.421 234.5,260.5C 234.091,266.391 234.091,272.724 234.5,279.5C 235.842,281.005 237.508,281.672 239.5,281.5C 239.5,282.833 239.5,284.167 239.5,285.5C 235.205,285.279 234.538,286.612 237.5,289.5C 236.041,292.669 235.208,296.002 235,299.5C 232.118,305.478 227.284,308.311 220.5,308C 219.663,309.011 219.33,310.178 219.5,311.5C 232.157,310.576 244.824,310.743 257.5,312C 257.167,312.333 256.833,312.667 256.5,313C 249.138,313.235 241.805,313.735 234.5,314.5C 231.295,314.089 228.128,313.755 225,313.5C 224.5,314 224,314.5 223.5,315C 219.176,315.582 214.843,316.082 210.5,316.5C 208.36,316.556 206.694,317.223 205.5,318.5C 200.833,319.833 196.167,321.167 191.5,322.5C 191.719,323.675 191.386,324.675 190.5,325.5C 188.412,326.179 186.412,326.512 184.5,326.5C 182.736,329.215 181.736,332.215 181.5,335.5C 180.5,335.5 179.5,335.5 178.5,335.5C 177.186,338.479 175.853,341.479 174.5,344.5C 173.5,344.5 172.5,344.5 171.5,344.5C 170.994,340.452 169.66,336.619 167.5,333C 167.643,330.849 168.643,329.182 170.5,328C 169.376,327.751 168.376,327.251 167.5,326.5C 170.788,325.555 174.121,324.888 177.5,324.5C 177.5,325.5 177.5,326.5 177.5,327.5C 180.47,327.254 181.803,325.588 181.5,322.5C 183.01,320.683 184.343,318.683 185.5,316.5C 184.833,315.833 184.167,315.167 183.5,314.5C 185.078,313.702 186.744,313.202 188.5,313C 188.167,312.667 187.833,312.333 187.5,312C 190.876,311.693 192.21,309.86 191.5,306.5C 194.271,306.579 196.937,306.079 199.5,305C 197.998,304.417 196.665,303.584 195.5,302.5C 197.534,300.401 197.868,298.068 196.5,295.5C 195.573,297.113 194.739,298.779 194,300.5C 192.989,301.337 191.822,301.67 190.5,301.5C 190.5,300.167 190.5,298.833 190.5,297.5C 191.5,297.5 192.5,297.5 193.5,297.5C 193.5,296.167 193.5,294.833 193.5,293.5C 194.506,293.062 194.506,292.396 193.5,291.5C 203.015,291.827 212.348,291.494 221.5,290.5C 222.498,253.337 222.832,216.004 222.5,178.5C 240.5,178.5 258.5,178.5 276.5,178.5C 276.168,216.004 276.502,253.337 277.5,290.5 Z"/></g>
<g><path style="opacity:0.602" fill="#ce534c" d="M 185.5,73.5 C 183.991,78.2011 182.158,82.8677 180,87.5C 178.683,92.0998 177.683,96.7665 177,101.5C 176.83,164.57 176.33,227.57 175.5,290.5C 175.167,290.5 174.833,290.5 174.5,290.5C 174.333,228.499 174.5,166.499 175,104.5C 175.911,93.1427 179.411,82.8094 185.5,73.5 Z"/></g>
<g><path style="opacity:0.992" fill="#ca4a46" d="M 278.5,290.5 C 278.167,290.5 277.833,290.5 277.5,290.5C 276.502,253.337 276.168,216.004 276.5,178.5C 258.5,178.5 240.5,178.5 222.5,178.5C 222.832,216.004 222.498,253.337 221.5,290.5C 220.207,252.491 220.207,214.491 221.5,176.5C 240.41,176.174 259.243,176.507 278,177.5C 278.5,215.165 278.667,252.832 278.5,290.5 Z"/></g>
<g><path style="opacity:0.807" fill="#d26c5f" d="M 303.5,95.5 C 304.931,95.8807 305.764,96.8807 306,98.5C 306.5,136.832 306.667,175.165 306.5,213.5C 307.157,239.522 306.491,265.188 304.5,290.5C 304.823,225.471 304.489,160.471 303.5,95.5 Z"/></g>
<g><path style="opacity:1" fill="#d91a1c" d="M 306.5,213.5 C 307.553,243.561 308.22,273.561 308.5,303.5C 305.421,303.74 302.421,303.407 299.5,302.5C 298.304,302.846 298.304,303.346 299.5,304C 301.221,304.739 302.887,305.573 304.5,306.5C 298.148,306.891 292.148,308.391 286.5,311C 281.449,311.492 276.449,311.492 271.5,311C 270.833,311.667 270.167,312.333 269.5,313C 272.833,313.333 276.167,313.667 279.5,314C 280.756,314.417 281.423,315.25 281.5,316.5C 259.993,316.169 238.66,316.503 217.5,317.5C 214.946,318.388 212.279,318.721 209.5,318.5C 208.167,318.5 206.833,318.5 205.5,318.5C 206.694,317.223 208.36,316.556 210.5,316.5C 214.843,316.082 219.176,315.582 223.5,315C 224,314.5 224.5,314 225,313.5C 228.128,313.755 231.295,314.089 234.5,314.5C 241.805,313.735 249.138,313.235 256.5,313C 256.833,312.667 257.167,312.333 257.5,312C 244.824,310.743 232.157,310.576 219.5,311.5C 219.33,310.178 219.663,309.011 220.5,308C 227.284,308.311 232.118,305.478 235,299.5C 235.208,296.002 236.041,292.669 237.5,289.5C 234.538,286.612 235.205,285.279 239.5,285.5C 239.5,284.167 239.5,282.833 239.5,281.5C 237.508,281.672 235.842,281.005 234.5,279.5C 234.091,272.724 234.091,266.391 234.5,260.5C 235.93,260.421 237.264,260.754 238.5,261.5C 239.298,259.922 239.798,258.256 240,256.5C 240.893,255.919 241.893,255.585 243,255.5C 249.721,256.739 256.388,256.739 263,255.5C 263.414,255.957 263.914,256.291 264.5,256.5C 265.719,261.484 266.719,266.484 267.5,271.5C 265.669,272.052 264.003,272.052 262.5,271.5C 262.991,273.321 262.991,275.321 262.5,277.5C 260.877,276.524 259.543,277.024 258.5,279C 262.21,280.555 264.21,283.389 264.5,287.5C 266.235,288.057 267.902,288.39 269.5,288.5C 266.074,290.26 265.741,292.426 268.5,295C 267.5,295.333 266.5,295.667 265.5,296C 267.002,296.583 268.335,297.416 269.5,298.5C 267.631,299.624 265.631,300.457 263.5,301C 267.809,302.198 271.476,301.198 274.5,298C 277.77,298.526 281.103,298.193 284.5,297C 282.298,294.578 279.965,292.411 277.5,290.5C 277.833,290.5 278.167,290.5 278.5,290.5C 287.167,290.5 295.833,290.5 304.5,290.5C 306.491,265.188 307.157,239.522 306.5,213.5 Z"/></g>
<g><path style="opacity:0.773" fill="#cf544b" d="M 319.5,85.5 C 321.807,91.1716 323.307,97.1716 324,103.5C 324.5,165.832 324.667,228.166 324.5,290.5C 334.15,289.611 343.484,290.778 352.5,294C 355.777,296.766 358.443,299.933 360.5,303.5C 357.912,301.92 355.578,299.92 353.5,297.5C 351.382,296.054 349.049,295.387 346.5,295.5C 346.047,294.542 345.381,293.708 344.5,293C 337.253,292.815 330.087,292.315 323,291.5C 322.667,227.167 322.333,162.833 322,98.5C 319.95,94.461 319.116,90.1277 319.5,85.5 Z"/></g>
<g><path style="opacity:1" fill="#da181a" d="M 193.5,293.5 C 193.5,294.833 193.5,296.167 193.5,297.5C 192.5,297.5 191.5,297.5 190.5,297.5C 190.5,298.833 190.5,300.167 190.5,301.5C 191.822,301.67 192.989,301.337 194,300.5C 194.739,298.779 195.573,297.113 196.5,295.5C 197.868,298.068 197.534,300.401 195.5,302.5C 196.665,303.584 197.998,304.417 199.5,305C 196.937,306.079 194.271,306.579 191.5,306.5C 192.21,309.86 190.876,311.693 187.5,312C 187.833,312.333 188.167,312.667 188.5,313C 186.744,313.202 185.078,313.702 183.5,314.5C 184.167,315.167 184.833,315.833 185.5,316.5C 184.343,318.683 183.01,320.683 181.5,322.5C 179.389,321.032 177.556,321.365 176,323.5C 173.385,321.861 170.552,320.527 167.5,319.5C 168.938,315.908 170.272,312.241 171.5,308.5C 172.645,309.776 172.645,311.109 171.5,312.5C 173.078,313.072 174.578,313.406 176,313.5C 177.836,311.869 177.336,311.202 174.5,311.5C 175.167,307.5 173.5,305.833 169.5,306.5C 169.5,305.5 169.5,304.5 169.5,303.5C 165.649,304.029 162.149,303.362 159,301.5C 158.5,302 158,302.5 157.5,303C 159.037,304.11 159.703,305.61 159.5,307.5C 155.713,306.814 152.546,307.814 150,310.5C 149.822,313.542 148.988,316.375 147.5,319C 149.185,321.916 149.518,324.916 148.5,328C 149.998,330.753 151.998,333.086 154.5,335C 156.391,335.309 157.725,334.475 158.5,332.5C 159.5,334.5 160.5,336.5 161.5,338.5C 162.833,337.5 164.167,336.5 165.5,335.5C 165.833,336 166.167,336.5 166.5,337C 163.538,344.613 162.038,352.446 162,360.5C 163.848,355.287 165.514,349.954 167,344.5C 167.414,344.043 167.914,343.709 168.5,343.5C 169.382,344.76 170.382,345.926 171.5,347C 170.349,356.756 170.182,366.589 171,376.5C 173.064,379.86 174.231,383.526 174.5,387.5C 173.178,387.67 172.011,387.337 171,386.5C 169.519,382.687 167.852,379.02 166,375.5C 165.846,378.525 164.346,380.191 161.5,380.5C 162.376,377.201 162.543,373.868 162,370.5C 159,368.443 155.5,367.443 151.5,367.5C 151.307,371.449 150.807,371.449 150,367.5C 149.211,371.016 149.711,374.349 151.5,377.5C 149.899,379.314 148.566,381.981 147.5,385.5C 150.815,386.979 152.815,389.479 153.5,393C 152.642,395.788 151.976,398.621 151.5,401.5C 151.288,404.011 151.955,406.178 153.5,408C 153.043,408.414 152.709,408.914 152.5,409.5C 154.046,410.684 155.713,411.684 157.5,412.5C 158.136,414.795 159.469,416.461 161.5,417.5C 165.922,417.741 170.255,417.741 174.5,417.5C 175.267,418.172 175.934,419.005 176.5,420C 178.764,420.236 180.931,420.736 183,421.5C 183.783,423.433 183.283,424.933 181.5,426C 184.167,427.667 184.167,429.333 181.5,431C 182.249,432.734 182.749,434.567 183,436.5C 183.333,435.833 183.667,435.167 184,434.5C 184.71,435.973 185.876,436.64 187.5,436.5C 186.817,440.129 187.151,443.795 188.5,447.5C 186.071,447.884 183.737,448.551 181.5,449.5C 181.48,447.857 182.147,446.524 183.5,445.5C 182.758,443.65 181.758,442.984 180.5,443.5C 180.977,442.522 181.643,441.689 182.5,441C 181.551,440.383 180.718,440.549 180,441.5C 179.797,437.579 179.297,433.745 178.5,430C 178.833,429.667 179.167,429.333 179.5,429C 178.299,428.097 177.465,426.931 177,425.5C 172.307,424.35 167.64,423.016 163,421.5C 161.893,421.585 160.893,421.919 160,422.5C 158.494,420.826 156.661,419.826 154.5,419.5C 154.338,417.176 153.172,415.509 151,414.5C 150.667,414.833 150.333,415.167 150,415.5C 148.732,413.283 147.232,411.283 145.5,409.5C 145.201,404.706 143.701,400.372 141,396.5C 140.233,392.442 140.4,388.442 141.5,384.5C 141.099,382.566 140.099,381.066 138.5,380C 140.176,377.826 141.176,375.326 141.5,372.5C 141.819,367.128 141.486,361.628 140.5,356C 143.143,347.831 143.143,339.664 140.5,331.5C 142.092,323.689 143.925,316.022 146,308.5C 147.803,307.687 149.303,306.52 150.5,305C 149.833,304 149.167,303 148.5,302C 149.137,300.287 150.137,300.121 151.5,301.5C 154.682,299.384 158.015,297.551 161.5,296C 159.212,293.974 157.212,294.308 155.5,297C 153.866,297.494 152.199,297.66 150.5,297.5C 150.649,296.448 150.483,295.448 150,294.5C 148.838,296.838 147.004,298.172 144.5,298.5C 144.715,300.179 144.048,301.179 142.5,301.5C 143.234,300.292 143.567,298.959 143.5,297.5C 146.475,294.339 150.142,292.172 154.5,291C 161.158,290.5 167.825,290.334 174.5,290.5C 174.833,290.5 175.167,290.5 175.5,290.5C 173.575,291.932 171.575,293.432 169.5,295C 170.549,295.492 171.549,295.326 172.5,294.5C 174.773,296.663 177.107,296.829 179.5,295C 179.737,292.712 179.737,290.212 179.5,287.5C 180.5,287.5 181.5,287.5 182.5,287.5C 182.753,281.127 182.419,274.794 181.5,268.5C 183.556,264.666 185.223,260.666 186.5,256.5C 187.076,264.822 188.076,272.988 189.5,281C 189.333,282.833 189.167,284.667 189,286.5C 187.513,287.155 186.347,288.155 185.5,289.5C 188.207,290.904 190.874,292.238 193.5,293.5 Z"/></g>
<g><path style="opacity:1" fill="#d8171a" d="M 346.5,295.5 C 349.049,295.387 351.382,296.054 353.5,297.5C 355.578,299.92 357.912,301.92 360.5,303.5C 360.523,305.927 361.023,308.26 362,310.5C 362.667,342.167 362.667,373.833 362,405.5C 361.078,408.991 359.911,412.325 358.5,415.5C 356.5,415.5 354.5,415.5 352.5,415.5C 352.743,412.117 352.076,408.951 350.5,406C 351.512,404.357 352.512,403.19 353.5,402.5C 353.03,399.45 352.197,399.117 351,401.5C 349.333,401.167 347.667,400.833 346,400.5C 344.268,402.283 342.768,404.283 341.5,406.5C 340.311,407.429 338.978,407.762 337.5,407.5C 336.872,403.842 338.206,401.342 341.5,400C 340.207,399.51 338.873,399.343 337.5,399.5C 337.719,398.325 337.386,397.325 336.5,396.5C 334.132,397.369 332.632,399.035 332,401.5C 329.491,400.347 328.991,398.68 330.5,396.5C 333.352,394.427 334.018,391.761 332.5,388.5C 333.601,386.358 334.601,384.192 335.5,382C 331.652,379.459 331.819,376.959 336,374.5C 336.497,372.19 336.663,369.857 336.5,367.5C 340.123,367.351 340.457,366.184 337.5,364C 338.506,362.662 339.506,361.329 340.5,360C 339.552,359.517 338.552,359.351 337.5,359.5C 337.693,356.692 338.36,354.025 339.5,351.5C 338.5,351.5 337.5,351.5 336.5,351.5C 336.61,348.941 335.944,346.608 334.5,344.5C 333.833,345.167 333.167,345.833 332.5,346.5C 332.167,346 331.833,345.5 331.5,345C 332.287,342.901 332.62,340.734 332.5,338.5C 331.178,338.67 330.011,338.337 329,337.5C 329.375,332.641 327.875,328.308 324.5,324.5C 323.954,322.865 323.62,321.199 323.5,319.5C 317.376,319.586 313.376,316.752 311.5,311C 312.167,310.667 312.833,310.333 313.5,310C 312.167,309.667 310.833,309.333 309.5,309C 312.721,307.46 316.054,307.293 319.5,308.5C 319.5,309.5 319.5,310.5 319.5,311.5C 322.308,311.693 324.975,312.36 327.5,313.5C 327.044,309.398 327.711,305.565 329.5,302C 328.372,300.532 327.706,298.865 327.5,297C 328.187,292.778 329.187,292.612 330.5,296.5C 332.017,295.089 333.351,295.256 334.5,297C 333.313,298.019 332.313,299.186 331.5,300.5C 332,300.833 332.5,301.167 333,301.5C 335.931,299.969 338.931,298.636 342,297.5C 344.527,297.67 345.027,298.67 343.5,300.5C 351.185,302.123 352.185,300.456 346.5,295.5 Z"/></g>
<g><path style="opacity:0.56" fill="#cb4041" d="M 217.5,317.5 C 238.66,316.503 259.993,316.169 281.5,316.5C 285.182,316.335 288.848,316.501 292.5,317C 295.706,317.324 298.039,318.824 299.5,321.5C 293.974,319.761 288.307,318.595 282.5,318C 260.836,317.5 239.169,317.333 217.5,317.5 Z"/></g>
<g><path style="opacity:1" fill="#d6453c" d="M 205.5,318.5 C 206.833,318.5 208.167,318.5 209.5,318.5C 198.363,321.074 189.03,326.74 181.5,335.5C 181.736,332.215 182.736,329.215 184.5,326.5C 186.412,326.512 188.412,326.179 190.5,325.5C 191.386,324.675 191.719,323.675 191.5,322.5C 196.167,321.167 200.833,319.833 205.5,318.5 Z"/></g>
<g><path style="opacity:0.69" fill="#b62825" d="M 292.5,333.5 C 288.519,332.979 284.519,332.646 280.5,332.5C 258.497,332.333 236.497,332.5 214.5,333C 210.828,335.13 206.828,335.963 202.5,335.5C 204.734,333.554 207.401,332.387 210.5,332C 236.833,331.333 263.167,331.333 289.5,332C 290.737,332.232 291.737,332.732 292.5,333.5 Z"/></g>
<g><path style="opacity:0.926" fill="#c6403d" d="M 360.5,303.5 C 362.808,307.047 363.975,311.047 364,315.5C 364.667,344.167 364.667,372.833 364,401.5C 363.579,409.658 360.412,416.325 354.5,421.5C 354.741,419.114 354.075,417.114 352.5,415.5C 354.5,415.5 356.5,415.5 358.5,415.5C 359.911,412.325 361.078,408.991 362,405.5C 362.667,373.833 362.667,342.167 362,310.5C 361.023,308.26 360.523,305.927 360.5,303.5 Z"/></g>
<g><path style="opacity:1" fill="#da171b" d="M 280.5,332.5 C 282.786,336.48 285.786,337.147 289.5,334.5C 289.833,335.833 290.167,337.167 290.5,338.5C 289.667,338.833 288.833,339.167 288,339.5C 285.395,339.66 283.061,339.327 281,338.5C 280,339.167 279,339.833 278,340.5C 276,339.167 274,339.167 272,340.5C 271.667,339.833 271.333,339.167 271,338.5C 270.333,339.833 269.667,339.833 269,338.5C 268.667,339.167 268.333,339.833 268,340.5C 267,340.167 266,339.833 265,339.5C 264.5,340 264,340.5 263.5,341C 258.635,341.899 253.802,342.733 249,343.5C 241.697,342.439 234.364,341.106 227,339.5C 224.756,340.43 222.59,341.597 220.5,343C 222.25,344.754 222.917,346.921 222.5,349.5C 224.288,349.215 225.955,349.548 227.5,350.5C 226.311,351.429 224.978,351.762 223.5,351.5C 223.167,356.833 222.833,356.833 222.5,351.5C 221.5,351.5 220.5,351.5 219.5,351.5C 219.5,354.167 219.5,356.833 219.5,359.5C 216.5,359.5 213.5,359.5 210.5,359.5C 210.5,360.5 210.5,361.5 210.5,362.5C 207.625,363.205 205.458,364.871 204,367.5C 203.505,365.527 203.338,363.527 203.5,361.5C 201.654,361.222 200.32,361.889 199.5,363.5C 200.567,366.434 202.234,368.934 204.5,371C 204.167,371.333 203.833,371.667 203.5,372C 205.394,373.101 206.061,374.434 205.5,376C 206.6,376.432 207.267,375.932 207.5,374.5C 206.61,373.045 206.61,371.711 207.5,370.5C 207.023,369.522 206.357,368.689 205.5,368C 207.473,367.505 209.473,367.338 211.5,367.5C 211.337,369.857 211.503,372.19 212,374.5C 212.71,373.027 213.876,372.36 215.5,372.5C 215.66,374.199 215.494,375.866 215,377.5C 212.822,374.532 211.656,374.865 211.5,378.5C 213.5,378.5 215.5,378.5 217.5,378.5C 217.334,374.486 217.501,370.486 218,366.5C 222.12,360.064 223.953,360.397 223.5,367.5C 225.5,367.5 227.5,367.5 229.5,367.5C 229.5,370.167 229.5,372.833 229.5,375.5C 230.5,375.5 231.5,375.5 232.5,375.5C 232.104,372.518 232.771,369.851 234.5,367.5C 236.069,368.714 236.902,370.381 237,372.5C 238.073,371.72 239.24,371.887 240.5,373C 240.123,376.913 239.123,380.58 237.5,384C 242.179,386.036 246.846,385.869 251.5,383.5C 253.623,384.694 255.957,385.36 258.5,385.5C 263.933,384.636 269.266,384.636 274.5,385.5C 277.253,385.647 279.753,384.98 282,383.5C 283.914,384.676 283.748,385.676 281.5,386.5C 281.833,386.833 282.167,387.167 282.5,387.5C 288.324,383.343 293.991,379.009 299.5,374.5C 301.167,373.334 302.834,373.334 304.5,374.5C 303.466,376.553 301.966,378.22 300,379.5C 299.517,380.448 299.351,381.448 299.5,382.5C 298.127,382.343 296.793,382.51 295.5,383C 292.551,387.117 288.551,389.284 283.5,389.5C 259.969,389.096 236.469,389.096 213,389.5C 209.345,389.617 206.845,387.951 205.5,384.5C 203.887,383.573 202.221,382.739 200.5,382C 199.887,379.853 199.221,377.686 198.5,375.5C 195.694,373.523 193.861,370.856 193,367.5C 192.517,368.448 192.351,369.448 192.5,370.5C 191.5,370.5 190.5,370.5 189.5,370.5C 189.824,366.445 189.491,362.445 188.5,358.5C 187.511,362.107 187.177,365.774 187.5,369.5C 186.838,367.696 186.505,365.696 186.5,363.5C 186.751,359.087 187.418,354.754 188.5,350.5C 191.106,343.561 195.772,338.561 202.5,335.5C 206.828,335.963 210.828,335.13 214.5,333C 236.497,332.5 258.497,332.333 280.5,332.5 Z"/></g>
<g><path style="opacity:1" fill="#d81a1b" d="M 280.5,332.5 C 284.519,332.646 288.519,332.979 292.5,333.5C 300.348,336.014 306.015,341.014 309.5,348.5C 312.623,357.564 313.289,366.897 311.5,376.5C 308.995,384.34 303.995,390.007 296.5,393.5C 296.34,391.801 296.506,390.134 297,388.5C 297.826,390.405 298.993,390.739 300.5,389.5C 302.562,387.908 302.895,386.075 301.5,384C 302.667,383.5 303.5,382.667 304,381.5C 304.414,381.957 304.914,382.291 305.5,382.5C 306.521,380.381 308.021,378.714 310,377.5C 310.495,375.527 310.662,373.527 310.5,371.5C 308.61,371.703 307.11,371.037 306,369.5C 305.802,371.382 305.302,373.048 304.5,374.5C 302.834,373.334 301.167,373.334 299.5,374.5C 293.991,379.009 288.324,383.343 282.5,387.5C 282.167,387.167 281.833,386.833 281.5,386.5C 283.748,385.676 283.914,384.676 282,383.5C 279.753,384.98 277.253,385.647 274.5,385.5C 269.266,384.636 263.933,384.636 258.5,385.5C 255.957,385.36 253.623,384.694 251.5,383.5C 246.846,385.869 242.179,386.036 237.5,384C 239.123,380.58 240.123,376.913 240.5,373C 239.24,371.887 238.073,371.72 237,372.5C 236.902,370.381 236.069,368.714 234.5,367.5C 232.771,369.851 232.104,372.518 232.5,375.5C 231.5,375.5 230.5,375.5 229.5,375.5C 229.5,372.833 229.5,370.167 229.5,367.5C 227.5,367.5 225.5,367.5 223.5,367.5C 223.953,360.397 222.12,360.064 218,366.5C 217.501,370.486 217.334,374.486 217.5,378.5C 215.5,378.5 213.5,378.5 211.5,378.5C 211.656,374.865 212.822,374.532 215,377.5C 215.494,375.866 215.66,374.199 215.5,372.5C 213.876,372.36 212.71,373.027 212,374.5C 211.503,372.19 211.337,369.857 211.5,367.5C 209.473,367.338 207.473,367.505 205.5,368C 206.357,368.689 207.023,369.522 207.5,370.5C 206.61,371.711 206.61,373.045 207.5,374.5C 207.267,375.932 206.6,376.432 205.5,376C 206.061,374.434 205.394,373.101 203.5,372C 203.833,371.667 204.167,371.333 204.5,371C 202.234,368.934 200.567,366.434 199.5,363.5C 200.32,361.889 201.654,361.222 203.5,361.5C 203.338,363.527 203.505,365.527 204,367.5C 205.458,364.871 207.625,363.205 210.5,362.5C 210.5,361.5 210.5,360.5 210.5,359.5C 213.5,359.5 216.5,359.5 219.5,359.5C 219.5,356.833 219.5,354.167 219.5,351.5C 220.5,351.5 221.5,351.5 222.5,351.5C 222.833,356.833 223.167,356.833 223.5,351.5C 224.978,351.762 226.311,351.429 227.5,350.5C 225.955,349.548 224.288,349.215 222.5,349.5C 222.917,346.921 222.25,344.754 220.5,343C 222.59,341.597 224.756,340.43 227,339.5C 234.364,341.106 241.697,342.439 249,343.5C 253.802,342.733 258.635,341.899 263.5,341C 264,340.5 264.5,340 265,339.5C 266,339.833 267,340.167 268,340.5C 268.333,339.833 268.667,339.167 269,338.5C 269.667,339.833 270.333,339.833 271,338.5C 271.333,339.167 271.667,339.833 272,340.5C 274,339.167 276,339.167 278,340.5C 279,339.833 280,339.167 281,338.5C 283.061,339.327 285.395,339.66 288,339.5C 288.833,339.167 289.667,338.833 290.5,338.5C 290.167,337.167 289.833,335.833 289.5,334.5C 285.786,337.147 282.786,336.48 280.5,332.5 Z"/></g>
<g><path style="opacity:0.976" fill="#d1564e" d="M 181.5,335.5 C 177.37,341.751 174.37,348.418 172.5,355.5C 172.187,351.587 172.853,347.921 174.5,344.5C 175.853,341.479 177.186,338.479 178.5,335.5C 179.5,335.5 180.5,335.5 181.5,335.5 Z"/></g>
<g><path style="opacity:0.929" fill="#c94c47" d="M 319.5,339.5 C 320.675,339.281 321.675,339.614 322.5,340.5C 327.599,349.834 329.432,359.834 328,370.5C 327.998,373.051 327.164,375.051 325.5,376.5C 328.796,363.276 326.796,350.943 319.5,339.5 Z"/></g>
<g><path style="opacity:0.938" fill="#ca4341" d="M 143.5,297.5 C 143.567,298.959 143.234,300.292 142.5,301.5C 139.366,303.609 137.533,306.609 137,310.5C 136.333,342.5 136.333,374.5 137,406.5C 138.549,409.312 139.382,412.312 139.5,415.5C 136.941,412 135.441,408 135,403.5C 134.333,373.833 134.333,344.167 135,314.5C 135.473,307.538 138.306,301.871 143.5,297.5 Z"/></g>
<g><path style="opacity:0.627" fill="#cf504b" d="M 309.5,348.5 C 311.117,350.121 312.284,352.121 313,354.5C 313.667,361.167 313.667,367.833 313,374.5C 312.722,375.416 312.222,376.082 311.5,376.5C 313.289,366.897 312.623,357.564 309.5,348.5 Z"/></g>
<g><path style="opacity:0.957" fill="#cd4c49" d="M 188.5,350.5 C 187.418,354.754 186.751,359.087 186.5,363.5C 186.505,365.696 186.838,367.696 187.5,369.5C 188.422,373.112 189.089,376.779 189.5,380.5C 186.257,375.577 184.924,370.077 185.5,364C 185.036,359.034 186.036,354.534 188.5,350.5 Z"/></g>
<g><path style="opacity:1" fill="#d71c1c" d="M 181.5,322.5 C 181.803,325.588 180.47,327.254 177.5,327.5C 177.5,326.5 177.5,325.5 177.5,324.5C 174.121,324.888 170.788,325.555 167.5,326.5C 168.376,327.251 169.376,327.751 170.5,328C 168.643,329.182 167.643,330.849 167.5,333C 169.66,336.619 170.994,340.452 171.5,344.5C 172.5,344.5 173.5,344.5 174.5,344.5C 172.853,347.921 172.187,351.587 172.5,355.5C 170.805,369.039 173.805,381.372 181.5,392.5C 184.573,395.899 187.573,399.232 190.5,402.5C 187.93,401.284 185.43,400.617 183,400.5C 180.531,405.771 181.364,410.271 185.5,414C 184.646,415.022 183.646,415.855 182.5,416.5C 182.167,415.167 181.833,413.833 181.5,412.5C 179.477,411.145 177.477,410.812 175.5,411.5C 178.118,413.981 177.785,415.981 174.5,417.5C 170.255,417.741 165.922,417.741 161.5,417.5C 159.469,416.461 158.136,414.795 157.5,412.5C 155.713,411.684 154.046,410.684 152.5,409.5C 152.709,408.914 153.043,408.414 153.5,408C 151.955,406.178 151.288,404.011 151.5,401.5C 151.976,398.621 152.642,395.788 153.5,393C 152.815,389.479 150.815,386.979 147.5,385.5C 148.566,381.981 149.899,379.314 151.5,377.5C 149.711,374.349 149.211,371.016 150,367.5C 150.807,371.449 151.307,371.449 151.5,367.5C 155.5,367.443 159,368.443 162,370.5C 162.543,373.868 162.376,377.201 161.5,380.5C 164.346,380.191 165.846,378.525 166,375.5C 167.852,379.02 169.519,382.687 171,386.5C 172.011,387.337 173.178,387.67 174.5,387.5C 174.231,383.526 173.064,379.86 171,376.5C 170.182,366.589 170.349,356.756 171.5,347C 170.382,345.926 169.382,344.76 168.5,343.5C 167.914,343.709 167.414,344.043 167,344.5C 165.514,349.954 163.848,355.287 162,360.5C 162.038,352.446 163.538,344.613 166.5,337C 166.167,336.5 165.833,336 165.5,335.5C 164.167,336.5 162.833,337.5 161.5,338.5C 160.5,336.5 159.5,334.5 158.5,332.5C 157.725,334.475 156.391,335.309 154.5,335C 151.998,333.086 149.998,330.753 148.5,328C 149.518,324.916 149.185,321.916 147.5,319C 148.988,316.375 149.822,313.542 150,310.5C 152.546,307.814 155.713,306.814 159.5,307.5C 159.703,305.61 159.037,304.11 157.5,303C 158,302.5 158.5,302 159,301.5C 162.149,303.362 165.649,304.029 169.5,303.5C 169.5,304.5 169.5,305.5 169.5,306.5C 173.5,305.833 175.167,307.5 174.5,311.5C 177.336,311.202 177.836,311.869 176,313.5C 174.578,313.406 173.078,313.072 171.5,312.5C 172.645,311.109 172.645,309.776 171.5,308.5C 170.272,312.241 168.938,315.908 167.5,319.5C 170.552,320.527 173.385,321.861 176,323.5C 177.556,321.365 179.389,321.032 181.5,322.5 Z"/></g>
<g><path style="opacity:0.82" fill="#c44949" d="M 325.5,377.5 C 325.702,379.95 325.369,382.283 324.5,384.5C 323.561,387.106 321.894,389.106 319.5,390.5C 321.544,386.142 323.544,381.809 325.5,377.5 Z"/></g>
<g><path style="opacity:1" fill="#d23c37" d="M 189.5,380.5 C 193.569,381.399 196.236,383.899 197.5,388C 199.167,388.333 200.833,388.667 202.5,389C 201.272,390.49 201.272,391.99 202.5,393.5C 196.5,390.833 192.167,386.5 189.5,380.5 Z"/></g>
<g><path style="opacity:1" fill="#e01217" d="M 304.5,374.5 C 305.302,373.048 305.802,371.382 306,369.5C 307.11,371.037 308.61,371.703 310.5,371.5C 310.662,373.527 310.495,375.527 310,377.5C 308.021,378.714 306.521,380.381 305.5,382.5C 304.914,382.291 304.414,381.957 304,381.5C 303.5,382.667 302.667,383.5 301.5,384C 302.895,386.075 302.562,387.908 300.5,389.5C 298.993,390.739 297.826,390.405 297,388.5C 296.506,390.134 296.34,391.801 296.5,393.5C 292.44,394.01 288.44,394.844 284.5,396C 260.167,396.667 235.833,396.667 211.5,396C 208.753,394.396 205.753,393.562 202.5,393.5C 201.272,391.99 201.272,390.49 202.5,389C 200.833,388.667 199.167,388.333 197.5,388C 196.236,383.899 193.569,381.399 189.5,380.5C 189.089,376.779 188.422,373.112 187.5,369.5C 187.177,365.774 187.511,362.107 188.5,358.5C 189.491,362.445 189.824,366.445 189.5,370.5C 190.5,370.5 191.5,370.5 192.5,370.5C 192.351,369.448 192.517,368.448 193,367.5C 193.861,370.856 195.694,373.523 198.5,375.5C 199.221,377.686 199.887,379.853 200.5,382C 202.221,382.739 203.887,383.573 205.5,384.5C 206.845,387.951 209.345,389.617 213,389.5C 236.469,389.096 259.969,389.096 283.5,389.5C 288.551,389.284 292.551,387.117 295.5,383C 296.793,382.51 298.127,382.343 299.5,382.5C 299.351,381.448 299.517,380.448 300,379.5C 301.966,378.22 303.466,376.553 304.5,374.5 Z"/></g>
<g><path style="opacity:0.729" fill="#c7453d" d="M 202.5,393.5 C 205.753,393.562 208.753,394.396 211.5,396C 235.833,396.667 260.167,396.667 284.5,396C 288.44,394.844 292.44,394.01 296.5,393.5C 292.548,396.769 287.881,398.269 282.5,398C 257.81,398.883 233.144,398.55 208.5,397C 206.382,395.918 204.382,394.751 202.5,393.5 Z"/></g>
<g><path style="opacity:1" fill="#d0413b" d="M 318.5,392.5 C 317.484,395.693 315.817,398.526 313.5,401C 314.602,403.391 313.936,403.891 311.5,402.5C 306.539,406.493 300.873,408.826 294.5,409.5C 298.899,407.464 303.233,405.131 307.5,402.5C 311.233,399.094 314.899,395.761 318.5,392.5 Z"/></g>
<g><path style="opacity:1" fill="#d8181b" d="M 324.5,384.5 C 323.54,388.195 323.54,391.861 324.5,395.5C 326.53,393.393 328.697,391.393 331,389.5C 330.888,391.178 330.388,392.845 329.5,394.5C 329.543,395.416 329.876,396.083 330.5,396.5C 328.991,398.68 329.491,400.347 332,401.5C 332.632,399.035 334.132,397.369 336.5,396.5C 337.386,397.325 337.719,398.325 337.5,399.5C 338.873,399.343 340.207,399.51 341.5,400C 338.206,401.342 336.872,403.842 337.5,407.5C 338.978,407.762 340.311,407.429 341.5,406.5C 342.768,404.283 344.268,402.283 346,400.5C 347.667,400.833 349.333,401.167 351,401.5C 352.197,399.117 353.03,399.45 353.5,402.5C 352.512,403.19 351.512,404.357 350.5,406C 352.076,408.951 352.743,412.117 352.5,415.5C 354.075,417.114 354.741,419.114 354.5,421.5C 354.19,423.144 353.19,424.144 351.5,424.5C 350.167,424.5 348.833,424.5 347.5,424.5C 348.635,422.787 350.302,422.12 352.5,422.5C 352.657,421.127 352.49,419.793 352,418.5C 351.586,418.957 351.086,419.291 350.5,419.5C 348.991,417.085 347.324,416.919 345.5,419C 346.833,419.667 346.833,420.333 345.5,421C 340.114,421.359 334.781,420.859 329.5,419.5C 326.179,419.685 323.179,420.018 320.5,420.5C 319.522,420.023 318.689,419.357 318,418.5C 315.641,422.312 315.141,426.312 316.5,430.5C 314.833,431.167 313.167,431.833 311.5,432.5C 312.689,433.429 314.022,433.762 315.5,433.5C 315.666,437.846 315.499,442.179 315,446.5C 310.721,447.39 306.555,448.723 302.5,450.5C 286.979,450.006 271.146,449.673 255,449.5C 244.5,449.833 234,450.167 223.5,450.5C 224.025,451.192 224.692,451.692 225.5,452C 223.966,452.923 222.299,453.423 220.5,453.5C 210.185,453.498 199.851,453.498 189.5,453.5C 188.833,453.167 188.167,452.833 187.5,452.5C 189.379,450.93 189.712,449.264 188.5,447.5C 187.151,443.795 186.817,440.129 187.5,436.5C 185.876,436.64 184.71,435.973 184,434.5C 183.667,435.167 183.333,435.833 183,436.5C 182.749,434.567 182.249,432.734 181.5,431C 184.167,429.333 184.167,427.667 181.5,426C 183.283,424.933 183.783,423.433 183,421.5C 180.931,420.736 178.764,420.236 176.5,420C 175.934,419.005 175.267,418.172 174.5,417.5C 177.785,415.981 178.118,413.981 175.5,411.5C 177.477,410.812 179.477,411.145 181.5,412.5C 181.833,413.833 182.167,415.167 182.5,416.5C 183.646,415.855 184.646,415.022 185.5,414C 181.364,410.271 180.531,405.771 183,400.5C 185.43,400.617 187.93,401.284 190.5,402.5C 190.833,402.5 191.167,402.5 191.5,402.5C 194.445,407.143 198.778,409.477 204.5,409.5C 204.833,409.5 205.167,409.5 205.5,409.5C 207.148,410.927 209.148,411.76 211.5,412C 238.167,412.667 264.833,412.667 291.5,412C 293.119,411.764 294.119,410.931 294.5,409.5C 300.873,408.826 306.539,406.493 311.5,402.5C 313.936,403.891 314.602,403.391 313.5,401C 315.817,398.526 317.484,395.693 318.5,392.5C 318.328,391.508 318.662,390.842 319.5,390.5C 321.894,389.106 323.561,387.106 324.5,384.5 Z"/></g>
<g><path style="opacity:0.727" fill="#b62c2d" d="M 205.5,409.5 C 208.487,409.998 211.487,410.498 214.5,411C 237.833,411.667 261.167,411.667 284.5,411C 287.827,410.39 291.161,409.89 294.5,409.5C 294.119,410.931 293.119,411.764 291.5,412C 264.833,412.667 238.167,412.667 211.5,412C 209.148,411.76 207.148,410.927 205.5,409.5 Z"/></g>
<g><path style="opacity:0.792" fill="#cd5450" d="M 191.5,402.5 C 195.74,405.118 200.074,407.452 204.5,409.5C 198.778,409.477 194.445,407.143 191.5,402.5 Z"/></g>
<g><path style="opacity:1" fill="#ca3130" d="M 139.5,416.5 C 145.289,419.787 150.956,423.287 156.5,427C 162.84,427.601 169.174,428.267 175.5,429C 176.151,436.11 176.817,443.277 177.5,450.5C 178.798,453.45 180.464,456.117 182.5,458.5C 178.847,457.011 176.347,454.344 175,450.5C 174.5,443.842 174.334,437.175 174.5,430.5C 159.779,433.264 148.112,428.597 139.5,416.5 Z"/></g>
<g><path style="opacity:1" fill="#cf3430" d="M 347.5,424.5 C 348.833,424.5 350.167,424.5 351.5,424.5C 348.68,427.081 345.346,428.914 341.5,430C 335.792,430.579 330.125,431.412 324.5,432.5C 324.833,433.167 325.167,433.833 325.5,434.5C 324.711,440.115 324.211,445.782 324,451.5C 323.051,453.093 321.885,454.426 320.5,455.5C 322.031,451.06 322.698,446.394 322.5,441.5C 322.421,437.642 321.754,433.976 320.5,430.5C 327.111,429.196 333.778,428.196 340.5,427.5C 343.099,426.865 345.432,425.865 347.5,424.5 Z"/></g>
<g><path style="opacity:1" fill="#de131a" d="M 188.5,447.5 C 189.712,449.264 189.379,450.93 187.5,452.5C 188.167,452.833 188.833,453.167 189.5,453.5C 199.851,453.498 210.185,453.498 220.5,453.5C 222.299,453.423 223.966,452.923 225.5,452C 224.692,451.692 224.025,451.192 223.5,450.5C 234,450.167 244.5,449.833 255,449.5C 271.146,449.673 286.979,450.006 302.5,450.5C 306.555,448.723 310.721,447.39 315,446.5C 315.499,442.179 315.666,437.846 315.5,433.5C 314.022,433.762 312.689,433.429 311.5,432.5C 313.167,431.833 314.833,431.167 316.5,430.5C 315.141,426.312 315.641,422.312 318,418.5C 318.689,419.357 319.522,420.023 320.5,420.5C 323.179,420.018 326.179,419.685 329.5,419.5C 334.781,420.859 340.114,421.359 345.5,421C 346.833,420.333 346.833,419.667 345.5,419C 347.324,416.919 348.991,417.085 350.5,419.5C 351.086,419.291 351.586,418.957 352,418.5C 352.49,419.793 352.657,421.127 352.5,422.5C 350.302,422.12 348.635,422.787 347.5,424.5C 345.432,425.865 343.099,426.865 340.5,427.5C 333.778,428.196 327.111,429.196 320.5,430.5C 321.754,433.976 322.421,437.642 322.5,441.5C 322.698,446.394 322.031,451.06 320.5,455.5C 320.5,456.167 320.167,456.5 319.5,456.5C 315.599,457.641 311.599,458.474 307.5,459C 266.168,459.5 224.835,459.667 183.5,459.5C 182.833,459.5 182.5,459.167 182.5,458.5C 180.464,456.117 178.798,453.45 177.5,450.5C 176.817,443.277 176.151,436.11 175.5,429C 169.174,428.267 162.84,427.601 156.5,427C 150.956,423.287 145.289,419.787 139.5,416.5C 139.5,416.167 139.5,415.833 139.5,415.5C 139.382,412.312 138.549,409.312 137,406.5C 136.333,374.5 136.333,342.5 137,310.5C 137.533,306.609 139.366,303.609 142.5,301.5C 144.048,301.179 144.715,300.179 144.5,298.5C 147.004,298.172 148.838,296.838 150,294.5C 150.483,295.448 150.649,296.448 150.5,297.5C 152.199,297.66 153.866,297.494 155.5,297C 157.212,294.308 159.212,293.974 161.5,296C 158.015,297.551 154.682,299.384 151.5,301.5C 150.137,300.121 149.137,300.287 148.5,302C 149.167,303 149.833,304 150.5,305C 149.303,306.52 147.803,307.687 146,308.5C 143.925,316.022 142.092,323.689 140.5,331.5C 143.143,339.664 143.143,347.831 140.5,356C 141.486,361.628 141.819,367.128 141.5,372.5C 141.176,375.326 140.176,377.826 138.5,380C 140.099,381.066 141.099,382.566 141.5,384.5C 140.4,388.442 140.233,392.442 141,396.5C 143.701,400.372 145.201,404.706 145.5,409.5C 147.232,411.283 148.732,413.283 150,415.5C 150.333,415.167 150.667,414.833 151,414.5C 153.172,415.509 154.338,417.176 154.5,419.5C 156.661,419.826 158.494,420.826 160,422.5C 160.893,421.919 161.893,421.585 163,421.5C 167.64,423.016 172.307,424.35 177,425.5C 177.465,426.931 178.299,428.097 179.5,429C 179.167,429.333 178.833,429.667 178.5,430C 179.297,433.745 179.797,437.579 180,441.5C 180.718,440.549 181.551,440.383 182.5,441C 181.643,441.689 180.977,442.522 180.5,443.5C 181.758,442.984 182.758,443.65 183.5,445.5C 182.147,446.524 181.48,447.857 181.5,449.5C 183.737,448.551 186.071,447.884 188.5,447.5 Z"/></g>
<g><path style="opacity:0.897" fill="#c73835" d="M 319.5,456.5 C 317.075,459.762 313.742,461.262 309.5,461C 269.167,461.667 228.833,461.667 188.5,461C 186.618,460.802 184.952,460.302 183.5,459.5C 224.835,459.667 266.168,459.5 307.5,459C 311.599,458.474 315.599,457.641 319.5,456.5 Z"/></g>
</svg>
